<svg width="880pt" height="1600" viewBox="0 0 880 1200" xmlns="http://www.w3.org/2000/svg"><path fill="#d6ca43" d="M36.79 22.09c11.22-9.05 25.75-14.26 40.23-13.7 107.66.24 215.33.2 322.98.42 6.7-.29 13.4-.03 20.09.46 108.97.18 217.95.34 326.92.42 13.55 1.09 26.88 6.14 37.58 14.58 16.38 12.82 26.31 33.63 25.08 54.5-2.76-5.42-1.85-11.68-3.18-17.44-2.73-12.85-10.55-23.97-19.77-33.05-10.56-9.62-24.54-15.38-38.67-16.9-40-.28-80.02.14-120.01-.36-17.34.35-34.66-.26-51.99-.19-150.35-.15-300.69-.22-451.04-.45-5.7.02-11.4.09-17.09-.29-5.97-.45-11.93.62-17.9.14C75.5 8.99 60 9.84 47.08 17.27c-4.15 2.47-8.1 5.3-12.59 7.16.57-.59 1.72-1.76 2.3-2.34z"/><path fill="#dec909" d="M47.08 17.27C60 9.84 75.5 8.99 90.02 10.23c5.97.48 11.93-.59 17.9-.14 5.69.38 11.39.31 17.09.29 150.35.23 300.69.3 451.04.45 17.33-.07 34.65.54 51.99.19 39.99.5 80.01.08 120.01.36 14.13 1.52 28.11 7.28 38.67 16.9 9.22 9.08 17.04 20.2 19.77 33.05 1.33 5.76.42 12.02 3.18 17.44 1.15 1.77 3.25 2.61 4.99 3.68 11.22 6.22 20.91 14.84 29.78 24.04 10.54 11.79 18.12 26 23.21 40.92.52 1.48.63 3.06.63 4.62-.12 29 .03 58.01-.09 87.01.2 2.26-.58 4.87.99 6.82-.13-.07-.38-.19-.51-.26-1.49-.84-1.15-3.03-1.9-4.28.17 1.66.33 3.33.48 5-1.59 6.12-.7 12.47-.87 18.71-.23 29.98.11 59.96-.09 89.94.17 7.35-.12 14.69-.55 22.03-.3 126.32-.07 252.64-.53 378.95.47 5.09-4.06 8.34-5.33 12.93-2.84 3.73-5.93 7.28-8.65 11.11-14.37 17.17-28.01 34.96-42.76 51.81-.07 81.73-.12 163.46-.2 245.18-.09 4.67.25 9.37-.29 14.03.66 11 .13 22.05.3 33.07l-.55.77c.17 6.57-1.46 13-3.53 19.18-9.58 26.95-37.14 47.63-66.21 45.81-187.65.02-375.31-.38-562.97-.51-1.4.08-2.74-.16-4.02-.7-2.17 1.2-4.64.5-6.96.31-6.68.8-13.42.28-20.09-.25-22.65-.13-45.31.02-67.96-.11-25.93-.53-50.11-17.88-60.19-41.57l-.04-.82c.13-5.32-2.44-10.13-3.31-15.28-1.4-6.55-1.14-13.29-1.1-19.95.01-94.98.33-189.97.25-284.95-.21-8.36 1.12-16.67.8-25.03.03-209.34.19-418.69.34-628.03.61-12.99-.47-26 .38-38.98.46-6.33-.24-12.65-.09-18.98.5-12.66.09-25.33.27-37.99.11-3.88-.25-7.75-.69-11.6 2.1-15.66 9.8-30.68 21.88-40.97 4.49-1.86 8.44-4.69 12.59-7.16m11.96 5.58C48.75 26.11 40.17 33.29 33.73 41.8 26.07 51.34 22.72 63.89 23.32 76c-.08 13.32.33 26.66-.45 39.96.83 13.67.24 27.37.41 41.06-.41 8.31-.94 16.64-.38 24.96.68 8.31.23 16.66.35 24.99-1.08 19.97-.3 39.98-.55 59.97-.01 88.36-.1 176.71-.05 265.07-.01 105.34-.29 210.68-.25 316.02.34 7.34-1.1 14.62-.74 21.97-.13 13.99.27 27.98 0 41.98-.13 5.68 1.01 11.32.65 17.01-1.3 12.27-.42 24.63-.7 36.95.07 46.71-.24 93.42-.08 140.13-.15 11.89-.45 24.31 4.73 35.34l.88-1.26c3.5 9.02 9.26 17.36 16.94 23.3-.18 2.07 1.77 3.17 3.24 4.15 8.88 5.6 19.2 9.04 29.68 9.71 92.67.15 185.34.18 278.01.37 7.35-.32 14.65.93 22 .63 120.64.12 241.28.29 361.93.34 10.67.38 20.93-3.51 30.17-8.52 1.01-.66 1.6-1.61 1.78-2.86 12.47-9.18 21.98-23.27 23.63-38.87 1.34-1.15 1.97-2.79 1.88-4.5.2-203.64.08-407.28.47-610.92.65-120.66.32-241.34.9-362 1.11-7.3-.2-14.63.38-21.95-.79-10.68.5-21.35.19-32.03.21-10.05-.32-20.13-1.8-30.07-1.99-8.52-5.28-16.9-10.69-23.85-3.91-5.08-9.11-8.94-14.29-12.61-1.25-1.07-2.98-.95-4.49-1.04-9.92-5.78-21.78-7.1-33.07-6.81-86.34-.08-172.68-.16-259.02-.31-18.32-.13-36.67.3-54.97-.36-5.34 1.02-10.69-.76-16.02.11-3.98.51-7.96-.57-11.95-.17-2.01-.06-4.02-.08-6.01.02-39.19-.43-78.39-.14-117.58-.26-2.93-1.56-6.31-1.06-9.5-1.1-50.66.09-101.33-.11-151.99-.16-15.94-.79-32.4-2.16-47.92 2.46z"/><g fill="#d2c64a"><path d="M59.04 22.85c15.52-4.62 31.98-3.25 47.92-2.46 50.66.05 101.33.25 151.99.16 3.19.04 6.57-.46 9.5 1.1-12.51-.01-25.01.91-37.51.15-52-.02-103.99-.1-155.99-.25-13.58.27-26.95 6.25-36.03 16.4-8.95 9.38-14.04 22.13-14.21 35.08-.01 126.31-.47 252.62-.37 378.94-.11 63.33.07 126.69-.29 190.01-.6 22.34-.16 44.71-.31 67.06-.08 135.64-.34 271.27-.39 406.91-.21 8.22.93 16.46 3.79 24.2l-.88 1.26c-5.18-11.03-4.88-23.45-4.73-35.34-.16-46.71.15-93.42.08-140.13.28-12.32-.6-24.68.7-36.95.36-5.69-.78-11.33-.65-17.01.27-14-.13-27.99 0-41.98-.36-7.35 1.08-14.63.74-21.97-.04-105.34.24-210.68.25-316.02-.05-88.36.04-176.71.05-265.07.25-19.99-.53-40 .55-59.97-.12-8.33.33-16.68-.35-24.99-.56-8.32-.03-16.65.38-24.96-.17-13.69.42-27.39-.41-41.06.78-13.3.37-26.64.45-39.96-.6-12.11 2.75-24.66 10.41-34.2 6.44-8.51 15.02-15.69 25.31-18.95zM11.98 86.01c.1-6.87-.41-13.79.63-20.61.44 3.85.8 7.72.69 11.6-.18 12.66.23 25.33-.27 37.99-.15 6.33.55 12.65.09 18.98-.85 12.98.23 25.99-.38 38.98-.15 209.34-.31 418.69-.34 628.03.32 8.36-1.01 16.67-.8 25.03.08 94.98-.24 189.97-.25 284.95-.04 6.66-.3 13.4 1.1 19.95.87 5.15 3.44 9.96 3.31 15.28-4.69-8.89-5.97-19.31-6.08-29.25.04-52.32.05-104.65.07-156.97.05-7.02-.26-14.04.47-21.03-.19-14.06.19-28.13.1-42.2.52-21.9.03-43.81.2-65.72.59-54.35.03-108.7.41-163.04.09-193.99.48-387.98 1.05-581.97z"/></g><path fill="#fbf7b2" d="M29.07 27.08c2.12-2.25 4.4-4.77 7.72-4.99-.58.58-1.73 1.75-2.3 2.34C22.41 34.72 14.71 49.74 12.61 65.4c-1.04 6.82-.53 13.74-.63 20.61-.57 193.99-.96 387.98-1.05 581.97-.38 54.34.18 108.69-.41 163.04-.17 21.91.32 43.82-.2 65.72-1.32-2.76-.99-5.82-.98-8.76.21-176.65.21-353.31.32-529.96-.29-7.36.86-14.67.63-22.02.05-85.34.17-170.68.34-256.02-.22-10.18.29-20.68 4.28-30.19 3.51-8.23 8.01-16.15 14.16-22.71z"/><g fill="#fff"><path d="M38.92 37.95C48 27.8 61.37 21.82 74.95 21.55c52 .15 103.99.23 155.99.25 12.5.76 25-.16 37.51-.15 39.19.12 78.39-.17 117.58.26 1.99-.1 4-.08 6.01-.02 3.99-.4 7.97.68 11.95.17 5.33-.87 10.68.91 16.02-.11 18.3.66 36.65.23 54.97.36 86.34.15 172.68.23 259.02.31 11.29-.29 23.15 1.03 33.07 6.81 6.5 4.1 13 8.58 17.61 14.83 5.71 7.57 9.41 16.57 10.97 25.9 1.03 6.22.83 12.55.85 18.83-.01 59.99-.07 119.98-.22 179.97.08 7.68-.03 15.35-.52 23.01-.03 170.68-.19 341.36-.4 512.04-.25 23.34.53 46.71-.65 70.02-.05 84.79.05 169.58-.19 254.37-1.65 15.6-11.16 29.69-23.63 38.87-6.5 3.77-13.31 7.26-20.75 8.7-11.24 2.32-22.76 1.26-34.14 1.45-30.99-.07-61.98-.09-92.97-.14-27.67-.79-55.35-.53-83.03-.59-53.67-.13-107.35-.1-161.02-.24-40.32-.19-80.64.18-120.94-.7-59.69-.04-119.39-.04-179.08-.1-12.61-.01-24.84-4.72-34.88-12.2-7.68-5.94-13.44-14.28-16.94-23.3-2.86-7.74-4-15.98-3.79-24.2.05-135.64.31-271.27.39-406.91.15-22.35-.29-44.72.31-67.06.36-63.32.18-126.68.29-190.01-.1-126.32.36-252.63.37-378.94.17-12.95 5.26-25.7 14.21-35.08m558.23 13.91c3.37 7.59-1.31 15.37-2.92 22.8-2.77.06-5.53.05-8.29.01.58-3.96 2.2-7.73 2.41-11.74-.97-5.37-6.64-7.43-11.14-9.08.4 2.7.93 5.48.15 8.17-1.77 6.64-3.77 13.23-5.58 19.86-1.33 4.89-3.51 9.99-2.09 15.11 1.89 4.41 6.96 5.57 11.08 6.89-3.45-6.7 1.57-13.6 2.14-20.42 2.97-.19 5.96-.2 8.95-.13-.04.45-.14 1.36-.19 1.81l-.31-1.29c-2.06 8.57-4.51 17.04-6.73 25.57-.87 3.52-1.92 7.54.1 10.89 2.99 4.97 8.79 7.24 14.14 8.7-1.59-2.72-2.89-5.84-1.87-9.02 3.85-15.36 8.5-30.54 12.17-45.95 1.33-4.6 3.47-9.85 1.02-14.44-2.81-4.5-8.1-6.56-13.04-7.74m129.55 24.7c-4.26 5.49-6.76 13.17-4.01 19.88 3.54 7.86 14.53 9.84 21.54 5.63 1.82-3.62 2.12-7.82 3.44-11.64-2.89 1.99-5.95 4.34-9.64 4.24-2.86.04-5.94-1.65-6.45-4.66-1.36-6.96 5.51-14.15 12.53-12.94 2.6.32 4.27 2.49 5.95 4.27.82-3.91 1.9-7.75 2.98-11.59-9.02-3.65-20.36-.99-26.34 6.81M622.89 68.9c-3.22 11.44-6.03 22.98-9.33 34.4 6.65-.07 13.31.06 19.96 0 .7-2.62 1.39-5.25 2.14-7.86-3.61.03-7.22-.03-10.83-.09.43-1.7.83-3.41 1.23-5.12 3.4-.46 6.82-.19 10.24-.16 1.87-2.18 1.8-5.4 2.55-8.09a234.9 234.9 0 0 0-10.28-.02c.48-1.8.96-3.6 1.41-5.41 3.57-.07 7.14-.1 10.71-.05.59-2.56 1.18-5.13 1.81-7.68-6.54.12-13.08-.07-19.61.08m17.04 34.3c6.67.26 13.34.16 20.02.1.62-2.62 1.3-5.22 1.97-7.83-3.51-.08-7.01-.13-10.51-.16 2.33-8.84 4.81-17.64 6.97-26.52-3.03.02-6.06.02-9.08 0-3.4 11.39-6.37 22.91-9.37 34.41m28.14-26.79c2.48.04 4.96.05 7.45.01-2.31 9.05-5.07 17.99-7.5 27.01 3.13.03 6.26.01 9.4-.03 2.56-8.93 4.87-17.93 7.37-26.88 2.36.06 4.74.09 7.12.1.76-2.58 1.44-5.18 2.1-7.79-8.04-.05-16.09-.01-24.14-.04-.58 2.55-1.18 5.09-1.8 7.62m23.28 26.83c6.65.08 13.3.28 19.95.02.7-2.62 1.4-5.23 2.19-7.82-3.63 0-7.26-.04-10.88.05.48-1.78.95-3.56 1.41-5.35 3.46-.03 6.91-.07 10.38-.03.79-2.65 1.48-5.33 2.11-8.02-3.48.05-6.96.06-10.44.08l1.47-5.66c3.62.06 7.24.08 10.86.04.65-2.57 1.25-5.15 1.89-7.72-6.57.02-13.13.01-19.7.05-3.37 11.37-6.39 22.85-9.24 34.36m-74.64 6.45c-2.59 3.85-4.91 7.86-7.46 11.74 3.27.73 7.29-4.39 9.58-.18l3.15.09c-.5-3.88-1.09-7.75-1.39-11.65h-3.88m9.35.09c-.7 3.43-2.77 7.05-1.39 10.55 3.02 2.43 8.55 1.25 10.04-2.51 1.09-2.6 1.52-5.41 2.19-8.14-.89.01-2.68.04-3.57.05-1.12 3.04-.63 10.07-5.6 8.7.23-2.99 1.07-5.88 1.88-8.75-.89.02-2.66.08-3.55.1m11.92 3.02c.8-.04 2.41-.13 3.22-.17-.63 2.9-1.28 5.79-2.08 8.65h3.67c.69-2.82 1.29-5.66 1.87-8.5 2.39.4 4.45-.46 5.06-2.97-3.27-.22-6.54-.27-9.8-.01-1.97-.49-1.79 1.83-1.94 3m14.41-2.34c-3.34 1.78-5.68 6.75-2.9 9.95 5.13 3.82 12.81-2.06 11.08-8.04-1.08-3.36-5.59-3.48-8.18-1.91m8.4 10.86c.78 0 2.33.01 3.1.02.66-2.48 1.29-4.97 1.87-7.47.03 2.48.1 4.97.12 7.46.77-.02 2.31-.05 3.08-.07 1.11-2.52 2.41-4.94 3.71-7.36-.74 2.42-1.17 4.92-1.5 7.44.73-.06 2.17-.18 2.9-.25 1.02-3.73 1.67-7.56 2.74-11.29-1.64-.01-3.27-.01-4.9-.01-1.1 2.33-2.18 4.67-3.29 6.99.04-2.36.12-4.71.23-7.06-1.72 0-3.44.02-5.15.04-.78 3.9-1.75 7.75-2.91 11.56m21.3-11.51c-2.37 3.9-4.67 7.84-7.21 11.63 2.04.16 4.01-.13 5.18-1.98 1.11.01 2.23.03 3.36.05.73 1.75 2.17 2.39 4.31 1.91-.69-3.86-1.35-7.73-1.35-11.65-1.44 0-2.87.02-4.29.04m7.93.07c-.15.69-.44 2.09-.59 2.79.87-.04 2.6-.11 3.47-.14-.77 2.92-1.52 5.84-2.36 8.74.92.01 2.76.02 3.69.03.66-2.81 1.31-5.63 2.13-8.4 2.46.32 4.28-.52 4.64-3.15-3.66-.07-7.33-.22-10.98.13m9.56 11.47l3.83-.04c.91-3.85 1.74-7.71 2.56-11.58l-3.35-.04c-.96 3.9-1.95 7.79-3.04 11.66m10.83-10.89c-2.76 1.74-4.48 5.37-3.66 8.59 1.51 3.32 6.14 2.97 8.76 1.28 3.16-1.7 4.14-6.02 3.02-9.2-1.99-2.18-5.7-1.96-8.12-.67m8.76 10.8l3.48.08c.46-2 .93-4 1.41-6 .95 1.96 1.87 3.94 2.75 5.94l3.37.08c.99-3.84 2.04-7.67 3.14-11.48-.86-.03-2.59-.08-3.45-.11-.54 2.14-1.12 4.27-1.74 6.39-1.35-2.56-1.36-7.54-5.47-6.56-1.51 3.77-2.21 7.81-3.49 11.66m-603.3 207.93c-.22 2.93-.37 5.87-.32 8.81-.07 96.25-.06 192.51-.24 288.77 140.58.37 281.16.67 421.74 1.04 54.64-.05 109.28.67 163.92.24.31-49.68.08-99.36.28-149.03-.29-49.77.51-99.55-.12-149.32-195.08-.22-390.17-.33-585.26-.51m225.7 664.59c-4.07 1.28-5.58 7.13-2.5 10.12 1.66 2.18 4.58 1.75 6.97 1.85 34-.07 67.99.07 101.98-.06 2.85.25 5.37-2 6.06-4.66 1.18-3.62-2.23-7.86-6.01-7.52-23.7-.08-47.41-.01-71.11-.05-11.79.17-23.63-.34-35.39.32z"/><path d="M651.96 118.34c-.02-2.26.37-5.28 3.03-5.88 2.18-.61 2.7 2.73 1.73 4.14-.55 2.23-2.97 2.29-4.76 1.74z"/></g><path fill="#dccf4d" d="M767.07 29.43c1.51.09 3.24-.03 4.49 1.04 5.18 3.67 10.38 7.53 14.29 12.61 5.41 6.95 8.7 15.33 10.69 23.85 1.48 9.94 2.01 20.02 1.8 30.07.31 10.68-.98 21.35-.19 32.03-.58 7.32.73 14.65-.38 21.95-.58 120.66-.25 241.34-.9 362-.39 203.64-.27 407.28-.47 610.92.09 1.71-.54 3.35-1.88 4.5.24-84.79.14-169.58.19-254.37 1.18-23.31.4-46.68.65-70.02.21-170.68.37-341.36.4-512.04.49-7.66.6-15.33.52-23.01.15-59.99.21-119.98.22-179.97-.02-6.28.18-12.61-.85-18.83-1.56-9.33-5.26-18.33-10.97-25.9-4.61-6.25-11.11-10.73-17.61-14.83z"/><path fill="#098cc7" d="M597.15 51.86c4.94 1.18 10.23 3.24 13.04 7.74 2.45 4.59.31 9.84-1.02 14.44-2.41 2.74-2.81 6.52-3.74 9.91-2.61 10.36-5.33 20.7-8.37 30.95-1.09 3.62-1.38 7.41-1.71 11.16-5.03-.88-10.24-4.59-10.8-9.96.97-10.6 6.18-20.35 7.12-30.96.05-.45.15-1.36.19-1.81-2.99-.07-5.98-.06-8.95.13-.57 6.82-5.59 13.72-2.14 20.42-4.12-1.32-9.19-2.48-11.08-6.89-1.42-5.12.76-10.22 2.09-15.11 1.81-6.63 3.81-13.22 5.58-19.86.78-2.69.25-5.47-.15-8.17 4.5 1.65 10.17 3.71 11.14 9.08-.21 4.01-1.83 7.78-2.41 11.74 2.76.04 5.52.05 8.29-.01 1.61-7.43 6.29-15.21 2.92-22.8z"/><path fill="#010201" d="M726.7 76.56c5.98-7.8 17.32-10.46 26.34-6.81-1.08 3.84-2.16 7.68-2.98 11.59-1.68-1.78-3.35-3.95-5.95-4.27-7.02-1.21-13.89 5.98-12.53 12.94.51 3.01 3.59 4.7 6.45 4.66 3.69.1 6.75-2.25 9.64-4.24-1.32 3.82-1.62 8.02-3.44 11.64-7.01 4.21-18 2.23-21.54-5.63-2.75-6.71-.25-14.39 4.01-19.88z"/><g fill="#010101"><path d="M622.89 68.9c6.53-.15 13.07.04 19.61-.08-.63 2.55-1.22 5.12-1.81 7.68-3.57-.05-7.14-.02-10.71.05-.45 1.81-.93 3.61-1.41 5.41 3.42-.06 6.85-.07 10.28.02-.75 2.69-.68 5.91-2.55 8.09-3.42-.03-6.84-.3-10.24.16-.4 1.71-.8 3.42-1.23 5.12 3.61.06 7.22.12 10.83.09-.75 2.61-1.44 5.24-2.14 7.86-6.65.06-13.31-.07-19.96 0 3.3-11.42 6.11-22.96 9.33-34.4zM639.93 103.2c3-11.5 5.97-23.02 9.37-34.41 3.02.02 6.05.02 9.08 0-2.16 8.88-4.64 17.68-6.97 26.52 3.5.03 7 .08 10.51.16-.67 2.61-1.35 5.21-1.97 7.83-6.68.06-13.35.16-20.02-.1zM691.35 103.24c2.85-11.51 5.87-22.99 9.24-34.36 6.57-.04 13.13-.03 19.7-.05-.64 2.57-1.24 5.15-1.89 7.72-3.62.04-7.24.02-10.86-.04l-1.47 5.66c3.48-.02 6.96-.03 10.44-.08-.63 2.69-1.32 5.37-2.11 8.02-3.47-.04-6.92 0-10.38.03-.46 1.79-.93 3.57-1.41 5.35 3.62-.09 7.25-.05 10.88-.05-.79 2.59-1.49 5.2-2.19 7.82-6.65.26-13.3.06-19.95-.02zM616.71 109.69h3.88c.3 3.9.89 7.77 1.39 11.65l-3.15-.09c-2.29-4.21-6.31.91-9.58.18 2.55-3.88 4.87-7.89 7.46-11.74m.5 3.75c-1.09.69-1.95 2.49-1.12 3.67 2.11 1.27 3-3.12 1.12-3.67zM626.06 109.78c.89-.02 2.66-.08 3.55-.1-.81 2.87-1.65 5.76-1.88 8.75 4.97 1.37 4.48-5.66 5.6-8.7.89-.01 2.68-.04 3.57-.05-.67 2.73-1.1 5.54-2.19 8.14-1.49 3.76-7.02 4.94-10.04 2.51-1.38-3.5.69-7.12 1.39-10.55z"/></g><path d="M668.07 76.41c.62-2.53 1.22-5.07 1.8-7.62 8.05.03 16.1-.01 24.14.04-.66 2.61-1.34 5.21-2.1 7.79-2.38-.01-4.76-.04-7.12-.1-2.5 8.95-4.81 17.95-7.37 26.88-3.14.04-6.27.06-9.4.03 2.43-9.02 5.19-17.96 7.5-27.01-2.49.04-4.97.03-7.45-.01zM660.79 121.32c1.16-3.81 2.13-7.66 2.91-11.56 1.71-.02 3.43-.04 5.15-.04-.11 2.35-.19 4.7-.23 7.06 1.11-2.32 2.19-4.66 3.29-6.99 1.63 0 3.26 0 4.9.01-1.07 3.73-1.72 7.56-2.74 11.29-.73.07-2.17.19-2.9.25.33-2.52.76-5.02 1.5-7.44-1.3 2.42-2.6 4.84-3.71 7.36-.77.02-2.31.05-3.08.07-.02-2.49-.09-4.98-.12-7.46-.58 2.5-1.21 4.99-1.87 7.47-.77-.01-2.32-.02-3.1-.02zM710.41 110.46c2.42-1.29 6.13-1.51 8.12.67 1.12 3.18.14 7.5-3.02 9.2-2.62 1.69-7.25 2.04-8.76-1.28-.82-3.22.9-6.85 3.66-8.59m2.11 2.27c-2.25.8-3.74 6.01-.41 5.93 3.43.28 4.83-7.69.41-5.93z"/><path fill="#4799ba" d="M605.43 83.95c.93-3.39 1.33-7.17 3.74-9.91-3.67 15.41-8.32 30.59-12.17 45.95-1.02 3.18.28 6.3 1.87 9.02-5.35-1.46-11.15-3.73-14.14-8.7-2.02-3.35-.97-7.37-.1-10.89 2.22-8.53 4.67-17 6.73-25.57l.31 1.29c-.94 10.61-6.15 20.36-7.12 30.96.56 5.37 5.77 9.08 10.8 9.96.33-3.75.62-7.54 1.71-11.16 3.04-10.25 5.76-20.59 8.37-30.95z"/><path fill="#020202" d="M637.98 112.8c.15-1.17-.03-3.49 1.94-3 3.26-.26 6.53-.21 9.8.01-.61 2.51-2.67 3.37-5.06 2.97-.58 2.84-1.18 5.68-1.87 8.5h-3.67c.8-2.86 1.45-5.75 2.08-8.65-.81.04-2.42.13-3.22.17z"/><g fill="#040403"><path d="M652.39 110.46c2.59-1.57 7.1-1.45 8.18 1.91 1.73 5.98-5.95 11.86-11.08 8.04-2.78-3.2-.44-8.17 2.9-9.95m-.43 7.88c1.79.55 4.21.49 4.76-1.74.97-1.41.45-4.75-1.73-4.14-2.66.6-3.05 3.62-3.03 5.88zM719.17 121.26c1.28-3.85 1.98-7.89 3.49-11.66 4.11-.98 4.12 4 5.47 6.56.62-2.12 1.2-4.25 1.74-6.39.86.03 2.59.08 3.45.11-1.1 3.81-2.15 7.64-3.14 11.48l-3.37-.08c-.88-2-1.8-3.98-2.75-5.94-.48 2-.95 4-1.41 6l-3.48-.08z"/></g><path fill="#060606" d="M682.09 109.81c1.42-.02 2.85-.04 4.29-.04 0 3.92.66 7.79 1.35 11.65-2.14.48-3.58-.16-4.31-1.91-1.13-.02-2.25-.04-3.36-.05-1.17 1.85-3.14 2.14-5.18 1.98 2.54-3.79 4.84-7.73 7.21-11.63m-.5 7.42c.47-.12 1.41-.37 1.88-.49.45-1.22.29-2.28-.48-3.18-1.37.37-2.14 2.48-1.4 3.67z"/><path fill="#040402" d="M690.02 109.88c3.65-.35 7.32-.2 10.98-.13-.36 2.63-2.18 3.47-4.64 3.15-.82 2.77-1.47 5.59-2.13 8.4-.93-.01-2.77-.02-3.69-.03.84-2.9 1.59-5.82 2.36-8.74-.87.03-2.6.1-3.47.14.15-.7.44-2.1.59-2.79z"/><path fill="#000002" d="M699.58 121.35c1.09-3.87 2.08-7.76 3.04-11.66l3.35.04c-.82 3.87-1.65 7.73-2.56 11.58l-3.83.04z"/><g fill="#f9f7fa"><path d="M712.52 112.73c4.42-1.76 3.02 6.21-.41 5.93-3.33.08-1.84-5.13.41-5.93zM681.59 117.23c-.74-1.19.03-3.3 1.4-3.67.77.9.93 1.96.48 3.18-.47.12-1.41.37-1.88.49z"/></g><g fill="#dfddde"><path d="M617.21 113.44c1.88.55.99 4.94-1.12 3.67-.83-1.18.03-2.98 1.12-3.67zM115.87 329.19c195.09.18 390.18.29 585.26.51.63 49.77-.17 99.55.12 149.32-.2 49.67.03 99.35-.28 149.03-54.64.43-109.28-.29-163.92-.24-140.58-.37-281.16-.67-421.74-1.04.18-96.26.17-192.52.24-288.77-.05-2.94.1-5.88.32-8.81z"/></g><path fill="#faf5b3" d="M866.77 241.32c.75 1.25.41 3.44 1.9 4.28l.26.2c-.59 43.05-.07 86.13-.29 129.19-.18 84-.11 168.01-.19 252.01-.19 14.16.3 28.37-.23 42.51-.43.99-.86 1.98-1.28 2.98-.19-37.51.09-75.02.19-112.53-.19-87.99.45-175.97.35-263.96-.18-16.56.49-33.13-.23-49.68-.15-1.67-.31-3.34-.48-5z"/><path fill="#d4c541" d="M866.38 265.03c.17-6.24-.72-12.59.87-18.71.72 16.55.05 33.12.23 49.68.1 87.99-.54 175.97-.35 263.96-.1 37.51-.38 75.02-.19 112.53-.37 28.52-.21 57.04-.27 85.56.3 4.71-4.15 7.55-6.79 10.83 1.27-4.59 5.8-7.84 5.33-12.93.46-126.31.23-252.63.53-378.95.43-7.34.72-14.68.55-22.03.2-29.98-.14-59.96.09-89.94z"/><path fill="#fdfbcc" d="M866.94 672.49c.42-1 .85-1.99 1.28-2.98.86 12.8.13 25.66.32 38.49-.13 17.3.22 34.61-.19 51.9-1.53 4.41-5.48 7.5-8.09 11.29-2.85 3.05-4.74 7.56-9.03 8.8 2.72-3.83 5.81-7.38 8.65-11.11 2.64-3.28 7.09-6.12 6.79-10.83.06-28.52-.1-57.04.27-85.56z"/><g><path fill="#7ddc73" d="M341.57 993.78c11.76-.66 23.6-.15 35.39-.32 23.7.04 47.41-.03 71.11.05 3.78-.34 7.19 3.9 6.01 7.52-.69 2.66-3.21 4.91-6.06 4.66-33.99.13-67.98-.01-101.98.06-2.39-.1-5.31.33-6.97-1.85-3.08-2.99-1.57-8.84 2.5-10.12z"/></g><g><path fill="#dccf4c" d="M44.08 1163.45c10.04 7.48 22.27 12.19 34.88 12.2 59.69.06 119.39.06 179.08.1 40.3.88 80.62.51 120.94.7 53.67.14 107.35.11 161.02.24 27.68.06 55.36-.2 83.03.59 30.99.05 61.98.07 92.97.14 11.38-.19 22.9.87 34.14-1.45 7.44-1.44 14.25-4.93 20.75-8.7-.18 1.25-.77 2.2-1.78 2.86-9.24 5.01-19.5 8.9-30.17 8.52-120.65-.05-241.29-.22-361.93-.34-7.35.3-14.65-.95-22-.63-92.67-.19-185.34-.22-278.01-.37-10.48-.67-20.8-4.11-29.68-9.71-1.47-.98-3.42-2.08-3.24-4.15z"/></g></svg>