<svg width="1984" height="960" viewBox="0 0 1488 720" xmlns="http://www.w3.org/2000/svg"><g fill="#fff"><path d="M71.08 25.45c3.63-.52 7.27-1.14 10.94-1.16 434.09-.06 868.19 0 1302.27-.03.12 205.91-.05 411.82.02 617.73-.12 4.64.51 9.39-.59 13.95-1.41 3.91-5.84 5.53-9.7 5.29-427.3-.01-854.61 0-1281.92-.02-5.84-.28-12.14 1.01-17.59-1.69-3.85-1.84-5.37-6.41-5.2-10.42.04-41.37.01-82.75.04-124.12.15-4.74-1.63-9.81-5.86-12.33-5.3-3.84-12.43-1.07-17.97-4.2-3.5-2.19-5.09-6.48-4.89-10.48-.02-108.32.03-216.64-.03-324.96.17-5.18-.98-11.31 3.05-15.39 3.33-3.86 8.8-3.55 13.41-3.83 6.66-.03 12.52-6.12 12.34-12.77.04-35.01-.04-70.02.06-105.03-.06-3.58.74-7.09 1.62-10.54m63.26 2.08c-4.36 1.94-7.22 6.6-6.96 11.37-.04 48.02-.04 96.05-.02 144.07.09 5.44-1 11.52 2.42 16.24 2.7 4.01 8.01 4.17 12.3 5.05 14.02 2.11 27.94 4.8 41.96 6.87 3.49.54 7.15 1.5 9.69 4.12 3.07 3.04 3.84 7.58 3.77 11.74-.13 80.01.07 160.03-.1 240.04.35 6.7-5.12 12.69-11.68 13.48-14.68 1.94-29.34 3.98-44.01 6.02-3.4.6-7.13.94-9.93 3.18-3.35 2.67-4.61 7.09-4.46 11.24-.04 48.04 0 96.08-.01 144.12-.2 4.58 1.78 9.45 5.95 11.71 3.48 2.24 7.75 2 11.71 2.04 406.65.06 813.3.01 1219.95.02 4.02.06 8.25-.13 11.84-2.16 3.2-1.63 5.19-5.1 5.33-8.66.42-6.67.07-13.37.2-20.05-.03-194.67-.02-389.35-.04-584.02-.07-4.31.68-9.24-2.4-12.77-2.4-3.51-6.82-4.78-10.88-4.71-409.32-.03-818.65.03-1227.97-.03-2.25.06-4.58.15-6.66 1.09M51.57 168.41c.03 108.75-.01 217.49.02 326.24 15.32-.1 30.64-.08 45.96-.04.01-108.75-.04-217.49.06-326.23-15.35.02-30.69.06-46.04.03m64.77 77.9c-1.52 1.02-2.08 2.87-2.06 4.61 0 52.71 0 105.42.03 158.13-.09 2.31 1.18 5.22 3.75 5.49 4.16.31 8.39.42 12.52-.16 2.51-.99 3.17-3.89 3.07-6.31.07-52.06-.01-104.12.03-156.18.23-2.86-1.41-6.34-4.65-6.4-4.18-.01-8.8-.89-12.69.82z"/><path d="M227.22 60.61c373.77-.12 747.53-.03 1121.3-.04 0 188.1.09 376.2-.02 564.31-373.75-.05-747.49-.01-1121.24-.02-.04-188.08.03-376.16-.04-564.25z"/></g><g fill="#b5b5b5"><path d="M27.79 0h1432.78c6.5 1.29 12.82 4.11 17.55 8.85 5.3 5.1 8.55 12.04 9.88 19.23v625.39c-.8 7.58-3.42 15.21-8.7 20.86-7.21 7.72-17.75 12.3-28.33 12.09-16.81-.01-33.61.05-50.4-.04-15.93-.06-31.86-.14-47.79.01-26.66.03-53.32.07-79.97.02-15.84-.08-31.68-.09-47.52-.01-26.47.14-52.94-.1-79.4.07-.48 11.16-.39 22.36.03 33.53h-.89c.19-11.22.13-22.44-.01-33.66-15.82 0-31.65-.02-47.47.06-353.85.01-707.71-.02-1061.56.03-10.99-.01-21.7-5.34-28.59-13.85-4.34-5.5-6.57-12.4-7.4-19.29V27.63c1.87-6.59 4.48-13.25 9.43-18.17C14.27 4.32 20.98 1.41 27.79 0m43.29 25.45c-.88 3.45-1.68 6.96-1.62 10.54-.1 35.01-.02 70.02-.06 105.03.18 6.65-5.68 12.74-12.34 12.77-4.61.28-10.08-.03-13.41 3.83-4.03 4.08-2.88 10.21-3.05 15.39.06 108.32.01 216.64.03 324.96-.2 4 1.39 8.29 4.89 10.48 5.54 3.13 12.67.36 17.97 4.2 4.23 2.52 6.01 7.59 5.86 12.33-.03 41.37 0 82.75-.04 124.12-.17 4.01 1.35 8.58 5.2 10.42 5.45 2.7 11.75 1.41 17.59 1.69 427.31.02 854.62.01 1281.92.02 3.86.24 8.29-1.38 9.7-5.29 1.1-4.56.47-9.31.59-13.95-.07-205.91.1-411.82-.02-617.73-434.08.03-868.18-.03-1302.27.03-3.67.02-7.31.64-10.94 1.16z"/><path d="M223.48 57.04c32.18-.6 64.38-.08 96.57-.25 296.97-.04 593.94.01 890.92-.03 47.03.13 94.07-.27 141.09.12.5 24.02.17 48.05.29 72.08-.1 166.49.09 332.98-.12 499.48-10.73.63-21.49.13-32.23.18-365.46-.02-730.93-.05-1096.39.01-.67-23.54.04-47.1-.28-70.66.07-156.33.02-312.67.03-469.01.02-10.64-.17-21.28.12-31.92m3.74 3.57c.07 188.09 0 376.17.04 564.25 373.75.01 747.49-.03 1121.24.02.11-188.11.02-376.21.02-564.31-373.77.01-747.53-.08-1121.3.04z"/></g><g fill="#cbcbcb"><path d="M134.34 27.53c2.08-.94 4.41-1.03 6.66-1.09 409.32.06 818.65 0 1227.97.03 4.06-.07 8.48 1.2 10.88 4.71 3.08 3.53 2.33 8.46 2.4 12.77.02 194.67.01 389.35.04 584.02-.13 6.68.22 13.38-.2 20.05-.14 3.56-2.13 7.03-5.33 8.66-3.59 2.03-7.82 2.22-11.84 2.16-406.65-.01-813.3.04-1219.95-.02-3.96-.04-8.23.2-11.71-2.04-4.17-2.26-6.15-7.13-5.95-11.71.01-48.04-.03-96.08.01-144.12-.15-4.15 1.11-8.57 4.46-11.24 2.8-2.24 6.53-2.58 9.93-3.18 14.67-2.04 29.33-4.08 44.01-6.02 6.56-.79 12.03-6.78 11.68-13.48.17-80.01-.03-160.03.1-240.04.07-4.16-.7-8.7-3.77-11.74-2.54-2.62-6.2-3.58-9.69-4.12-14.02-2.07-27.94-4.76-41.96-6.87-4.29-.88-9.6-1.04-12.3-5.05-3.42-4.72-2.33-10.8-2.42-16.24-.02-48.02-.02-96.05.02-144.07-.26-4.77 2.6-9.43 6.96-11.37m89.14 29.51c-.29 10.64-.1 21.28-.12 31.92-.01 156.34.04 312.68-.03 469.01.32 23.56-.39 47.12.28 70.66 365.46-.06 730.93-.03 1096.39-.01 10.74-.05 21.5.45 32.23-.18.21-166.5.02-332.99.12-499.48-.12-24.03.21-48.06-.29-72.08-47.02-.39-94.06.01-141.09-.12-296.98.04-593.95-.01-890.92.03-32.19.17-64.39-.35-96.57.25z"/><path d="M116.34 246.31c3.89-1.71 8.51-.83 12.69-.82 3.24.06 4.88 3.54 4.65 6.4-.04 52.06.04 104.12-.03 156.18.1 2.42-.56 5.32-3.07 6.31-4.13.58-8.36.47-12.52.16-2.57-.27-3.84-3.18-3.75-5.49-.03-52.71-.03-105.42-.03-158.13-.02-1.74.54-3.59 2.06-4.61z"/></g><path fill="#e1841a" d="M51.57 168.41c15.35.03 30.69-.01 46.04-.03-.1 108.74-.05 217.48-.06 326.23-15.32-.04-30.64-.06-45.96.04-.03-108.75.01-217.49-.02-326.24z"/><g fill="#010101"><path d="M1097.55 686.4c15.82-.08 31.65-.06 47.47-.06.14 11.22.2 22.44.01 33.66h-47.51c.02-11.2.09-22.4.03-33.6zM1225.29 686.4c15.84-.08 31.68-.07 47.52.01-.1 11.19.02 22.39-.01 33.59h-47.51c.02-11.2.12-22.4 0-33.6zM1352.78 686.39c15.93-.15 31.86-.07 47.79-.01-.05 11.21-.03 22.41-.03 33.62h-47.79c.03-11.2.08-22.41.03-33.61z"/></g></svg>