<svg version="1.2" xmlns="http://www.w3.org/2000/svg" viewBox="0 0 799 428" width="799" height="428"><style>.a{fill:#fff}.b{fill:#010101}.c{fill:#caa94e}.d{fill:#b1b1b1}.e{fill:#464545}</style><path class="a" d="m56 30.1c102.7 0 205.3 0.6 308 0.8q179.8 0.7 359.6 1c0.1 12.8 0 25.6 0 38.5-87.4 0-174.7 0-262.1 0-0.3-0.2-0.9-0.6-1.2-0.9-2.3 1.1-4.8 0.9-7.2 1-0.9-0.9-1.7-1.8-2.6-2.7-0.5 0.6-1.3 1.9-1.7 2.5-6.4 0.1-12.9 0-19.3 0.2-0.1-2 0.2-4.2-1.2-5.7-1.7-1.4-4.5-0.8-5.4 1.2q-0.1 2.2 0.3 4.5c-54.7-0.1-109.4 0-164.2-0.1-4.8 0.1-9.6-0.1-14.5 0.2-0.5 26.5-0.1 52.9-0.2 79.4 0 19.6-0.1 39.1 0 58.7-2.2 0-4.3-0.2-6.5 0-1.2 0.9-0.6 2.9-0.9 4.2 0 5.1-0.1 10.1 0.1 15.2q-6.6 0-13.1 0 0 4 0 8 6.6 0 13.2 0.1c-0.7 5.6-0.2 11.3-0.4 16.9q-3.6 0-7.3 0 0-3.6-0.2-7.3c-15.1-0.4-30.2-0.4-45.3-0.4-6.7 0.1-13.5-0.4-20.3 0.2-0.1 7.3 0 14.7 0 22.1q-3.9-0.3-7.9-0.3v2.3q3.9-0.1 7.9-0.2c0 5.8 0 11.6 0 17.3q-6.7 0.1-13.3 0c0 0.6 0.1 1.8 0.1 2.4q6.6 0 13.3 0-0.1 9.7 0 19.5-4-0.1-7.9-0.1c-0.1 0.5-0.1 1.6-0.1 2.1 3.4 0.1 6.7 0.1 10.1-0.1 0.1-13.6 0-27.2 0-40.9 0.7 0 2.1-0.1 2.8-0.1q-0.1 8-0.1 16.1 3.8 0 7.7 0 0.3-8 0.1-16.1 10 0.1 19.9 0c-0.1 5.3-0.1 10.7-0.1 16.1q3.9 0 7.8 0 0.1-8.1 0-16.2 2.3 0 4.7-0.1c0.1-7.3 0.2-14.6 0.1-21.8 6.1 0.1 12.1 0.1 18.2 0.1-0.1 5.7-0.2 11.4 0 17q1.8 0.1 3.7 0.1c0 0.6 0 1.9 0.1 2.5-0.1 2.6-0.1 5.3 0.1 7.9q0.2 2.8 0.4 5.6 4.2-0.1 8.4-0.1c0.4-7.3 0.2-14.6 0-22q-4.4 0-8.7-0.1c-0.1 1.9-0.1 3.8-0.2 5.6-0.4 0.1-1.1 0.2-1.4 0.3 0.1-3.1 0.1-6.1 0.1-9.2 4.1 0 8.2 0 12.3-0.2 0 3.1 0 6.2 0 9.3l1.9-0.1c0-3.4 0.1-6.8 0-10.2 0.2 0 0.7 0 0.9-0.1-0.6 34.5-0.1 69.1-0.2 103.6 18.1 0.7 36.1 0.1 54.2 0.3q0 2.3 0 4.7c-2.9 1-5.1 5.1-2.7 7.6 1.5 2.2 4.5 0.7 6.6 1q0.1-2.5 0.1-5c0.5 0 1.5-0.1 1.9-0.1 0.3 1.8 0 3.9 1.7 5.1 1.7 0.3 3.5 0.2 5.3 0.2q0.2-2.7 0.3-5.4l1.5-0.1c-1.1 3.7 3.4 7.8 6.5 4.8 0.3-0.6 0.8-1.8 1-2.4-1.4 0.4-2.8 1.6-4.4 1.4-1.2-0.6-0.8-2.3-1.1-3.4 2.1-0.1 4.2-0.1 6.3-0.2 0.3 1.7 0.1 3.7 1.6 5 1.9 0.9 3.8 0.1 5.6-0.8q-0.8-0.9-1.5-1.8-1.4 1.3-3.3 1.2 0.7-2 1.4-4.1c-0.1 0.5-0.1 1.4-0.1 1.8q1.8 0.6 3.7 1.1l-0.6-2.2c0.4 0 1.3 0 1.7 0 0.4 1.8 0.3 4.1 2.1 5.2 1.8 0.4 3.7 0 5.6 0q-0.1-2.7-0.2-5.4c2 0 4.1 0 6.1 0q0.1 2.8 0.5 5.5c2.2 0 4.5 0.3 6.5-0.7 0.5-1.8 0.7-3.7 1.1-5.5 2.1 1.6 2.9 4.3 3.6 6.8-0.9 0.4-2.6 1.1-3.4 1.5 1.3 0.4 2.7 1.1 4 0.4 1.5-2.4 2.3-5.1 3.3-7.8q3.2 0 6.4-0.1 0 2.7 0 5.4h2.1c0.6-1.5-1.2-5.1 0.9-5.5 1.6 2.1 2.6 4.8 5 6.2 0.5-2.1 0.8-4.2 1-6.3 0.3 0.1 1.1 0.3 1.5 0.4 0.2 1.4-0.5 3.4 1 4.4 2.1 1.6 5.1 0.7 6.7-1.2-2.2-0.3-5 1.2-6.4-1.2q2.8-0.1 5.5-0.1c-0.1-0.5-0.3-1.6-0.3-2.2 0.5 0 1.6 0 2.1 0 0.3 2.2-0.9 5.2 1.7 6.3 0.2-2.1 0.4-4.2 0.4-6.3 0.7 0 2.2 0 2.9 0 0.4 2.2-1.2 6.5 2.6 5.8q-0.6-3.1-1-6.3l0.3 0.5q1.2 1.9 2.4 3.9c4.2 0.6 7.4 3.8 10 7-4.9 2.6-7.8 8.5-6.1 13.9 1.8 6.8 10.4 10.8 16.7 7.6 2.6-1 4.1-3.3 6-5.2q7.3-0.1 14.5-0.1c2.3 2 4.1 4.7 7.1 5.6 5.7 2.2 12.7-0.2 15.6-5.6 4.8-0.1 9.6 0.1 14.4-0.3 2.8 3.8 6.9 7 11.8 6.7 4.8 0.3 8.6-3.1 11.1-6.8q7.3 0 14.6-0.1c2.3 4 6.6 6.9 11.3 6.9 4.7 0 9-3.1 11.4-7 4.6-0.1 9.3-0.1 13.9-0.1 2.5 4.1 6.8 7.3 11.7 7.1 4.9 0.1 9.2-3 11.3-7.2 2.4 0 4.8 0.1 7.2-0.2 0.1-0.4 0.2-1.3 0.3-1.7q3-0.5 6-1c1.5 4.7 5 9.3 10.2 9.8 7.2 1.4 14.7-4.9 13.9-12.4 0-7.3-7.9-12.8-14.9-11 1.7-2.6 4-4.7 6.9-5.9 6-2.6 12.3-5.6 19.1-5.1 11.7 0.5 23.3-0.7 35-0.5 12 0.9 24 0.4 36 0.5 3.9-0.1 7.9 0.3 11.8-0.5 0.8-2.1 0.6-4.3 0.7-6.5 6.9-0.1 13.8 0 20.7 0 0 15.1-0.1 30.2-0.1 45.4-54.7-0.2-109.4 0.1-164.1-0.3-53.4-0.4-106.7 0.1-160-0.3-53.7 0.2-107.4-0.2-161.1-0.1-61.4-0.2-122.8-0.2-184.3-0.4-9.5-9.3-18.9-18.8-28.4-28.1 0.1-22-0.7-44.1-0.3-66.1 0.2-1.9 0.1-4 1.6-5.4 6-7.1 11.6-14.4 17.5-21.6 2.3-2.7 0.9-6.5 1.2-9.6 3.7-0.1 7.5 0 11.2-0.1 4.3 8.1 15.2 10.4 23 6.3 2.6-1.4 4.3-4 6-6.3 9.6-0.1 19.2 0.2 28.8-0.1 2.7-1.9 1-5.9 1.5-8.7 2.7-2.5 5.9-5.4 5.8-9.5 0.3-4.2-2.9-7.3-5.8-9.9q0-2.8 0-5.5 4.2 0 8.4-0.1 0-2.8 0-5.7-4.2 0-8.4-0.1 0-1.9 0-3.8 4.3 0.1 8.5 0.2-0.1-2.9-0.2-5.8-4.1 0-8.2 0-0.1-1.9-0.1-3.7 4.3-0.1 8.5-0.1 0-3 0-5.9-4.2 0.1-8.5 0.2 0-1.9 0.1-3.9 4.1 0.1 8.2 0.1 0-2.8 0-5.6-4.1-0.1-8.3-0.1 0-1.9 0-3.7 4.3-0.1 8.5-0.2 0-2.8 0-5.6-4.2 0-8.5-0.1 0.1-3 0.1-6c2.4-2.8 5.6-5.7 5.4-9.7 0.3-3.8-2.6-6.6-5.3-8.7l-0.2-0.2c-0.1-3.8 0-7.7-0.4-11.5q-15.3-0.1-30.5 0c-3.4-7.9-13.7-9.9-21.1-6.9-3.2 1.2-5.2 4.2-7.2 6.9-3.7 0-7.4 0-11 0.1-1.3-5.2-5.4-8.7-8.1-13.1-3.4-5.4-7.7-10.2-10.8-15.7-0.3-22.8-0.1-45.7-0.1-68.6 10.2-10 20.6-19.8 30.5-30.2zm6.7 3.3c-0.4 8.1-0.2 16.3-0.2 24.4 8.3-0.1 16.5 0.2 24.8-0.1q0.2-12.1 0-24.3c-8.2-0.2-16.4-0.1-24.6 0zm45.6 1.2c-5 1.8-8.5 7.1-7.9 12.5 0.4 6.6 6.9 12.2 13.5 11.2 6.6-0.4 11.9-6.9 11-13.4-0.4-7.8-9.4-13.3-16.6-10.3zm38.9-0.3c-4.6 1.1-8.4 4.9-9.1 9.6-1.5 6.1 2.7 12.8 8.9 14.1 7.1 2.2 15.1-3.6 15.4-11.1 0.5-7.8-7.6-14.8-15.2-12.6zm36.3 0.3c-3.4 1.2-6.2 3.9-7.6 7.2-2.7 6.5 1.2 14.4 7.9 16.3 7.3 2.5 15.4-3.5 15.8-11.1 0.7-8.2-8.3-15.3-16.1-12.4zm37 0.2c-4.9 1.8-8.8 6.9-8.2 12.3 0.2 6.5 6.2 12.1 12.7 11.6 7.8 0.2 13.8-8.3 11.5-15.6-1.7-6.7-9.5-10.7-16-8.3zm38-0.1c-4.6 1.3-8.2 5.4-8.6 10.2-1 6.3 3.6 13 10 13.6 8.1 1.8 15.8-6.5 14-14.4-1.2-6.8-8.8-11.5-15.4-9.4zm37 0.1c-3.3 1.1-6.1 3.7-7.7 6.7-3.4 6.9 1.4 16.3 9.1 17.1 7.1 1.6 14.4-4.4 14.4-11.6 0.5-8-8.1-14.9-15.8-12.2zm188.1 0.1c-6.2 0.7-11.1 6.9-10.4 13.2 0 7.6 8.7 13.2 15.7 10.7 6.5-1.9 10.4-9.7 7.9-15.9-1.9-5.3-7.6-8.8-13.2-8zm-152.3 0.5c-4.2 2.2-7.5 6.7-7.2 11.6-0.2 6.7 6.2 12.7 12.9 11.9 8.2 0.2 14-9.5 10.7-16.8-2.4-6.3-10.3-9.5-16.4-6.7zm37.2 0.3c-4.5 1.8-7.3 6.5-7 11.3-0.2 5.5 4 10.8 9.4 11.8 7.7 2 15.7-5.1 15-12.9-0.3-8.2-10.1-14.1-17.4-10.2zm37.9-0.2c-4.4 2-8.2 6.4-7.9 11.5 0 5.4 4 10.5 9.4 11.7 7.2 2.2 15.5-4.1 15.1-11.7 0.6-8.3-9.1-15-16.6-11.5zm37.1 0.1c-3.8 1.6-6.9 5.1-7.5 9.3-1.5 6 2.9 12.5 8.9 13.9 7.3 2.4 15.9-4 15.4-11.8 0.4-8.4-9.2-14.8-16.8-11.4zm74.9 0c-4.6 1.8-8.4 6.3-8.3 11.4 0 6.1 4.9 11.7 10.9 12.3 7.1 1.2 14.1-5.1 13.7-12.3 0.2-8-8.8-14.5-16.3-11.4zm37.1 0.1c-4.8 2-8.4 6.9-8 12.2 0.2 5.8 4.8 10.9 10.6 11.5 7.1 1.3 14.5-5.1 13.9-12.4 0.3-8.2-9-14.2-16.5-11.3zm38-0.2c-4.6 1.5-8.1 5.6-8.7 10.4-0.9 6.7 4.4 13.2 11.1 13.6 8.1 1.2 15.3-7.6 12.9-15.3-1.7-6.5-8.9-10.6-15.3-8.7zm37 0.3c-5.7 2-10 8.2-8.4 14.2 1 5.2 5.6 9.3 10.8 9.7 6.8 0.9 13.5-4.9 13.4-11.7 0.7-8-8.2-15-15.8-12.2zm75.9-0.2c-6.1 1-10.6 7.2-9.9 13.4 0.3 6.2 6.5 11.2 12.6 10.9 6.8 0.3 12.5-6.3 11.8-13 0-7.2-7.6-12.8-14.5-11.3zm-40.1 0.9c-4.3 2-7.6 6.7-7.1 11.6 0.1 6.2 5.5 11.7 11.7 11.7 7 0.7 13.5-5.9 12.8-12.9-0.1-8.2-10-14.2-17.4-10.4zm-612.7 32.3q-0.2 1.8-0.4 3.7c-3.3 0.1-6.6 0.3-9.8 0.3 0 1.9-0.3 3.9 0.3 5.8 1.6 0.3 2.8-0.8 4.1-1.4q-0.1 1.8 0 3.7c-6.9 0.1-13.7-0.1-20.6 0.1-0.2 8.5 0 16.9 0 25.4 6.9 0.2 13.7 0.1 20.6 0.2q0 2 0 3.9c-1.4-0.8-2.9-1.4-4.5-1.9q-0.1 3.1-0.1 6.1c3.4 0.1 6.7 0 10.1 0q0.1 1.8 0.3 3.7c10.1 0.2 20.2 0.3 30.2-0.1-0.8 6.2-0.5 12.5-0.1 18.7 0.4 5 8 6.4 10.7 2.5 1.8-1.6 1.3-4 1.3-6-3.3-0.3-6.6-0.2-10-0.1q0-6.4-0.3-12.7c3.3-0.1 6.6-0.1 9.9-0.3q0.7-2.8 1.2-5.7c3.1 0 6.2 0.1 9.2 0.1q0.3-2.8 0.6-5.6-1.7 0.1-3.4 0.2c-0.4 0.5-1.1 1.5-1.5 1.9q-0.1-2.3-0.1-4.7c6.8 0 13.7 0 20.5 0 0.2-8.5 0.1-17.1 0-25.6-6.5-0.3-13 0.4-19.4-0.4-0.1-0.4-0.3-1.1-0.4-1.5 1.3-0.5 2.8-0.5 4.2-0.6 0-1.8 0-3.6-0.2-5.4-3.1-0.6-6.4-0.5-9.5-0.7-0.6-1.4-0.1-4-2.4-3.6q-20.3-0.2-40.5 0zm128.7 2.7c-13 2.6-23.7 14.2-24.7 27.6-1.2 11.6 5 23.4 14.9 29.5 7.8 5 17.9 5.8 26.6 2.9 13.1-4.2 22-17.9 21-31.5-0.7-9.6-6.2-18.7-14.2-24-6.8-4.7-15.6-6.3-23.6-4.5zm-78 49.2q4.7 0.1 9.3 0c0 4.3 0 8.5 0 12.7-3.1 0-6.2-0.1-9.2 0.2 0.3 0.5 0.9 1.5 1.2 1.9 3.3 0.3 6.6 0.1 10 0 0.3-5.6 0.5-11.2-0.1-16.8q-5.5-0.2-10.9-0.1c-0.1 0.5-0.2 1.5-0.3 2.1zm-16.3 1.3c0 3.3 0 6.6-0.1 9.8q2.9-0.1 5.9-0.4c3.7-0.3 7.4-0.3 11.1-0.1q2.9 0.2 5.9 0.3c-0.1-3.2 0-6.4 0.5-9.5q-3.1 0.2-6.2 0.4c-3.7 0.1-7.5 0.1-11.3 0-1.9-0.2-3.8-0.3-5.8-0.5zm-19.8 1.7c0.1 5.9 0 11.7 0.1 17.6 0.7 0 2.1 0 2.8 0q0-2.8 0-5.5 1.8 0.2 3.7 0.4c1.1 1.6 2.1 3.2 3.5 4.6 0.9 0.8 2.6 1.4 2.8-0.3-1-1.7-2.2-3.2-3.4-4.7 4.2-2.4 4.6-9.5 0.1-11.7-3.1-0.9-6.4-0.4-9.6-0.4zm-15.3 0c0 5.9-0.1 11.9 0 17.9 3.8 0.6 2.5-3.4 2.8-5.7 3.3 0.3 7.8 0.8 9.5-2.8 0.6-2.8 1.2-6.7-1.8-8.5-3.2-1.8-7-0.8-10.5-0.9zm81.5 14c-0.4 5.3-0.3 10.5 0.1 15.7q-4 0-7.9 0.2c-0.1 15-0.2 30-0.2 45.1 0.7 0.1 1.9 0.4 2.5 0.5-0.8 8.3 0.2 16.6-0.3 24.8 0.5 7.8-0.8 15.6 0.1 23.4 3.5 0.2 6.9 0.3 10.3 0 0.4-0.4 1-1.4 1.4-1.9-3.3-0.2-6.6-0.2-9.9-0.2q0-6.3 0.1-12.6c3.2-0.1 6.4 0.2 9.6-0.3q-0.2-1.8-0.4-3.6-4.5-0.1-9.1 0c-0.1-4.2-0.2-8.3-0.1-12.5 3.2 0 6.4 0 9.6 0 0-0.8 0-2.3 0-3.1-3.1-0.3-6.3-0.3-9.4-0.4-0.2-4.1-0.2-8.2-0.1-12.3 3-0.1 6-0.1 9-0.1q-0.1-1.5-0.2-3c-3.6-0.4-7.2-0.6-10.7-0.6-0.2-6.4-0.1-12.8-0.1-19.2 3.9 0 7.9 0.5 11.8-0.2-0.2-0.5-0.6-1.5-0.7-2-3.7-0.3-7.4-0.1-11.1-0.1-0.1-6.6 0-13.2-0.1-19.8 5.1-0.2 10.1 0.2 15.1-0.2 0.2-0.7 0.6-1.9 0.8-2.6-2.7-0.1-5.4-0.1-8.1-0.1-0.1-4.3-0.1-8.6-0.1-12.8 3.1 0 6.2 0 9.3 0 0-0.5 0-1.6 0-2.1-3.7 0-7.4-0.1-11.2 0zm21.4 0c-0.1 0.5-0.3 1.6-0.3 2.1q4.6 0 9.3 0c0.1 4.3 0.5 8.6 0 12.8-3 0.1-6.1 0-9.2 0q0.1 1.5 0.2 3.1c3.6 0.2 7.2 0 10.7 0.1 0.1 6.5 0.1 13.1 0.1 19.7-4-0.1-8.1-0.3-12.2 0 0.2 0.5 0.7 1.6 0.9 2.1 3.8 0.3 7.5 0.1 11.3 0 0.1 6.4 0.1 12.7 0 19q-4 0.1-7.9 0c-0.3 0.4-0.8 1.2-1.1 1.6q-3.9-0.2-7.7 0.1c0.1 0.5 0.4 1.5 0.5 2 2.8 0.3 5.7 0.2 8.5 0.2-0.1 4.1 0 8.2-0.2 12.3-2.9 0.3-5.9-0.4-8.7 0.6-0.1 0.8-0.3 2.2-0.4 3 3.1 0 6.2 0 9.3 0-0.1 4.1-0.1 8.3-0.2 12.5-3 0-6 0-9 0 0 0.9-0.1 2.8-0.1 3.7q4.6 0 9.3 0c-0.1 4.3-0.2 8.5-0.1 12.8q-4.2-0.1-8.4-0.1c0 0.5-0.1 1.7-0.1 2.2 3.4 0 6.9 0.3 10.3-0.1 0.9-5.6 0.6-11.3-0.1-16.9 0.9-5.4 0.7-10.8 0.2-16.2q0.7-7.8 0-15.7c2.8 0.1 5.6 0.2 8.4 0 0.5-6.5-0.5-13-0.2-19.6-0.2-7.9 0-15.9-0.1-23.9-0.4-0.5-1.3-1.4-1.7-1.9 0-5.2 0.5-10.4-0.4-15.5-3.6-0.1-7.3-0.1-10.9 0zm-16.6 3.6q0 4.8 0 9.5 2.9-0.1 5.7-0.3 5.7-0.1 11.3 0 2.8 0.2 5.5 0.3 0-5 0-10.1-2.7 0.4-5.5 0.9c-3.8 0.1-7.6 0-11.4 0.1l-0.1-0.3q-2.7 0-5.5-0.1zm40.2 16.1c-0.2 5.6-0.2 11.2 0 16.8 3.6 0.2 7.2 0.4 10.8 0.2 0.1-0.6 0.2-1.6 0.3-2.2q-4.5-0.1-9-0.1c-0.1-4.2 0-8.4 0-12.7 3.3-0.1 6.7 0 10-0.1-0.3-0.5-0.9-1.5-1.1-2-3.7-0.3-7.4-0.1-11 0.1zm20.7-0.1c0.1 0.5 0.2 1.6 0.3 2.1q4.6 0 9.1-0.1c0.1 4.3 0.1 8.6 0.1 13-3-0.1-6-0.2-9.1-0.1 0.1 0.5 0.1 1.6 0.2 2.2 3.5-0.3 7.5 0.9 10.8-0.8 0.4-5.3 0.4-10.7 0-16-3.7-0.9-7.6-0.2-11.4-0.3zm-67.8 1c-0.1 4.9 0 9.8 0.3 14.6q3.3-0.1 6.7-0.3 0.1-7 0-14.1-3.5-0.1-7-0.2zm7.4 0.5c-0.1 4.5 0 9-0.1 13.4q8 0 16 0.1c0-0.6 0-2-0.1-2.6 0.2 0.7 0.6 2.3 0.7 3q3.3 0 6.6-0.1 0-7.1 0.2-14.2-3.8 0.1-7.6 0.4c-5.2 0.5-10.5 0.4-15.7 0zm44.3 2.1q0.1 4.5 0.2 9 2.6-0.1 5.1-0.1c3.9 0.1 7.7 0.1 11.5 0.1q2.8 0.2 5.5 0.3c0-3 0.2-6.1-0.4-9.1-1.7-0.4-3.4 0.1-5.1 0.3-3.8 0.2-7.6 0.1-11.4 0q-2.7-0.3-5.4-0.5zm-11.8 13.8q0 4.7 0 9.5c-0.6 0-1.9 0-2.6 0 0.3 8-0.1 16 0 24.1 0.5 0.2 1.6 0.5 2.2 0.7q0 4.3 0.1 8.5 3 0 5.9 0 0-4.4 0-8.7c4.3 0.1 8.6 0.7 12.8-0.3h0.6c-0.1-8.1 0.1-16.1-0.1-24.2-0.5 0-1.4 0-1.9 0q0.1-4.5 0.1-9.1c-1.8 0-3.6 0-5.4 0.2-1.1 2.8-0.6 5.9-0.7 8.8q-2.7 0-5.4 0 0.2-4.7 0.3-9.4-2.9-0.1-5.9-0.1zm-39.9 4.7c0 4.7 0.1 9.4 0.3 14.1 2.4-0.2 4.8-0.5 7.2-0.8 5.3-0.1 10.5-0.1 15.7 0q3.8 0.4 7.6 0.7c0.1-4.7 0.1-9.3 0.1-13.9q-3.9 0.1-7.8 0.2v-0.3c-5.1 0.1-10.3 0-15.5 0q-3.8 0-7.6 0zm74.9 3.5q-6.5 0-12.9 0.3 0.1 4 0.2 8 6.3-0.1 12.6-0.1c0 6.7 0.1 13.3 0 20-4.2-0.3-8.3-0.3-12.5-0.3q-0.2 4.1-0.3 8.3 6.4 0.2 12.9 0.1 0 1.7 0.1 3.4c6 0.1 12.1 0.2 18.2-0.1 0.2-5.6 0.1-11.1 0.1-16.7 4.5 0 9.1 0 13.7 0q0-4.2 0-8.4c-4.6-0.1-9.2 0-13.7 0.1-0.1-6.2 0.2-12.5-0.2-18.6-6-0.3-12-0.1-18 0q-0.2 2-0.2 4zm-73.9 19q0.1 4.8 0.3 9.7 2.9-0.2 5.7-0.4 5.7 0 11.3 0 2.6 0.1 5.3 0.1 0-4.7 0-9.5-2.7 0.2-5.4 0.5c-3.7 0-7.5 0.1-11.3-0.1q-2.9-0.2-5.9-0.3zm50.2 7.4c-0.3 2.7-0.4 5.5-0.4 8.3q3.1 0 6.2 0 0-2.9 0-5.8-1.4-1.3-2.8-2.6l-0.8 2q-1.1-1-2.2-1.9zm-50.1 8.5c0 3.1-0.1 6.2 0.4 9.3 1.9 0 3.7-0.2 5.5-0.4 3.8-0.1 7.5-0.1 11.3 0q2.6 0.3 5.1 0.5 0-4.6 0-9.3-2.6 0.1-5.1 0.2c-3.8 0-7.6 0-11.3-0.1q-2.9-0.1-5.9-0.2zm35 11.7q0 7.7-0.1 15.4c2.5 0.1 5 0.3 7.6 0 0.8-5.1 0.3-10.3 0.1-15.5q-3.8 0-7.6 0.1zm27.7-0.1q-0.4 7.9 0 15.8 3.8-0.1 7.6-0.1 0-7.8-0.1-15.6-3.7-0.1-7.5-0.1zm-14 0.1c0.1 5.2 0 10.4 0.1 15.6q3.8 0 7.6 0c0.1-5.2 0.1-10.4 0.1-15.6q-3.9 0-7.8 0zm-48.7 4.3q0 5 0 10 3-0.3 5.9-0.6 5.6 0 11.3 0 2.5 0.4 5.1 0.8 0-5-0.1-9.9-2.5 0.1-5.1 0.2c-3.8 0.1-7.6 0.1-11.5 0q-2.8-0.3-5.6-0.5zm77.4 18q0 3.5 0.1 7c4.6 0.1 9.2 0.1 13.8 0.1q-0.3-3.5-0.5-7-6.7-0.1-13.4-0.1zm0.1 7.4q0 7.4 0 14.8-0.2 3.9-0.3 7.7 7 0.1 14.1 0 0-3.9 0-7.8c-0.1-4.9-0.2-9.8-0.1-14.7-4.6 0-9.2-0.1-13.7 0zm-87 8.3c-0.1 14.3-0.5 28.7-0.2 43 3.6 0.3 7.2 0.2 10.9 0.2-0.1-0.5-0.2-1.5-0.2-2-2.9-0.1-5.7-0.1-8.6-0.2q0-9.6 0.1-19.3c4.1-0.2 8.3 0.2 12.4-0.1 0.3-0.6 0.8-1.8 1.1-2.4-4.4 0.1-8.9 0.2-13.3 0.1 0.1-5.7 0-11.4 0-17q4.1-0.1 8.2-0.1v-2.2c-3.5-0.1-7-0.2-10.4 0zm5.7 4q0.1 6.5 0.1 13.1c10.1 0.8 20.2 0.7 30.2-0.3 0-4.4 0-8.7-0.1-13.1-10 0.1-20.1-0.1-30.2 0.3zm76.8 3c0.1 4.7-0.3 9.4 0.2 14.1 7.2 0.6 14.4 0.1 21.7 0.2 0.2-0.6 0.7-1.9 0.9-2.5 4.8-0.2 9.6 0 14.4-0.2 0.3-3.6 0.2-7.2 0.1-10.8l-1.9-0.1q0 4.4 0.1 8.9c-4.2 0-8.4 0.1-12.7-0.1 0-2.9 0.2-5.9-0.2-8.9-0.5-0.2-1.7-0.6-2.3-0.8-0.1 4.2 0 8.3 0 12.4-6-0.1-12 0-18.1-0.1-0.1-4 0-8 0-12-0.5 0-1.6-0.1-2.2-0.1zm-154.6 17c-0.2 6-0.1 11.9-0.1 17.9q1.3 0 2.7 0.1 0.1-3 0.1-5.9c5.2-0.8 5.4 6.8 10.5 6-0.9-2.2-2.4-4.1-3.9-5.9 3.5-2.1 4.8-6.8 2.3-10.1-2.8-3.6-7.8-1.8-11.6-2.1zm16.6 8.9c2.6 1.8 5.9 1.5 8.8 2.5-0.3 1.5-0.3 3.6-2.2 4.1-3 0.9-5.2-1.6-7.6-2.8-1.1 3.9 3.4 6.1 6.7 5.6 3.8 0.4 7-3.8 5.2-7.3-1.7-3.7-6.4-2.7-9.4-4.5-1.4-4.5 5.8-5.2 7.4-1.7q1.2 0 2.5 0c-0.5-3.3-3.6-5.4-6.8-5.1-4.5-0.5-8.3 6-4.6 9.2zm14.1-8.9q0 1.3 0.1 2.7 2.3-0.1 4.6-0.1c0.1 5.1 0 10.2 0.2 15.3 0.6 0 1.8 0.1 2.5 0.1 0-5.1-0.1-10.2 0-15.3q2.4-0.1 4.8-0.2 0-1.2 0.1-2.5c-4.1-0.1-8.2-0.1-12.3 0zm47.1 0q-0.1 7-0.1 14c2.5-0.2 4.9-0.4 7.3-0.6 5.3-0.1 10.6 0 15.8 0 0-4.4 0-8.8 0-13.3-5.3 0.1-10.5 0.1-15.7 0q-3.7-0.1-7.3-0.1zm23.5 0.2q0.2 6.7 0 13.4 3.6 0.2 7.2 0.4-0.1-7-0.1-14-3.5 0.1-7.1 0.2zm-103 24.2c-3.1 0-6.2-0.1-9.3 0.2q-0.1 2.8 0.1 5.6c0.6 0 1.8 0 2.5 0 0.4-0.7 1.4-2.2 1.8-2.9q0.1 2.7 0.1 5.4c-7-0.1-14 0-21 0 0 8.5-0.2 17 0.5 25.4 6.9 0.1 13.8 0.4 20.6-0.1q0.1 2.2 0.1 4.4c-1.5-0.9-3.1-1.8-4.7-2.4q-0.2 3.1-0.1 6.3 4.7 0.1 9.5 0c0.6 1.5 0.3 4.4 2.7 3.8 13.5-0.1 26.9 0.1 40.3-0.2q0.3-1.8 0.7-3.5c3.2 0 6.4 0 9.6-0.1 0-2 0.1-4.1-0.5-6-1.6 0.4-3 1.4-4.4 2.4q0.1-2.3 0.1-4.7c7 0.5 14 0.3 21 0.2 0.2-8.5 0-17 0.1-25.5-7 0.2-14.1-0.2-21.2 0.5q0-2.4 0.2-4.8 2 1.7 4.5 2.4 0.1-3 0.2-6.1c-3.2-0.4-6.4-0.4-9.6-0.3-0.3-0.7-0.7-2.2-1-2.9-0.9-1.1-2.6-0.4-3.9-0.6-12.3 0.1-24.6-0.2-36.9 0.1-1.9-0.2-1.5 2.3-2 3.4zm130.2-3.3q-0.1 5.7-0.1 11.4-1.6 0.5-3.3 0.9h-0.7c-0.5 6.3-0.5 12.6-0.1 18.9 6 0.2 11.9 0 17.8 0.1 0 4.6 0 9.2 0.1 13.8q4.4-0.1 8.8-0.1c0-4.6 0.1-9.2 0.1-13.7 5.7-0.2 11.4 0.3 17.1-0.2 1.1-6.1 0.3-12.6 0.2-18.8h-1.1c-0.5-0.2-1.7-0.8-2.2-1q0-5.6 0-11.3-4.4 0-8.8 0 0 6.1 0.1 12.3c-6.3-0.1-12.6-0.1-19 0 0.1-4.1 0.1-8.2-0.1-12.4q-4.4 0.1-8.8 0.1zm-56 0.6c-0.2 3.8-0.2 7.7-0.1 11.5 0.5-0.1 1.5-0.2 2-0.3 0.1-3.1 0.1-6.2 0.1-9.3 4.3 0.1 8.6 0 12.8 0.1 0 2.7-0.1 5.4-0.1 8.1 0.5 0.4 1.6 1.1 2.1 1.4 0-3.8 0.5-7.7-0.4-11.5-5.4-0.7-11-0.4-16.4 0zm3.9 5.9c-0.1 7.3-0.3 14.6-0.1 21.8q4.6 0.3 9.2-0.3 0-2.8 0-5.6 0-5.1-0.1-10.2-0.1-2.8-0.2-5.6-4.4-0.1-8.8-0.1zm-3.8 16.9c-0.1 3.4-0.1 6.8 0.2 10.2 5.6 0.2 11.3 1 16.7-0.5-0.6-3.5 1.1-8.1-1.5-10.7-1.4 2.8-0.3 6.2-0.6 9.2-4.3 0.1-8.5 0-12.8 0q0-4 0-8.1c-0.5 0-1.5 0-2-0.1zm58.8 24.1c0 3.7-0.1 7.4 0 11.1 2.8-0.4 6.8 0.6 8.4-2.5 0.8-2.2 1.1-5-0.4-6.9-1.9-2.4-5.3-1.4-8-1.7zm27.5 0.1c-1.2 1.4 1.1 3.2 2.2 1.8 1.2-1.3-1.2-3.3-2.2-1.8zm36.6-0.8c-0.1 1-0.2 2.9-0.3 3.9-3.5-1.5-6.5 1.9-5.4 5.2 0.6 3.5 4.7 2.6 7.2 2.8 0-3.6 0.6-7.1 0.1-10.6-0.4-0.4-1.2-1-1.6-1.3zm8.6 3.4c0.3 0.5 0.9 1.5 1.2 2-1 1.3-3.1 3.2-1.6 4.9 2.2 2.9 6.1 1 9.1 1q-0.5-2.4-1.1-4.8-1.1 0.6-2.2 1.2c-1.3-1.7-2.6-3.4-3.2-5.4 1.7 0.6 2.8 2 4.1 3.1 0.4-1.6 0.3-3.8-1.7-4.2-2-0.9-3.5 0.8-4.6 2.2zm14.5 8.4c0.5 0.1 1.6 0.2 2.2 0.2q0-2 0-3.9c2.3 0 6.1-0.3 5.8-3.5 0.2-4.2-5.1-3.4-7.9-3.3-0.1 3.5 0 7-0.1 10.5zm-68.1-4.5c1.7 1 3.9 1.2 5.3 2.8q-3.2 0-6.4-0.7c1.5 3.2 6.5 3.5 8 0.2-0.4-2.8-4-2.7-5.9-4.1 1.9-0.6 4 0 6 0.2-1.3-3.7-8.6-2.7-7 1.6zm-6.3 4.3c2 1.1 3.8-0.4 5.2-1.8-2.2 0.1-4.6 0.8-6.2-1.2 2.1-0.2 4.2-0.2 6.2-0.3-0.6-1.8-0.8-4.4-3.1-4.7-4.7-1.5-6.4 6.9-2.1 8zm14.7-7.8c0 2.7 0 5.4 0 8.2 0.5-0.3 1.5-0.7 2-0.9 0.2-2.4 0-4.9 0-7.3-0.5 0-1.5 0-2 0zm4.3 1.8c-1.3 2.5 0.2 5.2 2.5 6.3 0.8-0.3 2.3-0.9 3.1-1.1-0.3 0.5-1.1 1.6-1.5 2.2-1.6-0.2-3.2-0.9-4.9-1.2 0.9 3.5 6.5 4.2 7.9 0.8 0.3-2.9 0.1-5.8 0.2-8.7-2.5 0.2-6.2-1.4-7.3 1.7zm9.1-1.7c0.1 2.6 0.1 5.1 0.1 7.7 0.5 0 1.5-0.1 2-0.1 0.2-2.6-1.1-6.6 3-6.4 0 2.3 0.1 4.7 0.3 7 2.5-0.6 1.6-3.6 2.2-5.4q1.1 1.9 2 3.9c2.2 1.9 5.3 1.5 7-1-2.3 0.2-4.9 1.3-6.4-1 2.1-0.2 4.2-0.3 6.2-0.5-0.6-1.3-0.5-3.1-1.9-3.9-2.3-1.8-6 0.3-5.7 3.3-1-1.3-1.9-2.6-3-3.7-1.9-0.1-3.9 0.2-5.8 0.1zm56.1-0.1c0.1 2.9-0.1 5.9 0.6 8.8 2.1-1.3 1.4-3.8 1.8-5.9q1.6-1.2 3.2-2.5c-1.9-0.2-3.7-0.2-5.6-0.4zm8.1 0.2c-2.9 0.9-3.7 5.5-0.9 7.1 2.5 2.2 7-0.2 6.4-3.6 0-2.6-3.2-4.4-5.5-3.5zm-227.5 11.3q-0.2 12 0 24.1c8.2 0.5 16.3 0.4 24.4 0.1q0.2-12.1 0-24.2c-8.1-0.2-16.3-0.1-24.4 0zm45.6 0.8c-4.2 1.3-7.8 5-8.4 9.4-1.2 6.6 4 13.6 10.8 13.8 7.7 1.4 14.8-6.2 13.3-13.7-1-7.1-9-11.8-15.7-9.5zm37.1 0.2c-7 2-10.6 11.1-6.7 17.3 3.4 6.5 13.1 8 18.5 3.2 4.6-3.9 5.6-11.6 1.8-16.3-3.2-4-8.7-5.9-13.6-4.2zm39 0c-3.9 1.1-7.2 4.3-8.3 8.2-2.1 6.2 2.1 13.7 8.6 14.8 7.3 2.2 15.8-4 15.1-11.7 0.1-7.6-8.2-13.4-15.4-11.3zm75.1 0c-3.6 0.9-6.6 3.4-8.2 6.7-3.1 6.1 0.4 14.2 6.8 16.4 7.6 3 16.9-3.7 16.3-11.8-0.1-7.3-7.8-13.2-14.9-11.3zm-40.1 1c-4.2 2-6.9 6.7-6.3 11.4 0.1 5.8 5.1 10.6 10.8 11.1 7.6 1 14.8-6.7 13-14.3-1.1-7.7-10.7-11.9-17.5-8.2zm75.8-0.2c-4.7 1.6-8 6.5-7.7 11.5-0.1 6.1 5.5 11.1 11.4 11.5 6.9 0.6 13.7-5.7 12.7-12.6-0.2-7.8-9.3-13.6-16.4-10.4zm37.1 0.2c-4.4 1.8-7.8 6.4-7.3 11.3-0.1 7 7 12.8 13.8 11.5 6.8-0.7 11.7-8 10-14.6-1.4-7-10-11.2-16.5-8.2zm37.2 0.1c-4.4 1.9-7.5 6.4-7.3 11.2-0.2 6.6 6.2 12.4 12.8 11.7 7.1-0.2 13.2-7.8 11-14.8-1.6-6.9-10-11.1-16.5-8.1zm261.6-0.6c-5.8 1.2-9.8 7.1-9 12.9 0.5 7.6 9.7 12.7 16.6 9.7 5.3-2 8.6-8.2 7.2-13.8-1.3-6.4-8.6-10.5-14.8-8.8zm36.2 0.3c-7.2 2-10.3 11.3-6.3 17.4 3.7 6.3 13.3 7.6 18.6 2.7 3.9-3.4 5-9.6 2.6-14.2-2.5-5.4-9.4-8.1-14.9-5.9zm39.6-0.6c-4.8 0.5-9 4.3-10.1 9-2 6.9 3.8 14.7 11 14.8 6.6 0.7 12.9-5 12.8-11.6 0.7-7.3-6.8-13.2-13.7-12.2z"/><path class="a" d="m70.3 41.3c2.5-2.8 7.5-2.2 9.7 0.8 1.6 2.7 0.5 6-0.3 8.8-2.4 0.4-4.9 1.2-7.4 0.6-3.8-1.5-5.1-7.3-2-10.2z"/><path class="a" d="m109.4 41.5c3.4-3 9.1 0.1 9.2 4.4 0.6 3.5-3.1 5.3-5.5 6.9-1.9-1-4.5-1.4-5.5-3.5-0.7-2.6-0.7-6.1 1.8-7.8z"/><path class="a" d="m147.4 40.6c3.6-1.5 8.9 1 8.4 5.4 0.5 3.2-2.4 5.7-5.3 6.4-2.3 0.3-4.5-1.2-5.9-2.8-1-3.2-0.7-7.6 2.8-9z"/><path class="a" d="m184.2 41.1c2.8-1.4 7.6-0.8 8.4 2.8 2.5 4.5-2.9 10.7-7.7 8.2-4.1-2-5-8.7-0.7-11z"/><path class="a" d="m221.4 41.6c3.4-2.5 9 0 9.1 4.3 0.8 4.6-5.2 8.8-9.1 5.8-3.8-2.1-3.7-8.1 0-10.1z"/><path class="a" d="m259.2 41.2c3.5-2.1 8.4 0.8 8.5 4.8 0.7 4.5-4.7 8.1-8.6 6.2-4.4-1.7-4.2-9.4 0.1-11z"/><path class="a" d="m293.5 43.8c1.9-3.6 7.1-4.3 10-1.4 2.6 3.4 1.1 9.7-3.5 10.3-2.9 0.8-5-1.6-6.8-3.4 0-1.8-0.1-3.7 0.3-5.5z"/><path class="a" d="m330.9 44.1c1.6-3.4 5.9-3.5 9-2.3 2.5 1.9 3.5 5.9 1.4 8.5-1.5 1.7-3.5 2.5-5.4 3.5-3.7-1.5-7.2-5.6-4.9-9.7z"/><path class="a" d="m368.2 44.1c0.9-2.4 3.9-2.8 5.9-3.9 2 1.2 4.4 2.4 5 4.8 2.1 4.8-4.2 10.3-8.5 7.3-3.1-1.4-3.3-5.4-2.4-8.2z"/><path class="a" d="m407.7 41.7c2.4-0.8 5.6-0.9 7.6 1 1.7 2 1.5 4.9 0.8 7.3-1.3 1.7-3.3 2.7-5 3.9-2.5-1.3-4.7-2.9-6.7-4.8 0.4-2.6 0.4-6.1 3.3-7.4z"/><path class="a" d="m445.5 41.6c3.6-1.6 8.9 1.1 8.3 5.4 0.4 4.4-5.4 8.5-9 5.3-3.9-2.3-3.5-8.9 0.7-10.7z"/><path class="a" d="m480.4 42.5c2.6-0.7 5.3-1.9 7.9-0.8 3.5 2.3 3.5 8.3 0.1 10.6-2.4 2.2-6.3 0.8-8-1.6-1.7-2.5-0.5-5.5 0-8.2z"/><path class="a" d="m519.9 41.6c2.4-0.7 5.2-0.3 7.1 1.4 2.4 3 1.4 8.2-2.2 9.9-2.1 1.4-4.6 0-6.3-1.4-3.7-2.3-2.4-8.5 1.4-9.9z"/><path class="a" d="m556.3 42.4c3.5-2.6 9.4 0.2 9.3 4.6 0.7 5-6.1 9-9.7 5.1-3.3-2.3-2.7-7.5 0.4-9.7z"/><path class="a" d="m593.4 42.6c3.2-2.3 8.7-0.8 9.3 3.4 1.2 4.2-3.4 9.2-7.7 7.1-4.4-1-5.1-8-1.6-10.5z"/><path class="a" d="m631.3 42.3c3.8-2.2 9.6 1.2 8.8 5.7 0 4.5-6 7.8-9.4 4.4-3.6-2.3-3.4-8.4 0.6-10.1z"/><path class="a" d="m668.3 42.5c2.9-1.9 7.1-0.3 8.4 2.8 2.7 4.6-3.3 10.6-7.9 7.8-4.4-1.7-4.6-8.5-0.5-10.6z"/><path class="a" d="m704.6 42.6c2.5-0.2 5.4-1.7 7.7 0.1 2.3 2.1 3.3 6.1 1 8.7-2.2 3.9-8.8 2.7-10.2-1.4-1.4-2.5 0.6-5.1 1.5-7.4z"/><path class="a" d="m246.9 73.2c17.3-0.3 34.6 0.1 52-0.2-0.5 11.2 0 22.5-0.3 33.7-1.6-4.5-3.3-9.2-6.7-12.6-6.6-6.6-17.2-8.7-25.8-5.1-8.2 3.6-14.1 12-14.3 21-0.1 10.3 7.2 20.5 17.3 23.1 7 1.7 14.9 0.3 20.6-4.4 4.5-3.3 6.9-8.6 8.8-13.7 0.3 36.7 0 73.4 0.1 110 0 43.5 0.1 86.9 0 130.4-17.2-0.2-34.5 0-51.8-0.2 0.4-27.7-0.1-55.5 0.3-83.2 0.2-32.3-0.3-64.7-0.2-97-0.1-33.9 0.1-67.9 0-101.8zm22.3 225.8c-8.6 1.9-15.8 9-17.6 17.6-2.8 10.9 3.7 22.9 13.9 27.1 7.1 3 15.6 2 21.9-2.4 6.7-4.7 10.6-13.2 9.7-21.4-0.6-7.7-5.2-15.3-12.3-18.7-4.7-2.6-10.4-3.4-15.6-2.2z"/><path class="a" d="m701.3 73c13.6 0 27.3 0.3 40.9-0.2-0.2 58.1 0.1 116.2 0 174.2 0.1 36.1-0.1 72.2 0 108.3-13.6 0-27.2-0.1-40.8 0q0-5 0-10c5.7 0.1 11.9 0.1 16.9-3.1 6.7-4 11.3-11.4 11.3-19.3 0.6-9.6-5.8-19.1-14.7-22.6-4.2-2.1-9-1.8-13.5-1.5q0-101.6 0-203.1c5.1-0.3 11.1-1.1 15.3 2.6 7.2 5.2 8.1 17 1.7 23.2-2.5 2.3-5.7 4.4-9.3 4.2-2.3 0.2-4.8-0.6-6.9 0.6-0.6 2.3-0.3 4.8-0.1 7.2 6.2 0.5 12.9 0.3 18.2-3.4 7-4.4 11-12.9 10.4-21.1-0.5-8.5-6-16.6-14-19.7-4.8-2.3-10.2-1.9-15.3-1.5 0-4.9 0-9.9-0.1-14.8z"/><path class="a" d="m167.2 102.1c-1.2-13.7 13.9-24.8 26.7-21.1 2.4 0.7 4.9 1.6 6.9 3.3-0.9 3.5-3.4 6.3-5.1 9.4-2.4 4.1-5 8.1-7.1 12.4-0.7 1.5 0.4 3.1 0.6 4.6q2.1 0 4.3 0c4.6-7 8.3-14.6 12.9-21.6 2.5 4.9 4.9 10.3 3.8 16-1 9-8.7 16.3-17.3 18.3-12.6 2.6-26.5-8.1-25.7-21.3z"/><path class="a" d="m271.5 95.6c5-0.8 10.6-0.2 14.2 3.7 6.9 5.7 6.4 17.4-0.5 22.9-6.5 6.2-18.6 4.4-22.9-3.6-5.3-8.1-0.9-21.3 9.2-23z"/><path class="a" d="m744.7 107.5c8.7 8.7 17.4 17.5 26.1 26.2-8.6-0.2-17.3 0.1-26-0.1 0-8.7 0.1-17.4-0.1-26.1z"/><path class="a" d="m71.2 126.4c2.3-0.1 5.3-0.6 6.9 1.5 0.8 2-0.2 4.4-2.1 5.3-1.7 0.2-3.5 0.1-5.2 0 0.1-2.2-0.1-4.5 0.4-6.8z"/><path class="a" d="m55.7 126.1c2.1 0.2 4.2 0 6.2 0.7 1.6 1.7 1.3 4.5-0.1 6.2-2 0.8-4.1 0.3-6.1 0.4q-0.1-3.6 0-7.3z"/><path class="a" d="m85.7 135.6c2.4-0.1 4.7-0.2 7.1 0 0.7 2.2-1.9 3.8-3.8 3.3-2 0.2-2.5-1.9-3.3-3.3z"/><path class="a" d="m744.5 141.7c0.9 0 2.8 0.1 3.8 0.1 1.4 4.6 2.9 9.2 4.6 13.7 1.4-4.7 3-9.2 4.3-13.9q2.2 0.1 4.5 0.2c-2.9 5.9-4.5 12.3-7 18.4q-2 0.2-3.9 0.3c-2.1-6.2-4.3-12.5-6.3-18.8z"/><path class="a" d="m764.5 142.6c2-0.9 4.3-1.3 6.5-0.9 2.9 0.9 4.4 4.1 3.5 6.9-1.3 3.7-4.9 5.9-7.4 8.7 2.4-0.1 4.9-0.3 7.3-0.5q0.1 1.8 0.3 3.7c-4.2 0-8.5 0-12.7-0.2 1.3-5.7 7-8.4 9.6-13.4-1-0.9-1.7-2.4-3.1-2.6-1.3 1-2.4 2.1-3.5 3.2q-1.4-0.1-2.8-0.2c0.7-1.6 1-3.5 2.3-4.7z"/><path class="a" d="m744.8 168.1c11.2 0 22.5 0.2 33.8-0.2-0.2 9.4-0.1 18.9-0.2 28.4q-1.9-0.1-3.8-0.1 0-5.5 0.1-11c-9 0.2-18-0.1-27 0.1q0 5.3 0 10.7c-0.7-0.1-2.2-0.2-2.9-0.2 0-9.3 0.1-18.5 0-27.7z"/><path class="a" d="m48.7 171.9q1.8-0.6 3.7-1.1l-0.1 1.4c-0.2 3.6-0.2 7.1 0 10.6l0.1 1q-1.9-0.3-3.8-0.6c-0.1-3.8-0.5-7.6 0.1-11.3z"/><path class="a" d="m757.2 213.2c1.2-0.9 2.4-1.9 3.9-2.6 1.5 0.2 2.9 0.7 4.4 1.1q0 2.7 0 5.4-1.6 1.3-3.3 2.7c-3.1-0.8-5.3-3.2-5-6.6zm2.9-1c-0.5 0.9-1.4 2.5-1.8 3.2q2.1 1.5 4.5 2.5c0.5-0.9 1.5-2.5 2-3.3-1.3-1.3-2.9-2-4.7-2.4z"/><path class="a" d="m774.6 234.4q1.8-0.1 3.6-0.1 0 26.9-0.1 53.8c0.1 1.6-1.2 2.7-2.2 3.8-10.5 10.3-20.6 21-31.1 31.2 0-29.5 0.1-59.1 0-88.7 0.7 0.1 2.2 0.2 3 0.3q0 5.2 0.1 10.4c8.9-0.3 17.9-0.3 26.8-0.3q0-5.2-0.1-10.4z"/><path class="a" d="m54.4 294.2c1.8 0 3.7-0.1 5.5 0.3 2.4 0.8 2.8 4.6 0.6 5.9-1.8 1.3-4.1 0.5-6.1 0.5q-0.1-3.4 0-6.7z"/><path class="a" d="m271.5 306.6c7.4-1.4 15.6 3.6 17.5 11 2.4 8-2.8 17.4-11 19.3-8.4 2.6-17.7-4-19-12.5-1.7-8.1 4.4-16.4 12.5-17.8z"/><path class="a" d="m701.5 306.5c5-0.2 10.5-0.1 14.5 3.5 7.2 5.3 7.6 17.1 1 23-3.9 4.4-10.1 4.6-15.5 4.5-0.1-10.3-0.2-20.7 0-31z"/><path class="a" d="m185.3 361.8c1.6 0.3 4 0.1 4.6 2.1q0.2 2-0.3 4c-0.8 1.5-2.8 1.2-4.3 1.7-0.1-2.6-0.1-5.2 0-7.8z"/><path class="a" d="m272.6 362.3q1.8 0.2 3.6 0.4 0 1.3 0 2.6-1.8 0.2-3.6 0.4 0-1.7 0-3.4z"/><path class="a" d="m196 364.9c0.9-1.1 3.5-0.1 2.5 1.3-0.8 1-3.6 0.2-2.5-1.3z"/><path class="a" d="m217.7 364.1c2.6 0.8 3.6 4.5 0.5 5.5-2.4-1.2-1.2-3.7-0.5-5.6z"/><path class="a" d="m235.4 366.1c-0.9-1.3 1.5-2.2 2.3-1.2 1 1.4-1.5 2.1-2.3 1.2z"/><path class="a" d="m243.9 364.9c3.8-2.5 4.1 6.1 0.5 4.6-1.5-0.9-0.8-3.2-0.5-4.6z"/><path class="a" d="m288.3 365.5c2.5-2.6 5.1 2.8 2.3 4.1-2.4 1-3.9-2.7-2.3-4.1z"/><path class="a" d="m297.4 365.4q1.4 0.2 2.9 0.4c-0.1 1.6 0.9 4-1.4 4.1-2.5-0.1-2.2-2.8-1.5-4.5z"/><path class="a" d="m355.4 365.6c2.5-1.4 2.9 4.3 0.3 2.8q-1.7-1.4-0.3-2.9z"/><path class="a" d="m256.9 369c0.4-1.1 1-2.1 1.6-3.1q1.2 1.8 2.3 3.8c-1.3-0.1-2.7 0-3.9-0.7z"/><path class="a" d="m306.6 366.6c2.8-3 4.6 3.2 1.5 3.4-2-0.1-1.7-2-1.5-3.4z"/><path class="a" d="m332.3 366.2c0.8 0 2.5 0 3.3 0q0.1 1.7 0.2 3.5c-0.7 0.1-2.3 0.2-3 0.3q-0.3-1.9-0.6-3.8z"/><path class="a" d="m346.1 365.7c2.3 0 3.4 1.5 3.4 3.6q-1.6 0.3-3.2 0.6-0.1-2.1-0.2-4.2z"/><path class="a" d="m380.3 367c-0.9 1.5-3.2-0.8-1.3-1.3 0.4 0.1 1.1 0.4 1.4 0.6z"/><path class="a" d="m69.7 381.7c2.7-0.8 6.2-1 8.3 1.4 3.3 3.3 0.5 9.5-4 10-6.4 1.8-10.2-8.5-4.3-11.4z"/><path class="a" d="m106.6 381.4c2.8 0 6.3-0.8 8.2 1.9 3 3.2 0.8 9.4-3.8 9.5-3.9 0.9-7.4-3.1-6.8-6.9 0.4-1.6 1.5-3 2.4-4.5z"/><path class="a" d="m141.3 384.9c1.7-1.3 3.2-3.6 5.6-3.6 4.4-0.7 8.2 4.6 5.8 8.4-1.1 3.4-5.3 3.5-8.1 2.6-2.8-1.3-3-4.7-3.4-7.4z"/><path class="a" d="m217.6 384.8c1.2-3.4 5.5-4.2 8.5-2.9 1.8 1.1 2.5 3.3 3.6 5-1 2.1-1.3 5.2-4 5.7-2 0.9-4.2 0.3-6.3 0-1.2-2.4-2.9-5-1.8-7.8z"/><path class="a" d="m182.4 382.5c3-2.3 7.8-0.6 9.2 2.8 1.7 4.3-3.3 9.6-7.7 7.7-4.5-0.9-5.2-8.2-1.5-10.5z"/><path class="a" d="m257.4 382.4c4.1-3.1 10.1 1.4 9.1 6.2-1 3-4.2 5.8-7.6 4.7-4.7-1.2-6-8.6-1.5-10.9z"/><path class="a" d="m294.5 382.6c4.6-3.4 11.8 2.6 8.6 7.6-1.7 4.4-8.6 4.5-10.6 0.4-1.8-2.6-0.6-6.4 2-8z"/><path class="a" d="m329.2 387.9c-0.6-4.5 5.6-7.9 9.2-5.2 3.5 2.2 3.4 8.7-0.5 10.4-2 0.6-4.1 0.4-6.1 0.5-1-1.8-2.6-3.5-2.6-5.7z"/><path class="a" d="m370.3 382.4c4.5-1.8 9.8 3 7.8 7.6-1.1 3.8-5.9 4.6-9.1 2.9-3.6-2.5-3.2-9.2 1.3-10.5z"/><path class="a" d="m589.3 384.4c2.2-1.4 4.6-3.7 7.4-2.6 4.6 1.1 5.7 8.2 1.7 10.6-1.8 0.8-3.8 1-5.6 1.4-3-2.3-4-5.8-3.5-9.4z"/><path class="a" d="m629.4 382.5c4.2-2.8 10.4 1.8 8.6 6.6-0.8 3.9-5.6 5.5-9 3.9-3.9-2.1-3.6-8.7 0.4-10.5z"/><path class="a" d="m666.4 382.5c3.6-2.4 8.8 0.5 9 4.7 0.5 4.2-4.5 7.7-8.4 5.7-4.5-1.3-4.9-8.4-0.6-10.4z"/><path class="a" d="m703.6 382.7c3.8-2 9.6 0.6 9 5.3 0.4 5.3-7.2 7.8-10.3 3.7-2.8-2.4-1.7-7.2 1.3-9z"/><path class="a" d="m405.5 392.5c-2.9-2.4-2.3-7.4 1.2-8.9 0.6 1.9 0.6 4.2 1.8 5.9 2 1.4 4.6 1.4 6.9 2.2-2.8 1.9-7 3.4-9.9 0.8z"/><path class="b" d="m53.3 29.1c2.1-2.7 5.7-1.5 8.7-1.8 107.7 0.2 215.3 0.9 323 1.1 66.3-0.1 132.6 0.5 199 0.5 42 0.4 84 0.2 126 0.4 5.5 0.1 10.9-0.2 16.3 0.2 0.3 13.6 0 27.2 0 40.8 6.1 0 12.2-0.2 18.3 0.1 0.5 11.2 0 22.4 0.3 33.6 12.4 12 24.6 24.4 36.6 36.9-0.2 12.4-0.1 24.7-0.2 37.1-0.3 15.7 0.5 31.3 0.1 47-1.1 21.8-0.2 43.7-0.8 65.5-2.2 3.1-5.2 5.5-7.8 8.3-9.3 9.4-18.4 19-27.9 28.3-0.2 10.2 0.1 20.4-0.3 30.6-6.6 0.4-13.2 0-19.9 0.2 0 15.9 0.2 31.8-0.2 47.7-17.2 0.6-34.4 0.2-51.5 0.2-203.4-0.2-406.7-0.4-610-0.8-3.9-0.4-7.9 0.5-11.7-0.4-7.3-6.6-14-13.9-21.2-20.8-2.7-2.6-5.5-5.2-8-8-1-1-0.5-2.5-0.7-3.7 0.1-22.1-0.4-44.1-0.1-66.1-0.2-2.9 2-5 3.6-7 5.1-6.3 10.2-12.6 15.3-18.9 2.4-2.6 1.4-6.4 1.4-9.6-5.3-0.1-7.6 7-13.1 5.4q-0.2-2.9-0.1-5.9c2.7-1.5 6.4-2.9 6.7-6.5-2.2-0.3-4.4-0.5-6.6-0.8 0.1-32.1-0.1-64.3 0-96.5 2.2 0 4.4-0.1 6.5-1-1.3-2.7-4.1-4-6.4-5.7-0.4-2.1-0.1-4.2 0-6.3 3.7-0.9 6.1 2.1 8.3 4.5q2.5-0.1 4.9-0.3c-5.5-9-12.2-17.2-18.1-26-1.3-1.9-1-4.3-1.1-6.5 0.1-21.8 0-43.6 0.1-65.4 9.8-10.5 20.4-20.2 30.6-30.4zm2.7 1c-9.9 10.4-20.3 20.2-30.5 30.2 0 22.9-0.2 45.8 0.1 68.6 3.1 5.5 7.4 10.3 10.8 15.7 2.7 4.4 6.8 7.9 8.1 13.1 3.6-0.1 7.3-0.1 11-0.1 9.4 0.1 18.9 0.1 28.3 0.1q15.3-0.2 30.5 0c0.4 3.7 0.3 7.6 0.4 11.4l0.2 0.2c-0.1 6.1-0.3 12.3-0.1 18.4q0 3-0.1 6 0 3 0 5.9 0 1.8 0 3.7 0 2.8 0.1 5.6-0.1 2-0.1 3.9 0 2.9 0 5.8 0 1.8 0.1 3.7 0 2.8 0 5.6-0.1 1.9-0.1 3.8 0 3 0 5.9 0 2.7 0 5.5 0 9.7 0 19.4c-0.5 2.8 1.2 6.8-1.5 8.7-9.6 0.3-19.2 0-28.8 0.1-9.6-0.1-19.3 0.1-29 0-3.7 0.1-7.5 0-11.2 0.1-0.3 3.1 1.1 6.9-1.2 9.6-5.9 7.2-11.5 14.5-17.5 21.6-1.5 1.4-1.4 3.5-1.5 5.4-0.4 22 0.3 44.1 0.2 66.1 9.6 9.3 18.9 18.8 28.4 28.2 61.5 0.1 122.9 0.1 184.4 0.3 53.6-0.1 107.3 0.3 161 0.1 53.3 0.4 106.7-0.1 160 0.3 54.7 0.4 109.4 0.1 164.1 0.3 0-15.2 0.1-30.3 0.1-45.4-6.9 0-13.8-0.1-20.7 0-0.1 2.2 0.1 4.4-0.7 6.5q-1.8-0.4-3.8-0.4c-26.3 0-52.7 0.1-79 0-13.8 0.4-27.6 0.1-41.4 0.1 0.1 8.8-0.2 17.6 0.2 26.4-0.1 0.4-0.2 1.3-0.3 1.7-2.4 0.3-4.8 0.2-7.2 0.2-2.1 4.2-6.4 7.3-11.3 7.2-4.9 0.2-9.2-3-11.7-7.1-4.6 0-9.3 0-13.9 0.1-2.4 3.9-6.6 7-11.4 7-4.7 0-9-2.9-11.3-6.9q-7.3 0.1-14.5 0.1c-2.6 3.7-6.4 7.1-11.2 6.8-4.9 0.3-9-2.9-11.7-6.7-4.9 0.4-9.7 0.2-14.5 0.3-2.9 5.4-9.9 7.8-15.5 5.6-3.1-0.9-4.9-3.6-7.2-5.5q-7.2-0.1-14.5 0c-1.9 1.9-3.4 4.2-6 5.2-6.3 3.2-14.9-0.8-16.7-7.6-1.7-5.4 1.3-11.3 6.1-13.9 0.3 0.3 0.8 0.8 1 1.1-2.5 2.8-5.6 5.8-5.3 9.9-0.3 6.8 8.1 11.9 14 8.6 3-1.1 4.1-4.8 7.4-5.4-0.1-8.5 0.2-17-0.2-25.5-9.8 0.1-19.6-0.2-29.3 0.4l-0.3-0.5q0.4 3.2 1 6.3c-3.8 0.7-2.2-3.6-2.6-5.8-0.7 0-2.2 0-2.9 0 0 2.1-0.1 4.2-0.4 6.3-2.5-1.1-1.4-4.1-1.7-6.3-0.5 0-1.6 0-2.1 0 0.1 0.6 0.3 1.7 0.4 2.2q-2.8 0-5.6 0.1c1.4 2.4 4.2 0.9 6.4 1.2-1.6 1.9-4.6 2.8-6.7 1.2-1.5-1-0.8-3-1-4.4-0.4-0.1-1.1-0.3-1.5-0.4-0.2 2.1-0.5 4.2-1 6.3-2.4-1.4-3.4-4.1-5-6.2-2.1 0.4-0.3 4-0.8 5.5h-2.2q0-2.7 0-5.4-3.2 0.1-6.4 0.1c-1 2.7-1.8 5.4-3.3 7.8-1.3 0.7-2.7 0-4-0.4 0.8-0.4 2.5-1.1 3.4-1.5-0.7-2.5-1.4-5.2-3.6-6.8-0.4 1.8-0.6 3.7-1.1 5.5-2 1-4.3 0.7-6.4 0.7q-0.5-2.7-0.6-5.5c-2 0-4.1 0-6.1 0q0.1 2.7 0.2 5.4c-1.9 0-3.7 0.4-5.6 0-1.7-1.1-1.7-3.4-2.1-5.2-0.4 0-1.3 0-1.7 0l0.7 2.2q-2-0.5-3.8-1.1c0-0.4 0-1.3 0.1-1.8q-0.7 2.1-1.4 4.1 1.9 0.1 3.3-1.2 0.7 0.9 1.5 1.8c-1.8 0.9-3.7 1.7-5.6 0.8-1.5-1.3-1.3-3.3-1.6-5-2.1 0.1-4.2 0.1-6.3 0.2 0.3 1.1-0.1 2.8 1.1 3.4 1.6 0.2 3-1 4.5-1.4-0.3 0.6-0.8 1.8-1 2.4-3.2 3-7.7-1.1-6.6-4.8l-1.5 0.1q-0.1 2.7-0.3 5.4c-1.7 0-3.6 0.1-5.3-0.1-1.6-1.3-1.4-3.4-1.7-5.2-0.4 0-1.4 0.1-1.8 0.1q-0.1 2.5-0.2 5c-2.1-0.3-5.1 1.2-6.6-1-2.4-2.5-0.2-6.6 2.7-7.6q0-2.4 0-4.7c-18-0.2-36.1 0.4-54.2-0.3 0.1-34.5-0.4-69 0.2-103.6-0.2 0.1-0.7 0.1-0.9 0.1 0.1 3.4 0 6.8 0 10.2l-1.9 0.1c0-3.1 0-6.2 0-9.3-4.1 0.2-8.2 0.2-12.3 0.2 0 3.1 0 6.1-0.1 9.2-0.6 0-1.8 0.2-2.4 0.2-0.2-5.6-0.1-11.3 0-17-6.1 0-12.1 0-18.2-0.1 0.1 7.2 0.1 14.5-0.1 21.8q-2.4 0.1-4.7 0.1c-2.6-0.1-5.1 0-7.6 0.1q-10 0.1-20 0-3.9-0.1-7.7 0c-0.7 0-2.1 0.1-2.8 0.1 0 13.7 0.1 27.3 0 40.9-3.4 0.2-6.7 0.2-10.1 0.1 0-0.5 0-1.6 0.1-2.1q3.9 0 7.9 0.1-0.1-9.8 0-19.5-6.7 0-13.3 0c0-0.6-0.1-1.8-0.1-2.4q6.6 0.1 13.3 0c0-5.7 0-11.5 0-17.3q-3.9 0.1-7.9 0.2v-2.3q4 0 7.9 0.3c0-7.4 0-14.8 0-22.1 6.8-0.6 13.6-0.1 20.3-0.2 15.1 0 30.2 0 45.3 0.4q0.2 3.7 0.2 7.3 3.7 0 7.3 0c0.2-5.6-0.3-11.3 0.4-16.9q0.1-4.1-0.1-8.1c-0.1-5.1-0.1-10.1-0.1-15.2 0.3-1.3-0.3-3.2 1-4.2 2.1-0.2 4.2 0 6.4 0-0.1-19.6 0-39.1 0-58.7 0.2-26.5-0.3-52.9 0.2-79.4 4.9-0.3 9.7-0.1 14.5-0.2 54.8 0.1 109.5 0 164.2 0.1q-0.4-2.3-0.3-4.5c0.9-2 3.7-2.6 5.4-1.2 1.4 1.5 1.1 3.7 1.2 5.7 6.4-0.2 12.9-0.1 19.3-0.1 0.4-0.7 1.3-2 1.7-2.6 0.9 0.9 1.7 1.8 2.6 2.7 2.4-0.1 4.9 0.1 7.2-1 0.3 0.3 0.9 0.7 1.2 0.9 87.4 0 174.7 0 262.1 0 0-12.8 0.1-25.7 0-38.5q-179.8-0.3-359.6-1c-102.7-0.2-205.3-0.8-308-0.7zm190.9 43c0.1 33.9-0.1 67.9 0 101.8-0.1 32.4 0.4 64.7 0.2 97-0.4 27.8 0.1 55.5-0.3 83.2 17.3 0.2 34.6 0 51.8 0.2 0.1-43.5 0-86.9 0-130.4-0.1-36.6 0.2-73.3-0.1-109.9 0.4-2.8 0.3-5.6 0.1-8.4 0.3-11.2-0.2-22.4 0.3-33.7-17.4 0.3-34.7-0.1-52 0.2zm454.4-0.2c0.1 4.9 0.1 9.9 0.1 14.8q-0.1 3.9 0 7.9 0 101.5 0 203.1 0 3.8 0.1 7.7c-0.2 10.3-0.1 20.7 0 31q-0.1 3.9-0.1 7.8 0 5 0 10c13.6-0.1 27.2 0 40.8 0-0.1-36.1 0.1-72.2 0-108.3 0.1-58-0.2-116.1 0-174.2-13.6 0.5-27.3 0.2-40.9 0.2zm43.4 34.5c0.2 8.7 0.1 17.4 0.1 26.1 8.7 0.1 17.4-0.1 26.1 0.1-8.8-8.7-17.5-17.5-26.2-26.2zm-0.2 34.2c2 6.3 4.2 12.6 6.3 18.8q1.9-0.1 3.9-0.4c2.5-6 4.1-12.4 7-18.3q-2.3-0.1-4.5-0.2c-1.3 4.7-2.9 9.2-4.3 13.8-1.7-4.4-3.2-9-4.6-13.6-1 0-2.9-0.1-3.8-0.1zm20 0.9c-1.3 1.2-1.6 3.1-2.3 4.7q1.4 0.1 2.8 0.2c1.1-1.1 2.2-2.3 3.5-3.2 1.4 0.2 2.1 1.7 3.1 2.6-2.5 5-8.3 7.7-9.6 13.4 4.2 0.2 8.5 0.2 12.7 0.2q-0.2-1.9-0.3-3.7c-2.4 0.2-4.9 0.4-7.3 0.5 2.5-2.8 6.1-5 7.4-8.7 0.9-2.8-0.6-6-3.5-6.9-2.2-0.4-4.5 0-6.5 0.9zm-733.9 12.5q-0.3 1.6-0.5 3.1c2.7 1.9 7.1 3.8 6.2 7.9-1.5 1.7-3.9 1.8-5.9 2.4 0.1 30.9-0.1 61.7 0.1 92.5 1.9 0.2 3.8 0.2 5.6 0.8 0.8 1.5 1.8 3.3 0.4 4.8-1.7 3.1-6.9 3.6-6.5 7.8 3.1-1.4 5.5-4.3 8.9-5.2 24.6 0.2 49.2 0.1 73.9 0.1 0-36.6 0.2-73.2-0.2-109.8-24.2 0.1-48.4 0.1-72.6 0-1.4 0-2.8 0-4.1-0.4-2-1-3.1-3.3-5.3-4zm714.2 13c0.1 9.2 0 18.4 0 27.7 0.7 0 2.2 0.1 2.9 0.2 9 0.3 17.9 0 26.9 0.2q1.9 0 3.8 0.1c0.1-9.5 0-19 0.2-28.4-11.3 0.3-22.6 0.2-33.8 0.2zm0 30.2c0.2 11.3 0 22.6 0.1 33.9 11.2 0.2 22.4 0.3 33.6 0.2 0.3-11.4-0.3-22.8 0.3-34.3-11.3-0.1-22.7 0.2-34 0.2zm0 36.1c0.1 29.6 0 59.1 0 88.7 10.5-10.2 20.6-20.9 31.1-31.2 1-1.1 2.3-2.2 2.2-3.8q0.1-26.9 0.1-53.8-1.8 0-3.6 0.1c-9.9-0.1-19.9-0.1-29.8 0zm-447.4 131c-0.7 1.7-1 4.4 1.5 4.5 2.3-0.1 1.2-2.5 1.4-4.1q-1.5-0.2-2.9-0.4zm58 0.1q-1.4 1.5 0.2 2.9c2.7 1.5 2.3-4.2-0.2-2.9zm-48.8 1.1c-0.2 1.4-0.5 3.3 1.5 3.4 3.1-0.2 1.3-6.4-1.5-3.4zm25.6-0.4q0.3 1.9 0.6 3.8c0.7-0.1 2.2-0.2 3-0.3q-0.1-1.8-0.2-3.5c-0.8 0-2.5 0-3.4 0zm13.9-0.5q0.1 2.1 0.2 4.2 1.6-0.3 3.2-0.6c0-2.1-1.1-3.6-3.4-3.6zm25.2 0.4c0.2 3.3 3-1.6 0 0m9 0.9l0.1-0.7c-0.3-0.2-1-0.5-1.4-0.6-1.9 0.5 0.4 2.8 1.3 1.3zm132.3 25.8c2.1 2.5 4.9 4.9 8.4 4.6 3.6 0.1 6.5-2.4 9-4.7-5.8 0-11.6-0.1-17.4 0.1zm36.2-0.2c2.6 2.8 6 5.3 10.1 4.9 3.5 0 6-2.7 8.3-5-6.2-0.2-12.3 0-18.4 0.1zm-110.8 0.7c2.5 2.2 5.5 4.4 9 4.3 3.4 0.1 6.1-2.2 8.4-4.3-5.8-0.1-11.6 0-17.4 0zm37.3-0.3c2.3 2.9 5.9 4.9 9.7 4.4 3.1 0 5.3-2.5 7.5-4.5-5.8-0.1-11.5-0.2-17.2 0.1z"/><path class="b" d="m62.7 33.4c8.2-0.1 16.4-0.2 24.6 0q0.2 12.2 0 24.3c-8.3 0.3-16.5 0-24.8 0.1 0-8.1-0.2-16.3 0.2-24.4zm1.7 2.1c0.1 6.7 0 13.5 0 20.3 7 0.2 14 0 21 0.1 0-6.8-0.1-13.6 0-20.4-7 0.1-14-0.1-21 0z"/><path class="b" d="m108.3 34.6c7.2-3 16.2 2.5 16.6 10.3 0.9 6.5-4.4 13.1-11 13.4-6.6 1-13.1-4.6-13.4-11.2-0.7-5.4 2.8-10.7 7.8-12.5zm1.1 2c-7.7 2.3-9.1 14-2 18 5.9 4.2 15.1-0.3 15.3-7.6 1-6.9-6.7-13.2-13.3-10.4z"/><path class="b" d="m147.2 34.3c7.6-2.2 15.7 4.9 15.2 12.6-0.3 7.5-8.3 13.3-15.4 11.1-6.2-1.3-10.4-8-8.9-14.1 0.7-4.7 4.5-8.5 9.1-9.6zm0.2 2.2c-7.2 1.9-9.7 12.3-4 17.1 5.5 5.9 16.4 1.4 16.6-6.5 0.7-6.7-6.2-12.4-12.6-10.6z"/><path class="b" d="m183.5 34.6c7.8-2.9 16.8 4.2 16.1 12.4-0.4 7.6-8.5 13.6-15.8 11.1-6.7-1.9-10.6-9.8-7.9-16.3 1.4-3.3 4.2-6 7.6-7.2zm1.8 1.9c-6.8 1.4-10.8 10.6-5.9 16 4.2 5.8 14.3 4.8 17-1.9 3.7-7-3.3-16.2-11.1-14.1z"/><path class="b" d="m220.5 34.8c6.5-2.4 14.3 1.6 16 8.3 2.3 7.3-3.7 15.8-11.5 15.6-6.4 0.5-12.5-5.1-12.7-11.6-0.6-5.4 3.3-10.4 8.2-12.3zm1.9 1.7c-6.1 1.4-10 9-6.7 14.6 3.3 6.8 14.3 7.3 17.7 0.4 4.5-7.1-2.9-17.3-11-15z"/><path class="b" d="m258.5 34.7c6.6-2.1 14.2 2.6 15.4 9.4 1.8 7.9-5.9 16.2-14 14.4-6.4-0.6-11-7.3-10-13.6 0.4-4.8 4-8.9 8.6-10.2zm-0.3 2.5c-7 2.8-8.4 13.5-2 17.6 6 4.6 15.5-0.3 15.6-7.8 0.6-6.9-7.2-12.8-13.6-9.8z"/><path class="b" d="m295.5 34.8c7.7-2.7 16.3 4.2 15.8 12.2 0 7.3-7.3 13.2-14.4 11.6-7.7-0.8-12.5-10.2-9.1-17.1 1.6-3 4.4-5.6 7.7-6.7zm-0.1 2.6c-5.1 2-8.2 8.5-5.6 13.5 2.3 5 8.9 7.3 13.8 4.8 4.5-2.2 6.8-8.2 4.7-12.8-1.7-5.1-8.1-7.7-12.9-5.5z"/><path class="b" d="m483.6 34.9c5.6-0.8 11.3 2.7 13.3 8 2.4 6.2-1.5 14-8 15.9-7 2.5-15.7-3.1-15.7-10.7-0.7-6.3 4.2-12.5 10.4-13.2zm-1.3 2.6c-7.5 2.2-9.5 13.6-2.7 17.8 5.5 4.4 14.5 0.6 15.5-6.3 1.6-7-5.9-14-12.8-11.5z"/><path class="b" d="m331.4 35.5c6-2.9 14 0.3 16.3 6.6 3.4 7.3-2.5 17-10.7 16.8-6.7 0.8-13.1-5.2-12.9-11.9-0.3-4.9 3-9.4 7.3-11.5zm1 1.9c-4.6 2.1-7.4 7.8-5.6 12.6 1.7 5.3 8.2 8.2 13.3 6.2 5.2-2 7.9-8.6 5.4-13.6-2-5-8.3-7.6-13.1-5.2z"/><path class="b" d="m368.5 35.7c7.3-3.9 17.1 2 17.4 10.2 0.7 7.8-7.3 14.9-15 12.9-5.4-1-9.6-6.3-9.4-11.8-0.3-4.8 2.5-9.5 7-11.3zm1.8 1.6c-7.3 2.5-9 13.6-2.3 17.7 5.4 4.3 14.2 0.6 15.3-6.1 1.8-7.1-6-14.6-13-11.6z"/><path class="b" d="m406.4 35.5c7.5-3.5 17.2 3.3 16.6 11.5 0.4 7.6-7.9 13.9-15.1 11.7-5.4-1.2-9.4-6.3-9.4-11.7-0.3-5.1 3.5-9.5 7.9-11.5zm1.8 1.8c-6.3 1.6-10.1 9.9-5.8 15.3 4 6.3 15.1 5.8 17.6-1.6 3.5-7.3-4.1-16.4-11.8-13.7z"/><path class="b" d="m443.5 35.6c7.6-3.4 17.2 3 16.8 11.4 0.5 7.8-8.1 14.2-15.4 11.8-6-1.4-10.3-7.9-8.9-13.9 0.6-4.2 3.7-7.7 7.5-9.3zm1.7 1.6c-4.5 1.5-7.6 6.2-7.1 10.9 0.4 6.2 7.6 10.5 13.4 8.5 5.1-1.7 8.1-8.1 5.9-13.1-1.7-4.8-7.3-8-12.2-6.3z"/><path class="b" d="m518.4 35.6c7.5-3.1 16.5 3.4 16.3 11.4 0.4 7.2-6.6 13.5-13.7 12.3-6-0.6-10.9-6.2-10.9-12.3-0.1-5.1 3.7-9.6 8.3-11.4zm1 2.1c-4.4 1.6-7.9 6.4-7 11.3 1.1 5.8 7.9 9.7 13.4 7.7 4.1-1.3 6.7-5.5 6.6-9.7 0.1-6.3-6.9-11.6-13-9.3z"/><path class="b" d="m555.5 35.7c7.5-2.9 16.8 3.1 16.5 11.3 0.6 7.3-6.8 13.7-13.9 12.4-5.7-0.6-10.4-5.7-10.6-11.5-0.4-5.3 3.2-10.2 8-12.2zm1.9 1.8c-6.5 1.5-10.2 10.3-5.7 15.6 3.9 6.1 14.2 5.4 17.1-1.3 3.8-7.2-3.5-16.8-11.4-14.3z"/><path class="b" d="m593.5 35.5c6.4-1.9 13.6 2.2 15.3 8.7 2.4 7.7-4.8 16.5-12.9 15.3-6.7-0.4-12-6.9-11.1-13.6 0.6-4.8 4.1-8.9 8.7-10.4zm0.9 2.1c-7.6 1.9-10 13.1-3.5 17.7 5.8 5 16.1 0.4 16-7.3 0.7-6.6-6.2-12.1-12.5-10.4z"/><path class="b" d="m630.5 35.8c7.6-2.8 16.5 4.2 15.9 12.2 0 6.8-6.7 12.6-13.5 11.7-5.2-0.4-9.8-4.5-10.8-9.6-1.6-6.1 2.7-12.3 8.4-14.3zm-0.3 2.5c-3.7 1.6-6.5 5.5-6.2 9.7-0.1 6.4 7.2 11 13.1 9.1 5.8-1.4 8.8-8.9 5.9-14.1-2.1-4.6-8.2-6.9-12.8-4.7z"/><path class="b" d="m706.4 35.6c6.9-1.5 14.5 4.1 14.5 11.3 0.7 6.7-5 13.3-11.8 13-6.1 0.3-12.3-4.7-12.6-10.9-0.7-6.2 3.8-12.4 9.9-13.4zm-2 3.1c-6.7 2.9-7.6 13.3-1.4 17.3 5.7 4.5 15 0.2 15.6-6.9 1.4-7.4-7.6-14.2-14.2-10.4z"/><path class="b" d="m666.4 36.5c7.3-3.8 17.2 2.2 17.3 10.4 0.7 7-5.8 13.6-12.8 12.9-6.2 0-11.6-5.5-11.7-11.7-0.5-4.9 2.8-9.6 7.2-11.6zm0.9 1.9c-3.3 1.6-5.6 5-5.9 8.6-0.5 5.8 4.8 11.1 10.6 10.7 6.5 0.1 11.3-7.5 8.8-13.4-1.8-5.3-8.4-8.4-13.5-5.9z"/><path class="b" d="m53.6 68.8q20.2-0.2 40.5 0c2.3-0.4 1.8 2.2 2.4 3.6 3.1 0.2 6.4 0.1 9.5 0.7 0.2 1.8 0.2 3.6 0.2 5.4-0.9-0.1-2.5-0.3-3.3-0.3-0.3-0.7-1-2.1-1.3-2.7-0.6 10.3-0.3 20.7-0.3 31.1q0 2.4 0.1 4.7c0.4-0.4 1.1-1.4 1.5-1.9q1.7-0.1 3.3-0.2-0.2 2.8-0.5 5.6c-3 0-6.1 0-9.2-0.1q-0.5 2.9-1.2 5.7c-3.3 0.2-6.6 0.2-9.9 0.3q0.3 6.3 0.3 12.7c3.3-0.1 6.7-0.2 10 0.1 0 2 0.5 4.4-1.3 6-2.7 3.9-10.3 2.5-10.7-2.5-0.4-6.2-0.7-12.5 0.1-18.7-10 0.4-20.1 0.3-30.2 0.1q-0.2-1.9-0.3-3.7c-3.4 0-6.7 0.1-10.1 0q0-3 0.1-6c1.6 0.4 3.1 1 4.5 1.8q0-1.9 0-3.9c0-8.6 0-17.2-0.1-25.7q0-1.9 0.1-3.7c-1.3 0.6-2.5 1.7-4.1 1.4-0.6-1.9-0.3-3.8-0.3-5.8 3.2 0 6.5-0.2 9.7-0.3q0.3-1.9 0.5-3.7zm1.5 1.8q0 2.1 0 4.1-2.7 0-5.3 0c0 12.6-0.3 25.2 0 37.8q2.5 0 5 0.1 0.2 2 0.3 3.9c13.1 0.2 26.2 0.2 39.2 0 0.1-0.9 0.1-2.7 0.1-3.6q2.5-0.2 4.9-0.4c0.1-12.5 0.1-25.1 0.1-37.6q-2.6-0.1-5.1-0.3 0-2 0-3.9c-13.1-0.1-26.1 0-39.2-0.1zm30.6 65c0.8 1.4 1.3 3.5 3.3 3.3 1.9 0.5 4.5-1.1 3.8-3.3-2.4-0.2-4.7-0.1-7.1 0z"/><path class="b" d="m69.4 80.5c6.8-3.1 14.8 0.9 17.7 7.4 3.7 7.1-0.6 16.6-8.2 18.9-6.8 2.4-15.2-1.5-17.4-8.5-2.8-6.8 1.2-15.1 7.9-17.8z"/><path class="b" d="m104.3 120.7c0.1-0.5 0.2-1.6 0.3-2.1q5.4-0.1 10.9 0.1c0.6 5.6 0.4 11.2 0 16.8-3.3 0.2-6.6 0.3-9.9 0.1-0.3-0.5-0.9-1.5-1.2-2 3-0.3 6.1-0.2 9.2-0.2 0-4.2 0-8.4 0-12.7q-4.6 0.1-9.3 0z"/><path class="b" d="m68.2 123.7c3.2 0 6.5-0.5 9.6 0.5 4.5 2.1 4.1 9.2-0.1 11.6 1.2 1.5 2.4 3 3.4 4.7-0.2 1.7-1.9 1.1-2.8 0.3-1.4-1.4-2.4-3-3.6-4.6q-1.8-0.2-3.6-0.4 0 2.7 0 5.5c-0.7 0-2.1 0-2.8 0-0.1-5.9 0-11.7-0.1-17.6zm3 2.7c-0.5 2.3-0.3 4.6-0.4 6.8 1.7 0.1 3.5 0.2 5.2 0 1.9-0.9 2.9-3.3 2.1-5.2-1.6-2.2-4.6-1.7-6.9-1.6z"/><path class="b" d="m93.8 122.5c3.8 0.2 7.5 0.1 11.3 0q-0.1 4.4-0.2 8.8c-3.7-0.2-7.4-0.2-11.1 0.1q0-4.5 0-8.9z"/><path class="b" d="m52.9 123.7c3.5 0.1 7.3-0.9 10.5 0.9 2.9 1.8 2.4 5.7 1.8 8.6-1.7 3.5-6.2 3-9.5 2.7-0.3 2.3 1 6.3-2.8 5.7-0.1-6 0-12 0-17.9zm2.8 2.4q-0.1 3.7 0 7.3c2-0.1 4.2 0.4 6.1-0.4 1.4-1.7 1.7-4.5 0.1-6.2-2-0.7-4.1-0.5-6.2-0.7z"/><path class="b" d="m134.4 137.8c3.8-0.2 7.5-0.1 11.2-0.1 0 0.5 0 1.6 0 2.1-3.1 0-6.2 0-9.4 0 0.1 4.2 0.1 8.5 0.2 12.8 2.7 0 5.4 0 8 0.1-0.1 0.7-0.5 1.9-0.7 2.6-5 0.4-10 0-15.1 0.2 0.1 6.6 0 13.2 0.1 19.8 3.7 0 7.4-0.2 11.1 0.1 0.1 0.5 0.5 1.5 0.7 2-3.9 0.7-7.9 0.2-11.8 0.2 0 6.4-0.1 12.8 0.1 19.2 3.5 0 7.1 0.2 10.6 0.6q0.2 1.5 0.3 3c-3 0-6 0-9 0.1-0.1 4.1-0.1 8.2 0 12.3 3.2 0.1 6.4 0.1 9.5 0.4 0 0.8 0 2.3 0 3.1-3.2 0-6.4 0-9.6 0-0.1 4.2 0 8.3 0.1 12.5q4.5-0.1 9.1 0 0.2 1.8 0.4 3.6c-3.2 0.5-6.5 0.2-9.6 0.3q-0.1 6.3-0.1 12.6c3.3 0 6.6 0 9.9 0.2-0.4 0.5-1 1.5-1.4 1.9-3.4 0.3-6.8 0.2-10.3 0-0.9-7.8 0.4-15.6-0.1-23.4 0.5-8.2-0.5-16.5 0.3-24.8-0.6-0.1-1.8-0.4-2.5-0.5 0-15.1 0.1-30.1 0.2-45.1q3.9-0.2 7.8-0.2c-0.3-5.2-0.4-10.4 0-15.7z"/><path class="b" d="m155.8 137.7c3.6-0.1 7.3-0.1 10.9 0 0.9 5.1 0.4 10.3 0.4 15.5 0.4 0.5 1.2 1.4 1.7 1.9 0.1 8-0.1 16 0.1 23.9-0.3 6.6 0.7 13.1 0.2 19.6-2.8 0.2-5.6 0.1-8.4 0.1q0.7 7.8 0 15.6c0.5 5.4 0.7 10.9-0.2 16.2 0.7 5.6 1 11.3 0.1 16.9-3.4 0.4-6.9 0.2-10.3 0.1 0-0.5 0.1-1.7 0.1-2.2q4.2 0 8.4 0.1c-0.1-4.3 0-8.5 0.1-12.8q-4.7 0-9.3 0c0-0.9 0.1-2.8 0.1-3.7 3 0 6 0 9 0 0.1-4.2 0.1-8.4 0.2-12.5-3.1 0-6.2 0-9.3 0 0.1-0.8 0.3-2.2 0.4-3 2.7-1 5.8-0.3 8.7-0.5 0.2-4.2 0.1-8.3 0.2-12.4-2.8 0-5.7 0.1-8.5-0.1-0.1-0.6-0.4-1.6-0.5-2.1q3.8-0.3 7.7-0.1c0.3-0.4 0.8-1.2 1-1.6q4 0.1 8 0c0.1-6.3 0.1-12.6 0-18.9-3.8 0-7.5 0.2-11.3-0.1-0.2-0.5-0.7-1.6-0.9-2.1 4.1-0.2 8.2-0.1 12.2 0 0-6.6 0-13.2-0.1-19.7-3.6-0.1-7.1 0.1-10.7-0.1q-0.1-1.6-0.2-3.1c3.1 0 6.2 0.1 9.2 0 0.5-4.2 0.1-8.5 0-12.8q-4.7 0-9.3 0c0-0.5 0.2-1.6 0.3-2.1z"/><path class="b" d="m144.8 141.7c3.8-0.1 7.6 0 11.4-0.1q0 4.4 0 8.9-5.6-0.1-11.3 0 0-4.4-0.2-8.8z"/><path class="b" d="m179.4 157.4c3.6-0.2 7.3-0.4 10.9-0.1 0.3 0.5 0.9 1.5 1.2 2-3.3 0.1-6.7 0-10 0.1 0 4.3-0.1 8.5 0 12.7q4.5 0 9 0.1c-0.1 0.6-0.2 1.6-0.3 2.2-3.6 0.2-7.2 0-10.8-0.2-0.2-5.6-0.2-11.2 0-16.8z"/><path class="b" d="m200.1 157.3c3.8 0.1 7.7-0.6 11.4 0.3 0.4 5.3 0.4 10.7 0 16-3.3 1.7-7.3 0.5-10.8 0.8-0.1-0.6-0.1-1.7-0.2-2.2 3.1-0.1 6.1 0 9.1 0.1 0-4.4 0-8.7-0.1-13q-4.5 0.1-9.1 0.1c-0.1-0.5-0.2-1.6-0.3-2.1z"/><path class="b" d="m139.7 158.8c5.2 0.4 10.5 0.5 15.7 0 0.1 3.6 0 7.3 0.1 10.9 0.1 0.6 0.1 2 0.1 2.6q-8-0.1-16-0.1c0.1-4.4 0-8.9 0.1-13.4z"/><path class="b" d="m189.4 161.4c3.8 0.1 7.6 0.2 11.4 0q0 4.2 0 8.5c-3.8 0-7.6 0-11.5-0.1q0.1-4.2 0.1-8.4z"/><path class="b" d="m207.2 182.9q0-2 0.2-4c6-0.1 12-0.3 18 0 0.4 6.2 0.1 12.4 0.2 18.6q-0.1 4.1 0 8.3c0 5.6 0.1 11.1-0.1 16.7-6.1 0.3-12.2 0.2-18.2 0.1q-0.1-1.7-0.1-3.4-0.1-4.1-0.1-8.1c0.1-6.7 0-13.3 0-20q0-4.1 0.1-8.2z"/><path class="b" d="m139.9 179.4c5.2 0 10.3 0.1 15.5 0v0.3q0 6.5 0.1 13c-5.2-0.1-10.4-0.1-15.7 0 0.1-4.4 0.1-8.9 0.1-13.3z"/><path class="b" d="m169.6 184.2c0.7 0 2 0 2.6 0q2.8 0 5.6 0 2.7 0 5.4 0 3 0 6 0.1c0.5 0 1.4 0 1.9 0 0.2 8.1 0 16.1 0.1 24.2h-0.6c-7-0.2-14 0.1-21-0.2-0.1-8 0.3-16.1 0-24.1z"/><path class="b" d="m758.3 201.3c7.4-2.1 15.9 3.1 17.2 10.7 1.9 7.7-3.5 16.4-11.4 17.5-8.5 1.7-17.3-5.8-16.9-14.4-0.4-6.6 4.6-12.7 11.1-13.9zm-1 2.2c-8.1 2.4-10.7 13.5-5.5 19.8 4.5 6.2 14.9 6.1 19.5 0.1 4.7-5.5 3.2-14.9-2.9-18.8-3.3-1.8-7.5-2.7-11.1-1.1z"/><path class="b" d="m139.2 202.2c3.8 0.2 7.6 0.1 11.3 0.1q0 4.4 0.1 8.9-5.6 0-11.3 0-0.1-4.5-0.1-9z"/><path class="b" d="m139.3 218c3.7 0.2 7.5 0.2 11.3 0.1-0.1 2.9 0 5.7 0 8.6-3.8-0.1-7.5 0-11.3 0q0-4.3 0-8.7z"/><path class="b" d="m139 234.3c3.9 0.1 7.7 0.1 11.5 0q0 4.5 0.1 8.9-5.7 0-11.3 0-0.2-4.4-0.3-8.9z"/><path class="b" d="m210.9 259.2c4.5-0.1 9.1 0 13.7 0-0.1 4.9 0 9.8 0.1 14.7q-6.9 0.2-13.8 0.2 0-7.5 0-14.9z"/><path class="b" d="m230.8 264.5q4.4 0.1 8.8 0.2-0.1 5.2-0.1 10.4-4.4 0.1-8.7 0.1c-0.2-2.6-0.2-5.3-0.1-7.9 0-0.7 0.1-2.1 0.1-2.8z"/><path class="b" d="m123.9 267.5c3.4-0.2 6.9-0.1 10.4 0l-0.1 2.2q-4 0-8.1 0.1c0 5.6 0.1 11.3 0 17 4.4 0.1 8.9 0 13.3-0.1-0.3 0.6-0.8 1.8-1.1 2.4-4.1 0.3-8.3 0-12.4 0.1q-0.1 9.7-0.1 19.3c2.8 0.1 5.7 0.1 8.6 0.2 0 0.5 0.1 1.5 0.2 2-3.7 0-7.3 0.1-10.9-0.2-0.3-14.3 0.1-28.7 0.2-43z"/><path class="b" d="m206.4 274.5c0.6 0 1.7 0.1 2.2 0.1 0 4-0.1 8 0 12 6 0.1 12.1 0 18.1 0.1-0.1-4.1-0.1-8.2 0-12.3 0.6 0.1 1.8 0.5 2.3 0.7 0.3 3 0.2 6 0.2 9 4.2 0.1 8.5 0 12.7 0q-0.1-4.5-0.1-8.9l1.9 0.1c0.1 3.6 0.2 7.2-0.1 10.8-4.8 0.2-9.6 0-14.4 0.2-0.2 0.6-0.7 1.9-0.9 2.5-7.3-0.1-14.6 0.4-21.7-0.2-0.5-4.7-0.1-9.4-0.2-14.1z"/><path class="b" d="m51.8 291.5c3.8 0.3 8.8-1.4 11.6 2.1 2.5 3.3 1.2 8-2.3 10.1 1.5 1.8 3 3.7 3.9 5.9-5.1 0.8-5.3-6.8-10.5-6q0 2.9-0.1 5.9-1.4-0.1-2.7-0.1c0-6-0.1-11.9 0.1-17.9zm2.6 2.7q-0.1 3.3 0 6.7c2 0 4.3 0.8 6.1-0.5 2.2-1.3 1.8-5.1-0.6-5.9-1.8-0.4-3.7-0.3-5.5-0.3z"/><path class="b" d="m68.4 300.4c-3.7-3.2 0.1-9.6 4.6-9.2 3.2-0.3 6.3 1.8 6.8 5.1q-1.3 0-2.5 0.1c-1.6-3.6-8.8-2.8-7.4 1.6 3 1.8 7.7 0.8 9.4 4.5 1.8 3.5-1.4 7.7-5.2 7.4-3.3 0.4-7.8-1.8-6.7-5.7 2.4 1.2 4.6 3.7 7.6 2.9 1.9-0.5 1.9-2.6 2.2-4.2-2.9-1-6.2-0.7-8.8-2.5z"/><path class="b" d="m82.5 291.5c4-0.1 8.2-0.1 12.3 0q-0.1 1.3-0.1 2.6-2.4 0-4.9 0.1c0 5.1 0.1 10.2 0 15.3-0.6 0-1.8-0.1-2.4-0.1-0.2-5.1-0.1-10.2-0.2-15.3q-2.3 0-4.6 0.1-0.1-1.4-0.1-2.7z"/><path class="b" d="m136.9 291.6c5.2 0.1 10.4 0.1 15.7 0 0 4.5 0 8.9 0 13.3-5.2 0-10.5-0.1-15.8 0q0.1-6.6 0.1-13.3z"/><path class="b" d="m50.1 315.9c0.5-1.1 0.1-3.6 1.9-3.4 12.4-0.3 24.7 0.1 37-0.1 1.3 0.2 3-0.5 3.9 0.6 0.3 0.8 0.7 2.2 1 2.9 3.2 0 6.4-0.1 9.6 0.3q-0.1 3.1-0.2 6.1-2.5-0.7-4.5-2.4-0.2 2.4-0.2 4.8 0.1 12.4 0.1 24.9 0 2.3-0.1 4.6c1.4-1 2.8-2 4.4-2.4 0.6 1.9 0.5 4 0.5 6-3.2 0.1-6.4 0.1-9.7 0.1q-0.3 1.7-0.6 3.5c-13.4 0.3-26.9 0.1-40.3 0.2-2.4 0.6-2.1-2.3-2.7-3.8q-4.8 0.1-9.6 0-0.1-3.2 0.2-6.3c1.6 0.6 3.2 1.5 4.7 2.4q0-2.2-0.1-4.4c0-8.4 0-16.8-0.1-25.3q0-2.7-0.1-5.4c-0.5 0.7-1.4 2.2-1.8 2.9-0.7 0-1.9 0-2.6 0q-0.1-2.8-0.1-5.6c3.1-0.3 6.3-0.2 9.4-0.2zm2.3-1.6q0 1.9 0 3.8-2.6 0-5.1 0.1 0 18.8 0 37.6 2.5 0 5.1 0 0 1.9 0 3.9c13.1 0.1 26.2 0 39.3 0.1q0.1-2 0.2-4 2.4-0.1 4.8-0.1c0-12.5 0.1-24.9-0.1-37.3-1.6-0.2-3.3-0.2-4.9-0.8q-0.3-1.7-0.5-3.5c-13 0.3-25.9 0-38.8 0.2z"/><path class="b" d="m124.3 313.2c5.4-0.4 11-0.7 16.4 0 0.9 3.8 0.4 7.7 0.4 11.5-0.5-0.3-1.6-1-2.1-1.4 0-2.7 0.1-5.4 0.1-8.1-4.2-0.1-8.5 0-12.8-0.1 0 3.1 0 6.2-0.1 9.3-0.5 0.1-1.5 0.2-2 0.3-0.1-3.8-0.1-7.7 0.1-11.5z"/><path class="b" d="m68.5 323.5c7.1-2 15 2.8 16.9 9.9 2.4 7.6-3.4 16.4-11.3 17.3-7.7 1.5-15.9-4.7-16.1-12.7-0.7-6.6 4.1-12.9 10.5-14.5z"/><path class="b" d="m128.4 324.9q4.4-0.1 8.8-0.1 0.1 5.1 0.1 10.2-4.5 0.1-9 0.1 0.1-5.1 0.1-10.2z"/><path class="b" d="m176.2 324.9h0.7q6.2 0.2 12.3 0c6.4-0.1 12.7-0.1 19 0 3.7 0.1 7.3 0.1 10.9 0h1.1c0.1 6.2 0.9 12.7-0.2 18.8-5.7 0.5-11.4 0.1-17.1 0.2q-4.5 0-9 0c-5.9-0.1-11.8 0.1-17.8-0.1-0.4-6.3-0.4-12.6 0.1-18.9z"/><path class="b" d="m124.4 336c0.5 0.1 1.5 0.1 2 0.1q0 4.1 0 8.1c4.3 0 8.5 0.1 12.8 0.1 0.2-3.1-0.8-6.5 0.6-9.3 2.6 2.6 0.9 7.2 1.5 10.7-5.4 1.5-11.2 0.7-16.7 0.5-0.3-3.4-0.3-6.8-0.2-10.2z"/><path class="b" d="m183.2 360.1c2.7 0.3 6.1-0.7 8 1.7 1.5 1.9 1.2 4.7 0.4 6.9-1.6 3.1-5.6 2.1-8.4 2.5-0.1-3.7 0-7.4 0-11.1zm2.1 1.7c-0.1 2.6-0.1 5.2 0.1 7.8 1.4-0.5 3.4-0.2 4.3-1.7q0.4-2 0.2-4c-0.6-2-3-1.8-4.6-2.1z"/><path class="b" d="m210.7 360.2c1-1.5 3.4 0.5 2.2 1.8-1.1 1.4-3.4-0.4-2.2-1.8z"/><path class="b" d="m247.3 359.4c0.4 0.3 1.2 0.9 1.6 1.3 0.5 3.5-0.1 7-0.1 10.6-2.5-0.2-6.6 0.7-7.3-2.8-1-3.3 2-6.7 5.5-5.2 0.1-1 0.2-2.9 0.3-3.9zm-3.4 5.5c-0.3 1.4-1 3.7 0.5 4.6 3.6 1.5 3.3-7.1-0.5-4.6z"/><path class="b" d="m255.9 362.8c1.1-1.4 2.6-3.1 4.6-2.2 1.9 0.5 2.1 2.6 1.7 4.3-1.3-1.2-2.4-2.6-4.1-3.2 0.6 2 1.9 3.7 3.2 5.4q1.1-0.6 2.2-1.2 0.6 2.4 1.1 4.8c-3 0-6.9 1.9-9.1-1-1.5-1.7 0.6-3.6 1.6-4.9-0.3-0.5-0.9-1.5-1.2-2zm1 6.2c1.2 0.7 2.5 0.6 3.9 0.7q-1.1-2-2.4-3.8c-0.5 1-1.1 2-1.5 3.1z"/><path class="b" d="m270.4 371.2c0.1-3.5 0-7 0.1-10.5 2.8-0.1 8.1-0.9 7.9 3.3 0.3 3.2-3.5 3.5-5.8 3.5q0 1.9 0 3.9c-0.6 0-1.7-0.1-2.2-0.2zm2.2-8.9q0 1.7 0 3.4 1.8-0.2 3.6-0.4 0-1.3 0-2.6-1.8-0.2-3.6-0.4z"/><path class="b" d="m202.3 366.7c-1.6-4.3 5.7-5.3 6.9-1.6-2-0.2-4-0.8-6-0.2 2 1.4 5.5 1.3 6 4.1-1.6 3.3-6.5 3-8-0.2q3.2 0.7 6.4 0.7c-1.4-1.6-3.6-1.8-5.3-2.8z"/><path class="b" d="m196 371c-4.3-1.1-2.6-9.5 2.1-8 2.3 0.3 2.5 2.9 3.1 4.7-2 0.1-4.1 0.1-6.2 0.3 1.6 2.1 4 1.3 6.2 1.2-1.4 1.4-3.2 2.9-5.2 1.8zm0-6.1c-1.1 1.5 1.7 2.3 2.5 1.3 1-1.5-1.6-2.4-2.5-1.3z"/><path class="b" d="m210.7 363.2c0.5 0 1.5 0 2 0 0 2.4 0.2 4.9 0 7.4-0.5 0.2-1.5 0.5-2 0.8 0-2.8 0-5.5 0-8.2z"/><path class="b" d="m215 365c1.1-3.1 4.8-1.4 7.3-1.7-0.1 2.9 0.1 5.8-0.2 8.7-1.4 3.4-7 2.7-7.9-0.8 1.7 0.3 3.3 1 4.9 1.2 0.4-0.5 1.2-1.7 1.5-2.2-0.8 0.2-2.3 0.8-3.1 1.1-2.3-1.1-3.8-3.8-2.5-6.3zm2.7-0.9c-0.7 1.8-1.9 4.3 0.5 5.5 3.1-1 2.1-4.7-0.5-5.5z"/><path class="b" d="m224.1 363.4c1.9 0 3.8-0.3 5.8-0.2 1.1 1.1 2 2.5 3 3.7-0.3-3 3.4-5.1 5.7-3.3 1.4 0.8 1.3 2.6 1.9 3.9-2 0.2-4.1 0.3-6.2 0.5 1.5 2.3 4.1 1.2 6.4 1-1.7 2.5-4.8 2.9-7 1q-0.9-2-2-3.9c-0.6 1.8 0.2 4.8-2.2 5.5-0.2-2.4-0.3-4.8-0.3-7.1-4.1-0.2-2.8 3.8-3 6.4-0.5 0-1.5 0.1-2 0.1 0-2.6 0-5.1-0.1-7.6zm11.3 2.7c0.8 0.9 3.3 0.2 2.3-1.2-0.8-1-3.2-0.1-2.3 1.2z"/><path class="b" d="m280.2 363.2c1.9 0.2 3.7 0.2 5.6 0.4q-1.6 1.3-3.2 2.5c-0.4 2.1 0.3 4.6-1.8 5.9-0.7-2.9-0.5-5.9-0.6-8.8z"/><path class="b" d="m288.3 363.4c2.3-0.9 5.5 0.9 5.5 3.5 0.6 3.4-3.9 5.8-6.4 3.6-2.8-1.6-2-6.2 0.9-7.1zm0 2.1c-1.6 1.4-0.1 5.1 2.3 4.1 2.8-1.3 0.2-6.7-2.3-4.1z"/><path class="b" d="m60.8 374.7c8.1-0.1 16.3-0.1 24.4 0q0.2 12.1 0 24.2c-8.1 0.3-16.2 0.4-24.4-0.1q-0.2-12 0-24.1zm2.1 1.9c-0.1 6.7-0.2 13.5 0.1 20.3 6.7 0.4 13.5 0.3 20.2 0 0.1-6.8 0.1-13.5 0-20.3-6.8 0.1-13.6-0.1-20.3 0z"/><path class="b" d="m106.4 375.5c6.7-2.3 14.7 2.4 15.7 9.5 1.4 7.5-5.6 15.1-13.3 13.7-6.8-0.2-12-7.2-10.8-13.8 0.6-4.4 4.2-8.1 8.4-9.4zm0.9 2c-7.1 1.6-9.6 11.5-4.2 16.4 5 5.6 15.7 2.5 16.7-5 1.5-6.9-5.7-13.5-12.5-11.4z"/><path class="b" d="m143.5 375.7c4.9-1.6 10.4 0.2 13.6 4.2 3.8 4.7 2.8 12.4-1.8 16.3-5.4 4.8-15.1 3.3-18.5-3.2-3.9-6.1-0.3-15.3 6.7-17.3zm0.9 1.9c-4.1 1.2-6.9 5.2-6.9 9.5-0.3 5.1 4.3 9.8 9.5 9.8 6.4 0.7 12.1-6.6 9.8-12.7-1.6-5-7.4-8.2-12.4-6.6z"/><path class="b" d="m182.5 375.7c7.2-2.1 15.5 3.7 15.4 11.3 0.7 7.8-7.8 13.9-15.1 11.8-6.5-1.2-10.7-8.7-8.6-14.9 1.1-3.9 4.4-7.1 8.3-8.2zm-1.1 2.8c-6.5 2.8-7.5 12.8-1.5 16.7 6.1 5.1 16.5-0.2 15.8-8.2 0.3-7-8.3-11.7-14.3-8.5z"/><path class="b" d="m257.6 375.8c7.1-2 14.8 3.9 14.9 11.2 0.6 8.1-8.7 14.9-16.3 11.8-6.4-2.2-9.9-10.3-6.8-16.4 1.6-3.3 4.6-5.8 8.2-6.7zm-1.3 2.8c-7.6 2.9-7.5 15 0.1 17.9 7 4 15.8-4 13.6-11.4-1.5-5.7-8.3-9.1-13.7-6.5z"/><path class="b" d="m217.5 376.7c6.8-3.7 16.3 0.5 17.5 8.3 1.8 7.5-5.4 15.2-13 14.3-5.7-0.6-10.7-5.4-10.8-11.2-0.6-4.7 2.1-9.4 6.3-11.4zm1.8 1.6c-2.7 1.3-5.1 3.7-5.7 6.8-1.2 4.7 1.7 10 6.4 11.5 6.1 2.6 13.5-3.1 12.9-9.7 0.2-6.6-7.7-11.4-13.6-8.6z"/><path class="b" d="m293.3 376.5c7.1-3.2 16.2 2.6 16.4 10.4 1 7-5.8 13.2-12.7 12.6-5.9-0.4-11.5-5.4-11.4-11.5-0.3-5 3-9.9 7.7-11.5zm1.9 1.7c-7.3 1.5-10 12-4.1 16.6 5.1 5.1 14.9 2.3 16.2-4.8 2.2-7-5.3-14.1-12.1-11.8z"/><path class="b" d="m330.4 376.7c6.5-3 15.1 1.2 16.5 8.3 1.7 6.5-3.2 13.8-10 14.5-6.8 1.3-13.9-4.5-13.8-11.5-0.5-4.9 2.9-9.5 7.3-11.3zm1.1 1.9c-3.4 1.4-6.1 4.7-6.2 8.5-0.4 5.7 4.9 11 10.6 10.4 4.8-0.3 8.9-4.6 9-9.5 0.4-6.6-7.3-12.4-13.4-9.4z"/><path class="b" d="m367.6 376.8c6.5-3 14.8 1.2 16.5 8.1 2.2 7-3.9 14.7-11 14.8-6.6 0.7-13-5.1-12.9-11.7-0.1-4.8 3-9.3 7.4-11.2zm1.8 1.6c-5.5 1.4-8.7 8.3-6 13.4 1.8 3.4 5.5 6.2 9.6 5.9 6.3-0.1 11.2-7.5 8.5-13.3-1.8-4.8-7.3-7.4-12.1-6z"/><path class="b" d="m592 375.9c7-1.8 14.9 3.7 14.9 11 0.8 7.5-6.7 13.9-13.9 12.4-5.2-0.5-8.7-5.1-10.2-9.8 0.5 0 1.4-0.2 1.9-0.2 2 5.1 7.5 9.6 13.2 7.7 6.6-1.7 9.3-10.6 4.8-15.6-2.7-3.7-7.7-3.6-11.8-4 0.3-0.3 0.9-1.1 1.1-1.5z"/><path class="b" d="m629.2 376.2c6.2-1.7 13.5 2.4 14.8 8.8 1.4 5.6-1.9 11.8-7.2 13.8-6.9 3-16.1-2.1-16.6-9.7-0.8-5.8 3.2-11.7 9-12.9zm0 2.1c-7.4 1.9-9.2 13.1-2.8 17.3 5.3 4.2 14.1 1.2 15.4-5.5 2.2-7.1-5.7-14.3-12.6-11.8z"/><path class="b" d="m665.4 376.5c5.5-2.2 12.4 0.5 14.9 5.9 2.4 4.7 1.3 10.8-2.6 14.2-5.3 4.9-14.9 3.6-18.6-2.7-4-6.1-0.9-15.4 6.3-17.4zm0.9 1.9c-6.8 1.9-9 11.5-3.8 16.1 4.6 5.3 14.3 3.2 16.3-3.5 2.8-7.3-5.2-15.5-12.5-12.6z"/><path class="b" d="m705 375.9c6.9-0.9 14.4 4.9 13.7 12.2 0.1 6.6-6.2 12.4-12.8 11.6-7.2 0-13-7.8-11-14.8 1.1-4.7 5.3-8.5 10.1-8.9zm-1.6 2.5c-6.7 2.1-9 11.9-3.4 16.4 4.8 5.1 14.2 2.7 16.1-4 2.7-7.3-5.4-15.1-12.7-12.4z"/><path class="c" d="m64.4 35.5c7-0.1 14 0.1 21 0-0.1 6.8 0 13.6 0 20.4-7-0.1-14 0.1-21-0.1 0-6.8 0.1-13.5 0-20.3zm5.9 5.8c-3.1 2.9-1.8 8.7 2 10.2 2.5 0.6 5-0.2 7.4-0.6 0.8-2.8 1.9-6.1 0.3-8.8-2.2-3-7.2-3.5-9.7-0.8z"/><path class="c" d="m109.4 36.6c6.6-2.8 14.3 3.5 13.3 10.4-0.2 7.3-9.4 11.8-15.3 7.6-7.1-4-5.8-15.7 2-18zm0 4.9c-2.5 1.7-2.5 5.2-1.8 7.8 1 2.1 3.6 2.5 5.5 3.5 2.4-1.6 6.1-3.4 5.5-6.9-0.1-4.3-5.8-7.4-9.2-4.4z"/><path class="c" d="m147.4 36.5c6.4-1.8 13.3 3.9 12.6 10.6-0.2 7.9-11.1 12.4-16.6 6.5-5.7-4.8-3.2-15.2 4-17.1zm0 4.1c-3.5 1.4-3.8 5.8-2.8 9 1.4 1.7 3.6 3.1 5.9 2.8 2.9-0.7 5.8-3.2 5.3-6.4 0.5-4.4-4.8-6.9-8.4-5.4z"/><path class="c" d="m185.3 36.5c7.8-2.1 14.8 7.1 11.1 14.1-2.7 6.7-12.8 7.7-17 1.9-4.9-5.4-0.9-14.6 5.9-16zm-1.1 4.6c-4.3 2.3-3.4 9 0.7 11 4.8 2.5 10.2-3.7 7.7-8.2-0.8-3.6-5.6-4.2-8.4-2.8z"/><path class="c" d="m222.4 36.5c8.1-2.3 15.5 7.9 11 15-3.4 6.9-14.4 6.4-17.7-0.4-3.3-5.6 0.6-13.2 6.7-14.6zm-1 5.1c-3.7 2-3.8 8 0 10.1 3.9 3 9.9-1.2 9.1-5.8-0.1-4.3-5.7-6.8-9.1-4.3z"/><path class="c" d="m258.2 37.2c6.4-3 14.3 2.9 13.6 9.8-0.1 7.5-9.6 12.4-15.6 7.8-6.4-4.1-5-14.8 2-17.6zm1 4c-4.3 1.6-4.5 9.3-0.1 11 3.9 1.9 9.3-1.7 8.6-6.2-0.1-4-5-6.9-8.5-4.8z"/><path class="c" d="m295.4 37.4c4.8-2.2 11.2 0.4 12.9 5.5 2.1 4.6-0.2 10.6-4.7 12.8-4.9 2.5-11.5 0.2-13.8-4.8-2.6-5 0.5-11.5 5.6-13.5zm-1.9 6.4c-0.4 1.8-0.3 3.7-0.3 5.5 1.8 1.8 3.9 4.2 6.8 3.4 4.6-0.6 6.1-6.9 3.5-10.3-2.8-2.9-8.1-2.2-10 1.4z"/><path class="c" d="m332.4 37.4c4.8-2.4 11.1 0.3 13.1 5.2 2.5 5-0.2 11.6-5.4 13.6-5.1 2-11.6-0.9-13.3-6.2-1.8-4.8 1-10.5 5.6-12.6zm-1.4 6.7c-2.3 4.1 1.2 8.2 4.9 9.7 1.9-1 3.9-1.8 5.4-3.5 2.1-2.5 1.1-6.6-1.4-8.5-3.1-1.2-7.4-1.1-8.9 2.3z"/><path class="c" d="m370.3 37.3c7-3 14.8 4.5 13 11.6-1.1 6.7-9.9 10.4-15.3 6.2-6.7-4.2-5-15.3 2.3-17.8zm-2.1 6.9c-0.9 2.7-0.7 6.7 2.4 8.1 4.3 3 10.6-2.5 8.5-7.3-0.6-2.4-3-3.6-5-4.7-2 1-5 1.4-5.9 3.9z"/><path class="c" d="m408.2 37.3c7.7-2.7 15.3 6.4 11.8 13.7-2.5 7.4-13.6 7.9-17.6 1.6-4.3-5.4-0.5-13.7 5.8-15.3zm-0.5 4.4c-2.9 1.3-2.9 4.8-3.3 7.4 2 1.9 4.2 3.6 6.7 4.8 1.7-1.2 3.7-2.2 5-3.9 0.7-2.4 0.9-5.3-0.8-7.3-2-1.9-5.2-1.8-7.6-1z"/><path class="c" d="m445.2 37.2c4.9-1.7 10.5 1.5 12.2 6.3 2.2 5-0.8 11.4-5.9 13.1-5.8 2-13-2.3-13.4-8.5-0.5-4.7 2.6-9.4 7.1-10.9zm0.3 4.4c-4.2 1.7-4.6 8.4-0.7 10.7 3.6 3.2 9.4-0.9 9-5.3 0.6-4.3-4.7-7-8.3-5.4z"/><path class="c" d="m482.3 37.5c6.9-2.5 14.4 4.5 12.8 11.5-1 6.9-10 10.7-15.5 6.3-6.8-4.2-4.7-15.6 2.7-17.8zm-1.9 5c-0.5 2.7-1.7 5.7 0 8.2 1.7 2.4 5.6 3.8 8 1.6 3.4-2.3 3.4-8.3-0.1-10.6-2.6-1.1-5.3 0.1-7.9 0.8z"/><path class="c" d="m519.4 37.7c6.1-2.3 13.1 3 13 9.3 0.1 4.2-2.5 8.4-6.6 9.7-5.5 2-12.3-1.9-13.4-7.7-0.9-4.9 2.6-9.7 7-11.3zm0.5 3.9c-3.8 1.4-5.1 7.6-1.4 9.9 1.7 1.4 4.2 2.8 6.3 1.4 3.6-1.7 4.6-6.9 2.2-9.9-1.9-1.7-4.7-2.1-7.1-1.4z"/><path class="c" d="m557.4 37.5c7.9-2.5 15.2 7.1 11.4 14.3-2.9 6.7-13.2 7.4-17.1 1.3-4.5-5.3-0.8-14.1 5.7-15.6zm-1.1 4.9c-3.1 2.2-3.7 7.4-0.4 9.7 3.6 3.9 10.4-0.1 9.7-5.1 0.1-4.4-5.8-7.2-9.3-4.6z"/><path class="c" d="m594.4 37.6c6.3-1.7 13.2 3.8 12.5 10.4 0.1 7.7-10.2 12.3-16 7.3-6.5-4.6-4.1-15.8 3.5-17.7zm-1 5c-3.5 2.5-2.8 9.5 1.6 10.5 4.3 2.1 8.9-2.9 7.7-7.1-0.6-4.2-6.1-5.7-9.3-3.4z"/><path class="c" d="m630.2 38.3c4.6-2.2 10.7 0.1 12.8 4.7 2.8 5.2-0.1 12.7-5.9 14.1-5.9 1.9-13.2-2.7-13.1-9.1-0.3-4.2 2.5-8.1 6.2-9.7zm1.1 4c-4 1.7-4.2 7.8-0.6 10.1 3.4 3.4 9.4 0.1 9.4-4.4 0.7-4.5-5.1-7.9-8.8-5.7z"/><path class="c" d="m667.3 38.4c5.1-2.5 11.7 0.6 13.5 5.9 2.5 5.9-2.3 13.5-8.8 13.4-5.8 0.4-11.1-4.9-10.6-10.7 0.3-3.6 2.6-7 5.9-8.6zm1 4.1c-4.1 2.1-3.9 8.9 0.5 10.6 4.6 2.8 10.6-3.2 7.9-7.8-1.3-3.1-5.5-4.7-8.4-2.8z"/><path class="c" d="m704.4 38.7c6.6-3.8 15.6 3 14.2 10.4-0.6 7.1-9.9 11.4-15.6 6.9-6.2-4-5.3-14.4 1.4-17.3zm0.2 3.9c-0.9 2.3-2.9 4.8-1.4 7.3 1.3 4.2 7.9 5.4 10.1 1.4 2.3-2.5 1.3-6.5-1-8.6-2.3-1.8-5.2-0.3-7.7-0.1z"/><path class="c" d="m182.3 71.5c8-1.8 16.8-0.2 23.6 4.5 8 5.3 13.5 14.4 14.2 24 0.9 13.6-7.9 27.3-21 31.5-8.7 2.9-18.8 2.1-26.6-2.9-9.9-6.1-16.1-17.9-14.9-29.5 1-13.4 11.7-25 24.7-27.6zm-15.1 30.6c-0.8 13.2 13 23.9 25.7 21.3 8.6-2 16.2-9.3 17.3-18.4 1.1-5.6-1.3-11-3.8-16-4.6 7.1-8.3 14.7-13 21.7q-2.1 0-4.2 0c-0.2-1.5-1.4-3.1-0.6-4.6 2.1-4.3 4.7-8.3 7.1-12.4 1.7-3.1 4.2-5.9 5.1-9.4-2-1.7-4.5-2.6-6.9-3.3-12.8-3.7-27.9 7.4-26.7 21.1z"/><path class="c" d="m266.1 89c8.6-3.6 19.2-1.5 25.8 5.1 3.4 3.4 5.1 8.1 6.7 12.6 0.2 2.8 0.3 5.6-0.1 8.3-1.9 5.1-4.3 10.4-8.8 13.7-5.7 4.7-13.6 6.1-20.6 4.4-10.1-2.6-17.4-12.8-17.3-23.1 0.2-9 6.1-17.4 14.3-21zm5.4 6.6c-10.1 1.7-14.5 14.9-9.2 23 4.3 8 16.4 9.8 22.9 3.6 6.9-5.5 7.4-17.2 0.5-22.9-3.6-3.9-9.2-4.5-14.2-3.7z"/><path class="c" d="m701.4 87.8c5.1-0.4 10.5-0.8 15.3 1.5 8 3.1 13.5 11.2 14 19.7 0.6 8.2-3.4 16.7-10.4 21.1-5.3 3.7-12 3.9-18.2 3.4-0.2-2.4-0.5-4.9 0.1-7.2 2.1-1.2 4.6-0.4 6.9-0.6 3.6 0.2 6.8-1.9 9.3-4.2 6.4-6.2 5.5-18-1.7-23.2-4.2-3.8-10.2-2.9-15.3-2.6q-0.1-4 0-7.9z"/><path class="c" d="m747.6 185.3c9-0.2 18 0.1 27.1-0.1q-0.1 5.5-0.1 11c-9-0.2-17.9 0.1-26.9-0.2q0-5.4-0.1-10.7z"/><path class="c" d="m744.8 198.3c11.3 0 22.7-0.3 34-0.2-0.6 11.4 0 22.9-0.3 34.3-11.2 0.1-22.4 0-33.6-0.2-0.1-11.3 0.1-22.6-0.1-33.9zm13.5 2.9c-6.5 1.2-11.5 7.3-11.1 13.9-0.4 8.6 8.4 16.1 16.9 14.4 7.9-1.1 13.3-9.8 11.4-17.5-1.3-7.6-9.8-12.8-17.2-10.8z"/><path class="c" d="m757.3 203.4c3.6-1.6 7.8-0.7 11.1 1.1 6.1 3.9 7.6 13.3 2.9 18.8-4.6 6-15 6.1-19.5-0.1-5.2-6.3-2.6-17.4 5.5-19.8zm-0.1 9.8c-0.3 3.4 1.9 5.8 5 6.6q1.7-1.4 3.3-2.7 0-2.7 0-5.4c-1.5-0.4-2.9-0.9-4.4-1.1-1.5 0.6-2.7 1.7-3.9 2.6z"/><path class="c" d="m760.1 212.2c1.8 0.4 3.4 1.1 4.8 2.4-0.6 0.8-1.6 2.4-2.1 3.3q-2.4-1-4.5-2.4c0.4-0.8 1.3-2.4 1.8-3.3z"/><path class="c" d="m744.8 234.4c9.9-0.1 19.9-0.1 29.8 0q0.1 5.2 0.1 10.4c-8.9 0-17.9 0-26.8 0.3q-0.1-5.2-0.1-10.4c-0.8-0.1-2.3-0.2-3-0.3z"/><path class="c" d="m137.2 271.9c4.9-0.2 9.7-0.3 14.6 0q-0.1 5.8-0.2 11.7c-4.3 0.1-8.6 0.5-12.8-0.1-2.6-1.7-1.1-5.1-0.9-7.6q-0.3-2-0.7-4z"/><path class="c" d="m701.4 298.8c4.5-0.3 9.3-0.6 13.5 1.5 8.9 3.5 15.3 12.9 14.7 22.6 0 7.9-4.6 15.3-11.3 19.3-5 3.2-11.2 3.2-16.9 3.1q0-3.9 0.1-7.8c5.4 0.1 11.6-0.1 15.5-4.5 6.6-6 6.2-17.7-1-23-4-3.6-9.5-3.7-14.5-3.5q-0.1-3.9-0.1-7.7z"/><path class="c" d="m269.2 299c5.2-1.2 10.9-0.4 15.6 2.2 7.1 3.4 11.7 11 12.3 18.7 0.9 8.2-3 16.7-9.7 21.5-6.3 4.3-14.8 5.3-21.9 2.3-10.2-4.2-16.7-16.2-13.9-27.1 1.8-8.6 9-15.7 17.6-17.6zm2.3 7.6c-8.1 1.4-14.2 9.7-12.5 17.8 1.3 8.5 10.6 15.2 19 12.5 8.2-1.9 13.4-11.3 11-19.3-1.9-7.4-10.1-12.4-17.5-11z"/><path class="c" d="m576.6 364.1c13.8 0 27.6 0.3 41.4-0.1 26.3 0.1 52.7 0 79 0q2 0 3.8 0.4c-3.9 0.8-7.9 0.4-11.8 0.5-12-0.1-24 0.4-36-0.5-11.7-0.2-23.3 0.9-35 0.5-6.8-0.5-13.1 2.5-19.1 5.1-2.9 1.2-5.2 3.3-6.9 5.9-0.2 0.3-0.8 1.1-1.1 1.5 4.1 0.4 9.1 0.3 11.8 4 4.5 5 1.8 13.9-4.8 15.6-5.7 1.9-11.2-2.6-13.2-7.7-0.5 0-1.4 0.2-1.9 0.2q-3 0.5-6 1c-0.4-8.8-0.2-17.6-0.2-26.4zm12.7 20.3c-0.5 3.6 0.5 7.1 3.5 9.4 1.8-0.4 3.8-0.6 5.6-1.4 4-2.4 2.9-9.5-1.7-10.6-2.8-1.1-5.2 1.2-7.4 2.6z"/><path class="c" d="m391.6 366.1c9.7-0.6 19.5-0.3 29.3-0.4 0.4 8.5 0.1 17 0.2 25.5-3.3 0.6-4.4 4.3-7.4 5.4-5.9 3.3-14.3-1.8-14-8.6-0.3-4.1 2.7-7.2 5.3-9.9-0.3-0.3-0.7-0.9-1-1.1-2.6-3.2-5.8-6.4-10-7q-1.2-2-2.4-4zm13.9 26.5c2.9 2.5 7.1 1.1 9.8-0.8-2.2-0.8-4.8-0.9-6.8-2.2-1.3-1.7-1.2-4-1.8-5.9-3.5 1.5-4.1 6.5-1.2 8.9z"/><path class="c" d="m62.9 376.6c6.7-0.1 13.5 0.1 20.3 0 0.1 6.8 0.1 13.5 0 20.3-6.7 0.3-13.5 0.4-20.2 0-0.3-6.8-0.2-13.6-0.1-20.3zm6.8 5.1c-5.9 2.9-2.1 13.2 4.3 11.4 4.5-0.5 7.3-6.7 4-10-2.1-2.4-5.6-2.3-8.3-1.4z"/><path class="c" d="m107.3 377.5c6.8-2.1 14 4.5 12.5 11.4-1 7.5-11.7 10.6-16.7 5-5.4-4.9-2.9-14.8 4.2-16.4zm-0.7 3.9c-0.9 1.5-2 2.8-2.4 4.5-0.6 3.8 2.9 7.8 6.8 6.9 4.6-0.1 6.8-6.3 3.8-9.5-1.9-2.7-5.4-1.9-8.2-1.9z"/><path class="c" d="m144.4 377.6c5-1.6 10.8 1.6 12.4 6.6 2.3 6.1-3.4 13.4-9.8 12.7-5.2 0-9.8-4.7-9.5-9.8 0-4.3 2.8-8.3 6.9-9.5zm-3.2 7.3c0.4 2.7 0.6 6.1 3.4 7.4 2.8 0.9 7 0.8 8.1-2.6 2.4-3.8-1.4-9.1-5.8-8.4-2.4-0.1-3.9 2.3-5.7 3.6z"/><path class="c" d="m181.4 378.5c6-3.2 14.6 1.5 14.3 8.5 0.7 8-9.7 13.3-15.8 8.2-6-3.9-5-13.9 1.5-16.7zm1 4c-3.7 2.3-3 9.6 1.5 10.5 4.4 1.9 9.4-3.4 7.7-7.7-1.4-3.4-6.2-5.1-9.2-2.8z"/><path class="c" d="m219.3 378.3c5.9-2.8 13.8 2 13.6 8.6 0.6 6.6-6.8 12.3-12.9 9.7-4.7-1.5-7.6-6.8-6.4-11.5 0.6-3.1 3-5.5 5.7-6.8zm-1.7 6.5c-1.1 2.8 0.6 5.4 1.8 7.8 2.1 0.3 4.3 0.9 6.3 0 2.7-0.5 3-3.6 4-5.7-1.1-1.7-1.8-3.9-3.6-5-3-1.3-7.3-0.5-8.5 2.9z"/><path class="c" d="m256.3 378.5c5.4-2.6 12.3 0.8 13.7 6.5 2.2 7.4-6.6 15.4-13.6 11.4-7.6-2.9-7.7-15-0.1-17.9zm1.1 3.9c-4.5 2.3-3.2 9.7 1.5 10.8 3.4 1.2 6.6-1.6 7.6-4.6 1-4.8-5-9.3-9.1-6.2z"/><path class="c" d="m295.2 378.2c6.8-2.3 14.3 4.8 12.1 11.8-1.3 7.1-11.1 9.9-16.2 4.8-5.9-4.6-3.2-15.1 4.1-16.6zm-0.7 4.4c-2.6 1.6-3.8 5.4-2 8 2 4.2 8.9 4 10.6-0.3 3.2-5.1-4-11-8.6-7.7z"/><path class="c" d="m331.5 378.6c6.1-3 13.8 2.8 13.4 9.4-0.1 4.8-4.2 9.2-9 9.5-5.7 0.6-11-4.8-10.6-10.4 0.1-3.8 2.8-7.1 6.2-8.5zm-2.3 9.3c0 2.2 1.6 3.9 2.6 5.7 2-0.1 4.1 0.1 6.1-0.5 3.9-1.7 4-8.2 0.5-10.4-3.6-2.7-9.8 0.7-9.2 5.2z"/><path class="c" d="m369.4 378.4c4.9-1.4 10.3 1.2 12.1 6 2.7 5.8-2.2 13.2-8.5 13.3-4.1 0.3-7.8-2.4-9.6-5.9-2.7-5.1 0.5-12 6-13.4zm0.9 4c-4.5 1.3-4.9 8-1.2 10.5 3.1 1.7 7.9 0.9 9-2.9 2-4.6-3.3-9.3-7.8-7.6z"/><path class="c" d="m629.2 378.3c6.9-2.5 14.8 4.7 12.6 11.8-1.3 6.7-10.1 9.7-15.4 5.5-6.4-4.2-4.6-15.4 2.8-17.3zm0.2 4.2c-4 1.8-4.3 8.4-0.4 10.5 3.4 1.6 8.2 0 9-3.9 1.8-4.8-4.4-9.4-8.6-6.6z"/><path class="c" d="m666.3 378.4c7.3-2.9 15.3 5.3 12.5 12.6-2 6.7-11.7 8.8-16.3 3.5-5.2-4.6-2.9-14.2 3.8-16.1zm0.1 4.1c-4.3 2-3.9 9.1 0.6 10.4 3.9 2 8.9-1.4 8.4-5.7-0.2-4.2-5.4-7-9-4.7z"/><path class="c" d="m703.4 378.5c7.3-2.7 15.4 5.1 12.7 12.4-1.9 6.7-11.3 9.1-16.1 4-5.6-4.5-3.3-14.3 3.4-16.4zm0.2 4.2c-3 1.8-4.1 6.6-1.3 9 3.1 4 10.7 1.6 10.3-3.7 0.6-4.7-5.2-7.3-9-5.3z"/><path class="c" d="m512.6 392.8c5.8-0.2 11.6-0.1 17.4-0.1-2.5 2.3-5.4 4.8-9 4.7-3.5 0.3-6.3-2.1-8.4-4.6z"/><path class="c" d="m548.8 392.6c6.1-0.1 12.2-0.3 18.4-0.1-2.3 2.3-4.8 5-8.3 5-4.1 0.4-7.5-2.1-10.1-4.9z"/><path class="c" d="m438 393.3c5.8 0 11.6-0.1 17.4 0-2.3 2.1-5 4.4-8.4 4.3-3.5 0.1-6.4-2.1-9-4.3z"/><path class="c" d="m475.3 393c5.7-0.3 11.4-0.2 17.2-0.1-2.1 2-4.4 4.5-7.5 4.5-3.8 0.5-7.4-1.5-9.7-4.4z"/><path class="d" d="m55.1 70.6c13.1 0.1 26.1 0 39.2 0.1q0 1.9 0 3.9 2.5 0.2 5.1 0.3c0 12.5 0 25.1-0.1 37.6q-2.4 0.2-4.9 0.4c0 0.9 0 2.7-0.1 3.6-13 0.2-26.1 0.2-39.2 0q-0.1-1.9-0.3-3.9-2.5-0.1-4.9-0.1c-0.4-12.6 0-25.2-0.1-37.8q2.6 0 5.3 0 0-2 0-4.1zm14.3 9.9c-6.7 2.7-10.7 11-7.9 17.8 2.2 7 10.6 10.9 17.4 8.5 7.6-2.3 11.9-11.8 8.2-18.9-2.9-6.5-10.9-10.5-17.7-7.4z"/><path class="d" d="m101.3 106.6c0-10.4-0.3-20.8 0.3-31.1 0.3 0.6 1 2 1.3 2.7 0.8 0 2.4 0.2 3.3 0.3-1.4 0.1-2.9 0.1-4.2 0.6 0.1 0.4 0.3 1.2 0.4 1.5 6.4 0.8 12.9 0.1 19.4 0.4 0.1 8.5 0.2 17.1 0 25.6-6.8 0-13.7 0-20.5 0z"/><path class="d" d="m27.2 81c6.8-0.2 13.7 0 20.6-0.1 0 8.5 0 17.1 0 25.7-6.9-0.1-13.8 0-20.6-0.2-0.1-8.4-0.2-16.9 0-25.4z"/><path class="d" d="m88 122c2 0.2 3.9 0.3 5.8 0.5q0 4.4 0 8.9-3 0.3-5.9 0.4c0.1-3.2 0.1-6.5 0.1-9.8z"/><path class="d" d="m105.1 122.5q3.1-0.2 6.2-0.4c-0.5 3.1-0.6 6.3-0.5 9.5q-3-0.1-5.9-0.3 0.1-4.4 0.2-8.8z"/><path class="d" d="m139.2 141.3q2.8 0.1 5.5 0.1l0.1 0.3q0.1 4.4 0.1 8.8-2.8 0.2-5.7 0.3 0-4.7 0-9.5z"/><path class="d" d="m156.2 141.6q2.8-0.5 5.5-0.8 0 5 0 10-2.7-0.1-5.5-0.3 0-4.5 0-8.9z"/><path class="d" d="m62.7 150.8c7.4-3.1 17.7-1.1 21.1 6.8-9.5 0.1-18.9 0.1-28.3 0 2-2.7 4-5.7 7.2-6.9z"/><path class="d" d="m30.6 155.1c2.2 0.7 3.3 3 5.3 4 1.3 0.4 2.7 0.4 4.1 0.4 24.2 0.1 48.4 0.1 72.6 0.1 0.4 36.5 0.2 73.1 0.2 109.7-24.7 0-49.3 0.1-73.9 0-3.4 0.8-5.8 3.7-8.9 5.1-0.4-4.2 4.8-4.7 6.5-7.8 1.4-1.5 0.4-3.3-0.4-4.8-1.8-0.6-3.7-0.6-5.6-0.8-0.2-30.8 0-61.6-0.1-92.5 2-0.6 4.4-0.7 5.9-2.4 0.9-4.1-3.5-6-6.2-7.8q0.2-1.6 0.5-3.2zm21.7 17.1l0.1-1.4q-1.9 0.5-3.7 1.1c-0.6 3.7-0.2 7.5-0.1 11.3q1.9 0.3 3.8 0.6l-0.1-1c1.2 2.8 4.6 1.8 6.9 1.7 0.4-0.5 1-1.7 1.4-2.2 4.5-0.3 9 0.1 13.5-0.3 1.6-0.2 2.5-1.7 3.7-2.6-0.8-1.9-0.4-5.5-3.1-5.9-4.5-0.6-9-0.1-13.5-0.4-2-2.9-6.8-4.4-8.9-0.9zm49.8 7.6c-2.6 4.2-1.5 9.6-3.4 14.1-0.7 2.8-3 6.3-0.2 8.7 3.2 0.8 6.6 0.5 10 0.6-0.1-7.8 0.1-15.6-0.3-23.4-2 0-4.1-0.2-6.1 0zm-4.3 44.2c-1.5 2.2-0.4 4.7 0.5 6.9 2.2 5.1 2.5 10.6 3.7 15.9q3.3-0.2 6.5-0.4 0-11.5 0-23.1c-3.5 0.1-7.2-0.5-10.7 0.7zm-44.3 20.4c-2.3 3.9-1.7 8.8-0.1 13 0.7 0.2 2.1 0.8 2.8 1.1 2.5-1.2 4.7-3.5 7.7-3.3 4.2 0 8.5 0.2 12.6-0.6 0.6-2.6 1.7-6.3-1.2-8-4.6-0.6-9.4 0.1-14.1-0.2-1.9-2.1-5-4.1-7.7-2z"/><path class="d" d="m132.3 158.3q3.5 0.1 7 0.3 0.1 7 0 14-3.4 0.2-6.7 0.3c-0.3-4.8-0.4-9.7-0.3-14.6z"/><path class="d" d="m155.4 158.8q3.8-0.3 7.6-0.4-0.2 7.1-0.2 14.2-3.3 0.1-6.6 0.1c-0.1-0.7-0.5-2.3-0.7-3-0.2-3.6-0.1-7.3-0.1-10.9z"/><path class="d" d="m184 160.9q2.7 0.2 5.4 0.5 0 4.2-0.1 8.4-2.5 0-5.1 0.1-0.1-4.5-0.2-9z"/><path class="d" d="m200.8 161.4c1.7-0.2 3.4-0.7 5-0.3 0.7 3 0.5 6.1 0.5 9.1q-2.7-0.1-5.5-0.3 0-4.3 0-8.5z"/><path class="d" d="m114.9 169.3c2.7 2.1 5.6 4.9 5.3 8.7 0.2 4-3 6.9-5.4 9.7-0.2-6.1 0-12.3 0.1-18.4z"/><path class="d" d="m172.2 174.7q3 0 5.9 0.1-0.1 4.7-0.3 9.4-2.8 0-5.6 0 0-4.8 0-9.5z"/><path class="d" d="m183.2 184.2c0.1-2.9-0.4-6 0.7-8.8 1.8-0.2 3.6-0.1 5.4-0.2q0 4.6-0.1 9.1-3-0.1-6-0.1z"/><path class="d" d="m132.3 179.4q3.8 0 7.6 0c0 4.4 0 8.9-0.1 13.3-2.4 0.3-4.8 0.6-7.2 0.8-0.2-4.7-0.3-9.4-0.3-14.1z"/><path class="d" d="m155.4 179.7q3.9-0.1 7.8-0.2c0 4.6 0 9.3-0.1 13.9q-3.8-0.3-7.6-0.7-0.1-6.5-0.1-13z"/><path class="d" d="m194.3 183.2q6.4-0.3 12.8-0.3 0 4.1 0 8.2-6.3 0-12.6 0.1-0.1-4-0.2-8z"/><path class="d" d="m114.7 193.7q4.3 0.1 8.5 0.1 0 2.8 0 5.6-4.2 0.1-8.5 0.2 0-2.9 0-5.9z"/><path class="d" d="m225.6 197.5c4.5-0.1 9.1-0.2 13.7-0.1q0 4.2 0 8.4c-4.6 0-9.2 0-13.7 0q-0.1-4.2 0-8.3z"/><path class="d" d="m133.3 201.9q3 0.1 5.9 0.3 0 4.5 0.1 9-2.8 0.2-5.7 0.4-0.2-4.9-0.3-9.7z"/><path class="d" d="m150.5 202.3q2.7-0.3 5.3-0.5 0.1 4.8 0.1 9.5-2.7 0-5.3-0.1-0.1-4.5-0.1-8.9z"/><path class="d" d="m114.7 203.3q4.2 0 8.3 0.1 0 2.8 0 5.6-4.1 0-8.2-0.1-0.1-2.8-0.1-5.6z"/><path class="d" d="m169.6 208.3c7 0.3 14 0 21 0.2-4.2 1.1-8.5 0.4-12.8 0.3q0 4.3 0 8.7-2.9 0-5.9 0-0.1-4.2-0.1-8.5c-0.6-0.2-1.7-0.5-2.2-0.7z"/><path class="d" d="m183.5 209.3q1.1 0.9 2.2 1.9l0.8-2q1.4 1.3 2.8 2.6 0 2.9 0 5.8-3.1 0-6.2 0c0-2.8 0.1-5.6 0.4-8.3z"/><path class="d" d="m194.3 219.1q0.1-4.2 0.3-8.3c4.1 0 8.3 0 12.5 0.3q0 4 0 8.1-6.4 0.1-12.8-0.1z"/><path class="d" d="m114.7 212.8q4.3-0.1 8.5-0.2 0 2.9 0 5.9-4.2 0-8.5 0 0-2.8 0-5.7z"/><path class="d" d="m133.4 217.8q3 0.1 5.9 0.2 0 4.4 0 8.7c-1.8 0.2-3.7 0.4-5.5 0.4-0.5-3.1-0.4-6.2-0.4-9.3z"/><path class="d" d="m150.6 218.1q2.5-0.1 5.1-0.2 0 4.7 0 9.3-2.6-0.2-5.1-0.5c0-2.9 0-5.7 0-8.6z"/><path class="d" d="m114.8 222.3q4.1 0 8.2 0 0.1 2.9 0.2 5.8-4.2-0.1-8.4-0.2 0-2.8 0-5.6z"/><path class="d" d="m223.9 228.1q6.5 0 13.1 0 0.2 4 0.1 8.1-6.6-0.1-13.2-0.1 0-4 0-8z"/><path class="d" d="m168.3 229.5q3.9-0.1 7.7-0.1c0.1 5.2 0.7 10.4-0.1 15.5-2.6 0.3-5.1 0.1-7.6 0q0.1-7.7 0-15.4z"/><path class="d" d="m196.1 229.4q3.8 0 7.5 0.1 0.1 7.8 0.1 15.6-3.8 0-7.6 0.1-0.4-7.9 0-15.8z"/><path class="d" d="m182.1 229.5q3.9 0 7.8 0c0 5.2 0 10.4-0.1 15.6q-3.8 0-7.6 0c-0.1-5.2 0-10.4-0.1-15.6z"/><path class="d" d="m114.7 231.7q4.2 0.1 8.5 0.1-0.1 2.9-0.1 5.7-4.2 0.1-8.4 0.1 0-2.9 0-5.9z"/><path class="d" d="m133.4 233.8q2.8 0.2 5.6 0.5 0.1 4.5 0.3 8.9-2.9 0.3-5.9 0.6 0-5 0-10z"/><path class="d" d="m150.5 234.3q2.6-0.1 5.1-0.2 0.1 4.9 0.1 9.9-2.6-0.4-5.1-0.8-0.1-4.4-0.1-8.9z"/><path class="d" d="m114.7 243.1c2.9 2.6 6.1 5.7 5.8 9.9 0.1 4.1-3.1 7-5.8 9.5q0-9.7 0-19.4z"/><path class="d" d="m210.8 251.8q6.7 0 13.4 0.1 0.2 3.5 0.5 7c-4.6 0-9.2 0-13.8-0.1q-0.1-3.5-0.1-7z"/><path class="d" d="m230.9 258.6q4.3 0.1 8.7 0.1c0.2 7.4 0.4 14.7 0.1 22q-4.3 0-8.5 0.1-0.2-2.8-0.4-5.6 4.3 0 8.7-0.1 0-5.2 0.1-10.4-4.4-0.1-8.8-0.2c0 0.7-0.1 2.1-0.1 2.8 0-0.6-0.1-1.9-0.1-2.5q-1.9 0-3.7-0.1c0.6 0 1.8-0.2 2.4-0.2 0.3-0.1 1-0.2 1.4-0.3 0.1-1.8 0.1-3.7 0.2-5.6z"/><path class="d" d="m168.6 269.6q3.8-0.1 7.7 0 0.2 8.1-0.1 16.1-3.9 0-7.7 0 0-8.1 0.1-16.2z"/><path class="d" d="m196.3 269.6c2.5-0.1 5-0.2 7.6-0.1q0.1 8.1 0 16.2-3.9 0-7.8 0c0-5.4 0-10.8 0.1-16.2z"/><path class="d" d="m55.4 271.3c9.7 0.1 19.4-0.1 29 0-1.7 2.3-3.4 4.9-6 6.3-7.8 4.1-18.7 1.8-23-6.3z"/><path class="d" d="m129.6 271.5c10.1-0.4 20.2-0.1 30.2-0.3 0.1 4.4 0.1 8.7 0.1 13.1-10 1-20.1 1.1-30.2 0.3q0-6.6-0.1-13.1zm7.6 0.4q0.4 2 0.7 4c-0.2 2.5-1.7 5.8 0.9 7.6 4.2 0.6 8.5 0.2 12.8 0.1q0.1-5.9 0.2-11.7c-4.9-0.3-9.7-0.2-14.6 0z"/><path class="d" d="m210.9 274.1q6.9 0 13.8-0.2 0 3.9 0 7.8-7.1 0.1-14.1 0 0.1-3.8 0.3-7.7z"/><path class="d" d="m129.6 291.5q3.6 0 7.3 0.1 0 6.7-0.1 13.3c-2.4 0.2-4.8 0.4-7.3 0.6q0-7 0.1-14z"/><path class="d" d="m153.1 291.7q3.6-0.1 7.1-0.2 0 7 0.1 14-3.6-0.2-7.2-0.4 0.2-6.7 0-13.4z"/><path class="d" d="m180.3 312.6q4.4 0 8.8-0.1c0.2 4.2 0.2 8.3 0.1 12.4q-6.1 0.2-12.3 0 1.7-0.4 3.3-0.9 0-5.7 0.1-11.4z"/><path class="d" d="m208.1 312.6q4.4 0 8.8 0 0 5.7 0 11.3c0.5 0.2 1.7 0.8 2.2 1-3.6 0.1-7.2 0.1-10.9 0q-0.1-6.2-0.1-12.3z"/><path class="d" d="m52.4 314.3c12.9-0.2 25.9 0.1 38.8-0.2q0.2 1.8 0.5 3.5c1.6 0.6 3.3 0.6 4.9 0.8 0.2 12.4 0.2 24.8 0.1 37.2q-2.4 0.1-4.8 0.2-0.1 2-0.2 4c-13.1-0.1-26.2 0-39.3-0.1q0-2 0-3.9-2.6 0-5.1 0 0-18.8 0-37.6 2.5-0.1 5.1-0.1 0-1.9 0-3.8zm16.1 9.2c-6.4 1.6-11.2 7.9-10.5 14.5 0.2 8 8.4 14.2 16.1 12.7 7.9-0.9 13.7-9.7 11.3-17.3-1.9-7.1-9.8-11.9-16.9-9.9z"/><path class="d" d="m128.2 319.1q4.4 0 8.8 0.1 0.1 2.8 0.2 5.6-4.4 0-8.8 0.1 0 5.1-0.1 10.2 4.5 0 9-0.1 0 2.8 0 5.6-4.6 0.6-9.2 0.3c-0.2-7.2 0-14.5 0.1-21.8z"/><path class="d" d="m24.3 324.2c7 0 14-0.1 21 0 0.1 8.4 0.1 16.9 0.1 25.3-6.8 0.5-13.7 0.2-20.6 0.1-0.7-8.4-0.5-16.9-0.5-25.4z"/><path class="d" d="m98.6 324.7c7.1-0.7 14.2-0.3 21.2-0.5-0.1 8.5 0.1 17-0.1 25.5-7 0.1-14 0.3-21-0.1q0-12.5-0.1-24.9z"/><path class="d" d="m193.9 343.9q4.5 0 9 0c-0.1 4.6-0.1 9.1-0.1 13.7q-4.4 0-8.8 0.1c-0.1-4.6-0.1-9.2-0.1-13.8z"/><path class="e" d="m52.3 172.2c2.1-3.5 6.9-2 8.9 0.9 4.5 0.3 9-0.2 13.5 0.4 2.7 0.4 2.3 4 3.1 5.9-1.2 0.9-2.1 2.4-3.8 2.6-4.4 0.4-9 0-13.5 0.3-0.3 0.5-0.9 1.7-1.3 2.2-2.3 0.1-5.7 1.1-6.9-1.7-0.2-3.5-0.2-7 0-10.6z"/><path class="e" d="m102.1 179.8c2-0.2 4.1 0 6.1 0 0.4 7.8 0.2 15.6 0.3 23.4-3.4-0.1-6.8 0.2-10-0.6-2.8-2.4-0.5-5.9 0.2-8.7 1.9-4.5 0.8-9.9 3.4-14.1z"/><path class="e" d="m97.8 224c3.5-1.2 7.2-0.6 10.7-0.7q0 11.6 0 23.1-3.2 0.2-6.5 0.4c-1.2-5.3-1.5-10.8-3.7-15.9-0.9-2.2-2-4.7-0.5-6.9z"/><path class="e" d="m53.5 244.4c2.7-2.1 5.8-0.1 7.7 2 4.7 0.3 9.5-0.4 14.1 0.2 2.9 1.7 1.8 5.4 1.2 8-4.1 0.8-8.4 0.6-12.6 0.6-3-0.2-5.3 2.1-7.8 3.3-0.6-0.3-2-0.9-2.7-1.1-1.6-4.2-2.2-9.1 0.1-13z"/><path class="e" d="m371.3 366.1c3-1.6 0.2 3.3 0 0z"/></svg>