<svg version="1.2" xmlns="http://www.w3.org/2000/svg" viewBox="0 0 1488 714" width="1488" height="714"><style>.a{fill:#fefefe}.b{fill:#888a89}.c{fill:#c8cccd}.d{fill:#3096c7}.e{fill:#60b0ce}.f{fill:#090b0a}.g{fill:#e6e6e8}</style><path class="a" d="m427 69c1.4-1.4 2.8-3.2 5-2.8q333.6 0 667.3 0c0 14-0.1 28.1 0.1 42.2-13.7 13.9-27.6 27.7-41.4 41.6-2.8 2.3-4.9 6.7-9 6.4q-334.4 0-668.8 0c0.2-12.1-0.4-24.2 0.2-36.3 15.1-17.4 31.3-33.9 46.6-51.1zm455.5 20.7c-10.6 2.7-17.5 12.7-21.1 22.4-1.9 5.7-3.3 12.1-1.4 18 1.5 4.6 6.2 7.4 10.9 7.7 6.7 0.8 13.7-1.5 18.7-6.2 6.6-6.1 10.2-14.8 12.1-23.4 1.3-5.6 0.9-12.4-3.7-16.3-4.4-3.3-10.4-3.3-15.5-2.2zm42.4 0.2c-9.7 3-18.1 12.7-16.8 23.2 0.6 5.6 6.9 8.1 11.9 7.8 5.3 0.3 9.7-3 13.4-6.3-2.8 6.4-6.6 14.3-14.5 15-3.4 0.5-5.6-2.3-5.6-5.5-3.4 0.1-6.8 0-10.1 0.1-0.5 4.4 0.7 9.5 4.9 11.7 7.3 3.9 16.6 1.8 22.9-3 8.1-6.3 12.4-16.3 14.4-26.1 0.7-4.6 0.9-10.1-2.6-13.7-4.6-4.7-12-4.9-17.9-3.2zm33.8 7.8c-5.2 5.7-8.3 13-10.3 20.4-1.3 5.1-1.5 11.2 2 15.5 3 3.6 8.1 4.5 12.6 4.2 8.1-0.2 16-4.9 19.7-12.2 2.6-4.8 4.2-11.2 0.6-15.8-3.2-4.3-9.3-4.7-14.1-3.4-3.5 0.9-6.3 3.2-9.1 5.4 2.6-5.8 6-12.6 12.9-13.9 3.6-0.9 7.1 1.4 7.8 5.1 3.2-0.1 6.4-0.1 9.6-0.1-0.1-3.2 0-6.6-2-9.2-2.7-3.5-7.3-4.7-11.4-4.6-7.1-0.3-13.7 3.4-18.3 8.6zm-530.9 39.5q5.2 0 10.4 0c3.4-10.5 7.1-20.9 10.4-31.4 1.1 10.3 1.5 20.7 2.6 31.1q3.7 0 7.4-0.1c7.5-10.4 14.7-21 22.5-31.2-3.5 10.5-6.9 21-10.4 31.6q5.2-0.1 10.5 0c5.2-15.8 10.1-31.8 15.2-47.7-3.9 0-7.7 0-11.6 0.1-2.1-0.4-2.9 2-4 3.2-7 9.5-14 18.9-21 28.3-1.2-10.5-2.2-21-3.4-31.6-4.3 0.1-8.5 0-12.8 0.1-5.2 15.9-10.2 31.8-15.8 47.6zm154.2-47.6c-5 15.9-10.3 31.7-15.4 47.6q5.2 0 10.4 0.1c2.5-7 4.3-14.2 6.9-21.2 1.6-4.3 6.4-7.6 11.1-6.6 2.8 0.6 3.3 4 2.4 6.4q-3.3 10.7-7 21.3 5.1 0 10.2 0c2.5-8.4 5.8-16.6 8-25.1 1.1-3.9-0.4-8.8-4.5-10.2-6.5-2.4-13.8 0.5-18 5.8 2.3-5.9 3.9-12 5.9-18.1q-5-0.1-10 0zm58.3 0c-5.4 15.8-10.5 31.7-15.7 47.6q5.2 0 10.5 0c3.1-10.1 6.5-20.1 9.9-30.1 3.5 10.1 7.2 20.1 11.1 30.1q4.6 0 9.2 0c5.2-15.9 10.6-31.7 15.6-47.6q-5.1 0-10.2-0.1c-3.3 10-6.5 20-9.9 30-3.8-10-7.5-20-11.4-29.9q-4.6 0-9.1 0zm113.9 0c-1.7 5.8-3.7 11.5-5.3 17.2-1.3-2.1-2.6-4.6-5.3-5.2-8-2.1-16.3 2.8-20.5 9.5-3.7 6-6.6 13.3-4.7 20.4 1.3 5 7.1 7 11.8 6.2 4.3-0.4 7.8-3.3 10.6-6.4q-1 2.9-2 5.8 5.1 0.1 10.1 0.1c5-15.9 10.4-31.7 15.4-47.7q-5.1 0-10.1 0.1zm72 0c-0.9 2.8-1.8 5.7-2.6 8.6 4.8 0 9.6-0.1 14.5-0.1-4.5 13-8.9 26-13.1 39.1q5.1 0 10.3 0c4-13.1 8.7-25.9 12.6-39q7.3-0.1 14.5-0.1c0.9-2.8 1.8-5.6 2.8-8.4-13-0.2-26-0.1-39-0.1zm-321 14.6c-5.9 3.4-9.7 9.5-11.8 15.9-1.6 5.3-1.3 12.4 3.8 15.7 10 5.2 24 1.1 29.2-9.1-3.2-0.1-6.3-0.1-9.5-0.3-2.9 3.6-8.2 5.6-12.4 3.1-2.4-1.7-2-5-1.8-7.6 8.4-0.2 16.8-0.1 25.2-0.3 1.4-4 2.6-8.4 1.8-12.7-0.8-3.8-4.2-6.5-7.8-7.3-5.7-1.3-11.7-0.3-16.7 2.6zm32.9 4.9c-1.9 3.1-2.9 7.9 0.2 10.5 4.2 3.7 10.5 2.4 14.9 5.5 0.9 2.5-1.5 4.6-3.6 5.3-2.9 1-5.9 0.3-8.4-1.1 0-0.7 0.1-2.2 0.1-2.9-3.6-0.1-7.1 0-10.6 0.2 0.1 2.9 0.2 6.2 2.6 8.2 3.7 3.3 9.1 3.3 13.8 2.9 6.3-0.5 13.2-3.4 16.1-9.4 1.3-2.8 2.1-6.7-0.5-9-4.4-4.1-11.3-2.6-16-6.3 1.2-6.1 11.3-7.3 12.9-0.9 2.9-0.3 5.7-0.4 8.6-0.4-0.4-2.6-0.2-5.6-2.3-7.6-3.4-3.3-8.5-3.2-13-2.9-5.7 0.5-11.8 2.8-14.8 7.9zm158.3-7.5c-7.2 1.5-13.4 6.7-16.5 13.3-2.3 4.8-4.1 10.4-2.2 15.6 1.2 3.4 4.2 6 7.7 6.8 8.6 2.1 18.3-1.3 23.7-8.3 3.3-4.4 5.5-9.6 6.1-15.1 0.5-4-1.2-8.4-4.7-10.6-4.1-2.7-9.4-2.6-14.1-1.7zm78 1.8c-8 3.8-13.1 12-14.4 20.5-0.7 4.7 0.9 10.3 5.5 12.4 5.4 2.4 11.7 2 17.1 0.2 4.9-1.5 8.5-5.5 11.2-9.8q-4.7-0.1-9.4-0.2c-3 3.1-7.9 5.3-12.1 3.2-2.8-1.6-2.2-5.2-1.9-7.9 7.8-0.1 15.7 0.1 23.5-0.2 1.8 0.3 1.9-1.8 2.4-3 1-3.6 1.8-7.7 0.2-11.3-1.4-3.3-4.9-5.4-8.5-6-4.6-0.7-9.5-0.1-13.6 2.1z"/><path class="a" d="m926.4 97.6c3.2-1.3 7.9-0.4 8.9 3.3 1 7-6.2 14.4-13.3 12.3-2.6-0.6-3.9-3.6-3.5-6.1 0.6-4.3 3.8-8 7.9-9.5z"/><path class="a" d="m881.5 98.7c2.6-1.5 6.3-1.9 8.5 0.4 1.8 2.1 1.7 5.2 1.4 7.8-1.1 6.9-3.6 13.8-8.3 19.1-2.5 2.8-6.7 4.8-10.4 3.2-3.4-2.1-3.2-6.8-2.5-10.3 1.5-7.6 4.5-15.9 11.3-20.2z"/><path class="a" d="m504.8 115.7c2.4-4.3 6.8-8.2 12.1-7.2 3.3 0.5 4.2 4.3 3.5 7.1-5.2 0.4-10.4 0.2-15.6 0.1z"/><path class="a" d="m697.1 109c2.8-1.1 6.7-0.2 7.5 3.1 0.8 4.3-1 8.7-3.2 12.3-2.2 3.5-6.2 6.8-10.5 5.6-3.4-0.9-3.8-5.2-3.2-8 1.2-5.3 4.2-10.9 9.4-13z"/><path class="a" d="m737.4 109.6c2.1-0.7 4.7-0.9 6.6 0.4 2.1 2 1.9 5.3 1.1 7.9-1.3 4.5-3.7 9-7.9 11.3-2.3 1.1-5.7 1.2-7.4-1-2.1-2.7-1.1-6.5 0-9.4 1.5-3.7 3.8-7.6 7.6-9.2z"/><path class="a" d="m772.4 115.7c1.8-2.9 4.1-6 7.6-6.9 2.6-0.8 6.4-0.6 7.7 2.3 0.3 1.5 0.2 3.1 0.2 4.6-5.1 0.2-10.3 0.1-15.5 0z"/><path class="a" d="m965.2 114.2c3.2-1.4 8.2-1 9.5 2.8 1.7 7.7-8.2 16.1-15.1 11.6-4.5-4.9 0.3-12.4 5.6-14.4z"/><path class="a" d="m1265.1 213.1c3.3-4.7 6.6-9.4 10-14q3.1 2.3 6.3 4.6c-5.7 8.5-12 16.6-17.7 25.1 4.5 3 9 6.1 13.4 9.3q-2 2.9-3.9 5.8c-6.6-4.5-12.8-9.5-19.4-13.9 2.7-6.2 7.5-11.3 11.3-16.9z"/><path class="a" d="m1292.2 228.3c8.5-2.8 18.7 4.6 18 13.7-0.7 7.6-7 15.5-15.2 14.9-6.4 0.2-12.5-4.8-13.6-11-1.3-7.4 3.7-15.4 10.8-17.6zm2.2 7.1c-3.2 2.1-5.7 5.7-5.9 9.6-0.4 3.8 4 6.7 7.4 5.1 4.3-2 7.7-6.9 6.6-11.8-0.8-3.4-5.2-4.9-8.1-2.9z"/><path class="a" d="m1303.1 265c7.2-10.3 14.6-20.6 21.9-30.8 5 3.6 10.5 6.5 15.2 10.6 5.4 4.6 4.4 14-1.2 18.1-2.8 2.4-6.6 2.7-10 3-0.3 5.4-0.9 10.9-1.7 16.3q-3.5-2.5-7-4.9c0.5-5.1 1.6-10.2 1.4-15.4-1.2-1.3-2.8-2.3-4.2-3.3q-4 5.6-8.2 11.1-3.1-2.4-6.2-4.7zm24.4-21q-3.2 4.5-6.3 9c2.8 2 5.4 4.6 8.8 5.3 3.5-0.3 6.4-3.9 5.4-7.3-1.6-3.3-5.1-4.9-7.9-7z"/><path class="a" d="m1342.2 267.9c2.7-1.6 5.6-3.7 8.9-2.9 5.3 0.9 10.5 4.6 12.1 10 1.1 4.4-2.1 8.3-4.5 11.6-3 3.8-5.2 8.1-8.6 11.5-2.2-1.2-4.1-2.7-6-4.1q1.1-1.3 2.3-2.5c-5.3 0.8-11.3-1.3-13.3-6.6-2.2-5.5 3-12 8.9-11 4.7 1.1 8.7 4 13.4 5.2 0-1.8 1.3-3.9 0-5.5-1.8-2.6-5.4-1.6-8-2.2-1.9-0.8-3.5-2.3-5.2-3.5zm-2 14.2c-0.7 2.9 2.4 5 5 5.5 2.9 0.6 4.7-2.4 6.7-4-2.9-1.4-5.7-3.2-8.9-3.5-1.3 0.1-2.8 0.4-2.8 2z"/><path class="a" d="m1169.4 287.6c9.7-4 21.5 3.2 23.2 13.3 0.7 3.3-0.2 6.5-1.2 9.6q-3.4-2.3-6.7-4.7c0.1-2.4 0.9-5-0.5-7.1-2.4-4-7.8-5.6-12-3.5-5.1 2.6-8.6 8.1-9.1 13.8-0.4 4.7 3.7 8.5 7.9 9.5 2.9 0.7 5.3-1.5 7.7-2.7-2.2-1.9-4.4-3.7-6.6-5.6q1.8-2.2 3.6-4.3c4.2 3.1 8.4 6.2 12.7 9.1-2.7 3.8-5.5 7.6-9.8 9.5-10.3 4.6-23.5-4.4-23.5-15.5-0.4-9.1 6-17.9 14.3-21.4z"/><path class="a" d="m1201.8 306.7c2.2-3.6 5.3 0.9 7.6 2.1-0.7 9.9-0.8 19.8-1.2 29.7 5-6.4 9.3-13.3 14.6-19.5q3.1 2.3 6.3 4.7c-7.4 10.3-15.1 20.4-22.6 30.7-2.3-1.7-6.3-2.8-5.8-6.3 0.2-9.1 0.8-18.2 0.9-27.3-5 6.2-9.5 12.7-14.4 19-1.9-1.4-4-2.8-5.8-4.5 0.8-2.6 2.7-4.5 4.2-6.7 5.4-7.3 10.9-14.6 16.2-21.9z"/><path class="a" d="m1225.8 344c-1.1-5.6 3.7-11 9.2-11.4 6.8-0.5 13.5 3.9 16.5 9.8 2 3.7 0.8 7.8-0.3 11.5-2.2-1.4-4.3-2.9-6.4-4.3 0-2.9 0.1-6.2-2.5-8-2.6-2.6-9-2.2-8.5 2.4 1.9 5.7 7.9 9 9.2 15.1 1.7 6.4-4.4 13.2-11 12.5-6.3-0.7-12-4.9-15.2-10.3-2.4-4-1-8.7 0.3-12.9q3.2 2.2 6.5 4.4c-0.1 2.3-0.9 4.9 0.7 6.9 1.7 2.4 4.6 4.2 7.6 4.1 2.4 0.1 4-2.7 3-4.7-2.2-5.6-8.1-9-9.1-15.1z"/><path class="a" d="m1252.9 365.1c-1.2-5.3 3.1-10.4 8.1-11.4 6.9-1.4 14 2.9 17.5 8.8 2.2 3.7 1.4 8.3-0.3 12.1q-3.2-2.2-6.3-4.3c1.2-4.3-1.5-8.8-5.9-9.6-3-1.1-6.5 2.3-4.8 5.2 2.5 5.3 8.4 8.8 9.2 15.1 1 5.9-4.6 11.6-10.5 11.3-6.6-0.4-12.8-4.6-16.1-10.3-2.3-4.2-1-9 0.9-13.1q3 2.4 5.9 4.8c-0.1 2.5-0.9 5.4 1.3 7.4 2.2 3.1 6.1 3.8 9.7 3.5 0.3-2 1.4-4.4 0.1-6.3-2.6-4.6-7.5-7.9-8.8-13.3z"/><path class="a" d="m394.6 573.4c195.4 0 390.8 0.1 586.2-0.1 8.4 10.5 16.8 21.1 25.2 31.7-8.5 10.5-16.8 21.2-25.2 31.8q-286.8 0-573.8 0c-4.1-0.1-8.3 0.4-12.5-0.3-8.6-10.3-16.4-21.3-25.1-31.5 8.4-10.6 17.1-20.9 25.2-31.6zm71.2 17.2c-0.1 10.2 0 20.5 0 30.7q3.2 0 6.4-0.1c0-4.2 0-8.3 0-12.5q6.3 0 12.6 0 0-2.7 0-5.3c-4.2 0-8.4 0-12.6 0q0-3.7 0-7.3c4.5 0.1 9.1-0.1 13.7-0.2q0-2.6 0-5.2-10-0.1-20.1-0.1zm53.4 2.6c-1.9 1.8-2.3 4.6-3 7q3 0 5.9 0.1c0.8-2.7 2.7-5.5 5.9-4.8 4 0.2 4.9 5.5 2.4 8-4.1 4.7-9.5 8.3-13.4 13.3q-0.2 2.2-0.3 4.5c7.3 0.1 14.5 0 21.7 0q0.1-2.7 0.1-5.5c-4.3 0-8.6 0-12.9-0.1 4.2-4.1 9.4-7.5 11.9-12.9 2.1-4.6-0.8-10.3-5.4-11.8-4.3-1.4-9.6-1.2-12.9 2.2zm24.5 3.8c-1.1 3.4 1.2 6.5 3.7 8.5-1.7 1.2-3.6 2.4-4.6 4.3-1.4 3.3-0.2 7.6 2.8 9.6 4.4 3 10.3 3.1 15 1.1 3.7-1.4 6.5-5.5 5.2-9.5-0.7-2.6-3-4.3-5.1-5.7 2.5-2 5-4.8 4-8.2-2.4-9.3-18.5-9.4-21-0.1zm63.7-6.4c-5.2 1.1-8.3 6.4-8.9 11.3-0.7 4.9-0.5 10.2 2.1 14.6 3.7 6.3 13.8 7.4 18.7 1.8 3.1-3.6 3.7-8.7 3.6-13.3-0.1-4.4-1.3-9.2-4.8-12.2-2.8-2.6-7.1-2.9-10.7-2.2zm-169.2 0.1c0.1 10.2-0.1 20.4 0 30.7q3.3-0.1 6.6-0.1 0-5.5 0-11.1 2.3 0 4.6-0.1c2 3.7 3.9 7.5 5.9 11.2q3.5 0.1 7 0c-2-3.9-4-7.8-6.2-11.6 2.4-1.9 4.6-4.4 5-7.6 1.2-5.2-2.7-10.9-8.1-11.3-4.9-0.4-9.9-0.1-14.8-0.1zm53.8 0c-0.3 5.5-1.2 11-1.5 16.5q2.6 0.5 5.2 1.1c2-1.7 4.5-3.5 7.2-2.1 4.6 1.7 4.2 9.6-0.9 10.3-3.1 0.8-5.2-1.5-6.5-4q-3.1 0.1-6.1 0.2c1.4 8.8 13.4 11.9 19.7 6.3 5.2-4.3 4.3-14.2-1.9-17.1-3.5-1.6-7.6-1-10.8 1 0.4-2.3 0.7-4.7 1-7 4.4 0 8.9-0.1 13.3 0q0-2.6 0.1-5.2c-6.3 0-12.5-0.1-18.8 0zm90.5 0c-4 6.8-8.7 13.1-12.8 19.7q0 2.7 0 5.5c4.9-0.1 9.8-0.1 14.8-0.1q-0.1 2.7 0 5.5 3 0 6.1 0 0-2.8 0-5.6 2-0.1 4-0.2-0.1-2.6-0.1-5.2-2 0-4 0.1c0.1-6.6 0-13.2 0-19.7q-4 0-8 0zm-165.1 11.2c0.1-0.9 0.5-2.5 0.6-3.4q-3.1 0-6.3 0c0 7.6 0.1 15.2 0 22.8q3.2 0 6.4 0c0.2-5.1-0.2-10.2 0.4-15.2 0.9-3.6 6.7-3.5 7.7 0 0.7 5 0.2 10.1 0.3 15.2q3.2 0 6.3 0c-0.2-6 0.5-12-0.4-17.9-1.9-6.6-11.4-6.5-15-1.5z"/><path class="a" d="m552.5 595.5c2.8-1.1 7 1.1 5.9 4.6-0.7 3.6-5.8 4.2-7.9 1.4-1.8-1.9-0.7-5.5 2-6z"/><path class="a" d="m444.7 596.1c2.6 0.1 5.4-0.5 7.8 0.6 3.2 1.4 2.7 6.9-0.6 7.9-2.3 0.6-4.8 0.5-7.1 0.6q-0.1-4.6-0.1-9.1z"/><path class="a" d="m608.4 596.3c2.5-1.7 5.8 0.2 6.7 2.8 1.7 4.3 1.6 9.2 0.3 13.5-0.9 2.9-4.3 5.2-7 3.4-3.3-2.2-3.6-6.5-3.7-10 0.1-3.4 0.6-7.6 3.7-9.7z"/><path class="a" d="m576.3 610.5c2.5-4.4 5.3-8.6 7.9-12.9 0.2 4.4 0.3 8.7 0.4 13q-4.2-0.1-8.3-0.1z"/><path class="a" d="m552.2 608.3c3.1-1.4 7.6 1.1 7.2 4.7-0.7 4.9-8.6 5.3-10.2 0.9-1.2-2.4 0.8-5 3-5.6z"/><path class="b" d="m221.7 20.5q5.7 0 11.4 0c-0.2 32.5 0.1 65-0.1 97.5-0.3 18.6 11.5 37.1 29.1 43.8 6.6 2.7 13.8 3.4 20.9 3.4 15.3-0.1 30.6 0 45.9-0.1q0 5.8 0 11.7c-15.3 0.1-30.6 0-45.9 0-7.9 0-15.8-0.8-23.2-3.6-16.4-5.7-29.8-19.4-35.1-36-2.1-6.5-3-13.4-3-20.2 0-32.2 0.1-64.3 0-96.5z"/><path class="b" d="m59.9 223.4c46.4 0.1 92.8-0.1 139.2 0 16.3-0.3 31.7 11 37.4 26.2 3.4 8.3 3 17.5 2.9 26.4q0 83 0 166.1c0 8.9 0.4 18.3-3.5 26.6-6.1 14.4-21.3 24.3-36.8 24.1-46.4 0-92.8 0-139.2 0q0-8.5-0.1-17c-12.3 0.1-24.6-0.1-36.9 0-1.4-0.2-3.4 0.3-4.3-1.2-5.1-6.2-2.5-14.6-3.1-21.9 42.8 0 85.7 0.1 128.5 0.1 7-0.3 14 0.2 21 0.2 14.1-0.6 28.2-0.3 42.3-0.3 1.4-10.9 2.2-21.8 2.9-32.7q-8.9-0.2-17.8 0.2c-1.3 2.7-2.3 5.6-4.4 7.7-4.2 3.6-11.8 0.7-12.2-4.9-0.6-8 0.1-16-0.2-23.9 0-3.5-0.3-7.1 0.4-10.5 1.4-5.5 9.7-7.2 13.2-2.7 1.3 2 2.1 4.5 3 6.7 4.9 0.2 9.8 0 14.7-0.5 1.1-12.7 3.3-25.3 2.6-38.1-0.3-9.8-1.5-19.6-2.4-29.3-4.9-1-10-1.4-15-1.4-1.1 3.2-1.1 7.6-4.7 9.2-4.2 1.4-10.3-0.2-11.4-5.1-0.9-5.1-0.2-10.3-0.3-15.4 0.1-6-0.5-12 0.1-18 0.4-4.9 6.5-8.1 10.8-5.7 3.5 1.1 4.4 4.9 5.7 7.9 6 0.1 12.1 0.1 18.2 0.1-0.8-11.2-2.1-22.4-3.2-33.5-0.6-7.9-2.2-15.6-5.2-22.9-47.4 0.1-94.8 0-142.2 0 0-5.5 0-11 0-16.5z"/><path class="b" d="m142.3 298.6q6.7 0.1 13.4 0c-0.1 8.3 0 16.6 0.1 24.9q-6.8-0.1-13.6 0c0.1-8.3 0.1-16.6 0.1-24.9z"/><path class="b" d="m142.2 393.4q6.8 0.1 13.6-0.1-0.2 12.6-0.1 25.1-6.7-0.1-13.5 0c0.2-8.3 0.1-16.7 0-25z"/><path class="b" d="m266 540.9c7.2-1.7 14.7-1.5 22-1.5 13.8 0 27.5 0 41.3 0q0 5.8 0.1 11.7c-15.8 0-31.6 0.1-47.4 0-4.9 0-9.9 0.1-14.6 1.4-15.5 4.2-28.2 17.1-32.3 32.5-2.3 8.5-1.6 17.3-1.7 26 0 28.2-0.1 56.4 0 84.6q-5.8 0-11.5 0c0.1-31.9 0.1-63.7 0-95.6-0.1-8.7 1.3-17.4 4.7-25.3 6.9-16.6 21.9-29.6 39.4-33.8z"/><path class="c" d="m77.6 22.7c3.9-1.6 8.2-2 12.4-2.1 43.9-0.1 87.8 0 131.7-0.1 0.1 32.2 0 64.3 0 96.5 0 6.8 0.9 13.7 3 20.2 5.3 16.6 18.7 30.3 35.1 36 7.4 2.8 15.3 3.6 23.2 3.6 15.3 0 30.6 0.1 45.9 0q0-5.9 0-11.7c-15.3 0.1-30.6 0-45.9 0.1-7.1 0-14.3-0.7-20.9-3.4-17.6-6.7-29.4-25.2-29.1-43.9 0.2-32.4-0.1-64.9 0.1-97.4 397.3 0.2 794.6 0.1 1191.9 0.1 8.5 0.2 17.6-1.2 25.4 2.9 9.8 4.8 15.5 15.8 15.2 26.5q0 304 0.1 608c0.1 7.1 0.5 14.5-2.7 21-4.4 10.5-15.8 16.9-27 16.6-400.8 0-801.7 0-1202.6 0-0.1-28.2 0-56.4 0-84.6 0.1-8.7-0.6-17.5 1.7-26 4.1-15.4 16.8-28.3 32.3-32.5 4.7-1.3 9.7-1.4 14.6-1.4 15.8 0.1 31.6 0 47.4 0q-0.1-5.9-0.1-11.7c-13.8 0-27.5 0-41.3 0-7.3 0-14.8-0.2-22 1.5-17.5 4.2-32.5 17.2-39.4 33.7-3.4 8-4.8 16.7-4.7 25.4 0.1 31.9 0.1 63.7 0 95.6-43.6 0-87.3 0-130.9 0-6.9 0.1-14-1.7-19.7-5.9-7.8-5.9-11.5-16.1-11.4-25.7q0-85.6 0-171.2c46.4 0 92.8 0 139.2 0 15.5 0.2 30.7-9.7 36.8-24.1 3.9-8.3 3.5-17.7 3.5-26.6q0-83.1 0-166.1c0.1-8.9 0.5-18.1-2.9-26.4-5.7-15.2-21.1-26.5-37.4-26.2-46.4-0.1-92.8 0.1-139.2 0 0.1-53.5 0-106.9 0-160.4 0.1-8.3-0.7-16.9 2.4-24.7 2.9-6.9 8.3-12.9 15.3-15.6zm277.9 24.4q0.1 310.8 0.1 621.5c126.8 0.3 253.6 0.1 380.4 0.1 234.5 0 469 0.1 703.5 0-0.1-207.2 0-414.4 0-621.6-14.2-1.1-28.4 0.5-42.5-0.3-24-0.1-48 0.2-71.9-0.1-8.7-0.2-17.4 0.9-26.1 0.2-14.3-0.2-28.7-0.1-43-0.2-13.7 0.7-27.4-0.5-41 0.2-7.7 0.5-15.3-0.5-23-0.1-106.3 0-212.6 0-319 0-29.3 0.1-58.7-0.3-88 0.2-40.7-0.5-81.4 0-122-0.2-28 0-56-0.1-84 0.2-13-0.8-26 0.5-39-0.2-16 0.2-32-0.4-48 0.3-4.4 0.1-8.7-0.4-13-0.4-36.7 0.1-73.3 0-110 0.2-4.5-0.3-9-0.2-13.5 0.2z"/><path class="c" d="m15.4 262.9c64-0.1 127.9 0 191.9-0.1 1.1 11.1 2.4 22.3 3.2 33.5-6.1 0-12.1 0-18.2-0.1-1.3-3-2.2-6.8-5.7-7.9-4.3-2.4-10.4 0.8-10.8 5.7-0.6 6 0 12-0.1 18 0.1 5.1-0.6 10.3 0.3 15.4 1.1 4.9 7.2 6.5 11.4 5.1 3.6-1.6 3.6-6 4.7-9.2 5 0 10.1 0.4 15 1.4 0.9 9.8 2.1 19.5 2.5 29.3 0.6 12.8-1.6 25.5-2.7 38.1-4.9 0.5-9.8 0.7-14.7 0.5-0.9-2.2-1.6-4.7-3-6.7-3.5-4.5-11.8-2.8-13.2 2.7-0.7 3.4-0.4 7-0.4 10.5 0.3 7.9-0.4 15.9 0.2 23.9 0.4 5.6 8 8.5 12.2 4.9 2.1-2.1 3.1-5 4.4-7.7q8.9-0.4 17.8-0.2c-0.7 10.9-1.5 21.8-2.9 32.7-14.1 0.1-28.2-0.3-42.3 0.3-7 0-14-0.5-21-0.2-42.8 0-85.7-0.1-128.5-0.1-0.2-63.3-0.1-126.6-0.1-189.8zm126.9 35.7c0 8.3 0 16.6-0.1 24.9q6.8-0.1 13.6 0c-0.1-8.3-0.2-16.6-0.1-24.9q-6.7 0.1-13.4 0zm-0.1 94.8c0.1 8.3 0.1 16.7 0 25q6.8-0.1 13.5 0-0.1-12.5 0.1-25.1-6.8 0.2-13.6 0.1z"/><path class="d" d="m355.5 47.1c4.5-0.4 9-0.5 13.5-0.2 36.7-0.2 73.3-0.1 110-0.2 4.3 0 8.6 0.5 13 0.4 16-0.7 32-0.1 48-0.3 13 0.7 26-0.6 39 0.2 28-0.3 56-0.2 84-0.2 40.6 0.2 81.3-0.3 122 0.2 29.3-0.5 58.7-0.1 88-0.2 106.4 0 212.7 0 319 0 7.7-0.3 15.3 0.6 23 0.1 13.6-0.7 27.3 0.5 41-0.2 14.3 0.1 28.7 0 43 0.2 8.7 0.7 17.4-0.4 26.1-0.2 23.9 0.3 47.9 0 71.9 0.1 14.1 0.8 28.3-0.8 42.5 0.3 0 207.2-0.1 414.4 0 621.6-234.5 0.1-469 0-703.5 0-126.8 0-253.6 0.2-380.4-0.1q0-310.7-0.1-621.5zm71.5 21.9c-15.3 17.2-31.5 33.7-46.6 51.1-0.6 12.1 0 24.2-0.2 36.3q334.4 0 668.8 0c4.1 0.3 6.2-4.1 9-6.4 13.8-13.9 27.7-27.7 41.4-41.6-0.2-14.1-0.1-28.2-0.1-42.2q-333.7 0-667.3 0c-2.2-0.4-3.6 1.4-5 2.8zm769.3-2.1c6.9 5.8 14.5 10.8 21.9 16 43.2 30.3 86.1 61.1 129.6 91.2 17.9 12.8 35.8 25.7 54 38 6.7 4.3 12.9 9.4 19.8 13.4 0.2-30 0.1-60.1 0.1-90.1q-4.8-3.2-9.5-6.5c-28.5-20.3-57-40.4-85.4-60.7-2.8-2.2-6.5-2-9.8-2-40.3 0.5-80.5 0-120.7 0.7zm193.5-0.2c10 8.4 21 15.5 31.5 23.1 0-6.9 0.8-13.8-0.2-20.7-1.1-2.9-4.6-2.6-7.1-2.7-8.1 0.2-16.2 0-24.2 0.3zm-270.8 15.3c-0.4 24.4-1.7 48.7-1.6 73.1 4.6 3.6 9.5 6.9 14.4 10.1 36.9 26.5 74.1 52.6 111.2 78.7 13.8 10.3 28.4 19.6 42.1 29.9 15.3 10.4 30 21.5 45.3 31.8 16.5 11.1 32.3 23.1 48.8 34.3 14 10 28.2 19.9 42.2 29.8 0.2-3.9 0.4-7.8 0.4-11.7-0.2-26.3 0.1-52.5-0.2-78.7-10.2-7-20.2-14.4-30.2-21.6-16-11-31.6-22.5-47.6-33.5-14.6-10.3-29.5-20.4-44-31-27.9-20.1-56.4-39.4-84.2-59.7-15.4-10.5-30.7-21.3-45.8-32.2-16.2-11.3-32.4-22.7-48.5-34.1-2.9 4.4-2 9.8-2.3 14.8zm-99.2 90.6c-0.6 20.5 0.9 40.9 0.4 61.4 0.1 3.4-0.4 7 0.5 10.3 2.5 2.9 6 4.7 9 7.1 20.7 15.6 42.1 30.4 62.7 46.2 13.1 9.5 26.1 19.3 39.4 28.6 7.2 5.1 13.7 11 21.1 15.9 8 5.6 15.7 11.6 23.5 17.5 8.8 6.1 17.5 12.4 26 19 43 31.2 85.6 63.1 128.6 94.4 30.2 22.1 60.2 44.4 90.6 66.4 0.4-33.5-0.1-67 0.2-100.4-0.2-2.4 0.4-5.4-2-6.8-15.9-11.8-31.5-23.9-47.8-35.3-14.2-10.4-28.2-21.2-42.5-31.5-29.2-21.4-58.1-43.1-87.4-64.4-15.6-11.4-30.9-23.3-46.8-34.3-20.4-15.6-41.3-30.7-62.1-45.9-20.1-14.6-39.9-29.5-60-44-2.8-2-5.4-5-9.1-5-14.8 0.6-29.5 0.7-44.3 0.8zm-639.6 0.9c0 123.3 0 246.5 0 369.8 207.1-0.1 414.2 0 621.3 0 0-123.3 0-246.5 0-369.8-207.1 0-414.2 0-621.3 0zm640.4 118.9c-0.4 32.9 0.6 65.8 0.6 98.6-0.2 3.5 3.1 5.4 5.5 7.3 8.3 6 16.8 11.7 24.9 18 28 20.4 56.3 40.4 84.2 60.9 14.4 9.8 28.1 20.6 42.2 30.7 18.1 12.9 36.1 26 54 39.2 3.3 2.3 6.6 5.7 11 5.5 33 0 66-0.2 98.9-0.2 12.1-0.2 24.2 0.3 36.2-0.5-27.2-20.1-54.7-40-82.2-59.8-12.8-9.2-25.2-18.9-38.1-27.9-44.4-31.9-88.4-64.2-132.8-96.2-13.9-10.5-28.5-20.1-42.3-30.7-8.7-6.7-17.9-12.7-26.6-19.4-11.8-8.6-23.5-17.3-35.5-25.5zm1.2 169.3c-0.2 13.4-0.1 26.9 0.4 40.3 0 14 0.2 28 0.2 42 0.1 2.6 0.2 5.6 2.1 7.6 1.7 1.7 4.3 1.5 6.5 1.7q22-0.1 44-0.2c12.3 0.2 24.6-0.5 36.9 0.1 12.9-0.3 25.7-0.4 38.5-0.4-13.2-9.5-26.7-18.7-39.7-28.6-15.6-10.7-30.8-21.7-46.3-32.6-14.3-9.9-28.2-20.3-42.6-29.9zm-627.1 111.7c-8.2 10.7-16.9 21-25.3 31.6 8.7 10.2 16.5 21.2 25.1 31.5 4.2 0.7 8.4 0.2 12.6 0.3q286.9 0 573.7 0c8.4-10.6 16.7-21.3 25.2-31.8-8.4-10.6-16.8-21.2-25.2-31.7-195.4 0.2-390.8 0.1-586.1 0.1zm616 0.6c3.8 5 7.3 10.2 10.8 15.4 3.6 5.5 8.2 10.4 10.8 16.5-1.6 3.9-4.4 7.2-6.8 10.7-4.7 6.8-9.5 13.5-13.8 20.6 6.1 0 12.2 0.7 18.3-0.2 2.7-2.3 4.4-5.5 6.6-8.4 5.4-7.5 10.7-15.1 15.9-22.8-6.9-9.5-13.4-19.3-20.3-28.9-0.9-1-1.6-2.5-3.1-2.5-6.1-0.7-12.3-0.5-18.4-0.4zm51.9-0.1q11.6 15.9 22.6 32.1c-7.1 10.5-15 20.6-22 31.2 6.4 0 13.1 1 19.5-0.4 7.7-10 14.3-20.8 22.1-30.8-7.4-10.8-15.3-21.3-22.7-32-6.5-0.3-13-0.4-19.5-0.1zm57.2 0c3.7 5.9 8 11.5 12 17.3 3.1 4.9 7.4 9.1 9.7 14.6-2.2 5-6.2 9-9.2 13.6-3.8 6.1-8.4 11.6-12.1 17.8 6.3 0.1 12.6 0.8 18.8-0.2 3.2-2.1 4.7-6 7-9 4.3-7.2 9.9-13.5 14.2-20.8 1.5-2-0.8-4-1.7-5.7-6-7.8-11.3-16.1-17.1-23.9-1.2-1.4-2.4-3.3-4.4-3.5-5.7-0.9-11.5-0.3-17.2-0.2z"/><path class="e" d="m1196.3 66.9c40.2-0.8 80.4-0.2 120.7-0.7 3.3 0 7-0.2 9.8 2 28.4 20.3 56.9 40.4 85.4 60.7q4.7 3.3 9.5 6.5c0 30 0.1 60.1-0.1 90.1-6.9-4-13.1-9.1-19.8-13.4-18.2-12.3-36.1-25.2-54-38-43.5-30.1-86.4-60.9-129.6-91.2-7.4-5.2-15-10.2-21.9-16z"/><path class="e" d="m1389.8 66.7c8-0.3 16.1-0.2 24.2-0.3 2.5 0.1 6-0.2 7.1 2.7 1 6.9 0.2 13.8 0.2 20.7-10.5-7.6-21.5-14.7-31.5-23.1z"/><path class="e" d="m1119 82c0.3-5-0.6-10.4 2.3-14.8 16.1 11.4 32.3 22.8 48.5 34.1 15.1 10.9 30.4 21.7 45.7 32.2 27.9 20.3 56.4 39.6 84.3 59.7 14.5 10.5 29.4 20.6 44 31 16 11 31.6 22.5 47.6 33.5 10 7.2 20 14.6 30.2 21.6 0.3 26.2 0 52.4 0.1 78.7 0.1 3.9-0.1 7.8-0.3 11.7-14.1-9.9-28.2-19.8-42.2-29.8-16.5-11.2-32.3-23.2-48.8-34.3-15.3-10.3-30-21.4-45.3-31.8-13.7-10.3-28.3-19.6-42.1-29.9-37.1-26.1-74.3-52.2-111.2-78.7-4.9-3.2-9.8-6.5-14.4-10.1-0.1-24.4 1.2-48.7 1.6-73.1zm146.1 131.1c-3.8 5.6-8.6 10.6-11.3 16.9 6.6 4.4 12.8 9.4 19.4 13.9q1.9-2.9 3.9-5.8c-4.4-3.2-8.9-6.3-13.4-9.3 5.7-8.5 12-16.6 17.7-25.1q-3.2-2.3-6.3-4.6c-3.4 4.6-6.7 9.3-10 14zm27.1 15.2c-7.1 2.2-12.1 10.2-10.8 17.6 1.1 6.2 7.2 11.2 13.6 11 8.2 0.6 14.5-7.3 15.2-14.9 0.7-9.1-9.5-16.4-18-13.7zm10.9 36.7q3.1 2.3 6.2 4.7 4.2-5.5 8.2-11.1c1.4 1 3 2 4.2 3.3 0.2 5.2-0.9 10.3-1.4 15.4q3.5 2.4 7 4.9c0.8-5.4 1.4-10.9 1.7-16.3 3.4-0.3 7.2-0.6 10-3 5.6-4.1 6.6-13.5 1.2-18.1-4.7-4.1-10.2-7-15.2-10.6-7.3 10.2-14.7 20.5-21.9 30.8zm39.1 2.9c1.7 1.2 3.3 2.7 5.2 3.5 2.6 0.6 6.2-0.4 8 2.2 1.3 1.6 0 3.7 0 5.5-4.7-1.2-8.7-4.1-13.4-5.2-5.9-1-11.1 5.5-8.9 11 2 5.3 8 7.4 13.3 6.6q-1.2 1.2-2.3 2.5c1.9 1.4 3.9 2.9 6 4.1 3.4-3.4 5.6-7.7 8.6-11.5 2.4-3.3 5.6-7.2 4.5-11.6-1.6-5.4-6.8-9.1-12.1-10-3.3-0.8-6.2 1.3-8.9 2.9z"/><path class="e" d="m1019.8 172.6c14.8-0.1 29.5-0.2 44.3-0.8 3.7 0 6.3 3 9.1 5 20.1 14.5 39.9 29.4 60 44 20.8 15.2 41.7 30.3 62.1 45.9 15.9 11 31.2 22.9 46.8 34.3 29.2 21.3 58.2 43 87.4 64.4 14.3 10.3 28.3 21.1 42.5 31.5 16.3 11.4 31.9 23.5 47.8 35.3 2.4 1.4 1.8 4.4 2 6.8-0.3 33.4 0.2 66.9-0.2 100.4-30.4-22-60.4-44.3-90.6-66.4-43-31.3-85.6-63.2-128.6-94.4-8.5-6.6-17.2-12.9-26-19-7.8-5.9-15.5-11.9-23.6-17.5-7.3-4.9-13.8-10.8-21-15.9-13.3-9.3-26.3-19.1-39.4-28.6-20.6-15.8-42-30.6-62.7-46.2-3-2.4-6.5-4.2-9-7.1-0.9-3.3-0.4-6.9-0.5-10.3 0.5-20.5-1-40.9-0.4-61.4zm149.6 115c-8.3 3.5-14.6 12.3-14.3 21.4 0 11.1 13.2 20.1 23.5 15.5 4.3-1.9 7.2-5.7 9.8-9.4-4.3-3-8.5-6-12.7-9.2q-1.8 2.1-3.6 4.3c2.2 1.9 4.4 3.7 6.6 5.6-2.4 1.2-4.8 3.4-7.7 2.7-4.2-1-8.3-4.8-7.9-9.5 0.5-5.7 4-11.2 9.1-13.8 4.2-2.1 9.6-0.5 12 3.5 1.4 2.1 0.6 4.7 0.5 7.1q3.3 2.4 6.7 4.7c1-3.1 1.9-6.3 1.2-9.6-1.7-10.1-13.5-17.3-23.2-13.3zm32.4 19.1c-5.3 7.3-10.8 14.6-16.2 21.9-1.5 2.2-3.4 4.1-4.2 6.7 1.8 1.7 3.9 3.1 5.8 4.5 4.9-6.3 9.4-12.8 14.4-19-0.1 9.1-0.7 18.2-0.9 27.3-0.5 3.5 3.5 4.6 5.8 6.3 7.5-10.3 15.2-20.4 22.6-30.7q-3.2-2.4-6.3-4.7c-5.3 6.2-9.6 13.1-14.6 19.5 0.4-9.9 0.5-19.8 1.2-29.7-2.3-1.2-5.4-5.7-7.6-2.1zm24 37.3c1 6.1 6.9 9.5 9.1 15.1 1 2-0.6 4.8-3 4.7-3 0.1-5.9-1.7-7.6-4.1-1.6-2-0.8-4.6-0.7-6.9q-3.3-2.2-6.5-4.4c-1.3 4.2-2.7 8.9-0.3 12.9 3.2 5.4 8.9 9.6 15.2 10.3 6.6 0.7 12.7-6.1 11-12.5-1.3-6.1-7.3-9.4-9.2-15.1-0.5-4.6 5.9-5 8.5-2.4 2.6 1.8 2.5 5.1 2.5 8 2.1 1.4 4.2 2.9 6.4 4.3 1.1-3.7 2.3-7.8 0.3-11.5-3-5.9-9.7-10.3-16.5-9.8-5.5 0.4-10.3 5.8-9.2 11.4zm27.1 21.1c1.3 5.3 6.2 8.6 8.8 13.2 1.3 1.9 0.2 4.3-0.1 6.3-3.6 0.3-7.5-0.4-9.7-3.5-2.2-2-1.4-4.9-1.3-7.4q-2.9-2.4-5.9-4.7c-1.9 4-3.2 8.8-0.9 13 3.3 5.7 9.5 9.9 16.2 10.3 5.8 0.3 11.4-5.4 10.4-11.3-0.8-6.2-6.7-9.7-9.2-15.1-1.7-2.9 1.8-6.3 4.8-5.2 4.4 0.8 7.1 5.3 5.9 9.6q3.1 2.1 6.3 4.3c1.8-3.8 2.5-8.4 0.3-12.1-3.5-5.9-10.6-10.2-17.5-8.7-5 0.9-9.3 6-8.1 11.3z"/><path class="e" d="m1294.4 235.4c2.9-2 7.3-0.5 8.1 2.9 1.1 4.9-2.3 9.8-6.6 11.8-3.4 1.6-7.8-1.3-7.4-5.1 0.2-3.9 2.7-7.5 5.9-9.6z"/><path class="e" d="m1327.5 244c2.8 2.1 6.3 3.7 7.9 7 1 3.4-1.9 7-5.4 7.3-3.4-0.7-6-3.3-8.8-5.3q3.1-4.5 6.3-9z"/><path class="e" d="m1340.2 282.1c0-1.6 1.5-1.9 2.8-2 3.2 0.3 6 2.1 8.9 3.5-2 1.6-3.8 4.6-6.7 4-2.6-0.5-5.7-2.6-5-5.5z"/><path class="e" d="m1020.6 292.4c12 8.2 23.7 16.9 35.5 25.5 8.7 6.7 17.9 12.7 26.6 19.4 13.8 10.6 28.4 20.2 42.3 30.7 44.4 32 88.4 64.3 132.8 96.2 12.9 9 25.3 18.7 38.1 27.9 27.5 19.8 54.9 39.7 82.2 59.8-12 0.8-24.1 0.3-36.2 0.5-32.9 0-65.9 0.2-98.9 0.2-4.4 0.2-7.7-3.2-11-5.5-18-13.2-35.9-26.3-54-39.2-14.2-10.1-27.8-20.9-42.2-30.7-27.9-20.5-56.2-40.5-84.2-60.9-8.1-6.3-16.6-12-24.9-18-2.4-1.9-5.7-3.8-5.5-7.3 0-32.8-1.1-65.7-0.6-98.6z"/><path class="e" d="m1021.8 461.7c14.4 9.6 28.3 20.1 42.6 29.9 15.4 10.9 30.7 21.9 46.3 32.7 13 9.8 26.5 19 39.7 28.5-12.8 0-25.6 0.1-38.5 0.4-12.3-0.6-24.6 0.1-36.9-0.1q-22 0.1-44 0.2c-2.2-0.2-4.8 0-6.5-1.7-1.9-2-2-5-2.1-7.6 0-14-0.2-28-0.2-42-0.5-13.4-0.6-26.9-0.4-40.3z"/><path class="e" d="m1010.7 574c6.1-0.1 12.3-0.3 18.3 0.4 1.6 0 2.3 1.5 3.2 2.5 6.9 9.6 13.4 19.4 20.3 28.9-5.2 7.7-10.5 15.3-15.9 22.8-2.2 2.9-3.9 6.1-6.6 8.4-6.1 0.9-12.2 0.2-18.3 0.2 4.3-7.1 9.1-13.8 13.8-20.6 2.4-3.5 5.2-6.7 6.8-10.7-2.6-6.1-7.2-11-10.8-16.5-3.5-5.2-7-10.4-10.8-15.4z"/><path class="e" d="m1062.6 573.9c6.5-0.3 13-0.2 19.5 0.1 7.4 10.7 15.3 21.2 22.7 32-7.8 10-14.4 20.8-22.1 30.8-6.4 1.4-13.1 0.4-19.5 0.4 7-10.6 14.9-20.7 22-31.2q-11-16.2-22.6-32.1z"/><path class="e" d="m1119.8 573.9c5.7-0.1 11.5-0.7 17.2 0.2 2 0.2 3.2 2.1 4.4 3.5 5.8 7.8 11.1 16.1 17.1 23.9 0.9 1.7 3.2 3.7 1.7 5.8-4.3 7.2-9.9 13.5-14.2 20.7-2.3 3-3.8 6.9-7 9-6.2 1-12.5 0.3-18.8 0.2 3.7-6.2 8.3-11.7 12.1-17.8 3-4.6 7-8.6 9.2-13.6-2.3-5.5-6.6-9.7-9.7-14.6-4-5.8-8.3-11.3-12-17.3z"/><path class="f" d="m882.5 89.8c5.1-1.2 11.1-1.2 15.5 2.1 4.6 3.9 5 10.7 3.8 16.3-2 8.6-5.6 17.3-12.2 23.4-5 4.7-12 7-18.7 6.2-4.7-0.3-9.4-3.1-10.9-7.7-1.9-5.9-0.5-12.3 1.4-18 3.6-9.7 10.5-19.7 21.1-22.3zm-1 8.9c-6.8 4.3-9.8 12.6-11.3 20.2-0.7 3.5-0.9 8.2 2.5 10.3 3.7 1.6 7.9-0.4 10.4-3.2 4.7-5.3 7.1-12.2 8.3-19.1 0.3-2.6 0.4-5.7-1.4-7.8-2.2-2.3-5.9-1.8-8.5-0.4z"/><path class="f" d="m924.9 89.9c5.9-1.7 13.3-1.5 17.9 3.2 3.5 3.6 3.3 9.1 2.6 13.7-2 9.8-6.3 19.8-14.4 26.1-6.3 4.8-15.6 6.9-22.9 3-4.2-2.2-5.4-7.3-4.9-11.7 3.3-0.1 6.7 0 10.1-0.1 0 3.2 2.2 6 5.6 5.5 7.9-0.7 11.7-8.6 14.5-15-3.7 3.3-8.1 6.6-13.4 6.3-5 0.3-11.3-2.2-11.9-7.8-1.3-10.5 7.1-20.2 16.8-23.2zm1.5 7.7c-4.1 1.4-7.3 5.2-7.9 9.5-0.4 2.5 0.9 5.5 3.5 6.1 7.1 2.1 14.3-5.3 13.3-12.3-1-3.7-5.7-4.6-8.9-3.3z"/><path class="f" d="m958.7 97.7c4.6-5.2 11.2-8.9 18.3-8.6 4.1-0.1 8.7 1.1 11.4 4.6 2 2.6 1.9 6 2 9.2-3.2 0-6.4 0-9.6 0.1-0.7-3.7-4.2-6-7.8-5.1-6.9 1.3-10.3 8.1-12.9 13.9 2.8-2.2 5.6-4.5 9.1-5.4 4.8-1.3 10.9-0.9 14.1 3.4 3.6 4.6 2 11-0.6 15.8-3.7 7.3-11.6 12-19.7 12.2-4.5 0.3-9.6-0.6-12.6-4.2-3.5-4.3-3.3-10.4-2.1-15.5 2.1-7.4 5.1-14.7 10.4-20.4zm6.5 16.5c-5.3 2-10.1 9.5-5.6 14.4 6.9 4.5 16.8-3.9 15.1-11.6-1.3-3.8-6.3-4.2-9.5-2.8z"/><path class="f" d="m427.8 137.2c5.6-15.8 10.6-31.7 15.8-47.6 4.3-0.1 8.5 0 12.8 0 1.2 10.5 2.2 21 3.4 31.5 7-9.4 14-18.8 20.9-28.3 1.2-1.2 2-3.6 4.1-3.2 3.9-0.1 7.7-0.1 11.6 0-5.1 15.8-10 31.8-15.2 47.6q-5.3-0.1-10.5 0c3.5-10.6 6.9-21.1 10.4-31.6-7.8 10.2-15 20.8-22.5 31.2q-3.7 0.1-7.4 0.1c-1.1-10.4-1.5-20.8-2.6-31.1-3.3 10.5-7 20.9-10.4 31.4q-5.2 0-10.4 0z"/><path class="f" d="m582 89.6q5-0.1 10 0.1c-2 6-3.6 12.1-5.9 18 4.2-5.3 11.4-8.2 18-5.8 4.1 1.4 5.6 6.3 4.5 10.2-2.2 8.5-5.5 16.7-8 25.1q-5.1 0-10.2 0 3.7-10.6 7-21.3c0.9-2.3 0.4-5.8-2.4-6.4-4.7-1-9.5 2.3-11.1 6.6-2.6 7-4.4 14.2-6.9 21.2q-5.2-0.1-10.4-0.1c5.1-15.9 10.4-31.7 15.4-47.6z"/><path class="f" d="m640.3 89.6q4.5 0 9.1 0c3.9 9.9 7.6 19.9 11.4 29.9 3.4-10 6.6-20 9.9-29.9q5.1 0 10.2 0c-5 15.9-10.4 31.7-15.6 47.6q-4.6 0-9.2 0c-3.9-10-7.6-20-11.1-30.1-3.5 10-6.8 20-9.9 30.1q-5.3 0-10.5 0c5.2-15.9 10.3-31.8 15.7-47.6z"/><path class="f" d="m754.2 89.6q5-0.1 10.1-0.1c-5 16-10.4 31.8-15.4 47.7q-5 0-10.1-0.1 1-2.9 2-5.8c-2.8 3.1-6.3 6-10.6 6.4-4.7 0.8-10.5-1.2-11.8-6.2-1.9-7.1 1-14.4 4.7-20.4 4.2-6.7 12.5-11.6 20.5-9.5 2.7 0.6 4 3.1 5.2 5.2 1.7-5.7 3.7-11.4 5.4-17.2zm-16.8 20c-3.8 1.6-6.1 5.5-7.6 9.2-1.1 2.9-2.1 6.7 0 9.4 1.7 2.2 5.1 2.1 7.4 1 4.2-2.3 6.6-6.8 7.9-11.3 0.8-2.6 1-5.9-1.2-7.9-1.8-1.3-4.4-1.1-6.5-0.4z"/><path class="f" d="m826.2 89.6c13 0 26-0.1 39 0.1-1 2.8-1.9 5.6-2.8 8.4q-7.2 0-14.5 0.1c-3.9 13.1-8.6 25.9-12.6 39q-5.2 0-10.3 0c4.2-13.1 8.6-26.1 13-39.1-4.8 0-9.6 0.1-14.4 0.1 0.8-2.9 1.7-5.8 2.6-8.6z"/><path class="f" d="m505.2 104.2c5-2.9 11-3.9 16.7-2.6 3.6 0.8 7 3.5 7.8 7.3 0.8 4.3-0.4 8.7-1.8 12.7-8.4 0.2-16.8 0.1-25.2 0.3-0.2 2.6-0.6 5.9 1.8 7.6 4.2 2.5 9.5 0.5 12.4-3.1 3.2 0.2 6.3 0.2 9.5 0.3-5.3 10.2-19.2 14.3-29.2 9.1-5.1-3.3-5.4-10.4-3.8-15.7 2-6.4 5.9-12.5 11.8-15.9zm-0.4 11.5c5.2 0.1 10.4 0.3 15.6-0.1 0.7-2.8-0.2-6.6-3.5-7.1-5.3-1-9.7 2.9-12.1 7.2z"/><path class="f" d="m538.1 109.1c3-5.1 9.1-7.4 14.8-7.9 4.4-0.3 9.6-0.4 13 2.9 2.1 2 1.9 5 2.3 7.6-2.9 0.1-5.7 0.1-8.6 0.4-1.6-6.4-11.7-5.2-13 0.9 4.8 3.7 11.6 2.2 16.1 6.3 2.5 2.3 1.8 6.3 0.5 9.1-3 5.9-9.8 8.8-16.1 9.4-4.7 0.3-10.1 0.3-13.8-3-2.4-2-2.5-5.3-2.7-8.2 3.6-0.2 7.1-0.2 10.7-0.2 0 0.7-0.1 2.2-0.1 2.9 2.5 1.5 5.5 2.1 8.3 1.1 2.2-0.6 4.6-2.8 3.7-5.3-4.5-3.1-10.7-1.8-14.9-5.5-3.1-2.6-2.1-7.4-0.2-10.5z"/><path class="f" d="m696.4 101.6c4.7-0.9 10-1 14.1 1.7 3.5 2.3 5.2 6.6 4.7 10.6-0.6 5.5-2.8 10.7-6.1 15.1-5.5 7-15.1 10.4-23.7 8.4-3.5-0.9-6.5-3.5-7.7-6.9-1.9-5.2-0.1-10.8 2.2-15.6 3.1-6.6 9.3-11.8 16.5-13.3zm0.7 7.4c-5.2 2.1-8.2 7.7-9.4 13-0.6 2.9-0.2 7.1 3.2 8 4.3 1.2 8.3-2.1 10.5-5.6 2.2-3.6 4-8 3.2-12.3-0.8-3.2-4.7-4.2-7.5-3.1z"/><path class="f" d="m774.4 103.4c4.1-2.2 9-2.8 13.6-2.1 3.6 0.6 7.1 2.6 8.5 6 1.6 3.6 0.8 7.7-0.2 11.3-0.5 1.2-0.6 3.3-2.4 3-7.8 0.3-15.7 0.1-23.5 0.2-0.3 2.7-0.9 6.3 1.9 7.9 4.2 2.1 9.1-0.1 12.1-3.2q4.7 0.1 9.4 0.2c-2.7 4.3-6.3 8.3-11.2 9.8-5.4 1.8-11.7 2.2-17.1-0.2-4.6-2.1-6.2-7.7-5.5-12.4 1.3-8.5 6.4-16.7 14.4-20.5zm-2 12.3c5.2 0.1 10.4 0.2 15.5 0 0-1.5 0.1-3.1-0.2-4.6-1.3-2.9-5.1-3.1-7.7-2.3-3.5 0.9-5.8 4-7.6 6.9z"/><path class="f" d="m380.2 173.5c207.1 0 414.2 0 621.3 0 0 123.3 0 246.5 0 369.8-207.1 0-414.2-0.1-621.4 0 0.1-123.3 0-246.6 0.1-369.8z"/><path class="f" d="m465.8 590.6q10.1 0 20.1 0.1 0 2.6 0 5.2c-4.6 0.1-9.2 0.3-13.7 0.2q0 3.6 0 7.3c4.2 0 8.4-0.1 12.6-0.1q0 2.7 0 5.4-6.3 0-12.6 0c0 4.2 0 8.3 0 12.5q-3.2 0.1-6.4 0.1c0-10.2-0.1-20.5 0-30.7z"/><path class="f" d="m519.2 593.2c3.3-3.4 8.6-3.6 12.9-2.2 4.6 1.5 7.5 7.2 5.4 11.7-2.5 5.5-7.7 8.9-11.9 13 4.3 0.1 8.6 0.1 12.9 0.1q0 2.8-0.1 5.5c-7.2 0-14.4 0.1-21.7 0q0.1-2.3 0.3-4.5c3.9-5 9.3-8.6 13.4-13.3 2.5-2.5 1.6-7.9-2.4-8-3.2-0.7-5.1 2.1-5.9 4.8q-2.9-0.1-5.9-0.1c0.7-2.5 1.1-5.2 3-7z"/><path class="f" d="m543.7 597c2.5-9.3 18.6-9.2 21 0.1 1 3.4-1.5 6.2-4 8.2 2.1 1.4 4.4 3.1 5.1 5.7 1.3 4-1.5 8.1-5.2 9.5-4.7 2-10.6 1.9-15-1.1-3-2-4.2-6.3-2.8-9.6 1-1.9 2.9-3.1 4.6-4.3-2.5-2-4.8-5.1-3.7-8.5zm8.8-1.5c-2.7 0.5-3.8 4.1-2 6 2.1 2.8 7.2 2.2 7.9-1.4 1.1-3.5-3.1-5.7-6-4.6zm-0.2 12.8c-2.2 0.6-4.2 3.2-3 5.6 1.6 4.4 9.5 4 10.2-0.9 0.4-3.6-4.1-6.1-7.2-4.8z"/><path class="f" d="m607.4 590.6c3.6-0.7 7.9-0.4 10.7 2.2 3.5 3 4.7 7.8 4.8 12.2 0.1 4.6-0.5 9.7-3.6 13.3-4.9 5.6-15 4.5-18.7-1.8-2.6-4.4-2.7-9.7-2.1-14.6 0.6-4.9 3.7-10.2 8.9-11.3zm1 5.7c-3.1 2.1-3.6 6.2-3.7 9.7 0.1 3.5 0.5 7.8 3.7 10 2.7 1.7 6.1-0.5 7-3.4 1.3-4.3 1.4-9.2-0.3-13.5-0.9-2.6-4.2-4.5-6.7-2.8z"/><path class="f" d="m438.2 590.7c4.9 0 9.9-0.3 14.8 0.1 5.4 0.4 9.3 6.1 8.1 11.3-0.4 3.2-2.5 5.7-5 7.6 2.2 3.8 4.2 7.7 6.2 11.6q-3.5 0.1-7 0c-2-3.7-3.9-7.5-5.9-11.2q-2.3 0.1-4.6 0.1 0 5.6 0 11.1-3.3 0-6.6 0.1c-0.1-10.3 0.1-20.5 0-30.7zm6.5 5.4q0 4.5 0.1 9.1c2.3-0.1 4.8 0 7.1-0.6 3.3-1 3.8-6.5 0.6-7.9-2.4-1.1-5.2-0.5-7.8-0.6z"/><path class="f" d="m492 590.7c6.3-0.1 12.5 0 18.8 0q-0.1 2.6-0.1 5.2c-4.4-0.1-8.9-0.1-13.3-0.1-0.3 2.4-0.6 4.8-1 7.1 3.2-2 7.3-2.6 10.8-1 6.2 2.9 7.1 12.8 1.9 17.1-6.3 5.6-18.3 2.4-19.7-6.3q3-0.1 6.1-0.2c1.3 2.4 3.4 4.8 6.5 4 5.1-0.7 5.5-8.6 0.9-10.3-2.7-1.4-5.2 0.4-7.2 2.1q-2.6-0.6-5.2-1.1c0.3-5.5 1.2-11 1.5-16.5z"/><path class="f" d="m582.5 590.7q4 0 8 0c0 6.5 0.1 13.1 0 19.7q2-0.1 4-0.1 0 2.6 0.1 5.2-2 0.1-4 0.2 0 2.8 0 5.6-3.1 0-6.1 0-0.1-2.8 0-5.6c-5 0.1-9.9 0.1-14.8 0.2q0-2.8 0-5.5c4.1-6.7 8.8-12.9 12.8-19.7zm-6.2 19.8q4.1 0 8.3 0.1c-0.1-4.3-0.2-8.7-0.4-13-2.7 4.3-5.4 8.5-7.9 12.9z"/><path class="f" d="m417.4 601.9c3.6-5 13.1-5.1 15 1.5 0.9 5.9 0.2 11.9 0.5 17.9q-3.2 0-6.4 0c-0.1-5.1 0.4-10.2-0.3-15.2-1-3.5-6.8-3.6-7.7 0-0.6 5-0.2 10.1-0.4 15.2q-3.2 0-6.3 0c0.1-7.6-0.1-15.2-0.1-22.8q3.2 0 6.3 0c-0.1 0.9-0.5 2.5-0.6 3.4z"/><path class="g" d="m19 241c3-1.7 6.7-1 10-1.2 10.3 0.2 20.6 0 31 0.1 47.3 0 94.8 0.1 142.1 0 3 7.3 4.6 15 5.2 22.9-64 0.1-127.9 0-191.9 0.1 0.1-7.3-1.5-15.9 3.6-21.9z"/></svg>