<svg width="1456pt" height="960" viewBox="0 0 1456 720" xmlns="http://www.w3.org/2000/svg"><g fill="#fff"><path d="M63.23 80.28c18.99-18.16 38.08-36.22 56.86-54.59 86.64-.18 173.28.12 259.92.12 70.99-.05 141.98.43 212.97.35 238.24.35 476.47.53 714.7.89.06 23.69.04 47.39-.01 71.08-290.24-.08-580.49.01-870.74 0-2.21-.39-3.38 1.96-3.1 3.86 0 165.66-.1 331.33-.09 496.99-.11 2.34-.08 6.23 3.22 6.11 28.73.22 57.48.02 86.22.05-.09 2.11-.22 4.22-.45 6.33-.67 5.04-.31 10.15-.34 15.24.98 0 1.97.01 2.96.02-.02-2.37-.01-4.75-.14-7.11 2.06 0 4.12.01 6.19.05.03 2.25-.07 4.51.19 6.76l2.53.44c.1-2.38.21-4.75.3-7.11 1.11.03 2.23.08 3.36.14.17.56.51 1.67.68 2.22.52 2.55 2.79 4.71 5.47 4.7 2.35.21 4.45-1.02 6.49-1.99-1.65-2.06-3.71-1.82-5.62-.18-1.8-.89-3.46-2.06-4.44-3.85 3.74-.3 7.54.04 11.23-.78.49-.06 1.45-.17 1.94-.23.53 2.11.36 4.87 2.48 6.18 1.84 1.39 4.35 1.08 6.12-.26 1.15.49 2.31.97 3.49 1.44.18-2.51.28-5.01.38-7.5 4.11-.02 8.22.04 12.32-.11.03 2.36.05 4.72.07 7.09 4.61.05 9.22.09 13.84.04-.01-.96-.01-1.91-.01-2.86-3.64-.03-7.28-.06-10.91-.03-.02-1.46-.02-2.91-.02-4.35 7.3-.12 14.61-.05 21.92.08.69 2.47 1.42 4.94 2.22 7.39.93-.13 1.86-.25 2.8-.37.8-2.44 1.64-4.86 2.52-7.26 3.78.16 7.57.12 11.36.09-.01 2.49-.03 4.98-.05 7.48 1.02.02 2.05.05 3.09.09.02-2.51-.01-5.01-.08-7.51 2.23.01 4.47 0 6.71 0 .24.9.49 1.8.77 2.71 1.25 5.97 10.75 6.43 13 .95.14-.93.42-2.81.56-3.75l.31.07c1.1.34 2.19.76 3.27 1.22-.18 2.26.82 4.57 2.81 5.74 1.73.97 3.66.04 5.35-.52 1.17.36 2.34.75 3.52 1.15.04-2.58.04-5.16.01-7.73l3.93.03c-.36 4.28 3.35 8.18 7.71 7.61 2.57.36 4.85-1.21 5.09-3.84-2.77.22-5.8 2.24-8.35.34-1.51-.79-1.3-2.74-1.77-4.12 4.78-.04 9.57-.19 14.35.2l.32.42c-1.95 4.09 3.66 8.14 7.47 6.81 2.22-.16 3.09-2.4 4.09-4.03 11.61-.35 23.24-.29 34.84-.88 7.69-.79 14.7 6.64 14.21 14.19-.01 14.82.21 29.64.39 44.46-210.5.13-421-.02-631.5.08-16.86-16.77-33.91-33.35-50.64-50.25.24-44.72-.15-89.44.13-134.16 8.28-8.29 16.64-16.49 24.9-24.8 1.97 2.1 4.39 4.13 7.45 4.05 6.65.2 13.35.24 19.99-.24 3.31-.1 3.54-5.41 7.03-4.93 27.2.04 54.4-.08 81.6.03 1.44 2.72 3.11 5.97 6.51 6.49 7.24 1.02 14.6.26 21.9.51 4.99-.12 11.14.9 14.66-3.57 5.93-5.88 1.97-17.37-6.31-18.33-.06-3.19-.07-6.38-.07-9.56 4.88.11 9.76.05 14.64-.03.2-2.79.26-5.6.15-8.39-4.86-.05-9.71-.08-14.57-.13.07-1.54.14-3.08.22-4.61 4.85 0 9.7.01 14.55-.27-.08-2.73-.18-5.45-.3-8.18-4.87-.06-9.74-.18-14.61-.17-.03-1.68-.05-3.35-.07-5.02 4.9.18 9.81.15 14.72-.08.15-2.84.15-5.68-.01-8.52-4.82-.02-9.64-.04-14.45-.11.03-1.51.07-3.02.11-4.53 4.78-.1 9.56-.14 14.34-.17.18-2.81.21-5.63.11-8.44-4.83-.25-9.66-.27-14.49-.2.01-1.67.03-3.34.05-5 4.77.01 9.54-.01 14.31-.13.1-2.77.07-5.54-.09-8.31-4.87-.01-9.74-.04-14.61.02 0-1.72 0-3.44.02-5.15 4.96.2 9.92.18 14.88-.03.01-2.73-.03-5.46-.14-8.18-4.82-.3-9.64-.32-14.46-.24.06-1.6.13-3.21.22-4.8 4.77.05 9.54.02 14.31-.26.05-2.71.07-5.42.07-8.13-4.9-.44-9.83-.37-14.75-.43.14-1.41.31-2.81.49-4.21.21-.19.62-.56.82-.75 4.4.16 8.81.27 13.21-.04.08-2.74.1-5.48.07-8.21-4.79-.23-9.58-.22-14.37-.13-.02-1.62-.02-3.23 0-4.84 4.81.11 9.63.11 14.44-.07.11-2.87.07-5.75-.13-8.62-4.87-.11-9.75-.16-14.62.07-.02-1.69-.04-3.38-.05-5.06 4.84.21 9.69.19 14.53.12.16-2.84.2-5.67.13-8.51-4.78-.17-9.55-.17-14.32-.09-.02-1.7-.03-3.4-.04-5.1 4.81.03 9.62.05 14.43 0 .15-2.8.14-5.61-.03-8.41-4.94-.11-9.87-.21-14.8-.08.07-1.67.15-3.33.23-4.98 4.86.39 9.73.26 14.6.16.11-2.87.07-5.74-.1-8.6-4.73-.12-9.45-.13-14.18-.05-.32-5.21-.38-10.43-.01-15.64 4.79.06 9.57.07 14.36-.01.03-2.85.05-5.69.05-8.53-4.93-.17-9.87-.18-14.81-.08-.04-4.18-.07-8.37-.03-12.55 6.87-2.91 9.44-12.31 4.61-18.12-3.6-5.11-10.48-4.15-15.92-4.14-6.75.38-13.65-.68-20.29.93-2.8.57-4.16 3.28-5.71 5.38-21.35.01-42.7-.24-64.05.01-3.61.57-4.3-4.92-7.93-4.46-8.01-.13-16.03-.21-24.04-.11-3.08-.21-5 2.44-6.97 4.35-5.56-.07-11.16.33-16.69-.33-6.24-6.41-12.96-12.33-19.15-18.79-.69-.87-1.83-1.66-1.76-2.89.07-43.6-.1-87.2.02-130.8-.09-1.24 1.1-1.97 1.78-2.82m61.62-47.68c.37 13.18-.23 26.36.2 39.53 12.86.03 25.72.23 38.56-.18-.09-13.17.18-26.34-.08-39.5-12.89.26-25.79-.04-38.68.15m84.57 1c-7.47 1.58-13.62 7.8-15.22 15.25-2.01 8.48 2.41 17.88 10.05 21.97 6.97 3.98 16.22 2.92 22.4-2.07 9.98-7.62 9.49-24.43-.64-31.7-4.6-3.67-10.92-4.67-16.59-3.45m67.05-.03c-7.98 1.45-14.43 8.27-15.82 16.2-1.87 8.59 3.29 17.73 11.09 21.43 8.89 4.55 21.04 1.25 25.98-7.55 5.21-8.43 3.07-20.57-4.92-26.51-4.53-3.67-10.71-4.59-16.33-3.57m67.02-.01c-6.84 1.22-12.87 6.18-15.19 12.75-2.7 7.28-.77 16.1 4.99 21.37 6.81 6.74 18.55 7.55 26.13 1.61 9.37-6.7 10.47-21.91 2.31-29.98-4.6-4.89-11.68-7.03-18.24-5.75m63.84.84c-8.86 2.84-14.96 12.34-13.43 21.6 1 10.19 10.88 18.25 21.04 17.47 10.79-.4 20.02-10.75 18.74-21.58-.22-12.65-14.65-21.9-26.35-17.49m66.06.14c-9.26 3.32-15.09 13.85-12.54 23.44 2.03 10.16 12.99 17.31 23.12 15.23 10.44-1.78 18.36-12.71 16.18-23.22-1.66-11.95-15.57-19.98-26.76-15.45m67 .07c-8.7 2.9-14.58 12.3-13.33 21.4.76 7.5 6.18 14.2 13.3 16.62 9.3 3.37 20.8-1.3 24.91-10.36 3.82-8.26 1.52-19.1-5.93-24.57-5.27-4.21-12.61-5.27-18.95-3.09m67.94-.17c-7.97 2.04-14.16 9.4-14.77 17.6-.98 9.66 6.04 19.24 15.44 21.44 6.7 1.36 14.19-.51 19-5.51 5.33-5.28 6.99-13.6 4.56-20.64-3.15-9.72-14.37-15.87-24.23-12.89m67.05.01c-7.73 1.73-14 8.51-14.99 16.4-1.79 9.91 5.17 20.49 15 22.68 8.81 2.26 18.81-2.24 22.75-10.47 4.38-8.17 2.01-19.22-5.35-24.86-4.8-3.89-11.44-5.19-17.41-3.75m67.81-.16c-7.84 1.45-14.53 7.81-16.02 15.69-1.73 7.96 1.98 16.71 8.88 21.04 7.47 4.81 18.29 4.03 24.66-2.31 7.1-6.56 8.19-18.24 2.76-26.16-4.34-6.46-12.66-9.88-20.28-8.26m67.04.05c-5.75 1.14-11.32 4.48-14.24 9.68-3.33 5.61-3.46 12.88-.69 18.74 3.32 7 10.87 11.68 18.63 11.52 10.89-.03 20.67-10.24 19.61-21.22-.19-11.51-12.08-20.87-23.31-18.72m65.2.25c-4.5 1.08-8.52 3.83-11.4 7.4-3.68 4.63-4.61 10.93-3.59 16.64 1.63 7.5 7.97 13.84 15.56 15.22 6.77 1.44 14.11-1.02 18.83-6.04 4.67-4.69 6.15-11.89 4.79-18.23-1.96-10.58-13.93-17.54-24.19-14.99m67.05.05c-9.21 1.9-16.4 10.88-15.91 20.33.2 9.09 7.34 17.6 16.38 19.03 9.38 1.9 19.73-3.96 22.68-13.12 2.33-6.65.89-14.47-3.79-19.75-4.75-5.28-12.34-8.17-19.36-6.49m66.99-.02c-8.63 1.68-15.86 9.38-16.24 18.28-.66 8.28 4.38 16.55 11.99 19.82 9.1 4.18 21.02.17 25.64-8.75 3.42-6.43 3.17-14.77-1-20.8-4.32-6.53-12.69-10.15-20.39-8.55m66.01.07c-7.12 1.6-13.31 7.21-15.09 14.36-2.18 7.7.79 16.53 7.23 21.29 6.77 5.35 17.01 5.28 23.93.23 6.43-4.6 9.52-13.15 7.69-20.83-2.22-10.35-13.45-17.45-23.76-15.05m66.98-.08c-9.52 1.56-16.76 10.77-16.15 20.38 0 10.04 8.75 18.93 18.75 19.29 8.73.84 17.37-4.92 20.22-13.17 3.05-8.19-.03-18.29-7.29-23.23-4.42-3.24-10.19-4.28-15.53-3.27m66.91-.07c-9.97 1.62-17.67 11.42-16.4 21.54.46 10.93 11.27 19.59 22.02 18.25 10.02-.78 18.6-10.18 17.89-20.33.58-12.01-11.92-21.95-23.51-19.46m66.06.07c-9.29 1.78-16.47 10.84-15.92 20.31.05 9.28 7.33 17.86 16.54 19.21 8 1.58 16.5-2.49 20.65-9.43 4.66-7.99 3.24-19.41-4.01-25.42-4.65-4.1-11.17-5.99-17.26-4.67M302.8 87.02c-.21 10.26-.09 20.54-.1 30.8-6.55-.58-13.14-.25-19.7-.27-2.42-.22-4.66 1.96-4.58 4.37-.13 11.71-.14 23.42-.12 35.13-1.38 0-2.75.02-4.13.04-.01-7.25.32-14.52-.15-21.75-4.36-.1-8.73-.1-13.09-.08-.77 7.27-.26 14.59-.31 21.89-2.04-.02-4.07.02-6.1.04-.01 10.65-.02 21.29-.02 31.94 10.29-.1 20.59.01 30.88-.06-.14 6.65-.06 13.31-.13 19.96.1 1.19-.34 3.66 1.68 3.32 3.81-.12 8.14.85 11.64-.53.29-7.62-.04-15.27.12-22.9 9.83-.02 19.65-.14 29.48-.19.09-10.52-.1-21.03-.03-31.54-2.23-.06-4.45-.09-6.67-.12.19-6.75-.11-13.51.31-20.25.03-.37.09-1.11.13-1.48-4.54-.07-9.08-.06-13.62.05 0 7.22-.46 14.44-.33 21.66h-2.33c.05-8.18.05-16.36-.09-24.54 5.81.63 11.66.23 17.5.34 1.89-.1 4.15.28 5.65-1.2 1.62-1.39 1.44-3.77 1.55-5.71.07-12.66-.04-25.32.01-37.98.21-2.44-1.58-4.93-4.1-5.1-6.04-.21-12.1-.1-18.14-.07-2.51-.21-5.26 1.52-5.21 4.23m-68.33-2.42c-2.34.53-3.42 3.13-3.22 5.35-.01 13.05 0 26.09.02 39.14-.18 2.37 1.11 5.34 3.78 5.53 6.34.19 12.7.02 19.05 0 2.41.05 4.48-2.29 4.24-4.68.04-13.63.05-27.26-.02-40.89.25-2.81-2.58-5.08-5.28-4.65-6.19.11-12.39-.19-18.57.2M91.2 124.28c-7.96.24-15.93-.18-23.88.17-1.85.01-1.98 2.19-1.91 3.56.08 10.99-.01 21.98 0 32.97-.18 1.6.65 3.52 2.57 3.25 7.74.31 15.49-.04 23.23-.01.1 7.19-.2 14.4.13 21.58l.93.85c6.87.49 13.78.04 20.67.12 28.03.06 56.08.03 84.11.11 1.19-.04 2.97.06 2.72-1.66.17-7.01.35-14.03.35-21.04 7.97-.09 15.95.53 23.9 0 1.67.15 1.89-1.97 1.85-3.15-.14-11.05.06-22.1-.22-33.14-.29-1.15.02-3.29-1.68-3.36-7.93-.55-15.91.05-23.86-.18-.31-7.26.91-14.71-.61-21.84-35.98.07-71.95-.01-107.93.11-.8 7.18-.17 14.45-.37 21.66m253.35 11.29c-8.36 8.7-11.88 21.62-9.58 33.42 1.3 7.85 5.51 14.99 10.92 20.73-11.64-.12-23.29.05-34.93.03-1.95.01-4.26-.11-5.59 1.59-1.94 2.07-1.39 5.08-1.47 7.65.13 4.36-.17 8.73.13 13.07.06 2.59 2.04 5.31 4.87 5.04 13.04.15 26.08-.23 39.12-.21 2.19.18 4.8-1.33 4.8-3.74.23-6.15.12-12.32 0-18.47 13.85 8.57 33.51 6.68 45.21-4.79 9.82-8.79 14.14-23 11.29-35.8-1.49-7.45-5.33-14.38-10.77-19.65-8.26-7.98-20.21-11.95-31.6-10.31-8.51 1.04-16.39 5.41-22.4 11.44M109.89 191.7c-.02 10.36-.02 20.72-.02 31.07 1.47 0 2.94.01 4.42.01-.04-4.05-.02-8.1.01-12.14 4.49-.16 9.61 1.17 13.55-1.62 5.87-4.27 4.39-15.09-2.85-17.03-5.01-.58-10.08-.09-15.11-.29m26.66-.02c.06 10.43-.03 20.86.06 31.29 1.52-.13 3.04-.26 4.56-.43-.13-4.36-.08-8.72 0-13.08 2.02-.01 4.04-.02 6.06 0 2.29 4.42 4.61 8.83 6.82 13.29 1.74-.02 3.48-.05 5.23-.07-2.5-4.32-4.6-8.85-7.16-13.13 3.18-1.65 5.84-4.75 5.73-8.5.35-4.15-2.51-8.52-6.73-9.22-4.84-.35-9.71-.07-14.57-.15m28.75 4.69c-2.36 3.75-1.83 8.4-1.86 12.62.05 3.65.13 7.76 2.86 10.54 4.55 5.33 14.45 4.68 17.92-1.54 2.05-3.66 1.48-8.04 1.6-12.06-3.67.23-7.35.21-11.03.14-.05 1.44-.08 2.88-.11 4.33 2.3-.15 4.6-.18 6.9-.08-.42 2.13-.38 4.6-1.92 6.32-3.08 3.68-10.26 2.28-11.19-2.62-.54-4.35-.54-8.81-.14-13.17.57-3.79 5.08-6.09 8.55-4.65 1.92.7 2.92 2.61 4.07 4.16 1.57-.04 3.14-.08 4.71-.13-1.22-2.57-2.45-5.4-4.97-6.98-4.83-3.29-12.33-1.99-15.39 3.12m209.86 21.72c-.02 10.13-.09 20.26-.13 30.38-7.45.36-14.91.22-22.36.22-.42 4.33-.56 8.72-.18 13.06.19.22.58.66.78.88 7.29.31 14.62.13 21.93 0-.08 5.38-.15 10.76-.07 16.14-3.99-.95-8.11-.57-12.16-.59-8.31.03-16.62.05-24.92.01-3.19.05-6.54-.43-9.51 1.04.15-13.32.07-26.64.08-39.96-2.23 0-4.47.01-6.7 0 .07-5.83.45-11.76-.79-17.5-7.78-.39-15.57-.17-23.35.04-1.16 5.73-.35 11.61-.46 17.41-2.05-.04-4.09-.02-6.12.01-.17 14.45-.13 28.91-.04 43.36 12.02-.03 24.05.18 36.06-.14-.18 6.2-.11 12.41-.06 18.61-.33 3.12 3.09 4.96 5.82 4.61 13.04-.14 26.07 0 39.11-.11 1.82.1 3.83-.74 4.44-2.59.72-3.04.26-6.21.23-9.29 10.15-.11 20.32.21 30.48-.16-.21-1.6-.38-3.21-.52-4.81 7.6.09 15.23.41 22.82-.12.28-4.5.47-9.05-.22-13.52-7.52.3-15.04-.5-22.56.04.27-12.74.25-25.49-.01-38.22 7.59.17 15.27.77 22.81-.36.2-4.37.45-8.75.02-13.12-7.6-.36-15.21-.03-22.82-.18.1-1.69.19-3.38.31-5.07-10.64-.5-21.28-.12-31.91-.07m-115.51 35.89c-.81 11.3-1.28 22.73.11 34 .3 3.58-.49 7.29.54 10.77.78 2.4 3.74 1.77 5.67 1.94 5.82-.18 11.67.31 17.47-.24 2.38-4.55.78-10.2 1.35-15.19.11-8.8-.1-17.6.04-26.4-.05-4.47.23-8.99-.42-13.43-.65-2.38-3.58-1.72-5.43-1.88-5.97.18-11.98-.21-17.93.37-2.64 2.49-.99 6.8-1.4 10.06m37.64 29.2c.12 5.22-.41 10.5.37 15.68.54 1.83 2.84 1.43 4.29 1.65 6.48.11 12.96-.02 19.44-.06 1.09-5.69.54-11.49.41-17.23-8.17-.01-16.34-.1-24.51-.04m-29.84 27.45c-2.33.49-3.14 3.15-2.93 5.26.02 26.34.02 52.68.07 79.02-.16 2.38 1.98 4.38 4.35 4.18 13.69-.05 27.38.06 41.07-.01 3.27.22 4.39-3.46 4.13-6.09-.09-26.29.26-52.59-.33-78.88-.07-2.92-3.32-3.95-5.76-3.67-13.53.21-27.08-.14-40.6.19m1.52 95.22c.31 7.45-.69 15.01.65 22.38 3.52-.12 7.05-.27 10.58-.45l-.01.75c10.74-.12 21.48.18 32.21-.13 3.96-1.02 8.38.68 12.11-.82.62-6.18.15-12.42.35-18.63-.07-1.29.26-3.75-1.86-3.32-4.85-.09-9.74-.28-14.56.33-.09.58-.28 1.74-.37 2.33-7.12.17-14.24.03-21.37.1-.25-.64-.76-1.92-1.02-2.56-5.57-.36-11.15-.38-16.71.02m24.91 67.07c-.57 5.01-.28 10.09-.11 15.13.12 2.29.57 5.43 3.22 6.12 4.18.6 8.41.27 12.62.3 7.98-.3 15.96-.1 23.94-.1 5.17.03 10.35.24 15.51-.18 1.67-.02 3.14-1.52 3.29-3.15.58-4.66.04-9.36.14-14.04-.1-2.71.31-6.38-2.59-7.8-5.41-.91-10.97-.25-16.44-.35-7.98 0-15.95-.01-23.93-.07-3.85-.09-7.73-.4-11.55.13-2.07.22-3.89 1.91-4.1 4.01m63.4 10.97c-.07 13.38-.04 26.77.01 40.15-.25 2.49 1.69 4.31 3.74 5.35.65-.35 1.97-1.05 2.62-1.4-1.13-1.02-2.34-1.93-3.44-2.97-.5-13.35-.14-26.72-.34-40.08-.07-1.41.33-3.54 2.12-3.56 6.29-.06 12.6-.03 18.9.06 2.32.04 2.23 2.88 2.27 4.56-.17 13.23.01 26.45-.06 39.68 1.08.03 2.16.06 3.25.1-.39-13.25-.1-26.53-.26-39.79.27-1.49-.56-3.76 1.22-4.5 5.9-.2 11.82.01 17.72-.1 1.62-.18 4.13.45 3.87 2.59-.13 13.53.18 27.07-.05 40.6l2.81.27c.14-13.3.07-26.6.07-39.9.15-2.47-.76-5.62-3.54-6.14-5.38-.36-10.77-.03-16.16-.16-2.5.1-5.38-.5-7.39 1.4-1.17-.53-2.25-1.52-3.62-1.35-6.33-.08-12.67-.04-19.01.02-2.76-.18-4.93 2.54-4.73 5.17m33.5 1.91c-.54 2.85-.71 5.75-.7 8.65.12 6.13-.45 12.27-.05 18.4.23 2.71-.3 5.66 1 8.17 2.36 1.38 5.31.71 7.93.88 1.84-.27 4.27.39 5.63-1.23 1.17-2.43.85-5.21.73-7.8-.19-6.14-.05-12.28-.08-18.41-.22-2.8.57-6.28-1.28-8.56-4.24-1.15-8.83-.39-13.18-.1m-25.61.31c-2.1 2.15-1.24 5.69-1.07 8.41.33 6.13.11 12.27.21 18.41.23 2.85-.46 6.02.85 8.65 4.11.61 8.51 1.15 12.56-.03 2.44-2.15 1.44-5.85 1.63-8.71-.06-6.14-.08-12.28-.08-18.41.18-2.95.32-6-1.06-8.71-4.33-.05-8.78-.69-13.04.39m-254.4.52c.02 10.49-.12 20.99.03 31.49 1.52.03 3.05.06 4.57.08-.01-4.44-.04-8.88-.04-13.31 2.16.13 4.59-.52 6.58.42 2.77 4.04 4.13 8.88 6.98 12.89 1.87-.04 3.75-.06 5.62-.06-3.01-4.19-4.93-9.02-7.74-13.34 3.2-1.77 6.36-4.73 6.05-8.73.34-4.16-2.41-8.58-6.72-9.17-5.09-.54-10.22-.08-15.33-.27m30.56 15.4c3.88 2.96 9.31 1.7 13.33 4.28 2.67 1.71 1.52 5.88-1.08 7.03-4.36 1.84-9.8.92-13.23-2.38-1.07 1.33-2.13 2.65-3.18 4 5.24 3.67 12.39 4.55 18.39 2.41 5.76-1.93 7.23-10.61 2.53-14.36-3.82-3.21-9.4-2.02-13.42-4.75-2.48-1.75-1.38-5.7 1.19-6.75 3.73-1.75 8.29-.93 11.57 1.42.94-1 1.87-2 2.78-3.01-4.36-3.83-10.9-4.34-16.23-2.54-5.73 1.98-7.39 10.85-2.65 14.65m21.76-15.34v4.24c3.02-.1 6.04-.07 9.06.2-.15 9.03.01 18.06-.04 27.09 1.46-.04 2.93-.07 4.39-.1.17-9.07.04-18.14.14-27.21 2.98-.03 5.96-.03 8.94-.02l.03-4.24c-7.51.02-15.01.05-22.52.04m84.07 15.55c-2.57 1.21-2.4 4.4-2.39 6.8.13 5.35-.28 10.72.15 16.06.27 2.39 2.64 4.1 5 3.78 13.38-.02 26.76 0 40.14 0 2.7.39 5.1-2.08 4.97-4.72.05-6.07.26-12.16-.1-18.22-.03-2.6-2.51-4.54-5.02-4.31-12.63-.12-25.27.02-37.9-.08-1.61.12-3.41-.18-4.85.69M92.19 522.96c-.33 6.49-.31 13-.32 19.5-7.95.28-15.91-.13-23.85.19-2.27.86-1.79 3.48-1.88 5.4.15 10.68-.17 21.37.07 32.05-.15 2.05 1.99 3.18 3.78 3.08 7.29.11 14.59-.16 21.89-.03.03 6.64-.16 13.29.07 19.93-.01 3.33 3.86 2.54 6.05 2.66 34.14-.21 68.3.39 102.43-.34.91-7.43.28-14.96.4-22.42 7.74-.3 15.49.51 23.22.02 2.72-.12 2.34-3.13 2.42-5.07-.08-9.96-.08-19.92 0-29.88.11-1.91-.53-3.71-1.24-5.43-7.86-.19-15.72-.03-23.58-.09l-.78-.07c-.05-6.2.19-12.4.22-18.59.06-1.08-.48-2.98-1.92-2.66-34.42.05-68.84.28-103.26.03-1.29.13-3.81-.31-3.72 1.72m269.67 10.2c-.07 18.22-.07 36.45-.11 54.68 19.56.05 39.12.02 58.67.03-.08-18.31.03-36.62-.03-54.93-6.78.4-13.56-.04-20.34-.02-12.73.4-25.46.12-38.19.24m-118.21.77c-.15 7.71 0 15.43-.06 23.14 6.35.09 12.7.12 19.05-.05-.95-1.86-2.14-3.57-3.21-5.35-.77-5.95-.85-12.71 3.63-17.33-6.44-.68-12.94-.16-19.41-.41m38.9.21c.21 2.43 2.06 4.04 3.38 5.91.64 3.27.51 6.65.4 9.98.15 3.1-3.77 4.11-4.09 7.12 6.4.06 12.79 0 19.19-.06-.02-7.67.06-15.33-.09-22.99-6.27-.01-12.53.01-18.79.04m48.29 16.57c-.07 8.06.05 16.11-.01 24.16.04 5.49-.26 11.25 1.81 16.45 7.19-.09 14.38.11 21.57-.13 1.38-5.11 1.08-10.47 1.18-15.7-.18-8.31-.21-16.63-.1-24.94-.03-5.08.38-10.26-.62-15.27-7.48-1.02-15.25-.82-22.85-.91-1.6 5.31-.87 10.89-.98 16.34m-87.3 17.39c.07 7.65-.04 15.31.14 22.97 5.53.11 11.06.11 16.59.12-.04-5.03-.19-10.06.06-15.08 1.75-2.28 1.85-5.19 1.91-7.93-6.24-.04-12.47.04-18.7-.08m39.6.1c.06 3.05.61 6.06 2.07 8.78.45 4.62.02 9.3.24 13.95 5.33.25 10.66.16 15.99.15.14-7.67.09-15.35.01-23.02-6.1.17-12.21.13-18.31.14m-39.84 26.18c-1.8.76-3.38 2.48-3.18 4.56-.04 6.01-.14 12.03.04 18.05.06 2.42 2.18 4.79 4.71 4.62 13.74.13 27.48-.13 41.22.01 2.64.33 5.34-1.91 5.26-4.62.19-5.99.18-11.99.01-17.97.09-2.81-2.54-5.21-5.32-4.86-12-.11-24.01-.04-36.01-.11-2.24.06-4.55-.26-6.73.32m255.85 12.54c.05.69.16 2.08.21 2.77 2.35.53 3.39-.99 3.07-3.15-1.09.1-2.31-.25-3.28.38m-49.43-.37c.01 6.68-.01 13.37-.04 20.05 4.72-.25 11.5 1.55 14.06-3.75 1.05-4.02 1.09-8.56-.11-12.54-2.6-5.22-9.25-3.28-13.91-3.76m18.58 10.31c-.3 2.76-.66 6.21 1.66 8.26 2.88 2.72 7.42 1.73 10.49-.17-1.02-3.69-5.01.31-7.35-1.14-1.58-.34-1.84-2.14-2.56-3.27 3.31-.06 6.63.07 9.95-.1-.31-2.19.09-4.76-1.58-6.47-3.07-3.37-9.89-1.83-10.61 2.89m16.07-2.58c-1.92 2.22-.15 5.99 2.74 6.06 1.96.64 5.9-.52 5.61 2.7-2.44 3.34-6.26-.59-9.3.35-.68 1.68 1.23 2.62 2.56 3.02 2.27.59 4.72.65 7 .04 3.2-.95 3.68-6.33.59-7.69-2.1-.68-4.35-.6-6.47-1.1-1.8-1.4.34-3.14 1.91-2.99 2.08.26 4.13.91 6.26.61-.45-1.17-.78-2.81-2.37-2.71-2.85-.5-6.57-.93-8.53 1.71m14.9-1.95c-.01 4.81-.03 9.63-.01 14.45.99-.06 1.98-.11 2.98-.15.04-4.79.03-9.57-.02-14.35-.99.01-1.98.02-2.95.05m7.07 3.68c-.71 3.29-1.02 7.61 1.84 10.01 2.23 1.68 5.04.52 7.17-.72-.54 1.55-.37 4.07-2.42 4.54-2.36 1.22-5.1-3.3-6.6.26 2.86 4.45 11.34 2.89 11.65-2.75.25-4.98.29-10.04-.43-14.97-1.85.28-3.71.5-5.52-.06-2.51-.71-5.24 1.17-5.69 3.69m-294.96 19.51c-8.87 1.52-16.23 9.52-16.73 18.55-.67 6.45 2.28 12.98 7.25 17.06 7.05 6.11 18.44 6.26 25.66.37 7.96-6.29 10.02-18.8 4.17-27.17-4.19-6.72-12.6-10.23-20.35-8.81m66.07.12c-8.92 1.83-15.99 10.24-16.13 19.36-.31 6.9 3.36 13.71 9.08 17.51 7.16 4.76 17.3 4.24 24.04-1.04 5.6-4.29 8.15-11.7 7.22-18.59-1.1-11.32-13.07-20.1-24.21-17.24m67.03-.02c-8.95 1.75-16.03 10.22-16.14 19.35-.45 8.96 5.96 17.83 14.72 19.97 6.45 1.74 13.8.43 18.93-3.97 4.92-4.09 7.47-10.62 6.83-16.97-.36-11.81-12.89-21.17-24.34-18.38m67.03.02c-5.52 1.09-10.48 4.6-13.4 9.39-4.77 7.92-3.32 19.06 3.56 25.32 5.43 5.28 13.92 6.67 20.97 4.2 7.87-2.95 13.8-11.04 13.15-19.6.24-12.16-12.51-22.19-24.28-19.31m66.93.04c-9.23 1.89-16.64 10.79-16.23 20.31-.28 10.52 9.34 19.88 19.78 19.77 7.62.24 15.33-4.15 18.57-11.13 3.59-7.12 2.36-16.3-2.86-22.31-4.55-5.52-12.27-8.18-19.26-6.64m67.02-.06c-8.97 1.81-16.19 10.16-16.34 19.38-.48 6.98 3.24 13.97 9.23 17.56 6.8 4.31 16.18 4.25 22.81-.38 7.12-5.11 10.37-15.07 7.25-23.33-3.09-9.29-13.24-15.6-22.95-13.23m66.92-.09c-8.82 1.43-15.99 9.51-16.48 18.42-.81 7.88 3.69 15.79 10.63 19.49 4.44 2.54 9.84 2.87 14.77 1.77 7.96-1.82 14.42-9.09 15.03-17.28.64-5.54-1.03-11.29-4.73-15.48-4.54-5.58-12.19-8.15-19.22-6.92m66.99-.05c-8.52 1.49-15.35 8.95-16.33 17.51-1.54 8.95 4.19 18.27 12.56 21.5 6.57 2.56 14.42 1.46 20.06-2.76 6.21-4.73 8.89-13.24 7.19-20.76-2.21-10.21-13.12-17.75-23.48-15.49m-551.9.02c-.17 13.3.04 26.6-.01 39.9 13.48.15 26.95.08 40.42-.01-.21-13.33.02-26.66-.25-39.98-13.39.18-26.77.06-40.16.09z"/><path d="M436.55 100.77c294.97-.2 589.94.06 884.9-.1.08 8.31.16 16.62.08 24.94-8.12.17-16.26-.1-24.36.48-20.25.12-40.5.21-60.74.56-.19-8.13.29-16.29-.5-24.4-53.3.12-106.6.59-159.91 1.03-96.33.65-192.67 1.07-289.01 1.77-82.01.35-164.02.75-246.03 1.31-6.73.17-13.49-.31-20.21.38-.26 50.43.55 100.87.56 151.3.39 114.69 1.11 229.38 1.62 344.07-8.39.16-16.79-.14-25.18.19-20.41.02-40.82.03-61.24-.02-.17-167.17.13-334.34.02-501.51zm-322.27 95.26c2.93-.13 5.88-.36 8.8.07 5.01.49 5.13 9.15.4 10.16-3.04.45-6.13.23-9.19.27-.06-3.5-.07-7-.01-10.5zm1272.22 28.28c-.02-7.61-.21-15.21-.29-22.82 6.53 6.56 13.16 13.03 19.65 19.63 1.05 1.06 2.15 2.26 1.86 3.9-.07 30.67-.1 61.33-.03 92-.24 57.05.3 114.1-.24 171.14-27.79 27.76-55.34 55.77-83.02 83.65.18-36.58-.02-73.16.06-109.73 2.61 8.5 5.68 16.86 8.59 25.26l3.97.12c3.43-10.29 7.14-20.48 10.46-30.8-1.65-.03-3.29-.05-4.91-.06-2.57 7.96-5.24 15.88-7.71 23.86-2.36-7.99-4.92-15.92-7.48-23.84-.74.02-2.23.05-2.97.07.05-54.99.03-109.99.01-164.98 8.98.02 17.97 0 26.95-.29 7.56.07 15.14 0 22.7-.23 3.23-.04 6.09-1.72 8.6-3.63 6.34-.06 12.68-.1 19.03-.02-.05-21.08-.36-42.15-.39-63.22-4.95.04-9.9.05-14.84-.01m-41.62 78.23c.34 6.2.26 12.41.31 18.63-1.65.21-2.6-.57-2.87-2.34l.2-1.72c-1.78-.17-3.57-.29-5.32-.41-.01 2.69.05 5.39.05 8.08l-.28.24c-.49 20.03-.07 40.07-.17 60.11l.24.22c-.19 2.62-.09 5.25.18 7.87l5.35-.03c-.13-1.33-.26-2.65-.38-3.96h2.95c.05 6.36-.03 12.71-.29 19.06 19.96-.05 39.93.08 59.89-.16 0-7.68.03-15.36-.12-23.03 1.09-3.92.34-8.1.53-12.12-.29-15.7.43-31.44-.42-47.12-.07-7.77.19-15.56-.22-23.32-19.88.06-39.76-.08-59.63 0m9.58 155c-2.57 1.5-3.66 4.4-4.42 7.12 1.47-.01 2.97-.02 4.48-.05.95-1.78 2.06-4.16 4.47-4.04 3.74-.57 5.55 4.34 3.83 7.14-1 2.11-3.63 1.35-5.47 1.54-.09 1.39-.15 2.79-.19 4.2 2.09.27 4.95-.2 6.17 2.01.77 2.05 1.01 4.67-.11 6.65-2.71 3.09-8.18 1.31-9.17-2.5-1.52.02-3.03.05-4.51.1.72 2.26 1.4 4.8 3.47 6.25 3.7 2.66 9.14 2.39 12.87-.09 4.05-3.77 3.79-11.87-1.56-14.39 4.29-2.49 4.77-8.94 1.68-12.54-2.88-3.07-7.97-3.36-11.54-1.4m28.6 7.54c1.09.03 3.28.08 4.38.11.78-2.83 3.44-5.39 6.59-4.35 3.19 1.1 3.4 5.34 1.55 7.73-3.34 4.91-7.8 8.97-11.07 13.95-1.03 1.41-.89 3.23-1.14 4.87 6.14.1 12.29.09 18.44-.02-.02-1.39-.02-2.77 0-4.14-4.02-.03-8.05-.06-12.06.07 3.36-5.03 7.99-9.2 10.73-14.62 2.68-4.94-.64-12.07-6.53-12.23-5.46-1.1-10.55 3.18-10.89 8.63m-9.49 17.14c-.02 1.79 0 3.59.05 5.39 1.59-.03 3.19-.04 4.82-.05.05-1.69.11-3.38.16-5.07a95.84 95.84 0 0 0-5.03-.27zM1237.4 292.77c.51 0 1.52.01 2.03.01 19.5.02 39.01-.3 58.5-.64 7.87-.48 15.75-.25 23.63-.44.27 78.75.05 157.49.16 236.24-.15 24.79.34 49.58-.28 74.36-27.59-.08-55.18.08-82.77-.01-.2-76.12-.23-152.23-.91-228.34-.06-27.06-.15-54.12-.36-81.18zm-1122 198.1c3.41.08 6.93-.45 10.27.48 3.85 1.59 2.9 7.89-.82 9.02-3.13.55-6.34.24-9.5.29-.06-3.27-.04-6.53.05-9.79zm1123.3 114.25c22.94 0 45.89.02 68.84 0-.05 25.14.11 50.27.03 75.41-95.25-.11-190.5.04-285.76-.09-.4-17.15-.49-34.3-.96-51.45-.36-7.1 5.99-13.59 13.03-13.66 12.55-.22 25.1-.05 37.65-.45 15.48.76 30.98-.15 46.47-.04 38.69-.28 77.39-.52 116.07-.85 4.53-.08 4.86-5.5 4.63-8.87m-162.3 30.5c-8.54 1.86-15.36 9.73-15.9 18.48-.98 9.26 5.71 18.31 14.48 20.93 6.93 1.87 15 .27 20.11-4.96 4.82-4.61 6.63-11.65 5.55-18.13-1.59-10.97-13.41-19.12-24.24-16.32m67.03-.02c-8.33 1.63-15.08 9.03-15.97 17.48-1.29 9.23 4.85 18.71 13.61 21.68 5.55 1.78 11.87 1.22 16.96-1.68 6.53-3.86 10.71-11.53 9.84-19.16-.54-11.81-12.93-21.1-24.44-18.32m67-.02c-8.3 1.59-15.22 8.86-16.03 17.33-1.32 8.77 3.89 18.23 12.24 21.43 4.69 1.83 10.05 1.96 14.81.3 7.91-2.93 13.88-11.03 13.33-19.62.18-12.11-12.57-22.29-24.35-19.44m67.03-.01c-4.37.86-8.4 3.22-11.3 6.59-6.8 7.44-6.56 20.12.47 27.34 6.04 6.82 16.84 8.24 24.71 3.84 9.14-4.65 12.68-16.95 8.37-26.07-3.46-8.46-13.31-13.65-22.25-11.7zm-824.78-26.35c2.9.14 6.9-.47 8.36 2.77.47 3.13.57 6.47-.27 9.55-1.25 3.24-5.34 2.08-8.01 2.34-.11-4.89-.13-9.78-.08-14.66zm57.56 6.14c1.8-1.78 5.16.12 4.91 2.55.36 2.58.2 6.23-3.17 6.53-3.84-.99-3.59-6.46-1.74-9.08z"/></g><path d="M117.46 24.45c1.63-1.91 4.26-1.56 6.5-1.58 74.69.37 149.38.22 224.07.33 129.65.11 259.31.29 388.97.44 97.68.26 195.37 0 293.04.46 92.35.08 184.69.22 277.03.28 1.29-.14 2.35.61 3.43 1.22-.05 24.18-.08 48.36.05 72.53 3.5.02 7.01-.12 10.52.02 2.05-.24 3.47 1.91 3.22 3.8.11 7.85.02 15.7.15 23.55-.73.03-2.19.08-2.91.11.08-8.32 0-16.63-.08-24.94-294.96.16-589.93-.1-884.9.1.11 167.17-.19 334.34-.02 501.51 20.42.05 40.83.04 61.24.02 8.49.74 17-.01 25.49.53l-.08 2.31c-28.74-.03-57.49.17-86.22-.05-3.3.12-3.33-3.77-3.22-6.11-.01-165.66.09-331.33.09-496.99-.28-1.9.89-4.25 3.1-3.86 290.25.01 580.5-.08 870.74 0 .05-23.69.07-47.39.01-71.08-238.23-.36-476.46-.54-714.7-.89-70.99.08-141.98-.4-212.97-.35-86.64 0-173.28-.3-259.92-.12-18.78 18.37-37.87 36.43-56.86 54.59-.68.85-1.87 1.58-1.78 2.82-.12 43.6.05 87.2-.02 130.8-.07 1.23 1.07 2.02 1.76 2.89 6.19 6.46 12.91 12.38 19.15 18.79l.62.66c-1.43-.12-2.85-.21-4.28-.34-6.02-5.84-12.08-11.64-18-17.57-1.61-1.36-2.18-3.34-1.99-5.39-.02-43.32-.07-86.64-.03-129.96-.33-3.09 2.73-4.77 4.58-6.73 18.23-17.1 36.07-34.62 54.22-51.8zm1256.11 457.77c1.66.04 3.34.14 5.03.27-.05 1.69-.11 3.38-.16 5.07-1.63.01-3.23.02-4.82.05-.05-1.8-.07-3.6-.05-5.39zm-874.42 124.7c.97-.63 2.19-.28 3.28-.38.32 2.16-.72 3.68-3.07 3.15-.05-.69-.16-2.08-.21-2.77zm147.27 12.48c1.98-.12 3.96-.28 5.96-.3.36 1.78-.2 4.49 2.11 5.1 1.31-.1 2.58-.52 3.88-.79.09-1.41.18-2.82.29-4.21.68.01 2.04.04 2.72.06.03 2.57.03 5.15-.01 7.73-1.18-.4-2.35-.79-3.52-1.15-1.69.56-3.62 1.49-5.35.52-1.99-1.17-2.99-3.48-2.81-5.74-1.08-.46-2.17-.88-3.27-1.22z" fill="#030202"/><g fill="#ababab"><path d="M124.85 32.6c12.89-.19 25.79.11 38.68-.15.26 13.16-.01 26.33.08 39.5-12.84.41-25.7.21-38.56.18-.43-13.17.17-26.35-.2-39.53m16.56 7.07c-6.41 1.17-11.09 7.79-9.94 14.23.71 7.62 9.19 13.48 16.52 10.92 6.76-1.91 10.71-9.87 8.51-16.47-1.78-6.28-8.78-10.18-15.09-8.68zm202.08-6.11c6.56-1.28 13.64.86 18.24 5.75 8.16 8.07 7.06 23.28-2.31 29.98-7.58 5.94-19.32 5.13-26.13-1.61-5.76-5.27-7.69-14.09-4.99-21.37 2.32-6.57 8.35-11.53 15.19-12.75m1.93 7c-4.36.73-8.15 3.8-9.99 7.78-2.17 5.17-.37 11.65 4.07 15.05 4.58 3.74 11.95 3.38 16.19-.73 4.25-3.91 5.48-10.86 2.46-15.85-2.41-4.44-7.74-7.11-12.73-6.25zm61.91-6.16c11.7-4.41 26.13 4.84 26.35 17.49 1.28 10.83-7.95 21.18-18.74 21.58-10.16.78-20.04-7.28-21.04-17.47-1.53-9.26 4.57-18.76 13.43-21.6m2.03 7.09c-5.44 1.96-8.91 7.94-8.03 13.65.51 7.35 8.61 12.8 15.62 10.6 6.62-1.67 10.89-9.15 9.03-15.71-1.58-7-9.98-11.41-16.62-8.54zm64.03-6.95c11.19-4.53 25.1 3.5 26.76 15.45 2.18 10.51-5.74 21.44-16.18 23.22-10.13 2.08-21.09-5.07-23.12-15.23-2.55-9.59 3.28-20.12 12.54-23.44m2.82 6.79c-5.55 1.84-9.32 7.84-8.52 13.64.49 5.84 5.58 10.7 11.35 11.28 7 .82 14.03-5.04 13.87-12.22.76-8.48-8.66-15.91-16.7-12.7zm132.12-6.89c9.86-2.98 21.08 3.17 24.23 12.89 2.43 7.04.77 15.36-4.56 20.64-4.81 5-12.3 6.87-19 5.51-9.4-2.2-16.42-11.78-15.44-21.44.61-8.2 6.8-15.56 14.77-17.6m2.01 7.07c-5.47 1.41-9.54 6.81-9.23 12.48-.27 7.14 6.73 13.54 13.83 12.53 7.26-.72 12.88-8.44 11.05-15.57-1.34-6.85-8.97-11.45-15.65-9.44zm132.85-7.22c7.62-1.62 15.94 1.8 20.28 8.26 5.43 7.92 4.34 19.6-2.76 26.16-6.37 6.34-17.19 7.12-24.66 2.31-6.9-4.33-10.61-13.08-8.88-21.04 1.49-7.88 8.18-14.24 16.02-15.69m1.16 7.19c-4.73.99-8.79 4.86-9.8 9.61-1.87 7.25 3.78 15.5 11.38 15.73 7.17.71 13.87-5.63 13.57-12.85.54-7.81-7.65-14.32-15.15-12.49zm-435.59 74.67c4.99.56 10.01.39 15.02.41-.18 2.72.68 5.89-1.01 8.26-3.76 1.4-8.07.91-11.98.43-3.11-1.79-2.05-6.11-2.03-9.1zm-241.44 8.3c7.95-.35 15.92.07 23.88-.17 1.93-.03 3.87-.02 5.81-.01-.31 13.3-.16 26.6-.08 39.91-1.91.01-3.81.02-5.72.04-7.74-.03-15.49.32-23.23.01-1.92.27-2.75-1.65-2.57-3.25-.01-10.99.08-21.98 0-32.97-.07-1.37.06-3.55 1.91-3.56zm120.78-.1c4-.06 8-.07 12.01 0 7.95.23 15.93-.37 23.86.18 1.7.07 1.39 2.21 1.68 3.36.28 11.04.08 22.09.22 33.14.04 1.18-.18 3.3-1.85 3.15-7.95.53-15.93-.09-23.9 0-4 .01-8 0-12.01-.06.04-13.26.03-26.51-.01-39.77zm97.28 64.72c4.44-.14 8.87-.16 13.31-.15-.16 7.63.17 15.28-.12 22.9-3.5 1.38-7.83.41-11.64.53-2.02.34-1.58-2.13-1.68-3.32.07-6.65-.01-13.31.13-19.96zm-77.65 41.67c6.64-1.61 13.54-.55 20.29-.93 5.44-.01 12.32-.97 15.92 4.14 4.83 5.81 2.26 15.21-4.61 18.12-4.09.22-8.19.17-12.28.17-.08-3.16-.14-6.31-.18-9.47-2.65.01-5.29.02-7.93.04-.19 8.74.24 17.49-.09 26.23 0 4.06-2.52 8.11-6.47 9.4-4.85 1.51-10.02.26-14.95 1.24-3.24.75-5.09 4.1-4.8 7.29.09 13.01.02 26.02.13 39.03-.52 3.77 4.24 5.33 7.11 4.01 1.33-1.09 1.27-3.04 1.87-4.54.74-4.97 7.16-6.14 11.12-4.5 3.92 1.6 5.01 6.16 4.86 10-.02 13.68-.12 27.37.04 41.06-.13 3.02.29 6.42-1.63 8.99-3 4.36-10.31 4.45-13.46.25-1.09-2.08-1.44-4.45-2.38-6.59-2.71-1.12-7.71-.51-7.48 3.31-.19 12-.03 24.03-.11 36.04.05 3.54-.07 7.86 3.2 10.13 5.54 4.2 13.44-.39 18.92 3.92 3.08 2.24 4.14 6.24 4.09 9.89.03 8.42-.25 16.85-.03 25.28 2.62 0 5.24.01 7.86.03l.06-7.97c4.19.08 8.38.02 12.58.02 8.28.96 12.24 12.45 6.31 18.33-3.52 4.47-9.67 3.45-14.66 3.57-7.3-.25-14.66.51-21.9-.51-3.4-.52-5.07-3.77-6.51-6.49-27.2-.11-54.4.01-81.6-.03-3.49-.48-3.72 4.83-7.03 4.93-6.64.48-13.34.44-19.99.24-3.06.08-5.48-1.95-7.45-4.05-.05-.44-.13-1.34-.18-1.79-.91.27-1.81.56-2.7.88-4.15-.92-8.4-.3-12.6-.3-10.37.05-20.74.3-31.1.06-2.27.16-4.07-1.92-3.77-4.12.09-70.35-.12-140.7-.03-211.05.07-6.19-.67-12.54 1.41-18.5 2.46-.38 4.95-.68 7.45-.63 11.22.18 22.44-.04 33.65.03 1.43.13 2.85.22 4.28.34l-.62-.66c5.53.66 11.13.26 16.69.33 1.97-1.91 3.89-4.56 6.97-4.35 8.01-.1 16.03-.02 24.04.11 3.63-.46 4.32 5.03 7.93 4.46 21.35-.25 42.7 0 64.05-.01 1.55-2.1 2.91-4.81 5.71-5.38m-41.33 59.6c-2.83 1.46-2.18 5.02-2.31 7.64.17 6.66-.17 13.36.34 20.01.6 4.31 8.06 4.41 8.65.03.57-7.64.18-15.33.19-22.98.55-3.58-3.78-6.47-6.87-4.7m-.1 94c-2.44 1.26-2.02 4.35-2.15 6.64.08 6.9-.2 13.82.26 20.7.64 4.36 7.77 4.59 8.7.25.63-7.94.08-15.95.02-23.91.07-3.32-4.09-5.59-6.83-3.68zm186.37-135.65c7.45 0 14.91.14 22.36-.22.23 4.71.26 9.44.17 14.16-7.31.13-14.64.31-21.93 0-.2-.22-.59-.66-.78-.88-.38-4.34-.24-8.73.18-13.06zm992.21 53.85c19.87-.08 39.75.06 59.63 0 .41 7.76.15 15.55.22 23.32-1.41-2.49-3.65-4.91-6.75-4.81-17.59-.59-35.2.26-52.79.12-.05-6.22.03-12.43-.31-18.63z"/><path d="M239.37 329.48c4.87-.23 9.75-.18 14.62-.07.2 2.87.24 5.75.13 8.62-4.81.18-9.63.18-14.44.07-.02 1.61-.02 3.22 0 4.84 4.79-.09 9.58-.1 14.37.13.03 2.73.01 5.47-.07 8.21-4.4.31-8.81.2-13.21.04-.2.19-.61.56-.82.75-.18 1.4-.35 2.8-.49 4.21 4.92.06 9.85-.01 14.75.43 0 2.71-.02 5.42-.07 8.13-4.77.28-9.54.31-14.31.26-.09 1.59-.16 3.2-.22 4.8 4.82-.08 9.64-.06 14.46.24.11 2.72.15 5.45.14 8.18-4.96.21-9.92.23-14.88.03-3.15-.1-6.29-.13-9.44-.17-.01-2.7-.02-5.4-.01-8.09 3.1.01 6.2.01 9.31.02.02-1.8.04-3.6.07-5.4-3.09-.04-6.17-.07-9.26-.09-.06-2.67-.1-5.34-.14-8 3.08-.03 6.16-.03 9.24.01 0-1.52.02-3.03-.06-4.53-2.29-1.7-6.23-.43-9.15-.82-.01-2.7-.03-5.4-.03-8.1 3.08-.05 6.17-.08 9.26-.11 0-1.75 0-3.49.01-5.22l-9.31.03c0-2.74-.01-5.47-.01-8.2 3.19-.03 6.37-.07 9.56-.2zm4.28 204.45c6.47.25 12.97-.27 19.41.41-4.48 4.62-4.4 11.38-3.63 17.33 1.07 1.78 2.26 3.49 3.21 5.35-6.35.17-12.7.14-19.05.05.06-7.71-.09-15.43.06-23.14zm-54.89 8.62c4.3.03 8.59.03 12.89-.02 7.86.06 15.72-.1 23.58.09.71 1.72 1.35 3.52 1.24 5.43-.08 9.96-.08 19.92 0 29.88-.08 1.94.3 4.95-2.42 5.07-7.73.49-15.48-.32-23.22-.02-4.02.16-8.04.13-12.06.1.01-13.51.04-27.02-.01-40.53zm54.78 25.55c6.23.12 12.46.04 18.7.08-.06 2.74-.16 5.65-1.91 7.93-.25 5.02-.1 10.05-.06 15.08-5.53-.01-11.06-.01-16.59-.12-.18-7.66-.07-15.32-.14-22.97zm100.94 67.52c11.45-2.79 23.98 6.57 24.34 18.38.64 6.35-1.91 12.88-6.83 16.97-5.13 4.4-12.48 5.71-18.93 3.97-8.76-2.14-15.17-11.01-14.72-19.97.11-9.13 7.19-17.6 16.14-19.35m.84 7.8c-6.39 1.69-10.85 8.97-8.99 15.4 1.58 6.91 9.68 11.08 16.29 8.66 6.68-2.03 10.4-10.15 7.61-16.55-1.97-5.99-8.93-9.47-14.91-7.51z"/></g><path d="M209.42 33.6c5.67-1.22 11.99-.22 16.59 3.45 10.13 7.27 10.62 24.08.64 31.7-6.18 4.99-15.43 6.05-22.4 2.07-7.64-4.09-12.06-13.49-10.05-21.97 1.6-7.45 7.75-13.67 15.22-15.25m1.98 6.99c-4.65.85-8.67 4.49-9.73 9.14-1.81 6.48 2.3 13.77 8.68 15.76 7.42 2.27 15.98-3.65 16.24-11.45.8-7.95-7.31-15.37-15.19-13.45zm328.99-5.98c6.34-2.18 13.68-1.12 18.95 3.09 7.45 5.47 9.75 16.31 5.93 24.57-4.11 9.06-15.61 13.73-24.91 10.36-7.12-2.42-12.54-9.12-13.3-16.62-1.25-9.1 4.63-18.5 13.33-21.4m2.84 6.69c-7.15 1.96-10.9 10.76-7.91 17.42 2.71 6.47 11.28 9.56 17.46 6.14 4.78-2.26 7.5-7.73 6.8-12.92-.58-7.61-9.16-13.08-16.35-10.64zm732.2-6.69c6.09-1.32 12.61.57 17.26 4.67 7.25 6.01 8.67 17.43 4.01 25.42-4.15 6.94-12.65 11.01-20.65 9.43-9.21-1.35-16.49-9.93-16.54-19.21-.55-9.47 6.63-18.53 15.92-20.31m-.2 7.68c-5.58 1.85-9.07 7.96-8.28 13.71.43 5.01 4.16 9.53 9.06 10.76 7.13 2.24 15.38-3.24 16-10.72 1.78-8.97-8.31-17.32-16.78-13.75zM310.19 90.18c3.84-.87 7.92-.62 11.82-.13 2.75 1.69 1.46 5.56 1.76 8.23-4.83 0-9.67-.04-14.5.06-.21-2.68-1.08-5.91.92-8.16zm-23.73 34.24c3.62-.71 7.43-.44 11.08.02 1.85 1.93.93 4.93 1 7.32-4.28-.03-8.56-.02-12.84-.05-.02-2.39-.72-5.21.76-7.29zm11.87 213.09c5.17-2.12 10.47 3.23 9.15 8.41-.5 5.85-9.1 7.62-12.37 3.08-3.16-3.65-1.38-10.05 3.22-11.49zm-24.07 20.85c4.02-2.33 10.05-.2 10.61 4.71 1.32 5.04-3.98 10-8.91 8.06-5.74-1.25-6.61-9.98-1.7-12.77zm24.5 19.18c2.62.06 5.67-.89 7.99.71 1.43 3.31.76 7.17.69 10.7.04 4.57-5.8 3-8.71 3.14-.07-4.85-.09-9.7.03-14.55zM283.14 568.2c6.1-.01 12.21.03 18.31-.14.08 7.67.13 15.35-.01 23.02-5.33.01-10.66.1-15.99-.15-.22-4.65.21-9.33-.24-13.95-1.46-2.72-2.01-5.73-2.07-8.78zm-71.76 67.32c7.75-1.42 16.16 2.09 20.35 8.81 5.85 8.37 3.79 20.88-4.17 27.17-7.22 5.89-18.61 5.74-25.66-.37-4.97-4.08-7.92-10.61-7.25-17.06.5-9.03 7.86-17.03 16.73-18.55m-.88 8.09c-4.65 1.73-8.03 6.37-8.17 11.35-.33 6.13 4.51 11.97 10.54 12.97 7.77 1.57 15.94-5.93 14.39-13.89-.68-7.75-9.47-13.43-16.76-10.43zm932.93-8.01c11.51-2.78 23.9 6.51 24.44 18.32.87 7.63-3.31 15.3-9.84 19.16-5.09 2.9-11.41 3.46-16.96 1.68-8.76-2.97-14.9-12.45-13.61-21.68.89-8.45 7.64-15.85 15.97-17.48m.83 7.83c-6.3 1.81-10.73 8.88-8.95 15.31 1.61 6.79 9.47 11.1 16.07 8.83 6.89-1.87 10.85-10.35 7.9-16.84-2.21-5.79-9.09-9.22-15.02-7.3z" fill="#adadad"/><path d="M276.47 33.57c5.62-1.02 11.8-.1 16.33 3.57 7.99 5.94 10.13 18.08 4.92 26.51-4.94 8.8-17.09 12.1-25.98 7.55-7.8-3.7-12.96-12.84-11.09-21.43 1.39-7.93 7.84-14.75 15.82-16.2m-1.15 7.99c-4.75 2.06-7.86 7.29-7.26 12.46.04 7.06 7.1 12.99 14.08 11.71 7.44-.66 12.61-8.74 10.7-15.83-1.63-7.4-10.74-11.79-17.52-8.34zm400.06-7.11c5.97-1.44 12.61-.14 17.41 3.75 7.36 5.64 9.73 16.69 5.35 24.86-3.94 8.23-13.94 12.73-22.75 10.47-9.83-2.19-16.79-12.77-15-22.68.99-7.89 7.26-14.67 14.99-16.4m2.02 7.1c-5.55 1.34-10.13 6.59-9.86 12.44-.2 6.32 4.94 12.36 11.33 12.75 7.24.89 14.27-5.38 13.88-12.74.58-7.88-7.74-14.68-15.35-12.45zm132.83-7.21c11.23-2.15 23.12 7.21 23.31 18.72 1.06 10.98-8.72 21.19-19.61 21.22-7.76.16-15.31-4.52-18.63-11.52-2.77-5.86-2.64-13.13.69-18.74 2.92-5.2 8.49-8.54 14.24-9.68m.26 7.33c-4.68 1.29-8.73 5.35-9.34 10.24-1.53 7.24 4.33 15.07 11.85 15.01 7.84.57 14.42-7.48 12.93-15.05-.91-7.02-8.61-12.22-15.44-10.2zm64.94-7.08c10.26-2.55 22.23 4.41 24.19 14.99 1.36 6.34-.12 13.54-4.79 18.23-4.72 5.02-12.06 7.48-18.83 6.04-7.59-1.38-13.93-7.72-15.56-15.22-1.02-5.71-.09-12.01 3.59-16.64 2.88-3.57 6.9-6.32 11.4-7.4m1.99 7.05c-4.97 1.13-9 5.39-9.89 10.39-1.38 7.05 4.17 14.74 11.51 14.92 6.82.58 13.41-5.06 13.67-11.95.89-8.01-7.53-15.16-15.29-13.36zm132.05-7.02c7.7-1.6 16.07 2.02 20.39 8.55 4.17 6.03 4.42 14.37 1 20.8-4.62 8.92-16.54 12.93-25.64 8.75-7.61-3.27-12.65-11.54-11.99-19.82.38-8.9 7.61-16.6 16.24-18.28m-.21 7.69c-4.98 1.54-8.61 6.5-8.68 11.69-.37 6.76 5.54 13.24 12.4 12.97 7.62.37 14.39-7.39 12.74-14.92-.95-7.49-9.47-12.31-16.46-9.74zm133.2-7.7c5.34-1.01 11.11.03 15.53 3.27 7.26 4.94 10.34 15.04 7.29 23.23-2.85 8.25-11.49 14.01-20.22 13.17-10-.36-18.75-9.25-18.75-19.29-.61-9.61 6.63-18.82 16.15-20.38m-.19 7.7c-5.98 1.94-9.8 8.59-8.26 14.73 1.34 7.22 9.65 12 16.55 9.32 6.9-2.2 10.15-10.77 7.3-17.23-2.26-6-9.64-9.28-15.59-6.82zm67.1-7.77c11.59-2.49 24.09 7.45 23.51 19.46.71 10.15-7.87 19.55-17.89 20.33-10.75 1.34-21.56-7.32-22.02-18.25-1.27-10.12 6.43-19.92 16.4-21.54m-1.06 7.92c-5.35 1.99-8.66 7.89-7.83 13.5.59 7.25 8.46 13.05 15.55 10.84 7.14-1.63 11.22-9.94 8.9-16.73-1.99-6.69-10.25-10.44-16.62-7.61zM406.76 223.23c7.61.15 15.22-.18 22.82.18.43 4.37.18 8.75-.02 13.12-7.54 1.13-15.22.53-22.81.36-.25-4.55-.34-9.11.01-13.66zm-109.47 59.95c8.17-.06 16.34.03 24.51.04.13 5.74.68 11.54-.41 17.23-6.48.04-12.96.17-19.44.06-1.45-.22-3.75.18-4.29-1.65-.78-5.18-.25-10.46-.37-15.68zm-28.32 122.67c5.56-.4 11.14-.38 16.71-.02.26.64.77 1.92 1.02 2.56 7.13-.07 14.25.07 21.37-.1.09-.59.28-1.75.37-2.33 4.82-.61 9.71-.42 14.56-.33 2.12-.43 1.79 2.03 1.86 3.32-.2 6.21.27 12.45-.35 18.63-3.73 1.5-8.15-.2-12.11.82-.06-6.56.01-13.11-.08-19.67-10.67.12-21.35.06-32.03.17-.09 6.29-.03 12.59-.09 18.88-3.53.18-7.06.33-10.58.45-1.34-7.37-.34-14.93-.65-22.38zm-29.58 18.14c4.87-.01 9.74.11 14.61.17.12 2.73.22 5.45.3 8.18-4.85.28-9.7.27-14.55.27-.08 1.53-.15 3.07-.22 4.61 4.86.05 9.71.08 14.57.13.11 2.79.05 5.6-.15 8.39-4.88.08-9.76.14-14.64.03-3.04-.08-6.09-.12-9.13-.16-.01-2.64-.02-5.29-.02-7.92 3.05-.1 6.11-.15 9.17-.25-.1-1.73-.18-3.44-.27-5.15-3.08 0-6.15-.01-9.22-.02v-8.04c3.19-.08 6.37-.18 9.55-.24zm54.49 48.93c.21-2.1 2.03-3.79 4.1-4.01 3.82-.53 7.7-.22 11.55-.13.14 8.56.19 17.12.08 25.69-4.21-.03-8.44.3-12.62-.3-2.65-.69-3.1-3.83-3.22-6.12-.17-5.04-.46-10.12.11-15.13zm39.58-4.07c5.47.1 11.03-.56 16.44.35 2.9 1.42 2.49 5.09 2.59 7.8-.1 4.68.44 9.38-.14 14.04-.15 1.63-1.62 3.13-3.29 3.15-5.16.42-10.34.21-15.51.18-.07-8.51-.02-17.01-.09-25.52zm-56.01 166.79c11.14-2.86 23.11 5.92 24.21 17.24.93 6.89-1.62 14.3-7.22 18.59-6.74 5.28-16.88 5.8-24.04 1.04-5.72-3.8-9.39-10.61-9.08-17.51.14-9.12 7.21-17.53 16.13-19.36m0 8.05c-4.99 1.81-8.57 6.91-8.32 12.26.01 7.03 6.91 13.06 13.9 12.08 7.04-.59 12.9-8 10.86-14.99-1.3-7.19-9.53-12.23-16.44-9.35zm1000.01-8.12c8.94-1.95 18.79 3.24 22.25 11.7 4.31 9.12.77 21.42-8.37 26.07-7.87 4.4-18.67 2.98-24.71-3.84-7.03-7.22-7.27-19.9-.47-27.34 2.9-3.37 6.93-5.73 11.3-6.59m-.05 7.85c-5.96 1.87-9.86 8.53-8.35 14.64 1.38 7.17 9.67 12.13 16.59 9.48 6.1-1.9 9.75-8.89 8-14.99-1.55-6.91-9.5-11.56-16.24-9.13z" fill="#acacac"/><path d="M942.48 34.64c7.02-1.68 14.61 1.21 19.36 6.49 4.68 5.28 6.12 13.1 3.79 19.75-2.95 9.16-13.3 15.02-22.68 13.12-9.04-1.43-16.18-9.94-16.38-19.03-.49-9.45 6.7-18.43 15.91-20.33m-.26 7.66c-6.63 2.25-10.07 10.56-7.32 16.92 2 5.16 7.72 8.41 13.2 7.69 7.48-.5 12.91-8.76 10.86-15.87-1.71-7.01-10.02-11.33-16.74-8.74zM679.37 635.48c10.36-2.26 21.27 5.28 23.48 15.49 1.7 7.52-.98 16.03-7.19 20.76-5.64 4.22-13.49 5.32-20.06 2.76-8.37-3.23-14.1-12.55-12.56-21.5.98-8.56 7.81-16.02 16.33-17.51m.05 8.02c-6.2 1.97-10.44 9.11-8.44 15.46 1.32 4.97 5.9 8.78 11.03 9.19 7.83.91 15.49-6.96 13.49-14.82-1.25-7.19-9.04-12.23-16.08-9.83zm-551.95-8c13.39-.03 26.77.09 40.16-.09.27 13.32.04 26.65.25 39.98-13.47.09-26.94.16-40.42.01.05-13.3-.16-26.6.01-39.9m15.84 7.96c-6.51 2.17-10.6 10.21-7.49 16.58 2.24 5.91 9.28 9.21 15.29 7.35 6.13-1.59 10.23-8.32 8.84-14.5-1.2-7.3-9.74-12.17-16.64-9.43z" fill="#acacab"/><path d="M1075.48 34.69c10.31-2.4 21.54 4.7 23.76 15.05 1.83 7.68-1.26 16.23-7.69 20.83-6.92 5.05-17.16 5.12-23.93-.23-6.44-4.76-9.41-13.59-7.23-21.29 1.78-7.15 7.97-12.76 15.09-14.36m-.18 7.72c-4.78 1.69-8.16 6.53-8.13 11.59-.51 6.9 5.76 13.58 12.78 12.97 7.25.2 13.24-6.88 12.35-13.98-.35-8.01-9.68-13.64-17-10.58zM390.03 512.85c5.1.03 10.19.02 15.29.02.12 2.59.44 5.37-.73 7.8-1.36 1.62-3.79.96-5.63 1.23-2.62-.17-5.57.5-7.93-.88-1.3-2.51-.77-5.46-1-8.17zm21.48 122.79c11.77-2.88 24.52 7.15 24.28 19.31.65 8.56-5.28 16.65-13.15 19.6-7.05 2.47-15.54 1.08-20.97-4.2-6.88-6.26-8.33-17.4-3.56-25.32 2.92-4.79 7.88-8.3 13.4-9.39m-.16 7.85c-5.87 1.93-9.66 8.54-8.19 14.58 1.41 7.26 10.1 12.38 17 9.19 6.29-2.28 9.69-10.14 7-16.28-2.17-6.17-9.65-9.89-15.81-7.49zm134.11-7.87c9.71-2.37 19.86 3.94 22.95 13.23 3.12 8.26-.13 18.22-7.25 23.33-6.63 4.63-16.01 4.69-22.81.38-5.99-3.59-9.71-10.58-9.23-17.56.15-9.22 7.37-17.57 16.34-19.38m.73 7.69c-5.58 1.41-9.65 6.89-9.46 12.64.12 6.4 5.82 11.91 12.2 11.97 6.97.51 13.51-6 12.86-13-.03-7.6-8.29-13.84-15.6-11.61z" fill="#abacab"/><path d="M305.77 129.82c-.56-14.72-.26-29.47-.16-44.19 6.82-.15 13.66-.15 20.49.03.3.33.9.99 1.2 1.33.33 12.98.07 25.98.13 38.97.04 1.64.04 4.46-2.36 4.17-6.43-.04-12.89.25-19.3-.31m4.42-39.64c-2 2.25-1.13 5.48-.92 8.16l-.43.01c0 5.93-.05 11.87-.08 17.8-.02 2.99-1.08 7.31 2.03 9.1 3.91.48 8.22.97 11.98-.43 1.69-2.37.83-5.54 1.01-8.26-.06-6.09.02-12.19-.01-18.28-.3-2.67.99-6.54-1.76-8.23-3.9-.49-7.98-.74-11.82.13zm-75.51-2.57c5.23-.98 10.95-.16 16.37-.47 1.59.12 4.6-.54 4.5 1.96.22 13.59-.06 27.2.12 40.8.25 3.2-3.65 2.08-5.67 2.28-5.15-.47-10.56.71-15.54-.75-.91-7.08-.42-14.31-.55-21.45.32-7.04-.25-14.08.1-21.11.17-.32.5-.95.67-1.26m2.99 6.07c-.69 2.2-.29 4.56-.33 6.82h.17c-.12 6.13.07 12.25-.04 18.38-.35 2.77-.17 5.57.38 8.3 4.1.5 8.3.85 12.38.13 3.05-1.57 2.11-5.63 2.11-8.41-.07-6.1-.02-12.2-.04-18.3.03-2.19.29-4.45-.33-6.59-1.34-3.14-5.31-2.08-8-2.34-2.16.2-5.32-.57-6.3 2.01zm29.62 220.25l.74-.66c13.33-.18 26.66-.05 39.99-.13 1.16-.01 3.4-.05 3.11 1.77.34 19.71.02 39.43.25 59.14-.15 7 .23 14.03-.22 21.03-.25.28-.76.83-1.01 1.11-14.18.19-28.36.08-42.54.09-.52-3.1-.34-6.24-.3-9.35-.03-24.33-.13-48.67-.02-73m4.72 4.09c-1.68 3.93-.75 8.5-.58 12.66 2.05 2.41 5.72 1.24 8.48 1.24 6.19-.17 12.38-.02 18.57-.01-.07-4.85-.14-9.7.11-14.54-8.83-.31-17.87-.92-26.58.65m27.05-.74c-.52 4.97-.4 9.97-.29 14.97 2.72-.39 7.34 1.29 8.35-2.31.39-3.62.34-7.31-.14-10.91-1.57-2.78-5.34-1.46-7.92-1.75m-23.62 20.39c-4.34 1.4-5.94 7.41-3.05 10.88 2.89 4.03 10.08 3.71 12.02-1.1 3.04-5.45-3.24-12.3-8.97-9.78m22.89-.16c-4.6 1.44-6.38 7.84-3.22 11.49 3.27 4.54 11.87 2.77 12.37-3.08 1.32-5.18-3.98-10.53-9.15-8.41m-24.07 20.85c-4.91 2.79-4.04 11.52 1.7 12.77 4.93 1.94 10.23-3.02 8.91-8.06-.56-4.91-6.59-7.04-10.61-4.71m22.91-.23c-4.65 2.17-4.99 9.58-.61 12.22 4.23 2.86 11.1.14 11.26-5.23.71-5.54-5.82-9.75-10.65-6.99m1.59 19.41c-6.2-.01-12.4.14-18.59-.07-2.77.14-6.37-.88-8.53 1.27-.6 3.94-.59 8.01-.29 11.99 2.03 2.48 5.82 1.16 8.61 1.32 6.26.12 12.52.08 18.77.04 2.91-.14 8.75 1.43 8.71-3.14.07-3.53.74-7.39-.69-10.7-2.32-1.6-5.37-.65-7.99-.71zm385.2 243.65c2.2 1.01 4.58 1.44 6.98 1.75-2.42 2.11-5.19.15-6.98-1.75z" fill="#fefefe"/><g fill="#010101"><path d="M302.8 87.02c-.05-2.71 2.7-4.44 5.21-4.23 6.04-.03 12.1-.14 18.14.07 2.52.17 4.31 2.66 4.1 5.1-.05 12.66.06 25.32-.01 37.98-.11 1.94.07 4.32-1.55 5.71-1.5 1.48-3.76 1.1-5.65 1.2-5.84-.11-11.69.29-17.5-.34.14 8.18.14 16.36.09 24.54h2.33c4.46.02 8.92.05 13.38.03.28-6.75-.24-13.52.44-20.26-.42 6.74-.12 13.5-.31 20.25 2.22.03 4.44.06 6.67.12-.07 10.51.12 21.02.03 31.54-9.83.05-19.65.17-29.48.19-4.44-.01-8.87.01-13.31.15-10.29.07-20.59-.04-30.88.06 0-10.65.01-21.29.02-31.94 2.03-.02 4.06-.06 6.1-.04 4.52.07 9.03.03 13.55-.06 1.38-.02 2.75-.04 4.13-.04-.02-11.71-.01-23.42.12-35.13-.08-2.41 2.16-4.59 4.58-4.37 6.56.02 13.15-.31 19.7.27.01-10.26-.11-20.54.1-30.8m2.97 42.8c6.41.56 12.87.27 19.3.31 2.4.29 2.4-2.53 2.36-4.17-.06-12.99.2-25.99-.13-38.97-.3-.34-.9-1-1.2-1.33-6.83-.18-13.67-.18-20.49-.03-.1 14.72-.4 29.47.16 44.19m-24.47-8.68c-.31 11.9-.3 23.84-.46 35.75 7.31.15 14.63-.14 21.95.02-.04-11.93.33-23.87-.05-35.79-2.96-1.89-7.27-.44-10.74-.86-3.49.45-7.6-1.01-10.7.88z"/><path d="M309.27 98.34c4.83-.1 9.67-.06 14.5-.06.03 6.09-.05 12.19.01 18.28-5.01-.02-10.03.15-15.02-.41.03-5.93.08-11.87.08-17.8l.43-.01zm-172.78 20.32c7.56-1.56 15.83.11 21.87 5 8.99 7.58 12.53 21.29 7.27 32.01-4.8 11.06-18.04 17.22-29.64 14.27-11.16-2.67-19.97-13.3-19.96-24.87-.56-12.19 8.45-24.01 20.46-26.41z"/><path d="M91.21 164.22c1.91-.02 3.81-.03 5.72-.04.19 4.16-.14 8.38.58 12.5 1.26 4.46 6.13 6.52 10.45 6.26 22.32.48 44.65.31 66.98.43 4.28.12 9.49-.55 11.75-4.73 2.24-4.48 1.21-9.7 1.42-14.52 4.01.06 8.01.07 12.01.06 0 7.01-.18 14.03-.35 21.04.25 1.72-1.53 1.62-2.72 1.66-28.03-.08-56.08-.05-84.11-.11-6.89-.08-13.8.37-20.67-.12l-.93-.85c-.33-7.18-.03-14.39-.13-21.58zm18.68 27.48c5.03.2 10.1-.29 15.11.29 7.24 1.94 8.72 12.76 2.85 17.03-3.94 2.79-9.06 1.46-13.55 1.62-.03 4.04-.05 8.09-.01 12.14-1.48 0-2.95-.01-4.42-.01 0-10.35 0-20.71.02-31.07m4.39 4.33c-.06 3.5-.05 7 .01 10.5 3.06-.04 6.15.18 9.19-.27 4.73-1.01 4.61-9.67-.4-10.16-2.92-.43-5.87-.2-8.8-.07zm51.02.34c3.06-5.11 10.56-6.41 15.39-3.12 2.52 1.58 3.75 4.41 4.97 6.98-1.57.05-3.14.09-4.71.13-1.15-1.55-2.15-3.46-4.07-4.16-3.47-1.44-7.98.86-8.55 4.65-.4 4.36-.4 8.82.14 13.17.93 4.9 8.11 6.3 11.19 2.62 1.54-1.72 1.5-4.19 1.92-6.32-2.3-.1-4.6-.07-6.9.08.03-1.45.06-2.89.11-4.33 3.68.07 7.36.09 11.03-.14-.12 4.02.45 8.4-1.6 12.06-3.47 6.22-13.37 6.87-17.92 1.54-2.73-2.78-2.81-6.89-2.86-10.54.03-4.22-.5-8.87 1.86-12.62zm153.37-.3c6.04.08 12.09.08 18.13-.05.04 4.84.05 9.68.1 14.51-6.13-.19-12.27.1-18.41-.08.2-4.79.18-9.58.18-14.38zm56.49 22.02c10.63-.05 21.27-.43 31.91.07-.12 1.69-.21 3.38-.31 5.07-.35 4.55-.26 9.11-.01 13.66.26 12.73.28 25.48.01 38.22-.27 4.52-.39 9.07-.04 13.6.14 1.6.31 3.21.52 4.81-10.16.37-20.33.05-30.48.16.03 3.08.49 6.25-.23 9.29-.61 1.85-2.62 2.69-4.44 2.59-13.04.11-26.07-.03-39.11.11-2.73.35-6.15-1.49-5.82-4.61-.05-6.2-.12-12.41.06-18.61-12.01.32-24.04.11-36.06.14-.09-14.45-.13-28.91.04-43.36 2.03-.03 4.07-.05 6.12-.01 8.2.15 16.4.01 24.6.05 2.23.01 4.47 0 6.7 0-.01 13.32.07 26.64-.08 39.96 2.97-1.47 6.32-.99 9.51-1.04 8.3.04 16.61.02 24.92-.01 4.05.02 8.17-.36 12.16.59-.08-5.38-.01-10.76.07-16.14.09-4.72.06-9.45-.17-14.16.04-10.12.11-20.25.13-30.38m-44.49 63.55c-.19.28-.57.83-.76 1.11-.13 6.09-.28 12.22.06 18.3.24 2.05 2.52 1.7 4.02 1.82 12.69-.02 25.39-.06 38.08 0 2.27.41 2.2-2.45 2.21-3.94-.09-5.36.1-10.73-.22-16.08.01-1.68-1.72-2.06-3.06-1.99-12.03.01-24.06-.07-36.09.05-1.39.19-3.06-.13-4.24.73zm-50.83 35.72c6.25.08 12.5.16 18.75.01-.25 4.84-.18 9.69-.11 14.54-6.19-.01-12.38-.16-18.57.01-.05-4.86-.07-9.71-.07-14.56zm.33 60.11c6.19.21 12.39.06 18.59.07-.12 4.85-.1 9.7-.03 14.55-6.25.04-12.51.08-18.77-.04.06-4.86.11-9.72.21-14.58zm1102.89 87.61c.34-5.45 5.43-9.73 10.89-8.63 5.89.16 9.21 7.29 6.53 12.23-2.74 5.42-7.37 9.59-10.73 14.62 4.01-.13 8.04-.1 12.06-.07-.02 1.37-.02 2.75 0 4.14-6.15.11-12.3.12-18.44.02.25-1.64.11-3.46 1.14-4.87 3.27-4.98 7.73-9.04 11.07-13.95 1.85-2.39 1.64-6.63-1.55-7.73-3.15-1.04-5.81 1.52-6.59 4.35-1.1-.03-3.29-.08-4.38-.11zM110.77 486.63c5.11.19 10.24-.27 15.33.27 4.31.59 7.06 5.01 6.72 9.17.31 4-2.85 6.96-6.05 8.73 2.81 4.32 4.73 9.15 7.74 13.34-1.87 0-3.75.02-5.62.06-2.85-4.01-4.21-8.85-6.98-12.89-1.99-.94-4.42-.29-6.58-.42 0 4.43.03 8.87.04 13.31-1.52-.02-3.05-.05-4.57-.08-.15-10.5-.01-21-.03-31.49m4.63 4.24c-.09 3.26-.11 6.52-.05 9.79 3.16-.05 6.37.26 9.5-.29 3.72-1.13 4.67-7.43.82-9.02-3.34-.93-6.86-.4-10.27-.48zm248.7 3.65c5.06-.02 10.12 0 15.17-.09 0 6.13.02 12.27.08 18.41-5.01-.05-10.03-.05-15.04.09-.1-6.14.12-12.28-.21-18.41zm-102.91 13.21c6.19.22 12.38.1 18.57.1 0 4.84.01 9.67.06 14.51-6.22-.01-12.44-.05-18.66.04.04-4.89.03-9.77.03-14.65zm317.13 111.81c.98-.05 1.97-.09 2.97-.11 0 1.44 0 2.89.02 4.35 3.63-.03 7.27 0 10.91.03 0 .95 0 1.9.01 2.86-4.62.05-9.23.01-13.84-.04-.02-2.37-.04-4.73-.07-7.09zm54.7-.24c.5-.01 1.5-.04 2-.06.36 1.95.91 4.27 3.19 4.79 2.36 1.26 4.05-1.16 5.05-2.93.6-.92 1.23-1.82 1.87-2.7.18 1.55.32 3.11.42 4.68-2.25 5.48-11.75 5.02-13-.95.11-.7.35-2.12.47-2.83zm32.29-.01c.67 0 2.01 0 2.68-.01.47 1.38.26 3.33 1.77 4.12 2.55 1.9 5.58-.12 8.35-.34-.24 2.63-2.52 4.2-5.09 3.84-4.36.57-8.07-3.33-7.71-7.61z"/></g><g fill="#020202"><path d="M234.47 84.6c6.18-.39 12.38-.09 18.57-.2 2.7-.43 5.53 1.84 5.28 4.65.07 13.63.06 27.26.02 40.89.24 2.39-1.83 4.73-4.24 4.68-6.35.02-12.71.19-19.05 0-2.67-.19-3.96-3.16-3.78-5.53-.02-13.05-.03-26.09-.02-39.14-.2-2.22.88-4.82 3.22-5.35m.21 3.01c-.17.31-.5.94-.67 1.26-.35 7.03.22 14.07-.1 21.11.13 7.14-.36 14.37.55 21.45 4.98 1.46 10.39.28 15.54.75 2.02-.2 5.92.92 5.67-2.28-.18-13.6.1-27.21-.12-40.8.1-2.5-2.91-1.84-4.5-1.96-5.42.31-11.14-.51-16.37.47zm1119.78 369.93c3.57-1.96 8.66-1.67 11.54 1.4 3.09 3.6 2.61 10.05-1.68 12.54 5.35 2.52 5.61 10.62 1.56 14.39-3.73 2.48-9.17 2.75-12.87.09-2.07-1.45-2.75-3.99-3.47-6.25 1.48-.05 2.99-.08 4.51-.1.99 3.81 6.46 5.59 9.17 2.5 1.12-1.98.88-4.6.11-6.65-1.22-2.21-4.08-1.74-6.17-2.01.04-1.41.1-2.81.19-4.2 1.84-.19 4.47.57 5.47-1.54 1.72-2.8-.09-7.71-3.83-7.14-2.41-.12-3.52 2.26-4.47 4.04-1.51.03-3.01.04-4.48.05.76-2.72 1.85-5.62 4.42-7.12zm-997.18 26.35c-.2-2.63 1.97-5.35 4.73-5.17 6.34-.06 12.68-.1 19.01-.02 1.37-.17 2.45.82 3.62 1.35 2.01-1.9 4.89-1.3 7.39-1.4 5.39.13 10.78-.2 16.16.16 2.78.52 3.69 3.67 3.54 6.14 0 13.3.07 26.6-.07 39.9l-2.81-.27c.23-13.53-.08-27.07.05-40.6.26-2.14-2.25-2.77-3.87-2.59-5.9.11-11.82-.1-17.72.1-1.78.74-.95 3.01-1.22 4.5.16 13.26-.13 26.54.26 39.79-1.09-.04-2.17-.07-3.25-.1.07-13.23-.11-26.45.06-39.68-.04-1.68.05-4.52-2.27-4.56-6.3-.09-12.61-.12-18.9-.06-1.79.02-2.19 2.15-2.12 3.56.2 13.36-.16 26.73.34 40.08 1.1 1.04 2.31 1.95 3.44 2.97-.65.35-1.97 1.05-2.62 1.4-2.05-1.04-3.99-2.86-3.74-5.35-.05-13.38-.08-26.77-.01-40.15zM92.19 522.96c-.09-2.03 2.43-1.59 3.72-1.72 34.42.25 68.84.02 103.26-.03 1.44-.32 1.98 1.58 1.92 2.66-.03 6.19-.27 12.39-.22 18.59-3.97-.39-7.95-.36-11.93-.43-.3-4.86.56-10.88-3.7-14.33-3.53-3.36-8.67-3.12-13.19-3.04-17.35.27-34.7-.13-52.04.42-6.18.25-13.26-1.66-18.65 2.28-4.55 3.57-3.03 9.93-3.44 14.95-2.02.04-4.03.09-6.05.15.01-6.5-.01-13.01.32-19.5zm151.11 71.42c2.18-.58 4.49-.26 6.73-.32 12 .07 24.01 0 36.01.11 2.78-.35 5.41 2.05 5.32 4.86.17 5.98.18 11.98-.01 17.97.08 2.71-2.62 4.95-5.26 4.62-13.74-.14-27.48.12-41.22-.01-2.53.17-4.65-2.2-4.71-4.62-.18-6.02-.08-12.04-.04-18.05-.2-2.08 1.38-3.8 3.18-4.56m.13 3.13l-.54.44c-.32 6.01.02 12.06-.03 18.09-.23 1.75 1.28 3.2 3.03 2.82 13.38-.09 26.77.06 40.15-.03 1.67.26 2.86-1.25 2.62-2.83-.06-5.63.03-11.26-.16-16.89.28-1.97-1.98-2.5-3.5-2.32-12.32-.04-24.65.16-36.97-.02-1.54.11-3.32-.33-4.6.74z"/><path d="M254.83 600.43c6.14-.06 12.29-.1 18.44.06-.05 4.9-.05 9.8-.05 14.71-6.16-.26-12.33.22-18.47-.34.51-4.8.3-9.62.08-14.43z"/></g><path fill="#aeaeae" d="M237.67 93.68c.98-2.58 4.14-1.81 6.3-2.01 2.69.26 6.66-.8 8 2.34.62 2.14.36 4.4.33 6.59-4.93-.05-9.86 0-14.79-.1h-.17c.04-2.26-.36-4.62.33-6.82z"/><path fill="#010202" d="M237.51 100.5c4.93.1 9.86.05 14.79.1.02 6.1-.03 12.2.04 18.3-4.96-.04-9.92-.04-14.87-.02.11-6.13-.08-12.25.04-18.38z"/><path fill="#444" d="M1076.02 103.28c53.31-.44 106.61-.91 159.91-1.03.79 8.11.31 16.27.5 24.4.16 52.1.2 104.2-.01 156.3-.03 2.76.02 5.51.15 8.27.44-14.39.14-28.79.26-43.19.68-36.01.27-72.04.62-108.05.38 39-.02 78.01-.04 117.01.11 6.73-.46 13.51.68 20.18 1.1 5.25-2.73 11.09 1.34 15.61-.51 0-1.52-.01-2.03-.01.21 27.06.3 54.12.36 81.18.68 76.11.71 152.22.91 228.34-.01.93 0 1.88.03 2.83.23 3.37-.1 8.79-4.63 8.87-38.68.33-77.38.57-116.07.85-15.49-.11-30.99.8-46.47.04 3.97-1.36 8.44-2.77 10.77-6.56 2.26-3.3 2.12-7.48 2.03-11.31-.61-15.66-.95-31.34-1.36-47-.4-9.03-.26-18.08-1.17-27.07-.27-3.72-2.07-7.46-5.41-9.32-3.67-2.33-8.17-2.13-12.33-2.01-31.98 1.29-64 1.59-95.99 2.77-88.05 2.15-176.09 4.79-264.14 6.93-5.85.22-11.82-.33-17.53 1.2-4.99 1.37-7.67 6.47-8.86 11.13-.87 4.72-.3 9.56-.32 14.33.22 20.19 1.11 40.37 1.51 60.57.01 3.94 1.05 7.87 3.61 10.94-4.78-.39-9.57-.24-14.35-.2-.67.01-2.01.01-2.68.01l-3.93-.03c-.68-.02-2.04-.05-2.72-.06-2.1-.06-4.19-.11-6.28-.1-2 .02-3.98.18-5.96.3l-.31-.07c-.14.94-.42 2.82-.56 3.75-.1-1.57-.24-3.13-.42-4.68-.64.88-1.27 1.78-1.87 2.7-.1-.47-.31-1.4-.41-1.86-2.61-.1-5.22-.04-7.83 0-.5.02-1.5.05-2 .06-.12.71-.36 2.13-.47 2.83-.28-.91-.53-1.81-.77-2.71-2.24 0-4.48.01-6.71 0-.55-.01-1.66-.02-2.22-.02.19 2.69-1.53 6.83 2.3 7.53-1.04-.04-2.07-.07-3.09-.09.02-2.5.04-4.99.05-7.48-3.79.03-7.58.07-11.36-.09-.74-.03-2.24-.1-2.99-.13-.54.09-1.61.27-2.14.35-.81.02-1.61.03-2.41.02-7.31-.13-14.62-.2-21.92-.08-1 .02-1.99.06-2.97.11-4.1.15-8.21.09-12.32.11-.1 2.49-.2 4.99-.38 7.5-.16-2.67-.37-5.33-.6-7.98-3.84.06-7.68.17-11.49.62-.49.06-1.45.17-1.94.23-4.06-.87-8.23-.87-12.36-.62-.19.68-.58 2.04-.77 2.72-.17-.55-.51-1.66-.68-2.22-1.13-.06-2.25-.11-3.36-.14-.76-.02-2.26-.07-3.02-.09-2.07-.04-4.13-.05-6.19-.05-.36-2.84-1.13-5.63-2.48-8.15.23-2.11.36-4.22.45-6.33l.08-2.31c-8.49-.54-17 .21-25.49-.53 8.39-.33 16.79-.03 25.18-.19-.51-114.69-1.23-229.38-1.62-344.07-.01-50.43-.82-100.87-.56-151.3 6.72-.69 13.48-.21 20.21-.38 82.01-.56 164.02-.96 246.03-1.31 96.34-.7 192.68-1.12 289.01-1.77m-175.99 24.27c-56.67.37-113.34.84-170.02 1.08-59.32.23-118.63.82-177.95.92-1.65-.42-2.15 1.09-1.93 2.44.55 96 .98 192.01 1.57 288.02.15 26.96-.19 53.94.43 80.9 52.63-.47 105.27-.36 157.9-1.1 45.29-.43 90.58-.2 135.86-1 40.7-.1 81.39-.4 122.08-.59 55.69-.76 111.4-.61 167.09-1.31 24.89-.41 49.8-.03 74.69-.71-.41-43.08-.42-86.17-.96-129.24-.27-80.41-.82-160.82-1.54-241.22-27.76-.04-55.51.53-83.27.56-74.65.18-149.29 1.14-223.95 1.25z"/><path d="M91.2 124.28c.2-7.21-.43-14.48.37-21.66 35.98-.12 71.95-.04 107.93-.11 1.52 7.13.3 14.58.61 21.84-4.01-.07-8.01-.06-12.01 0-.17-5.24 1.33-11.6-2.75-15.76-2.62-2.92-6.77-3.07-10.41-3.05-22.3.03-44.6-.2-66.9-.25-4.34-.33-8.85 2.27-10.32 6.43-.9 4.11-.51 8.37-.71 12.55-1.94-.01-3.88-.02-5.81.01zM280.29 408.9c10.68-.11 21.36-.05 32.03-.17.09 6.56.02 13.11.08 19.67-10.73.31-21.47.01-32.21.13l.01-.75c.06-6.29 0-12.59.09-18.88zm-117.2 77.79c7.51.01 15.01-.02 22.52-.04l-.03 4.24c-2.98-.01-5.96-.01-8.94.02-.1 9.07.03 18.14-.14 27.21-1.46.03-2.93.06-4.39.1.05-9.03-.11-18.06.04-27.09-3.02-.27-6.04-.3-9.06-.2v-4.24z" fill="#010201"/><path fill="#505050" d="M97.72 111.72c1.47-4.16 5.98-6.76 10.32-6.43 22.3.05 44.6.28 66.9.25 3.64-.02 7.79.13 10.41 3.05 4.08 4.16 2.58 10.52 2.75 15.76.04 13.26.05 26.51.01 39.77-.21 4.82.82 10.04-1.42 14.52-2.26 4.18-7.47 4.85-11.75 4.73-22.33-.12-44.66.05-66.98-.43-4.32.26-9.19-1.8-10.45-6.26-.72-4.12-.39-8.34-.58-12.5-.08-13.31-.23-26.61.08-39.91.2-4.18-.19-8.44.71-12.55m38.77 6.94c-12.01 2.4-21.02 14.22-20.46 26.41-.01 11.57 8.8 22.2 19.96 24.87 11.6 2.95 24.84-3.21 29.64-14.27 5.26-10.72 1.72-24.43-7.27-32.01-6.04-4.89-14.31-6.56-21.87-5z"/><path d="M237.47 118.88c4.95-.02 9.91-.02 14.87.02 0 2.78.94 6.84-2.11 8.41-4.08.72-8.28.37-12.38-.13-.55-2.73-.73-5.53-.38-8.3zm70.82 16.51c4.54-.11 9.08-.12 13.62-.05-.04.37-.1 1.11-.13 1.48-.68 6.74-.16 13.51-.44 20.26-4.46.02-8.92-.01-13.38-.03-.13-7.22.33-14.44.33-21.66zm-78.22 167.12c3.05-.03 6.1-.09 9.15-.16 4.93-.13 9.86-.03 14.8.08.17 2.8.18 5.61.03 8.41-4.81.05-9.62.03-14.43 0 .01 1.7.02 3.4.04 5.1 4.77-.08 9.54-.08 14.32.09.07 2.84.03 5.67-.13 8.51-4.84.07-9.69.09-14.53-.12-3.14-.12-6.29-.16-9.43-.19-.02-2.67-.03-5.33-.04-7.99 3.11-.03 6.22-.08 9.33-.13-.01-1.79-.02-3.57-.02-5.34-3.1-.01-6.19-.01-9.28-.02.04-2.75.11-5.49.19-8.24zm135.1 183.6c4.26-1.08 8.71-.44 13.04-.39 1.38 2.71 1.24 5.76 1.06 8.71-5.05.09-10.11.07-15.17.09-.17-2.72-1.03-6.26 1.07-8.41z" fill="#a9a9a9"/><path fill="#fffffe" d="M281.3 121.14c3.1-1.89 7.21-.43 10.7-.88 3.47.42 7.78-1.03 10.74.86.38 11.92.01 23.86.05 35.79-7.32-.16-14.64.13-21.95-.02.16-11.91.15-23.85.46-35.75m5.16 3.28c-1.48 2.08-.78 4.9-.76 7.29.15 5.36.2 10.73-.02 16.1-.11 2.56-.05 5.13.07 7.7 4.21.03 8.43.05 12.64-.03.46-2.55.58-5.15.23-7.71-.26-5.33-.22-10.67-.08-16.01-.07-2.39.85-5.39-1-7.32-3.65-.46-7.46-.73-11.08-.02z"/><path d="M344.55 135.57c6.01-6.03 13.89-10.4 22.4-11.44 11.39-1.64 23.34 2.33 31.6 10.31 5.44 5.27 9.28 12.2 10.77 19.65 2.85 12.8-1.47 27.01-11.29 35.8-11.7 11.47-31.36 13.36-45.21 4.79-.93-.52-1.85-1.03-2.76-1.55-.28-.21-.83-.64-1.11-.86l-1.01-.83-2.05-1.72c-5.41-5.74-9.62-12.88-10.92-20.73-2.3-11.8 1.22-24.72 9.58-33.42m21.67-.24c-12.21 2.87-21.82 15.05-20.95 27.7.55 9.24 5.78 18.28 14.06 22.66 12.62 7.15 30.67 1.83 36.87-11.44 6.74-12.06 1.74-28.61-10.05-35.49-5.87-3.67-13.17-4.97-19.93-3.43zm975.88 185.33c.06-.46.17-1.37.22-1.83.27 1.77 1.22 2.55 2.87 2.34 17.59.14 35.2-.71 52.79-.12 3.1-.1 5.34 2.32 6.75 4.81.85 15.68.13 31.42.42 47.12-.19 4.02.56 8.2-.53 12.12-1.53 2.2-3.7 4.24-6.6 4-17.62.38-35.25-.1-52.88.13h-2.95c-1.99-.9-3.6-2.4-5.15-3.88l-.24-.22c.1-20.04-.32-40.08.17-60.11l.28-.24c1.59-1.39 3.21-2.77 4.85-4.12m23.12 8.63c-7.25 1.62-13.52 6.5-17.04 13-6.25 10.77-3.74 25.72 5.75 33.81 10.04 9.37 27.37 8.67 36.69-1.4 7.77-7.76 9.64-20.54 4.98-30.39-4.91-11.34-18.34-18.22-30.38-15.02z" fill="#777"/><path fill="#277b4d" d="M1324.44 125.5c16.19-.19 32.38-.69 48.57-.69 4.97-.14 9.18 3.67 10.97 8.07 1.7 3.82 1.12 8.1 1.29 12.16.33 17.51.28 35.03.91 52.54-.02 1.3.02 2.61.03 3.91.08 7.61.27 15.21.29 22.82.08 16.23.15 32.46.74 48.67.17 5.2-.51 10.84-4.54 14.58-2.51 1.91-5.37 3.59-8.6 3.63-7.56.23-15.14.3-22.7.23 8.02-2.35 16.54-.7 24.71-2.16 5-1.28 9.23-5.95 9.13-11.27.33-13.67 0-27.36-.02-41.03-.21-10.66.43-21.34-.22-31.99-1.02-22.44-.07-44.94-1.49-67.36-.4-4.04-2.77-7.93-6.26-10-3.22-1.43-6.85-1.11-10.26-1.18-18.66.31-37.33.1-55.99.34-4.63.26-9.34.77-13.83-.68 8.1-.58 16.24-.31 24.36-.48.72-.03 2.18-.08 2.91-.11z"/><path fill="#1b1b1b" d="M900.03 127.55c74.66-.11 149.3-1.07 223.95-1.25 27.76-.03 55.51-.6 83.27-.56.72 80.4 1.27 160.81 1.54 241.22.54 43.07.55 86.16.96 129.24-24.89.68-49.8.3-74.69.71-55.69.7-111.4.55-167.09 1.31-40.69.19-81.38.49-122.08.59-45.28.8-90.57.57-135.86 1-52.63.74-105.27.63-157.9 1.1-.62-26.96-.28-53.94-.43-80.9-.59-96.01-1.02-192.02-1.57-288.02-.22-1.35.28-2.86 1.93-2.44 59.32-.1 118.63-.69 177.95-.92 56.68-.24 113.35-.71 170.02-1.08m1.99 22.7c-21.34.47-42.69.21-64.04.36-61.35.33-122.7.88-184.06.92-24.9.37-49.8.5-74.71.65.48 54.96.58 109.93.96 164.9.51 50.35.45 100.71 1.03 151.06 12.57.8 25.2-.07 37.79.13 78.67-.87 157.35-1.43 236.03-2.03 36.68-.06 73.35-.95 110.03-.89 34.3-.21 68.59-.7 102.88-.94 28.04-.06 56.07-.36 84.1-.62 9.37-.3 18.77.2 28.14-.51.3-40.1-.52-80.2-.72-120.3-.21-54-.55-107.99-.91-161.98-.2-10.74.28-21.51-.57-32.24-12-.4-24.01.1-36.01-.03-79.98.54-159.96 1.06-239.94 1.52z"/><path fill="#028541" d="M1236.43 126.65c20.24-.35 40.49-.44 60.74-.56 4.49 1.45 9.2.94 13.83.68 18.66-.24 37.33-.03 55.99-.34 3.41.07 7.04-.25 10.26 1.18 3.49 2.07 5.86 5.96 6.26 10 1.42 22.42.47 44.92 1.49 67.36.65 10.65.01 21.33.22 31.99.02 13.67.35 27.36.02 41.03.1 5.32-4.13 9.99-9.13 11.27-8.17 1.46-16.69-.19-24.71 2.16-8.98.29-17.97.31-26.95.29-8.84-.16-17.7-.36-26.52.43-19.49.34-39 .66-58.5.64-4.07-4.52-.24-10.36-1.34-15.61-1.14-6.67-.57-13.45-.68-20.18.02-39 .42-78.01.04-117.01-.35 36.01.06 72.04-.62 108.05-.12 14.4.18 28.8-.26 43.19-.13-2.76-.18-5.51-.15-8.27.21-52.1.17-104.2.01-156.3z"/><path d="M285.7 131.71c4.28.03 8.56.02 12.84.05-.14 5.34-.18 10.68.08 16.01-4.32-.03-8.63-.04-12.94.04.22-5.37.17-10.74.02-16.1zm616.32 18.54c79.98-.46 159.96-.98 239.94-1.52 12 .13 24.01-.37 36.01.03.85 10.73.37 21.5.57 32.24.36 53.99.7 107.98.91 161.98.2 40.1 1.02 80.2.72 120.3-9.37.71-18.77.21-28.14.51-28.03.26-56.06.56-84.1.62-34.29.24-68.58.73-102.88.94-36.68-.06-73.35.83-110.03.89-78.68.6-157.36 1.16-236.03 2.03-12.59-.2-25.22.67-37.79-.13-.58-50.35-.52-100.71-1.03-151.06-.38-54.97-.48-109.94-.96-164.9 24.91-.15 49.81-.28 74.71-.65 61.36-.04 122.71-.59 184.06-.92 21.35-.15 42.7.11 64.04-.36zm-765.47 41.43c4.86.08 9.73-.2 14.57.15 4.22.7 7.08 5.07 6.73 9.22.11 3.75-2.55 6.85-5.73 8.5 2.56 4.28 4.66 8.81 7.16 13.13-1.75.02-3.49.05-5.23.07-2.21-4.46-4.53-8.87-6.82-13.29-2.02-.02-4.04-.01-6.06 0-.08 4.36-.13 8.72 0 13.08-1.52.17-3.04.3-4.56.43-.09-10.43 0-20.86-.06-31.29m4.64 4.26c-.12 3.13-.12 6.27-.1 9.41 2.82.02 5.64.24 8.45 0 4.53-.31 5.09-8.4.58-9.22-2.95-.51-5.96-.16-8.93-.19z"/><path d="M1386.18 197.58c8.16 7.97 16.24 16.02 24.23 24.16.05 89.04.13 178.09-.03 267.13-13.51 14.33-27.66 28.05-41.47 42.11-14.74 14.97-29.59 29.82-44.37 44.75-.06 8.44.09 16.9-.32 25.34-.08 1.45-.46 3.52-2.24 3.72-3.86.67-7.81.2-11.69.36.08 26.03.17 52.06-.03 78.08-107.06.22-214.13-.03-321.19.14-292.63-.02-585.25-.09-877.88-.03-14.87-14.3-29.33-29.02-44.05-43.48-2.69-2.94-6.11-5.32-8.24-8.71-.27-45.42-.1-90.86-.11-136.29 8.5-7.94 16.27-16.64 24.88-24.45.89-.32 1.79-.61 2.7-.88.05.45.13 1.35.18 1.79-8.26 8.31-16.62 16.51-24.9 24.8-.28 44.72.11 89.44-.13 134.16 16.73 16.9 33.78 33.48 50.64 50.25 210.5-.1 421 .05 631.5-.08-.18-14.82-.4-29.64-.39-44.46.49-7.55-6.52-14.98-14.21-14.19-11.6.59-23.23.53-34.84.88-1 1.63-1.87 3.87-4.09 4.03-3.81 1.33-9.42-2.72-7.47-6.81l-.32-.42c-2.56-3.07-3.6-7-3.61-10.94-.4-20.2-1.29-40.38-1.51-60.57.02-4.77-.55-9.61.32-14.33 1.19-4.66 3.87-9.76 8.86-11.13 5.71-1.53 11.68-.98 17.53-1.2 88.05-2.14 176.09-4.78 264.14-6.93 31.99-1.18 64.01-1.48 95.99-2.77 4.16-.12 8.66-.32 12.33 2.01 3.34 1.86 5.14 5.6 5.41 9.32.91 8.99.77 18.04 1.17 27.07.41 15.66.75 31.34 1.36 47 .09 3.83.23 8.01-2.03 11.31-2.33 3.79-6.8 5.2-10.77 6.56-12.55.4-25.1.23-37.65.45-7.04.07-13.39 6.56-13.03 13.66.47 17.15.56 34.3.96 51.45 95.26.13 190.51-.02 285.76.09.08-25.14-.08-50.27-.03-75.41-22.95.02-45.9 0-68.84 0-.03-.95-.04-1.9-.03-2.83 27.59.09 55.18-.07 82.77.01.62-24.78.13-49.57.28-74.36-.11-78.75.11-157.49-.16-236.24-7.88.19-15.76-.04-23.63.44 8.82-.79 17.68-.59 26.52-.43.02 54.99.04 109.99-.01 164.98.74-.02 2.23-.05 2.97-.07 2.56 7.92 5.12 15.85 7.48 23.84 2.47-7.98 5.14-15.9 7.71-23.86 1.62.01 3.26.03 4.91.06-3.32 10.32-7.03 20.51-10.46 30.8l-3.97-.12c-2.91-8.4-5.98-16.76-8.59-25.26-.08 36.57.12 73.15-.06 109.73 27.68-27.88 55.23-55.89 83.02-83.65.54-57.04 0-114.09.24-171.14-.07-30.67-.04-61.33.03-92 .29-1.64-.81-2.84-1.86-3.9-6.49-6.6-13.12-13.07-19.65-19.63-.01-1.3-.05-2.61-.03-3.91M683.96 621.19c1.79 1.9 4.56 3.86 6.98 1.75-2.4-.31-4.78-.74-6.98-1.75zM342.54 284.54c6.27-.02 12.55-.06 18.82-.07-.07 4.8-.06 9.6.02 14.4-6.2.19-12.39.21-18.59.05l-.04-.77c-.15-4.53-.13-9.07-.21-13.61z"/><path d="M141.33 502.03c-4.74-3.8-3.08-12.67 2.65-14.65 5.33-1.8 11.87-1.29 16.23 2.54-.91 1.01-1.84 2.01-2.78 3.01-3.28-2.35-7.84-3.17-11.57-1.42-2.57 1.05-3.67 5-1.19 6.75 4.02 2.73 9.6 1.54 13.42 4.75 4.7 3.75 3.23 12.43-2.53 14.36-6 2.14-13.15 1.26-18.39-2.41 1.05-1.35 2.11-2.67 3.18-4 3.43 3.3 8.87 4.22 13.23 2.38 2.6-1.15 3.75-5.32 1.08-7.03-4.02-2.58-9.45-1.32-13.33-4.28zm248.75-7.58c5.05.09 10.11.09 15.16.01.03 6.13-.11 12.27.08 18.41-5.1 0-10.19.01-15.29-.02-.4-6.13.17-12.27.05-18.4zm-28.22 38.71c12.73-.12 25.46.16 38.19-.24 6.78-.02 13.56.42 20.34.02.06 18.31-.05 36.62.03 54.93-19.55-.01-39.11.02-58.67-.03.04-18.23.04-36.46.11-54.68zm-224.36 5.47c6.13-1.23 12.78-.54 18.21 2.72 7.86 4.14 12.76 12.88 12.89 21.67.27 8.67-4.26 17.29-11.51 22.04-9.32 6.14-22.52 5.18-30.9-2.19-8.02-6.85-11.06-18.93-7-28.7 3.03-7.81 10.25-13.58 18.31-15.54zm346.87 75.65c1.96-2.64 5.68-2.21 8.53-1.71 1.59-.1 1.92 1.54 2.37 2.71-2.13.3-4.18-.35-6.26-.61-1.57-.15-3.71 1.59-1.91 2.99 2.12.5 4.37.42 6.47 1.1 3.09 1.36 2.61 6.74-.59 7.69-2.28.61-4.73.55-7-.04-1.33-.4-3.24-1.34-2.56-3.02 3.04-.94 6.86 2.99 9.3-.35.29-3.22-3.65-2.06-5.61-2.7-2.89-.07-4.66-3.84-2.74-6.06z"/><path fill="#a7a7a7" d="M260.93 135.26c4.36-.02 8.73-.02 13.09.08.47 7.23.14 14.5.15 21.75-4.52.09-9.03.13-13.55.06.05-7.3-.46-14.62.31-21.89z"/><path fill="#aaaaa9" d="M366.22 135.33c6.76-1.54 14.06-.24 19.93 3.43 11.79 6.88 16.79 23.43 10.05 35.49-6.2 13.27-24.25 18.59-36.87 11.44-8.28-4.38-13.51-13.42-14.06-22.66-.87-12.65 8.74-24.83 20.95-27.7m4.03 18.98c-5.87 1.5-7.68 10.55-2.45 13.88 4.17 3.16 10.77.68 11.81-4.44 1.71-5.41-3.9-11.17-9.36-9.44z"/><path fill="#a6a5a5" d="M285.68 147.81c4.31-.08 8.62-.07 12.94-.04.35 2.56.23 5.16-.23 7.71-4.21.08-8.43.06-12.64.03-.12-2.57-.18-5.14-.07-7.7z"/><path fill="#6f6f6f" d="M370.25 154.31c5.46-1.73 11.07 4.03 9.36 9.44-1.04 5.12-7.64 7.6-11.81 4.44-5.23-3.33-3.42-12.38 2.45-13.88z"/><path fill="#030303" d="M305.37 191.34c1.33-1.7 3.64-1.58 5.59-1.59 11.64.02 23.29-.15 34.93-.03l2.05 1.72 1.01.83c-13.28.29-26.57-.11-39.84.27-1.31-.13-2.6.96-2.29 2.36.05 5.72-.21 11.45.18 17.16.02 2.13 2.28 2.42 3.93 2.33 12.06-.13 24.11.09 36.16-.07 1.44.21 3.32-.58 3.16-2.3.03-6.29.18-12.61-.19-18.89.91.52 1.83 1.03 2.76 1.55.12 6.15.23 12.32 0 18.47 0 2.41-2.61 3.92-4.8 3.74-13.04-.02-26.08.36-39.12.21-2.83.27-4.81-2.45-4.87-5.04-.3-4.34 0-8.71-.13-13.07.08-2.57-.47-5.58 1.47-7.65z"/><path d="M306.82 194.9c-.31-1.4.98-2.49 2.29-2.36 13.27-.38 26.56.02 39.84-.27.28.22.83.65 1.11.86.37 6.28.22 12.6.19 18.89.16 1.72-1.72 2.51-3.16 2.3-12.05.16-24.1-.06-36.16.07-1.65.09-3.91-.2-3.93-2.33-.39-5.71-.13-11.44-.18-17.16m3.9 1.89c-1.11 3.8-.65 7.95-.36 11.86 1.57 2.91 5.44 1.74 8.12 2.04l.01-.24c6.14.18 12.28-.11 18.41.08 2.79.26 6.32.84 8.5-1.33.76-3.88.64-7.96.18-11.87-1.99-2.58-5.97-1.46-8.78-1.31-6.04.13-12.09.13-18.13.05-2.6.02-5.69-.92-7.95.72zm-169.53-.85c2.97.03 5.98-.32 8.93.19 4.51.82 3.95 8.91-.58 9.22-2.81.24-5.63.02-8.45 0-.02-3.14-.02-6.28.1-9.41zm106.54 308.85c4.34-.88 8.79-.38 13.18-.51 9.69.06 19.38-.13 29.06.08 1.96-.12 2.51 2.1 2.35 3.67-.05 5.64.12 11.31-.24 16.95-.27.29-.8.88-1.06 1.17-13 .25-26.01-.03-39.01.08-1.59 0-4.36.01-4.4-2.2-.24-6.4-.23-12.84.12-19.24m5.2 4.32c-.9 4.07-1.05 8.67.28 12.66 2.52 1 5.3.62 7.95.61 6.22-.09 12.44-.05 18.66-.04 2.95.16 5.9.02 8.81-.45.08-3.29.2-6.58.1-9.87-.28-1.23.31-2.98-.88-3.79-2.63-.76-5.4-.42-8.09-.4-6.19 0-12.38.12-18.57-.1-2.74-.06-6.05-.65-8.26 1.38z" fill="#fdfdfd"/><path fill="#a7a7a6" d="M310.72 196.79c2.26-1.64 5.35-.7 7.95-.72 0 4.8.02 9.59-.18 14.38l-.01.24c-2.68-.3-6.55.87-8.12-2.04-.29-3.91-.75-8.06.36-11.86z"/><path fill="#a5a5a4" d="M336.8 196.02c2.81-.15 6.79-1.27 8.78 1.31.46 3.91.58 7.99-.18 11.87-2.18 2.17-5.71 1.59-8.5 1.33-.05-4.83-.06-9.67-.1-14.51z"/><path d="M297.78 221.81c7.78-.21 15.57-.43 23.35-.04 1.24 5.74.86 11.67.79 17.5-8.2-.04-16.4.1-24.6-.05.11-5.8-.7-11.68.46-17.41zm-38.13 32.17c.41-3.26-1.24-7.57 1.4-10.06 5.95-.58 11.96-.19 17.93-.37 1.85.16 4.78-.5 5.43 1.88.65 4.44.37 8.96.42 13.43-8.27.36-16.55.29-24.82.17l.06.53c-.28 8.57-.11 17.14-.01 25.71h.88c7.95-.02 15.9-.06 23.85-.01-.57 4.99 1.03 10.64-1.35 15.19-5.8.55-11.65.06-17.47.24-1.93-.17-4.89.46-5.67-1.94-1.03-3.48-.24-7.19-.54-10.77-1.39-11.27-.92-22.7-.11-34zm74.68 31.2c2.56-.76 5.23-.84 7.88-.76.04 4.58-.01 9.17.54 13.73l.04.77c-2.74-.27-6.01.67-8.31-1.23-.71-4.13-.14-8.35-.15-12.51zm1030.89 44.11c12.04-3.2 25.47 3.68 30.38 15.02 4.66 9.85 2.79 22.63-4.98 30.39-9.32 10.07-26.65 10.77-36.69 1.4-9.49-8.09-12-23.04-5.75-33.81 3.52-6.5 9.79-11.38 17.04-13m4.06 19.08c-5.7 1.4-7.52 9.71-3.02 13.45 4.23 4.05 12.37 1.26 12.64-4.78 1.09-5.35-4.42-10.31-9.62-8.67zm-1072.11 9.76c4.83-2.76 11.36 1.45 10.65 6.99-.16 5.37-7.03 8.09-11.26 5.23-4.38-2.64-4.04-10.05.61-12.22zm-57.86 25.37c4.87-.06 9.74-.03 14.61-.02.16 2.77.19 5.54.09 8.31-4.77.12-9.54.14-14.31.13-.02 1.66-.04 3.33-.05 5 4.83-.07 9.66-.05 14.49.2.1 2.81.07 5.63-.11 8.44-4.78.03-9.56.07-14.34.17-.04 1.51-.08 3.02-.11 4.53 4.81.07 9.63.09 14.45.11.16 2.84.16 5.68.01 8.52-4.91.23-9.82.26-14.72.08-3.09-.08-6.17-.08-9.25-.08.01-2.67.03-5.34.06-8.01 3.04-.03 6.09-.06 9.15-.06-.04-1.84-.09-3.67-.14-5.49-3.07.04-6.14.05-9.21.05-.02-2.78-.03-5.55-.03-8.32 3.07 0 6.14.01 9.22.02.04-1.76.09-3.51.15-5.26-3.16-.03-6.31-.05-9.46-.07-.01-2.7-.01-5.4 0-8.09 3.16-.07 6.33-.12 9.5-.16zm1158.71 5.6c2.9.24 5.07-1.8 6.6-4 .15 7.67.12 15.35.12 23.03-19.96.24-39.93.11-59.89.16.26-6.35.34-12.7.29-19.06 17.63-.23 35.26.25 52.88-.13zM330.84 550.71c.11-5.45-.62-11.03.98-16.34 7.6.09 15.37-.11 22.85.91 1 5.01.59 10.19.62 15.27-8.15.25-16.3.12-24.45.16zm-238.97-8.25c2.02-.06 4.03-.11 6.05-.15-.16 13.58.01 27.17-.02 40.75-2.01.03-4.02.07-6.02.09-7.3-.13-14.6.14-21.89.03-1.79.1-3.93-1.03-3.78-3.08-.24-10.68.08-21.37-.07-32.05.09-1.92-.39-4.54 1.88-5.4 7.94-.32 15.9.09 23.85-.19zm238.96 32.41c8.19-.02 16.4-.16 24.56.62-.1 5.23.2 10.59-1.18 15.7-7.19.24-14.38.04-21.57.13-2.07-5.2-1.77-10.96-1.81-16.45z" fill="#aaa"/><path fill="#000100" d="M1386.5 224.31c4.94.06 9.89.05 14.84.01.03 21.07.34 42.14.39 63.22-6.35-.08-12.69-.04-19.03.02 4.03-3.74 4.71-9.38 4.54-14.58-.59-16.21-.66-32.44-.74-48.67z"/><path fill="#535353" d="M218.94 242.81c2.64-.02 5.28-.03 7.93-.04.04 3.16.1 6.31.18 9.47 4.09 0 8.19.05 12.28-.17-.04 4.18-.01 8.37.03 12.55-3.15.06-6.31.09-9.46.14.04 2.7.09 5.4.17 8.1 2.98.14 5.97.22 8.96.26.35 5.21.41 10.45.04 15.67-3-.01-6 0-9 .04.05 2.71.11 5.43.17 8.15 3.07.07 6.14.15 9.21.39-.08 1.65-.16 3.31-.23 4.98-3.05.07-6.1.13-9.15.16-.08 2.75-.15 5.49-.19 8.24 3.09.01 6.18.01 9.28.02 0 1.77.01 3.55.02 5.34-3.11.05-6.22.1-9.33.13.01 2.66.02 5.32.04 7.99 3.14.03 6.29.07 9.43.19.01 1.68.03 3.37.05 5.06-3.19.13-6.37.17-9.56.2 0 2.73.01 5.46.01 8.2l9.31-.03c-.01 1.73-.01 3.47-.01 5.22-3.09.03-6.18.06-9.26.11 0 2.7.02 5.4.03 8.1 2.92.39 6.86-.88 9.15.82.08 1.5.06 3.01.06 4.53-3.08-.04-6.16-.04-9.24-.01.04 2.66.08 5.33.14 8 3.09.02 6.17.05 9.26.09-.03 1.8-.05 3.6-.07 5.4-3.11-.01-6.21-.01-9.31-.02-.01 2.69 0 5.39.01 8.09 3.15.04 6.29.07 9.44.17-.02 1.71-.02 3.43-.02 5.15-3.17.04-6.34.09-9.5.16-.01 2.69-.01 5.39 0 8.09 3.15.02 6.3.04 9.46.07-.06 1.75-.11 3.5-.15 5.26-3.08-.01-6.15-.02-9.22-.02 0 2.77.01 5.54.03 8.32 3.07 0 6.14-.01 9.21-.05.05 1.82.1 3.65.14 5.49-3.06 0-6.11.03-9.15.06-.03 2.67-.05 5.34-.06 8.01 3.08 0 6.16 0 9.25.08.02 1.67.04 3.34.07 5.02-3.18.06-6.36.16-9.55.24v8.04c3.07.01 6.14.02 9.22.02.09 1.71.17 3.42.27 5.15-3.06.1-6.12.15-9.17.25 0 2.63.01 5.28.02 7.92 3.04.04 6.09.08 9.13.16 0 3.18.01 6.37.07 9.56-4.2 0-8.39.06-12.58-.02l-.06 7.97c-2.62-.02-5.24-.03-7.86-.03-.22-8.43.06-16.86.03-25.28.05-3.65-1.01-7.65-4.09-9.89-5.48-4.31-13.38.28-18.92-3.92-3.27-2.27-3.15-6.59-3.2-10.13.08-12.01-.08-24.04.11-36.04-.23-3.82 4.77-4.43 7.48-3.31.94 2.14 1.29 4.51 2.38 6.59 3.15 4.2 10.46 4.11 13.46-.25 1.92-2.57 1.5-5.97 1.63-8.99-.16-13.69-.06-27.38-.04-41.06.15-3.84-.94-8.4-4.86-10-3.96-1.64-10.38-.47-11.12 4.5-.6 1.5-.54 3.45-1.87 4.54-2.87 1.32-7.63-.24-7.11-4.01-.11-13.01-.04-26.02-.13-39.03-.29-3.19 1.56-6.54 4.8-7.29 4.93-.98 10.1.27 14.95-1.24 3.95-1.29 6.47-5.34 6.47-9.4.33-8.74-.1-17.49.09-26.23z"/><path fill="#585858" d="M260.01 259.03c8.27.12 16.55.19 24.82-.17-.14 8.8.07 17.6-.04 26.4-7.95-.05-15.9-.01-23.85.01-.45-8.57 1.28-17.26-.87-25.71l-.06-.53z"/><path fill="#454645" d="M260.07 259.56c2.15 8.45.42 17.14.87 25.71h-.88c-.1-8.57-.27-17.14.01-25.71z"/><path fill="#aaa9a9" d="M239.36 264.62c4.94-.1 9.88-.09 14.81.08 0 2.84-.02 5.68-.05 8.53-4.79.08-9.57.07-14.36.01-.37 5.21-.31 10.43.01 15.64 4.73-.08 9.45-.07 14.18.05.17 2.86.21 5.73.1 8.6-4.87.1-9.74.23-14.6-.16-3.07-.24-6.14-.32-9.21-.39-.06-2.72-.12-5.44-.17-8.15 3-.04 6-.05 9-.04.37-5.22.31-10.46-.04-15.67-2.99-.04-5.98-.12-8.96-.26-.08-2.7-.13-5.4-.17-8.1 3.15-.05 6.31-.08 9.46-.14z"/><path d="M406.76 275.11c7.52-.54 15.04.26 22.56-.04.69 4.47.5 9.02.22 13.52-7.59.53-15.22.21-22.82.12-.35-4.53-.23-9.08.04-13.6zm-131.32 62.56c5.73-2.52 12.01 4.33 8.97 9.78-1.94 4.81-9.13 5.13-12.02 1.1-2.89-3.47-1.29-9.48 3.05-10.88z" fill="#ababaa"/><path fill="#fdfdfc" d="M330.67 281.64c1.18-.86 2.85-.54 4.24-.73 12.03-.12 24.06-.04 36.09-.05 1.34-.07 3.07.31 3.06 1.99.32 5.35.13 10.72.22 16.08-.01 1.49.06 4.35-2.21 3.94-12.69-.06-25.39-.02-38.08 0-1.5-.12-3.78.23-4.02-1.82-.34-6.08-.19-12.21-.06-18.3.19-.28.57-.83.76-1.11m30.69 2.83c-6.27.01-12.55.05-18.82.07.08 4.54.06 9.08.21 13.61-.55-4.56-.5-9.15-.54-13.73-2.65-.08-5.32 0-7.88.76.01 4.16-.56 8.38.15 12.51 2.3 1.9 5.57.96 8.31 1.23 6.2.16 12.39.14 18.59-.05 2.67-.04 5.54.59 8.09-.41.96-4.36 1.21-9.41-.43-13.6-2.49-.78-5.13-.47-7.68-.39z"/><path fill="#aaabaa" d="M361.36 284.47c2.55-.08 5.19-.39 7.68.39 1.64 4.19 1.39 9.24.43 13.6-2.55 1-5.42.37-8.09.41-.08-4.8-.09-9.6-.02-14.4z"/><path fill="#565655" d="M166.4 290.34c3.09-1.77 7.42 1.12 6.87 4.7-.01 7.65.38 15.34-.19 22.98-.59 4.38-8.05 4.28-8.65-.03-.51-6.65-.17-13.35-.34-20.01.13-2.62-.52-6.18 2.31-7.64z"/><path d="M267.45 310.63c13.52-.33 27.07.02 40.6-.19 2.44-.28 5.69.75 5.76 3.67.59 26.29.24 52.59.33 78.88.26 2.63-.86 6.31-4.13 6.09-13.69.07-27.38-.04-41.07.01-2.37.2-4.51-1.8-4.35-4.18-.05-26.34-.05-52.68-.07-79.02-.21-2.11.6-4.77 2.93-5.26m-.16 3.3c-.11 24.33-.01 48.67.02 73-.04 3.11-.22 6.25.3 9.35 14.18-.01 28.36.1 42.54-.09.25-.28.76-.83 1.01-1.11.45-7 .07-14.03.22-21.03-.23-19.71.09-39.43-.25-59.14.29-1.82-1.95-1.78-3.11-1.77-13.33.08-26.66-.05-39.99.13l-.74.66zM91.88 583.15c2-.02 4.01-.06 6.02-.09.08 4.43-.6 9.04.73 13.34 1.86 4.44 6.92 6.1 11.4 5.89 21.98.2 43.97.17 65.95.14 4.51.2 9.82-1.16 11.83-5.65 1.55-4.39.85-9.14.96-13.7 4.02.03 8.04.06 12.06-.1-.12 7.46.51 14.99-.4 22.42-34.13.73-68.29.13-102.43.34-2.19-.12-6.06.67-6.05-2.66-.23-6.64-.04-13.29-.07-19.93z" fill="#020201"/><path d="M1337.2 316.7c1.75.12 3.54.24 5.32.41l-.2 1.72c-.05.46-.16 1.37-.22 1.83a214.77 214.77 0 0 0-4.85 4.12c0-2.69-.06-5.39-.05-8.08zM539.23 619.4c4.13-.25 8.3-.25 12.36.62-3.69.82-7.49.48-11.23.78.98 1.79 2.64 2.96 4.44 3.85 1.91-1.64 3.97-1.88 5.62.18-2.04.97-4.14 2.2-6.49 1.99-2.68.01-4.95-2.15-5.47-4.7.19-.68.58-2.04.77-2.72z" fill="#040404"/><path fill="#b3b3b3" d="M272.01 318.02c8.71-1.57 17.75-.96 26.58-.65-6.25.15-12.5.07-18.75-.01 0 4.85.02 9.7.07 14.56-2.76 0-6.43 1.17-8.48-1.24-.17-4.16-1.1-8.73.58-12.66z"/><path d="M299.06 317.28c2.58.29 6.35-1.03 7.92 1.75.48 3.6.53 7.29.14 10.91-1.01 3.6-5.63 1.92-8.35 2.31-.11-5-.23-10 .29-14.97zm91.72 168.52c4.35-.29 8.94-1.05 13.18.1 1.85 2.28 1.06 5.76 1.28 8.56-5.05.08-10.11.08-15.16-.01-.01-2.9.16-5.8.7-8.65z" fill="#b0b0b0"/><path fill="#727272" d="M1369.28 348.37c5.2-1.64 10.71 3.32 9.62 8.67-.27 6.04-8.41 8.83-12.64 4.78-4.5-3.74-2.68-12.05 3.02-13.45z"/><path fill="#abaaaa" d="M271.64 378.74c2.16-2.15 5.76-1.13 8.53-1.27-.1 4.86-.15 9.72-.21 14.58-2.79-.16-6.58 1.16-8.61-1.32-.3-3.98-.31-8.05.29-11.99z"/><path fill="#575757" d="M166.3 384.34c2.74-1.91 6.9.36 6.83 3.68.06 7.96.61 15.97-.02 23.91-.93 4.34-8.06 4.11-8.7-.25-.46-6.88-.18-13.8-.26-20.7.13-2.29-.29-5.38 2.15-6.64z"/><path fill="#060606" d="M1337.04 385.35c1.55 1.48 3.16 2.98 5.15 3.88.12 1.31.25 2.63.38 3.96l-5.35.03c-.27-2.62-.37-5.25-.18-7.87z"/><path fill="#5d5d5c" d="M309.53 468.78c7.98.06 15.95.07 23.93.07.07 8.51.02 17.01.09 25.52-7.98 0-15.96-.2-23.94.1.11-8.57.06-17.13-.08-25.69z"/><path fill="#020102" d="M247.16 502.24c1.44-.87 3.24-.57 4.85-.69 12.63.1 25.27-.04 37.9.08 2.51-.23 4.99 1.71 5.02 4.31.36 6.06.15 12.15.1 18.22.13 2.64-2.27 5.11-4.97 4.72-13.38 0-26.76-.02-40.14 0-2.36.32-4.73-1.39-5-3.78-.43-5.34-.02-10.71-.15-16.06-.01-2.4-.18-5.59 2.39-6.8m.57 2.55c-.35 6.4-.36 12.84-.12 19.24.04 2.21 2.81 2.2 4.4 2.2 13-.11 26.01.17 39.01-.08.26-.29.79-.88 1.06-1.17.36-5.64.19-11.31.24-16.95.16-1.57-.39-3.79-2.35-3.67-9.68-.21-19.37-.02-29.06-.08-4.39.13-8.84-.37-13.18.51z"/><path fill="#b0b1b0" d="M252.93 509.11c2.21-2.03 5.52-1.44 8.26-1.38 0 4.88.01 9.76-.03 14.65-2.65.01-5.43.39-7.95-.61-1.33-3.99-1.18-8.59-.28-12.66z"/><path fill="#adaeaf" d="M279.76 507.83c2.69-.02 5.46-.36 8.09.4 1.19.81.6 2.56.88 3.79.1 3.29-.02 6.58-.1 9.87-2.91.47-5.86.61-8.81.45-.05-4.84-.06-9.67-.06-14.51z"/><path fill="#adaeae" d="M364.31 512.93c5.01-.14 10.03-.14 15.04-.09-.19 2.86.81 6.56-1.63 8.71-4.05 1.18-8.45.64-12.56.03-1.31-2.63-.62-5.8-.85-8.65z"/><path fill="#4c4c4c" d="M101.36 527.36c5.39-3.94 12.47-2.03 18.65-2.28 17.34-.55 34.69-.15 52.04-.42 4.52-.08 9.66-.32 13.19 3.04 4.26 3.45 3.4 9.47 3.7 14.33 3.98.07 7.96.04 11.93.43l.78.07c-4.3.05-8.59.05-12.89.02.05 13.51.02 27.02.01 40.53-.11 4.56.59 9.31-.96 13.7-2.01 4.49-7.32 5.85-11.83 5.65-21.98.03-43.97.06-65.95-.14-4.48.21-9.54-1.45-11.4-5.89-1.33-4.3-.65-8.91-.73-13.34.03-13.58-.14-27.17.02-40.75.41-5.02-1.11-11.38 3.44-14.95m36.14 11.27c-8.06 1.96-15.28 7.73-18.31 15.54-4.06 9.77-1.02 21.85 7 28.7 8.38 7.37 21.58 8.33 30.9 2.19 7.25-4.75 11.78-13.37 11.51-22.04-.13-8.79-5.03-17.53-12.89-21.67-5.43-3.26-12.08-3.95-18.21-2.72z"/><path fill="#adacac" d="M282.55 534.14c6.26-.03 12.52-.05 18.79-.04.15 7.66.07 15.32.09 22.99-6.4.06-12.79.12-19.19.06.32-3.01 4.24-4.02 4.09-7.12.11-3.33.24-6.71-.4-9.98-1.32-1.87-3.17-3.48-3.38-5.91z"/><path fill="#5a5b5a" d="M330.84 550.71c8.15-.04 16.3.09 24.45-.16-.11 8.31-.08 16.63.1 24.94-8.16-.78-16.37-.64-24.56-.62.06-8.05-.06-16.1.01-24.16z"/><path fill="#fefefd" d="M243.43 597.51c1.28-1.07 3.06-.63 4.6-.74 12.32.18 24.65-.02 36.97.02 1.52-.18 3.78.35 3.5 2.32.19 5.63.1 11.26.16 16.89.24 1.58-.95 3.09-2.62 2.83-13.38.09-26.77-.06-40.15.03-1.75.38-3.26-1.07-3.03-2.82.05-6.03-.29-12.08.03-18.09l.54-.44m29.85 2.76l-.01.22c-6.15-.16-12.3-.12-18.44-.06-2.78.04-5.94-.77-8.4.88-1.46 3.92-1.22 8.45-.49 12.52 2.22 2.33 5.88 1.29 8.75 1.72l.06-.69c6.14.56 12.31.08 18.47.34 2.84.21 5.68.05 8.49-.4.54-3.23.86-6.51.64-9.79-.15-1.41-.01-3.18-1.43-4-2.36-1.14-5.11-.6-7.64-.74z"/><path fill="#a6a6a6" d="M273.28 600.27c2.53.14 5.28-.4 7.64.74 1.42.82 1.28 2.59 1.43 4 .22 3.28-.1 6.56-.64 9.79-2.81.45-5.65.61-8.49.4 0-4.91 0-9.81.05-14.71l.01-.22z"/><path fill="#b0b0af" d="M246.43 601.31c2.46-1.65 5.62-.84 8.4-.88.22 4.81.43 9.63-.08 14.43l-.06.69c-2.87-.43-6.53.61-8.75-1.72-.73-4.07-.97-8.6.49-12.52z"/><path fill="#030302" d="M449.72 606.55c4.66.48 11.31-1.46 13.91 3.76 1.2 3.98 1.16 8.52.11 12.54-2.56 5.3-9.34 3.5-14.06 3.75.03-6.68.05-13.37.04-20.05m2.96 2.67c-.05 4.88-.03 9.77.08 14.66 2.67-.26 6.76.9 8.01-2.34.84-3.08.74-6.42.27-9.55-1.46-3.24-5.46-2.63-8.36-2.77z"/><path fill="#030403" d="M468.3 616.86c.72-4.72 7.54-6.26 10.61-2.89 1.67 1.71 1.27 4.28 1.58 6.47-3.32.17-6.64.04-9.95.1.72 1.13.98 2.93 2.56 3.27 2.34 1.45 6.33-2.55 7.35 1.14-3.07 1.9-7.61 2.89-10.49.17-2.32-2.05-1.96-5.5-1.66-8.26m3.13 1.33c2.06.19 4.14.12 6.21.12-.38-1.5-.86-3.56-2.77-3.59-1.85-.51-4.84 1.65-3.44 3.47z"/><path fill="#050605" d="M499.27 612.33c.97-.03 1.96-.04 2.95-.05.05 4.78.06 9.56.02 14.35-1 .04-1.99.09-2.98.15-.02-4.82 0-9.64.01-14.45z"/><path fill="#060706" d="M506.34 616.01c.45-2.52 3.18-4.4 5.69-3.69 1.81.56 3.67.34 5.52.06.72 4.93.68 9.99.43 14.97-.31 5.64-8.79 7.2-11.65 2.75 1.5-3.56 4.24.96 6.6-.26 2.05-.47 1.88-2.99 2.42-4.54-2.13 1.24-4.94 2.4-7.17.72-2.86-2.4-2.55-6.72-1.84-10.01m3.9-.65c-1.85 2.62-2.1 8.09 1.74 9.08 3.37-.3 3.53-3.95 3.17-6.53.25-2.43-3.11-4.33-4.91-2.55z"/><path fill="#040402" d="M522.39 626.71c.03-5.09-.33-10.2.34-15.24 1.35 2.52 2.12 5.31 2.48 8.15.13 2.36.12 4.74.14 7.11-.99-.01-1.98-.02-2.96-.02z"/><path fill="#f9f7fa" d="M471.43 618.19c-1.4-1.82 1.59-3.98 3.44-3.47 1.91.03 2.39 2.09 2.77 3.59-2.07 0-4.15.07-6.21-.12z"/><path fill="#030102" d="M553.53 619.79c3.81-.45 7.65-.56 11.49-.62.23 2.65.44 5.31.6 7.98-1.18-.47-2.34-.95-3.49-1.44-1.77 1.34-4.28 1.65-6.12.26-2.12-1.31-1.95-4.07-2.48-6.18m3.16-.17c.06.68.18 2.04.23 2.72.66 2.82 4.07 2.12 5.78.68l.56-3.43c-2.19-.04-4.39-.02-6.57.03z"/><path fill="#060607" d="M603.21 619.51c.8.01 1.6 0 2.41-.02.25.62.75 1.85 1 2.46.72-.79 1.1-1.73 1.14-2.81.75.03 2.25.1 2.99.13-.88 2.4-1.72 4.82-2.52 7.26-.94.12-1.87.24-2.8.37-.8-2.45-1.53-4.92-2.22-7.39z"/><path fill="#a0a0a0" d="M605.62 619.49c.53-.08 1.6-.26 2.14-.35a4.286 4.286 0 0 1-1.14 2.81c-.25-.61-.75-1.84-1-2.46z"/><path fill="#070707" d="M622.85 619.4c.56 0 1.67.01 2.22.02.07 2.5.1 5 .08 7.51-3.83-.7-2.11-4.84-2.3-7.53z"/><path fill="#f8f9f9" d="M635.02 619.24c2.61-.04 5.22-.1 7.83 0 .1.46.31 1.39.41 1.86-1 1.77-2.69 4.19-5.05 2.93-2.28-.52-2.83-2.84-3.19-4.79z"/><path fill="#fdfefc" d="M652.38 619.1c2.09-.01 4.18.04 6.28.1-.11 1.39-.2 2.8-.29 4.21-1.3.27-2.57.69-3.88.79-2.31-.61-1.75-3.32-2.11-5.1z"/><path fill="#050506" d="M531.4 619.67c.76.02 2.26.07 3.02.09-.09 2.36-.2 4.73-.3 7.11l-2.53-.44c-.26-2.25-.16-4.51-.19-6.76z"/><path fill="#f8f8f8" d="M556.69 619.62c2.18-.05 4.38-.07 6.57-.03l-.56 3.43c-1.71 1.44-5.12 2.14-5.78-.68-.05-.68-.17-2.04-.23-2.72z"/><path fill="#adadac" d="M478.44 635.68c6.99-1.54 14.71 1.12 19.26 6.64 5.22 6.01 6.45 15.19 2.86 22.31-3.24 6.98-10.95 11.37-18.57 11.13-10.44.11-20.06-9.25-19.78-19.77-.41-9.52 7-18.42 16.23-20.31m-.12 7.84c-5.89 1.97-9.46 8.51-8.09 14.57 1.1 7.16 9.43 11.89 16.18 9.33 5.57-1.76 9.44-7.67 8.45-13.51-.56-7.67-9.39-13.16-16.54-10.39z"/><path fill="#aeaead" d="M612.38 635.53c7.03-1.23 14.68 1.34 19.22 6.92 3.7 4.19 5.37 9.94 4.73 15.48-.61 8.19-7.07 15.46-15.03 17.28-4.93 1.1-10.33.77-14.77-1.77-6.94-3.7-11.44-11.61-10.63-19.49.49-8.91 7.66-16.99 16.48-18.42m.07 8.1c-5.9 1.77-9.96 8.21-8.69 14.3 1.22 7.07 9.3 12.14 16.18 9.69 6.48-1.77 10.51-9.37 8.13-15.71-1.72-6.53-9.2-10.68-15.62-8.28z"/><path d="M1076.4 635.62c10.83-2.8 22.65 5.35 24.24 16.32 1.08 6.48-.73 13.52-5.55 18.13-5.11 5.23-13.18 6.83-20.11 4.96-8.77-2.62-15.46-11.67-14.48-20.93.54-8.75 7.36-16.62 15.9-18.48m.95 7.76c-4.78 1.35-8.59 5.65-9.14 10.61-1.13 7.59 6.2 15.25 13.91 13.91 7.11-.48 12.93-7.99 10.81-15-1.23-6.92-8.83-11.72-15.58-9.52zm133.08-7.8c11.78-2.85 24.53 7.33 24.35 19.44.55 8.59-5.42 16.69-13.33 19.62-4.76 1.66-10.12 1.53-14.81-.3-8.35-3.2-13.56-12.66-12.24-21.43.81-8.47 7.73-15.74 16.03-17.33m-.05 7.95c-4.47 1.53-7.74 5.71-8.38 10.36-1.13 6.02 3.13 12.28 9 13.8 7.41 2.48 16.26-3.74 15.95-11.69.6-8.38-8.58-15.75-16.57-12.47z" fill="#acadac"/></svg>