<svg version="1.2" xmlns="http://www.w3.org/2000/svg" viewBox="0 0 720 1488" width="720" height="1488"><style>.a{fill:#fff}.b{fill:#010101}.c{fill:#dcb64f}</style><path class="a" d="m44.5 610.6c12.4-15.8 32.4-25.4 52.5-25.2 16 0.1 32 0 48.1 0.3 17.9 0.2 35.9-0.3 53.9 0.5 52.7 0.1 105.3 0.5 158 0.6 21 0.6 42 0.4 63 0.5 62 0.4 124 1 186 1.1 21.2-0.7 42.5 9.3 55.3 26.3 6.9 9.4 11.3 20.6 12.8 32.2 0.6 13.7 0.1 27.4 0.1 41.1-0.6 29.3-0.5 58.7-0.8 88-0.3 14.3 0.1 28.7-0.6 43-0.1 33-0.5 66-0.6 99 0 3.6 0.2 7.3-0.3 11-0.3 31-0.4 62-0.5 93-1 38.6-0.8 77.3-1.1 116-0.2 6.3 0.2 12.7-0.5 19-0.3 29-0.3 58-0.5 87 0.3 7.7-0.7 15.3-0.6 23q-0.3 43-0.4 86c-0.1 3.6 0.2 7.3-0.4 10.9-0.3 13.7-0.1 27.4-0.4 41.2-0.5 19.7-11.5 38.7-28 49.4-10.6 7.3-23.7 10.7-36.5 10.2-58.7-0.4-117.3-0.3-176-0.9-53.3-0.3-106.6-0.5-160-0.6-24 0.1-48-0.6-72-0.5-29.7-0.1-59.3-0.2-89-0.3-7.7-0.2-15.5 0.6-23.1-1.3-27.1-5.5-49-31-49.4-58.8-0.2-33.4-0.1-66.8-0.4-100.3-0.1-10.6 0.3-21.3-0.4-32 0.1-71.3-0.3-142.7-0.5-214-0.8-18.3-0.3-36.7-0.5-55-0.1-55-0.1-110-0.5-165-0.6-61-0.7-122-0.7-183-0.3-15.2 4.4-30.5 14-42.4zm53.9 19c-3.8 1-7.1 3.8-8.6 7.4-1.2 2.8-1.1 5.9-1.1 9 0.2 108.3 0.8 216.7 0.9 325 0.5 147.4 0.9 294.7 1.3 442.1-0.2 6.3 4.9 11.9 11 12.9 7.4 1.3 14.6-5.6 13.9-13-0.2-83-0.3-166-0.5-249 0-66.7-0.5-133.3-0.5-200-0.1-107-0.4-214-0.5-321.1 0.8-8.3-7.8-15.4-15.9-13.3zm108 1c-5.3 2.1-7.8 8-7.6 13.4 0.1 43.3 0.1 86.7 0.1 130-0.2 4.6 2 9.5 6.1 12 5.8 3.7 14.3 1.5 17.7-4.4 2.1-3.8 1.6-8.4 1.6-12.6q0-60 0-120c-0.1-4 0.5-8.2-1.1-11.9-2.6-6.3-10.7-9.3-16.8-6.5zm141.1 1.1c-3.8 2-6.5 6-6.8 10.3-0.3 44.7-0.2 89.4-0.4 134.1-0.1 6.7 5.9 13 12.8 12.5 6.7 0.2 12.6-5.9 12.3-12.6 0.1-43.3 0.2-86.7 0.4-130-0.1-3.1 0.1-6.4-1.6-9.1-2.9-5.9-11-8.2-16.7-5.2zm143 0c-3.5 1.2-6.4 3.9-7.7 7.3-1.5 4.1-0.9 8.6-1 13-0.1 40-0.4 80-0.6 120.1 0.1 2.6-0.2 5.2 0.3 7.9 1.5 5.7 7.4 10.1 13.4 9.5 6.4-0.5 11.6-6.4 11.6-12.7 0.2-35.6 0.2-71.2 0.4-106.8 0-9.3 0.7-18.7 0-28-0.5-7.7-9.3-12.8-16.4-10.3zm110.9 0.9c-5.3 1.4-9 6.6-8.9 12-0.4 22.5 0 44.9-0.7 67.4q-0.2 41.5-0.5 83c0 35-0.9 70-0.9 105 0.1 29.7-0.8 59.3-0.8 89-0.3 25.3-0.3 50.7-0.4 76-0.7 29.3-0.7 58.7-0.9 88 0.1 24.8-0.7 49.6-0.7 74.4-0.5 25.5 0 51.1-0.8 76.6-0.2 29.7-0.4 59.4-0.6 89 0 8.4-0.9 16.7-0.1 25 0.7 5.9 6.1 10.5 12 10.6 6 0.4 11.9-4.5 12.6-10.5 0.6-6.7 0.3-13.4 0.4-20.1 0.2-26 0.5-52 0.7-78 1.2-108 1.8-216 3-324 0-30.7 0.6-61.3 0.9-92 0.5-85.3 1.6-170.7 2-256 0.1-3.8 0.1-8.1-2.6-11.2-3.1-4.1-8.8-5.7-13.7-4.2zm-415 192.5c-0.2 50.6-0.2 101.3-0.2 151.9 0.1 3.9-0.4 8 1.2 11.7 2.5 6.2 8.9 10.6 15.6 10.7 28 0.1 56 0.2 84 0.4 36 0.7 72 0.4 108 0.7 28 0.3 56-0.1 84 0.7 6.6-0.1 13.3 0 19.9 0 10.1 0.9 19.6-8 18.8-18.2 0-52 0.5-104 0.6-156 0.1-8.2-6.7-15.8-14.9-16.6-5.1-0.3-10.3-0.1-15.4-0.2-69.7-0.4-139.4-1.1-209-1.1-25-0.6-50.1-0.5-75.1-0.6-9.1-0.5-17.7 7.3-17.5 16.6zm20.8 196.1c-5.3 1.7-8.5 7.3-8.3 12.7-0.2 44.4 0.3 88.8 0.2 133.1-0.2 3.7 1.1 7.5 3.7 10.1 4.1 4.2 11.3 5.2 16 1.7 3.6-2.3 5.6-6.6 5.5-10.8 0-45 0.1-90 0-135 0-8.3-9.3-14.9-17.1-11.8zm141.3 0.5c-6.4 2-9.7 9-8.8 15.3 0 7.4 0 14.7 0 22 0.3 7.2 7.9 12.9 14.9 11.5 5.7-1.2 10.2-6.7 10-12.5 0.2-8.3 0.1-16.6 0-25-0.1-7.8-8.7-13.8-16.1-11.3zm140.9 0.9c-3.5 0.9-6.4 3.6-7.9 6.8-1.6 3.3-1.1 7-1.2 10.6 0 14.6-0.1 29.3-0.1 44-0.8 28.3-0.5 56.7-0.8 85-0.6 7 5.5 14 12.6 13.7 5 0.1 9.9-3.3 11.6-8.1 1-2.7 0.9-5.7 0.9-8.6 0-42.7 0.8-85.3 0.9-128 0-3.5 0-7.3-2.2-10.2-3-4.5-8.7-6.7-13.8-5.2zm-174 69.1c-7.1 2.4-12.9 8.7-14.3 16.2-2.2 9.2 2.4 19.7 10.9 24.1 4 2.2 8.6 2.5 13 2.5 18 0.1 36 0.2 54 0.2 9.8 0.3 18.8-7.3 20.8-16.7 1.4-6 0.3-12.5-3.2-17.5-4-6.2-11.3-9.8-18.6-9.7-17 0-34-0.1-51-0.2-3.9 0-7.8-0.3-11.6 1.1zm33 64.9c-4.8 1.5-8.7 6.2-8.7 11.4-0.2 82.3-1 164.6-1.2 247-0.1 9.1 11.2 15.9 18.9 10.4 3.8-2.3 6.3-6.6 6.1-11 0.3-38.8-0.2-77.7 0.7-116.4 0.2-43 0.4-86.1 0.4-129.1 0.5-8.1-8.4-15-16.2-12.3zm-167.8 58.9c-8.6 10.4-10.9 25.4-6.3 38 2.9 7.1 7.4 13.8 13.8 18.3 2.4 1.9 5.6 3.9 5.6 7.3 0.3 8.9 0 17.9 0.1 26.9 0.1 4.1-0.5 8.4 0.9 12.4 1.6 0.2 3.5 0.8 4.8-0.7 0.8-2.1 0.6-4.5 0.6-6.7 0-10 0.1-20 0-30-0.1-4.4-1.5-9.2-5.2-11.9-4.2-3.1-8.2-6.4-11.1-10.8-7-10.3-7.3-24.7-0.8-35.3 7.2-12 22.4-18.7 36.1-15.5 15.3 2.9 27.1 18 26.5 33.5 0.1 10-5 19.7-13 25.6-3.8 2.8-7.9 6.3-8.1 11.4-0.6 11.7 0 23.4-0.6 35 0.3 1.9-0.4 5.3 2.2 5.7 2.3 1 4.6-1.3 4.2-3.6q0.1-18.1 0.1-36.2c-0.1-3.3 2.9-5.3 5.3-6.9 13-8.7 18.7-26 15.1-40.9-2.8-12.8-12.5-23.7-24.8-28.2-15.7-5.9-35-0.7-45.4 12.6zm275.9 6c-9.3 16.2-5.5 39.1 9.5 50.5 2.6 2.2 6.1 4.2 6.3 8 0.5 12.8-0.2 25.6 0.3 38.3 1.2 2.6 3.7 2 5.8 1 0.3-12.7 0.2-25.3 0.1-38 0.2-5.3-2.8-9.9-7.1-12.9-12.5-9.2-17.5-27.5-10.5-41.6 6.9-14.6 25.2-22.5 40.5-17.3 13.2 3.9 22.6 16.9 23.2 30.6 0.7 11.3-5 22.8-14.5 29.1-4.3 2.8-7.3 7.5-7.3 12.7-0.2 11.7-0.2 23.5-0.1 35.2-0.3 3.5 5.5 4.4 6 0.8 0.6-10.6 0.3-21.2 0.4-31.8 0.1-2.6-0.3-5.4 0.8-7.8 2.2-3.3 5.9-5 8.7-7.7 9.6-8.9 14.3-22.8 11.9-35.6-2.4-16.8-16.9-30.6-33.5-32.9-15.8-2.5-32.6 5.5-40.5 19.4zm-248 123.2c-5.9 1.4-9.9 7.4-9.3 13.3 0 18.3-0.1 36.7 0 55.1-0.2 3.6 1.4 7.2 3.9 9.8 4.8 5 13.7 4.8 18.1-0.6 4.3-4.7 3-11.5 3.2-17.3 0-16 0-32-0.1-48 0.2-7.9-8.2-14.5-15.8-12.3zm278.8 1.7c-5.1 1.8-8.9 7.1-8.7 12.6 0 18.7-0.2 37.3-0.2 56-0.3 7.1 6.6 13.5 13.7 12.7 6.3-0.3 11.3-6.5 11.1-12.7 0.1-19 0.4-38 0.4-57-0.1-7.9-8.7-14.5-16.3-11.6z"/><path class="a" d="m99.3 633.6c5.3-1.5 11 2.9 10.8 8.3 0.1 101 0.7 202.1 0.7 303.1 0.2 42.3-0.1 84.7 0.2 127q0.3 170 0.8 340c0.6 4.7-2.8 9.7-7.8 9.8-4.8 0.6-9.1-3.9-9.1-8.6-0.1-55.1-0.2-110.1-0.5-165.2-0.2-53-0.1-106-0.5-159-0.2-89.3-0.5-178.6-0.6-267.9-0.3-59.8-0.6-119.5-0.5-179.2 0.2-3.8 2.7-7.5 6.5-8.3z"/><path class="a" d="m209.2 634c4.4-1.5 9.7 1.6 10.6 6.2 0.6 2.5 0.4 5.2 0.4 7.8-0.1 42 0 84 0 126 0 3.2-1 6.6-3.8 8.3-3.6 2.7-9.2 1.6-11.7-2.1-2.5-3.2-1.8-7.5-1.9-11.2 0.1-41.7 0.1-83.4 0-125-0.2-4.3 2.2-8.8 6.4-10z"/><path class="a" d="m349.4 635.5c5.2-3.2 12.7 1.4 12.3 7.5 0 44-0.2 88-0.2 132 0.3 4.2-2.5 8.4-6.6 9.5-5.2 1.3-10.7-3.2-10.6-8.5 0.1-44.3 0.3-88.7 0.4-133 0.1-3.1 1.9-6.1 4.7-7.5z"/><path class="a" d="m491.5 635.7c6-2.5 12 3.2 11.6 9.2-0.4 43.7-0.5 87.4-0.6 131.1 0.1 4.3-3.1 8.8-7.5 9.4-5.2 0.9-10.6-4-9.8-9.4 0.1-43.6 0.6-87.3 0.6-130.9-0.2-3.9 1.9-8.1 5.7-9.4z"/><path class="a" d="m602.4 636.6c5.5-2.2 11.6 2.7 11.3 8.4-0.4 82-1.4 164-1.9 246.1q-1.7 171.9-3.1 343.9c-0.5 26.7-0.2 53.3-0.9 80-0.3 33.7-0.4 67.4-1 101.1 0.3 5-4.8 9.4-9.6 8.4-3.9-0.7-7.3-4.4-7.1-8.5 0.1-56 1.2-112 1.3-168 0.3-23.3 0.3-46.7 0.8-70 0.1-30 0.3-60 0.6-90 0.7-25.3 0.4-50.7 0.7-76-0.1-30.7 0.7-61.3 0.8-92 0.1-44 0.9-88 1.1-132.1 0.1-37 0.9-73.9 0.9-110.9 0.1-10.7 0-21.4 0.2-32.1-0.1-3.7 2.5-7.1 5.9-8.3z"/><path class="a" d="m198.4 813.5c3-1.3 6.4-0.9 9.6-1 47.6 0.2 95.3 0.9 143 0.9 31.7 0.1 63.3 0.5 95 0.5 18.3 0.5 36.6 0.2 55 0.4 5-0.1 10.1 2.8 12.2 7.5 1.6 3.5 1.1 7.5 1.2 11.2-0.2 50.4-0.3 100.7-0.7 151.1 0.1 6.4-5.2 12.4-11.6 13-6.4 0.4-12.7 0-19.1-0.3q-73.5-0.2-147-0.6c-44.7-0.7-89.4-0.4-134-0.8-6.7-0.4-12.1-6.8-11.8-13.4-0.1-52 0-103.9 0.1-155.9-0.2-5.3 3.1-10.5 8.1-12.6zm9 7.1c-3.7 0.8-6.6 4.2-7 8-0.4 3.8-0.1 7.6-0.2 11.4-0.1 45.7 0.1 91.4-0.3 137.1-0.3 5.5 4.4 10.9 10 10.5 30.4 0 60.7 0.2 91 0.2 11.7 0.5 23.4 0.5 35.1 0.5 37.4 0.1 74.7 0.4 112 0.5 15.7-0.2 31.3 0.9 47 0.2 5.1-0.1 9.1-5 8.7-10 0.1-49.4 0.9-98.7 0.5-148.1-0.1-5.1-5.1-9.3-10.1-8.7-22.4 0.3-44.7-0.5-67.1-0.4-52.7-0.5-105.3-0.4-158-0.9-20.5 0.1-41.1-0.8-61.6-0.3z"/><path class="a" d="m208.3 1025.2c4.8-2.6 11 1.5 11.5 6.7 0.6 10.4 0.2 20.8 0.3 31.1q0.1 51.5 0 103c-0.1 2.2-0.1 4.6-1.1 6.8-2.2 4.2-8.4 5.4-12.1 2.4-2.6-1.8-3.9-5-3.7-8.1-0.1-44.7-0.2-89.5-0.1-134.2-0.2-3.4 2.3-6.3 5.1-7.7z"/><path class="a" d="m349.6 1025.8c5.1-2.1 11.3 2.8 11 8.2q0.1 12-0.1 24c0.3 4-2.7 7.6-6.5 8.4-3.4 0.8-6.8-1.1-8.8-3.6-1.8-2.2-1.5-5.2-1.6-7.8 0.1-7 0-14 0-20.9 0-3.7 2.7-7 6-8.3z"/><path class="a" d="m490.4 1026.6c3.5-1.4 7.5 0.5 9.4 3.6 2 2.9 1.4 6.5 1.5 9.8 0 42-0.8 84-0.9 126 0 3.2 0.2 6.8-2 9.5-2.8 3.9-9.2 4.1-12.5 0.6-1.9-1.8-2.6-4.5-2.5-7 0.2-26.7 0.2-53.4 0.4-80.1 0.8-18.3 0.3-36.7 0.6-55.1 0.1-3.4 3-6.2 6-7.3z"/><path class="a" d="m316.4 1095.5c2.8-0.9 5.7-0.9 8.6-0.9 17 0 34 0.2 51 0.1 5.4 0 11.3 1.1 15.1 5.3 7.4 7 6.8 20.4-1.1 27-3.5 3-8.4 3.8-13 3.7-18.3-0.2-36.6-0.2-54.9-0.3-7.6 0.3-14.7-5.2-16.7-12.5-2.9-8.8 2-19.5 11-22.4zm4 7.1c-5 1.2-8.4 6.5-7.5 11.5 0.6 4.9 5.2 8.7 10 8.6 17.7 0.3 35.4-0.2 53.1 0.4 3 0.1 6.2-0.5 8.5-2.5 5.2-4.1 4.3-13.4-1.5-16.6-3.7-2.1-8-1.1-12-1.4-16.9 0.1-33.8-0.6-50.6 0z"/><path class="a" d="m349.4 1160.5c5.8-2.3 12 3.5 11.2 9.5 0 32.6-0.3 65.3-0.4 98-1.1 48.6-0.3 97.3-0.8 145.9 0.3 4.4-2.9 8.6-7.2 9.3-4.7 0.4-9.6-3.3-9.6-8.2 0-82 0.9-164 1.1-246-0.1-3.7 2.2-7.2 5.7-8.5z"/><path class="a" d="m208.2 1349.1c5.8-2.9 12.6 2.7 12 8.9 0.2 18.3 0.1 36.6 0.1 55 0.2 3.4-1.5 7-4.7 8.5-5.2 3-12.3-1.8-12.2-7.6-0.1-19 0-38-0.1-56.9-0.3-3.4 1.9-6.5 4.9-7.9z"/><path class="a" d="m487.6 1350.7c3.4-1.4 7.9-0.7 10.3 2.5 1.6 1.8 1.7 4.4 1.7 6.8 0 17.6-0.2 35.3-0.3 52.9 0 2.6 0 5.5-1.8 7.6-2.9 3.9-9.4 4.2-12.7 0.6-2-1.7-2.6-4.5-2.5-7.1 0.1-18 0.2-36 0.3-54-0.4-3.8 1.5-7.6 5-9.3z"/><path class="b" d="m491.5 23.6c14.6-6.8 31.6-6.8 47-2.8 10.1 3.1 19.9 9 25.4 18.3 3.8 6.3 2.3 13.9 2.5 20.9 0.1 7.3-0.8 14.7-0.7 22q-1.5 0.4-2.9 0.8c-0.1 2-0.2 4.1-0.1 6.1q1.4 0.9 2.8 1.7c-0.2 6.4 0.4 13-1 19.3-0.5 0.2-1.6 0.6-2.2 0.8-0.2 2.8-0.8 6.2 2.3 7.7 0.3 11.8-0.3 23.8-0.4 35.6-1.1 16.8-0.2 33.6-1.4 50.3-0.2 12.6-0.3 25.1-0.5 37.7-1.2 16.2-0.4 32.6-1.4 48.9-0.3 13.4-0.4 26.7-0.7 40.1-1.1 16-0.3 32.1-1.4 48-0.3 16.7-0.1 33.4-1 50q-0.1 12.4-0.4 24.7c-4.2 0.3-8.4 0.6-12.6 0.8 3.1 0.4 6.3 0.4 9.3 1.2 3.1 1.4 4.5 4.7 6.3 7.3 0 4.3-0.1 8.6-0.2 13-0.9 12.2-0.3 24.6-0.9 36.9-0.3 4.3-4 7.2-7.5 9.2-0.3 9.5-0.4 19-0.4 28.5-0.7-0.2-2.1-0.7-2.9-1 3.5 1.9 7.6 2.8 10.4 5.5 1.2 3.8 0.5 8 0.2 11.9-1.3 2.7-4.5 3.2-6.9 4.5-0.1 2.2-0.1 4.5-0.1 6.8 3.5 0 6.9-0.1 10.3 0.5 0.4 1.8 0.7 3.6 0.9 5.5 15.4-0.1 30.7 0 46 0.2 15.1 0 29.8 5.4 41.7 14.4 13.3 10 22.6 24.9 25.8 41.1 2.3 9.8 1.6 20 1.7 30q-0.2 16.5-0.4 33.1-0.2 2.4-0.3 4.9-0.1 52.5-0.6 105c-1 37.3-0.5 74.7-1.1 112-0.8 25-0.3 50-0.6 75 0 31.1-0.7 62.2-1 93.4-0.1 25.5 0 51.1-0.7 76.6-0.5 39.3 0 78.7-1 118q-0.4 45.5-0.6 91c0 3.6 0.2 7.3-0.3 10.9-0.3 10.8 0.5 22-3.2 32.5-8 26-33.3 45.8-60.6 46.3-125.4-0.2-250.7-1.4-376.1-1.5-40.3-0.7-80.7-0.5-121-0.8-10.4-0.2-20.9 0.7-31.1-1.9-26.8-6.4-48.1-31-50.3-58.5-0.6-10-0.2-20-0.4-30-0.8-57.7-0.3-115.3-0.6-173-0.4-41.3 0-82.7-0.8-124-0.2-87.4-0.2-174.7-1-262-0.1-53.3-0.5-106.6-0.4-160 0-6.8 0-13.7 1.5-20.4 3.5-15.6 12.3-30.1 25-39.9 11.7-9.7 26.9-14.9 42-15.1-0.7-17.1 4.9-35.1 17.9-46.8 7.9-7.8 18.1-13 29-15 16.9-3.3 35.1 2.1 47.7 13.7 12 10.6 18.8 26.6 19 42.5q0.1 3.1 0.2 6.2 74.6 0.3 149.3 0.7c31.8 0.6 63.7 0.2 95.5 0.6q0.4-2.6 1-5.1c3.4-0.3 6.8-0.2 10.3-0.2q-0.1-3-0.1-6c-2.9-0.7-5.5-3-5.8-6-0.2-3.1-0.2-6.2 0-9.3 0.3-3.2 3.1-5.1 5.8-6.3-0.5-10.2 0.3-20.4 0.2-30.6-3.9-2.3-8.3-6-7.6-11 0.5-15.7 0.2-31.4 1.1-47.1 0.3-2.9 3-4.7 5.2-6.3 3.1-2.4 7.2-2.4 10.9-2.8-4-0.7-8-0.4-12-1.1 0.2-17.6 1.2-35.1 1.2-52.7 1.1-14.6 0.5-29.4 1.2-44 0.8-12 0.4-24 0.8-36 1-15 0.7-30 1.1-45 0.9-13.3 0.6-26.6 1-39.9 1.1-15.7 0.3-31.4 1.4-47 0.1-12.1 0.3-24.1 0.6-36.1 0.9-11.7 0.4-23.5 0.8-35.3 0.6-0.1 2-0.5 2.6-0.7q0.3-3.1 0.4-6.2-1.4-0.8-2.9-1.7c-0.1-6.2 0.2-12.5 0.8-18.7 2.9-1.5 3-4.5 2.7-7.5q-1.3-0.7-2.6-1.6c-0.2-6.4 0.1-12.9 0.6-19.3 0.3-5.5-0.4-11.1 0.5-16.6 2.6-9.2 10.6-15.6 18.8-19.8zm-8.6 430.9c2.4 1.4 4.5 3.1 7.1 4.3 3.8-1.5 7.6-3.1 11.6-4.1-6.2-0.3-12.5-0.2-18.7-0.2zm48.2 1.1c3.2 1.4 6.3 3 9.4 4.8q2.2-2 4.6-3.8c-4.7-0.5-9.3-1-14-1zm-62.8 1c-3.6 1.3-7.9 4-7.6 8.4 0 15.4-0.3 30.7-0.8 46.1 3.2 7.3 13.3 8.9 20 5.7 3.5-1.7 7.9-4.3 7.5-8.8 0.2-14.3 0.9-28.7 0.9-43-0.1-1.7 0.1-3.7-1.3-5-4.7-4.9-12.5-5.3-18.7-3.4zm22.4 5c-0.1 16.4-0.1 32.9-0.9 49.3 7.2 4.6 15.5 7.7 24.2 7.7 8.5 0.1 17.6-1.6 24.5-7 0.2-16.3 0.9-32.7 1.1-49-14.6-9-33.9-9.1-48.9-1zm56.6-3.3c-2.7 1.1-5.7 3.3-5.4 6.6-0.3 14.7-0.4 29.4-0.9 44.1-0.5 4.2 2.8 7.8 6.3 9.6 4.2 2.2 9.3-2.2 9.3-6.5q0.5-23.1 1-46.1c0.3-5.1-5.4-10-10.3-7.7zm-65.1 60.3c5.9-0.1 11.8 0.1 17.7 0.2-3.8-1.4-7.6-3.1-11-5.4-2 2-4.3 3.7-6.7 5.2zm47.4 0.7c4.7 0.2 9.5 0.2 14.2 0.4q-2.3-2.6-4.6-5.3c-3 2-6.3 3.5-9.6 4.9zm-62.5 28.2c27.1-0.3 54.2-0.2 81.4 0.5 0.1-8.6 0.1-17.2 0.1-25.8-8.5 0.2-17.1-0.5-25.6-0.5-18.4-0.6-36.9-0.2-55.3-0.9-0.4 8.9-0.3 17.8-0.6 26.7zm-342.4 14.3c-3.2 6-3.8 13-3 19.7 20.1 0 40.3 0.2 60.5 0.2 1-9.8-1.4-20.3-8.3-27.6-5.8-6.3-14.3-9.9-22.9-9.5-11.1 0.2-21.5 7.3-26.4 17.2zm388.4-9.1c3.9 1.1 8 1.2 12 0.1-4-0.6-8-0.6-12-0.1zm-41.9 3.2c0.1 3.2 0.3 6.4 0.2 9.6 9.6 2.8 19.7 4.6 29.7 3.4 5.8-0.7 11.7-1.7 17.3-3.6-0.1-3.1-0.3-6.3-0.6-9.4-7.9-1.1-15.7-3.2-23.7-3.2-7.7 0.1-15.4 1.3-22.9 3.2zm49.5 0.4q0 4.5 0.1 9.1c5.5 2.3 11.4 3.4 17.3 4 6.2 0.5 12.9 0.1 18.2-3.3 1.1-2.7 0.4-6 0.6-9-11.2-5.6-24.5-4.4-36.2-0.8zm-58.9 8.9c-0.3 2 2.3 4.8 4.1 2.8 4.9-2.7 2.5-9 1.7-13.3-0.6-0.3-1.9-0.8-2.6-1.1-4.3 2.3-3.2 7.5-3.2 11.6zm6 13.1c27 0.6 54.1 0.2 81.2 0.4q-0.1-3.4-0.2-6.8c-26.8-0.3-53.6-0.3-80.4-0.3q-0.4 3.4-0.6 6.7zm-10.6 3c0.1 0.6 0.1 1.8 0.1 2.3 34.2 0.2 68.3 0.2 102.5 0.7q0-1.4-0.1-2.7c-34.1-0.2-68.3-0.1-102.5-0.3zm-412.5 29.3c-9.7 11.9-14.4 27.2-14.1 42.4 0 61 0.1 122 0.7 183 0.4 55 0.4 110 0.5 165 0.2 18.3-0.3 36.7 0.5 55 0.2 71.3 0.6 142.7 0.5 214 0.7 10.7 0.4 21.4 0.4 32 0.3 33.5 0.2 66.9 0.4 100.3 0.4 27.8 22.3 53.3 49.4 58.8 7.6 1.9 15.4 1.1 23.1 1.3 29.7 0.1 59.3 0.2 89 0.3 24-0.1 48 0.6 72 0.5 53.4 0.1 106.7 0.3 160 0.6 58.7 0.6 117.3 0.5 176 0.9 12.8 0.5 25.9-2.9 36.5-10.2 16.5-10.7 27.5-29.7 28-49.4 0.3-13.8 0.1-27.5 0.4-41.2 0.6-3.6 0.3-7.3 0.4-10.9q0.1-43 0.4-86c-0.1-7.7 0.9-15.3 0.6-23 0.2-29 0.2-58 0.5-87 0.7-6.3 0.3-12.7 0.5-19 0.3-38.7 0.1-77.4 1.1-116 0.1-31 0.2-62 0.5-93 0.5-3.7 0.3-7.3 0.3-11 0.1-33 0.5-66 0.6-99 0.7-14.3 0.3-28.7 0.6-43 0.3-29.3 0.2-58.7 0.8-88 0-13.7 0.5-27.4-0.1-41.1-1.5-11.6-5.9-22.8-12.8-32.1-12.8-17.1-34.1-27.1-55.3-26.4-62-0.1-124-0.7-186-1.1-21-0.1-42 0.1-63-0.4-52.7-0.2-105.3-0.6-158-0.7-18-0.8-36-0.3-53.9-0.5-16.1-0.3-32.1-0.2-48.1-0.3-20.1-0.2-40.1 9.4-52.4 25.3z"/><path class="b" d="m98.4 629.6c8-2.1 16.7 5 15.9 13.3 0.1 107.1 0.4 214.1 0.5 321.1-0.1 66.7 0.5 133.3 0.5 200 0.2 83 0.3 166 0.5 249 0.7 7.4-6.5 14.3-13.9 13-6.1-1-11.2-6.6-11-12.9-0.4-147.4-0.8-294.7-1.4-442.1 0-108.3-0.6-216.7-0.8-325 0-3.1-0.1-6.2 1.1-9 1.5-3.6 4.8-6.4 8.6-7.4zm0.9 4c-3.8 0.8-6.3 4.5-6.5 8.3-0.1 59.7 0.2 119.4 0.5 179.2 0.1 89.3 0.4 178.6 0.6 267.9 0.4 53 0.3 106 0.5 159 0.3 55.1 0.4 110.1 0.5 165.2 0 4.7 4.3 9.2 9.1 8.6 5-0.1 8.4-5.1 7.8-9.8q-0.5-170-0.8-340c-0.3-42.3 0-84.7-0.3-127 0.1-101-0.5-202.1-0.6-303.1 0.2-5.4-5.5-9.8-10.8-8.3z"/><path class="b" d="m206.4 630.6c6.1-2.8 14.2 0.2 16.8 6.5 1.6 3.7 1 7.9 1.1 11.9q0 60 0 120c-0.1 4.2 0.5 8.8-1.7 12.6-3.3 5.9-11.9 8.1-17.6 4.4-4.1-2.5-6.3-7.4-6.1-12 0-43.3 0-86.7-0.1-130-0.2-5.4 2.3-11.3 7.6-13.4zm2.8 3.4c-4.2 1.2-6.6 5.7-6.4 10 0.1 41.6 0 83.3 0 125 0.1 3.7-0.6 8 1.9 11.2 2.5 3.7 8.1 4.8 11.7 2.1 2.8-1.7 3.8-5.1 3.8-8.3 0-42-0.1-84 0-126 0-2.6 0.2-5.3-0.4-7.8-0.9-4.6-6.2-7.7-10.6-6.2z"/><path class="b" d="m347.5 631.7c5.7-3 13.8-0.7 16.7 5.2 1.7 2.7 1.5 6 1.6 9.1-0.2 43.3-0.3 86.7-0.4 130 0.3 6.7-5.6 12.8-12.3 12.6-6.9 0.5-12.9-5.8-12.8-12.5 0.2-44.7 0.1-89.4 0.4-134.2 0.3-4.2 3-8.2 6.8-10.2zm1.9 3.8c-2.8 1.4-4.6 4.4-4.7 7.5-0.1 44.3-0.3 88.7-0.4 133-0.1 5.3 5.4 9.8 10.6 8.5 4.1-1.1 6.9-5.3 6.5-9.5 0.1-44 0.3-88 0.3-132 0.4-6.1-7.1-10.7-12.3-7.5z"/><path class="b" d="m490.5 631.7c7.1-2.5 15.9 2.6 16.4 10.3 0.7 9.3 0 18.7 0 28-0.2 35.6-0.2 71.2-0.4 106.8 0 6.3-5.2 12.2-11.6 12.7-6 0.6-11.9-3.8-13.4-9.5-0.5-2.7-0.2-5.3-0.3-7.9 0.2-40.1 0.5-80.1 0.6-120.1 0.1-4.4-0.5-8.9 1-13 1.3-3.4 4.2-6.1 7.7-7.3zm1 4c-3.8 1.3-5.9 5.5-5.7 9.4 0 43.6-0.5 87.3-0.6 130.9-0.8 5.4 4.6 10.3 9.8 9.4 4.4-0.6 7.6-5.1 7.5-9.4 0.1-43.7 0.2-87.4 0.6-131.1 0.4-6-5.6-11.7-11.6-9.2z"/><path class="b" d="m601.4 632.6c4.9-1.5 10.6 0.1 13.7 4.3 2.7 3 2.7 7.3 2.6 11.1-0.4 85.3-1.5 170.7-2 256-0.3 30.7-0.9 61.3-0.9 92-1.2 108-1.8 216-3 324-0.2 26-0.5 52-0.7 78-0.1 6.7 0.2 13.4-0.4 20.1-0.7 6-6.5 10.9-12.6 10.5-5.9-0.1-11.3-4.7-12-10.6-0.8-8.3 0.1-16.6 0.1-25 0.2-29.6 0.4-59.3 0.6-89 0.8-25.5 0.3-51.1 0.8-76.6 0-24.8 0.8-49.6 0.7-74.4 0.2-29.3 0.2-58.7 0.9-88 0.1-25.3 0.1-50.7 0.4-76 0-29.7 0.9-59.3 0.8-89 0-35 0.9-70 0.9-105q0.3-41.5 0.5-83c0.7-22.5 0.3-44.9 0.7-67.4-0.1-5.4 3.6-10.6 8.9-12zm1 4c-3.4 1.2-6 4.6-5.9 8.3-0.2 10.7-0.1 21.4-0.2 32.1 0 37-0.8 73.9-0.9 110.9-0.2 44.1-1 88.1-1.1 132.1-0.1 30.7-0.9 61.3-0.8 92-0.3 25.3 0 50.7-0.7 76-0.3 30-0.5 60-0.6 90-0.5 23.3-0.5 46.7-0.8 70-0.1 56-1.2 112-1.2 168-0.3 4.1 3.1 7.8 7 8.5 4.8 1 9.9-3.4 9.6-8.4 0.6-33.7 0.7-67.4 1-101.1 0.7-26.7 0.4-53.3 0.9-80q1.4-172 3.1-343.9c0.5-82.1 1.5-164.1 1.9-246.1 0.3-5.7-5.8-10.6-11.3-8.4z"/><path class="b" d="m186.4 825.1c-0.2-9.3 8.4-17.1 17.5-16.6 25 0.1 50.1 0 75.1 0.6 69.6 0 139.3 0.7 209 1.1 5.1 0.1 10.3-0.1 15.4 0.2 8.2 0.8 15 8.4 14.9 16.6-0.1 52-0.6 104-0.6 156 0.8 10.2-8.7 19.1-18.8 18.2-6.6 0-13.3-0.1-19.9 0-28-0.8-56-0.4-84-0.7-36-0.3-72 0-108-0.7-28-0.2-56-0.3-84-0.4-6.8-0.1-13.1-4.5-15.6-10.7-1.6-3.7-1.1-7.8-1.2-11.7 0-50.6 0-101.3 0.2-151.9zm12-11.6c-5 2.1-8.3 7.2-8.1 12.6-0.1 52-0.2 103.9-0.1 155.9-0.3 6.6 5.1 13 11.8 13.4 44.6 0.4 89.3 0.1 134 0.8q73.5 0.4 147 0.6c6.4 0.3 12.7 0.7 19.1 0.3 6.4-0.6 11.7-6.6 11.6-13 0.4-50.4 0.5-100.7 0.7-151.1-0.1-3.7 0.4-7.7-1.2-11.2-2.1-4.7-7.2-7.6-12.2-7.5-18.4-0.2-36.7 0.1-55-0.4-31.7 0-63.3-0.4-95-0.5-47.7 0-95.3-0.7-143-0.9-3.2 0.1-6.6-0.3-9.6 1z"/><path class="b" d="m207.4 820.6c20.5-0.5 41.1 0.4 61.6 0.3 52.7 0.5 105.3 0.4 158 0.9 22.4-0.1 44.7 0.7 67.1 0.4 5-0.6 10 3.6 10.1 8.7 0.4 49.4-0.4 98.7-0.5 148.1 0.4 5-3.6 9.9-8.7 10-15.7 0.7-31.3-0.4-47-0.2-37.3-0.1-74.6-0.4-112-0.5-11.7 0-23.4 0-35.1-0.5-30.3 0-60.6-0.2-91-0.2-5.6 0.4-10.3-5-10-10.5 0.4-45.7 0.2-91.4 0.3-137.1 0.1-3.8-0.2-7.6 0.2-11.4 0.4-3.8 3.3-7.2 7-8z"/><path class="b" d="m207.2 1021.2c7.8-3.1 17.1 3.5 17.1 11.8 0.1 45 0 90 0 135 0.1 4.2-1.9 8.5-5.5 10.8-4.7 3.5-11.9 2.5-16-1.7-2.6-2.6-3.9-6.4-3.7-10.1 0.1-44.3-0.4-88.7-0.2-133.1-0.1-5.4 3-11 8.3-12.7zm1.1 4c-2.9 1.4-5.4 4.3-5.2 7.7-0.1 44.7 0 89.5 0.1 134.2-0.2 3.1 1.1 6.3 3.7 8.1 3.7 3 10 1.8 12.2-2.4 0.9-2.2 0.9-4.6 1-6.8q0.1-51.5 0-103c-0.1-10.3 0.3-20.7-0.3-31.1-0.5-5.2-6.7-9.3-11.5-6.7z"/><path class="b" d="m348.5 1021.7c7.4-2.5 16 3.5 16.1 11.3 0.1 8.4 0.2 16.7 0 25 0.2 5.8-4.3 11.3-10 12.4-7 1.5-14.6-4.2-14.9-11.4 0-7.3 0-14.6 0-22-0.9-6.3 2.4-13.3 8.8-15.3zm1.1 4.1c-3.3 1.3-6 4.6-6 8.2 0 7 0.1 14 0 21 0.1 2.6-0.2 5.6 1.6 7.8 2 2.5 5.4 4.4 8.8 3.6 3.8-0.8 6.8-4.4 6.5-8.4q0.2-12 0.1-24c0.3-5.5-5.9-10.3-11-8.2z"/><path class="b" d="m489.4 1022.6c5.1-1.5 10.9 0.7 13.8 5.2 2.2 2.9 2.2 6.7 2.2 10.2-0.1 42.7-0.8 85.3-0.9 128 0 2.9 0.1 5.9-0.9 8.6-1.7 4.8-6.6 8.2-11.6 8.1-7.1 0.3-13.2-6.7-12.6-13.7 0.3-28.3 0-56.7 0.8-85 0-14.7 0.1-29.4 0.1-44 0.1-3.6-0.4-7.3 1.2-10.6 1.5-3.2 4.4-5.9 7.9-6.8zm1 4c-3 1.1-5.9 3.9-6 7.3-0.3 18.4 0.2 36.8-0.6 55.1-0.2 26.7-0.2 53.4-0.4 80.1-0.1 2.5 0.6 5.2 2.5 7 3.3 3.5 9.7 3.3 12.5-0.6 2.2-2.7 2-6.3 2-9.5 0.1-42 0.9-84 0.9-126-0.1-3.3 0.5-6.9-1.5-9.8-1.9-3.1-5.9-5-9.4-3.6z"/><path class="b" d="m315.4 1091.7c3.8-1.4 7.7-1.1 11.6-1.1 17 0.1 34 0.2 51 0.2 7.3-0.1 14.6 3.5 18.6 9.7 3.5 5 4.6 11.5 3.2 17.5-2 9.4-11 17-20.8 16.7-18 0-36-0.1-54-0.2-4.4 0-9-0.3-13-2.5-8.5-4.4-13.1-14.9-10.9-24.1 1.5-7.5 7.2-13.8 14.4-16.2zm0.9 3.8c-9 2.9-13.9 13.6-11 22.4 2 7.3 9.1 12.8 16.7 12.5 18.3 0.1 36.6 0.1 54.9 0.3 4.6 0.1 9.5-0.7 13-3.7 7.9-6.6 8.5-20 1.1-27-3.8-4.2-9.7-5.3-15.1-5.3-17 0.1-34-0.1-51-0.1-2.9 0-5.8 0-8.6 0.9z"/><path class="b" d="m320.4 1102.6c16.8-0.6 33.7 0.1 50.6 0 4 0.3 8.3-0.7 12 1.4 5.8 3.2 6.7 12.5 1.5 16.6-2.3 2-5.5 2.6-8.5 2.5-17.7-0.6-35.4-0.1-53.1-0.4-4.8 0.1-9.4-3.7-10-8.6-0.9-5 2.5-10.3 7.5-11.5z"/><path class="b" d="m348.4 1156.6c7.8-2.7 16.7 4.2 16.2 12.3 0 43-0.2 86.1-0.4 129.1-0.9 38.7-0.4 77.6-0.7 116.4 0.2 4.4-2.3 8.7-6 11-7.8 5.5-19.1-1.3-19-10.4 0.2-82.4 1-164.7 1.2-247 0-5.2 3.9-9.9 8.7-11.4zm1 3.9c-3.5 1.3-5.8 4.8-5.7 8.5-0.2 82-1.1 164-1.1 246 0 4.9 4.9 8.6 9.6 8.2 4.3-0.7 7.5-4.9 7.2-9.3 0.5-48.6-0.3-97.3 0.8-145.9 0.1-32.7 0.4-65.4 0.4-98 0.8-6-5.4-11.8-11.2-9.5z"/><path class="b" d="m180.6 1215.5c10.4-13.3 29.7-18.5 45.4-12.6 12.3 4.5 22 15.4 24.9 28.2 3.5 14.9-2.2 32.2-15.2 40.9-2.4 1.6-5.3 3.6-5.3 6.9q0 18.1-0.1 36.2c0.4 2.3-1.9 4.6-4.2 3.6-2.6-0.4-1.8-3.8-2.2-5.7 0.6-11.6 0-23.3 0.6-35 0.2-5.1 4.3-8.6 8.1-11.4 8-5.9 13.1-15.6 13-25.6 0.6-15.5-11.2-30.6-26.5-33.5-13.7-3.2-28.8 3.5-36.1 15.5-6.5 10.6-6.2 25 0.8 35.3 2.9 4.4 6.9 7.7 11.1 10.8 3.7 2.7 5.1 7.5 5.2 11.9 0.1 10 0 20 0 30 0 2.2 0.2 4.6-0.6 6.7-1.2 1.5-3.2 0.9-4.8 0.7-1.4-4-0.8-8.3-0.9-12.4-0.1-9 0.2-18-0.1-26.9 0-3.4-3.2-5.4-5.6-7.3-6.4-4.5-10.9-11.2-13.8-18.3-4.6-12.6-2.3-27.6 6.3-38z"/><path class="b" d="m456.5 1221.5c7.9-13.9 24.8-21.9 40.5-19.4 16.6 2.3 31.1 16.1 33.5 32.9 2.4 12.8-2.3 26.7-11.9 35.6-2.8 2.7-6.5 4.4-8.7 7.7-1.1 2.4-0.7 5.2-0.8 7.8-0.1 10.6 0.2 21.2-0.4 31.8-0.5 3.6-6.3 2.7-6-0.8-0.1-11.7-0.1-23.5 0.1-35.2 0-5.2 3-9.9 7.3-12.7 9.5-6.3 15.2-17.8 14.5-29.1-0.6-13.7-10-26.7-23.2-30.6-15.3-5.2-33.6 2.7-40.5 17.3-7 14.1-2 32.4 10.5 41.6 4.3 3 7.3 7.6 7.1 12.9 0.1 12.7 0.2 25.3-0.1 38-2.1 1-4.6 1.6-5.8-1-0.5-12.7 0.2-25.5-0.3-38.3-0.2-3.8-3.7-5.8-6.3-8-15-11.4-18.8-34.3-9.5-50.5z"/><path class="b" d="m208.5 1344.7c7.6-2.2 16 4.4 15.8 12.3 0.1 16 0.1 32 0.1 48-0.2 5.8 1.1 12.6-3.2 17.3-4.4 5.4-13.3 5.6-18.1 0.6-2.5-2.6-4.1-6.2-3.8-9.8-0.2-18.4-0.1-36.8-0.1-55.1-0.6-5.9 3.4-11.9 9.3-13.3zm-0.3 4.4c-3 1.4-5.2 4.5-5 7.9 0.2 18.9 0.1 37.9 0.2 56.9-0.2 5.8 6.9 10.6 12.2 7.6 3.2-1.5 4.9-5.1 4.7-8.5 0-18.4 0.1-36.7-0.1-55 0.6-6.2-6.2-11.8-12-8.9z"/><path class="b" d="m487.3 1346.4c7.6-2.9 16.2 3.7 16.3 11.6 0 19-0.3 38-0.4 57 0.2 6.2-4.8 12.4-11.2 12.7-7 0.8-13.9-5.6-13.6-12.7 0-18.7 0.2-37.4 0.2-56-0.2-5.5 3.6-10.8 8.7-12.6zm0.3 4.3c-3.5 1.7-5.4 5.5-5 9.3-0.1 18-0.2 36-0.2 54-0.2 2.6 0.4 5.4 2.4 7.1 3.3 3.6 9.8 3.3 12.7-0.6 1.8-2.1 1.8-5 1.8-7.6 0.1-17.6 0.3-35.3 0.3-52.9 0-2.4-0.1-5-1.7-6.8-2.4-3.2-6.9-3.9-10.3-2.5z"/><path class="c" d="m482.9 454.5c6.2 0 12.5-0.1 18.7 0.2-4 1-7.8 2.6-11.6 4.1-2.6-1.2-4.7-2.9-7.1-4.3z"/><path class="c" d="m531.1 455.6c4.7-0.1 9.3 0.5 14 1q-2.4 1.8-4.6 3.8c-3.1-1.9-6.2-3.4-9.4-4.8z"/><path class="c" d="m468.3 456.6c6.2-1.9 14-1.5 18.7 3.4 1.4 1.3 1.2 3.3 1.3 5 0 14.3-0.7 28.7-0.9 43 0.4 4.5-4 7.1-7.5 8.8-6.7 3.2-16.8 1.6-20-5.7 0.5-15.4 0.8-30.7 0.8-46.1-0.3-4.4 4-7.1 7.6-8.4z"/><path class="c" d="m490.7 461.6c15-8.1 34.3-8 48.9 1-0.2 16.3-0.9 32.7-1.1 49-6.9 5.4-16 7.1-24.5 7-8.7 0-17-3.1-24.2-7.7 0.8-16.4 0.8-32.9 0.9-49.4z"/><path class="c" d="m547.3 458.3c4.9-2.3 10.6 2.6 10.3 7.7q-0.5 23-0.9 46.1c-0.1 4.3-5.2 8.7-9.4 6.5-3.5-1.8-6.8-5.4-6.3-9.6 0.5-14.7 0.6-29.4 0.9-44.1-0.3-3.3 2.7-5.5 5.4-6.6z"/><path class="c" d="m482.2 518.6c2.4-1.5 4.7-3.3 6.7-5.2 3.4 2.3 7.2 4 11 5.4-5.9-0.1-11.8-0.3-17.7-0.2z"/><path class="c" d="m529.6 519.3c3.3-1.4 6.6-2.9 9.6-4.9q2.3 2.7 4.6 5.3c-4.7-0.2-9.5-0.2-14.2-0.4z"/><path class="c" d="m467.1 547.5c0.3-8.9 0.2-17.8 0.6-26.7 18.4 0.7 36.9 0.3 55.3 0.9 8.5 0 17.1 0.7 25.6 0.5 0 8.6 0 17.2-0.1 25.8-27.2-0.7-54.3-0.8-81.4-0.5z"/><path class="c" d="m513 552.7c4-0.5 8-0.5 12 0.1-4 1.1-8.1 1-12-0.1z"/><path class="c" d="m471.1 555.9c7.5-1.9 15.2-3.1 22.9-3.2 8 0 15.8 2.1 23.7 3.2 0.3 3.1 0.5 6.3 0.6 9.4-5.6 1.9-11.5 2.9-17.3 3.6-10 1.2-20.1-0.6-29.7-3.4 0.1-3.2-0.1-6.4-0.2-9.6z"/><path class="c" d="m520.6 556.3c11.7-3.6 25-4.8 36.2 0.8-0.2 3 0.5 6.3-0.6 9-5.3 3.4-12 3.8-18.2 3.3-5.9-0.6-11.8-1.7-17.3-4q-0.1-4.6-0.1-9.1z"/><path class="c" d="m461.7 565.2c0-4.1-1.1-9.3 3.2-11.6 0.7 0.3 2 0.8 2.6 1.1 0.8 4.3 3.2 10.6-1.7 13.3-1.8 1.9-4.4-0.8-4.1-2.8z"/><path class="c" d="m467.7 578.3q0.2-3.3 0.6-6.7c26.8 0 53.6 0 80.4 0.3q0.1 3.4 0.2 6.8c-27.1-0.2-54.2 0.2-81.2-0.4z"/><path class="c" d="m457.1 581.3c34.2 0.2 68.4 0.1 102.5 0.3q0.1 1.3 0.1 2.7c-34.2-0.5-68.3-0.5-102.5-0.6 0-0.6 0-1.8-0.1-2.4z"/></svg>