<svg width="1024" height="1376pt" viewBox="0 0 768 1376" xmlns="http://www.w3.org/2000/svg"><g fill="#fffffe"><path d="M347.37 934.35c.63-1.22 2.22-1.21 3.33-1.74-2 3.49-3.7 7.33-3.39 11.47-.05 3.37 1.85 6.27 3.09 9.3-1.24-.65-2.88-.84-3.57-2.19-2.93-5.12-2.63-11.89.54-16.84zM424.47 932.77c4.52 1.02 5.49 6.41 5.9 10.32.09 4.14-.69 10.15-5.53 11.27 1.13-3.07 3.19-5.93 3.03-9.34.17-4.36-1.45-8.45-3.4-12.25zM67.88 938.3c.66-1.8 1.46-3.53 2.55-5.09.38 2.03.1 4.49 2.26 5.64.84-1.76 1.64-3.52 2.52-5.24 1.56 1.5.79 3.17-.01 4.77.85.14 2.55.41 3.4.54-1.5 1.15-3.06 2.21-4.52 3.43.79.66 2.37 1.97 3.16 2.63-3.34-.5-3.47 2.35-4.17 4.65-2.67.05-1.07-3.43-1.68-4.81-3.92-.11-1.67 5.41-5.73 4.79.34-1.33.71-2.58 1.08-3.87l-3.36-1.6c1.67-.63 3.38-1.12 5.09-1.61-1.2-1.18-2.43-2.31-3.61-3.48 1-.27 2.01-.52 3.02-.75m2.16 2.02c-.2.83-.4 1.68-.59 2.54.83.33 1.66.68 2.5 1.02.4-1.18.79-2.36 1.18-3.52l-3.09-.04zM139.49 937.02c.58-3.03 3.85-2.81 6.16-3.43.07 5.32.1 10.64-.15 15.96l-2.1-1.05c-.26-4.09-.02-8.18-.1-12.26-.96.19-2.86.58-3.81.78zM207.47 934.49c3-.89 7.58-1.3 8.69 2.49.89 4.36-3.34 7.23-6.1 9.85 2.13-.1 4.27-.15 6.41-.16.13.53.37 1.59.49 2.12-3.5-.09-7.13.57-10.54-.42 1.25-4.22 7.3-5.6 7.28-10.26-.27-3.18-4.24-1.68-6.2-1.23-.02-.81-.02-1.61-.03-2.39zM275.03 936.18c.89-4.72 10.21-3.16 9.24 1.87-.46.85-1.04 1.66-1.61 2.47 1.8 1.58 2.68 4.27 1.36 6.44-1.73 2.57-5.31 1.95-7.96 1.8a32.47 32.47 0 0 1-1.48-2.33c2.38-.1 4.89.59 7.17-.38 1.48-3.82-3.14-4-5.49-5.07 2.03-1.19 5.79-.96 5.6-4.19-1.99-1.6-4.57-.88-6.83-.61zM695.41 947.91c-1.19-6.04 4.7-11.56 10.64-10.16 5.61.79 7.85 8.65 3.78 12.44-2.59.55-5.3.27-7.92.19-3.56-1.06-2.85-5.94-.35-7.75 1.85-1.83 4.5-.58 6.69-.25a94.65 94.65 0 0 1-1.46 7.24c5.41-1.55 3.29-10-1.83-10.11-5.74-.9-9.84 6.6-6.47 11.11 2.5 3.44 7.17 1.76 10.72 2.09-4.37 4.43-13.52 1.85-13.8-4.8m6.03.24c1.01.27 2.03.55 3.06.83.5-1.76 1.09-3.52 1.11-5.35-2.8-1.52-4.22 2.31-4.17 4.52zM630.87 939.1c3.08-.18 2.27 2.78 2.46 4.84 1.29-.04 2.58-.06 3.88-.07.04.58.11 1.74.15 2.32-1.36-.02-2.7-.03-4.04-.04-.06 1.64-.13 3.29-.2 4.95-2.73-.23-2.25-2.73-2.33-4.72-1.62-.39-4.88.68-4.15-2.04 1.4-.26 2.82-.48 4.25-.64-.03-1.55-.03-3.08-.02-4.6zM561.35 942.78c2.16.01 4.34.02 6.51.04.15.65.29 1.31.45 1.98-2.33.05-4.65.07-6.97.08 0-.52.01-1.57.01-2.1zM491.71 947.41c3.68 0 7.37-.21 11.05.05.06.56.19 1.68.25 2.24-3.77.77-7.63.27-11.43.07.03-.59.1-1.77.13-2.36zM72.38 958.26c4.92-3.16 13.48-3.05 15.98 3.15 2.57 6.49 2.09 16.21-5.34 19.23 1.6 1.44 3.11 2.97 4.56 4.58-1.48.06-2.95.04-4.42-.07-1.45-1.29-2.59-2.87-3.75-4.38-3.98-.29-8.48-2.02-9.83-6.13-1.76-5.34-1.84-12.46 2.8-16.38m5.03 1.3c-5.73 1.22-5.82 8.43-4.74 12.99.91 5.75 10.18 6.73 12.41 1.5 1.19-3.57 1.52-7.64.08-11.18-1.23-2.94-4.84-4.06-7.75-3.31zM134.4 956.23c1.31-.03 2.62-.04 3.93-.03 1.46 6.23 2.73 12.5 4.43 18.67 1.72-5.77 2.95-11.69 4.87-17.4l3.48.08c1.62 5.96 3.22 11.94 4.86 17.91 1.64-6.32 2.44-12.86 4.54-19.05 1.23-.2 2.46-.33 3.71-.38-2.29 7.91-3.73 16.03-6.19 23.9-1.35-.04-2.7-.07-4.04-.1-1.45-5.7-3.08-11.35-4.93-16.92-1.44 5.68-3 11.34-4.56 17-1.28-.04-2.56-.05-3.85-.06-1.95-7.91-4.34-15.7-6.25-23.62zM211.34 956.22c4.69.02 9.39.06 14.08-.07-.02 1.05-.05 2.12-.08 3.2-3.48-.09-6.97-.09-10.45.06v6.76c3.21 0 6.43-.05 9.64-.31-.04.82-.11 2.45-.15 3.27-3.17-.01-6.34-.03-9.52.03.01 2.45.01 4.92.01 7.39 3.6 0 7.19.01 10.79-.01.01 1.07.03 2.15.04 3.25-4.78.04-9.55.08-14.32.08-.06-7.89.03-15.77-.04-23.65zM277.79 956.17c4.3.34 9-1.04 13.02.93 4.69 3.1 2.98 10.37-1.39 12.99 2.21 3.24 4.2 6.62 6.39 9.88-1.44-.11-2.88-.19-4.32-.27-1.72-2.72-3.28-5.55-5.2-8.12-.93-1.67-3.18-1-4.7-1.38-.06 3.23 0 6.48.05 9.72-1.27-.05-2.55-.1-3.81-.13 0-7.88-.04-15.75-.04-23.62m3.78 2.97c-.06 2.76-.07 5.53-.07 8.31 1.85-.04 3.71.05 5.55-.16 2.71-.77 3.47-4.23 2.24-6.49-1.84-2.31-5.17-1.32-7.72-1.66zM344.83 960.21c-.02-1.06-.02-2.09-.02-3.12 5.85.12 11.7-.22 17.55-.23-.01.84-.03 2.51-.05 3.35-2.34.01-4.69.04-7.03.06.14 6.84.12 13.69.1 20.54-1.26-.05-2.5-.07-3.74-.08-.01-6.84-.05-13.67 0-20.5-2.27-.03-4.55-.04-6.81-.02zM481.13 957.69c1.13-.06 2.26-.1 3.4-.12.19 5.5-.11 11.03.28 16.53.42 5.13 9.6 5.88 10.59.79.43-5.75.06-11.52.1-17.27.92.02 2.78.04 3.71.06-.05 5.79.3 11.61-.12 17.4-.79 8.83-16.8 8.73-17.83.06-.42-5.8-.07-11.64-.13-17.45zM411.02 957.55l4.13-.16c2.05 3.54 4.01 7.13 6.07 10.67 1.82-3.49 3.67-6.97 5.71-10.34 1.04-.03 3.14-.08 4.19-.11-2.75 4.42-5.69 8.76-7.96 13.45-.48 3.23.06 6.52.02 9.79-1.28.09-2.56.18-3.83.29-.14-3.35.11-6.71-.29-10.03-2.54-4.6-5.36-9.05-8.04-13.56zM556.17 957.85c1.2.11 2.39.23 3.6.36-.14 7.77-.04 15.56-.06 23.34-1.2.02-2.4.03-3.59.06.04-7.92-.02-15.84.05-23.76zM621.5 958.67c3.83-1.1 8.61-.91 11.49 2.2 3.61 3.89 3.29 9.78 2.35 14.63-2.21 8.94-17.43 8.96-19.77.11-1.83-5.99-.95-14.69 5.93-16.94m1.01 3.09c-4.59 2.4-4.53 8.67-3.27 13.01 1.05 4.17 6.44 5.04 9.81 3.31 3.71-2.33 3.42-7.36 3.08-11.17-.47-4.45-5.65-7.2-9.62-5.15zM688.28 959.5c3.86.13 7.81-.29 11.62.57 5.51 1.74 6.23 10.32 1.57 13.38-2.73 1.77-6.16 1.32-9.23 1.47-.02 2.72-.02 5.45-.02 8.19-.93 0-2.8 0-3.73.01-.08-7.88-.17-15.75-.21-23.62m3.89 3.21c0 2.99.02 5.99.09 9 1.97-.09 4.02.17 5.95-.4 3.44-1.06 3.49-6.52.48-8.08-2.1-.68-4.36-.41-6.52-.52zM276 1020.08c1.53-2.87 5.23-4.07 7.98-2.18-2.65 1.01-5.57 1.8-7.17 4.39 2.76-.09 7.01-.52 7.67 3.16 1.44 3.83-2.64 7.6-6.39 6.18-4.5-1.73-4.28-8.06-2.09-11.55m1.62 4.56c-.73 1.58-.19 3.31.01 4.95 1.64.02 3.93.59 4.57-1.48 1.05-2.66-2.3-4.78-4.58-3.47zM72.43 1018.61c1.6 0 3.21.04 4.81.13l-.18 1.93c-.68-.2-2.04-.58-2.72-.77.65 2.06.87 5.77-2.34 4.92-1.31-.09-2.62-.08-3.92-.21.04-.89.11-2.68.14-3.57.47.92.97 1.85 1.48 2.78-.03-.73-.1-2.19-.14-2.92l1.89-.19c.13.67.4 2.01.53 2.68.13-1.6.27-3.21.45-4.78zM142.72 1019.66c.64-.36 1.92-1.08 2.57-1.44.32 3.29.32 6.6.41 9.91.63.25 1.89.73 2.52.98-.76.49-1.51.99-2.26 1.5.55 2.19-.57 3.21-2.66 3.31-.04-1.2-.06-2.36-.06-3.53-2.49 0-4.97-.01-7.45-.08 1.78-3.87 4.39-7.27 6.93-10.65m-3.88 8.72c1.49 0 2.99.02 4.5.05-.09-2.09-.14-4.17-.13-6.24-1.37 2.12-2.85 4.17-4.37 6.19zM207.98 1018.53c2.8-.11 5.62-.1 8.41.2-.98 2.81-4.03 1.41-6.16 1.77-.1 1.05-.2 2.11-.3 3.19 2.5.26 5.85.36 6.57 3.39 2.15 5.64-8.03 9.04-9.84 3.79 2.87.39 6.13.98 8.02-1.78-.87-3.39-4.14-3.45-7.04-3.3.19-2.42.28-4.85.34-7.26zM348.25 1018.93c.55-.3 1.65-.9 2.2-1.21-1.4 4.72-3.16 9.33-4.98 13.91-.34 1.49-1.74 2.14-2.9 2.91 1.45-5.34 3.43-10.56 5.68-15.61zM497.17 1019.61c.87.23 1.63.67 2.3 1.33-.33 1.35-1.19 2.18-2.57 2.48-.57-.95-1.47-4.09.27-3.81zM427.68 1020.19c.94.57 1.88 1.13 2.77 1.82-.51 1.16-1.35 1.99-2.52 2.48-1.34-1.28-1.15-2.86-.25-4.3z"/><path d="M75.56 1023.51c-1.22-.79-.16-1.88.23-2.8 1.73.48 3.53.87 5.31 1.22-.36 1.63-.43 3.36-1.2 4.9-.15-.88-.26-1.75-.33-2.62-1.26-.58-2.76-.09-4.01-.7zM565.21 1025.25c.87-.29 1.77-.46 2.68-.62-.29 2.45-.78 4.92-1.87 7.18-1.71-1.72-.83-4.43-.81-6.56zM634.24 1023.82c.59.08 1.77.25 2.36.33-.32 2.58.09 5.51-1.64 7.69-2.09-2.17-.52-5.39-.72-8.02zM638.72 1032.3c-.16-2.64-.08-5.31.37-7.9.6-.23 1.8-.67 2.39-.9-.39 3.05-.44 6.47-2.76 8.8zM69.98 1025.9c2.32-.25 4.66-.31 6.95-.76 1.24 1.53 2.6 3 3.8 4.57-.88.17-2.65.5-3.53.66-.96-1.24-1.95-2.44-3.07-3.52-.41 1.78-1.26 3.36-3.2 3.71-.32-1.58-.62-3.11-.95-4.66zM427.28 1029.19c.79-1.64 2.41.71 3.46.81-.92.91-1.8 1.93-2.89 2.67-.5-1.11-2.08-2.48-.57-3.48zM496.42 1034.71c-1.28-2.58-.48-6.28 2.47-7.27.24 2.69-.8 5.2-2.47 7.27zM278.87 1039.15c4.56-.08 9.13.1 13.69-.25 0 .88.01 2.64.02 3.52-3.41.02-6.82-.02-10.22-.01-.02 2.32-.03 4.65-.03 6.99 3.19.03 6.38-.01 9.58.12-.14.73-.41 2.2-.54 2.94-2.98.19-5.97.03-8.95.06.04 3.35.06 6.71.08 10.07-1.22-.04-2.44-.07-3.65-.08-.02-7.79-.03-15.58.02-23.36zM77.83 1041.91c.25-2.21 2.59-1.7 4.17-2.01 3.33 8.07 6.36 16.27 9.63 24.37-.92.02-2.77.05-3.7.07-.76-2.3-1.62-4.54-2.55-6.76-3.36.01-6.73.01-10.09-.02-.86 2.25-1.74 4.51-2.56 6.79-.92-.03-2.76-.11-3.68-.14 2.73-7.51 5.95-14.83 8.78-22.3m2.51 2.59c-1.43 3.27-2.66 6.62-3.79 10.01 2.53-.01 5.06-.04 7.59-.09-1.29-3.3-2.37-6.68-3.8-9.92zM208.74 1040.2c5.33.36 11.77-1.01 16.01 3.1 4.36 5.23 4.02 14.62-1.77 18.7-4.25 2.68-9.54 1.53-14.28 1.68.15-7.83.11-15.66.04-23.48m3.81 3c-.01 5.86-.04 11.73 0 17.59 3.49-.06 7.93.2 10.02-3.23 2.05-3.91 2.26-9.71-1.41-12.75-2.44-1.91-5.75-1.33-8.61-1.61zM343.39 1048.04c1.32-7.51 11.15-10.13 17.27-6.89.21.81.62 2.41.83 3.22-3.62-.58-7.68-2.13-11.12-.08-4.52 2.42-4.29 8.68-2.83 12.88 1.68 4.44 6.98 3.76 10.78 3.73.04-2.16.07-4.3.1-6.44-2.4 0-5.11.12-5.83-2.77 3.06-.51 6.17-.48 9.26-.46-.04 3.96-.03 7.93-.07 11.9-5.03 1.05-11.21 2.3-15.44-1.45-3.89-3.33-3.55-9.05-2.95-13.64zM492.77 1039.64c.95-.01 2.86-.02 3.81-.03-.14 6.74.33 13.5-.17 20.23-.98 5.56-8.82 6.04-12.54 3.02.01-1.16.07-2.3.19-3.42 2.35.87 5.15 3.19 7.6 1.22 1.58-.98 1.14-3.06 1.23-4.6-.13-5.48-.12-10.95-.12-16.42zM141.97 1051.01c-2.06-3.54-.63-9.41 3.94-10 3.34-.4 9.82-1.27 9.44 3.86-2.77-.25-5.55-1.13-8.33-.61-1.63.39-2.64 2.11-2.33 3.76 2.24 4.02 8.2 2.79 10.65 6.62 2 3.16 1.05 8.44-2.77 9.76-3.63 1.45-7.58.59-11.3.04-.17-1.25-.34-2.49-.5-3.71 3.17.87 6.58 1.63 9.84.79 1.96-.58 2.27-2.89 1.74-4.57-2.68-3.19-7.86-2.5-10.38-5.94zM412.22 1041.44c1.17.05 2.34.11 3.52.2.02 3.21.01 6.42.01 9.64 3.62-.07 7.25-.04 10.88.05-.01-3.34-.01-6.68.07-10.01 1.18.08 2.37.18 3.56.3-.05 7.84-.01 15.68 0 23.52-.89 0-2.66-.01-3.55-.01-.02-3.62-.05-7.23-.02-10.83-3.66.04-7.31.03-10.95.02-.01 3.59-.01 7.18-.02 10.79-.88-.01-2.63-.01-3.5-.02.02-7.88 0-15.77 0-23.65zM551.79 1042.86c.95 0 2.85-.01 3.81-.01-.05 3.54-.19 7.1.07 10.65 3.45-3.2 6.11-7.11 9.25-10.59 1 0 3.01-.01 4.01-.02-2.91 3.64-5.99 7.15-8.8 10.86 3.01 4.5 6.49 8.66 9.63 13.08-1.62-.21-3.39.14-4.87-.58-3.23-3.65-5.16-8.4-9.14-11.37-.45 3.94-.18 7.91-.17 11.87-1.27-.05-2.52-.08-3.77-.1.05-7.93.06-15.86-.02-23.79zM622.4 1043.08c1.23.01 2.48.03 3.73.07.15 6.69.09 13.4.07 20.1 3.17.05 6.35-.07 9.52.13.2.75.6 2.24.79 2.99-4.67.21-9.34.06-14 .12-.05-7.81-.09-15.61-.11-23.41zM688.94 1044.99c1.1-1.69 3.27-1.24 4.99-1.33 4.39.11 8.81-.16 13.19.22 1.81.46 2.16 2.55 2.16 4.16.13 4.66.11 9.33.02 14 .02 1.51-.43 3.77-2.37 3.71-4.31.28-8.65.02-12.97.17-1.59-.12-3.58.31-4.69-1.12-2.56-3.11-4.46-6.68-6.62-10.05 2.04-3.28 3.79-6.79 6.29-9.76m1.55 1.43c-1.96 2.69-3.36 5.75-5.27 8.49 2.12 2.7 3.93 5.63 5.75 8.55 5.29-.03 10.62.29 15.89-.26.25-5.66-.11-11.34-.11-17-5.41.11-10.89-.45-16.26.22z"/><path d="M698.22 1053.22c1.51-1.62 2.66-4.69 5.4-3.53-.55 2.14-2.28 3.57-3.76 5.08 1.78 1.67 3.24 3.66 3.72 6.12-2.53-.02-3.96-2.02-5.4-3.75-1.59 1.34-3.13 4.87-5.65 3.1-.1-2.48 2.71-3.17 4.08-4.75-1.57-1.89-3.2-3.74-4.21-5.99 2.85-.71 4.22 1.94 5.82 3.72zM135.52 1102.78c.02-.51.05-1.54.07-2.05 3.39-.08 6.78-.07 10.17-.07-1.35 5.05-3.75 9.75-6.13 14.39-.68.1-2.04.31-2.72.42 1.98-4.22 4.06-8.38 5.92-12.65-2.44-.03-4.87-.02-7.31-.04zM205.51 1103.48c1.1-3.65 7.05-3.82 8.72-.54.78 1.84-.21 3.63-.92 5.32.89 1.37 2.09 2.84 1.53 4.62-1.11 4.32-8.6 4.4-9.65.04-.76-1.86.66-3.35 1.57-4.78-.72-1.45-1.97-2.97-1.25-4.66m1.78.18c.04 2.29 1.88 4.8 4.29 3 2.43-2.95-2.06-4.95-4.29-3m.71 6.38c-1.76 1.62.08 3.57 1.57 4.5.84-.39 2.51-1.17 3.34-1.56.28-2.74-2.65-4.89-4.91-2.94zM273.16 1108.75c-2.69-3.65 1.49-8.89 5.7-7.5 4.01.62 4.18 5.52 3.62 8.67-.23 4.38-5.49 7.97-9.3 5.03 2.91-.8 5.86-1.85 7.42-4.64-2.49-.05-5.87 1.11-7.44-1.56m2.26-.33c1.52.01 3.05-.01 4.58-.06-.28-1.75.5-4.96-2.09-5.11-2.6-.55-3.43 3.21-2.49 5.17zM343.36 1103.85c.97-3.57 6.66-3.47 8.55-.86 2.05 3.6-2.27 6.02-3.76 8.82l-.55-.55c.1 1.16.23 2.33.38 3.52l1.48-1.02c-.87 1.02-.73 3.96-2.82 3.19-.24-.71-.72-2.11-.96-2.81l1.79.44c-.32-1.5-.72-2.98-1.16-4.43 1.76-1.84 3.55-3.9 3.53-6.6-2.17-.03-4.33.15-6.48.3zM425.87 1101.8c.65-.01 1.97-.01 2.62-.02-.1 3.95-.07 7.91-.33 11.86-.48-.3-1.45-.91-1.93-1.22-.6-3.51-.26-7.09-.36-10.62zM623.06 1108.5c3.63.6 5.7-2.51 8.31-4.34-.18 5.15.12 10.3.06 15.46-1.87-1.24-3.62-2.62-5.36-4l-3 .04c0-2.39 0-4.78-.01-7.16zM636.27 1103.57c5.71 3.43 6.93 13.59-.1 16.23 1.01-2.58 2.61-4.97 2.97-7.75-.43-3-2.4-5.5-2.87-8.48z"/><path d="M633.48 1107.55c.61.22 1.84.67 2.45.89 1.62 3.21.95 7.32-2.46 9.04.21-1.6.61-3.13.97-4.68-.27-1.78-.88-3.46-.96-5.25zM495.41 1109.6c.85.09 1.71.19 2.58.3-.65 2.23-1.5 4.41-2.52 6.5-.46.04-1.39.11-1.85.15.64-2.31 1.23-4.63 1.79-6.95zM561.82 1110.41c2.34-.62 4.02.67 4.9 2.8-2.02-.25-3.82-1.05-4.9-2.8zM425.99 1115.16a16.8 16.8 0 0 1 2.52-.91c-.22 1.09.48 3.71-1.49 3.42-1.49.43-1.74-1.7-1.03-2.51zM80.42 1121.59c.97-.1 1.94-.18 2.91-.24.06 6.25.27 12.51.29 18.77.65 1.05 1.27 2.12 1.87 3.21-1.58-.01-3.16-.04-4.74-.1-.47-7.2-.26-14.43-.33-21.64zM138.13 1122.73c5.54.02 11.08-.08 16.62.03-.39 1.77-.81 3.62-1.98 5.09-3.6 5.07-7.25 10.12-11.1 15 4.36.06 8.72.02 13.08.04l.16 3.29c-5.83-.07-11.67-.04-17.5-.01.3-1.56.1-3.29 1.16-4.56 3.66-5.27 7.91-10.1 11.55-15.38-3.95-.09-7.9-.07-11.84-.07-.04-.86-.11-2.57-.15-3.43zM206.61 1123.03c1.37.1 2.72.29 4.07.55 2.35 2.63 3.75 5.96 5.54 8.98 2.01-3.06 3.72-6.35 6.1-9.13 1.22-.17 2.45-.27 3.68-.31-2.34 4.03-4.93 7.89-7.5 11.78 2.68 3.93 5.3 7.91 7.96 11.87-1.04.1-3.11.3-4.15.41-1.93-3.33-3.9-6.62-5.86-9.91-2.1 3.3-4.18 6.63-6.29 9.94-1.06-.01-3.17-.04-4.23-.05 2.63-4.1 5.47-8.06 8.15-12.12-2.58-3.95-5.14-7.91-7.47-12.01zM281.14 1123.91c3.51-2 7.71-1.32 11.41-.25-.08.86-.22 2.57-.29 3.42-3.2-1.26-7.01-1.83-10.08.09-2.62 1.63-3.12 5.03-3.03 7.87 0 3.01.86 6.58 3.81 8.03 3.06 1.53 6.57.49 9.62-.52-.1.85-.28 2.57-.38 3.42-4.35 1.42-9.83 1.82-13.49-1.41-3.31-3.15-3.6-8.17-3.13-12.43.34-3.45 2.37-6.75 5.56-8.22zM342.19 1123.28c1.27-.04 2.55-.06 3.84-.06 2.06 6.4 4.13 12.8 6.48 19.11 2.3-6.29 4.35-12.67 6.34-19.06 1.3-.05 2.6-.08 3.9-.07-2.75 7.75-5.45 15.52-8.25 23.25-1.29.03-2.58.08-3.86.15-3.07-7.69-5.52-15.59-8.45-23.32zM88.43 1123.81c.81.02 2.43.07 3.24.1l-.06 4.16c1.37.02 2.75.06 4.13.12-.02.53-.07 1.59-.09 2.13-1.33-.04-2.66-.06-3.99-.07-.01 3.49 0 6.99.19 10.49 1.5.09 3 .2 4.5.34-.77 3.69-6.59 3.27-7.43-.04-.25-3.36-.02-6.73-.05-10.08-1.92-.2-2.49-1.65-2.67-3.33l2.42.12c-.07-1.33-.14-2.64-.19-3.94zM412.63 1123.61c4.56.35 9.94-1.05 13.79 2.07 2.82 2.37 2.2 6.77-.52 8.97 4.35 2.7 4.17 10.41-.95 12.11-4 .99-8.19.37-12.27.55-.03-7.9.05-15.8-.05-23.7m3.78 3.06c-.05 2.36-.09 4.72-.1 7.11 1.91-.15 3.84-.19 5.75-.48 2.75-.11 3.79-4.67 1.16-5.73-2.18-.78-4.55-.71-6.81-.9m-.05 9.93c.03 2.57.05 5.15.06 7.73 2.6-.23 5.48.34 7.88-.95 1.68-1.63 1.45-4.99-.64-6.14-2.36-.73-4.88-.47-7.3-.64zM623.74 1128.09c.23-1.71.87-3.21 2.56-3.88.27.94.82 2.84 1.09 3.78 1.41.38 2.88.48 4.31.85.16.86.49 2.58.65 3.44-1.91-.48-3.82-.97-5.73-1.41.01 2.29.03 4.58.05 6.89 2.71 1.22 6.08 2.71 6.48 6.09.72 3.51-1.92 6.51-5.1 7.53-1.88.35-.85 2.68-1.31 3.97l-2.4-.16c-.01-1.3-.02-2.58-.02-3.85-3.04-.14-7.09.34-7.46-3.76 2.53.22 5.05.56 7.58.85-.01-2.52-.02-5.03-.01-7.54-3.21-.87-7.09-2.96-6.64-6.88-.02-3.37 3.2-5 5.95-5.92m-2.46 5.85c.62 1.52 1.86 2.66 3.02 3.82.16-2.38.16-4.76.03-7.12-1.09 1.02-2.29 1.98-3.05 3.3m5.55 14.44c.95-.79 2.99-.97 2.92-2.49.69-2.26-1.64-3.37-2.98-4.6-.09 2.36-.06 4.72.06 7.09zM479.66 1125.68c1.49.04 2.99.1 4.49.17 4 6.14 7.51 12.58 11.46 18.76-.35-6.32-.34-12.64-.22-18.96.84-.02 2.53-.04 3.37-.05.03 7.97-.11 15.94.05 23.92-1.31-.03-2.63-.04-3.93-.05-3.99-6.19-7.61-12.61-11.65-18.77.06 6.31.19 12.62.22 18.94-.92-.03-2.78-.08-3.71-.11 0-7.95-.09-15.9-.08-23.85zM545.9 1126.16c1.47-.03 2.95-.04 4.43-.03 2.5 5 4.67 10.17 7.02 15.26 2.36-4.98 4.37-10.11 6.73-15.08 1.45-.08 2.91-.13 4.37-.17-.11 7.92.15 15.84.11 23.77-1.16-.02-2.32-.03-3.47-.02-.33-6.08-.13-12.17-.3-18.25-1.92 4.48-3.06 9.45-6.09 13.36-.47.25-1.41.76-1.88 1.01-3.53-4.18-4.75-9.73-7.06-14.58-.3 6.23-.05 12.48-.15 18.73-.85-.02-2.53-.05-3.38-.07-.7-7.96-.16-15.96-.33-23.93zM64.56 1130.36c1.86-4.63 10.67-3.63 11.08 1.57.4 3.89.19 7.82.42 11.73-.86-.31-2.57-.95-3.43-1.27-1.96.79-4.11 1.97-6.25 1.03-4.04-.93-4.15-7.34-.53-8.86 2.41-.93 5.06-.66 7.58-.99-.76-1.1-1.02-2.82-2.41-3.27-2.16-.13-4.31.11-6.46.06m1.85 9.24c2.16 3.79 6.83.18 6.86-3.13-2.46-.15-7.68-.92-6.86 3.13zM702.69 1127.27l3.83.08c-.01 4.53.28 9.08-.04 13.61-.18 2.16-2.2 3.91-4.31 4.13-2.99.27-6 .1-8.99.1l.08 3.74c-3.1-2.09-6.26-4.09-9.47-6.01 2.96-1.62 5.93-3.24 8.67-5.21.18.73.53 2.18.7 2.9 3.11.36 6.25.18 9.36-.13.34-4.4 0-8.81.17-13.21zM225.38 1189.48c2.27-2.08 6.27-1.07 7.34 1.8 1.29 3.22 1.33 7.14-.17 10.32-1.76 3.52-7.95 2.85-8.86-1.02-.82-3.6-1.3-8.36 1.69-11.1m1.84 1.66c-2.05 1.64-1.71 4.58-1.59 6.93 0 1.9 1.35 3.67 3.35 3.71 2.92-1.8 2.44-5.8 1.82-8.66-.28-1.54-2.08-3.75-3.58-1.98zM619.34 1194.54c3.28 5.3 6.74 10.51 9.57 16.07-1.46 0-2.91-.01-4.35-.02.15 2.49.28 5 .35 7.53-3.71-.01-7.42.03-11.12-.13-.03-2.4-.04-4.78-.02-7.15-1.4-.17-2.79-.34-4.17-.5 3.21-5.29 6.54-10.51 9.74-15.8m-6.68 14.52l2.91.12c.01 2.34.06 4.69.11 7.06 2.37.01 4.75.03 7.14.06.31-2.83-1.16-7.23 2.89-7.9-2.03-3.52-4.14-6.98-6.37-10.36-2.31 3.62-4.53 7.3-6.68 11.02zM145.52 1210.26c3.32-5.02 6.45-10.14 9.62-15.25 3.31 5.25 6.7 10.49 9.44 16.07-1.35-.01-2.7 0-4.05.02.1 2.4.21 4.82.27 7.25-3.73.06-7.46.06-11.19.02-.05-2.44-.06-4.88-.07-7.31-.69.02-2.07.05-2.76.06-.31-.21-.94-.65-1.26-.86m3.04-.9l2.81.16c.07 2.35.12 4.72.15 7.09 2.43 0 4.86.01 7.29.01-.01-2.25-.01-4.49.06-6.72.7-.14 2.1-.44 2.8-.59-2.04-3.73-4.33-7.32-6.5-10.97-2.3 3.62-4.55 7.26-6.61 11.02zM243.36 1198.45c2.16-.92 5.23-.01 5.77 2.51.4 3.63.57 7.4-.14 11.01-1.1 3.07-5.82 3.62-7.39.68-.93-2.43-.61-5.12-.71-7.65.03-2.34-.19-5.53 2.47-6.55zM512.82 1204.98c-1.89-5.01 7.98-7.73 9.04-2.26-1.59-.2-3.17-.53-4.72-.85-.64.67-1.24 1.38-1.83 2.11 2.46 1.9 7.53 2.83 6.52 6.95-1.27 3.73-6.03 3.89-9.02 2.23l-.12-2.06c2.42.06 5.87 1.82 7.19-1.24-2.08-2.04-5.26-2.54-7.06-4.88zM523.31 1199.5c.63.24 1.9.73 2.53.97 1.64 3.22 2.56 6.76 3.91 10.12 1.05-3.36 1.76-6.86 3.29-10.04.66-.24 1.97-.73 2.62-.97-1.46 5.58-3.72 10.93-5.76 16.32-.73 2.23-2.91 3.19-4.96 3.87-.24-.45-.72-1.36-.96-1.81 1.69-.87 3.87-1.69 3.99-3.91-.54-5.12-3.42-9.61-4.66-14.55zM537.94 1200.78l2.22-1.33.12 2.01c2.4-1.9 5.73-2.34 7.81.29 2.25-2.56 6.74-2.76 8.15.75.88 3.92.27 8.04.3 12.05-.58-.19-1.73-.58-2.31-.77-.43-3.44.47-7.07-.75-10.38-1.32-2.52-4.69-.79-4.76 1.56-.26 2.98-.15 5.99-.23 8.99-.58.06-1.73.16-2.31.22-.11-3.11.01-6.21-.27-9.29.18-1.77-1.67-2.45-2.71-3.42-4.42 3-2.27 8.68-2.9 13.11-.58-.27-1.74-.8-2.32-1.07-.2-4.23-.25-8.49-.04-12.72zM348.81 1200.71c.92-.01 2.76-.01 3.68-.02.04 3.25.03 6.5.01 9.77 23.34 0 46.69.17 70.03.13-.04-3.31-.05-6.61-.09-9.91.98.02 2.94.05 3.93.07.04 4.64.17 9.28-.01 13.93-24.11.47-48.25-.1-72.38-.08-1.68-.32-4.28.6-5.07-1.44-.31-4.15-.05-8.31-.1-12.45z"/><path d="M238.2 1214.68c-1.56-2.63-1.42-6.08.2-8.63.66 2.3.76 4.76 1.49 7.06 1.58 3.47 7.33 4.92 9.64 1.44 2.31-2.33.26-6.72 3.56-8.2.15 2.88.54 6.06-1.03 8.67-1.39 2.3-4.35 2.84-5.89 5.03 1.69.06 3.38.11 5.08.15.05.74.1 1.5.16 2.28-3.92.05-7.85.04-11.76-.08-.03-.48-.07-1.45-.1-1.94 1.79-.14 3.58-.29 5.37-.4-1.92-2.23-5.38-2.62-6.72-5.38zM686.65 1234.02c-.65-6.13 5.32-11.83 11.42-10.73 4.09.31 6.51 3.97 8.51 7.11 5.14.15 10.3-.38 15.43.09 2.33-.1 2.42 2.77 2.48 4.46 0 8.03.07 16.07.03 24.11.3 3.13-2.27 5.25-4.25 7.24-4.83 4.44-9.38 9.17-14.09 13.74-1.03-1.2-2.04-2.39-3.05-3.56 5.28-5.77 11.24-10.94 16.26-16.91.8-8.1.06-16.33-.05-24.47-4.31.09-8.62.2-12.92.35-1.44 2.69-2.59 6.09-5.74 7.19-6 2.49-13.73-2.03-14.03-8.62m7.54-5.84c-3.63 1.65-4.32 7.33-1.07 9.69 2.94 2.26 8.08.98 8.79-2.92 1.64-4.34-3.68-9.02-7.72-6.77zM77.24 1230.26c5.87-2.08 12.47 2.6 12.93 8.7 1.05 6.79-6.45 12.52-12.83 10.65-3.6-.83-5.47-4.27-7.28-7.14-2.63-.03-5.25-.04-7.87-.03-.13 8.08.22 16.15.23 24.24 5.51 6.06 11.37 11.78 17.13 17.59-1 .77-1.98 1.59-3.05 2.29-3.37-1.34-5.38-4.74-8.01-7.11-3.35-3.83-7.81-6.68-10.72-10.86-.68-4.16-.19-8.4-.32-12.58.12-5.85-.54-11.71.02-17.53 4.09-.9 8.31-.46 12.46-.4 1.61-3.22 3.49-6.88 7.31-7.82m1.14 4.3c-3.86 1.08-5.07 6.6-2.16 9.3 2.85 3.18 9.06 1.35 9.4-3 .86-4.01-3.28-7.98-7.24-6.3zM483.46 1264.56c5.23-2.31 12.06.35 14.02 5.81 2.76 6.19-1.43 14.71-8.56 14.97-5.67 1.01-11.49-3.53-11.82-9.26-.59-4.71 2.03-9.56 6.36-11.52m.79 1.88c-6.84 2.5-6.78 13.64-.2 16.38 2.91.78 6.31.7 8.98-.8 2.4-2.25 3.13-5.86 2.75-9.01-.62-5.17-6.78-8.6-11.53-6.57z"/><path d="M483.66 1268.53c2.36-1.69 5.63-.45 8 .71.66 2.51-.44 4.96-1.54 7.18 1.07 1.67 2.14 3.33 3.15 5.05-3.04-.82-5.11-3.13-6.61-5.76-.68 2.13-1.51 4.27-3 6.01-.32-4.39-.65-8.84 0-13.19m1.63 4.84c1.54-.27 3.08-.54 4.63-.79l-.36-2.78c-2.31.03-3.89 1.17-4.27 3.57zM454.4 1270.51c7.17-1.25 15.48 1.1 19.52 7.51 4.66 7.58 4.36 18.45-1.7 25.19-8.01 8.55-24.55 7.73-30.47-2.86-3.18-6.36-3.34-14.36-.22-20.77 2.37-5.01 7.53-8.17 12.87-9.07m-1.07 7.8c-3.13 1.19-4.75 4.49-5.23 7.62-.6 3.83-.36 8 1.53 11.48 3.39 5.93 13.46 6.16 16.79.05 2.65-5.04 2.4-11.54-.4-16.45-2.7-4.05-8.52-4.34-12.69-2.7zM402.2 1284.07c1.47-6.6 7.18-11.82 13.78-13.03 5.88-1.45 11.87.15 17.48 1.96-.27 2.56-.54 5.13-.8 7.72-5.12-2.39-11.2-4.32-16.64-1.76-8.71 3.98-8.05 18.72.69 22.3 3.15 1.31 6.64.73 9.94.55.09-2.35.17-4.7.26-7.03-2.92-.01-5.84-.01-8.75-.01-.03-2.28-.05-4.55-.06-6.81 5.52-.14 11.05-.19 16.58-.1-.04 6.04.01 12.09.07 18.14-7.32 3.56-16.28 4.49-23.8 1.03-8.18-4.1-10.93-14.59-8.75-22.96zM326.39 1272.35c2.79-.03 5.57-.04 8.36-.05.19 12.25.53 24.5.4 36.76-2.91-.02-5.82-.05-8.73-.09.25-12.21-.1-24.42-.03-36.62zM343.47 1271.81c2.76.07 5.53.16 8.3.27.15 9.84-.1 19.7.29 29.55 5.1-.02 10.2-.06 15.3-.1l.06 6.98c-7.88.11-15.75.02-23.63.26-.22-12.32-.35-24.64-.32-36.96zM365.77 1271.94c2.96-.02 5.99-.35 8.91.35 3.48 3.67 5.61 8.38 8.41 12.56 2.73-4.34 5.42-8.7 8.08-13.07 3.19-.05 6.37-.08 9.56-.07-3.42 5.53-7.15 10.86-10.76 16.27-4.5 5.91-1.99 13.74-2.52 20.57-2.89 0-5.78.01-8.66.02-.54-6.84 1.8-14.68-2.72-20.58-3.51-5.3-7.23-10.48-10.3-16.05zM298.2 1272.59c2.97-.08 5.94-.13 8.92-.16.08 9.89.02 19.78.07 29.68 4.95.1 9.89.13 14.84.14l.15 6.59c-7.85.06-15.71.03-23.56.1-.03-12.12-.02-24.24-.42-36.35zM645.54 1281.8c4.4-.86 8.95-.32 13.42-.36-6.97 7.51-14.28 14.68-21.28 22.16-1.81 1.87-3.43 4.02-5.67 5.4-4.27.72-8.62.23-12.91.15 6.77-7.58 14.11-14.62 20.89-22.19 1.74-1.82 3.33-3.89 5.55-5.16zM661.26 1285.24c1.65-1.5 3.24-3.57 5.64-3.72 3.83-.37 7.68-.18 11.52-.15-5.38 5.96-11.18 11.52-16.54 17.51-3.15 3.13-5.75 6.89-9.37 9.51-4.39.93-8.94.31-13.38.42 7.5-7.74 14.69-15.77 22.13-23.57zM685.24 1281.34c4.41-.89 8.94-.16 13.39-.06-8.68 8.82-16.91 18.1-25.96 26.55-4.21 1.87-9.19.58-13.69.85 5.11-6.41 11.21-11.91 16.67-18 3.17-3.13 5.87-6.84 9.59-9.34zM566.52 1282.71c4.26-.87 8.67-.27 13-.25-6.83 7.47-13.78 14.82-20.74 22.17-1.84 1.88-3.45 4.11-5.77 5.45-4.16.69-8.39.19-12.56.05 5.42-6.75 11.77-12.67 17.62-19.03 2.83-2.78 5.19-6.1 8.45-8.39zM586.24 1282.5c4.32-.67 8.72-.24 13.07-.31-7.52 8.18-15.48 15.95-22.71 24.4-1.11 1.17-2.16 2.5-3.61 3.27-4.21.53-8.47.01-12.69-.02 6.61-7.89 14.11-14.96 20.83-22.76 1.56-1.65 3.03-3.55 5.11-4.58zM579.55 1309.7c8.38-9.7 17.66-18.57 26.4-27.93 4.49-.17 8.98-.2 13.47-.04-7 7.89-14.78 15.06-21.71 23.02-1.57 1.66-2.99 3.56-4.98 4.75-4.36.62-8.79.16-13.18.2zM623.37 1284.32c3.88-4.55 10.4-2.35 15.58-2.68-8.67 9.37-17.38 18.71-26.27 27.86-4.55.07-9.08.14-13.62.17 7.91-8.63 16.07-17.03 24.31-25.35zM540.14 1289.21c2.16-2.18 4.07-4.78 6.86-6.21 4.29-.76 8.67-.31 13-.26-7.69 8.05-15.45 16.03-22.96 24.26-1.26 1.26-2.45 2.72-4.08 3.54-4.33.7-8.74.2-13.09.15 6.6-7.31 13.6-14.23 20.27-21.48zM161.65 1286.56c4.34-.13 8.68-.18 13.02-.17 8.93 9.21 18.83 17.45 27.37 27.05-4.69-.14-9.55.77-14.13-.33-4-2.96-6.94-7.08-10.56-10.46-5.2-5.4-11.17-10.07-15.7-16.09zM181.43 1286.46c4.34-.05 8.8-.82 13.08.13 5.27 3.93 9.41 9.16 14.25 13.61 4.38 4.16 8.96 8.16 12.73 12.93-5.29-.35-12.1 2.2-16.03-2.52-7.79-8.28-16.58-15.57-24.03-24.15zM200.84 1286.17c4.53.12 9.26-.71 13.66.51 4.49 3.39 8.14 7.77 12.25 11.62 4.88 5.04 10.33 9.52 14.95 14.81-4.59.15-9.18.15-13.77.14-8.88-9.18-18.31-17.82-27.09-27.08zM220.97 1286.18c4.6.27 9.81-1.45 14.01.85 9.06 8.36 17.79 17.08 26.57 25.75-4.8-.12-10.14 1.46-14.61-.67-8.85-8.42-17.35-17.25-25.97-25.93zM81.98 1287.58c4.44.03 9.05-.84 13.39.18 4.1 3.12 7.36 7.21 11.18 10.66 5.43 5.23 10.96 10.37 16.12 15.89-4.53-.04-9.11.48-13.61-.22-4.73-3.22-8.17-7.98-12.49-11.7-5.02-4.79-10.01-9.6-14.59-14.81zM101.89 1287.22c4.57-.08 9.14-.1 13.71-.04 8.92 9 18.22 17.63 26.83 26.93-4.42-.06-8.95.64-13.29-.37-5.32-3.52-9.22-8.75-13.81-13.11-4.38-4.57-9-8.9-13.44-13.41zM121.94 1287.29c4.33-.09 8.7-.74 13-.07 4.34 2.81 7.37 7.19 11.17 10.65 5.35 5.3 11.2 10.1 16.11 15.85-4.65.13-9.3.15-13.95.11-8.46-9.16-17.83-17.42-26.33-26.54zM141.62 1286.8c4.15-.14 8.34-.66 12.47-.08 4.22 2.31 7.16 6.32 10.62 9.59 5.7 5.98 11.96 11.41 17.64 17.42-4.68.02-9.36 0-14.04-.02-9.07-8.79-17.8-17.93-26.69-26.91z"/></g><g fill="#b6bfc1"><path d="M596.35 32.49c22.95.15 46.65-2.4 68.78 5.21 28.07 8.9 52.48 29.12 65.58 55.59 5.45 10.91 8.92 22.76 10.69 34.8 1.34 8.9.89 17.91.94 26.87.31 56.68 1.01 113.36 1.2 170.05-.01 48.34.72 96.67.89 145.01.2 55.34.83 110.66 1.05 165.99.24 73.99 1.11 147.98 1.3 221.97-.16 23.67.5 47.32.49 70.98.3 94 1.35 188 1.61 282 .34 19.4-2.49 38.89-8.5 57.35-6.07 16.92-15.38 33.11-29.11 44.97-16.14 14.32-36.89 23-58.22 25.63-1.46.22-3.03.14-4.11-.96-5.89-5.04-10.97-11.05-17.2-15.67-4.4-1.32-9.17-.26-13.71-.32-131 1.5-262 2.89-393 4.31-26.04.4-52.1.21-78.13 1.03-3.06-.05-5.15 2.49-7.23 4.38-3.41 3.13-6.05 7.11-9.86 9.79-6.81-.44-13.42-2.63-19.97-4.45-17.37-5.2-33.2-15.09-45.8-28.09-11.19-11.77-19.1-26.31-24.52-41.54-6.59-19.06-7.42-39.43-7.19-59.41-.29-62.67-.85-125.34-1.02-188.02-.19-52.65-.77-105.29-.79-157.94-.66-79.36-.93-158.72-1.33-238.09-.8-70.99-.41-142-1.42-212.98-.18-84.66-1.05-169.31-1.45-253.97-.26-21.24 3.7-42.97 14.24-61.61C52.71 73 72.49 54.88 95.91 44.88c13.83-6.17 29-9.11 44.1-9.46 52.33-.04 104.65-.78 156.97-.91 64.68-.35 129.35-1.04 194.03-1.26 35.12-.14 70.23-.6 105.34-.76m-46.39 70.09c-64-.09-127.99.93-191.99.73-46.64.1-93.28.45-139.91.53-31.86.63-63.73.34-95.6.57.22 28.19.05 56.39.66 84.57-.57 20.35.25 40.69.06 61.04.16 71.66.11 143.31.67 214.97.52 12.33-.23 24.68.19 37.02.37 98.24.14 196.48.84 294.72 29.03-.58 58.07-.23 87.1-.42 52.33-.15 104.66-.49 156.99-.41 56.68-.42 113.36-.36 170.05-.56 36.12.13 72.23-.58 108.35-.45.07-57.97-.67-115.93-.56-173.9-.35-102.66-.51-205.31-.7-307.96-.7-20.68-.08-41.38-.35-62.06.07-49.62-.27-99.24-.36-148.86-31.81.16-63.63.29-95.44.47m133.28 822.71c-8.53.38-15.82 8.25-15.62 16.8-.17 12.3 0 24.61.16 36.91-.06 7.18 4.67 14.29 11.7 16.26 6.38 1.66 13.03.5 19.53.61 4.85-.19 9.98.57 14.58-1.37 6.02-2.55 10.07-8.94 9.88-15.48-.15-12.32-.19-24.65-.3-36.97.36-8.43-6.64-16.48-15.13-16.84-8.26-.09-16.54-.12-24.8.08m-207.82 1.35c-7.76 1.18-13.51 8.68-13.52 16.38-.31 12.35.22 24.7.25 37.05-.05 7.52 5.36 14.99 12.85 16.55 5.95 1.2 12.02.08 18.02.2 5.75-.16 12.07.73 17.15-2.6 4.78-2.98 7.64-8.62 7.45-14.21-.15-12.31 0-24.63-.12-36.94-.04-5.79-2.91-11.72-8.06-14.61-5.22-3.25-11.63-2.19-17.46-2.26-5.52.34-11.08-.28-16.56.44m66.97-.02c-7.07 1.97-11.94 9.05-12 16.28-.08 10.34.29 20.69.24 31.04.08 4.82-.41 10.03 2.15 14.38 2.54 4.88 7.79 8.15 13.31 8.23 8.39.11 16.79.09 25.18-.11 8.41-.28 15.13-8.24 14.98-16.47-.06-12.33-.14-24.66-.19-36.99.11-7.13-4.57-14.17-11.46-16.29-5.08-1.42-10.4-.8-15.59-.92-5.54.15-11.19-.49-16.62.85m68-.03c-7.02 2.07-11.66 9.21-11.59 16.41-.04 11.33.12 22.67.12 34.01-.05 5.58 1.7 11.39 5.97 15.19 3.96 3.89 9.85 4.39 15.12 4.23 7.02-.19 14.07.24 21.08-.35 8.12-.99 14-9.07 13.76-17.02-.08-12.39-.22-24.79-.29-37.18-.01-6.03-3.65-11.74-8.94-14.53-5.12-2.76-11.14-1.58-16.69-1.82-6.17.3-12.52-.63-18.54 1.06m-338.02.94c-7.18.64-13.96 6.02-15.15 13.31-1.17 8.34.24 16.76-.06 25.14.22 6.31-.5 12.72.52 18.98 1.32 6.81 7.24 12.6 14.29 12.99 8.33.53 16.67.04 25-.2 6.04-.11 11.86-3.88 14.14-9.5 1.98-4.15 1.47-8.85 1.49-13.29-.16-10.31-.01-20.62-.27-30.92-.07-5.97-3.32-11.84-8.57-14.75-3.89-2.25-8.51-2.03-12.83-2.05-6.19.12-12.38-.08-18.56.29m65.97.08c-7.21 1.37-12.93 8.09-12.96 15.46-.11 11.98-.03 23.97-.01 35.95-.13 6.32 2.48 13.17 8.26 16.33 6.2 3.62 13.6 2 20.4 2.3 6.18-.33 12.85.92 18.57-2.04 5.3-2.73 8.62-8.63 8.34-14.56-.07-12.72-.14-25.44-.15-38.15.02-7.34-5.66-14.11-12.81-15.58-3.97-.72-8.02-.42-12.02-.46-5.87.1-11.81-.3-17.62.75m67.07-.12c-7.16 1.98-12.15 9.08-11.88 16.47.1 12 .22 24.01.31 36.01-.03 6.43 3.53 13.01 9.55 15.64 5.14 2.65 11.07 1.56 16.61 1.74 5.61-.23 11.29.46 16.84-.53 7.41-1.8 12.84-9.24 12.49-16.82-.13-10.67-.13-21.34-.08-32 0-4.85.01-10.14-3.08-14.18-3.46-5.31-9.97-7.76-16.14-7.26-8.19.36-16.55-.75-24.62.93m-270.11.93c-7.92.66-14.8 7.5-14.99 15.54-.2 12.03.15 24.06.11 36.1-.35 6.35 2.44 13.15 8.19 16.32 6.12 3.83 13.57 2.1 20.36 2.37 5.99-.32 12.38.95 17.98-1.79 5.29-2.48 8.88-8.1 8.91-13.93-.01-11.36-.06-22.72-.07-34.08-.04-3.75.12-7.68-1.58-11.13-2.56-5.83-8.75-9.88-15.15-9.64-7.92.14-15.85-.17-23.76.24m66.9-.19c-7.06 1.32-13.32 7.35-13.45 14.8-.12 10.98.17 21.97.1 32.96-.01 4.71-.17 9.75 2.21 14 2.86 5.34 8.82 8.73 14.87 8.56 8.03-.11 16.08.29 24.09-.37 7.67-.63 14.32-7.44 14.31-15.22.02-11-.23-22.01-.09-33.01-.03-4.23.28-8.68-1.52-12.62-2.81-6.31-9.91-10.12-16.71-9.68-7.93.3-15.93-.48-23.81.58m-137 .97c-7.41 1.42-13 8.36-13.24 15.84-.44 11.32.34 22.65.19 33.98 0 3.47-.06 7.1 1.46 10.32 2.56 6.01 8.88 10.02 15.38 10.03 7.66.03 15.32.14 22.97-.15 8.06-.33 15.13-7.17 15.65-15.23.39-10.33-.43-20.66-.27-30.99-.07-5.19.71-10.77-1.94-15.5-2.82-5.72-9.12-9.28-15.48-8.91-8.23.28-16.56-.73-24.72.61m616.17 80.46c-7.17 1.33-12.96 7.93-13.12 15.26-.21 10.68.17 21.37.13 32.06.08 4.9-.33 10.14 2.11 14.6 2.68 5.39 8.59 8.76 14.57 8.7 7.99-.06 16.01.22 23.99-.28 8.14-.48 15.41-7.72 15.12-16.03-.11-12.31.16-24.63.02-36.93.11-6.26-2.92-12.67-8.51-15.74-4.73-2.83-10.41-1.92-15.64-2.01-6.23.14-12.48-.27-18.67.37m-204.08.78c-7.9.63-14.34 7.82-14.62 15.65-.31 10.96.11 21.94.06 32.91.03 4.92-.12 10.25 2.63 14.57 2.78 4.75 8.21 7.55 13.65 7.7 7.31.2 14.63.02 21.94.07 5.54.12 11.24-2.28 14.44-6.91 2.46-3.26 3.1-7.47 3.02-11.45-.12-10.98-.18-21.95-.17-32.93-.04-3.6-.11-7.36-1.7-10.65-2.58-5.46-8.4-9.39-14.52-9.11-8.24.07-16.49-.22-24.73.15m66.09.12c-6.86 1.73-12.14 8.27-12.08 15.4-.16 10.68.16 21.36.12 32.05.08 4.6-.24 9.47 1.8 13.75 2.39 5.28 7.9 9.01 13.73 9.04 8.02.08 16.05.11 24.07-.08 5.32-.1 10.7-2.62 13.5-7.27 3.17-4.52 2.69-10.28 2.59-15.5-.42-9.64-.24-19.28-.25-28.92.37-5.83-1.46-12.06-6.26-15.7-5.16-4.46-12.36-3.47-18.66-3.56-6.18.22-12.47-.54-18.56.79m67.96-.09c-6.92 1.78-11.68 8.6-11.76 15.63-.13 12.3.06 24.61.24 36.91-.05 5.95 2.69 12.15 7.98 15.2 4.83 2.97 10.74 2.22 16.16 2.33 6.01-.15 12.07.29 18.06-.43 7.66-1.12 13.68-8.33 13.51-16.06-.06-12.33-.28-24.67-.29-37 .25-6.27-2.99-12.65-8.63-15.56-5.07-2.97-11.12-1.54-16.67-1.82-6.2.28-12.52-.64-18.6.8m-466.72 1.64c-4.89.18-10.12-.46-14.58 1.99-6.28 2.97-9.56 10.16-9.19 16.9.53 12 .28 24.03.49 36.04.08 6.89 4.95 13.39 11.6 15.3 6.25 1.52 12.73.34 19.08.52 5.53-.22 11.6.84 16.56-2.25 5.5-3.01 8.59-9.4 8.23-15.56-.2-12-.19-24-.29-35.99.02-7.15-4.6-14.08-11.46-16.34-6.65-1.73-13.65-.58-20.44-.61m131.66-.79c-3.88-.03-7.89.62-11.15 2.86-4.95 3.14-7.66 9.01-7.6 14.79.08 11.01.28 22.02.24 33.04.02 4.02.19 8.27 2.21 11.87 2.83 5.39 8.95 8.71 15 8.39 8.04-.14 16.09.19 24.11-.21 8.1-.54 14.52-8.03 14.5-16.01.21-12.35-.2-24.7-.22-37.05.16-8.38-6.17-16.65-14.69-17.59-7.46-.37-14.94-.04-22.4-.09m62.18.4c-4.74 1.21-9 4.53-10.86 9.13-2.07 4.43-1.41 9.45-1.48 14.2.19 10.3.04 20.61.3 30.92.01 5.53 3.12 10.92 7.95 13.64 5.91 3.68 13.13 1.76 19.68 2.19 6.49-.45 13.62 1.24 19.54-2.21 5.18-2.84 8.29-8.71 8.2-14.55-.01-12.01-.36-24.02-.2-36.02.26-5.9-2.24-12.09-7.35-15.31-4.36-3.28-10.04-2.94-15.2-2.92-6.85.28-13.82-.52-20.58.93m67.02-.01c-6.93 2.04-11.32 9.2-11.15 16.24.04 12.65.05 25.32.41 37.98.14 7.63 6.43 14.48 13.96 15.43 9.08.42 18.23.35 27.3-.05 7.88-1.01 14.22-8.44 14.1-16.36.06-13 .01-26.02-.37-39.01-.18-6.07-4.32-11.38-9.71-13.87-4.98-2.52-10.69-1.25-16.03-1.48-6.16.29-12.53-.81-18.51 1.12m-203.29.51c-7.21 1.5-12.82 8.35-12.72 15.74-.04 12.76-.07 25.52.1 38.28-.12 7.71 5.74 15.2 13.54 16.17 5.63.53 11.3.07 16.94.11 5.46-.26 11.31.69 16.35-1.98 5.44-2.61 8.74-8.57 8.75-14.52.23-11.67-.12-23.35-.05-35.02.05-5.12-.98-10.65-4.67-14.45-3.73-3.82-9.23-5.28-14.44-4.98-7.93.28-15.93-.39-23.8.65m-137 1.09c-7.16 1.55-12.33 8.46-12.58 15.67-.22 12.02.39 24.04.07 36.06-.23 6.05 2.5 12.29 7.68 15.6 5.76 3.95 13.05 2.62 19.61 2.79 5.37-.24 10.83.45 16.14-.65 7.44-1.68 12.84-9.16 12.53-16.72 0-12.7-.24-25.4-.54-38.08-.35-8.32-7.8-15.56-16.15-15.46-8.91.09-17.92-.57-26.76.79m617.31 80.41c-7.84 1.09-13.77 8.45-13.72 16.29.07 12.66-.12 25.34.38 38-.12 7.06 5.08 13.73 11.89 15.49 5.89 1.17 11.96.47 17.93.47 5.65-.37 11.8.82 16.96-2.12 5.41-2.78 8.95-8.74 8.75-14.83.05-12.36-.13-24.71-.2-37.07.06-6.33-3.87-12.45-9.61-15.07-4.29-2.21-9.24-1.37-13.86-1.46-6.17.18-12.37-.26-18.52.3m-206.01 1.09c-7.53 1.37-13.14 8.55-13.23 16.11-.04 12.39.1 24.79.21 37.18-.11 7.45 5.17 14.85 12.58 16.45 6.59 1.24 13.3.22 19.95.32 4.95-.09 10.31.71 14.76-2.02 5.9-2.81 8.77-9.56 8.43-15.84-.33-12.03-.37-24.06-.48-36.09-.01-6.01-3.25-12.12-8.72-14.85-4.6-2.53-10.01-1.59-15.02-1.67-6.16.21-12.35-.27-18.48.41m69.69-.54c-8.24.83-14.62 8.54-14.62 16.7-.08 10.32.18 20.64.17 30.97.04 4.06-.2 8.26 1.19 12.16 2.37 6.06 8.45 10.71 15.07 10.65 8.03.09 16.07-.08 24.11-.2 6.03-.08 11.66-4.01 14.08-9.48 1.67-3.43 1.52-7.33 1.49-11.03-.14-11.34.05-22.68-.3-34.01-.14-8.2-7.06-15.73-15.38-15.97-8.59-.31-17.22-.3-25.81.21m65.29.44c-6.71 2.24-11.5 9.11-11.28 16.19.12 12.04.08 24.09.22 36.14-.14 6.33 3.47 12.58 9.19 15.4 5.01 2.79 10.93 1.92 16.42 2.02 5.67-.21 11.4.32 17.05-.49 7.39-1.43 13.01-8.48 13.17-15.95.12-12.35-.63-24.7-.4-37.05.47-8.04-5.63-16.19-13.82-17.01-5.65-.42-11.33-.1-16.99-.2-4.53.1-9.18-.43-13.56.95m-336.06.85c-8.57-.21-16.71 6.87-16.95 15.58.01 12.95.06 25.91.23 38.87-.11 5.77 3.2 11.37 8.32 14.04 6.1 3.36 13.31 1.96 19.95 2.15 6.35-.42 13.2 1.05 19.03-2.18 5.42-2.85 8.44-9.02 8.39-15.01.05-10.41-.27-20.81-.26-31.21-.15-4.65.06-9.59-2.25-13.79-2.58-5.12-8.08-8.6-13.82-8.61-7.55-.03-15.1.04-22.64.16m64.1.15c-5.71 1.2-10.45 5.82-12.02 11.41-1.21 4.17-.72 8.56-.74 12.85.05 10.04.41 20.07.45 30.11-.05 6.31 4.39 12.08 10.14 14.4 5.93 2.27 12.45.87 18.64 1.18 6.35-.42 13.46 1.19 19.04-2.69 4.73-2.95 7.39-8.49 7.39-13.98.02-12.32.02-24.65-.14-36.97.15-8.71-7.32-17.18-16.25-16.93-8.83.19-17.73-.43-26.51.62m66.93-.07c-6.76 2.3-11.7 9.1-11.33 16.31.21 12.9-.13 25.82.32 38.72.29 8.42 8.69 14.34 16.57 14.69 7.64.19 15.3.1 22.95-.11 8.4-.27 16.04-7.74 15.91-16.26.04-12.7-.15-25.4-.45-38.09-.16-8.25-7.11-15.88-15.46-16.18-6.3-.13-12.59.12-18.88.06-3.22.01-6.54-.22-9.63.86m-264.22.69c-3.31.09-6.72.01-9.88 1.17-6.15 2.49-10.65 8.83-10.53 15.53-.01 12.67-.08 25.35.37 38.02-.13 6.4 4.44 12.15 10.21 14.52 3.64 1.68 7.74 1.23 11.63 1.28 5.92-.14 11.84.05 17.76-.15 8.5-.3 15.85-8.17 15.71-16.65-.05-12.35-.26-24.7-.3-37.05.18-8.34-6.76-16.21-15.14-16.72-6.61-.21-13.22.05-19.83.05m61.03-.1c-7.38 1.36-13.04 8.29-13.28 15.73-.37 12.69.19 25.38.24 38.07-.14 6.13 3.69 11.96 9.07 14.75 5.48 2.78 11.83 1.58 17.74 1.82 6.77-.39 14.13 1.09 20.33-2.37 4.83-2.52 8.4-7.63 8.42-13.16.18-12.37-.21-24.73-.23-37.1.06-3.49-.54-7.06-2.38-10.06-3.14-5.65-9.81-8.67-16.14-8.28-7.92.3-15.89-.34-23.77.6m-137.84 1.27c-4.93 1.4-9.2 5.15-10.93 10.02-1.76 4.28-1.17 8.98-1.16 13.49.08 9.99-.03 19.98.24 29.97.15 7.23 5.35 14.23 12.47 15.92 5.6 1.08 11.35.38 17.02.53 6.21-.25 13.09.88 18.57-2.76 5.33-3.22 7.97-9.59 7.76-15.66-.09-11.66-.15-23.33-.3-34.99-.07-6.13-3.3-12.26-8.67-15.33-4.93-3.05-10.96-1.87-16.44-2.1-6.18.27-12.5-.59-18.56.91m318.89 80.96c-22.08.08-44.16.16-66.23.26-4.36.06-8.89-.52-13.05 1.1-6.66 2.3-11.44 9.11-11.43 16.15-.02 8.01.04 16.03.19 24.05.12 6.36 3.61 12.89 9.51 15.64 5.5 2.71 11.8 1.61 17.7 1.77 49.04-.05 98.08-.78 147.12-.76 6.31.07 12.42-3.64 15.26-9.28 2.64-4.69 1.64-10.25 1.77-15.37-.22-6.71.42-13.47-.46-20.14-1.28-7.42-8-13.81-15.67-13.86-28.23.21-56.48.38-84.71.44m214.99.05c-8.39.72-15.49 8.17-15.82 16.58-.14 7.5.07 15 .09 22.5-.09 7.09 4.34 14.24 11.13 16.65 3.27 1.3 6.86 1.18 10.32 1.15 11.33-.14 22.66.06 33.99-.24 9.22-.13 16.35-9.17 15.86-18.08-.19-7.61.06-15.22-.26-22.81-.69-8.68-8.65-16.55-17.56-15.93-12.59.07-25.17.02-37.75.18m-86.95.98c-7.2 2.43-12.68 9.73-12.25 17.43.11 7.03.08 14.06.05 21.09-.12 8.98 7.49 17.84 16.77 17.69 12.7.06 25.41-.22 38.12-.14 6.29.03 12.11-4.16 14.65-9.81 2.12-4.25 1.74-9.11 1.74-13.69-.09-5.34.02-10.68-.06-16.01-.09-8.75-7.33-17.48-16.43-17.48-10.65-.16-21.3.21-31.95.09-3.56.06-7.22-.33-10.64.83m-291.84 1.36c-7.7 1.63-13.3 9.34-13.12 17.11-.05 7.35-.13 14.72.02 22.08.16 8.79 7.5 17.46 16.67 17.24 12.33-.03 24.65-.15 36.98-.18 8.09.2 15.82-6.04 17.01-14.1.62-4.98.14-10.01.26-15-.21-6.35.92-13.2-2.25-19.02-2.98-5.81-9.62-9.14-16.04-8.71-13.17.28-26.4-.26-39.53.58m-85.12.69c-5.72 1.78-10.59 6.6-11.83 12.54-1.25 6.22-.33 12.59-.45 18.87.15 5.05-.71 10.46 1.69 15.14 2.86 5.55 8.87 9.63 15.22 9.55 12.31-.11 24.63-.21 36.94-.3 6.8-.04 12.79-5.03 15.2-11.2 1.73-4.86.95-10.12 1.06-15.16-.23-5.8.38-11.67-.62-17.4-2.07-7.55-9.54-13.7-17.58-12.9-13.2.49-26.51-.59-39.63.86m551.27 52.48c.3 6.59 8.03 11.11 14.03 8.62 3.15-1.1 4.3-4.5 5.74-7.19 4.3-.15 8.61-.26 12.92-.35.11 8.14.85 16.37.05 24.47-5.02 5.97-10.98 11.14-16.26 16.91 1.01 1.17 2.02 2.36 3.05 3.56 4.71-4.57 9.26-9.3 14.09-13.74 1.98-1.99 4.55-4.11 4.25-7.24.04-8.04-.03-16.08-.03-24.11-.06-1.69-.15-4.56-2.48-4.46-5.13-.47-10.29.06-15.43-.09-2-3.14-4.42-6.8-8.51-7.11-6.1-1.1-12.07 4.6-11.42 10.73m-609.41-3.76c-3.82.94-5.7 4.6-7.31 7.82-4.15-.06-8.37-.5-12.46.4-.56 5.82.1 11.68-.02 17.53.13 4.18-.36 8.42.32 12.58 2.91 4.18 7.37 7.03 10.72 10.86 2.63 2.37 4.64 5.77 8.01 7.11 1.07-.7 2.05-1.52 3.05-2.29-5.76-5.81-11.62-11.53-17.13-17.59-.01-8.09-.36-16.16-.23-24.24 2.62-.01 5.24 0 7.87.03 1.81 2.87 3.68 6.31 7.28 7.14 6.38 1.87 13.88-3.86 12.83-10.65-.46-6.1-7.06-10.78-12.93-8.7m406.22 34.3c-4.33 1.96-6.95 6.81-6.36 11.52.33 5.73 6.15 10.27 11.82 9.26 7.13-.26 11.32-8.78 8.56-14.97-1.96-5.46-8.79-8.12-14.02-5.81m-29.06 5.95c-5.34.9-10.5 4.06-12.87 9.07-3.12 6.41-2.96 14.41.22 20.77 5.92 10.59 22.46 11.41 30.47 2.86 6.06-6.74 6.36-17.61 1.7-25.19-4.04-6.41-12.35-8.76-19.52-7.51m-52.2 13.56c-2.18 8.37.57 18.86 8.75 22.96 7.52 3.46 16.48 2.53 23.8-1.03-.06-6.05-.11-12.1-.07-18.14-5.53-.09-11.06-.04-16.58.1.01 2.26.03 4.53.06 6.81 2.91 0 5.83 0 8.75.01-.09 2.33-.17 4.68-.26 7.03-3.3.18-6.79.76-9.94-.55-8.74-3.58-9.4-18.32-.69-22.3 5.44-2.56 11.52-.63 16.64 1.76.26-2.59.53-5.16.8-7.72-5.61-1.81-11.6-3.41-17.48-1.96-6.6 1.21-12.31 6.43-13.78 13.03m-75.81-11.72c-.07 12.2.28 24.41.03 36.62 2.91.04 5.82.07 8.73.09.13-12.26-.21-24.51-.4-36.76-2.79.01-5.57.02-8.36.05m17.08-.54c-.03 12.32.1 24.64.32 36.96 7.88-.24 15.75-.15 23.63-.26l-.06-6.98c-5.1.04-10.2.08-15.3.1-.39-9.85-.14-19.71-.29-29.55-2.77-.11-5.54-.2-8.3-.27m22.3.13c3.07 5.57 6.79 10.75 10.3 16.05 4.52 5.9 2.18 13.74 2.72 20.58 2.88-.01 5.77-.02 8.66-.02.53-6.83-1.98-14.66 2.52-20.57 3.61-5.41 7.34-10.74 10.76-16.27-3.19-.01-6.37.02-9.56.07-2.66 4.37-5.35 8.73-8.08 13.07-2.8-4.18-4.93-8.89-8.41-12.56-2.92-.7-5.95-.37-8.91-.35m-67.57.65c.4 12.11.39 24.23.42 36.35 7.85-.07 15.71-.04 23.56-.1l-.15-6.59c-4.95-.01-9.89-.04-14.84-.14-.05-9.9.01-19.79-.07-29.68-2.98.03-5.95.08-8.92.16m347.34 9.21c-2.22 1.27-3.81 3.34-5.55 5.16-6.78 7.57-14.12 14.61-20.89 22.19 4.29.08 8.64.57 12.91-.15 2.24-1.38 3.86-3.53 5.67-5.4 7-7.48 14.31-14.65 21.28-22.16-4.47.04-9.02-.5-13.42.36m15.72 3.44c-7.44 7.8-14.63 15.83-22.13 23.57 4.44-.11 8.99.51 13.38-.42 3.62-2.62 6.22-6.38 9.37-9.51 5.36-5.99 11.16-11.55 16.54-17.51-3.84-.03-7.69-.22-11.52.15-2.4.15-3.99 2.22-5.64 3.72m23.98-3.9c-3.72 2.5-6.42 6.21-9.59 9.34-5.46 6.09-11.56 11.59-16.67 18 4.5-.27 9.48 1.02 13.69-.85 9.05-8.45 17.28-17.73 25.96-26.55-4.45-.1-8.98-.83-13.39.06m-118.72 1.37c-3.26 2.29-5.62 5.61-8.45 8.39-5.85 6.36-12.2 12.28-17.62 19.03 4.17.14 8.4.64 12.56-.05 2.32-1.34 3.93-3.57 5.77-5.45 6.96-7.35 13.91-14.7 20.74-22.17-4.33-.02-8.74-.62-13 .25m19.72-.21c-2.08 1.03-3.55 2.93-5.11 4.58-6.72 7.8-14.22 14.87-20.83 22.76 4.22.03 8.48.55 12.69.02 1.45-.77 2.5-2.1 3.61-3.27 7.23-8.45 15.19-16.22 22.71-24.4-4.35.07-8.75-.36-13.07.31m-6.69 27.2c4.39-.04 8.82.42 13.18-.2 1.99-1.19 3.41-3.09 4.98-4.75 6.93-7.96 14.71-15.13 21.71-23.02-4.49-.16-8.98-.13-13.47.04-8.74 9.36-18.02 18.23-26.4 27.93m43.82-25.38c-8.24 8.32-16.4 16.72-24.31 25.35 4.54-.03 9.07-.1 13.62-.17 8.89-9.15 17.6-18.49 26.27-27.86-5.18.33-11.7-1.87-15.58 2.68m-83.23 4.89c-6.67 7.25-13.67 14.17-20.27 21.48 4.35.05 8.76.55 13.09-.15 1.63-.82 2.82-2.28 4.08-3.54 7.51-8.23 15.27-16.21 22.96-24.26-4.33-.05-8.71-.5-13 .26-2.79 1.43-4.7 4.03-6.86 6.21m-378.49-2.65c4.53 6.02 10.5 10.69 15.7 16.09 3.62 3.38 6.56 7.5 10.56 10.46 4.58 1.1 9.44.19 14.13.33-8.54-9.6-18.44-17.84-27.37-27.05-4.34-.01-8.68.04-13.02.17m19.78-.1c7.45 8.58 16.24 15.87 24.03 24.15 3.93 4.72 10.74 2.17 16.03 2.52-3.77-4.77-8.35-8.77-12.73-12.93-4.84-4.45-8.98-9.68-14.25-13.61-4.28-.95-8.74-.18-13.08-.13m19.41-.29c8.78 9.26 18.21 17.9 27.09 27.08 4.59.01 9.18.01 13.77-.14-4.62-5.29-10.07-9.77-14.95-14.81-4.11-3.85-7.76-8.23-12.25-11.62-4.4-1.22-9.13-.39-13.66-.51m20.13.01c8.62 8.68 17.12 17.51 25.97 25.93 4.47 2.13 9.81.55 14.61.67-8.78-8.67-17.51-17.39-26.57-25.75-4.2-2.3-9.41-.58-14.01-.85m-138.99 1.4c4.58 5.21 9.57 10.02 14.59 14.81 4.32 3.72 7.76 8.48 12.49 11.7 4.5.7 9.08.18 13.61.22-5.16-5.52-10.69-10.66-16.12-15.89-3.82-3.45-7.08-7.54-11.18-10.66-4.34-1.02-8.95-.15-13.39-.18m19.91-.36c4.44 4.51 9.06 8.84 13.44 13.41 4.59 4.36 8.49 9.59 13.81 13.11 4.34 1.01 8.87.31 13.29.37-8.61-9.3-17.91-17.93-26.83-26.93-4.57-.06-9.14-.04-13.71.04m20.05.07c8.5 9.12 17.87 17.38 26.33 26.54 4.65.04 9.3.02 13.95-.11-4.91-5.75-10.76-10.55-16.11-15.85-3.8-3.46-6.83-7.84-11.17-10.65-4.3-.67-8.67-.02-13 .07m19.68-.49c8.89 8.98 17.62 18.12 26.69 26.91 4.68.02 9.36.04 14.04.02-5.68-6.01-11.94-11.44-17.64-17.42-3.46-3.27-6.4-7.28-10.62-9.59-4.13-.58-8.32-.06-12.47.08z"/><path d="M694.19 1228.18c4.04-2.25 9.36 2.43 7.72 6.77-.71 3.9-5.85 5.18-8.79 2.92-3.25-2.36-2.56-8.04 1.07-9.69zM78.38 1234.56c3.96-1.68 8.1 2.29 7.24 6.3-.34 4.35-6.55 6.18-9.4 3-2.91-2.7-1.7-8.22 2.16-9.3zM484.25 1266.44c4.75-2.03 10.91 1.4 11.53 6.57.38 3.15-.35 6.76-2.75 9.01-2.67 1.5-6.07 1.58-8.98.8-6.58-2.74-6.64-13.88.2-16.38m-.59 2.09c-.65 4.35-.32 8.8 0 13.19 1.49-1.74 2.32-3.88 3-6.01 1.5 2.63 3.57 4.94 6.61 5.76-1.01-1.72-2.08-3.38-3.15-5.05 1.1-2.22 2.2-4.67 1.54-7.18-2.37-1.16-5.64-2.4-8-.71z"/><path d="M485.29 1273.37c.38-2.4 1.96-3.54 4.27-3.57l.36 2.78c-1.55.25-3.09.52-4.63.79zM453.33 1278.31c4.17-1.64 9.99-1.35 12.69 2.7 2.8 4.91 3.05 11.41.4 16.45-3.33 6.11-13.4 5.88-16.79-.05-1.89-3.48-2.13-7.65-1.53-11.48.48-3.13 2.1-6.43 5.23-7.62zM476.98 1328.56c42.99-.2 85.98-.91 128.98-1.36 7.67.26 15.37-.77 23.02-.15 5.64 3.16 9.74 8.45 14.54 12.71-49.15.68-98.33.61-147.49 1.02-107.99.91-215.99 1.41-323.98 2.53-11.84.04-23.71.5-35.49-.83 3.14-3.43 5.98-7.3 9.88-9.91 5.37-1.34 11.02-.54 16.52-.82 53.68-.39 107.36-1.24 161.05-1.48 30.99-.52 61.98-.82 92.98-.99 20 .07 39.99-.75 59.99-.72z"/></g><path fill="#585858" d="M549.96 102.58c31.81-.18 63.63-.31 95.44-.47.09 49.62.43 99.24.36 148.86.27 20.68-.35 41.38.35 62.06.19 102.65.35 205.3.7 307.96-.11 57.97.63 115.93.56 173.9-36.12-.13-72.23.58-108.35.45-56.69.2-113.37.14-170.05.56-52.33-.08-104.66.26-156.99.41-29.03.19-58.07-.16-87.1.42-.7-98.24-.47-196.48-.84-294.72-.42-12.34.33-24.69-.19-37.02-.56-71.66-.51-143.31-.67-214.97.19-20.35-.63-40.69-.06-61.04-.61-28.18-.44-56.38-.66-84.57 31.87-.23 63.74.06 95.6-.57 46.63-.08 93.27-.43 139.91-.53 64 .2 127.99-.82 191.99-.73z"/><g fill="#010101"><path d="M683.24 925.29c8.26-.2 16.54-.17 24.8-.08 8.49.36 15.49 8.41 15.13 16.84.11 12.32.15 24.65.3 36.97.19 6.54-3.86 12.93-9.88 15.48-4.6 1.94-9.73 1.18-14.58 1.37-6.5-.11-13.15 1.05-19.53-.61-7.03-1.97-11.76-9.08-11.7-16.26-.16-12.3-.33-24.61-.16-36.91-.2-8.55 7.09-16.42 15.62-16.8m12.17 22.62c.28 6.65 9.43 9.23 13.8 4.8-3.55-.33-8.22 1.35-10.72-2.09-3.37-4.51.73-12.01 6.47-11.11 5.12.11 7.24 8.56 1.83 10.11.58-2.4 1.07-4.81 1.46-7.24-2.19-.33-4.84-1.58-6.69.25-2.5 1.81-3.21 6.69.35 7.75 2.62.08 5.33.36 7.92-.19 4.07-3.79 1.83-11.65-3.78-12.44-5.94-1.4-11.83 4.12-10.64 10.16m-7.13 11.59c.04 7.87.13 15.74.21 23.62.93-.01 2.8-.01 3.73-.01 0-2.74 0-5.47.02-8.19 3.07-.15 6.5.3 9.23-1.47 4.66-3.06 3.94-11.64-1.57-13.38-3.81-.86-7.76-.44-11.62-.57zM475.42 926.64c5.48-.72 11.04-.1 16.56-.44 5.83.07 12.24-.99 17.46 2.26 5.15 2.89 8.02 8.82 8.06 14.61.12 12.31-.03 24.63.12 36.94.19 5.59-2.67 11.23-7.45 14.21-5.08 3.33-11.4 2.44-17.15 2.6-6-.12-12.07 1-18.02-.2-7.49-1.56-12.9-9.03-12.85-16.55-.03-12.35-.56-24.7-.25-37.05.01-7.7 5.76-15.2 13.52-16.38m16.29 20.77c-.03.59-.1 1.77-.13 2.36 3.8.2 7.66.7 11.43-.07-.06-.56-.19-1.68-.25-2.24-3.68-.26-7.37-.05-11.05-.05m-10.58 10.28c.06 5.81-.29 11.65.13 17.45 1.03 8.67 17.04 8.77 17.83-.06.42-5.79.07-11.61.12-17.4-.93-.02-2.79-.04-3.71-.06-.04 5.75.33 11.52-.1 17.27-.99 5.09-10.17 4.34-10.59-.79-.39-5.5-.09-11.03-.28-16.53-1.14.02-2.27.06-3.4.12zM542.39 926.62c5.43-1.34 11.08-.7 16.62-.85 5.19.12 10.51-.5 15.59.92 6.89 2.12 11.57 9.16 11.46 16.29.05 12.33.13 24.66.19 36.99.15 8.23-6.57 16.19-14.98 16.47-8.39.2-16.79.22-25.18.11-5.52-.08-10.77-3.35-13.31-8.23-2.56-4.35-2.07-9.56-2.15-14.38.05-10.35-.32-20.7-.24-31.04.06-7.23 4.93-14.31 12-16.28m18.96 16.16c0 .53-.01 1.58-.01 2.1 2.32-.01 4.64-.03 6.97-.08-.16-.67-.3-1.33-.45-1.98-2.17-.02-4.35-.03-6.51-.04m-5.18 15.07c-.07 7.92-.01 15.84-.05 23.76 1.19-.03 2.39-.04 3.59-.06.02-7.78-.08-15.57.06-23.34-1.21-.13-2.4-.25-3.6-.36zM610.39 926.59c6.02-1.69 12.37-.76 18.54-1.06 5.55.24 11.57-.94 16.69 1.82 5.29 2.79 8.93 8.5 8.94 14.53.07 12.39.21 24.79.29 37.18.24 7.95-5.64 16.03-13.76 17.02-7.01.59-14.06.16-21.08.35-5.27.16-11.16-.34-15.12-4.23-4.27-3.8-6.02-9.61-5.97-15.19 0-11.34-.16-22.68-.12-34.01-.07-7.2 4.57-14.34 11.59-16.41m20.48 12.51c-.01 1.52-.01 3.05.02 4.6-1.43.16-2.85.38-4.25.64-.73 2.72 2.53 1.65 4.15 2.04.08 1.99-.4 4.49 2.33 4.72.07-1.66.14-3.31.2-4.95 1.34.01 2.68.02 4.04.04-.04-.58-.11-1.74-.15-2.32-1.3.01-2.59.03-3.88.07-.19-2.06.62-5.02-2.46-4.84m-9.37 19.57c-6.88 2.25-7.76 10.95-5.93 16.94 2.34 8.85 17.56 8.83 19.77-.11.94-4.85 1.26-10.74-2.35-14.63-2.88-3.11-7.66-3.3-11.49-2.2zM272.37 927.53c6.18-.37 12.37-.17 18.56-.29 4.32.02 8.94-.2 12.83 2.05 5.25 2.91 8.5 8.78 8.57 14.75.26 10.3.11 20.61.27 30.92-.02 4.44.49 9.14-1.49 13.29-2.28 5.62-8.1 9.39-14.14 9.5-8.33.24-16.67.73-25 .2-7.05-.39-12.97-6.18-14.29-12.99-1.02-6.26-.3-12.67-.52-18.98.3-8.38-1.11-16.8.06-25.14 1.19-7.29 7.97-12.67 15.15-13.31m2.66 8.65c2.26-.27 4.84-.99 6.83.61.19 3.23-3.57 3-5.6 4.19 2.35 1.07 6.97 1.25 5.49 5.07-2.28.97-4.79.28-7.17.38.45.79.95 1.56 1.48 2.33 2.65.15 6.23.77 7.96-1.8 1.32-2.17.44-4.86-1.36-6.44.57-.81 1.15-1.62 1.61-2.47.97-5.03-8.35-6.59-9.24-1.87m2.76 19.99c0 7.87.04 15.74.04 23.62 1.26.03 2.54.08 3.81.13-.05-3.24-.11-6.49-.05-9.72 1.52.38 3.77-.29 4.7 1.38 1.92 2.57 3.48 5.4 5.2 8.12 1.44.08 2.88.16 4.32.27-2.19-3.26-4.18-6.64-6.39-9.88 4.37-2.62 6.08-9.89 1.39-12.99-4.02-1.97-8.72-.59-13.02-.93zM338.34 927.61c5.81-1.05 11.75-.65 17.62-.75 4 .04 8.05-.26 12.02.46 7.15 1.47 12.83 8.24 12.81 15.58.01 12.71.08 25.43.15 38.15.28 5.93-3.04 11.83-8.34 14.56-5.72 2.96-12.39 1.71-18.57 2.04-6.8-.3-14.2 1.32-20.4-2.3-5.78-3.16-8.39-10.01-8.26-16.33-.02-11.98-.1-23.97.01-35.95.03-7.37 5.75-14.09 12.96-15.46m9.03 6.74c-3.17 4.95-3.47 11.72-.54 16.84.69 1.35 2.33 1.54 3.57 2.19-1.24-3.03-3.14-5.93-3.09-9.3-.31-4.14 1.39-7.98 3.39-11.47-1.11.53-2.7.52-3.33 1.74m-2.54 25.86c2.26-.02 4.54-.01 6.81.02-.05 6.83-.01 13.66 0 20.5 1.24.01 2.48.03 3.74.08.02-6.85.04-13.7-.1-20.54 2.34-.02 4.69-.05 7.03-.06.02-.84.04-2.51.05-3.35-5.85.01-11.7.35-17.55.23 0 1.03 0 2.06.02 3.12zM405.41 927.49c8.07-1.68 16.43-.57 24.62-.93 6.17-.5 12.68 1.95 16.14 7.26 3.09 4.04 3.08 9.33 3.08 14.18-.05 10.66-.05 21.33.08 32 .35 7.58-5.08 15.02-12.49 16.82-5.55.99-11.23.3-16.84.53-5.54-.18-11.47.91-16.61-1.74-6.02-2.63-9.58-9.21-9.55-15.64-.09-12-.21-24.01-.31-36.01-.27-7.39 4.72-14.49 11.88-16.47m19.06 5.28c1.95 3.8 3.57 7.89 3.4 12.25.16 3.41-1.9 6.27-3.03 9.34 4.84-1.12 5.62-7.13 5.53-11.27-.41-3.91-1.38-9.3-5.9-10.32m-13.45 24.78c2.68 4.51 5.5 8.96 8.04 13.56.4 3.32.15 6.68.29 10.03 1.27-.11 2.55-.2 3.83-.29.04-3.27-.5-6.56-.02-9.79 2.27-4.69 5.21-9.03 7.96-13.45-1.05.03-3.15.08-4.19.11-2.04 3.37-3.89 6.85-5.71 10.34-2.06-3.54-4.02-7.13-6.07-10.67l-4.13.16zM135.3 928.42c7.91-.41 15.84-.1 23.76-.24 6.4-.24 12.59 3.81 15.15 9.64 1.7 3.45 1.54 7.38 1.58 11.13.01 11.36.06 22.72.07 34.08-.03 5.83-3.62 11.45-8.91 13.93-5.6 2.74-11.99 1.47-17.98 1.79-6.79-.27-14.24 1.46-20.36-2.37-5.75-3.17-8.54-9.97-8.19-16.32.04-12.04-.31-24.07-.11-36.1.19-8.04 7.07-14.88 14.99-15.54m4.19 8.6c.95-.2 2.85-.59 3.81-.78.08 4.08-.16 8.17.1 12.26l2.1 1.05c.25-5.32.22-10.64.15-15.96-2.31.62-5.58.4-6.16 3.43m-5.09 19.21c1.91 7.92 4.3 15.71 6.25 23.62 1.29.01 2.57.02 3.85.06 1.56-5.66 3.12-11.32 4.56-17 1.85 5.57 3.48 11.22 4.93 16.92 1.34.03 2.69.06 4.04.1 2.46-7.87 3.9-15.99 6.19-23.9-1.25.05-2.48.18-3.71.38-2.1 6.19-2.9 12.73-4.54 19.05-1.64-5.97-3.24-11.95-4.86-17.91l-3.48-.08c-1.92 5.71-3.15 11.63-4.87 17.4-1.7-6.17-2.97-12.44-4.43-18.67-1.31-.01-2.62 0-3.93.03zM202.2 928.23c7.88-1.06 15.88-.28 23.81-.58 6.8-.44 13.9 3.37 16.71 9.68 1.8 3.94 1.49 8.39 1.52 12.62-.14 11 .11 22.01.09 33.01.01 7.78-6.64 14.59-14.31 15.22-8.01.66-16.06.26-24.09.37-6.05.17-12.01-3.22-14.87-8.56-2.38-4.25-2.22-9.29-2.21-14 .07-10.99-.22-21.98-.1-32.96.13-7.45 6.39-13.48 13.45-14.8m5.27 6.26c.01.78.01 1.58.03 2.39 1.96-.45 5.93-1.95 6.2 1.23.02 4.66-6.03 6.04-7.28 10.26 3.41.99 7.04.33 10.54.42-.12-.53-.36-1.59-.49-2.12-2.14.01-4.28.06-6.41.16 2.76-2.62 6.99-5.49 6.1-9.85-1.11-3.79-5.69-3.38-8.69-2.49m3.87 21.73c.07 7.88-.02 15.76.04 23.65 4.77 0 9.54-.04 14.32-.08-.01-1.1-.03-2.18-.04-3.25-3.6.02-7.19.01-10.79.01 0-2.47 0-4.94-.01-7.39 3.18-.06 6.35-.04 9.52-.03.04-.82.11-2.45.15-3.27-3.21.26-6.43.31-9.64.31v-6.76c3.48-.15 6.97-.15 10.45-.06.03-1.08.06-2.15.08-3.2-4.69.13-9.39.09-14.08.07zM65.2 929.2c8.16-1.34 16.49-.33 24.72-.61 6.36-.37 12.66 3.19 15.48 8.91 2.65 4.73 1.87 10.31 1.94 15.5-.16 10.33.66 20.66.27 30.99-.52 8.06-7.59 14.9-15.65 15.23-7.65.29-15.31.18-22.97.15-6.5-.01-12.82-4.02-15.38-10.03-1.52-3.22-1.46-6.85-1.46-10.32.15-11.33-.63-22.66-.19-33.98.24-7.48 5.83-14.42 13.24-15.84m2.68 9.1c-1.01.23-2.02.48-3.02.75 1.18 1.17 2.41 2.3 3.61 3.48-1.71.49-3.42.98-5.09 1.61l3.36 1.6c-.37 1.29-.74 2.54-1.08 3.87 4.06.62 1.81-4.9 5.73-4.79.61 1.38-.99 4.86 1.68 4.81.7-2.3.83-5.15 4.17-4.65-.79-.66-2.37-1.97-3.16-2.63 1.46-1.22 3.02-2.28 4.52-3.43-.85-.13-2.55-.4-3.4-.54.8-1.6 1.57-3.27.01-4.77-.88 1.72-1.68 3.48-2.52 5.24-2.16-1.15-1.88-3.61-2.26-5.64-1.09 1.56-1.89 3.29-2.55 5.09m4.5 19.96c-4.64 3.92-4.56 11.04-2.8 16.38 1.35 4.11 5.85 5.84 9.83 6.13 1.16 1.51 2.3 3.09 3.75 4.38 1.47.11 2.94.13 4.42.07a61.584 61.584 0 0 0-4.56-4.58c7.43-3.02 7.91-12.74 5.34-19.23-2.5-6.2-11.06-6.31-15.98-3.15z"/><path d="M70.04 940.32l3.09.04c-.39 1.16-.78 2.34-1.18 3.52-.84-.34-1.67-.69-2.5-1.02.19-.86.39-1.71.59-2.54zM701.44 948.15c-.05-2.21 1.37-6.04 4.17-4.52-.02 1.83-.61 3.59-1.11 5.35-1.03-.28-2.05-.56-3.06-.83zM77.41 959.56c2.91-.75 6.52.37 7.75 3.31 1.44 3.54 1.11 7.61-.08 11.18-2.23 5.23-11.5 4.25-12.41-1.5-1.08-4.56-.99-11.77 4.74-12.99zM281.57 959.14c2.55.34 5.88-.65 7.72 1.66 1.23 2.26.47 5.72-2.24 6.49-1.84.21-3.7.12-5.55.16 0-2.78.01-5.55.07-8.31zM622.51 961.76c3.97-2.05 9.15.7 9.62 5.15.34 3.81.63 8.84-3.08 11.17-3.37 1.73-8.76.86-9.81-3.31-1.26-4.34-1.32-10.61 3.27-13.01zM692.17 962.71c2.16.11 4.42-.16 6.52.52 3.01 1.56 2.96 7.02-.48 8.08-1.93.57-3.98.31-5.95.4-.07-3.01-.09-6.01-.09-9zM681.37 1009.66c6.19-.64 12.44-.23 18.67-.37 5.23.09 10.91-.82 15.64 2.01 5.59 3.07 8.62 9.48 8.51 15.74.14 12.3-.13 24.62-.02 36.93.29 8.31-6.98 15.55-15.12 16.03-7.98.5-16 .22-23.99.28-5.98.06-11.89-3.31-14.57-8.7-2.44-4.46-2.03-9.7-2.11-14.6.04-10.69-.34-21.38-.13-32.06.16-7.33 5.95-13.93 13.12-15.26m7.57 35.33c-2.5 2.97-4.25 6.48-6.29 9.76 2.16 3.37 4.06 6.94 6.62 10.05 1.11 1.43 3.1 1 4.69 1.12 4.32-.15 8.66.11 12.97-.17 1.94.06 2.39-2.2 2.37-3.71.09-4.67.11-9.34-.02-14 0-1.61-.35-3.7-2.16-4.16-4.38-.38-8.8-.11-13.19-.22-1.72.09-3.89-.36-4.99 1.33zM477.29 1010.44c8.24-.37 16.49-.08 24.73-.15 6.12-.28 11.94 3.65 14.52 9.11 1.59 3.29 1.66 7.05 1.7 10.65-.01 10.98.05 21.95.17 32.93.08 3.98-.56 8.19-3.02 11.45-3.2 4.63-8.9 7.03-14.44 6.91-7.31-.05-14.63.13-21.94-.07-5.44-.15-10.87-2.95-13.65-7.7-2.75-4.32-2.6-9.65-2.63-14.57.05-10.97-.37-21.95-.06-32.91.28-7.83 6.72-15.02 14.62-15.65m19.88 9.17c-1.74-.28-.84 2.86-.27 3.81 1.38-.3 2.24-1.13 2.57-2.48a5.07 5.07 0 0 0-2.3-1.33m-.75 15.1c1.67-2.07 2.71-4.58 2.47-7.27-2.95.99-3.75 4.69-2.47 7.27m-3.65 4.93c0 5.47-.01 10.94.12 16.42-.09 1.54.35 3.62-1.23 4.6-2.45 1.97-5.25-.35-7.6-1.22-.12 1.12-.18 2.26-.19 3.42 3.72 3.02 11.56 2.54 12.54-3.02.5-6.73.03-13.49.17-20.23-.95.01-2.86.02-3.81.03zM543.38 1010.56c6.09-1.33 12.38-.57 18.56-.79 6.3.09 13.5-.9 18.66 3.56 4.8 3.64 6.63 9.87 6.26 15.7.01 9.64-.17 19.28.25 28.92.1 5.22.58 10.98-2.59 15.5-2.8 4.65-8.18 7.17-13.5 7.27-8.02.19-16.05.16-24.07.08-5.83-.03-11.34-3.76-13.73-9.04-2.04-4.28-1.72-9.15-1.8-13.75.04-10.69-.28-21.37-.12-32.05-.06-7.13 5.22-13.67 12.08-15.4m21.83 14.69c-.02 2.13-.9 4.84.81 6.56 1.09-2.26 1.58-4.73 1.87-7.18-.91.16-1.81.33-2.68.62m-13.42 17.61c.08 7.93.07 15.86.02 23.79 1.25.02 2.5.05 3.77.1-.01-3.96-.28-7.93.17-11.87 3.98 2.97 5.91 7.72 9.14 11.37 1.48.72 3.25.37 4.87.58-3.14-4.42-6.62-8.58-9.63-13.08 2.81-3.71 5.89-7.22 8.8-10.86-1 .01-3.01.02-4.01.02-3.14 3.48-5.8 7.39-9.25 10.59-.26-3.55-.12-7.11-.07-10.65-.96 0-2.86.01-3.81.01zM611.34 1010.47c6.08-1.44 12.4-.52 18.6-.8 5.55.28 11.6-1.15 16.67 1.82 5.64 2.91 8.88 9.29 8.63 15.56.01 12.33.23 24.67.29 37 .17 7.73-5.85 14.94-13.51 16.06-5.99.72-12.05.28-18.06.43-5.42-.11-11.33.64-16.16-2.33-5.29-3.05-8.03-9.25-7.98-15.2-.18-12.3-.37-24.61-.24-36.91.08-7.03 4.84-13.85 11.76-15.63m22.9 13.35c.2 2.63-1.37 5.85.72 8.02 1.73-2.18 1.32-5.11 1.64-7.69-.59-.08-1.77-.25-2.36-.33m4.48 8.48c2.32-2.33 2.37-5.75 2.76-8.8-.59.23-1.79.67-2.39.9-.45 2.59-.53 5.26-.37 7.9m-16.32 10.78c.02 7.8.06 15.6.11 23.41 4.66-.06 9.33.09 14-.12-.19-.75-.59-2.24-.79-2.99-3.17-.2-6.35-.08-9.52-.13.02-6.7.08-13.41-.07-20.1-1.25-.04-2.5-.06-3.73-.07zM144.62 1012.11c6.79.03 13.79-1.12 20.44.61 6.86 2.26 11.48 9.19 11.46 16.34.1 11.99.09 23.99.29 35.99.36 6.16-2.73 12.55-8.23 15.56-4.96 3.09-11.03 2.03-16.56 2.25-6.35-.18-12.83 1-19.08-.52-6.65-1.91-11.52-8.41-11.6-15.3-.21-12.01.04-24.04-.49-36.04-.37-6.74 2.91-13.93 9.19-16.9 4.46-2.45 9.69-1.81 14.58-1.99m-1.9 7.55c-2.54 3.38-5.15 6.78-6.93 10.65 2.48.07 4.96.08 7.45.08 0 1.17.02 2.33.06 3.53 2.09-.1 3.21-1.12 2.66-3.31.75-.51 1.5-1.01 2.26-1.5-.63-.25-1.89-.73-2.52-.98-.09-3.31-.09-6.62-.41-9.91-.65.36-1.93 1.08-2.57 1.44m-.75 31.35c2.52 3.44 7.7 2.75 10.38 5.94.53 1.68.22 3.99-1.74 4.57-3.26.84-6.67.08-9.84-.79.16 1.22.33 2.46.5 3.71 3.72.55 7.67 1.41 11.3-.04 3.82-1.32 4.77-6.6 2.77-9.76-2.45-3.83-8.41-2.6-10.65-6.62-.31-1.65.7-3.37 2.33-3.76 2.78-.52 5.56.36 8.33.61.38-5.13-6.1-4.26-9.44-3.86-4.57.59-6 6.46-3.94 10zM276.28 1011.32c7.46.05 14.94-.28 22.4.09 8.52.94 14.85 9.21 14.69 17.59.02 12.35.43 24.7.22 37.05.02 7.98-6.4 15.47-14.5 16.01-8.02.4-16.07.07-24.11.21-6.05.32-12.17-3-15-8.39-2.02-3.6-2.19-7.85-2.21-11.87.04-11.02-.16-22.03-.24-33.04-.06-5.78 2.65-11.65 7.6-14.79 3.26-2.24 7.27-2.89 11.15-2.86m-.28 8.76c-2.19 3.49-2.41 9.82 2.09 11.55 3.75 1.42 7.83-2.35 6.39-6.18-.66-3.68-4.91-3.25-7.67-3.16 1.6-2.59 4.52-3.38 7.17-4.39-2.75-1.89-6.45-.69-7.98 2.18m2.87 19.07c-.05 7.78-.04 15.57-.02 23.36 1.21.01 2.43.04 3.65.08-.02-3.36-.04-6.72-.08-10.07 2.98-.03 5.97.13 8.95-.06.13-.74.4-2.21.54-2.94-3.2-.13-6.39-.09-9.58-.12 0-2.34.01-4.67.03-6.99 3.4-.01 6.81.03 10.22.01-.01-.88-.02-2.64-.02-3.52-4.56.35-9.13.17-13.69.25zM338.46 1011.72c6.76-1.45 13.73-.65 20.58-.93 5.16-.02 10.84-.36 15.2 2.92 5.11 3.22 7.61 9.41 7.35 15.31-.16 12 .19 24.01.2 36.02.09 5.84-3.02 11.71-8.2 14.55-5.92 3.45-13.05 1.76-19.54 2.21-6.55-.43-13.77 1.49-19.68-2.19-4.83-2.72-7.94-8.11-7.95-13.64-.26-10.31-.11-20.62-.3-30.92.07-4.75-.59-9.77 1.48-14.2 1.86-4.6 6.12-7.92 10.86-9.13m9.79 7.21c-2.25 5.05-4.23 10.27-5.68 15.61 1.16-.77 2.56-1.42 2.9-2.91 1.82-4.58 3.58-9.19 4.98-13.91-.55.31-1.65.91-2.2 1.21m-4.86 29.11c-.6 4.59-.94 10.31 2.95 13.64 4.23 3.75 10.41 2.5 15.44 1.45.04-3.97.03-7.94.07-11.9-3.09-.02-6.2-.05-9.26.46.72 2.89 3.43 2.77 5.83 2.77-.03 2.14-.06 4.28-.1 6.44-3.8.03-9.1.71-10.78-3.73-1.46-4.2-1.69-10.46 2.83-12.88 3.44-2.05 7.5-.5 11.12.08-.21-.81-.62-2.41-.83-3.22-6.12-3.24-15.95-.62-17.27 6.89zM405.48 1011.71c5.98-1.93 12.35-.83 18.51-1.12 5.34.23 11.05-1.04 16.03 1.48 5.39 2.49 9.53 7.8 9.71 13.87.38 12.99.43 26.01.37 39.01.12 7.92-6.22 15.35-14.1 16.36-9.07.4-18.22.47-27.3.05-7.53-.95-13.82-7.8-13.96-15.43-.36-12.66-.37-25.33-.41-37.98-.17-7.04 4.22-14.2 11.15-16.24m22.2 8.48c-.9 1.44-1.09 3.02.25 4.3 1.17-.49 2.01-1.32 2.52-2.48-.89-.69-1.83-1.25-2.77-1.82m-.4 9c-1.51 1 .07 2.37.57 3.48 1.09-.74 1.97-1.76 2.89-2.67-1.05-.1-2.67-2.45-3.46-.81m-15.06 12.25c0 7.88.02 15.77 0 23.65.87.01 2.62.01 3.5.02.01-3.61.01-7.2.02-10.79 3.64.01 7.29.02 10.95-.02-.03 3.6 0 7.21.02 10.83.89 0 2.66.01 3.55.01-.01-7.84-.05-15.68 0-23.52-1.19-.12-2.38-.22-3.56-.3-.08 3.33-.08 6.67-.07 10.01-3.63-.09-7.26-.12-10.88-.05 0-3.22.01-6.43-.01-9.64-1.18-.09-2.35-.15-3.52-.2zM202.19 1012.22c7.87-1.04 15.87-.37 23.8-.65 5.21-.3 10.71 1.16 14.44 4.98 3.69 3.8 4.72 9.33 4.67 14.45-.07 11.67.28 23.35.05 35.02-.01 5.95-3.31 11.91-8.75 14.52-5.04 2.67-10.89 1.72-16.35 1.98-5.64-.04-11.31.42-16.94-.11-7.8-.97-13.66-8.46-13.54-16.17-.17-12.76-.14-25.52-.1-38.28-.1-7.39 5.51-14.24 12.72-15.74m5.79 6.31c-.06 2.41-.15 4.84-.34 7.26 2.9-.15 6.17-.09 7.04 3.3-1.89 2.76-5.15 2.17-8.02 1.78 1.81 5.25 11.99 1.85 9.84-3.79-.72-3.03-4.07-3.13-6.57-3.39.1-1.08.2-2.14.3-3.19 2.13-.36 5.18 1.04 6.16-1.77-2.79-.3-5.61-.31-8.41-.2m.76 21.67c.07 7.82.11 15.65-.04 23.48 4.74-.15 10.03 1 14.28-1.68 5.79-4.08 6.13-13.47 1.77-18.7-4.24-4.11-10.68-2.74-16.01-3.1zM65.19 1013.31c8.84-1.36 17.85-.7 26.76-.79 8.35-.1 15.8 7.14 16.15 15.46.3 12.68.54 25.38.54 38.08.31 7.56-5.09 15.04-12.53 16.72-5.31 1.1-10.77.41-16.14.65-6.56-.17-13.85 1.16-19.61-2.79-5.18-3.31-7.91-9.55-7.68-15.6.32-12.02-.29-24.04-.07-36.06.25-7.21 5.42-14.12 12.58-15.67m7.24 5.3c-.18 1.57-.32 3.18-.45 4.78-.13-.67-.4-2.01-.53-2.68l-1.89.19c.04.73.11 2.19.14 2.92-.51-.93-1.01-1.86-1.48-2.78-.03.89-.1 2.68-.14 3.57 1.3.13 2.61.12 3.92.21 3.21.85 2.99-2.86 2.34-4.92.68.19 2.04.57 2.72.77l.18-1.93a85.8 85.8 0 0 0-4.81-.13m3.13 4.9c1.25.61 2.75.12 4.01.7.07.87.18 1.74.33 2.62.77-1.54.84-3.27 1.2-4.9-1.78-.35-3.58-.74-5.31-1.22-.39.92-1.45 2.01-.23 2.8m-5.58 2.39c.33 1.55.63 3.08.95 4.66 1.94-.35 2.79-1.93 3.2-3.71 1.12 1.08 2.11 2.28 3.07 3.52.88-.16 2.65-.49 3.53-.66-1.2-1.57-2.56-3.04-3.8-4.57-2.29.45-4.63.51-6.95.76m7.85 16.01c-2.83 7.47-6.05 14.79-8.78 22.3.92.03 2.76.11 3.68.14.82-2.28 1.7-4.54 2.56-6.79 3.36.03 6.73.03 10.09.02.93 2.22 1.79 4.46 2.55 6.76.93-.02 2.78-.05 3.7-.07-3.27-8.1-6.3-16.3-9.63-24.37-1.58.31-3.92-.2-4.17 2.01z"/><path d="M138.84 1028.38c1.52-2.02 3-4.07 4.37-6.19-.01 2.07.04 4.15.13 6.24-1.51-.03-3.01-.05-4.5-.05zM277.62 1024.64c2.28-1.31 5.63.81 4.58 3.47-.64 2.07-2.93 1.5-4.57 1.48-.2-1.64-.74-3.37-.01-4.95zM212.55 1043.2c2.86.28 6.17-.3 8.61 1.61 3.67 3.04 3.46 8.84 1.41 12.75-2.09 3.43-6.53 3.17-10.02 3.23-.04-5.86-.01-11.73 0-17.59zM80.34 1044.5c1.43 3.24 2.51 6.62 3.8 9.92-2.53.05-5.06.08-7.59.09 1.13-3.39 2.36-6.74 3.79-10.01zM690.49 1046.42c5.37-.67 10.85-.11 16.26-.22 0 5.66.36 11.34.11 17-5.27.55-10.6.23-15.89.26-1.82-2.92-3.63-5.85-5.75-8.55 1.91-2.74 3.31-5.8 5.27-8.49m7.73 6.8c-1.6-1.78-2.97-4.43-5.82-3.72 1.01 2.25 2.64 4.1 4.21 5.99-1.37 1.58-4.18 2.27-4.08 4.75 2.52 1.77 4.06-1.76 5.65-3.1 1.44 1.73 2.87 3.73 5.4 3.75-.48-2.46-1.94-4.45-3.72-6.12 1.48-1.51 3.21-2.94 3.76-5.08-2.74-1.16-3.89 1.91-5.4 3.53zM682.5 1093.72c6.15-.56 12.35-.12 18.52-.3 4.62.09 9.57-.75 13.86 1.46 5.74 2.62 9.67 8.74 9.61 15.07.07 12.36.25 24.71.2 37.07.2 6.09-3.34 12.05-8.75 14.83-5.16 2.94-11.31 1.75-16.96 2.12-5.97 0-12.04.7-17.93-.47-6.81-1.76-12.01-8.43-11.89-15.49-.5-12.66-.31-25.34-.38-38-.05-7.84 5.88-15.2 13.72-16.29m20.19 33.55c-.17 4.4.17 8.81-.17 13.21-3.11.31-6.25.49-9.36.13-.17-.72-.52-2.17-.7-2.9-2.74 1.97-5.71 3.59-8.67 5.21 3.21 1.92 6.37 3.92 9.47 6.01l-.08-3.74c2.99 0 6 .17 8.99-.1 2.11-.22 4.13-1.97 4.31-4.13.32-4.53.03-9.08.04-13.61l-3.83-.08zM476.49 1094.81c6.13-.68 12.32-.2 18.48-.41 5.01.08 10.42-.86 15.02 1.67 5.47 2.73 8.71 8.84 8.72 14.85.11 12.03.15 24.06.48 36.09.34 6.28-2.53 13.03-8.43 15.84-4.45 2.73-9.81 1.93-14.76 2.02-6.65-.1-13.36.92-19.95-.32-7.41-1.6-12.69-9-12.58-16.45-.11-12.39-.25-24.79-.21-37.18.09-7.56 5.7-14.74 13.23-16.11m18.92 14.79c-.56 2.32-1.15 4.64-1.79 6.95.46-.04 1.39-.11 1.85-.15 1.02-2.09 1.87-4.27 2.52-6.5-.87-.11-1.73-.21-2.58-.3m-15.75 16.08c-.01 7.95.08 15.9.08 23.85.93.03 2.79.08 3.71.11-.03-6.32-.16-12.63-.22-18.94 4.04 6.16 7.66 12.58 11.65 18.77 1.3.01 2.62.02 3.93.05-.16-7.98-.02-15.95-.05-23.92-.84.01-2.53.03-3.37.05-.12 6.32-.13 12.64.22 18.96-3.95-6.18-7.46-12.62-11.46-18.76-1.5-.07-3-.13-4.49-.17zM546.18 1094.27c8.59-.51 17.22-.52 25.81-.21 8.32.24 15.24 7.77 15.38 15.97.35 11.33.16 22.67.3 34.01.03 3.7.18 7.6-1.49 11.03-2.42 5.47-8.05 9.4-14.08 9.48-8.04.12-16.08.29-24.11.2-6.62.06-12.7-4.59-15.07-10.65-1.39-3.9-1.15-8.1-1.19-12.16.01-10.33-.25-20.65-.17-30.97 0-8.16 6.38-15.87 14.62-16.7m15.64 16.14c1.08 1.75 2.88 2.55 4.9 2.8-.88-2.13-2.56-3.42-4.9-2.8m-15.92 15.75c.17 7.97-.37 15.97.33 23.93.85.02 2.53.05 3.38.07.1-6.25-.15-12.5.15-18.73 2.31 4.85 3.53 10.4 7.06 14.58.47-.25 1.41-.76 1.88-1.01 3.03-3.91 4.17-8.88 6.09-13.36.17 6.08-.03 12.17.3 18.25 1.15-.01 2.31 0 3.47.02.04-7.93-.22-15.85-.11-23.77-1.46.04-2.92.09-4.37.17-2.36 4.97-4.37 10.1-6.73 15.08-2.35-5.09-4.52-10.26-7.02-15.26-1.48-.01-2.96 0-4.43.03zM611.47 1094.71c4.38-1.38 9.03-.85 13.56-.95 5.66.1 11.34-.22 16.99.2 8.19.82 14.29 8.97 13.82 17.01-.23 12.35.52 24.7.4 37.05-.16 7.47-5.78 14.52-13.17 15.95-5.65.81-11.38.28-17.05.49-5.49-.1-11.41.77-16.42-2.02-5.72-2.82-9.33-9.07-9.19-15.4-.14-12.05-.1-24.1-.22-36.14-.22-7.08 4.57-13.95 11.28-16.19m11.59 13.79c.01 2.38.01 4.77.01 7.16l3-.04c1.74 1.38 3.49 2.76 5.36 4 .06-5.16-.24-10.31-.06-15.46-2.61 1.83-4.68 4.94-8.31 4.34m13.21-4.93c.47 2.98 2.44 5.48 2.87 8.48-.36 2.78-1.96 5.17-2.97 7.75 7.03-2.64 5.81-12.8.1-16.23m-2.79 3.98c.08 1.79.69 3.47.96 5.25-.36 1.55-.76 3.08-.97 4.68 3.41-1.72 4.08-5.83 2.46-9.04-.61-.22-1.84-.67-2.45-.89m-9.74 20.54c-2.75.92-5.97 2.55-5.95 5.92-.45 3.92 3.43 6.01 6.64 6.88-.01 2.51 0 5.02.01 7.54-2.53-.29-5.05-.63-7.58-.85.37 4.1 4.42 3.62 7.46 3.76 0 1.27.01 2.55.02 3.85l2.4.16c.46-1.29-.57-3.62 1.31-3.97 3.18-1.02 5.82-4.02 5.1-7.53-.4-3.38-3.77-4.87-6.48-6.09-.02-2.31-.04-4.6-.05-6.89 1.91.44 3.82.93 5.73 1.41-.16-.86-.49-2.58-.65-3.44-1.43-.37-2.9-.47-4.31-.85-.27-.94-.82-2.84-1.09-3.78-1.69.67-2.33 2.17-2.56 3.88zM275.41 1095.56c7.54-.12 15.09-.19 22.64-.16 5.74.01 11.24 3.49 13.82 8.61 2.31 4.2 2.1 9.14 2.25 13.79-.01 10.4.31 20.8.26 31.21.05 5.99-2.97 12.16-8.39 15.01-5.83 3.23-12.68 1.76-19.03 2.18-6.64-.19-13.85 1.21-19.95-2.15-5.12-2.67-8.43-8.27-8.32-14.04-.17-12.96-.22-25.92-.23-38.87.24-8.71 8.38-15.79 16.95-15.58m-2.25 13.19c1.57 2.67 4.95 1.51 7.44 1.56-1.56 2.79-4.51 3.84-7.42 4.64 3.81 2.94 9.07-.65 9.3-5.03.56-3.15.39-8.05-3.62-8.67-4.21-1.39-8.39 3.85-5.7 7.5m7.98 15.16c-3.19 1.47-5.22 4.77-5.56 8.22-.47 4.26-.18 9.28 3.13 12.43 3.66 3.23 9.14 2.83 13.49 1.41.1-.85.28-2.57.38-3.42-3.05 1.01-6.56 2.05-9.62.52-2.95-1.45-3.81-5.02-3.81-8.03-.09-2.84.41-6.24 3.03-7.87 3.07-1.92 6.88-1.35 10.08-.09.07-.85.21-2.56.29-3.42-3.7-1.07-7.9-1.75-11.41.25zM339.51 1095.71c8.78-1.05 17.68-.43 26.51-.62 8.93-.25 16.4 8.22 16.25 16.93.16 12.32.16 24.65.14 36.97 0 5.49-2.66 11.03-7.39 13.98-5.58 3.88-12.69 2.27-19.04 2.69-6.19-.31-12.71 1.09-18.64-1.18-5.75-2.32-10.19-8.09-10.14-14.4-.04-10.04-.4-20.07-.45-30.11.02-4.29-.47-8.68.74-12.85 1.57-5.59 6.31-10.21 12.02-11.41m3.85 8.14c2.15-.15 4.31-.33 6.48-.3.02 2.7-1.77 4.76-3.53 6.6.44 1.45.84 2.93 1.16 4.43l-1.79-.44c.24.7.72 2.1.96 2.81 2.09.77 1.95-2.17 2.82-3.19l-1.48 1.02c-.15-1.19-.28-2.36-.38-3.52l.55.55c1.49-2.8 5.81-5.22 3.76-8.82-1.89-2.61-7.58-2.71-8.55.86m-1.17 19.43c2.93 7.73 5.38 15.63 8.45 23.32 1.28-.07 2.57-.12 3.86-.15 2.8-7.73 5.5-15.5 8.25-23.25-1.3-.01-2.6.02-3.9.07-1.99 6.39-4.04 12.77-6.34 19.06-2.35-6.31-4.42-12.71-6.48-19.11-1.29 0-2.57.02-3.84.06zM406.44 1095.64c3.09-1.08 6.41-.85 9.63-.86 6.29.06 12.58-.19 18.88-.06 8.35.3 15.3 7.93 15.46 16.18.3 12.69.49 25.39.45 38.09.13 8.52-7.51 15.99-15.91 16.26-7.65.21-15.31.3-22.95.11-7.88-.35-16.28-6.27-16.57-14.69-.45-12.9-.11-25.82-.32-38.72-.37-7.21 4.57-14.01 11.33-16.31m19.43 6.16c.1 3.53-.24 7.11.36 10.62.48.31 1.45.92 1.93 1.22.26-3.95.23-7.91.33-11.86-.65.01-1.97.01-2.62.02m.12 13.36c-.71.81-.46 2.94 1.03 2.51 1.97.29 1.27-2.33 1.49-3.42-.87.24-1.71.54-2.52.91m-13.36 8.45c.1 7.9.02 15.8.05 23.7 4.08-.18 8.27.44 12.27-.55 5.12-1.7 5.3-9.41.95-12.11 2.72-2.2 3.34-6.6.52-8.97-3.85-3.12-9.23-1.72-13.79-2.07zM142.22 1096.33c6.61 0 13.22-.26 19.83-.05 8.38.51 15.32 8.38 15.14 16.72.04 12.35.25 24.7.3 37.05.14 8.48-7.21 16.35-15.71 16.65-5.92.2-11.84.01-17.76.15-3.89-.05-7.99.4-11.63-1.28-5.77-2.37-10.34-8.12-10.21-14.52-.45-12.67-.38-25.35-.37-38.02-.12-6.7 4.38-13.04 10.53-15.53 3.16-1.16 6.57-1.08 9.88-1.17m-6.7 6.45c2.44.02 4.87.01 7.31.04-1.86 4.27-3.94 8.43-5.92 12.65.68-.11 2.04-.32 2.72-.42 2.38-4.64 4.78-9.34 6.13-14.39-3.39 0-6.78-.01-10.17.07-.02.51-.05 1.54-.07 2.05m2.61 19.95c.04.86.11 2.57.15 3.43 3.94 0 7.89-.02 11.84.07-3.64 5.28-7.89 10.11-11.55 15.38-1.06 1.27-.86 3-1.16 4.56 5.83-.03 11.67-.06 17.5.01l-.16-3.29c-4.36-.02-8.72.02-13.08-.04 3.85-4.88 7.5-9.93 11.1-15 1.17-1.47 1.59-3.32 1.98-5.09-5.54-.11-11.08-.01-16.62-.03zM203.25 1096.23c7.88-.94 15.85-.3 23.77-.6 6.33-.39 13 2.63 16.14 8.28 1.84 3 2.44 6.57 2.38 10.06.02 12.37.41 24.73.23 37.1-.02 5.53-3.59 10.64-8.42 13.16-6.2 3.46-13.56 1.98-20.33 2.37-5.91-.24-12.26.96-17.74-1.82-5.38-2.79-9.21-8.62-9.07-14.75-.05-12.69-.61-25.38-.24-38.07.24-7.44 5.9-14.37 13.28-15.73m2.26 7.25c-.72 1.69.53 3.21 1.25 4.66-.91 1.43-2.33 2.92-1.57 4.78 1.05 4.36 8.54 4.28 9.65-.04.56-1.78-.64-3.25-1.53-4.62.71-1.69 1.7-3.48.92-5.32-1.67-3.28-7.62-3.11-8.72.54m1.1 19.55c2.33 4.1 4.89 8.06 7.47 12.01-2.68 4.06-5.52 8.02-8.15 12.12 1.06.01 3.17.04 4.23.05 2.11-3.31 4.19-6.64 6.29-9.94 1.96 3.29 3.93 6.58 5.86 9.91 1.04-.11 3.11-.31 4.15-.41-2.66-3.96-5.28-7.94-7.96-11.87 2.57-3.89 5.16-7.75 7.5-11.78-1.23.04-2.46.14-3.68.31-2.38 2.78-4.09 6.07-6.1 9.13-1.79-3.02-3.19-6.35-5.54-8.98-1.35-.26-2.7-.45-4.07-.55zM65.41 1097.5c6.06-1.5 12.38-.64 18.56-.91 5.48.23 11.51-.95 16.44 2.1 5.37 3.07 8.6 9.2 8.67 15.33.15 11.66.21 23.33.3 34.99.21 6.07-2.43 12.44-7.76 15.66-5.48 3.64-12.36 2.51-18.57 2.76-5.67-.15-11.42.55-17.02-.53-7.12-1.69-12.32-8.69-12.47-15.92-.27-9.99-.16-19.98-.24-29.97-.01-4.51-.6-9.21 1.16-13.49 1.73-4.87 6-8.62 10.93-10.02m15.01 24.09c.07 7.21-.14 14.44.33 21.64 1.58.06 3.16.09 4.74.1-.6-1.09-1.22-2.16-1.87-3.21-.02-6.26-.23-12.52-.29-18.77-.97.06-1.94.14-2.91.24m8.01 2.22c.05 1.3.12 2.61.19 3.94l-2.42-.12c.18 1.68.75 3.13 2.67 3.33.03 3.35-.2 6.72.05 10.08.84 3.31 6.66 3.73 7.43.04-1.5-.14-3-.25-4.5-.34-.19-3.5-.2-7-.19-10.49 1.33.01 2.66.03 3.99.07.02-.54.07-1.6.09-2.13-1.38-.06-2.76-.1-4.13-.12l.06-4.16c-.81-.03-2.43-.08-3.24-.1m-23.87 6.55c2.15.05 4.3-.19 6.46-.06 1.39.45 1.65 2.17 2.41 3.27-2.52.33-5.17.06-7.58.99-3.62 1.52-3.51 7.93.53 8.86 2.14.94 4.29-.24 6.25-1.03.86.32 2.57.96 3.43 1.27-.23-3.91-.02-7.84-.42-11.73-.41-5.2-9.22-6.2-11.08-1.57z"/><path d="M207.29 1103.66c2.23-1.95 6.72.05 4.29 3-2.41 1.8-4.25-.71-4.29-3zM275.42 1108.42c-.94-1.96-.11-5.72 2.49-5.17 2.59.15 1.81 3.36 2.09 5.11-1.53.05-3.06.07-4.58.06zM208 1110.04c2.26-1.95 5.19.2 4.91 2.94-.83.39-2.5 1.17-3.34 1.56-1.49-.93-3.33-2.88-1.57-4.5zM416.41 1126.67c2.26.19 4.63.12 6.81.9 2.63 1.06 1.59 5.62-1.16 5.73-1.91.29-3.84.33-5.75.48.01-2.39.05-4.75.1-7.11zM621.28 1133.94c.76-1.32 1.96-2.28 3.05-3.3.13 2.36.13 4.74-.03 7.12-1.16-1.16-2.4-2.3-3.02-3.82zM66.41 1139.6c-.82-4.05 4.4-3.28 6.86-3.13-.03 3.31-4.7 6.92-6.86 3.13zM416.36 1136.6c2.42.17 4.94-.09 7.3.64 2.09 1.15 2.32 4.51.64 6.14-2.4 1.29-5.28.72-7.88.95-.01-2.58-.03-5.16-.06-7.73zM626.83 1148.38a79.87 79.87 0 0 1-.06-7.09c1.34 1.23 3.67 2.34 2.98 4.6.07 1.52-1.97 1.7-2.92 2.49zM384.3 1178.46c28.23-.06 56.48-.23 84.71-.44 7.67.05 14.39 6.44 15.67 13.86.88 6.67.24 13.43.46 20.14-.13 5.12.87 10.68-1.77 15.37-2.84 5.64-8.95 9.35-15.26 9.28-49.04-.02-98.08.71-147.12.76-5.9-.16-12.2.94-17.7-1.77-5.9-2.75-9.39-9.28-9.51-15.64-.15-8.02-.21-16.04-.19-24.05-.01-7.04 4.77-13.85 11.43-16.15 4.16-1.62 8.69-1.04 13.05-1.1 22.07-.1 44.15-.18 66.23-.26m-35.49 22.25c.05 4.14-.21 8.3.1 12.45.79 2.04 3.39 1.12 5.07 1.44 24.13-.02 48.27.55 72.38.08.18-4.65.05-9.29.01-13.93-.99-.02-2.95-.05-3.93-.07.04 3.3.05 6.6.09 9.91-23.34.04-46.69-.13-70.03-.13.02-3.27.03-6.52-.01-9.77-.92.01-2.76.01-3.68.02zM599.29 1178.51c12.58-.16 25.16-.11 37.75-.18 8.91-.62 16.87 7.25 17.56 15.93.32 7.59.07 15.2.26 22.81.49 8.91-6.64 17.95-15.86 18.08-11.33.3-22.66.1-33.99.24-3.46.03-7.05.15-10.32-1.15-6.79-2.41-11.22-9.56-11.13-16.65-.02-7.5-.23-15-.09-22.5.33-8.41 7.43-15.86 15.82-16.58m20.05 16.03c-3.2 5.29-6.53 10.51-9.74 15.8 1.38.16 2.77.33 4.17.5-.02 2.37-.01 4.75.02 7.15 3.7.16 7.41.12 11.12.13-.07-2.53-.2-5.04-.35-7.53 1.44.01 2.89.02 4.35.02-2.83-5.56-6.29-10.77-9.57-16.07zM512.34 1179.49c3.42-1.16 7.08-.77 10.64-.83 10.65.12 21.3-.25 31.95-.09 9.1 0 16.34 8.73 16.43 17.48.08 5.33-.03 10.67.06 16.01 0 4.58.38 9.44-1.74 13.69-2.54 5.65-8.36 9.84-14.65 9.81-12.71-.08-25.42.2-38.12.14-9.28.15-16.89-8.71-16.77-17.69.03-7.03.06-14.06-.05-21.09-.43-7.7 5.05-15 12.25-17.43m.48 25.49c1.8 2.34 4.98 2.84 7.06 4.88-1.32 3.06-4.77 1.3-7.19 1.24l.12 2.06c2.99 1.66 7.75 1.5 9.02-2.23 1.01-4.12-4.06-5.05-6.52-6.95.59-.73 1.19-1.44 1.83-2.11 1.55.32 3.13.65 4.72.85-1.06-5.47-10.93-2.75-9.04 2.26m10.49-5.48c1.24 4.94 4.12 9.43 4.66 14.55-.12 2.22-2.3 3.04-3.99 3.91.24.45.72 1.36.96 1.81 2.05-.68 4.23-1.64 4.96-3.87 2.04-5.39 4.3-10.74 5.76-16.32-.65.24-1.96.73-2.62.97-1.53 3.18-2.24 6.68-3.29 10.04-1.35-3.36-2.27-6.9-3.91-10.12-.63-.24-1.9-.73-2.53-.97m14.63 1.28c-.21 4.23-.16 8.49.04 12.72.58.27 1.74.8 2.32 1.07.63-4.43-1.52-10.11 2.9-13.11 1.04.97 2.89 1.65 2.71 3.42.28 3.08.16 6.18.27 9.29.58-.06 1.73-.16 2.31-.22.08-3-.03-6.01.23-8.99.07-2.35 3.44-4.08 4.76-1.56 1.22 3.31.32 6.94.75 10.38.58.19 1.73.58 2.31.77-.03-4.01.58-8.13-.3-12.05-1.41-3.51-5.9-3.31-8.15-.75-2.08-2.63-5.41-2.19-7.81-.29l-.12-2.01-2.22 1.33zM220.5 1180.85c13.13-.84 26.36-.3 39.53-.58 6.42-.43 13.06 2.9 16.04 8.71 3.17 5.82 2.04 12.67 2.25 19.02-.12 4.99.36 10.02-.26 15-1.19 8.06-8.92 14.3-17.01 14.1-12.33.03-24.65.15-36.98.18-9.17.22-16.51-8.45-16.67-17.24-.15-7.36-.07-14.73-.02-22.08-.18-7.77 5.42-15.48 13.12-17.11m4.88 8.63c-2.99 2.74-2.51 7.5-1.69 11.1.91 3.87 7.1 4.54 8.86 1.02 1.5-3.18 1.46-7.1.17-10.32-1.07-2.87-5.07-3.88-7.34-1.8m17.98 8.97c-2.66 1.02-2.44 4.21-2.47 6.55.1 2.53-.22 5.22.71 7.65 1.57 2.94 6.29 2.39 7.39-.68.71-3.61.54-7.38.14-11.01-.54-2.52-3.61-3.43-5.77-2.51m-5.16 16.23c1.34 2.76 4.8 3.15 6.72 5.38-1.79.11-3.58.26-5.37.4.03.49.07 1.46.1 1.94 3.91.12 7.84.13 11.76.08-.06-.78-.11-1.54-.16-2.28-1.7-.04-3.39-.09-5.08-.15 1.54-2.19 4.5-2.73 5.89-5.03 1.57-2.61 1.18-5.79 1.03-8.67-3.3 1.48-1.25 5.87-3.56 8.2-2.31 3.48-8.06 2.03-9.64-1.44-.73-2.3-.83-4.76-1.49-7.06-1.62 2.55-1.76 6-.2 8.63zM135.38 1181.54c13.12-1.45 26.43-.37 39.63-.86 8.04-.8 15.51 5.35 17.58 12.9 1 5.73.39 11.6.62 17.4-.11 5.04.67 10.3-1.06 15.16-2.41 6.17-8.4 11.16-15.2 11.2-12.31.09-24.63.19-36.94.3-6.35.08-12.36-4-15.22-9.55-2.4-4.68-1.54-10.09-1.69-15.14.12-6.28-.8-12.65.45-18.87 1.24-5.94 6.11-10.76 11.83-12.54m10.14 28.72c.32.21.95.65 1.26.86.69-.01 2.07-.04 2.76-.06.01 2.43.02 4.87.07 7.31 3.73.04 7.46.04 11.19-.02-.06-2.43-.17-4.85-.27-7.25 1.35-.02 2.7-.03 4.05-.02-2.74-5.58-6.13-10.82-9.44-16.07-3.17 5.11-6.3 10.23-9.62 15.25z"/><path d="M227.22 1191.14c1.5-1.77 3.3.44 3.58 1.98.62 2.86 1.1 6.86-1.82 8.66-2-.04-3.35-1.81-3.35-3.71-.12-2.35-.46-5.29 1.59-6.93zM612.66 1209.06c2.15-3.72 4.37-7.4 6.68-11.02 2.23 3.38 4.34 6.84 6.37 10.36-4.05.67-2.58 5.07-2.89 7.9-2.39-.03-4.77-.05-7.14-.06-.05-2.37-.1-4.72-.11-7.06l-2.91-.12zM148.56 1209.36c2.06-3.76 4.31-7.4 6.61-11.02 2.17 3.65 4.46 7.24 6.5 10.97-.7.15-2.1.45-2.8.59-.07 2.23-.07 4.47-.06 6.72-2.43 0-4.86-.01-7.29-.01a414.8 414.8 0 0 0-.15-7.09l-2.81-.16z"/></g></svg>