<svg version="1.2" xmlns="http://www.w3.org/2000/svg" viewBox="0 0 879 1216" width="879" height="1216"><style>.a{fill:#fff}.b{fill:#c9a746}.c{fill:#21211f}.d{fill:#010101}.e{fill:#3b7cb7}</style><path class="a" d="m638.4 593.6c8.1-0.1 16.3-0.2 24.4-0.1 16.3 0.7 30.3 15.2 30.9 31.4q0.7 66.1 0.8 132.1c0.3 31-0.1 62 0.7 93 0 46 0.4 92 0.6 138-0.1 8.7 1 17.8-2.8 25.8-4.7 11.2-15.9 19.2-27.9 19.9-56.1 0.6-112.1 0.8-168.1 1.1-64.7 0.8-129.3 0.8-194 1.5-9.6-0.3-20 1.5-28.7-3.5-10.9-5.3-18.3-16.8-18.6-28.9-0.4-104.3-1.2-208.6-1.6-312.9-0.3-20.4-0.3-40.7-0.4-61-0.1-7.9 2.6-15.7 7.6-21.8 5.8-7.7 15.2-12.1 24.8-12.5 117.4-0.9 234.9-1.5 352.3-2.1z"/><path class="b" d="m662.9 19.9c7.2-2.3 14.7-3.5 22.2-4.2 15.2-1 30.9-0.9 45.6 3.7 2.1 0.7 3.4 2.7 4.8 4.3-0.3 4.6-0.2 9.2 0 13.8 1.7 1.5 3.7 3 5 4.9 0.3 2.2-1.3 4-2.2 5.9 1.6 1.6 4.6 2.7 4.5 5.4-1.4 1.6-3.2 2.7-4.9 3.9 1.5 1.8 3.3 3.5 4.8 5.4 0.5 3-3.2 4.3-5 6 1.8 2 5.8 3.4 5 6.7-1.2 1.8-3.3 2.9-5 4.3 2.6 1.4 5.2 3.1 6.3 6.1q-3 2.2-6.1 4.3c2 1.7 5.3 2.8 6 5.6-0.6 2.9-4.1 3.7-6.2 5.3 2 1.3 4 2.6 5.8 4.1 1.5 3.5-3.1 4.9-5.3 6.6 2.7 1.4 5.1 3.4 6.6 6q-2.7 2.9-5.9 5.2c6.9 3.5 14.7 4.6 21.4 8.5 0.4 5.8 0.4 11.6 0.5 17.4 1.2 0.3 2.9-0.3 4 0.7-10.3-0.2-20.5-1.6-30.8-1.4-33.2-0.8-66.4 0.8-99.5 2.9 0.2-6.1-0.5-12.4 0.4-18.5 2.2-5.2 8.7-5.3 13.1-7.8 2.9-1.8 6.4-3.4 8.6-6-0.6-2.7-7.8-2.7-6.2-6.7 2-1.7 4.4-2.8 6.6-4.4-1.9-2.2-5.5-2.5-7-5 0.6-3.2 4.7-3.9 6.9-5.9-2.7-1.5-5.3-3.1-7.8-4.9 1.7-2.5 4.4-3.9 6.9-5.4-1.5-2.7-6.5-3-6.4-6.5 1.5-2.1 4.3-3 6.5-4.3-2-1.4-4.2-2.6-5.9-4.2-1.7-1.1-0.2-2.8 0.9-3.6 1.3-1.2 2.8-2.2 4.3-3.2-2-1.5-4.5-2.7-5.9-4.9-0.2-3 3.5-3.7 5.2-5.5-0.5-2.7-5.7-2.9-5.3-6.1 1-2.2 3.5-3.3 5.4-4.7-0.6-1.2-1.2-2.4-1.5-3.7-0.6-2.6 2.2-3.9 3.1-6.1 0.5-3.2 0-6.6 0.6-9.9 0.9-2.4 3.8-3.2 5.9-4.1z"/><path class="c" d="m634.5 151.3c33.1-2.1 66.3-3.8 99.5-2.9 10.3-0.2 20.5 1.2 30.8 1.4 12.5 1.1 25 2.6 37.4 5 5.9 1.7 12.5 3.5 16.5 8.6 1.9 3 3.6 6.4 3.4 10q-0.8 4.5-1.1 8.9c-7.8-3.8-16.2-6.5-24.9-6.9-12.4-0.3-24.7 0.3-37.1 0.2-54.7 0-109.4 0.9-164 0.8-7.2-0.3-14.3 0.7-21.4 0.2 0.3-5.1 1.2-11 5.5-14.5 7.1-6.1 17.1-6.7 26-7.8 9.8-1 19.6-2.5 29.4-3z"/><path class="c" d="m422.1 164.5c18.9-1.6 38-1.9 56.9 0.4 3.8 0.6 8.3 0.8 11.1 4 2.2 2.2 2.3 5.4 2.4 8.3-23.5-0.2-47 0.3-70.5 0.1-6.4 0-12.7 0.3-19.1 0.4 0.1-4 1.5-8.4 5.3-10.3 4.4-2.1 9.2-2.4 13.9-2.9z"/><path class="c" d="m550 186.2q119.5-0.5 239-1.4c14.8-0.4 30.1 4.9 40.2 16 9.9 9.7 15.7 23.3 16.1 37.2 0.2 22.3-0.2 44.6 0.5 67 0.1 27.6 0.1 55.3 0.4 83 0.7 37 0.3 74 0.5 111-0.1 25 0.2 50.1 0.2 75.1-6.4 0.6-12.8 0-19.2 0.7-0.4-8.9 0.6-17.9-1-26.7-2.6-15.9-8.8-31.3-19.1-43.8-12.2-15.7-30.4-26.8-49.8-30.9-12.1-2.7-24.6-1.6-36.8-1.8-54.3 0-108.7 0.9-163 0.8-21.3-0.1-42.7 0.4-64 0.5-50.7 0.2-101.4 0.9-152 0.9-61.7 0.5-123.4 1-185 1.2-9 0.1-18.1-0.2-27 1.3-16 2.4-31.2 9.6-43.6 20.1-16.1 13.8-26.4 33.8-29.6 54.7-1.6 9.2-1.1 18.5-1.1 27.8-6.6 0.1-13.3-0.1-19.9 0.1q-0.2-41.5-0.2-83c0.1-8.3-0.6-16.8 1.7-24.9 2.6-11.2 9.8-20.9 18.6-28 5.3-4.5 11.8-7.2 18.4-8.7 10.8-2 21.8-1 32.7-1.5 24.7-0.1 49.3-0.2 74-0.3 35.4-0.6 70.7-0.4 106.1-0.9 13.5-0.6 26.8-4.5 38.5-11 15.9-9.8 24.5-28.4 25-46.7 0.2-23.7 0.9-47.4 0.8-71 0.4-20.7 0.9-41.4 1-62-0.2-14.4 5.5-28.8 15.2-39.4 5.6-6.1 13.5-9.2 21.1-11.9 9.7-3.4 20.1-2.8 30.2-2.6 43.7-0.8 87.4-0.1 131.1-0.9zm47.3 19.3q-4.2 0.1-8.3 0.1c-55.7 0-111.4 0.8-167 0.9-5.9 0.2-12.2 0.6-17 4.4-6.1 4.3-9.4 11.7-9.7 19.1-0.3 58.7 1 117.4 1.1 176.1 0.2 6.8-0.6 13.9 2 20.5 2.2 6.4 7.2 12 13.6 14.5 5.4 2.3 11.3 1.5 17 1.7 51.7 0.1 103.3-0.5 155-0.5 64.7-0.3 129.4-0.8 194-0.7 9.1 0.2 18.7-4.5 22.5-13 2.6-4.8 3-10.3 2.9-15.7-0.2-60.3-0.3-120.6-0.7-180.9 0.1-6.2-1.1-12.8-4.9-17.9-4.4-5.8-11.4-9.7-18.8-9.5-60.6-0.1-121.1 0.4-181.7 0.9z"/><path class="c" d="m722.2 209.4c14.3-0.3 28.5-0.3 42.8-0.3 6.1 0 12.3-0.7 18.3 0.5 8.8 2.4 14.9 11.4 14.8 20.3 0 23.1 0.6 46.1 0.5 69.2 0.1 28.6-0.1 57.3 0.3 85.9 0 11 0.4 22-0.1 33.1-0.6 10.1-9.6 19-19.8 19-59-0.2-118 0.4-177 0.3-21.3-0.2-42.7 0.6-64 0.5-38.7 0.2-77.3 0.5-116 0.5-7.7 0-15.8-4.3-18.8-11.7-3-6.5-1.9-13.8-2.1-20.7-0.2-17.7 0.1-35.4-0.7-53 0.3-40-0.6-80-0.8-120-0.3-7.2 3.3-14.1 8.8-18.6 3.6-2.7 8.2-3.3 12.6-3.3 26.7-0.1 53.3-0.4 80-0.7 54.7 0.1 109.3-0.4 164-0.8 19.1 0 38.1 0.1 57.2-0.2zm21.1 15c-48.4 0.4-96.9 0.3-145.3 0.8-54.7 0.5-109.3 0.3-164 0.9-4.6 0.1-9.6-0.4-13.6 2.2-3.7 2.2-5.9 6.4-5.8 10.7 0.2 32 0.1 64 0.4 96 0.4 22.3 0.1 44.7 0.8 67.1 0.1 4.6-0.5 9.8 2.1 13.9 2.4 4.3 7.5 6.2 12.1 6.1 81.7-0.5 163.4-1 245-1.4 29-0.4 58-0.4 87-0.5 4.8-0.2 10.1 0.6 14.6-1.7 4.2-2.6 6.9-7.6 6.5-12.6-0.4-42.6-0.6-85.3-0.5-127.9-0.3-12.3-0.6-24.7-0.4-37.1 0-3.2 0.1-6.7-1.5-9.6-2.6-4.9-8.4-7.5-13.7-7.2-7.9 0.1-15.8 0.1-23.7 0.3z"/><path class="c" d="m202.4 405.9c19.2-0.4 38.4 0.2 57.6 0.9 8.4 0.8 16.9 0.5 25.1 2.1 2.7 0.6 5.5 2.6 5.8 5.5q-0.3 3.9-0.8 7.9c-49.3-0.2-98.6 1-148 1 0.2-3.5-1-7.8 1.9-10.4 3.4-3.4 8.4-3.7 12.8-4.3 7.6-0.6 15.1-1.5 22.7-1.5 6.5 0.8 13 0.8 19.5 0.5q1.7-0.1 2.9-1.3z"/><path class="c" d="m672.4 481.5c21.6-0.3 43.1-0.2 64.6-0.3 19.4-0.4 39.3 5.9 53.6 19.2 17.9 15.4 27.9 39.1 27.4 62.6q0.6 107.5 1.2 215c0.3 26-0.1 52 0.5 78 0.1 50.6 0.8 101.3 0.7 151.9-0.2 14.1 0.5 28.1 0.3 42.1-0.2 10.4 0.9 21-1.3 31.3-4.8 25.2-23.2 48.2-48 56.2-12.9 4.8-26.9 3.6-40.4 3.8-28.3-0.1-56.7 0.5-85 0.7-53.3 0.2-106.7 0.7-160 1.2-11-0.1-22 0.1-33 0.4-55-0.2-110 0.8-165.1 0.8-49.3 0.6-98.6 1.1-147.9 1.1-12.3 0.4-24.7-3.1-35.3-9.2-18.4-11.4-31.6-30.7-35.2-52-1.7-10.3-1.1-20.8-1.5-31.2-0.3-19.4-0.2-38.8-0.3-58.1 0.1-14.7-0.7-29.4-0.5-44 0.3-28.7-0.6-57.3-0.4-86-0.2-49.3-0.7-98.7-0.8-148-0.1-50.7-0.8-101.4-0.7-152-0.3-12.3 3.3-24.4 8.2-35.6 9.9-22.1 31.1-38.5 54.8-43 14.1-2.7 28.5-1.4 42.7-1.7 167.2-1.3 334.3-2.2 501.4-3.2zm73.9 20c-10.7 1-20.8 7.1-26.6 16.1-5.5 9-7.3 20.4-3.7 30.3 2 6.6 6.5 12.1 11.8 16.4 9.2 7.3 22 8.9 33.1 5.4 15.7-5.1 26-22.5 22.8-38.7-1.9-17.7-19.9-31.4-37.4-29.5zm-556 3.9c-9.7 1.7-18.5 8-23.3 16.6-6.1 10.1-6.3 23.5-1 34 3.2 6.7 9.2 11.8 15.7 15.2 15.2 7.4 35.3 2.2 44.6-12 10.5-14.6 6.7-37.1-7.9-47.6-7.8-6.4-18.4-8.2-28.1-6.2zm448.1 88.2c-117.4 0.6-234.9 1.2-352.3 2.1-9.6 0.4-19 4.8-24.8 12.5-5 6.1-7.7 13.9-7.6 21.8 0.1 20.3 0.1 40.6 0.4 61 0.4 104.3 1.2 208.6 1.6 312.9 0.3 12.1 7.7 23.6 18.6 28.9 8.7 5 19.1 3.2 28.7 3.5 64.7-0.7 129.3-0.7 194-1.5 56-0.3 112.1-0.5 168.1-1.1 12-0.7 23.2-8.7 27.9-19.9 3.8-8 2.7-17.1 2.8-25.8-0.2-46-0.6-92-0.6-138-0.8-31-0.4-62-0.7-93q-0.1-66-0.8-132.1c-0.6-16.1-14.6-30.7-30.9-31.4-8.1-0.1-16.3 0-24.4 0.1zm-531.4 32.4c-0.3 21 0.2 41.9 0.2 62.8q5.8 0 11.5-0.1c0.3-16.7 0.1-33.3 0.1-50 13-0.3 26.1 0.1 39.2-0.2 10.7-0.5 21.4-0.2 32.2-0.5q0.2-6.1-0.2-12.3c-27.6-0.1-55.3 0.5-83 0.3zm0.2 74.3q0.1 6.4 0 12.8c7.9 0.5 15.9 0 23.8 0.1 19.9-0.1 39.8-0.3 59.7-0.5q0-6.2 0.1-12.5c-27.9 0.2-55.7 0.2-83.6 0.1zm0.1 25.9c0 20.3 0.2 40.5 0 60.8 4 0.6 7.9 0.6 11.9 0.2 0.4-16.3-0.1-32.6-0.1-48.9 23.9 0 47.8-0.5 71.7-0.4q0.1-6.3-0.1-12.5c-27.8 0.2-55.6-0.6-83.4 0.8zm38.2 99.1c-2 1.2-4.4 1-6.5 1.1-10.3-0.1-20.6 0.1-30.9-0.1-0.4 4.1-0.4 8.3-0.1 12.5q16.5 0 33.1-0.2c5.4-0.2 9.2 4.3 13.6 6.6 12.4 7.3 24.1 15.6 36.5 22.9-0.1-4.9 1.1-10.1-0.6-14.7-11.2-7.5-23.6-13.3-34.7-21.1 8.4-4.6 16.3-10.2 24.7-14.8 3.5-2.2 7.3-3.8 10.4-6.6 0.4-4.7 0-9.5-0.1-14.3-15.4 9.1-30.3 19.1-45.4 28.7zm-3.8 50.3c-11.2 1.4-22.3 6.9-28.4 16.7-5.2 7.4-6.4 16.8-5.3 25.7 0.7 8.6 4.6 16.5 9.3 23.6 1.5 1.9 3 4.6 5.7 4.6 10 0.3 20 0 30-0.3 0.5-11-0.5-21.9-0.3-32.9q-5.8 0-11.6 0.2c-0.4 6.8 0 13.7-0.2 20.5-3.9 0.1-7.9 0.4-11.9 0-2.2-0.3-3.5-2.4-4.7-4.1-4.3-6.9-6.2-15.6-4-23.5 1.6-6.4 6.4-11.6 12-14.9 7.9-3.8 17.1-4 25.8-3 8 1 16.1 5.3 20.2 12.4 3.1 7.3 4 16.5 0 23.7-2.6 4.8-8.1 6.6-12.1 9.8 0.6 3.7 2 7.2 2.9 10.9 8.2-1.7 15.9-6.5 19.8-14.1 4.1-8.7 4.4-18.9 2.5-28.2-2.3-10.7-10.6-19.3-20.5-23.6-9-4.2-19.4-4.6-29.2-3.5zm0.6 79.9c-7.2 1-14.4 3.2-20.3 7.6-15.2 10.9-18.5 34-8.3 49.3 4 6.4 10.5 10.9 17.6 13.4 9.1 3.7 19.3 3.8 28.9 2.6 12-1.9 24.1-8.6 29.1-20.1 7.1-15.2 3.6-36-11-45.5-10.3-7.7-23.7-8.9-36-7.3zm604.2 99.1c-11.8 2.4-22.6 10.8-26.7 22.3-7.2 16.4 1.5 37.5 17.8 44.6 8.4 4.2 18.5 4.4 27.3 1.3 8.5-3.3 15.8-9.8 19.7-18.2 7.1-14.3 2.6-33.3-10.2-42.9-7.7-6.4-18.2-8.6-27.9-7.1zm-552.2 3.8c-10.2 1.7-19.5 8.3-24.5 17.4-5 7.9-5.7 17.9-3.4 26.8 2.8 10.1 10.4 18.6 19.9 22.9 13.8 5.8 31.1 2 40.8-9.4 8.8-9.9 10.8-24.9 5.7-37-6-14.7-22.9-23.8-38.5-20.7z"/><path class="c" d="m746.3 516.5c5.1-0.7 10.5 0.5 14.7 3.6 4.1 2.7 6.4 7.4 7.8 11.9 3.2 11.7-7 24.5-18.9 24.6-8.7 0.4-17-5.6-19.7-13.9-4.1-11.2 4.2-24.8 16.1-26.2z"/><path class="c" d="m196.4 519.5c12.4-1.2 23.1 11.5 20.5 23.5-1.4 5.4-4.2 10.8-9.1 13.8-6 3.8-13.9 3.7-20.2 0.6-10.2-4.8-13.6-19.1-7.5-28.3 3.2-5.8 9.7-9.3 16.3-9.6z"/><path class="c" d="m830.8 579.9c5.4-0.4 10.8-0.5 16.2 0.1-0.3 12.4 0.4 24.8 0.1 37.2q-8 0.5-16.1 0.1c-0.4-12.5-0.3-25-0.2-37.4z"/><path class="c" d="m35.9 583.9c5.7 0 11.5 0 17.2-0.1 0.2 12.7 0.4 25.4 0.1 38.1-5.8 0.2-11.7 0.2-17.5 0.1-0.2-12.7-0.2-25.4 0.2-38.1z"/><path class="c" d="m828 622.4c6.4 0.5 12.8 0.1 19.1 0.3 0.4 14.4-0.2 28.9 0.4 43.3 0.1 87.7 1.2 175.3 1.7 263 0 23.4 0.4 46.9 0 70.3-6.3 0.2-12.7-0.3-19.1 0.6 0-53-0.8-105.9-0.9-158.9 0-22.6 0-45.3-0.2-67.9-0.6-35.4-0.3-70.7-0.5-106.1-0.4-14.8-0.6-29.7-0.5-44.6z"/><path class="c" d="m36.1 627.1c6.7 0.1 13.3-0.1 20-0.3 0.3 104.7 1.2 209.4 1.6 314.2 0.2 21.2 0.3 42.4 0.2 63.6-6.7-0.5-13.3 0-20-0.3-0.6-39.5 0.2-78.9-0.6-118.3-0.4-54-0.1-108-0.6-162 0-32.3-0.5-64.6-0.6-96.9z"/><path class="c" d="m140.4 968.4c10.9-1.6 23.6-1.8 32.5 5.7 9.8 7.6 11 23.5 3 32.8-5.4 6.9-14.6 8.9-22.9 9.4-9.5 0.5-20.1-1.3-27.1-8.3-6.3-6.6-8-17.1-4.3-25.4 3.5-7.4 10.7-12.9 18.8-14.2z"/><path class="c" d="m833.3 1005c5.3-0.6 10.7-0.4 16.1-0.4 0.9 12.5 0.2 25 0.6 37.5-5.6 0.2-11.2 0.3-16.8 0 0.1-12.4 0-24.7 0.1-37.1z"/><path class="c" d="m37.8 1009.7c6-0.2 12.1-0.5 18.1 0.2 0.4 7.4-0.2 14.8 0.1 22.1-0.1 5 0.6 10 0 15-5.8 1.5-12.1 0.1-18.1 0.8-0.4-12.7-0.1-25.4-0.1-38.1z"/><path class="c" d="m830.2 1047.1c6.5 0.9 13 0.2 19.6 0.7 0.1 25.4 0.3 50.8 0.5 76.2 0.1 17.4-7.8 35-22.4 44.8-8.5 6.6-19.2 9.6-29.8 9.8-47.7 0.3-95.4 0.6-143 1-54.7 0-109.4 1.2-164.1 1.1-53.7 0.6-107.4 0.7-161 1.2-49 0.7-98 0.7-147 1.1-30.4 0.4-60.7 0.4-91 0.5-5.7 0-11.5 0-17-1.6-14.6-4.1-26.8-15.4-32.4-29.5-3.3-7.6-4.3-16.1-4.2-24.4 0-25-0.1-50-0.2-75 6.8-0.3 13.7-0.2 20.5-0.8-0.1 15.3-0.9 31.1 4.3 45.8 7.7 24.5 27.3 45 51.7 53.4 14.9 4.9 30.8 3.8 46.3 3.8 25.3-0.5 50.7-0.2 76-0.8 25.3 0 50.7-0.1 76-0.5 28.7-0.2 57.3 0 86-0.6 29.3-0.2 58.6 0 88-0.8 49.6-0.1 99.3-0.7 149-0.9 30.6 0.1 61.3-0.7 92-0.8 9.1-0.2 18.2 0.2 27.3-0.3 15.9-0.9 31.3-7.5 43.8-17.4 14.8-11.9 25.1-29 29.4-47.5 2.7-12.7 1.5-25.7 1.7-38.5z"/><path class="c" d="m748.3 1069.5c5.3-1.1 10.9-0.1 15.4 2.7 7.2 4.4 10.7 13.8 8.5 21.9-1.4 5.1-4.4 10.2-9.2 12.8-7.6 4.1-18.1 3.7-24.4-2.6-6.7-6.1-7.9-16.7-3.8-24.6 2.8-5.1 7.8-9.1 13.5-10.2z"/><path class="c" d="m194.3 1073.5c4.2-1.3 8.8-1.2 13 0.2 6.9 2.4 12 9 13.1 16.2 1.1 6.4-1.1 13.3-5.9 17.7-4.5 3.9-10.6 6.1-16.5 5.4-6.4-0.9-12.6-4.6-15.6-10.5-2.4-5-2.7-11-1.2-16.3 1.9-6.1 7.2-10.7 13.1-12.7z"/><path class="c" d="m728 1188.6c17.3-0.4 34.7-0.3 52-0.4 9.5 0.1 19-0.6 28.4 0.3-3 2.9-7.4 3.5-11.3 4.2-13.3 2.1-26.7 2.1-40.1 2.4-16 0.2-32.1 0-48.1-1.8-3.1-0.5-6.5-0.5-9.1-2.3 0-0.5 0.1-1.6 0.2-2.1 9.3-0.5 18.6-0.1 28-0.3z"/><path class="c" d="m155.1 1192.8c21.6-0.1 43.2-0.5 64.9-0.4 11.2 0.1 22.4-0.6 33.6 0.3-1.7 1.9-4.1 2.9-6.5 3.4-13.5 2.5-27.4 2.1-41.1 2.3-15 0.4-30 0.5-45-0.3-6.4-0.3-13.2-0.7-19.1-3.7 4.1-2 8.7-1.6 13.2-1.6z"/><path class="d" d="m821 182.3q0.3-4.4 1.1-8.9c0.3 3.3 0.3 6.6 0.3 10 19.7 11 32.4 33.1 32.5 55.7 0.5 23.3 0.2 46.6 0.5 69.9 0.1 89.7 1.1 179.3 1.2 269 0.7 177 2.1 354 3.1 531-0.2 10.7 1 21.6-1.9 32.1-4.8 19.2-19 36.1-37.8 42.9-3.7 1.8-8.4 1.6-11.6 4.5-9.4-0.9-18.9-0.2-28.4-0.3-17.3 0.1-34.7 0-52 0.4-9.4 0.2-18.7-0.2-28 0.3-0.1 0.5-0.2 1.6-0.3 2.1q-1-1.2-2-2.3c-113.3 1.1-226.5 1.7-339.7 2.7-31.7 0.3-63.3 0.3-95 0.7-3.1 0.1-6.4-0.4-9.4 0.6-11.2-0.9-22.4-0.2-33.6-0.3-21.7-0.2-43.3 0.3-64.9 0.4-4.5 0-9.1-0.4-13.2 1.6h-0.1c-0.4-0.4-1.3-1.2-1.8-1.6-17 0.3-34 0.4-51 0.4-15.8 0.2-31.7-6.1-42.7-17.5-11.4-11-16.9-27-17.4-42.6-0.3-78-0.7-156.1-1.3-234.1-0.3-52.6-0.2-105.3-0.8-158-0.3-80.3-0.8-160.7-1.1-241 0.1-7.7-0.4-15.5 0.7-23.1 1.6-14.5 8.8-28.2 19.4-38 8.2-7.3 18.3-12.3 29.1-14.3 7.3-1.4 14.8-1 22.2-1.1 15-0.1 30-0.3 45-0.2 49.4 0 98.7-1.2 148-1q0.5-4 0.8-7.9c0.4 2.5 0.5 5.1 0.8 7.6 8.5-1.7 17.3-3.1 25-7.3 14.2-7.2 23.6-22.8 23.9-38.6 1.5-39 1.3-78 2-117 0.4-12.5-0.7-25.2 2.8-37.2 3.7-14.4 12.9-27.4 25.8-34.8 9.5-5.8 20.6-8.9 31.7-9.4 6.4-0.1 12.7-0.4 19.1-0.4 23.5 0.2 47-0.3 70.5-0.1 27-0.5 54.1-0.5 81.1-0.6 7.1 0.5 14.2-0.5 21.4-0.2 54.6 0.1 109.3-0.8 164-0.8 12.4 0.1 24.7-0.5 37.1-0.2 8.7 0.4 17.1 3.1 24.9 6.9zm-271 3.9c-43.7 0.8-87.4 0.1-131.1 0.8-10.1-0.1-20.5-0.7-30.2 2.7-7.6 2.7-15.5 5.8-21.1 11.9-9.7 10.6-15.4 25-15.2 39.4-0.1 20.6-0.6 41.3-1 62 0.1 23.6-0.6 47.3-0.8 71-0.5 18.2-9.1 36.9-25 46.7-11.7 6.5-25 10.4-38.5 11-35.4 0.5-70.7 0.3-106.1 0.9-24.7 0.1-49.3 0.1-74 0.3-10.9 0.5-21.9-0.5-32.7 1.5-6.6 1.5-13.1 4.2-18.4 8.7-8.8 7.1-16 16.8-18.6 28-2.3 8.1-1.6 16.6-1.7 24.9q0 41.5 0.2 83c6.6-0.2 13.3 0 19.9-0.1 0-9.3-0.5-18.6 1.1-27.8 3.2-20.9 13.5-40.9 29.6-54.7 12.4-10.5 27.6-17.7 43.6-20.1 8.9-1.5 18-1.2 27-1.3 61.6-0.3 123.3-0.7 185-1.2 50.6 0 101.3-0.7 152-0.9 21.3-0.1 42.7-0.6 64-0.5 54.3 0.1 108.7-0.9 163-0.8 12.2 0.2 24.7-0.9 36.8 1.8 19.4 4.1 37.6 15.2 49.8 30.9 10.3 12.5 16.5 27.9 19.1 43.8 1.6 8.8 0.6 17.8 1 26.7 6.4-0.7 12.8-0.1 19.2-0.7 0-25-0.3-50.1-0.2-75.1-0.2-37 0.2-74-0.5-111-0.3-27.7-0.3-55.4-0.4-83-0.7-22.4-0.3-44.7-0.5-67-0.4-13.9-6.2-27.5-16.1-37.3-10.1-11-25.5-16.3-40.2-15.9q-119.5 0.9-239 1.4zm122.4 295.3c-167.1 1-334.2 1.9-501.4 3.2-14.2 0.3-28.6-1-42.7 1.7-23.7 4.5-44.9 20.9-54.8 43-4.9 11.2-8.5 23.3-8.2 35.6-0.1 50.6 0.6 101.3 0.7 152 0 49.3 0.6 98.7 0.8 148-0.2 28.7 0.6 57.3 0.4 86-0.2 14.6 0.6 29.3 0.5 44 0 19.3 0 38.7 0.3 58.1 0.4 10.4-0.2 20.9 1.5 31.2 3.5 21.3 16.8 40.6 35.2 52 10.6 6.1 23 9.6 35.3 9.2 49.3 0 98.6-0.5 147.9-1.1 55.1 0 110.1-1 165.1-0.8 11-0.3 22-0.5 33-0.4 53.3-0.5 106.7-1 160-1.2 28.3-0.2 56.7-0.8 85-0.7 13.5-0.2 27.5 1 40.4-3.8 24.8-8 43.2-31 48-56.2 2.2-10.3 1.1-20.9 1.3-31.3 0.2-14-0.5-28-0.3-42.1 0.1-50.6-0.6-101.3-0.7-151.9-0.6-26-0.2-52-0.5-78q-0.6-107.5-1.2-215c0.5-23.5-9.5-47.2-27.4-62.6-14.3-13.4-34.2-19.6-53.6-19.2-21.5 0.1-43.1 0-64.6 0.3zm158.4 98.4c-0.2 12.4-0.2 24.9 0.2 37.4q8.1 0.4 16.1-0.1c0.3-12.4-0.4-24.8-0.1-37.2-5.4-0.6-10.8-0.5-16.2-0.1zm-794.9 4c-0.4 12.7-0.4 25.4-0.2 38.1 5.8 0.1 11.7 0.1 17.5-0.1 0.3-12.7 0.1-25.4-0.1-38.1-5.7 0.1-11.5 0.1-17.2 0.1zm792.1 38.5c-0.1 14.9 0.1 29.7 0.5 44.6 0.2 35.4-0.1 70.7 0.5 106.1 0.2 22.6 0.2 45.3 0.2 67.9 0.1 53 0.9 105.9 0.9 158.8 6.4-0.8 12.7-0.3 19.1-0.5 0.4-23.4 0-46.9 0-70.3-0.5-87.7-1.6-175.3-1.7-263-0.6-14.4 0-28.9-0.4-43.3-6.3-0.2-12.7 0.2-19.1-0.3zm-791.9 4.7c0.1 32.3 0.6 64.6 0.6 96.9 0.5 54 0.2 108 0.6 162 0.8 39.4 0 78.8 0.6 118.3 6.7 0.3 13.3-0.2 20 0.3 0.1-21.2 0-42.4-0.2-63.6-0.4-104.8-1.3-209.5-1.6-314.2-6.7 0.2-13.3 0.4-20 0.3zm797.1 377.9c0 12.4 0.1 24.7-0.1 37.1 5.7 0.3 11.3 0.2 16.9 0-0.4-12.5 0.3-25-0.6-37.5-5.4 0-10.8-0.2-16.2 0.4zm-795.4 4.7c0 12.7-0.3 25.4 0.1 38.1 6-0.7 12.3 0.7 18.1-0.8 0.6-5-0.1-10 0-15-0.3-7.3 0.3-14.7-0.2-22.1-5.9-0.7-12-0.4-18-0.2zm792.4 37.4c-0.2 12.8 1 25.8-1.7 38.5-4.3 18.5-14.6 35.6-29.4 47.5-12.5 9.9-27.9 16.4-43.8 17.4-9.1 0.5-18.2 0.1-27.3 0.3-30.7 0.1-61.4 0.9-92 0.8-49.7 0.2-99.4 0.8-149 0.9-29.4 0.8-58.7 0.6-88 0.8-28.7 0.5-57.3 0.4-86 0.6-25.3 0.4-50.7 0.5-76 0.5-25.3 0.6-50.7 0.3-76 0.8-15.5 0-31.4 1.1-46.3-3.9-24.4-8.3-44-28.8-51.7-53.3-5.2-14.7-4.4-30.5-4.3-45.8-6.8 0.6-13.7 0.5-20.5 0.8 0.1 25 0.2 50 0.2 75-0.1 8.3 0.9 16.8 4.2 24.4 5.6 14.1 17.8 25.4 32.4 29.5 5.5 1.6 11.3 1.6 17 1.6 30.3-0.1 60.6-0.1 91-0.5 49-0.4 98-0.4 147-1.1 53.6-0.5 107.3-0.6 161-1.2 54.7 0.1 109.4-1.1 164.1-1.1 47.6-0.4 95.3-0.7 143-1 10.6-0.2 21.3-3.2 29.8-9.8 14.6-9.8 22.5-27.4 22.4-44.8-0.2-25.4-0.4-50.8-0.5-76.2-6.6-0.5-13.1 0.2-19.6-0.7z"/><path class="d" d="m597.3 205.5c60.6-0.5 121.1-1 181.7-0.9 7.4-0.2 14.4 3.7 18.8 9.5 3.8 5.1 5 11.7 4.9 17.9 0.4 60.3 0.5 120.6 0.7 180.9 0.1 5.4-0.3 10.9-2.8 15.7-3.9 8.5-13.5 13.2-22.5 13-64.7-0.1-129.4 0.4-194.1 0.7-51.7 0-103.3 0.6-155 0.5-5.7-0.2-11.6 0.6-17-1.7-6.4-2.5-11.4-8.1-13.6-14.5-2.6-6.6-1.8-13.7-2-20.5-0.1-58.7-1.4-117.4-1.1-176.1 0.3-7.4 3.6-14.8 9.7-19.1 4.8-3.8 11.1-4.2 17-4.4 55.7-0.1 111.3-0.9 167-0.9q4.2 0 8.3-0.1zm124.9 3.9c-19 0.3-38.1 0.2-57.2 0.2-54.7 0.4-109.3 0.9-164 0.8-26.6 0.3-53.3 0.6-80 0.7-4.3 0-9 0.6-12.6 3.3-5.5 4.5-9.1 11.4-8.8 18.6 0.2 40 1.1 80 0.8 120 0.8 17.6 0.5 35.3 0.7 53 0.3 6.9-0.9 14.2 2.1 20.7 3 7.4 11.1 11.7 18.8 11.7 38.7 0 77.3-0.3 116-0.5 21.3 0.1 42.7-0.7 64-0.5 59 0.1 118-0.5 177-0.3 10.2 0 19.2-8.9 19.8-19 0.5-11 0.1-22.1 0.1-33.1-0.4-28.6-0.2-57.3-0.3-85.9 0.1-23.1-0.4-46.1-0.5-69.2 0.1-8.9-6-17.9-14.8-20.3-6-1.2-12.2-0.5-18.3-0.5-14.3 0-28.5 0-42.8 0.3z"/><path class="d" d="m743.3 224.4c7.9-0.2 15.8-0.2 23.7-0.3 5.3-0.3 11.1 2.3 13.7 7.2 1.6 2.9 1.5 6.4 1.5 9.6-0.2 12.4 0.1 24.8 0.4 37.1-0.1 42.6 0.1 85.3 0.5 127.9 0.4 5-2.3 10-6.5 12.6-4.5 2.3-9.8 1.5-14.6 1.7-29 0.1-58 0.1-87 0.5-81.6 0.4-163.3 0.9-245 1.4-4.6 0.1-9.7-1.8-12.1-6.1-2.6-4.1-2-9.3-2.1-13.9-0.7-22.4-0.3-44.8-0.8-67.1-0.3-32-0.2-64-0.4-96-0.1-4.3 2.1-8.5 5.8-10.7 4-2.6 9-2.1 13.6-2.2 54.7-0.6 109.3-0.4 164-0.9 48.5-0.5 96.9-0.4 145.3-0.8zm-297 130.2c12.8 0 25.5 0.2 38.2 0.1 0-4.9 0-9.8 0-14.6-7.1-0.8-14.2 0.3-21.3-0.3 0.1-14.4 0.2-28.9 0.1-43.3-5.6 0-11.1 0-16.7-0.2-0.2 19.4-0.2 38.8-0.3 58.3zm45.1 0.2c5.7-0.1 11.3 0.2 17 0-0.1-19.4 0.1-38.8 0-58.2q-8.4 0.1-16.8 0c-0.2 19.4 0 38.8-0.2 58.2zm27.2 0.5c12.9-0.2 25.8 0 38.7 0-0.1-4.9 0-9.8 0.1-14.7-7.3-0.5-14.6-0.1-21.9-0.1-0.3-14.6 0.1-29.2 0.1-43.7-5.6 0-11.2-0.1-16.8 0-0.1 19.5-0.2 39-0.2 58.5zm32.1-58.1c4 8.2 9.3 15.6 13.3 23.8 2.3 4.4 5.6 8.4 7.5 13 0.3 7.2-0.2 14.4 0 21.5q8.4 0 16.9-0.1c0.2-6.1 0.1-12.3 0.2-18.5-0.1-2.8 1.5-5.2 2.7-7.5 6.1-10.7 12.4-21.2 18.4-32q-9.4 0.1-18.8-0.2c-3.5 6.9-6.7 14-10.4 20.8-3.5-6.8-7-13.6-10.2-20.6-6.5-0.3-13.1-0.2-19.6-0.2zm62.6 14.1c-3.5 8.6-3 18.3-1.6 27.3 1.1 7.6 6.6 14.3 14 16.5 11.3 3.5 23.5 2.5 34.7-0.8-0.2-11.2 0.2-22.3-0.1-33.5-8-0.1-16-0.2-23.9-0.2q-0.3 7-0.2 13.9 4.1-0.1 8.3-0.1 0 4.1 0.1 8.2c-4.7 0.3-10.6 0.8-13.7-3.5-2.5-4.3-1.6-9.5-1.8-14.2-0.2-4.6 0.7-10.2 5.5-12.3 7.1-2.6 14.9-0.5 21.9 1.4 0-4.9 0-9.8 0-14.8-7.2-2.5-15-2.1-22.5-1.8-8.8 0.4-17.3 5.7-20.7 13.9zm73.9-13.1c-9.4 1.1-16.1 9.6-17.6 18.6-1.6 10.3-1.7 21.7 3.6 31 4.1 7.3 13 9.6 20.8 9.7 7.9 0.3 17.1-0.5 22.6-6.9 5.6-6.1 6.4-14.8 6.7-22.6 0-9.5-1.8-20.2-9.7-26.3-7.7-5.1-17.6-4.8-26.4-3.5zm51.9 0.8c-10.4 2.2-12.7 16.8-6.1 24 5.9 5.7 16.2 5.7 21.9-0.2 5.2-5.9 4.8-16.2-1.4-21.2-4-3.3-9.5-3.7-14.4-2.6z"/><path class="d" d="m740.4 302.5c3.7-0.5 8.2-0.9 11.2 1.9 3.5 3.1 3.4 8.4 2.6 12.6-2.4 8.9-17.6 9.2-20.4 0.4-1.8-5.6 0-13.6 6.6-14.9zm-2.2 2.2c0 5.3-0.1 10.6 0 15.9q1.7 0 3.4 0 0.4-3 0.9-6c2.5 2.3 3.5 6.6 7.5 6.4-0.3-2.3-1.4-4.4-2.7-6.3 2.8-1.8 3.7-6.9 0.6-8.8-3-1.2-6.4-1-9.7-1.2z"/><path class="d" d="m741.7 308c1.6 0.4 4.2-0.4 4.7 1.8-0.2 0.7-0.7 1.9-0.9 2.6q-1.7 0.1-3.5 0.1c0.1-1.5-0.1-3-0.3-4.5z"/><path class="d" d="m690.4 312.4c4.6-2 11.9-1.8 14 3.6 1.9 5.4 1.3 11.3 1.2 16.9-0.2 3.9-0.9 9.1-5.4 10.2-3.8 0.8-8.4 0.8-11.5-1.8-3.3-4.3-2.3-10.2-2.5-15.2 0-4.7-0.3-10.8 4.2-13.7z"/><path class="d" d="m179.5 407.1c7.4-0.8 14.9-0.8 22.4-0.8q-1.2 1.2-2.9 1.2c-6.5 0.4-13 0.4-19.5-0.4z"/><path class="d" d="m746.3 501.5c17.5-1.9 35.5 11.8 37.4 29.5 3.2 16.2-7.1 33.6-22.8 38.7-11.1 3.5-23.9 1.9-33.1-5.4-5.3-4.3-9.8-9.8-11.8-16.4-3.6-9.9-1.8-21.3 3.7-30.3 5.8-9 15.9-15.1 26.6-16.1zm0 15c-11.9 1.4-20.2 15-16.1 26.2 2.7 8.3 11 14.3 19.7 13.9 11.9-0.1 22.1-12.9 18.9-24.6-1.4-4.5-3.7-9.2-7.8-11.9-4.2-3.1-9.6-4.3-14.7-3.6z"/><path class="d" d="m190.3 505.4c9.7-2 20.3-0.1 28.1 6.3 14.6 10.4 18.4 32.9 7.9 47.5-9.3 14.2-29.4 19.4-44.6 12-6.5-3.4-12.5-8.5-15.8-15.2-5.2-10.5-5.1-23.9 1.1-34 4.8-8.6 13.6-14.9 23.3-16.6zm6.1 14.1c-6.6 0.3-13.1 3.8-16.3 9.6-6.1 9.2-2.7 23.6 7.5 28.3 6.3 3.1 14.2 3.2 20.2-0.6 4.9-3 7.7-8.4 9.1-13.8 2.6-12-8.1-24.7-20.5-23.5z"/><path class="d" d="m107 626c27.7 0.2 55.4-0.4 83-0.3q0.4 6.2 0.2 12.3c-10.8 0.2-21.5 0-32.2 0.5-13.1 0.3-26.2-0.1-39.3 0.2 0.1 16.7 0.3 33.3 0 50q-5.7 0.1-11.5 0c0-20.8-0.5-41.7-0.2-62.7z"/><path class="d" d="m107.2 700.3c27.9 0.1 55.7 0.1 83.5-0.1q0 6.3 0 12.5c-19.9 0.2-39.8 0.4-59.7 0.5-7.9 0-15.9 0.4-23.8-0.1q0.1-6.4 0-12.8z"/><path class="d" d="m107.3 726.2c27.8-1.4 55.6-0.6 83.4-0.8q0.2 6.2 0.1 12.4c-23.9 0-47.8 0.5-71.7 0.5 0 16.3 0.5 32.6 0.1 48.9-4 0.4-7.9 0.4-11.9-0.2 0.2-20.3 0-40.5 0-60.8z"/><path class="d" d="m145.4 825.3c15.2-9.6 30.1-19.6 45.5-28.7 0.1 4.8 0.5 9.6 0.1 14.3-3.1 2.8-6.9 4.4-10.4 6.6-8.4 4.6-16.3 10.2-24.7 14.8 11.1 7.8 23.5 13.6 34.7 21.1 1.6 4.6 0.5 9.8 0.6 14.7-12.4-7.3-24.1-15.6-36.5-22.9-4.4-2.3-8.2-6.8-13.6-6.6q-16.6 0.2-33.1 0.2c-0.4-4.2-0.3-8.4 0.1-12.5 10.3 0.2 20.6 0 30.9 0.1 2.1-0.1 4.5 0.1 6.4-1.1z"/><path class="d" d="m141.7 875.6c9.8-1.1 20.2-0.7 29.2 3.5 9.9 4.3 18.2 12.9 20.5 23.6 1.9 9.3 1.6 19.5-2.5 28.2-3.9 7.6-11.6 12.4-19.8 14.1-0.9-3.7-2.3-7.2-2.9-10.9 4-3.3 9.5-5 12.1-9.8 4-7.2 3.1-16.4 0-23.7-4.1-7.1-12.2-11.4-20.2-12.4-8.7-1-17.9-0.8-25.8 3-5.6 3.3-10.4 8.5-12 14.9-2.2 7.9-0.3 16.6 4 23.5 1.2 1.7 2.5 3.8 4.7 4.1 4 0.4 8 0.1 11.9 0 0.2-6.8-0.2-13.7 0.2-20.5q5.8-0.2 11.6-0.2c-0.2 11 0.8 21.9 0.3 32.9-10 0.2-20 0.6-30 0.3-2.7 0-4.2-2.7-5.7-4.6-4.7-7.1-8.6-15-9.3-23.6-1.1-8.9 0.1-18.3 5.3-25.7 6.1-9.8 17.2-15.3 28.4-16.7z"/><path class="d" d="m142.3 955.5c12.3-1.6 25.7-0.4 35.9 7.3 14.7 9.4 18.2 30.3 11.1 45.5-5 11.5-17.1 18.2-29.1 20.1-9.6 1.2-19.8 1.1-28.9-2.6-7.1-2.5-13.6-7-17.6-13.4-10.2-15.3-6.9-38.4 8.3-49.3 5.9-4.4 13.1-6.6 20.3-7.6zm-1.9 12.9c-8.1 1.3-15.3 6.8-18.8 14.2-3.7 8.3-2 18.8 4.3 25.4 7 7 17.6 8.8 27.1 8.3 8.3-0.5 17.5-2.5 22.9-9.4 8-9.3 6.8-25.2-3-32.8-8.9-7.5-21.6-7.3-32.5-5.7z"/><path class="d" d="m746.5 1054.6c9.7-1.5 20.2 0.7 27.9 7.1 12.8 9.6 17.3 28.6 10.2 42.9-3.9 8.4-11.2 14.9-19.7 18.2-8.8 3.1-18.9 2.9-27.3-1.3-16.3-7.1-25-28.2-17.8-44.6 4.1-11.5 14.9-19.9 26.7-22.3zm1.8 14.9c-5.7 1.1-10.7 5.1-13.5 10.2-4.1 7.9-2.9 18.5 3.8 24.6 6.3 6.3 16.8 6.7 24.4 2.6 4.8-2.6 7.8-7.7 9.2-12.8 2.2-8.1-1.3-17.5-8.5-21.9-4.5-2.8-10.1-3.8-15.4-2.7z"/><path class="d" d="m194.3 1058.4c15.6-3.1 32.4 6 38.5 20.7 5.1 12.1 3.1 27.1-5.7 37-9.8 11.4-27 15.2-40.8 9.4-9.5-4.3-17.1-12.8-19.9-22.9-2.3-8.9-1.6-18.9 3.4-26.8 5-9.1 14.3-15.7 24.5-17.4zm0 15.1c-5.9 2-11.2 6.6-13.1 12.7-1.5 5.3-1.2 11.3 1.2 16.3 3 5.9 9.2 9.6 15.6 10.5 5.9 0.7 12-1.6 16.5-5.4 4.8-4.4 7-11.3 5.9-17.7-1.1-7.2-6.2-13.8-13.1-16.2-4.2-1.4-8.8-1.5-13-0.2z"/><path class="e" d="m446.3 354.6c0.1-19.5 0.1-38.9 0.3-58.3 5.5 0.2 11.1 0.2 16.7 0.2 0.1 14.4 0 28.9-0.1 43.3 7.1 0.6 14.2-0.5 21.3 0.3-0.1 4.8 0 9.7 0 14.6-12.7 0.1-25.4-0.1-38.2-0.1z"/><path class="e" d="m491.4 354.8c0.2-19.4 0-38.8 0.2-58.2q8.4 0.1 16.8 0c0.1 19.4-0.1 38.8 0 58.2-5.7 0.2-11.3-0.1-17 0z"/><path class="e" d="m518.6 355.3c0-19.5 0.1-39 0.2-58.5 5.6-0.1 11.2 0 16.8 0 0 14.5-0.4 29.1-0.1 43.7 7.3 0 14.6-0.4 21.8 0.1 0 4.9-0.1 9.8 0 14.7-12.9 0-25.8-0.2-38.7 0z"/><path class="e" d="m550.7 297.2c6.5 0.1 13.1-0.1 19.6 0.2 3.2 7 6.7 13.8 10.2 20.6 3.7-6.8 6.9-13.9 10.4-20.7q9.4 0.2 18.8 0.1c-6 10.8-12.3 21.3-18.4 32-1.2 2.3-2.8 4.7-2.7 7.5-0.1 6.2 0 12.4-0.2 18.5q-8.5 0.1-16.9 0.1c-0.2-7.1 0.3-14.3 0-21.5-1.9-4.6-5.2-8.6-7.5-13-4.1-8.2-9.3-15.6-13.3-23.8z"/><path class="e" d="m613.3 311.3c3.4-8.2 11.9-13.5 20.7-13.9 7.5-0.3 15.3-0.7 22.5 1.8 0 5 0 9.9 0 14.8-7-1.9-14.8-4-21.9-1.4-4.8 2.1-5.7 7.7-5.5 12.3 0.2 4.7-0.7 9.9 1.8 14.2 3.1 4.3 9 3.8 13.7 3.5q-0.1-4.1-0.1-8.2-4.2 0-8.3 0.1-0.1-6.9 0.2-13.9c7.9 0 15.9 0.1 23.9 0.2 0.3 11.2-0.1 22.3 0.1 33.5-11.2 3.3-23.4 4.3-34.7 0.8-7.4-2.2-12.9-8.9-14-16.5-1.4-9-1.9-18.7 1.6-27.3z"/><path class="e" d="m687.2 298.2c8.8-1.3 18.7-1.6 26.4 3.5 7.9 6.1 9.7 16.8 9.7 26.3-0.3 7.8-1.1 16.5-6.7 22.6-5.5 6.4-14.7 7.2-22.6 6.9-7.8-0.1-16.7-2.4-20.8-9.7-5.3-9.3-5.2-20.7-3.6-31 1.5-9 8.2-17.5 17.6-18.6zm3.2 14.2c-4.5 2.9-4.2 9-4.2 13.7 0.2 5-0.9 10.9 2.5 15.2 3.1 2.6 7.7 2.6 11.5 1.8 4.4-1.1 5.2-6.3 5.4-10.2 0.1-5.6 0.7-11.5-1.3-16.9-2.1-5.4-9.3-5.6-13.9-3.6z"/><path class="e" d="m739.1 299c4.9-1.1 10.4-0.7 14.4 2.6 6.2 5 6.6 15.3 1.4 21.2-5.7 6-16 5.9-21.9 0.2-6.6-7.2-4.3-21.8 6.1-24zm1.2 3.5c-6.5 1.3-8.3 9.3-6.6 14.9 2.9 8.8 18 8.5 20.5-0.4 0.8-4.2 0.9-9.5-2.6-12.6-3-2.8-7.5-2.4-11.3-1.9z"/><path class="e" d="m738.2 304.7c3.3 0.2 6.6 0 9.7 1.2 3.1 1.9 2.2 7-0.6 8.8 1.3 1.9 2.4 4 2.7 6.3-4 0.2-5-4.1-7.5-6.4q-0.5 3-0.9 6-1.7 0-3.4 0c-0.1-5.3 0-10.6 0-15.9zm3.5 3.3c0.2 1.5 0.4 3 0.3 4.5q1.8 0 3.5-0.1c0.2-0.6 0.7-1.9 0.9-2.6-0.5-2.2-3.1-1.3-4.7-1.8z"/></svg>