<svg width="1088" height="1728" viewBox="0 0 816 1296" xmlns="http://www.w3.org/2000/svg"><g fill="#fff"><path d="M368.32 29.49c70.9-.01 141.8-.25 212.7-.23 22.68.13 45.36-.28 68.03.26 12.38-.3 24.88.05 37.03 2.68 33.56 6.62 64.32 27.19 82.32 56.4 11.56 18.29 18.18 39.72 18.5 61.37.44 53.01.11 106.03.29 159.04.19 253.65.48 507.29.73 760.94-.01 21.98 1.56 44.2-2.49 65.95-4.03 20.66-12.27 40.65-24.91 57.55-9.05 11.58-19.92 21.79-32.27 29.78-13.81 8.81-28.62 16.16-44.34 20.87-20.25 6.55-41.06 11.28-62.06 14.72-27.76 4.98-55.81 8.11-83.93 10.14-53.53 4.51-107.29 5.57-160.98 4.61-70.79-2.05-141.96-6.6-211.17-22.51-20.83-5.07-41.93-10.49-60.77-21.07-15.44-8.05-29.35-19.13-40.35-32.66-19.78-23.78-30.16-54.6-31.08-85.36-.92-160.98-1.79-321.97-2.42-482.96-.59-57.31-.69-114.63-.96-171.95-.5-74.03-.84-148.07-1.07-222.11-.49-28.32-.33-56.66-.55-84.99-.63-26.16 8.27-52.42 24.4-72.99 22.63-29.79 59.87-47.03 97.05-47.28 72.77-.15 145.53-.09 218.3-.2m-244.43 9.79c-30.82 6.75-58.96 26.5-74.28 54.29-9.99 16.33-14.41 35.5-14.82 54.5.73 96.33.93 192.67 1.63 289 .2 57.33.52 114.66.87 171.99.32 54.53.33 109.07.92 163.59 21.61.04 43.21-.07 64.81-.02 2.51.41 3.36-2.45 4.68-3.98 6.9-10.03 14.31-19.71 21.41-29.59 1.29-1.42 2.53-4.32 4.8-2.69.34 1.82-1.06 3.2-1.96 4.61-8.31 11.07-16.11 22.52-24.47 33.55-.77 1.13-2.1 1.58-3.43 1.55-21.93-.25-43.88.09-65.82.12v5.54c22.94-.08 45.87.11 68.81-.1 1.32.21 2.33-.56 3.02-1.61 10.97-14.86 22.31-29.46 33.53-44.13a143 143 0 0 1 3.09 1.45c-11.02 13.52-21.11 27.75-31.88 41.47-2.18 2.5-3.82 6.68-7.81 6.23-22.9.13-45.82.16-68.73.06l-.03 5.27c26.25-.19 52.51.07 78.76.03 12.4-17.6 25.56-34.66 38.22-52.08 1.09-1.1 1.77-3.31 3.65-3.1 41.05.02 82.1-.01 123.15-.08 1.38.09 2.87-.17 4.19.4 3.87 5.2 7.06 10.89 10.79 16.21 5.92.09 11.84.03 17.76.08.07.73.22 2.19.29 2.92-6.38.67-12.81.51-19.22.54-4.35-5.23-7.68-11.18-11.52-16.78-41.64.14-83.27.07-124.9.13-13.41 17.6-26.17 35.68-39.64 53.23-1.14 2.04-3.66 1.51-5.6 1.67-25.3.12-50.59.03-75.89.11-.01 15.96.16 31.92.14 47.88 247.63-.01 495.26.07 742.89-.05.04-15.4-.03-30.8.07-46.2-16.46-.14-32.91-.62-49.38-.51-2.94.52-4.14-2.49-5.65-4.35-12.75-16.93-25.14-34.13-37.85-51.09-39.53-.43-79.07-.83-118.6-1.09-1.22-.11-2.56.04-3.17 1.26-3.83 5.25-7.31 10.75-11.35 15.85-6.67.26-13.35.5-20.03.44-.03-1.11-.05-2.21-.06-3.3 6.2-.15 12.4-.32 18.6-.41 4.09-5.38 7.11-11.55 11.58-16.62 3.65-1.24 7.74-.23 11.57-.39 37.67.15 75.34.51 113.01.83 4.19 4.56 7.54 9.79 11.23 14.75 9.04 12.65 18.66 24.89 27.46 37.72 1.12 1.35 2.06 3.6 4.22 3.19 16.11.13 32.23.1 48.34.19.02-1.82.03-3.66.07-5.46-14.47-.12-28.94.11-43.4-.06-10.22-13.21-20.39-26.46-30.59-39.68-1.95-2.69-4.34-5.18-5.43-8.37.55-.15 1.65-.44 2.2-.58 4.15 3.66 6.82 8.68 10.39 12.89 8.13 10.66 16.56 21.09 24.18 32.13 14.2.16 28.41.21 42.61.12 0-1.69 0-3.38.02-5.05-13.33-.1-26.66-.07-39.98-.35-8.72-12.54-17.93-24.74-26.62-37.29-1.54-1.51.13-2.95 1.2-4.04 7.36 10.6 15.27 20.81 22.6 31.43 1.49 2.11 2.83 4.39 4.75 6.17 12.64.88 25.35.44 38.02.7-.03-93.44-.12-186.89-.19-280.33-.46-109.64-.23-219.29-.43-328.94.12-12.4.11-24.96-2.83-37.09-6.8-32.26-28.73-60.53-57.46-76.39-19.19-10.95-41.42-15.77-63.39-15.95-167.66-.08-335.31.43-502.97.69-10.11-.12-20.28.62-30.15 2.97m596.5 813.25c-10.08.03-19.62 8.34-19.96 18.61-.17 12.97-.21 25.94-.07 38.91.14 9.61 7.96 18.39 17.57 19.4 8.02.6 16.11.24 24.16.19 9.29-.12 18.89-6.88 19.77-16.58.55-8.34.1-16.7.23-25.05-.15-6.64.37-13.32-.54-19.91-1.33-8.85-9.87-15.45-18.62-15.62-7.52-.15-15.03-.07-22.54.05m-644.96 1.2c-8.01 2.21-14.61 9.71-14.54 18.22-.06 13-.06 26.01-.01 39.01-.14 10.31 9.02 19.43 19.26 19.56 7.89.05 15.8.14 23.69-.01 9.5-.39 18.1-8.27 18.62-17.88.16-13.21.01-26.43.05-39.64-.04-7.03-3.62-14.22-9.93-17.61-5.59-3.37-12.34-2.5-18.56-2.7-6.19.14-12.54-.68-18.58 1.05m71.03.04c-7.49 2.27-13.49 9.23-13.69 17.2-.24 13.33-.03 26.67-.04 40-.17 7.55 4.75 14.7 11.64 17.62 6.12 2.96 13.07 1.6 19.6 1.9 6.86-.22 14.41 1.13 20.53-2.79 5.69-3.1 9.54-9.25 9.7-15.74.18-11.98.08-23.96.12-35.94.03-3.69-.13-7.47-1.5-10.93-2.54-6.5-8.81-11.34-15.75-12.11-5.01-.52-10.05-.18-15.08-.28-5.18.08-10.52-.57-15.53 1.07m71.93-.15c-7.63 2.23-14.19 9.14-14.14 17.4-.04 13.66-.19 27.33-.01 40.98.48 9.71 9.26 17.39 18.69 18.04 7.01.4 14.04 0 21.05.19 7.31.32 15-2.96 18.88-9.34 2.06-3.21 2.92-7.06 2.85-10.83.01-12.37.05-24.73-.04-37.1-.03-6.83-3.29-13.77-9.27-17.33-6.05-3.92-13.56-2.84-20.39-3.05-5.87.18-11.9-.61-17.62 1.04m71.09.13c-7.86 2.32-13.57 9.98-13.61 18.17-.11 13.03-.03 26.06-.06 39.08-.13 8.1 5.67 15.6 13.36 17.95 6.08 2.02 12.58.96 18.86 1.26 6.27-.11 13.02.74 18.73-2.45 6.22-3.11 10.38-9.78 10.44-16.73.2-10.68.06-21.36.12-32.03-.05-4.65.38-9.49-1.5-13.86-2.5-7.01-9.6-11.7-16.87-12.36-4.97-.41-9.96-.3-14.94-.34-4.86.03-9.84-.19-14.53 1.31m71.02.05c-7.27 2.5-13.16 9.34-13.33 17.22-.16 13-.01 26.01-.02 39.01-.12 6.68 3.26 13.27 8.97 16.82 6.08 4.29 13.86 3.23 20.86 3.35 6.94-.24 14.35.9 20.78-2.37 6.38-2.98 10.45-9.89 10.5-16.87.16-11.99.1-23.98.07-35.97.03-3.62-.39-7.3-1.87-10.62-2.6-6.21-8.73-10.7-15.4-11.44-5.33-.56-10.7-.28-16.05-.32-4.84.13-9.83-.36-14.51 1.19m73.72-.59c-8.51 1.61-15.35 9.25-15.73 17.96-.29 12.95-.04 25.91-.08 38.87-.14 7.83 4.78 15.61 12.15 18.47 6.21 2.4 13 1.4 19.5 1.62 6.92-.04 14.57.63 20.58-3.5 5.62-3.49 8.99-10 8.96-16.57.09-10.69 0-21.38.05-32.07-.02-4 .29-8.11-1.08-11.94-2.01-7.4-9.14-12.64-16.61-13.38-5-.44-10.01-.05-15.01-.08-4.24.1-8.55-.27-12.73.62m69.17.41c-7.46 2.38-13.86 9.21-13.94 17.32-.18 13.31-.09 26.62.01 39.94-.05 7.61 5.31 14.39 11.98 17.58 5.49 2.56 11.72 1.64 17.58 1.84 7.2-.2 15 .97 21.5-2.88 6.33-3.26 10.07-10.37 9.89-17.4.06-12.68.06-25.37 0-38.05-.01-6.06-2.96-12.06-7.97-15.52-4.98-3.79-11.45-4.21-17.47-3.93-7.18.35-14.56-.82-21.58 1.1m71.01-.03c-7.86 2.03-13.95 9.28-14.47 17.41-.49 9.3-.07 18.65-.2 27.97.17 6.97-.93 14.47 2.61 20.83 3.44 6.84 11.2 10.55 18.66 10.39 7.68-.18 15.41.58 23.05-.32 8.91-1.1 16.46-8.95 16.75-18.01.19-12.95.07-25.91.1-38.87.13-7.15-3.59-14.47-10.06-17.79-6.34-3.6-13.88-2.46-20.84-2.61-5.2.16-10.53-.44-15.6 1m69.06.16c-7.75 2.35-13.35 10.06-13.23 18.15-.02 12.7.01 25.39.1 38.09-.14 5.19 1.73 10.48 5.46 14.16 4.45 4.51 10.96 6.58 17.22 6.16 7.71-.29 15.53.64 23.16-.71 8.07-1.93 15.34-9 15.52-17.63.15-13.59.13-27.18.01-40.77.02-6.96-4.45-13.39-10.64-16.35-6.15-3.38-13.36-2.14-20.06-2.35-5.85.22-11.91-.75-17.54 1.25m-207.13 85.63c-9.76.39-18.14 8.86-18.52 18.6-.27 9.67-.04 19.35-.1 29.03.11 5.87-.63 12.02 1.73 17.59 2.7 7.11 10.03 11.92 17.55 12.15 5.34.14 10.68 0 16.02.07 4.65-.04 9.53.27 13.89-1.67 7.13-2.92 12.02-10.4 11.97-18.09.08-12.7.06-25.4 0-38.09.06-9.79-7.97-18.87-17.82-19.57-8.23-.36-16.49-.19-24.72-.02m142.03.07c-9.32.5-17.43 8.29-18.27 17.59-.69 8.95-.14 17.96-.31 26.94.26 7.32-1.04 15.1 2.28 21.94 3.48 7.44 11.98 11.44 19.97 10.96 7.64-.31 15.38.63 22.95-.67 8.67-1.45 15.66-9.32 16-18.11.36-9.69.07-19.39.16-29.08-.16-5.64.62-11.53-1.53-16.89-2.83-7.61-10.64-12.66-18.67-12.81-7.52-.08-15.06-.15-22.58.13m70.04.13c-9.37.83-17.45 8.94-17.73 18.44-.16 12.98.03 25.97.05 38.96-.05 6.78 3.21 13.8 9.42 17 6.27 3.97 13.9 2.6 20.91 2.84 6.59-.24 13.63.97 19.76-2.14 6.4-2.94 10.99-9.54 10.98-16.65.17-13.35.2-26.7.01-40.04-.28-9.64-8.68-17.9-18.24-18.41-8.38-.29-16.79-.35-25.16 0m67.06.14c-6.29 1.77-11.48 6.82-13.69 12.94-1.2 3.97-.98 8.17-1.01 12.27.05 10.36-.03 20.72.06 31.08.09 8.1 5 16.32 12.68 19.32 5.2 2.18 10.95 1.37 16.43 1.52 7.1-.19 14.67.9 21.22-2.51 7.01-3.2 11.37-10.79 11.22-18.41-.03-12.31.01-24.63-.08-36.94-.01-6.8-3.76-13.36-9.47-16.99-6.18-3.95-13.83-3.22-20.82-3.3-5.52.17-11.17-.54-16.54 1.02m-636.23.58c-9.72.41-19.06 8.63-19.03 18.68-.03 13.34-.09 26.69.01 40.03.32 9.7 8.74 18.09 18.4 18.59 8.09.25 16.19.1 24.28.08 9.81-.3 18.6-8.82 18.68-18.74.16-13.22.11-26.44.02-39.66.1-9.97-8.62-18.82-18.54-19.05-7.94-.06-15.88-.02-23.82.07m70.03-.01c-9.41.88-17.25 9.24-17.45 18.68-.19 10.36-.01 20.72-.08 31.09.05 5.14-.42 10.52 1.65 15.37 3.03 7.36 10.91 11.99 18.73 12.07 7.29 0 14.58.1 21.87.02 7.03-.04 13.53-4.48 17.02-10.42 2.3-3.95 2.36-8.65 2.32-13.08-.08-11.69.13-23.38-.1-35.06-.32-9.52-8.32-18.63-18.09-18.78-8.63.08-17.26-.21-25.87.11m69.17.34c-7.77 2-14.64 8.69-14.95 17.02-.29 13.12-.14 26.26-.18 39.39-.09 7.41 4.26 14.66 10.9 17.99 6.39 3.39 13.86 1.93 20.79 2.22 6.06-.27 12.53.91 18.21-1.79 6.66-2.85 11.46-9.73 11.46-17.02.17-12.49.06-24.98.06-37.46.12-7.89-4.28-16.01-11.59-19.34-5.68-2.65-12.12-1.65-18.19-1.87-5.5.17-11.13-.56-16.51.86m71.73-.41c-8.57 1.88-15.05 10.11-15.18 18.83-.17 12.32 0 24.66-.06 36.99-.18 6.75 2.95 13.6 8.68 17.33 6.52 4.69 14.89 3.35 22.41 3.53 4.95-.17 9.97.33 14.89-.52 8.5-1.7 15.13-9.69 15.3-18.36.11-12.65.07-25.32.06-37.97.13-7.76-4.36-15.5-11.45-18.8-5.21-2.63-11.19-1.44-16.79-1.71-5.94.24-12-.58-17.86.68m72-.02c-8.5 1.57-15.56 9.11-15.78 17.89-.15 12.98-.19 25.96.05 38.95.07 9.34 7.35 18.13 16.69 19.47 5.59.62 11.25.22 16.87.34 7.22.09 15.39.56 21.06-4.81 6.63-5.25 6.88-14.29 6.6-22.02-.02-10.36.09-20.72-.01-31.07.01-7.62-4.88-14.96-11.95-17.79-5.25-2.34-11.12-1.4-16.68-1.55-5.61.18-11.29-.41-16.85.59m143.82-.33c-6.11 1.02-11.99 4.63-14.84 10.26-2.79 5.16-2.22 11.2-2.3 16.86.04 10.02-.05 20.05.12 30.07-.03 7.46 4.57 14.69 11.38 17.77 5.77 2.91 12.42 1.76 18.64 2.02 7.31-.27 15.38 1.23 21.86-3.07 5.86-3.35 8.96-10.16 8.95-16.74.06-13.02.1-26.03.02-39.04-.18-10.22-9.76-18.73-19.83-18.48-8 .13-16.03-.33-24 .35m212.55 85.77c-9.14.97-17.19 8.93-17.33 18.28-.24 13.04-.08 26.1-.07 39.15.04 10.14 8.65 19.38 18.87 19.72 8.13.06 16.28.17 24.41-.16 9.39-.6 17.52-8.62 18.05-18.05.22-10.86-.06-21.73.06-32.6.06-5.23.38-10.77-2.2-15.53-3.29-6.87-10.8-11.03-18.31-11.02-7.82-.03-15.68-.44-23.48.21m-424.19.79c-5.8.49-11.7 2.85-15.37 7.53-3.46 4.17-4.04 9.82-4.1 15.04 0 10.32.02 20.65-.02 30.97-.38 6.26.88 13.05 5.55 17.58 4.92 5.42 12.67 6.34 19.59 5.97 7.75-.41 15.76 1.01 23.29-1.31 7.13-2.53 12.56-9.46 12.83-17.1.32-12.03.06-24.07.15-36.1.18-5.94-1.3-12.3-5.68-16.56-3.98-4.21-9.83-6.25-15.55-6.12-6.9.04-13.8-.19-20.69.1m70.86-.19c-7.23.44-14.24 4.91-17.36 11.51-2.06 4.46-1.55 9.48-1.62 14.26.09 10.96-.14 21.94.14 32.91.55 9.26 8.32 17.4 17.58 18.25 7.67.52 15.39.15 23.08.15 5.12.06 10.34-1.6 14.17-5.09 4.63-3.97 6.56-10.24 6.47-16.19-.04-12.33.14-24.67-.08-36.99-.14-9.59-8.12-18.23-17.77-18.75-8.2-.22-16.41-.26-24.61-.06m67.2.46c-4.39 1.27-8.58 3.77-11.19 7.6-3.07 4.23-3.57 9.65-3.56 14.72.02 11.3-.17 22.61.03 33.92.01 7.01 3.51 14.18 9.7 17.72 5.98 3.35 13.09 2.49 19.68 2.61 6.46-.2 13.2.7 19.4-1.58 7.41-2.93 12.62-10.68 12.41-18.67.06-12.38.05-24.76 0-37.14.07-7.37-4.29-14.62-10.97-17.8-5.81-3.01-12.56-2.1-18.86-2.23-5.55.12-11.21-.55-16.64.85m73.75-.52c-9.06.79-16.85 8.6-17.18 17.77-.37 13.03-.05 26.09-.07 39.13-.13 6.95 3.7 13.68 9.67 17.22 6.11 3.81 13.59 2.7 20.43 2.86 6.89-.21 14.32.88 20.65-2.55 5.87-2.89 9.88-9.11 10.08-15.65.27-11.99.03-23.98.13-35.96.09-4.07-.03-8.32-1.88-12.03-3.12-6.88-10.61-11.11-18.06-10.99-7.91-.08-15.87-.37-23.77.2m68.3.56c-8.32 1.86-14.3 9.83-14.5 18.24-.35 12.34-.07 24.71-.16 37.06-.13 7.02 3.21 14.07 9.2 17.9 4.96 3.42 11.19 3.45 16.98 3.31 7.04-.25 14.26.7 21.15-1.18 7.92-2.19 13.79-9.86 13.99-18.06.09-12.68.08-25.37 0-38.04-.05-7.48-4.48-14.76-11.26-17.99-5.51-2.8-11.89-2.05-17.85-2.16-5.85.15-11.82-.58-17.55.92m71.09-.06c-8.35 1.96-14.65 9.77-14.79 18.36-.21 12.29.02 24.6-.06 36.91-.06 6.57 2.66 13.36 8.21 17.16 6.02 4.69 13.97 4.09 21.14 4.04 8.09-.24 17.22 1.26 24.14-3.98 5.36-3.48 7.92-9.94 7.85-16.17.14-12.32.05-24.64.06-36.96.07-6.75-3.19-13.6-9.11-17.07-6.21-4.08-13.95-3.09-21-3.22-5.48.2-11.09-.54-16.44.93m-568.92 1.18c-8.72 1.46-16.58 8.99-16.62 18.15-.19 13.34-.12 26.7-.06 40.05.13 9.63 8.31 18.39 17.97 18.94 8.04.41 16.1.23 24.14.14 9.66-.27 19.23-8.11 19.35-18.17.15-12.33.02-24.66.08-36.99.02-4.64-.4-9.54-2.95-13.54-3.83-6.17-11.37-9.44-18.5-9.06-7.8.21-15.64-.35-23.41.48m70.82-.26c-8.94 1.85-15.96 10.25-15.86 19.44-.05 12.62.01 25.26 0 37.89-.34 7.86 4.89 15.5 12.23 18.23 6.09 2.48 12.76 1.31 19.14 1.59 5.73-.22 11.7.7 17.21-1.33 5.36-1.9 9.87-6.2 11.81-11.57 1.53-4.46 1.15-9.23 1.22-13.85-.09-10.69.16-21.38-.1-32.05-.25-7.38-5.11-14.15-11.83-17.05-5.08-2.39-10.82-1.44-16.23-1.69-5.86.12-11.79-.57-17.59.39m73.71-.39c-9.29 1.01-17.9 9.07-17.87 18.74-.11 12.37.01 24.74-.06 37.11-.09 3.81.59 7.71 2.43 11.1 3.42 6.61 10.94 10.64 18.31 10.41 6.04-.03 12.08-.04 18.12-.03 3.32.07 6.71-.14 9.83-1.38 7.14-2.45 12.81-9.45 12.77-17.14.1-12.36-.02-24.72-.03-37.08.04-4.32-.6-8.81-2.94-12.52-3.42-5.74-10.05-9.21-16.67-9.21-7.96-.06-15.93-.31-23.89 0m477.68 85.23c-.03 16.86.05 33.71.06 50.56.08 5.07-1.3 10.28-4.64 14.19-4.13 5.22-10.78 7.9-17.31 8.13-34.31.2-68.63.29-102.93.86-26.69.13-53.37.28-80.05.57-113.01 1.01-226.03 1.93-339.04 3.05-9.41.11-19.05-4.66-23.7-13.02-4.08-6.45-4.13-14.31-4.31-21.68-.06-12.85-.31-25.69-.47-38.54-28.8.15-57.59.29-86.39.69 1.28 15.12 4.52 30.13 10.54 44.1 6.6 16.93 17.6 31.94 30.8 44.32 12.19 10.72 26.07 19.68 41.21 25.64 18.04 7.5 37.12 12.04 56.19 16.03 42.54 9.05 85.87 13.85 129.22 16.72 78.91 4.91 158.23 4.88 237.01-2.13 25.76-1.79 51.44-4.86 76.85-9.44 25.17-4.45 50.41-9.7 74.09-19.55 27.91-11.02 53.68-29.97 68.17-56.73 11.34-19.52 16.67-42.07 17.79-64.48-27.7.46-55.4.51-83.09.71m-371.59 1.89c-5.35.86-10.51 4.02-13.06 8.9-4.12 6.88-2.18 15.17-2.62 22.75.37 6.81-1.18 14.09 1.93 20.48 2.99 6.58 10.3 10.59 17.43 10.27 54.71.04 109.42.05 164.14-.05 9.54.18 18.55-8 18.69-17.65.14-9.04.15-18.07.08-27.1.13-6.87-4.32-13.42-10.55-16.16-5.1-2.41-10.84-1.44-16.27-1.63-53.26.19-106.53-.26-159.77.19m217.11.24c-7.17.52-13.77 5.62-15.81 12.56-1.76 6.11-.74 12.55-1.02 18.83.26 6.64-.97 13.84 2.47 19.91 2.96 5.91 9.48 9.53 16.03 9.48 12 .11 24-.04 36 .05 4.1.1 8.35-.48 11.95-2.57 5.52-3.26 9.23-9.42 9.33-15.85.1-8.31.09-16.62-.02-24.91-.4-9.33-8.59-17.38-17.95-17.53-13.65-.18-27.34-.35-40.98.03m84.93-.23c-5.62.89-11.23 3.85-13.92 9.06-3.59 6.63-2.18 14.38-2.46 21.59.2 6.85-.92 14.25 2.56 20.52 3.15 6.01 9.84 9.53 16.52 9.69 13.67.23 27.34.09 41.02.09 8.47 0 15.73-7.12 17.14-15.26.85-5.96.16-12.01.3-18-.24-6.58 1.1-13.9-2.96-19.62-3.44-5.59-10.08-8.45-16.49-8.25-13.9.05-27.83-.31-41.71.18m-477.95 1.08c-8.99.35-17.38 7.68-18 16.83-.21 8.59-.03 17.19-.09 25.79-1.01 10.45 8.23 20.22 18.7 19.87 12.04-.06 24.08-.03 36.12-.03 10.68 1.54 21.43-7.26 21.63-18.1.14-8.6.06-17.2.02-25.8.19-9.55-8.04-18.43-17.67-18.59-13.57.03-27.14-.09-40.71.03m87.04.02c-6.74.63-12.85 5.19-15.52 11.39-2.34 6.09-1.11 12.79-1.46 19.16.4 6.88-1.1 14.21 1.81 20.71 2.9 6.45 9.71 10.78 16.76 10.87 12.68.02 25.36-.06 38.04-.04 2.65 0 5.33-.13 7.86-.96 7.45-2.31 12.75-9.86 12.85-17.59.1-8.66.07-17.32 0-25.98-.31-9.58-9.14-17.81-18.71-17.58-13.87-.02-27.76-.18-41.63.02z"/><path d="M326.16 121.25c1.53-.02 3.07-.03 4.61-.03.01 10.14-.06 20.28-.05 30.42 5.84.02 11.69-.01 17.54.04-.02 1.41-.03 2.81-.04 4.22-7.38.04-14.75-.04-22.12.01l.06-34.66zM354.38 121.25c1.49-.02 2.99-.03 4.49-.04.42 11.65.21 23.3-.01 34.95-1.5 0-2.99.01-4.48.02-.14-11.64-.05-23.29 0-34.93zM367.14 121.19c1.53-.03 3.07-.05 4.61-.06.08 10.21 0 20.42.01 30.63 5.79-.09 11.57-.12 17.36-.13v4.22c-7.33.11-14.67.03-22 .08.06-11.58-.06-23.16.02-34.74zM388.55 121.23c1.94.03 3.89.05 5.84.07 3.44 5.33 6.54 10.86 9.98 16.18 3.21-4.88 5.95-10.07 9.46-14.74 1.26-2.35 4.18-1.41 6.34-1.7-4.35 6.76-9.26 13.19-13.33 20.11-.5 4.98-.06 10-.29 14.99-1.49-.01-2.96-.02-4.43-.02-.71-6.17 1.9-13.45-2.66-18.56-3.8-5.34-7.14-10.97-10.91-16.33zM426.27 128.2c4.55-7.75 16.16-9.94 23.45-4.9 2.79 1.81 4 5.04 4.79 8.13-1.39.2-2.78.36-4.17.48-1.06-2.22-1.98-4.78-4.29-5.99-5.52-2.87-13.5-.81-16.05 5.12-2.35 5.45-2.14 12.38 1.67 17.13 4.58 5.27 13.35 5.08 18.4.59.56-2.23.38-4.57.46-6.85-3.24 0-6.47-.02-9.71-.05.01-1.23.02-2.45.04-3.68 4.63-.16 9.25-.37 13.88-.4-.07 4.3.41 8.63-.03 12.91-6.83 6.97-19.99 8.08-26.71.33-5.14-6.28-5.56-15.8-1.73-22.82zM471.33 121.54c5.4-1.74 11.86-.93 16.1 3.05 6.26 5.56 6.87 15.39 3.72 22.74-3.43 8.12-14.19 11.41-21.85 7.41-12.68-6.36-11.72-28.68 2.03-33.2m1.04 3.96c-7.64 3.31-8.6 13.77-5.52 20.58 2.88 6.61 12.46 8.28 17.53 3.23 4.81-4.84 4.81-12.91 2.13-18.82-2.4-5.17-9.05-7.05-14.14-4.99zM247.11 743.79c10.33-.44 20.69-.56 31.02-.12 4.74 8.93 10.6 17.23 15.15 26.26-5.06 8.47-10.2 16.9-15.36 25.3-10.23.22-20.46.77-30.69.56 4.61-8.8 9.85-17.24 14.67-25.93-4.64-8.85-9.66-17.5-14.79-26.07zM162.34 743.67c10.34-.11 20.67-.22 31-.08 4.9 8.76 10.4 17.18 15.05 26.08-5.21 8.49-9.95 17.29-15.36 25.65-10.07.72-20.27.32-30.39.49 4.14-9.28 9.84-17.72 14.9-26.49-5.36-8.38-10.01-17.18-15.2-25.65z"/><path d="M205.15 743.9c10.08-.55 20.18-.46 30.27-.25 5.64 8.31 10.56 17.16 15.14 26.09-4.14 7.45-8.51 14.77-12.62 22.24-1.06 1.37-1.74 3.84-3.89 3.6-9.6.23-19.22.34-28.82.15 4.33-8.46 9.34-16.54 13.78-24.92 1.12-1.36-.21-2.81-.76-4.04-4.33-7.64-8.88-15.16-13.1-22.87zM557.52 769.98c5.53-8.54 10.59-17.38 15.3-26.39 10.23-.1 20.47.11 30.69.59-5.04 8.61-10.39 17.04-15.18 25.79 4.48 8.77 10.12 16.92 14.19 25.91-9.75-.05-19.51-.21-29.26-.06-5.17-8.66-10.6-17.17-15.74-25.84z"/><path d="M614.38 744.15c9.99.12 19.99.06 29.98.29-5.05 8.65-9.74 17.52-15.15 25.96 5.06 8.8 10.22 17.54 15.18 26.4-10.09-.08-20.17-.07-30.25-.19-5.11-8.62-10.2-17.27-15.33-25.88 4.96-8.99 10.51-17.64 15.57-26.58z"/><path d="M640.69 770.6c5.68-8.61 10.57-17.71 16.33-26.26 9.88.21 19.77.28 29.66.45-4.85 8.69-9.92 17.25-14.7 25.98 4.59 8.94 10.33 17.26 14.47 26.44-9.91.08-19.81-.04-29.71.05-5.35-8.88-10.52-17.88-16.05-26.66zM125.3 797.57c2.87-4.07 6.11-7.86 9.27-11.71 2.04 0 4.09-.01 6.14-.03-3.13 3.83-6.32 7.6-9.29 11.56-2.04.05-4.08.11-6.12.18zM143.4 785.82c2.21.01 4.41.02 6.62.04-2.73 3.35-5.17 6.94-8.06 10.16-1.69 2.28-4.83 1.35-7.24 1.71 2.78-4.06 5.95-7.82 8.68-11.91zM152.75 786.7c1.61-1.86 4.3-.38 6.36-.36-3.19 3.7-5.91 7.85-9.54 11.14-1.85.24-3.72.15-5.58.19 2.83-3.72 5.63-7.5 8.76-10.97zM707.05 787.31c2.68.34 6.17-.92 8.14 1.52 2.86 3.03 5.31 6.42 8.18 9.46-2.42-.21-4.98.31-7.29-.45-3.2-3.34-5.95-7.08-9.03-10.53zM689.1 787.58c2.33-.06 4.66-.08 7-.08 3.06 3.61 5.92 7.4 9.11 10.91-2.44-.07-4.86-.1-7.29-.15-2.97-3.54-5.83-7.17-8.82-10.68zM697.79 787.42c2.45.04 4.92.1 7.38.16 3.03 3.41 5.99 6.9 8.7 10.57-2.2 0-4.38.03-6.56.05-3.06-3.69-6.37-7.16-9.52-10.78zM78.65 864.19c.44-1.86.21-4.25 2.47-4.98-.13 1.83-.28 3.67-.44 5.52l2.9-.08c.45-1.88.87-3.73 1.42-5.56 1.55 1.46 1.15 3.44.76 5.29.99.57 1.96 1.16 2.94 1.76-.88.12-2.63.35-3.5.47-.1.97-.29 2.92-.39 3.89.62 0 1.87 0 2.49-.01l-.16 1.8c-.66-.03-1.99-.1-2.65-.14-.17 1.38-.34 2.76-.49 4.16l-2.01.64c.17-1.53.33-3.06.49-4.57-.9-.01-2.71-.02-3.61-.03-.17 1.46-.34 2.92-.53 4.4-.47-.09-1.41-.27-1.87-.36.21-1.35.42-2.69.65-4.02-.64-.08-1.91-.23-2.55-.31 1.81-1.56 3.7-2.9 3.76-5.56-.77-.11-2.3-.32-3.07-.43.51-1.6 2.05-1.64 3.39-1.88m1.36 2.26c-.23 1.33-.45 2.66-.67 4 1.09.02 2.19.03 3.28.06.3-1.35.59-2.69.86-4.02-1.16-.03-2.31-.04-3.47-.04zM373.29 860.51l2.26-.12c-2.44 4.08-4.49 8.86-3.41 13.71.4 2.84 2.71 5.15 2.4 8.13-7.58-4.48-6.9-15.96-1.25-21.72zM453.31 860.52c1.26.65 2.99.94 3.79 2.3 3.74 5.54 3.17 13.3-.84 18.55-.9 1-2.33 1.18-3.48 1.76 1.62-3.9 3.98-7.72 3.89-12.08.02-3.81-2.28-7.02-3.36-10.53zM152.01 865.16c1.55-2.12 4.1-2.76 6.48-3.46-.06 5.14.35 10.34-.16 15.46-.39.44-1.17 1.33-1.56 1.77-1.4-4.58-.36-9.44-.62-14.14-1.04.09-3.11.28-4.14.37zM296.27 865.23c1.23-4.49 8.98-3.68 9.82.71.66 1.82-.93 3.25-1.8 4.66 1.41 1.41 2.86 3.27 1.97 5.41-1.9 3.96-8.26 4.27-10.54.44 2.67-.28 8.28 2.15 8.04-2.33-.18-3.13-4.23-1.77-5.7-3.86 2.02-.78 5.35-.61 5.83-3.38-.31-4.05-5.18-1.98-7.62-1.65zM223.25 865.99c1.35-4.52 8.62-4.55 9.86.03 1.39 4.91-3.61 7.99-6.68 10.85 2.53-.04 5.06-.09 7.59-.07l-.68 2.19c-3.47.23-6.96.15-10.43.15 1.05-4.65 6.72-6.05 7.83-10.7.84-2.04-1.61-4.63-3.67-3.53-1.27.35-2.55.72-3.82 1.08zM664.87 865.28c2.52 1.23 1.25 4.28 1.63 6.46 1.91-.01 3.82-.01 5.75.01l.03 1.68c-1.92.02-3.83.06-5.74.09-.26 2.26.63 5.09-1.69 6.59-.33-2.14-.38-4.31-.45-6.45-1.75-.03-3.48-.02-5.21-.01-.04-.47-.12-1.41-.15-1.89 1.81-.04 3.64-.05 5.47-.06.08-2.15.15-4.3.36-6.42zM591.64 871.84c2.78-.08 5.56-.03 8.35-.04-.02.5-.07 1.5-.1 2-2.84-.32-7.15 1.77-8.25-1.96zM520.48 877.33c4.23-.39 8.54.05 12.7-.99.08 1.27-.36 3.15-2.08 2.81-3.15-.04-6.34.19-9.45-.32-.29-.38-.88-1.13-1.17-1.5zM81.63 889.45c2.83-7.01 13.74-8.57 18.33-2.5 5.16 7.02 3.19 19.44-5.84 22.26 2.25 1.39 4.78 2.23 7.44 2.38-.09 3.12-3.24 3.21-5.56 2.82-2.43-.57-3.69-2.91-5.01-4.78-3.02-.78-6.38-1.68-8.14-4.5-2.92-4.58-3.24-10.7-1.22-15.68m6-1.77c-4.03 3.77-4.07 10.64-1.51 15.26 2.28 4.42 9.57 3.78 11.3-.78 1.59-3.9 1.62-8.63-.14-12.46-1.7-3.54-6.62-4.26-9.65-2.02zM368.12 885.65c6.25 0 12.5-.13 18.75-.17-.03 1.1-.07 2.21-.1 3.33-2.4-.04-4.8-.08-7.19-.08.08 7.15.13 14.3.05 21.45-1.32-.02-2.62-.04-3.93-.05-.07-7.13.06-14.26.13-21.39l-7.71-.03v-3.06zM298.8 886.3c4.4.16 9.12-.57 13.27 1.23 5.35 2.97 3.81 11.71-1.85 13.47 2.4 3.2 4.45 6.65 6.16 10.28-1.36.03-2.72.07-4.08.12-1.78-3.12-3.32-6.39-5.49-9.26-.82-1.32-2.62-.97-3.9-1.36-.09 3.46-.11 6.92-.14 10.39-1.31.05-2.62.11-3.93.17.02-8.35-.05-16.7-.04-25.04m4 3.16c-.05 2.8-.05 5.6-.02 8.41 1.77.02 3.54.11 5.32-.05 3.24-.34 4.95-5 2.5-7.24-2.19-1.79-5.22-.98-7.8-1.12zM438.65 886.2c1.32.04 2.64.1 3.97.17 2 3.72 4.33 7.26 6.12 11.1 1.89-3.64 3.6-7.5 6.25-10.66.95-.13 2.86-.38 3.82-.51-2.04 3.98-4.56 7.69-6.81 11.56-2.49 3.89-1.19 8.69-1.66 13.03-1.26-.04-2.52-.07-3.77-.09-.03-3.58.47-7.19-.14-10.72-2.26-4.8-5.16-9.28-7.78-13.88zM510.19 886.73c1.3-.02 2.6-.02 3.91-.01.29 5.77-.71 11.6.21 17.33.54 4.27 6.65 5.69 9.44 2.72 1.21-1.24 1.21-3.11 1.39-4.71.16-5.1-.01-10.21.04-15.31 1.2 0 2.4.02 3.62.06-.07 6.02.4 12.08-.3 18.08-1.1 6.94-11.09 9.13-15.73 4.37-1.63-1.67-2.49-3.97-2.57-6.27-.19-5.42.01-10.85-.01-16.26zM147.26 886.8c1.33-.07 2.65-.12 3.98-.16 1.27 6.66 2.24 13.37 3.57 20.02 1.69-6.16 3.28-12.37 5.45-18.37.4-1.56 2.48-.92 3.64-1.29 1.92 6.49 3.12 13.17 5.07 19.65 1.34-6.7 2.74-13.39 4.32-20.03l3.98.2c-2.14 8.08-4.17 16.2-6.01 24.37-1.54-.01-3.08-.01-4.61-.01-1.73-6.12-2.96-12.35-4.24-18.56-2.15 6.14-3.62 12.5-5.94 18.59-1.44.02-2.88.04-4.32.07-1.62-8.17-3.06-16.36-4.89-24.48zM227.61 886.93c4.93.3 9.88.21 14.82.14 0 .79.01 2.37.02 3.16-3.68-.11-7.36-.11-11.04-.13-.02 2.36-.01 4.72-.02 7.1 3.13 0 6.26.03 9.39.11.01.72.02 2.18.02 2.91-3.1-.01-6.2 0-9.3-.04.01 2.68.02 5.36.05 8.05 3.69 0 7.38.03 11.07.05 0 1.04-.01 2.08-.01 3.14-5.03.1-10.07.1-15.1.14.26-8.21.09-16.42.1-24.63zM587.31 887.55c1.18.01 2.37.02 3.57.06-.19 8.16.48 16.34-.04 24.5-1.23.02-2.45.05-3.66.09.03-8.22.06-16.43.13-24.65zM654.37 887.53c5.29-2.25 12.46.05 14.43 5.72 1.83 5.27 1.57 11.91-2.34 16.21-4.73 5-14.32 3.68-17-2.86-2.62-6.3-2.15-15.92 4.91-19.07m2.78 2.6c-5.89 1.79-6.14 9.56-4.58 14.46 1.31 4.83 8.28 6.36 11.37 2.39 2.65-4.02 2.84-9.57.67-13.84-1.27-2.73-4.67-3.97-7.46-3.01zM722.34 912.41c-.17-8.37-.27-16.74 0-25.11 3.84.14 7.75-.09 11.55.67 6.19 1.76 5.75 12.12-.11 14.07-2.48.76-5.12.6-7.68.72.02 2.48.08 4.97.03 7.46.58 2.3-2.57 1.72-3.79 2.19m3.51-22.05c.02 3.12.1 6.26.33 9.39 2.25-.15 4.77.31 6.78-.98 2.5-1.49 2.1-5.26.46-7.22-2.11-1.66-5.08-.89-7.57-1.19zM151.94 952.89c.73-1.11 2.08-1.41 3.23-1.85.25 3.64.33 7.3.55 10.96.81.16 2.42.49 3.23.66-1.13.39-2.27.73-3.4 1.12-.02 1.21-.03 2.42-.06 3.65-.58.08-1.75.23-2.33.31-.02-1.34-.02-2.66-.02-3.97-2.8-.01-5.61-.06-8.38-.52 2.37-3.47 4.67-7 7.18-10.36m-3.45 8.68c1.48-.01 2.97-.01 4.46 0-.07-2.25-.12-4.5-.19-6.74-1.44 2.23-2.88 4.47-4.27 6.74zM78.81 951.76c.61-.02 1.82-.05 2.43-.07.06 1.64.09 3.32.13 4.99 1.29-.8 2.56-1.62 3.85-2.39.25.66.75 1.99 1 2.66-1.44.65-2.94 1.15-4.41 1.75 1.1 1.05 2.27 2.09 3.28 3.25-.65.75-1.08 2.15-2.33 1.94-.96-1.27-1.8-2.6-2.69-3.89-.99 1.42-1.98 2.86-2.97 4.3-.71-.79-1.41-1.57-2.11-2.34 1.12-1.08 2.25-2.14 3.39-3.2-1.93-.72-3.88-1.46-5.39-2.91 2.04-1.3 4.05-.05 5.97.63-.06-1.58-.11-3.17-.15-4.72zM220.1 960.21c.2-2.87.35-5.72.42-8.58 3.02-.03 6.04-.03 9.06.08-.55 3.48-4.38 1.75-6.77 2.15-.01 1.29-.02 2.59-.04 3.9 3.83-1.39 7.87 2.07 6.96 6.06-.34 5.04-9.65 6.19-10.36 1.09 2.39.19 5.78 2.73 7.34-.17 1.17-1.63-.01-3.45-.43-5.09-2.07.09-4.12.32-6.18.56zM290.6 954.6c1.57-2.89 5.05-3.18 7.98-3.12l-.02 1.85c-3.69-.35-6.35 2.18-7.7 5.38 2.68-.77 6.57-1.87 8.31 1.18 2.5 4.06-1.48 9.81-6.21 8.28-5.07-2.24-4.91-9.46-2.36-13.57m.94 5.93c.41 2.04.22 4.71 2.3 5.93 3.92.47 4.72-4.62 2.38-6.93-1.57.27-3.13.62-4.68 1zM369.2 952.03c.4.11 1.19.33 1.59.45-.17 3.1-2.17 5.77-3.29 8.62-.54 2.65-1.08 5.36-2.13 7.87l-2.05.5c.08-6.27 3.24-11.93 5.88-17.44zM457.77 952.32c1.25.53 3.72 1.39 2.54 3.18-.28 1.1-1.65.63-2.45.8-1.31-1.13-.41-2.66-.09-3.98zM520.18 956.01c.9-1.01 1.88-1.96 2.9-2.85.41 1.21 2.45 2.75.78 3.77-1.09 1.16-2.6-.48-3.68-.92zM594.48 962.92c-.28-2.41 1.4-7.62 4.47-5.82-.61 2.49-2.36 4.46-4.47 5.82zM671.46 957.18c1.03-.06 2.07-.09 3.11-.11-.97 2.34-1.07 5.57-3.54 6.9-2.65-1.01-.25-3.17.66-4.47-.05-.58-.17-1.74-.23-2.32zM458.42 962.49c1.92-.84 3.14 2.43 1.42 3.21-1.92 1.98-4.14-2.83-1.42-3.21zM519.96 968.02c.8-2.05 2.02-3.88 3.26-5.67 2.91 2.12-.72 5.05-1.2 7.53-.73-.59-1.68-.98-2.06-1.86zM83.23 974.5c1.59.01 3.18.03 4.77.07 2.81 8.42 5.96 16.72 8.81 25.13-1.54-.02-3.07 0-4.6.01-.63-2.4-1.27-4.78-1.95-7.15-3.38.03-6.76.03-10.14.09-.76 2.37-1.55 4.74-2.42 7.08-1.38-.03-2.76-.06-4.14-.07 2.93-8.51 6.42-16.79 9.67-25.16m-1.85 15.08c2.61-.03 5.22-.07 7.83-.12-1.32-3.93-2.51-7.9-3.89-11.8-1.31 3.98-2.73 7.91-3.94 11.92zM154.16 975.21c3.17-1.08 7.01-1.15 9.89.77 1.81.59.61 2.29.39 3.58-2.6-1.06-5.46-2.71-8.28-1.32-2.22.57-3.26 3.47-1.39 5.09 3.23 2.63 8.27 2.43 10.79 6.05 2.52 3.55.38 8.9-3.55 10.39-4.3 1.52-9.47.72-12.84-2.45.45-.61 1.36-1.84 1.82-2.46 2.46 1.36 5.13 2.87 8.07 2.34 2.61-.21 5-3.83 2.81-5.94-2.89-2.47-7.12-2.57-9.97-5.11-3.42-3.01-1.97-9.45 2.26-10.94zM221.43 975.38c4.41.15 9.04-.63 13.28.9 9.14 3.79 8.7 19.41-.56 22.77-4.08 1.41-8.49 1-12.73 1.02-.04-8.24-.06-16.47.01-24.69m3.9 2.79c.07 6.26-.04 12.53.11 18.79 2.51-.16 5.25.25 7.54-1.04 4.75-2.88 5.31-10.01 2.61-14.46-2.15-3.57-6.69-3.09-10.26-3.29zM441.76 975.65c1.3-.01 2.61-.02 3.93 0-.06 3.33-.06 6.66-.02 10.01 3.82-.11 7.65-.11 11.48-.19.04-3.32.05-6.63.03-9.94 1.22 0 2.44.01 3.67.04.02 8.23.04 16.47.04 24.71-1.25-.02-2.49-.03-3.73-.02.03-3.73.01-7.45.02-11.17-3.85-.04-7.69.01-11.53.02-.01 3.7 0 7.41 0 11.12l-3.89.04c-.04-8.21-.05-16.42 0-24.62zM581.09 975.54c1.23-.01 2.47 0 3.71.03-.03 3.71-.07 7.43.06 11.15 3.5-3.54 6.64-7.41 9.78-11.26 1.1.02 3.29.07 4.38.09-3.31 3.75-6.29 7.78-9.49 11.63 3.43 4.29 6.94 8.53 10.1 13.03-1.48.02-2.95.05-4.41.08-3.09-3.78-5.59-8.1-9.44-11.17-1.56 3.51-1.14 7.39-1.23 11.13-1.19-.03-2.37-.04-3.55-.04-.37-8.23.21-16.45.09-24.67zM293.8 975.73c5.11-.03 10.23-.05 15.36-.02-.01 1.02-.01 2.07 0 3.12-3.85.03-7.69.04-11.53.06-.03 2.59 0 5.18.06 7.79 3.3-.02 6.59-.05 9.89-.14l-.06 3.16c-3.27.01-6.54.03-9.8 0 .05 3.7.04 7.41.01 11.12-1.31-.06-2.62-.11-3.93-.16-.07-8.31-.02-16.62 0-24.93zM365.32 980.38c3.69-5.49 13.53-7.24 17.46-1.2-2.36 2.46-5.12-.7-7.84-.3-8.94.14-11.07 14.19-3.79 18.22 2.47 1.37 5.56 1.37 8.02-.04.79-1.99.41-4.2.56-6.26-1.84-.01-3.68.01-5.51-.01.05-.99.1-1.96.17-2.92 2.98-.03 5.97-.04 8.96-.03-.08 3.57-.1 7.15-.12 10.74-4.73 2.97-11.33 3.87-16.03.38-5.43-4.4-5.47-13.03-1.88-18.58zM517.72 976.18c.91-.07 2.71-.2 3.62-.27-.06 6.7.21 13.42-.05 20.12-.05 3.25-3.02 5.88-6.22 5.84-3.19.33-5.9-1.71-7.97-3.88.72-.77 1.45-1.53 2.19-2.28 1.54 1.08 2.91 2.74 4.89 3 1.99.24 3.58-1.76 3.44-3.64.1-6.3.03-12.6.1-18.89zM653.79 975.83c.92-.04 2.75-.11 3.67-.15.02 7 .04 14.01-.03 21.02 3.58.05 7.17.1 10.76.12-.01.84-.02 2.53-.02 3.37-4.79.01-9.57-.02-14.35-.08-.06-8.1-.06-16.19-.03-24.28zM716.87 991.22c2.37-3.84 4.95-7.54 7.16-11.47 6.63-.08 13.25-.05 19.88.03-.07 7.6 0 15.2-.05 22.8-6.53-.1-13.07.31-19.6-.01-2.68-3.62-4.87-7.61-7.39-11.35m2.46-.15c1.97 3.05 3.91 6.12 5.86 9.19 5.53.22 11.07.01 16.61.13-.11-6.17-.11-12.34-.11-18.51-5.4.03-10.79-.03-16.17-.05-1.99 3.13-3.97 6.26-6.19 9.24z"/><path d="M727.29 984.16c3.11-.04 4.17 3.09 5.68 5.21 1.64-2.21 3.26-5.41 6.56-4.92-1.06 2.54-2.94 4.56-4.5 6.78 1.51 2.4 3.44 4.54 4.63 7.16-3.31.44-4.78-2.86-6.63-4.89-1.54 2.07-2.98 4.44-5.64 5.2-.34-3.12 2.27-5.19 4.18-7.23-2.05-2.02-4-4.33-4.28-7.31zM150.67 1035.73c3.59.03 7.17 0 10.76.07-2.38 5.17-4.76 10.33-5.95 15.94l-1.75.76c-.87-5.21 2.43-10.23 4.87-14.66-2.67-.02-5.34-.01-8 .05.01-.54.05-1.62.07-2.16zM222.48 1038.43c1.82-3.59 7.86-3.01 9.08.78.75 1.75-.9 3.16-1.65 4.58 1.02 1.53 2.78 3.15 2.15 5.21-1.11 4.82-9.1 4.6-10.58.11-.54-2.16 1.18-3.61 2.42-5.05-1.02-1.66-2.62-3.64-1.42-5.63m2.64 3.39c1.1 2.3 4.09.78 4.19-1.26.21-1.54-1.6-2.2-2.37-3.19-1.3.99-3.46 2.7-1.82 4.45m.48 3.74c-1.28.98-2.11 3.28-.46 4.33 1.58 1.76 5.22-.07 4.38-2.48-.78-1.27-2.35-2.85-3.92-1.85zM295.39 1045.56c-3.78-3.33-.42-10.46 4.65-9.38 5.37.83 5.45 7.75 3.9 11.74-1.28 3.41-4.84 5-8.32 4.62.03-.72.07-1.43.11-2.12 3.16.47 5.74-1.26 6.73-4.27-2.34.32-5.16 1.43-7.07-.59m2.98-7.34c-2.04.93-2.65 3.84-1.05 5.47 1.27 2.14 4.9.59 4.9-1.66.6-2.23-1.55-4.72-3.85-3.81zM366.13 1039.45c-.47-4.05 3.92-3.22 6.51-2.88 2.04.24 3.42 2.4 2.85 4.39-.45 2.93-3.6 4.42-4.42 7.2.33 1.03.7 2.06 1.13 3.09-.7.32-2.09.96-2.79 1.29-1.24-2.34-1.51-5.65.44-7.65 1.22-1.43 2.52-2.79 3.74-4.2-1.55-2.91-4.93-2.43-7.46-1.24zM455.18 1037.1c.67.01 2 .02 2.67.03.05 5.44.05 10.88-.03 16.33-.63-.02-1.89-.05-2.53-.06-.05-5.44.12-10.87-.11-16.3zM661.94 1042.59c.04-2.91 2.97-3.67 5.35-3.49 1.19 1.62.21 3.5-.1 5.25 1.19-.37 2.4-.72 3.6-1.1.04-.95.11-2.85.15-3.8 2.78.87 4.73 3.64 4.62 6.57-.01 2.14-.12 5.28-2.74 5.83-2.18-.82-3.14-3.49-5.44-4.28.03 1.85.35 3.74.02 5.61-3.01 1.21-4.77-1.45-5.32-3.97-.62.13-1.84.41-2.46.54-1.31-1.45-2.56-2.94-3.8-4.44l2.36 1.92c.1-.67.31-2.01.42-2.68-.81-2.28 2.07-1.79 3.34-1.96m11.08 5.61c1.19-.72 1.14-2.83-.01-3.52-2.18-.37-2.24 3.99.01 3.52zM527.26 1043.48c.66.09 1.97.27 2.63.37-1.07 2.61-2.8 4.95-5.42 6.17.46-2.37 1.62-4.48 2.79-6.54zM597.09 1048.2c-1.65-.65-1.79-3.02-.15-3.72l2.51.2c-.37 1.45-.39 3.42-2.36 3.52zM153.41 1058.8c6.03.02 12.06-.05 18.08.07-.36 1.68-.61 3.51-1.76 4.9-4.03 5.23-8.3 10.27-12.3 15.53 4.66.01 9.32.07 13.99.04 0 1.14 0 2.29.01 3.45-6.3.03-12.61.19-18.91-.04.49-4.39 3.73-7.54 6.25-10.87 2.62-3.22 5.21-6.46 7.71-9.76-4.35-.02-8.69.12-13.03.17l-.04-3.49zM299.9 1062.91c3.67-4.92 11.15-4.86 15.82-1.43-.53.62-1.58 1.86-2.11 2.48-2.54-1.31-5.69-2.46-8.36-.8-5.18 3.15-5.34 11.1-2.01 15.66 2.61 3.46 7.78 2.91 10.9.45l1.51 2.31c-4.29 3.98-11.89 4.25-15.67-.56-3.83-5.12-3.81-12.94-.08-18.11zM223.33 1060.26c1.59.02 3.19.04 4.8.08 1.87 2.99 3.67 6.03 5.65 8.96 1.85-2.93 3.34-6.13 5.65-8.72 1.44-.62 3.06-.52 4.59-.75-2.59 4.1-5.47 8.01-8.16 12.04 2.66 4.07 5.64 7.9 8.37 11.92-1.68-.3-4.03.84-5.21-.8-2.07-2.78-3.72-5.83-5.59-8.73-1.91 3.13-3.79 6.3-5.95 9.27-1.55.24-3.12.12-4.67.19 2.7-4.09 6.16-7.91 8.11-12.36-2.25-3.89-5.18-7.33-7.59-11.1zM364.43 1059.52c.99.02 2.97.08 3.96.11 2.51 6.89 4.26 14.02 6.48 21 2.58-6.85 5.14-13.73 7.12-20.79 1.44-.08 2.88-.14 4.33-.19-3.35 8.24-6.17 16.7-9.71 24.85-1.34.15-2.69.13-4.03.18-2.83-8.36-5.32-16.82-8.15-25.16zM441.12 1060.14c4.23.23 8.74-.72 12.76.91 4.02 2.08 3.66 7.74.88 10.74 4.29 2.64 4.72 9.59.09 12.07-4.33 1.74-9.19.73-13.74.93.05-8.22-.02-16.43.01-24.65m3.61 3.03c-.01 2.48.03 4.96.08 7.46 2.63-.29 6.3.88 7.9-1.92 1.43-1.78.48-4.69-1.72-5.23-2.06-.43-4.18-.28-6.26-.31m.11 10.46c-.05 2.69-.08 5.39-.04 8.09 2.04.01 4.1.12 6.14-.14 2.84-.2 4.73-4.03 2.9-6.3-2.06-2.92-6.02-1.47-9-1.65zM510.55 1059.91c.94 0 2.82-.01 3.76-.01 4.25 6.21 8.61 12.36 12.33 18.92-.23-6.31-.18-12.62-.02-18.92.94 0 2.81-.01 3.75-.01-.03 8.27.03 16.55.06 24.82-1.6-.27-3.89.64-4.7-1.24-3.8-5.86-7.45-11.81-11.39-17.58.03 6.3.11 12.59.07 18.9l-3.76-.08c-.09-8.27-.04-16.54-.1-24.8zM597.22 1060.45c1.5-.25 3.02-.25 4.55-.29.04 8.38.22 16.77 0 25.16-1.29-.28-2.84.07-3.85-.92-.15-6.24.35-12.47.32-18.71-1.77 4.36-3.29 8.85-5.5 13.03-.58 1.68-3.21 3.02-4.21.94-2.37-4.34-3.97-9.06-6.08-13.53.09 6.36.1 12.71.16 19.08-1.01 0-3.03.01-4.04.02-.01-8.36.22-16.71.26-25.06 1.45-.01 2.9.03 4.36.13 2.67 5.28 5.04 10.75 7.14 16.29 2.72-5.2 4.05-11.03 6.89-16.14zM658.97 1062.12c-.39-2.02.33-2.88 2.19-2.59.29 1.06.55 2.15.76 3.27 2.07.63 5.58.58 4.73 3.82-1.76-.14-3.48-.46-5.2-.72-.06 2.23-.09 4.47-.1 6.72 2.86 1.56 6.6 3.5 6.46 7.32.28 3.74-2.98 6.21-6.27 7.01.05 1.16.03 2.33-.04 3.52-.87.18-1.74.32-2.61.41l.08-4.01c-2.5-.35-7.89-.62-6.44-4.41 2.28-.4 4.38 1.1 6.64 1.36.08-2.42.1-4.82.12-7.21-2.62-1.64-6.19-2.99-6.53-6.55-.91-4.12 2.88-6.73 6.21-7.94m.09 10.53c.05-2.14.13-4.29 0-6.42-3.95-.34-2.9 5.53 0 6.42m2.28 3.88c0 2.45.2 4.91.48 7.37 1-.99 2.5-1.83 2.49-3.41.1-1.89-1.66-2.99-2.97-3.96zM89.31 1060.66c.78-.03 2.34-.11 3.12-.14.51 7.75-1.4 15.81 1.2 23.29-.92-.18-2.75-.53-3.67-.7-1.38-7.36-.4-14.99-.65-22.45zM98.25 1063.36c.58.02 1.76.06 2.34.07.04 1.47.07 2.96.1 4.46 1.33-.04 2.66-.06 4-.07-.03.54-.07 1.62-.1 2.15-1.32.1-2.64.14-3.96.24.23 3.48-.37 7.08.5 10.51 1.23.32 2.47.61 3.72.87-.09.57-.26 1.7-.34 2.27-2.15-.12-5.21.41-6.22-2.07-.98-3.61-.37-7.44-.36-11.13-1.03-.53-2.79-.5-2.68-2.06.67-.3 1.99-.9 2.65-1.2.02-1.37.12-2.72.35-4.04zM737.23 1063.56c1.31-.03 2.65-.01 3.99 0-.37 5.23 1.11 10.83-.99 15.8-2.34 4.67-8.29 2.22-12.38 3.02.05.86.13 2.56.17 3.42-3.53-1.59-7.12-3.18-10.04-5.78 3.18-1.81 6.31-4.03 9.99-4.65-.03.72-.08 2.15-.1 2.86 2.85-.18 6 .66 8.66-.7 1.41-4.49.38-9.34.7-13.97zM76.39 1067.67c2.3-.59 5.11-.7 6.92 1.1 1.5 2.07 1.07 4.78 1.27 7.19-.13 2.88.65 6.23-1.45 8.62-.27-.58-.81-1.75-1.08-2.33-2.4.86-5.05 2.32-7.62 1.18-3.03-1.2-3.02-5.79-.62-7.61 2.18-2 5.35-1.69 8.05-2.24-.53-1.25-.48-3.02-1.9-3.61-2.2-.69-4.33.68-6.5.91-1.09-2.13 1.41-2.73 2.93-3.21m-1.91 11.11c.37.7 1.13 2.11 1.5 2.81 1.86-.35 3.69-.79 5.51-1.27.02-1.58.02-3.14 0-4.69-2.65.24-5.63.5-7.01 3.15zM236.45 1126.48c2.69-1.23 6.12.32 6.82 3.24.9 3.63 1.17 8.14-1.39 11.19-2.51 2.72-7.47 1.3-8.22-2.3-1-4.02-1.26-9.71 2.79-12.13m.2 12.73c1.03 1.67 3.19 1.03 3.91-.55 1.54-3.69 1.04-8.22-1.58-11.32-4.46 2.18-3.77 7.97-2.33 11.87zM155.72 1149.21c3.66-5.29 6.81-10.9 9.96-16.5 3.03 5.57 6.28 11.03 9.83 16.29-1.36.08-2.72.18-4.07.31-.08 2.62-.06 5.24-.07 7.88-3.87.03-7.73.05-11.6.02-.02-2.67-.03-5.32-.06-7.97-1-.01-2.99-.02-3.99-.03zM365.6 1134.5c1.09-.04 2.18-.07 3.28-.08.01 3.95.23 7.91.27 11.87 24.51-.14 49.02.07 73.53-.1.03-4.19.01-8.38-.04-12.56.87.03 2.61.08 3.49.1-.18 5.17.55 10.46-.75 15.55-9.08 1.03-18.27.21-27.39.46-16.02 0-32.05-.03-48.07.05-1.55.13-2.94-.58-4.3-1.2.04-4.7.07-9.4-.02-14.09zM253.46 1137.45c2.15-1.75 5.66-.45 7.11 1.64.87 3.48.79 7.24.12 10.77-.99 4.47-8.85 4.05-8.83-.74.14-3.82-1.4-8.65 1.6-11.67zM542.66 1143.38c-1.27-2.15-.29-5.82 2.52-5.96 2.56-.17 5.8.06 6.84 2.93-2.36.11-4.86-1.6-7.1-.51-1.85 1.57 1.06 2.53 2.04 3.26 2.28 1.04 5.49 2.67 4.79 5.73-1.4 4.73-8.97 4.09-10.6-.24 2.93-1.07 6.55 3.45 8.47-.56-1.52-2.57-4.93-2.68-6.96-4.65zM553.65 1136.04c3.79 3 4.3 8.02 6.11 12.18 1.49-4.15 2.35-8.69 5.28-12.14 1.29 3.2-1.18 6-2.05 8.95-1.35 3.34-1.87 7.09-4.1 10.02-1.04 1.6-3.16 1.6-4.76 2.24-.5-2.23 1.19-2.9 2.96-3.32.46-.97.88-1.95 1.25-2.94-1.19-5.13-4.62-9.61-4.69-14.99zM568.77 1137.28c.72.41 1.46.85 2.2 1.29 1.63-.53 3.22-1.28 4.95-1.46.92.67 1.75 1.46 2.61 2.23 2.26-2.23 6.34-3.27 8.22.01 1.57 4.05.56 8.7.51 12.99-.51-.26-1.51-.76-2.02-1.02-1.03-3.43.32-7.22-.96-10.57-1.13-2.57-4.83-1.11-4.9 1.32-.24 3.14.07 6.31-.21 9.48-.62.13-1.86.39-2.48.53-.55-4.29.9-9.04-1.53-12.91-1.4.79-3.97.62-4.2 2.65-.38 3.27-.24 6.57-.36 9.87-.54 0-1.64.01-2.18.01-.1-4.81-.63-9.69.35-14.42zM638.9 1154.78c3.52-5.35 6.61-10.96 10.01-16.38 2.92 5.63 6.62 10.8 9.68 16.36-1.45-.02-2.89-.02-4.32-.02.04 2.57.04 5.14.03 7.73-3.83.04-7.66.08-11.49.14.01-2.61.04-5.21.02-7.79l-3.93-.04z"/><path d="M247.49 1145.66c.53-.08 1.58-.23 2.1-.3.44 2.84.11 6.44 2.8 8.29 2.63 1.27 6.3 1.53 8.49-.75 2.26-1.95 1.58-5.25 2.05-7.84 3.69 1.71 2.05 6.42.18 8.96-1.27 2.02-3.68 2.65-5.85 3.2-.05.71-.1 1.44-.14 2.18 1.68.03 3.36.05 5.05.09.05.53.14 1.58.19 2.11-4.34-.1-8.78.66-13.04-.37 1.07-2.2 3.74-1.69 5.68-2.25-.75-2.95-4.65-2.54-5.86-5.1-1.7-2.41-1.84-5.4-1.65-8.22zM680.79 1204.02c.91-3.8 5.46-6.3 9.12-4.81 5.14 1.64 6.56 9.63 2.02 12.75-2.49 1.97-5.79 1.16-8.59.53-2.68 2.97-5.43 5.88-8.19 8.78-50.83.14-101.66.12-152.49.22 0-.84-.01-2.5-.01-3.34 50.34.02 100.72-.1 151.03-.29 2.76-2.36 4.98-5.28 7.56-7.82-.34-1.99-1.07-4.03-.45-6.02m5.37-1.79c-2.24.78-3.24 3.73-2 5.75 1.46 3.02 6.89 2.41 7.37-1.01.81-2.95-2.47-6.35-5.37-4.74zM136.38 1203.4c3.16-3.96 10.44-2.81 12.14 1.98 1.06 2.23.28 4.67-.16 6.97 2.41 2.7 4.83 5.38 7.43 7.89 51.62.39 103.24-.87 154.86-.72-.04.84-.11 2.52-.15 3.36-51.54-.19-103.08.94-154.62.69-4.33-1.18-6.53-6.08-9.87-8.88-2.73.62-5.98 1.77-8.41-.32-3.57-2.39-4.24-7.88-1.22-10.97m4 1.02c-2.93.58-3.66 4.83-1.61 6.76 2.35 2.76 7.57.42 7.16-3.2.06-2.79-3.16-4.21-5.55-3.56zM398.85 1208.59c2.17.04 4.33.06 6.5.08 2.01 3.36 4.08 6.7 6.03 10.11 1.96-3.46 4.03-6.86 6.17-10.2 2.1-.06 4.21-.11 6.32-.15-2.75 4.09-5.38 8.27-7.84 12.55-2.84 4.2-1.13 9.54-1.68 14.27-1.91 0-3.82.01-5.72.04-.17-3.95.34-7.96-.3-11.86-2.85-5.13-6.24-9.95-9.48-14.84zM426.14 1215.1c3.58-9.41 19.85-9.8 22.97.24-2.01.03-4.44 1.22-6.13-.31-1.92-1.61-4.33-3.06-6.91-2.1-6.94 2.23-7.43 12.93-1.78 16.84 3.58 2.28 10.42.87 9.59-4.44-2.01-.02-4.02.02-6.02.08-.03-1.43-.05-2.84-.07-4.25 3.68-.04 7.35-.17 11.03-.35.04 3.44.26 6.88.43 10.32-5.23 4.94-14.13 6.4-19.85 1.49-4.94-4.21-5.66-11.78-3.26-17.52zM462.26 1208.25c3.85-.59 8.13-.23 11.28 2.28 7.53 5.83 6.36 19.47-2.15 23.83-4.56 2.08-10.38 1.71-14.42-1.33-7.72-6.73-5.78-22.83 5.29-24.78m.06 5.01c-4.51 2.36-4.81 8.67-3.44 12.99 1.3 4.34 7.22 6.22 10.69 3.24 3.39-3.02 3.62-8.29 2.38-12.37-1.17-3.9-6.1-5.66-9.63-3.86zM350.72 1209.11c1.93-.03 3.87-.03 5.81-.02-.01 7.2.08 14.4.02 21.61 4-.01 8 0 12 .02-.06 1.5-.11 3-.17 4.52-5.87.03-11.75.04-17.62-.01-.03-8.71-.03-17.42-.04-26.12zM371.86 1208.82c1.89.03 3.78.07 5.68.13.15 8.77-.01 17.55.07 26.33-1.93-.03-3.85-.02-5.76-.01-.08-8.82-.03-17.63.01-26.45zM383.43 1235.26c.02-8.84-.03-17.68.02-26.52 1.89 0 3.79.02 5.7.05.01 7.3.02 14.61.07 21.91 4-.02 8 0 12-.03-.01 1.5-.01 3.02-.02 4.55-5.92.02-11.85.02-17.77.04zM497.81 1220.03c5.05-2.81 9.97-5.83 15.04-8.61.03 5.79 0 11.6.02 17.4-5.03-2.92-10.1-5.75-15.06-8.79zM319.82 1211.41c5.16 3.19 10.43 6.2 15.88 8.89-5.18 3.34-10.46 6.53-15.79 9.64-.02-6.18-.04-12.36-.09-18.53z"/></g><g fill="#484845"><path d="M62.67 25.66C87.72 8.16 118.54-.6 149.03.27 324.34.2 499.65.17 674.97.1c13.55.44 26.97 3.22 39.98 6.95 18.33 5.82 35.6 15.25 50.22 27.76 22.81 19.02 39.21 45.88 44.44 75.22 2.57 13.35 1.98 27 1.98 40.52 1.46.48 2.94.95 4.41 1.48v561.25c-1.46.08-2.89.18-4.32.28.07 115.8.02 231.61.05 347.42-.07 22 .1 44-.11 66-.38 37.35-16.77 74.09-43.99 99.62-12.24 11.7-26.7 20.89-42.04 27.97-35.82 16.45-74.86 23.96-113.56 30.05-46.65 7.2-93.9 8.84-140.99 10.71-13.42.32-26.85.55-40.28.67h-13.39c-26.81-.21-53.61-1.19-80.38-2.59-46.57-2.1-93.03-6.94-138.95-14.98-21.5-3.61-42.8-8.48-63.71-14.65-14.62-3.95-29.06-8.73-42.69-15.38-27.64-12.76-52.04-33.66-66.31-60.82-6.16-11.88-10.9-24.55-13.55-37.68-2.46-11.47-2.75-23.24-2.64-34.92-.67-87.33-.79-174.67-1.4-262-.29-44.6-.41-89.19-.63-133.78-2.56-1.25-5.09-2.64-7.11-4.68V158.45c1.52-.77 3.04-1.53 4.56-2.29-.13-7.41-.13-14.81-.08-22.21.06-13.06 2.43-26.02 6.23-38.48 8.95-28.18 27.68-53.01 51.96-69.81m305.65 3.83c-72.77.11-145.53.05-218.3.2-37.18.25-74.42 17.49-97.05 47.28-16.13 20.57-25.03 46.83-24.4 72.99.22 28.33.06 56.67.55 84.99.23 74.04.57 148.08 1.07 222.11.27 57.32.37 114.64.96 171.95.63 160.99 1.5 321.98 2.42 482.96.92 30.76 11.3 61.58 31.08 85.36 11 13.53 24.91 24.61 40.35 32.66 18.84 10.58 39.94 16 60.77 21.07 69.21 15.91 140.38 20.46 211.17 22.51 53.69.96 107.45-.1 160.98-4.61 28.12-2.03 56.17-5.16 83.93-10.14 21-3.44 41.81-8.17 62.06-14.72 15.72-4.71 30.53-12.06 44.34-20.87 12.35-7.99 23.22-18.2 32.27-29.78 12.64-16.9 20.88-36.89 24.91-57.55 4.05-21.75 2.48-43.97 2.49-65.95-.25-253.65-.54-507.29-.73-760.94-.18-53.01.15-106.03-.29-159.04-.32-21.65-6.94-43.08-18.5-61.37-18-29.21-48.76-49.78-82.32-56.4-12.15-2.63-24.65-2.98-37.03-2.68-22.67-.54-45.35-.13-68.03-.26-70.9-.02-141.8.22-212.7.23z"/><path d="M123.89 39.28c9.87-2.35 20.04-3.09 30.15-2.97 167.66-.26 335.31-.77 502.97-.69 21.97.18 44.2 5 63.39 15.95 28.73 15.86 50.66 44.13 57.46 76.39 2.94 12.13 2.95 24.69 2.83 37.09.2 109.65-.03 219.3.43 328.94.07 93.44.16 186.89.19 280.33-12.67-.26-25.38.18-38.02-.7-1.92-1.78-3.26-4.06-4.75-6.17-7.33-10.62-15.24-20.83-22.6-31.43-1.07 1.09-2.74 2.53-1.2 4.04 8.69 12.55 17.9 24.75 26.62 37.29 13.32.28 26.65.25 39.98.35-.02 1.67-.02 3.36-.02 5.05-14.2.09-28.41.04-42.61-.12-7.62-11.04-16.05-21.47-24.18-32.13-3.57-4.21-6.24-9.23-10.39-12.89-.55.14-1.65.43-2.2.58 1.09 3.19 3.48 5.68 5.43 8.37 10.2 13.22 20.37 26.47 30.59 39.68 14.46.17 28.93-.06 43.4.06-.04 1.8-.05 3.64-.07 5.46-16.11-.09-32.23-.06-48.34-.19-2.16.41-3.1-1.84-4.22-3.19-8.8-12.83-18.42-25.07-27.46-37.72-3.69-4.96-7.04-10.19-11.23-14.75-37.67-.32-75.34-.68-113.01-.83-3.83.16-7.92-.85-11.57.39-4.47 5.07-7.49 11.24-11.58 16.62-6.2.09-12.4.26-18.6.41.01 1.09.03 2.19.06 3.3 6.68.06 13.36-.18 20.03-.44 4.04-5.1 7.52-10.6 11.35-15.85.61-1.22 1.95-1.37 3.17-1.26 39.53.26 79.07.66 118.6 1.09 12.71 16.96 25.1 34.16 37.85 51.09 1.51 1.86 2.71 4.87 5.65 4.35 16.47-.11 32.92.37 49.38.51-.1 15.4-.03 30.8-.07 46.2-247.63.12-495.26.04-742.89.05.02-15.96-.15-31.92-.14-47.88 25.3-.08 50.59.01 75.89-.11 1.94-.16 4.46.37 5.6-1.67 13.47-17.55 26.23-35.63 39.64-53.23 41.63-.06 83.26.01 124.9-.13 3.84 5.6 7.17 11.55 11.52 16.78 6.41-.03 12.84.13 19.22-.54-.07-.73-.22-2.19-.29-2.92-5.92-.05-11.84.01-17.76-.08-3.73-5.32-6.92-11.01-10.79-16.21-1.32-.57-2.81-.31-4.19-.4-41.05.07-82.1.1-123.15.08-1.88-.21-2.56 2-3.65 3.1-12.66 17.42-25.82 34.48-38.22 52.08-26.25.04-52.51-.22-78.76-.03l.03-5.27c22.91.1 45.83.07 68.73-.06 3.99.45 5.63-3.73 7.81-6.23 10.77-13.72 20.86-27.95 31.88-41.47a143 143 0 0 0-3.09-1.45c-11.22 14.67-22.56 29.27-33.53 44.13-.69 1.05-1.7 1.82-3.02 1.61-22.94.21-45.87.02-68.81.1v-5.54c21.94-.03 43.89-.37 65.82-.12 1.33.03 2.66-.42 3.43-1.55 8.36-11.03 16.16-22.48 24.47-33.55.9-1.41 2.3-2.79 1.96-4.61-2.27-1.63-3.51 1.27-4.8 2.69-7.1 9.88-14.51 19.56-21.41 29.59-1.32 1.53-2.17 4.39-4.68 3.98-21.6-.05-43.2.06-64.81.02-.59-54.52-.6-109.06-.92-163.59-.35-57.33-.67-114.66-.87-171.99-.7-96.33-.9-192.67-1.63-289 .41-19 4.83-38.17 14.82-54.5 15.32-27.79 43.46-47.54 74.28-54.29m422.47 24.1c-7.21 2.07-12.52 9.15-12.63 16.64-.79 9.58 7.7 18.42 17.15 18.75 6.5.38 13.04-3.12 16.31-8.76 4.12-6.74 2.96-16.08-2.52-21.73-4.43-5.11-11.95-6.68-18.31-4.9m54.04.13c-7.67 1.95-13.47 9.55-13.04 17.51-.06 9.34 8.46 17.49 17.68 17.63 10.57.47 20.18-10.12 18.19-20.65-1.4-10.31-12.87-17.65-22.83-14.49m-269.11 8.88c-4.71 2.05-8.53 8.05-5.66 12.99 2.04 4.29 6.82 6.39 11.41 6.08 46.34-.06 92.68-.08 139.02.01 4.93-.07 9.94.48 14.81-.51 3.23-.6 5.85-3.09 6.85-6.19 1.89-4.83-.77-11.01-5.78-12.61-3.9-1.02-7.97-.62-11.95-.67-47.34.05-94.68-.1-142.02.01-2.24.08-4.56.09-6.68.89m-5.13 48.86l-.06 34.66c7.37-.05 14.74.03 22.12-.01.01-1.41.02-2.81.04-4.22-5.85-.05-11.7-.02-17.54-.04-.01-10.14.06-20.28.05-30.42-1.54 0-3.08.01-4.61.03m28.22 0c-.05 11.64-.14 23.29 0 34.93 1.49-.01 2.98-.02 4.48-.02.22-11.65.43-23.3.01-34.95-1.5.01-3 .02-4.49.04m12.76-.06c-.08 11.58.04 23.16-.02 34.74 7.33-.05 14.67.03 22-.08v-4.22c-5.79.01-11.57.04-17.36.13-.01-10.21.07-20.42-.01-30.63-1.54.01-3.08.03-4.61.06m21.41.04c3.77 5.36 7.11 10.99 10.91 16.33 4.56 5.11 1.95 12.39 2.66 18.56 1.47 0 2.94.01 4.43.02.23-4.99-.21-10.01.29-14.99 4.07-6.92 8.98-13.35 13.33-20.11-2.16.29-5.08-.65-6.34 1.7-3.51 4.67-6.25 9.86-9.46 14.74-3.44-5.32-6.54-10.85-9.98-16.18-1.95-.02-3.9-.04-5.84-.07m37.72 6.97c-3.83 7.02-3.41 16.54 1.73 22.82 6.72 7.75 19.88 6.64 26.71-.33.44-4.28-.04-8.61.03-12.91-4.63.03-9.25.24-13.88.4-.02 1.23-.03 2.45-.04 3.68 3.24.03 6.47.05 9.71.05-.08 2.28.1 4.62-.46 6.85-5.05 4.49-13.82 4.68-18.4-.59-3.81-4.75-4.02-11.68-1.67-17.13 2.55-5.93 10.53-7.99 16.05-5.12 2.31 1.21 3.23 3.77 4.29 5.99 1.39-.12 2.78-.28 4.17-.48-.79-3.09-2-6.32-4.79-8.13-7.29-5.04-18.9-2.85-23.45 4.9m45.06-6.66c-13.75 4.52-14.71 26.84-2.03 33.2 7.66 4 18.42.71 21.85-7.41 3.15-7.35 2.54-17.18-3.72-22.74-4.24-3.98-10.7-4.79-16.1-3.05m-390.3 67.81c-.28 122.87-.06 245.76-.16 368.63.1 42.91-.18 85.84.23 128.73 27.64.83 55.29.29 82.94.45 182.33-.07 364.66.01 546.99-.03 10.23-.06 20.47.26 30.7-.2.07-62.31-.04-124.61.04-186.92-.14-103.55.17-207.1-.14-310.65-63.2-.22-126.39.03-189.58-.1-157.01.19-314.02-.23-471.02.09M416.3 718.43c-14.62 1.96-28.31 9.97-37.37 21.58-10.07 12.37-14.19 29.21-11.59 44.88 1.94 13.14 8.99 25.13 18.63 34.1 7.98 7.04 18.08 11.44 28.45 13.54 16.19 3.04 33.38-1.64 46.25-11.79 16.65-13.62 25.47-36.65 20.57-57.82-3.95-15.65-14.2-29.94-28.5-37.67-10.95-6.21-23.99-8.51-36.44-6.82m-169.19 25.36c5.13 8.57 10.15 17.22 14.79 26.07-4.82 8.69-10.06 17.13-14.67 25.93 10.23.21 20.46-.34 30.69-.56 5.16-8.4 10.3-16.83 15.36-25.3-4.55-9.03-10.41-17.33-15.15-26.26-10.33-.44-20.69-.32-31.02.12m-84.77-.12c5.19 8.47 9.84 17.27 15.2 25.65-5.06 8.77-10.76 17.21-14.9 26.49 10.12-.17 20.32.23 30.39-.49 5.41-8.36 10.15-17.16 15.36-25.65-4.65-8.9-10.15-17.32-15.05-26.08-10.33-.14-20.66-.03-31 .08m42.81.23c4.22 7.71 8.77 15.23 13.1 22.87.55 1.23 1.88 2.68.76 4.04-4.44 8.38-9.45 16.46-13.78 24.92 9.6.19 19.22.08 28.82-.15 2.15.24 2.83-2.23 3.89-3.6 4.11-7.47 8.48-14.79 12.62-22.24-4.58-8.93-9.5-17.78-15.14-26.09-10.09-.21-20.19-.3-30.27.25m352.37 26.08c5.14 8.67 10.57 17.18 15.74 25.84 9.75-.15 19.51.01 29.26.06-4.07-8.99-9.71-17.14-14.19-25.91 4.79-8.75 10.14-17.18 15.18-25.79-10.22-.48-20.46-.69-30.69-.59-4.71 9.01-9.77 17.85-15.3 26.39m56.86-25.83c-5.06 8.94-10.61 17.59-15.57 26.58 5.13 8.61 10.22 17.26 15.33 25.88 10.08.12 20.16.11 30.25.19-4.96-8.86-10.12-17.6-15.18-26.4 5.41-8.44 10.1-17.31 15.15-25.96-9.99-.23-19.99-.17-29.98-.29m26.31 26.45c5.53 8.78 10.7 17.78 16.05 26.66 9.9-.09 19.8.03 29.71-.05-4.14-9.18-9.88-17.5-14.47-26.44 4.78-8.73 9.85-17.29 14.7-25.98-9.89-.17-19.78-.24-29.66-.45-5.76 8.55-10.65 17.65-16.33 26.26M125.3 797.57c2.04-.07 4.08-.13 6.12-.18 2.97-3.96 6.16-7.73 9.29-11.56-2.05.02-4.1.03-6.14.03-3.16 3.85-6.4 7.64-9.27 11.71m18.1-11.75c-2.73 4.09-5.9 7.85-8.68 11.91 2.41-.36 5.55.57 7.24-1.71 2.89-3.22 5.33-6.81 8.06-10.16-2.21-.02-4.41-.03-6.62-.04m9.35.88c-3.13 3.47-5.93 7.25-8.76 10.97 1.86-.04 3.73.05 5.58-.19 3.63-3.29 6.35-7.44 9.54-11.14-2.06-.02-4.75-1.5-6.36.36m554.3.61c3.08 3.45 5.83 7.19 9.03 10.53 2.31.76 4.87.24 7.29.45-2.87-3.04-5.32-6.43-8.18-9.46-1.97-2.44-5.46-1.18-8.14-1.52m-17.95.27c2.99 3.51 5.85 7.14 8.82 10.68 2.43.05 4.85.08 7.29.15-3.19-3.51-6.05-7.3-9.11-10.91-2.34 0-4.67.02-7 .08m8.69-.16c3.15 3.62 6.46 7.09 9.52 10.78 2.18-.02 4.36-.05 6.56-.05-2.71-3.67-5.67-7.16-8.7-10.57-2.46-.06-4.93-.12-7.38-.16z"/><path d="M472.37 125.5c5.09-2.06 11.74-.18 14.14 4.99 2.68 5.91 2.68 13.98-2.13 18.82-5.07 5.05-14.65 3.38-17.53-3.23-3.08-6.81-2.12-17.27 5.52-20.58zM698.83 1112.44c27.69-.2 55.39-.25 83.09-.71-1.12 22.41-6.45 44.96-17.79 64.48-14.49 26.76-40.26 45.71-68.17 56.73-23.68 9.85-48.92 15.1-74.09 19.55-25.41 4.58-51.09 7.65-76.85 9.44-78.78 7.01-158.1 7.04-237.01 2.13-43.35-2.87-86.68-7.67-129.22-16.72-19.07-3.99-38.15-8.53-56.19-16.03-15.14-5.96-29.02-14.92-41.21-25.64-13.2-12.38-24.2-27.39-30.8-44.32-6.02-13.97-9.26-28.98-10.54-44.1 28.8-.4 57.59-.54 86.39-.69.16 12.85.41 25.69.47 38.54.18 7.37.23 15.23 4.31 21.68 4.65 8.36 14.29 13.13 23.7 13.02 113.01-1.12 226.03-2.04 339.04-3.05 26.68-.29 53.36-.44 80.05-.57 34.3-.57 68.62-.66 102.93-.86 6.53-.23 13.18-2.91 17.31-8.13 3.34-3.91 4.72-9.12 4.64-14.19-.01-16.85-.09-33.7-.06-50.56m33.48 18.04c-8.22 1.35-14.28 9.27-14.23 17.47-.49 8.04 5.43 15.68 13.07 17.85 6.74 2.04 14.58-.12 19.24-5.43 5.31-6.52 5.75-16.69.47-23.36-4.23-5.59-11.78-7.97-18.55-6.53m-642.99 1.98c-7.2 1.01-13.61 6.5-15.42 13.58-2.37 8.22 2.18 17.7 10 21.1 6.79 2.81 15.28 1.58 20.6-3.63 5.84-5.37 7.35-14.62 3.66-21.61-3.27-6.87-11.46-10.61-18.84-9.44m591.47 71.56c-.62 1.99.11 4.03.45 6.02-2.58 2.54-4.8 5.46-7.56 7.82-50.31.19-100.69.31-151.03.29 0 .84.01 2.5.01 3.34 50.83-.1 101.66-.08 152.49-.22 2.76-2.9 5.51-5.81 8.19-8.78 2.8.63 6.1 1.44 8.59-.53 4.54-3.12 3.12-11.11-2.02-12.75-3.66-1.49-8.21 1.01-9.12 4.81m-544.41-.62c-3.02 3.09-2.35 8.58 1.22 10.97 2.43 2.09 5.68.94 8.41.32 3.34 2.8 5.54 7.7 9.87 8.88 51.54.25 103.08-.88 154.62-.69.04-.84.11-2.52.15-3.36-51.62-.15-103.24 1.11-154.86.72-2.6-2.51-5.02-5.19-7.43-7.89.44-2.3 1.22-4.74.16-6.97-1.7-4.79-8.98-5.94-12.14-1.98m262.47 5.19c3.24 4.89 6.63 9.71 9.48 14.84.64 3.9.13 7.91.3 11.86 1.9-.03 3.81-.04 5.72-.04.55-4.73-1.16-10.07 1.68-14.27 2.46-4.28 5.09-8.46 7.84-12.55-2.11.04-4.22.09-6.32.15-2.14 3.34-4.21 6.74-6.17 10.2-1.95-3.41-4.02-6.75-6.03-10.11-2.17-.02-4.33-.04-6.5-.08m27.29 6.51c-2.4 5.74-1.68 13.31 3.26 17.52 5.72 4.91 14.62 3.45 19.85-1.49-.17-3.44-.39-6.88-.43-10.32-3.68.18-7.35.31-11.03.35.02 1.41.04 2.82.07 4.25 2-.06 4.01-.1 6.02-.08.83 5.31-6.01 6.72-9.59 4.44-5.65-3.91-5.16-14.61 1.78-16.84 2.58-.96 4.99.49 6.91 2.1 1.69 1.53 4.12.34 6.13.31-3.12-10.04-19.39-9.65-22.97-.24m36.12-6.85c-11.07 1.95-13.01 18.05-5.29 24.78 4.04 3.04 9.86 3.41 14.42 1.33 8.51-4.36 9.68-18 2.15-23.83-3.15-2.51-7.43-2.87-11.28-2.28m-111.54.86c.01 8.7.01 17.41.04 26.12 5.87.05 11.75.04 17.62.01.06-1.52.11-3.02.17-4.52-4-.02-8-.03-12-.02.06-7.21-.03-14.41-.02-21.61-1.94-.01-3.88-.01-5.81.02m21.14-.29c-.04 8.82-.09 17.63-.01 26.45 1.91-.01 3.83-.02 5.76.01-.08-8.78.08-17.56-.07-26.33-1.9-.06-3.79-.1-5.68-.13m11.57 26.44c5.92-.02 11.85-.02 17.77-.04.01-1.53.01-3.05.02-4.55-4 .03-8 .01-12 .03-.05-7.3-.06-14.61-.07-21.91-1.91-.03-3.81-.05-5.7-.05-.05 8.84 0 17.68-.02 26.52m114.38-15.23c4.96 3.04 10.03 5.87 15.06 8.79-.02-5.8.01-11.61-.02-17.4-5.07 2.78-9.99 5.8-15.04 8.61m-177.99-8.62c.05 6.17.07 12.35.09 18.53 5.33-3.11 10.61-6.3 15.79-9.64-5.45-2.69-10.72-5.7-15.88-8.89z"/><path d="M734.36 1133.32c7.97-1.37 15.93 4.79 17.03 12.7 1.28 8.14-5.29 16.28-13.37 17.24-8.42 1.41-16.59-5.9-17.02-14.23-.64-7.72 5.9-14.71 13.36-15.71m-1.12 3.84c-3.67.94-6.61 3.87-7.71 7.48-2.09 5.47 1.15 12.22 6.75 13.99 5.98 2.51 13.74-1.16 15-7.68 2.44-7.94-6.09-16.51-14.04-13.79zM90.35 1135.48c8.96-.94 17.85 7.4 16.67 16.54-.85 8.8-10.38 15.53-18.95 12.93-7.95-1.93-13.54-10.96-11.02-18.87 1.55-5.96 7.31-10.07 13.3-10.6m-3.26 4.26c3.34 6.85 8.09 12.88 11.98 19.41 1.64-2.22 3.69-4.36 4.18-7.17.82-4.52-1.59-9.45-5.75-11.46-3.17-1.88-6.96-1.12-10.41-.78m-6.51 7.93c-1.62 5.21 1.33 11.38 6.48 13.29 2.82 1.21 5.93.48 8.86.23-3.77-6.52-7.62-13.01-11.98-19.15-1.22 1.8-2.6 3.55-3.36 5.63zM686.16 1202.23c2.9-1.61 6.18 1.79 5.37 4.74-.48 3.42-5.91 4.03-7.37 1.01-1.24-2.02-.24-4.97 2-5.75zM140.38 1204.42c2.39-.65 5.61.77 5.55 3.56.41 3.62-4.81 5.96-7.16 3.2-2.05-1.93-1.32-6.18 1.61-6.76zM462.32 1213.26c3.53-1.8 8.46-.04 9.63 3.86 1.24 4.08 1.01 9.35-2.38 12.37-3.47 2.98-9.39 1.1-10.69-3.24-1.37-4.32-1.07-10.63 3.44-12.99z"/></g><path fill="#20201e" d="M546.36 63.38c6.36-1.78 13.88-.21 18.31 4.9 5.48 5.65 6.64 14.99 2.52 21.73-3.27 5.64-9.81 9.14-16.31 8.76-9.45-.33-17.94-9.17-17.15-18.75.11-7.49 5.42-14.57 12.63-16.64z"/><g fill="#787878"><path d="M600.4 63.51c9.96-3.16 21.43 4.18 22.83 14.49 1.99 10.53-7.62 21.12-18.19 20.65-9.22-.14-17.74-8.29-17.68-17.63-.43-7.96 5.37-15.56 13.04-17.51zM331.29 72.39c2.12-.8 4.44-.81 6.68-.89 47.34-.11 94.68.04 142.02-.01 3.98.05 8.05-.35 11.95.67 5.01 1.6 7.67 7.78 5.78 12.61-1 3.1-3.62 5.59-6.85 6.19-4.87.99-9.88.44-14.81.51-46.34-.09-92.68-.07-139.02-.01-4.59.31-9.37-1.79-11.41-6.08-2.87-4.94.95-10.94 5.66-12.99zM416.3 718.43c12.45-1.69 25.49.61 36.44 6.82 14.3 7.73 24.55 22.02 28.5 37.67 4.9 21.17-3.92 44.2-20.57 57.82-12.87 10.15-30.06 14.83-46.25 11.79-10.37-2.1-20.47-6.5-28.45-13.54-9.64-8.97-16.69-20.96-18.63-34.1-2.6-15.67 1.52-32.51 11.59-44.88 9.06-11.61 22.75-19.62 37.37-21.58m3.9 16.81c-12.14.97-23.23 8.19-29.99 18.16-5.75 8.79-7.77 19.89-5.66 30.17 1.81 10.45 8.18 19.93 17.01 25.75 16.45 11.61 41.65 8.39 54.2-7.53 8.51-9.68 11.36-23.57 8.38-35.99-3.06-12.09-11.95-22.57-23.44-27.46-6.43-2.75-13.55-3.74-20.5-3.1zM732.31 1130.48c6.77-1.44 14.32.94 18.55 6.53 5.28 6.67 4.84 16.84-.47 23.36-4.66 5.31-12.5 7.47-19.24 5.43-7.64-2.17-13.56-9.81-13.07-17.85-.05-8.2 6.01-16.12 14.23-17.47m2.05 2.84c-7.46 1-14 7.99-13.36 15.71.43 8.33 8.6 15.64 17.02 14.23 8.08-.96 14.65-9.1 13.37-17.24-1.1-7.91-9.06-14.07-17.03-12.7zM89.32 1132.46c7.38-1.17 15.57 2.57 18.84 9.44 3.69 6.99 2.18 16.24-3.66 21.61-5.32 5.21-13.81 6.44-20.6 3.63-7.82-3.4-12.37-12.88-10-21.1 1.81-7.08 8.22-12.57 15.42-13.58m1.03 3.02c-5.99.53-11.75 4.64-13.3 10.6-2.52 7.91 3.07 16.94 11.02 18.87 8.57 2.6 18.1-4.13 18.95-12.93 1.18-9.14-7.71-17.48-16.67-16.54z"/><path d="M733.24 1137.16c7.95-2.72 16.48 5.85 14.04 13.79-1.26 6.52-9.02 10.19-15 7.68-5.6-1.77-8.84-8.52-6.75-13.99 1.1-3.61 4.04-6.54 7.71-7.48zM87.09 1139.74c3.45-.34 7.24-1.1 10.41.78 4.16 2.01 6.57 6.94 5.75 11.46-.49 2.81-2.54 4.95-4.18 7.17-3.89-6.53-8.64-12.56-11.98-19.41zM80.58 1147.67c.76-2.08 2.14-3.83 3.36-5.63 4.36 6.14 8.21 12.63 11.98 19.15-2.93.25-6.04.98-8.86-.23-5.15-1.91-8.1-8.08-6.48-13.29z"/></g><path fill="#585858" d="M81.03 189.35c157-.32 314.01.1 471.02-.09 63.19.13 126.38-.12 189.58.1.31 103.55 0 207.1.14 310.65-.08 62.31.03 124.61-.04 186.92-10.23.46-20.47.14-30.7.2-182.33.04-364.66-.04-546.99.03-27.65-.16-55.3.38-82.94-.45-.41-42.89-.13-85.82-.23-128.73.1-122.87-.12-245.76.16-368.63z"/><g fill="#010101"><path d="M420.2 735.24c6.95-.64 14.07.35 20.5 3.1 11.49 4.89 20.38 15.37 23.44 27.46 2.98 12.42.13 26.31-8.38 35.99-12.55 15.92-37.75 19.14-54.2 7.53-8.83-5.82-15.2-15.3-17.01-25.75-2.11-10.28-.09-21.38 5.66-30.17 6.76-9.97 17.85-17.19 29.99-18.16zM720.39 852.53c7.51-.12 15.02-.2 22.54-.05 8.75.17 17.29 6.77 18.62 15.62.91 6.59.39 13.27.54 19.91-.13 8.35.32 16.71-.23 25.05-.88 9.7-10.48 16.46-19.77 16.58-8.05.05-16.14.41-24.16-.19-9.61-1.01-17.43-9.79-17.57-19.4-.14-12.97-.1-25.94.07-38.91.34-10.27 9.88-18.58 19.96-18.61m11.58 28.59c2.85 2.34 8.46 3.01 9.98-1.18-2.75.49-6.04 1.8-8.47-.27-5.91-4.01-2.34-16.6 5.47-14.35 4.43 1.66 4.36 7.66 1.97 11.01-.92-2-1.7-4.36-4.39-4.08.4.95 1.21 2.86 1.61 3.82-.91-.36-2.71-1.06-3.61-1.41.06-1.07.25-2.11.43-3.14.85-.36 1.71-.72 2.57-1.06.82.95 1.65 1.91 2.49 2.88.73-1.92.88-3.93.34-5.89-2.64.91-6.44.61-7.62 3.73-1.19 2.36-.77 6.73 2.62 6.71 2.31-.5 4.85.49 7.02-.49 4.89-4.41 1.83-15.02-5.38-14.52-8.55.33-11.5 13.37-5.03 18.24m-9.63 31.29c1.22-.47 4.37.11 3.79-2.19.05-2.49-.01-4.98-.03-7.46 2.56-.12 5.2.04 7.68-.72 5.86-1.95 6.3-12.31.11-14.07-3.8-.76-7.71-.53-11.55-.67-.27 8.37-.17 16.74 0 25.11zM75.43 853.73c6.04-1.73 12.39-.91 18.58-1.05 6.22.2 12.97-.67 18.56 2.7 6.31 3.39 9.89 10.58 9.93 17.61-.04 13.21.11 26.43-.05 39.64-.52 9.61-9.12 17.49-18.62 17.88-7.89.15-15.8.06-23.69.01-10.24-.13-19.4-9.25-19.26-19.56-.05-13-.05-26.01.01-39.01-.07-8.51 6.53-16.01 14.54-18.22m3.22 10.46c-1.34.24-2.88.28-3.39 1.88.77.11 2.3.32 3.07.43-.06 2.66-1.95 4-3.76 5.56.64.08 1.91.23 2.55.31-.23 1.33-.44 2.67-.65 4.02.46.09 1.4.27 1.87.36.19-1.48.36-2.94.53-4.4.9.01 2.71.02 3.61.03-.16 1.51-.32 3.04-.49 4.57l2.01-.64c.15-1.4.32-2.78.49-4.16.66.04 1.99.11 2.65.14l.16-1.8c-.62.01-1.87.01-2.49.01.1-.97.29-2.92.39-3.89.87-.12 2.62-.35 3.5-.47-.98-.6-1.95-1.19-2.94-1.76.39-1.85.79-3.83-.76-5.29-.55 1.83-.97 3.68-1.42 5.56l-2.9.08c.16-1.85.31-3.69.44-5.52-2.26.73-2.03 3.12-2.47 4.98m2.98 25.26c-2.02 4.98-1.7 11.1 1.22 15.68 1.76 2.82 5.12 3.72 8.14 4.5 1.32 1.87 2.58 4.21 5.01 4.78 2.32.39 5.47.3 5.56-2.82-2.66-.15-5.19-.99-7.44-2.38 9.03-2.82 11-15.24 5.84-22.26-4.59-6.07-15.5-4.51-18.33 2.5zM146.46 853.77c5.01-1.64 10.35-.99 15.53-1.07 5.03.1 10.07-.24 15.08.28 6.94.77 13.21 5.61 15.75 12.11 1.37 3.46 1.53 7.24 1.5 10.93-.04 11.98.06 23.96-.12 35.94-.16 6.49-4.01 12.64-9.7 15.74-6.12 3.92-13.67 2.57-20.53 2.79-6.53-.3-13.48 1.06-19.6-1.9-6.89-2.92-11.81-10.07-11.64-17.62.01-13.33-.2-26.67.04-40 .2-7.97 6.2-14.93 13.69-17.2m5.55 11.39c1.03-.09 3.1-.28 4.14-.37.26 4.7-.78 9.56.62 14.14.39-.44 1.17-1.33 1.56-1.77.51-5.12.1-10.32.16-15.46-2.38.7-4.93 1.34-6.48 3.46m-4.75 21.64c1.83 8.12 3.27 16.31 4.89 24.48 1.44-.03 2.88-.05 4.32-.07 2.32-6.09 3.79-12.45 5.94-18.59 1.28 6.21 2.51 12.44 4.24 18.56 1.53 0 3.07 0 4.61.01 1.84-8.17 3.87-16.29 6.01-24.37l-3.98-.2c-1.58 6.64-2.98 13.33-4.32 20.03-1.95-6.48-3.15-13.16-5.07-19.65-1.16.37-3.24-.27-3.64 1.29-2.17 6-3.76 12.21-5.45 18.37-1.33-6.65-2.3-13.36-3.57-20.02-1.33.04-2.65.09-3.98.16zM218.39 853.62c5.72-1.65 11.75-.86 17.62-1.04 6.83.21 14.34-.87 20.39 3.05 5.98 3.56 9.24 10.5 9.27 17.33.09 12.37.05 24.73.04 37.1.07 3.77-.79 7.62-2.85 10.83-3.88 6.38-11.57 9.66-18.88 9.34-7.01-.19-14.04.21-21.05-.19-9.43-.65-18.21-8.33-18.69-18.04-.18-13.65-.03-27.32.01-40.98-.05-8.26 6.51-15.17 14.14-17.4m4.86 12.37c1.27-.36 2.55-.73 3.82-1.08 2.06-1.1 4.51 1.49 3.67 3.53-1.11 4.65-6.78 6.05-7.83 10.7 3.47 0 6.96.08 10.43-.15l.68-2.19c-2.53-.02-5.06.03-7.59.07 3.07-2.86 8.07-5.94 6.68-10.85-1.24-4.58-8.51-4.55-9.86-.03m4.36 20.94c-.01 8.21.16 16.42-.1 24.63 5.03-.04 10.07-.04 15.1-.14 0-1.06.01-2.1.01-3.14-3.69-.02-7.38-.05-11.07-.05-.03-2.69-.04-5.37-.05-8.05 3.1.04 6.2.03 9.3.04 0-.73-.01-2.19-.02-2.91-3.13-.08-6.26-.11-9.39-.11.01-2.38 0-4.74.02-7.1 3.68.02 7.36.02 11.04.13-.01-.79-.02-2.37-.02-3.16-4.94.07-9.89.16-14.82-.14zM289.48 853.75c4.69-1.5 9.67-1.28 14.53-1.31 4.98.04 9.97-.07 14.94.34 7.27.66 14.37 5.35 16.87 12.36 1.88 4.37 1.45 9.21 1.5 13.86-.06 10.67.08 21.35-.12 32.03-.06 6.95-4.22 13.62-10.44 16.73-5.71 3.19-12.46 2.34-18.73 2.45-6.28-.3-12.78.76-18.86-1.26-7.69-2.35-13.49-9.85-13.36-17.95.03-13.02-.05-26.05.06-39.08.04-8.19 5.75-15.85 13.61-18.17m6.79 11.48c2.44-.33 7.31-2.4 7.62 1.65-.48 2.77-3.81 2.6-5.83 3.38 1.47 2.09 5.52.73 5.7 3.86.24 4.48-5.37 2.05-8.04 2.33 2.28 3.83 8.64 3.52 10.54-.44.89-2.14-.56-4-1.97-5.41.87-1.41 2.46-2.84 1.8-4.66-.84-4.39-8.59-5.2-9.82-.71m2.53 21.07c-.01 8.34.06 16.69.04 25.04 1.31-.06 2.62-.12 3.93-.17.03-3.47.05-6.93.14-10.39 1.28.39 3.08.04 3.9 1.36 2.17 2.87 3.71 6.14 5.49 9.26 1.36-.05 2.72-.09 4.08-.12a59.046 59.046 0 0 0-6.16-10.28c5.66-1.76 7.2-10.5 1.85-13.47-4.15-1.8-8.87-1.07-13.27-1.23zM360.5 853.8c4.68-1.55 9.67-1.06 14.51-1.19 5.35.04 10.72-.24 16.05.32 6.67.74 12.8 5.23 15.4 11.44 1.48 3.32 1.9 7 1.87 10.62.03 11.99.09 23.98-.07 35.97-.05 6.98-4.12 13.89-10.5 16.87-6.43 3.27-13.84 2.13-20.78 2.37-7-.12-14.78.94-20.86-3.35-5.71-3.55-9.09-10.14-8.97-16.82.01-13-.14-26.01.02-39.01.17-7.88 6.06-14.72 13.33-17.22m12.79 6.71c-5.65 5.76-6.33 17.24 1.25 21.72.31-2.98-2-5.29-2.4-8.13-1.08-4.85.97-9.63 3.41-13.71l-2.26.12m-5.17 25.14v3.06l7.71.03c-.07 7.13-.2 14.26-.13 21.39 1.31.01 2.61.03 3.93.05.08-7.15.03-14.3-.05-21.45 2.39 0 4.79.04 7.19.08.03-1.12.07-2.23.1-3.33-6.25.04-12.5.17-18.75.17zM434.22 853.21c4.18-.89 8.49-.52 12.73-.62 5 .03 10.01-.36 15.01.08 7.47.74 14.6 5.98 16.61 13.38 1.37 3.83 1.06 7.94 1.08 11.94-.05 10.69.04 21.38-.05 32.07.03 6.57-3.34 13.08-8.96 16.57-6.01 4.13-13.66 3.46-20.58 3.5-6.5-.22-13.29.78-19.5-1.62-7.37-2.86-12.29-10.64-12.15-18.47.04-12.96-.21-25.92.08-38.87.38-8.71 7.22-16.35 15.73-17.96m19.09 7.31c1.08 3.51 3.38 6.72 3.36 10.53.09 4.36-2.27 8.18-3.89 12.08 1.15-.58 2.58-.76 3.48-1.76 4.01-5.25 4.58-13.01.84-18.55-.8-1.36-2.53-1.65-3.79-2.3m-14.66 25.68c2.62 4.6 5.52 9.08 7.78 13.88.61 3.53.11 7.14.14 10.72 1.25.02 2.51.05 3.77.09.47-4.34-.83-9.14 1.66-13.03 2.25-3.87 4.77-7.58 6.81-11.56-.96.13-2.87.38-3.82.51-2.65 3.16-4.36 7.02-6.25 10.66-1.79-3.84-4.12-7.38-6.12-11.1-1.33-.07-2.65-.13-3.97-.17zM503.39 853.62c7.02-1.92 14.4-.75 21.58-1.1 6.02-.28 12.49.14 17.47 3.93 5.01 3.46 7.96 9.46 7.97 15.52.06 12.68.06 25.37 0 38.05.18 7.03-3.56 14.14-9.89 17.4-6.5 3.85-14.3 2.68-21.5 2.88-5.86-.2-12.09.72-17.58-1.84-6.67-3.19-12.03-9.97-11.98-17.58-.1-13.32-.19-26.63-.01-39.94.08-8.11 6.48-14.94 13.94-17.32m17.09 23.71c.29.37.88 1.12 1.17 1.5 3.11.51 6.3.28 9.45.32 1.72.34 2.16-1.54 2.08-2.81-4.16 1.04-8.47.6-12.7.99m-10.29 9.4c.02 5.41-.18 10.84.01 16.26.08 2.3.94 4.6 2.57 6.27 4.64 4.76 14.63 2.57 15.73-4.37.7-6 .23-12.06.3-18.08-1.22-.04-2.42-.06-3.62-.06-.05 5.1.12 10.21-.04 15.31-.18 1.6-.18 3.47-1.39 4.71-2.79 2.97-8.9 1.55-9.44-2.72-.92-5.73.08-11.56-.21-17.33-1.31-.01-2.61-.01-3.91.01zM574.4 853.59c5.07-1.44 10.4-.84 15.6-1 6.96.15 14.5-.99 20.84 2.61 6.47 3.32 10.19 10.64 10.06 17.79-.03 12.96.09 25.92-.1 38.87-.29 9.06-7.84 16.91-16.75 18.01-7.64.9-15.37.14-23.05.32-7.46.16-15.22-3.55-18.66-10.39-3.54-6.36-2.44-13.86-2.61-20.83.13-9.32-.29-18.67.2-27.97.52-8.13 6.61-15.38 14.47-17.41m17.24 18.25c1.1 3.73 5.41 1.64 8.25 1.96.03-.5.08-1.5.1-2-2.79.01-5.57-.04-8.35.04m-4.33 15.71c-.07 8.22-.1 16.43-.13 24.65 1.21-.04 2.43-.07 3.66-.09.52-8.16-.15-16.34.04-24.5-1.2-.04-2.39-.05-3.57-.06zM643.46 853.75c5.63-2 11.69-1.03 17.54-1.25 6.7.21 13.91-1.03 20.06 2.35 6.19 2.96 10.66 9.39 10.64 16.35.12 13.59.14 27.18-.01 40.77-.18 8.63-7.45 15.7-15.52 17.63-7.63 1.35-15.45.42-23.16.71-6.26.42-12.77-1.65-17.22-6.16-3.73-3.68-5.6-8.97-5.46-14.16-.09-12.7-.12-25.39-.1-38.09-.12-8.09 5.48-15.8 13.23-18.15m21.41 11.53c-.21 2.12-.28 4.27-.36 6.42-1.83.01-3.66.02-5.47.06.03.48.11 1.42.15 1.89 1.73-.01 3.46-.02 5.21.01.07 2.14.12 4.31.45 6.45 2.32-1.5 1.43-4.33 1.69-6.59 1.91-.03 3.82-.07 5.74-.09l-.03-1.68c-1.93-.02-3.84-.02-5.75-.01-.38-2.18.89-5.23-1.63-6.46m-10.5 22.25c-7.06 3.15-7.53 12.77-4.91 19.07 2.68 6.54 12.27 7.86 17 2.86 3.91-4.3 4.17-10.94 2.34-16.21-1.97-5.67-9.14-7.97-14.43-5.72z"/><path d="M80.01 866.45c1.16 0 2.31.01 3.47.04-.27 1.33-.56 2.67-.86 4.02-1.09-.03-2.19-.04-3.28-.06.22-1.34.44-2.67.67-4zM87.63 887.68c3.03-2.24 7.95-1.52 9.65 2.02 1.76 3.83 1.73 8.56.14 12.46-1.73 4.56-9.02 5.2-11.3.78-2.56-4.62-2.52-11.49 1.51-15.26zM302.8 889.46c2.58.14 5.61-.67 7.8 1.12 2.45 2.24.74 6.9-2.5 7.24-1.78.16-3.55.07-5.32.05-.03-2.81-.03-5.61.02-8.41zM657.15 890.13c2.79-.96 6.19.28 7.46 3.01 2.17 4.27 1.98 9.82-.67 13.84-3.09 3.97-10.06 2.44-11.37-2.39-1.56-4.9-1.31-12.67 4.58-14.46zM725.85 890.36c2.49.3 5.46-.47 7.57 1.19 1.64 1.96 2.04 5.73-.46 7.22-2.01 1.29-4.53.83-6.78.98-.23-3.13-.31-6.27-.33-9.39zM436.33 939.38c8.23-.17 16.49-.34 24.72.02 9.85.7 17.88 9.78 17.82 19.57.06 12.69.08 25.39 0 38.09.05 7.69-4.84 15.17-11.97 18.09-4.36 1.94-9.24 1.63-13.89 1.67-5.34-.07-10.68.07-16.02-.07-7.52-.23-14.85-5.04-17.55-12.15-2.36-5.57-1.62-11.72-1.73-17.59.06-9.68-.17-19.36.1-29.03.38-9.74 8.76-18.21 18.52-18.6m21.44 12.94c-.32 1.32-1.22 2.85.09 3.98.8-.17 2.17.3 2.45-.8 1.18-1.79-1.29-2.65-2.54-3.18m.65 10.17c-2.72.38-.5 5.19 1.42 3.21 1.72-.78.5-4.05-1.42-3.21m-16.66 13.16c-.05 8.2-.04 16.41 0 24.62l3.89-.04c0-3.71-.01-7.42 0-11.12 3.84-.01 7.68-.06 11.53-.02-.01 3.72.01 7.44-.02 11.17 1.24-.01 2.48 0 3.73.02 0-8.24-.02-16.48-.04-24.71-1.23-.03-2.45-.04-3.67-.04.02 3.31.01 6.62-.03 9.94-3.83.08-7.66.08-11.48.19-.04-3.35-.04-6.68.02-10.01-1.32-.02-2.63-.01-3.93 0zM578.36 939.45c7.52-.28 15.06-.21 22.58-.13 8.03.15 15.84 5.2 18.67 12.81 2.15 5.36 1.37 11.25 1.53 16.89-.09 9.69.2 19.39-.16 29.08-.34 8.79-7.33 16.66-16 18.11-7.57 1.3-15.31.36-22.95.67-7.99.48-16.49-3.52-19.97-10.96-3.32-6.84-2.02-14.62-2.28-21.94.17-8.98-.38-17.99.31-26.94.84-9.3 8.95-17.09 18.27-17.59m16.12 23.47c2.11-1.36 3.86-3.33 4.47-5.82-3.07-1.8-4.75 3.41-4.47 5.82m-13.39 12.62c.12 8.22-.46 16.44-.09 24.67 1.18 0 2.36.01 3.55.04.09-3.74-.33-7.62 1.23-11.13 3.85 3.07 6.35 7.39 9.44 11.17 1.46-.03 2.93-.06 4.41-.08-3.16-4.5-6.67-8.74-10.1-13.03 3.2-3.85 6.18-7.88 9.49-11.63-1.09-.02-3.28-.07-4.38-.09-3.14 3.85-6.28 7.72-9.78 11.26-.13-3.72-.09-7.44-.06-11.15-1.24-.03-2.48-.04-3.71-.03zM648.4 939.58c8.37-.35 16.78-.29 25.16 0 9.56.51 17.96 8.77 18.24 18.41.19 13.34.16 26.69-.01 40.04.01 7.11-4.58 13.71-10.98 16.65-6.13 3.11-13.17 1.9-19.76 2.14-7.01-.24-14.64 1.13-20.91-2.84-6.21-3.2-9.47-10.22-9.42-17-.02-12.99-.21-25.98-.05-38.96.28-9.5 8.36-17.61 17.73-18.44m16.61 24.64c1.66-.36 2.55-1.47 2.56-3.13.9-.79 1.8-1.56 2.72-2.32a89.88 89.88 0 0 0-2.3-2.74c-2.03 2.26-2.76 5.22-2.98 8.19m6.45-7.04c.06.58.18 1.74.23 2.32-.91 1.3-3.31 3.46-.66 4.47 2.47-1.33 2.57-4.56 3.54-6.9-1.04.02-2.08.05-3.11.11m-17.67 18.65c-.03 8.09-.03 16.18.03 24.28 4.78.06 9.56.09 14.35.08 0-.84.01-2.53.02-3.37-3.59-.02-7.18-.07-10.76-.12.07-7.01.05-14.02.03-21.02-.92.04-2.75.11-3.67.15zM715.46 939.72c5.37-1.56 11.02-.85 16.54-1.02 6.99.08 14.64-.65 20.82 3.3 5.71 3.63 9.46 10.19 9.47 16.99.09 12.31.05 24.63.08 36.94.15 7.62-4.21 15.21-11.22 18.41-6.55 3.41-14.12 2.32-21.22 2.51-5.48-.15-11.23.66-16.43-1.52-7.68-3-12.59-11.22-12.68-19.32-.09-10.36-.01-20.72-.06-31.08.03-4.1-.19-8.3 1.01-12.27 2.21-6.12 7.4-11.17 13.69-12.94m1.41 51.5c2.52 3.74 4.71 7.73 7.39 11.35 6.53.32 13.07-.09 19.6.01.05-7.6-.02-15.2.05-22.8-6.63-.08-13.25-.11-19.88-.03-2.21 3.93-4.79 7.63-7.16 11.47zM79.23 940.3c7.94-.09 15.88-.13 23.82-.07 9.92.23 18.64 9.08 18.54 19.05.09 13.22.14 26.44-.02 39.66-.08 9.92-8.87 18.44-18.68 18.74-8.09.02-16.19.17-24.28-.08-9.66-.5-18.08-8.89-18.4-18.59-.1-13.34-.04-26.69-.01-40.03-.03-10.05 9.31-18.27 19.03-18.68m-.42 11.46c.04 1.55.09 3.14.15 4.72-1.92-.68-3.93-1.93-5.97-.63 1.51 1.45 3.46 2.19 5.39 2.91-1.14 1.06-2.27 2.12-3.39 3.2.7.77 1.4 1.55 2.11 2.34.99-1.44 1.98-2.88 2.97-4.3.89 1.29 1.73 2.62 2.69 3.89 1.25.21 1.68-1.19 2.33-1.94-1.01-1.16-2.18-2.2-3.28-3.25 1.47-.6 2.97-1.1 4.41-1.75-.25-.67-.75-2-1-2.66-1.29.77-2.56 1.59-3.85 2.39-.04-1.67-.07-3.35-.13-4.99-.61.02-1.82.05-2.43.07m4.42 22.74c-3.25 8.37-6.74 16.65-9.67 25.16 1.38.01 2.76.04 4.14.07.87-2.34 1.66-4.71 2.42-7.08 3.38-.06 6.76-.06 10.14-.09.68 2.37 1.32 4.75 1.95 7.15 1.53-.01 3.06-.03 4.6-.01-2.85-8.41-6-16.71-8.81-25.13-1.59-.04-3.18-.06-4.77-.07zM149.26 940.29c8.61-.32 17.24-.03 25.87-.11 9.77.15 17.77 9.26 18.09 18.78.23 11.68.02 23.37.1 35.06.04 4.43-.02 9.13-2.32 13.08-3.49 5.94-9.99 10.38-17.02 10.42-7.29.08-14.58-.02-21.87-.02-7.82-.08-15.7-4.71-18.73-12.07-2.07-4.85-1.6-10.23-1.65-15.37.07-10.37-.11-20.73.08-31.09.2-9.44 8.04-17.8 17.45-18.68m2.68 12.6c-2.51 3.36-4.81 6.89-7.18 10.36 2.77.46 5.58.51 8.38.52 0 1.31 0 2.63.02 3.97.58-.08 1.75-.23 2.33-.31.03-1.23.04-2.44.06-3.65 1.13-.39 2.27-.73 3.4-1.12-.81-.17-2.42-.5-3.23-.66-.22-3.66-.3-7.32-.55-10.96-1.15.44-2.5.74-3.23 1.85m2.22 22.32c-4.23 1.49-5.68 7.93-2.26 10.94 2.85 2.54 7.08 2.64 9.97 5.11 2.19 2.11-.2 5.73-2.81 5.94-2.94.53-5.61-.98-8.07-2.34-.46.62-1.37 1.85-1.82 2.46 3.37 3.17 8.54 3.97 12.84 2.45 3.93-1.49 6.07-6.84 3.55-10.39-2.52-3.62-7.56-3.42-10.79-6.05-1.87-1.62-.83-4.52 1.39-5.09 2.82-1.39 5.68.26 8.28 1.32.22-1.29 1.42-2.99-.39-3.58-2.88-1.92-6.72-1.85-9.89-.77zM218.43 940.63c5.38-1.42 11.01-.69 16.51-.86 6.07.22 12.51-.78 18.19 1.87 7.31 3.33 11.71 11.45 11.59 19.34 0 12.48.11 24.97-.06 37.46 0 7.29-4.8 14.17-11.46 17.02-5.68 2.7-12.15 1.52-18.21 1.79-6.93-.29-14.4 1.17-20.79-2.22-6.64-3.33-10.99-10.58-10.9-17.99.04-13.13-.11-26.27.18-39.39.31-8.33 7.18-15.02 14.95-17.02m1.67 19.58c2.06-.24 4.11-.47 6.18-.56.42 1.64 1.6 3.46.43 5.09-1.56 2.9-4.95.36-7.34.17.71 5.1 10.02 3.95 10.36-1.09.91-3.99-3.13-7.45-6.96-6.06.02-1.31.03-2.61.04-3.9 2.39-.4 6.22 1.33 6.77-2.15-3.02-.11-6.04-.11-9.06-.08-.07 2.86-.22 5.71-.42 8.58m1.33 15.17c-.07 8.22-.05 16.45-.01 24.69 4.24-.02 8.65.39 12.73-1.02 9.26-3.36 9.7-18.98.56-22.77-4.24-1.53-8.87-.75-13.28-.9zM290.16 940.22c5.86-1.26 11.92-.44 17.86-.68 5.6.27 11.58-.92 16.79 1.71 7.09 3.3 11.58 11.04 11.45 18.8.01 12.65.05 25.32-.06 37.97-.17 8.67-6.8 16.66-15.3 18.36-4.92.85-9.94.35-14.89.52-7.52-.18-15.89 1.16-22.41-3.53-5.73-3.73-8.86-10.58-8.68-17.33.06-12.33-.11-24.67.06-36.99.13-8.72 6.61-16.95 15.18-18.83m.44 14.38c-2.55 4.11-2.71 11.33 2.36 13.57 4.73 1.53 8.71-4.22 6.21-8.28-1.74-3.05-5.63-1.95-8.31-1.18 1.35-3.2 4.01-5.73 7.7-5.38l.02-1.85c-2.93-.06-6.41.23-7.98 3.12m3.2 21.13c-.02 8.31-.07 16.62 0 24.93 1.31.05 2.62.1 3.93.16.03-3.71.04-7.42-.01-11.12 3.26.03 6.53.01 9.8 0l.06-3.16c-3.3.09-6.59.12-9.89.14-.06-2.61-.09-5.2-.06-7.79 3.84-.02 7.68-.03 11.53-.06-.01-1.05-.01-2.1 0-3.12-5.13-.03-10.25-.01-15.36.02zM362.16 940.2c5.56-1 11.24-.41 16.85-.59 5.56.15 11.43-.79 16.68 1.55 7.07 2.83 11.96 10.17 11.95 17.79.1 10.35-.01 20.71.01 31.07.28 7.73.03 16.77-6.6 22.02-5.67 5.37-13.84 4.9-21.06 4.81-5.62-.12-11.28.28-16.87-.34-9.34-1.34-16.62-10.13-16.69-19.47-.24-12.99-.2-25.97-.05-38.95.22-8.78 7.28-16.32 15.78-17.89m7.04 11.83c-2.64 5.51-5.8 11.17-5.88 17.44l2.05-.5c1.05-2.51 1.59-5.22 2.13-7.87 1.12-2.85 3.12-5.52 3.29-8.62-.4-.12-1.19-.34-1.59-.45m-3.88 28.35c-3.59 5.55-3.55 14.18 1.88 18.58 4.7 3.49 11.3 2.59 16.03-.38.02-3.59.04-7.17.12-10.74-2.99-.01-5.98 0-8.96.03-.07.96-.12 1.93-.17 2.92 1.83.02 3.67 0 5.51.01-.15 2.06.23 4.27-.56 6.26-2.46 1.41-5.55 1.41-8.02.04-7.28-4.03-5.15-18.08 3.79-18.22 2.72-.4 5.48 2.76 7.84.3-3.93-6.04-13.77-4.29-17.46 1.2zM505.98 939.87c7.97-.68 16-.22 24-.35 10.07-.25 19.65 8.26 19.83 18.48.08 13.01.04 26.02-.02 39.04.01 6.58-3.09 13.39-8.95 16.74-6.48 4.3-14.55 2.8-21.86 3.07-6.22-.26-12.87.89-18.64-2.02-6.81-3.08-11.41-10.31-11.38-17.77-.17-10.02-.08-20.05-.12-30.07.08-5.66-.49-11.7 2.3-16.86 2.85-5.63 8.73-9.24 14.84-10.26m14.2 16.14c1.08.44 2.59 2.08 3.68.92 1.67-1.02-.37-2.56-.78-3.77-1.02.89-2 1.84-2.9 2.85m-.22 12.01c.38.88 1.33 1.27 2.06 1.86.48-2.48 4.11-5.41 1.2-7.53-1.24 1.79-2.46 3.62-3.26 5.67m-2.24 8.16c-.07 6.29 0 12.59-.1 18.89.14 1.88-1.45 3.88-3.44 3.64-1.98-.26-3.35-1.92-4.89-3-.74.75-1.47 1.51-2.19 2.28 2.07 2.17 4.78 4.21 7.97 3.88 3.2.04 6.17-2.59 6.22-5.84.26-6.7-.01-13.42.05-20.12-.91.07-2.71.2-3.62.27z"/><path d="M148.49 961.57c1.39-2.27 2.83-4.51 4.27-6.74.07 2.24.12 4.49.19 6.74-1.49-.01-2.98-.01-4.46 0zM291.54 960.53c1.55-.38 3.11-.73 4.68-1 2.34 2.31 1.54 7.4-2.38 6.93-2.08-1.22-1.89-3.89-2.3-5.93zM81.38 989.58c1.21-4.01 2.63-7.94 3.94-11.92 1.38 3.9 2.57 7.87 3.89 11.8-2.61.05-5.22.09-7.83.12zM225.33 978.17c3.57.2 8.11-.28 10.26 3.29 2.7 4.45 2.14 11.58-2.61 14.46-2.29 1.29-5.03.88-7.54 1.04-.15-6.26-.04-12.53-.11-18.79zM719.33 991.07c2.22-2.98 4.2-6.11 6.19-9.24 5.38.02 10.77.08 16.17.05 0 6.17 0 12.34.11 18.51-5.54-.12-11.08.09-16.61-.13-1.95-3.07-3.89-6.14-5.86-9.19m7.96-6.91c.28 2.98 2.23 5.29 4.28 7.31-1.91 2.04-4.52 4.11-4.18 7.23 2.66-.76 4.1-3.13 5.64-5.2 1.85 2.03 3.32 5.33 6.63 4.89-1.19-2.62-3.12-4.76-4.63-7.16 1.56-2.22 3.44-4.24 4.5-6.78-3.3-.49-4.92 2.71-6.56 4.92-1.51-2.12-2.57-5.25-5.68-5.21zM718.53 1025.64c7.8-.65 15.66-.24 23.48-.21 7.51-.01 15.02 4.15 18.31 11.02 2.58 4.76 2.26 10.3 2.2 15.53-.12 10.87.16 21.74-.06 32.6-.53 9.43-8.66 17.45-18.05 18.05-8.13.33-16.28.22-24.41.16-10.22-.34-18.83-9.58-18.87-19.72-.01-13.05-.17-26.11.07-39.15.14-9.35 8.19-17.31 17.33-18.28m18.7 37.92c-.32 4.63.71 9.48-.7 13.97-2.66 1.36-5.81.52-8.66.7.02-.71.07-2.14.1-2.86-3.68.62-6.81 2.84-9.99 4.65 2.92 2.6 6.51 4.19 10.04 5.78-.04-.86-.12-2.56-.17-3.42 4.09-.8 10.04 1.65 12.38-3.02 2.1-4.97.62-10.57.99-15.8-1.34-.01-2.68-.03-3.99 0zM294.34 1026.43c6.89-.29 13.79-.06 20.69-.1 5.72-.13 11.57 1.91 15.55 6.12 4.38 4.26 5.86 10.62 5.68 16.56-.09 12.03.17 24.07-.15 36.1-.27 7.64-5.7 14.57-12.83 17.1-7.53 2.32-15.54.9-23.29 1.31-6.92.37-14.67-.55-19.59-5.97-4.67-4.53-5.93-11.32-5.55-17.58.04-10.32.02-20.65.02-30.97.06-5.22.64-10.87 4.1-15.04 3.67-4.68 9.57-7.04 15.37-7.53m1.05 19.13c1.91 2.02 4.73.91 7.07.59-.99 3.01-3.57 4.74-6.73 4.27-.04.69-.08 1.4-.11 2.12 3.48.38 7.04-1.21 8.32-4.62 1.55-3.99 1.47-10.91-3.9-11.74-5.07-1.08-8.43 6.05-4.65 9.38m4.51 17.35c-3.73 5.17-3.75 12.99.08 18.11 3.78 4.81 11.38 4.54 15.67.56l-1.51-2.31c-3.12 2.46-8.29 3.01-10.9-.45-3.33-4.56-3.17-12.51 2.01-15.66 2.67-1.66 5.82-.51 8.36.8.53-.62 1.58-1.86 2.11-2.48-4.67-3.43-12.15-3.49-15.82 1.43zM365.2 1026.24c8.2-.2 16.41-.16 24.61.06 9.65.52 17.63 9.16 17.77 18.75.22 12.32.04 24.66.08 36.99.09 5.95-1.84 12.22-6.47 16.19-3.83 3.49-9.05 5.15-14.17 5.09-7.69 0-15.41.37-23.08-.15-9.26-.85-17.03-8.99-17.58-18.25-.28-10.97-.05-21.95-.14-32.91.07-4.78-.44-9.8 1.62-14.26 3.12-6.6 10.13-11.07 17.36-11.51m.93 13.21c2.53-1.19 5.91-1.67 7.46 1.24-1.22 1.41-2.52 2.77-3.74 4.2-1.95 2-1.68 5.31-.44 7.65.7-.33 2.09-.97 2.79-1.29-.43-1.03-.8-2.06-1.13-3.09.82-2.78 3.97-4.27 4.42-7.2.57-1.99-.81-4.15-2.85-4.39-2.59-.34-6.98-1.17-6.51 2.88m-1.7 20.07c2.83 8.34 5.32 16.8 8.15 25.16 1.34-.05 2.69-.03 4.03-.18 3.54-8.15 6.36-16.61 9.71-24.85-1.45.05-2.89.11-4.33.19-1.98 7.06-4.54 13.94-7.12 20.79-2.22-6.98-3.97-14.11-6.48-21-.99-.03-2.97-.09-3.96-.11zM432.4 1026.7c5.43-1.4 11.09-.73 16.64-.85 6.3.13 13.05-.78 18.86 2.23 6.68 3.18 11.04 10.43 10.97 17.8.05 12.38.06 24.76 0 37.14.21 7.99-5 15.74-12.41 18.67-6.2 2.28-12.94 1.38-19.4 1.58-6.59-.12-13.7.74-19.68-2.61-6.19-3.54-9.69-10.71-9.7-17.72-.2-11.31-.01-22.62-.03-33.92-.01-5.07.49-10.49 3.56-14.72 2.61-3.83 6.8-6.33 11.19-7.6m22.78 10.4c.23 5.43.06 10.86.11 16.3.64.01 1.9.04 2.53.06.08-5.45.08-10.89.03-16.33-.67-.01-2-.02-2.67-.03m-14.06 23.04c-.03 8.22.04 16.43-.01 24.65 4.55-.2 9.41.81 13.74-.93 4.63-2.48 4.2-9.43-.09-12.07 2.78-3 3.14-8.66-.88-10.74-4.02-1.63-8.53-.68-12.76-.91zM506.15 1026.18c7.9-.57 15.86-.28 23.77-.2 7.45-.12 14.94 4.11 18.06 10.99 1.85 3.71 1.97 7.96 1.88 12.03-.1 11.98.14 23.97-.13 35.96-.2 6.54-4.21 12.76-10.08 15.65-6.33 3.43-13.76 2.34-20.65 2.55-6.84-.16-14.32.95-20.43-2.86-5.97-3.54-9.8-10.27-9.67-17.22.02-13.04-.3-26.1.07-39.13.33-9.17 8.12-16.98 17.18-17.77m21.11 17.3c-1.17 2.06-2.33 4.17-2.79 6.54 2.62-1.22 4.35-3.56 5.42-6.17-.66-.1-1.97-.28-2.63-.37m-16.71 16.43c.06 8.26.01 16.53.1 24.8l3.76.08c.04-6.31-.04-12.6-.07-18.9 3.94 5.77 7.59 11.72 11.39 17.58.81 1.88 3.1.97 4.7 1.24-.03-8.27-.09-16.55-.06-24.82-.94 0-2.81.01-3.75.01-.16 6.3-.21 12.61.02 18.92-3.72-6.56-8.08-12.71-12.33-18.92-.94 0-2.82.01-3.76.01zM574.45 1026.74c5.73-1.5 11.7-.77 17.55-.92 5.96.11 12.34-.64 17.85 2.16 6.78 3.23 11.21 10.51 11.26 17.99.08 12.67.09 25.36 0 38.04-.2 8.2-6.07 15.87-13.99 18.06-6.89 1.88-14.11.93-21.15 1.18-5.79.14-12.02.11-16.98-3.31-5.99-3.83-9.33-10.88-9.2-17.9.09-12.35-.19-24.72.16-37.06.2-8.41 6.18-16.38 14.5-18.24m22.64 21.46c1.97-.1 1.99-2.07 2.36-3.52l-2.51-.2c-1.64.7-1.5 3.07.15 3.72m.13 12.25c-2.84 5.11-4.17 10.94-6.89 16.14-2.1-5.54-4.47-11.01-7.14-16.29-1.46-.1-2.91-.14-4.36-.13-.04 8.35-.27 16.7-.26 25.06 1.01-.01 3.03-.02 4.04-.02-.06-6.37-.07-12.72-.16-19.08 2.11 4.47 3.71 9.19 6.08 13.53 1 2.08 3.63.74 4.21-.94 2.21-4.18 3.73-8.67 5.5-13.03.03 6.24-.47 12.47-.32 18.71 1.01.99 2.56.64 3.85.92.22-8.39.04-16.78 0-25.16-1.53.04-3.05.04-4.55.29zM645.54 1026.68c5.35-1.47 10.96-.73 16.44-.93 7.05.13 14.79-.86 21 3.22 5.92 3.47 9.18 10.32 9.11 17.07-.01 12.32.08 24.64-.06 36.96.07 6.23-2.49 12.69-7.85 16.17-6.92 5.24-16.05 3.74-24.14 3.98-7.17.05-15.12.65-21.14-4.04-5.55-3.8-8.27-10.59-8.21-17.16.08-12.31-.15-24.62.06-36.91.14-8.59 6.44-16.4 14.79-18.36m16.4 15.91c-1.27.17-4.15-.32-3.34 1.96-.11.67-.32 2.01-.42 2.68l-2.36-1.92c1.24 1.5 2.49 2.99 3.8 4.44.62-.13 1.84-.41 2.46-.54.55 2.52 2.31 5.18 5.32 3.97.33-1.87.01-3.76-.02-5.61 2.3.79 3.26 3.46 5.44 4.28 2.62-.55 2.73-3.69 2.74-5.83.11-2.93-1.84-5.7-4.62-6.57-.04.95-.11 2.85-.15 3.8-1.2.38-2.41.73-3.6 1.1.31-1.75 1.29-3.63.1-5.25-2.38-.18-5.31.58-5.35 3.49m-2.97 19.53c-3.33 1.21-7.12 3.82-6.21 7.94.34 3.56 3.91 4.91 6.53 6.55-.02 2.39-.04 4.79-.12 7.21-2.26-.26-4.36-1.76-6.64-1.36-1.45 3.79 3.94 4.06 6.44 4.41l-.08 4.01c.87-.09 1.74-.23 2.61-.41.07-1.19.09-2.36.04-3.52 3.29-.8 6.55-3.27 6.27-7.01.14-3.82-3.6-5.76-6.46-7.32.01-2.25.04-4.49.1-6.72 1.72.26 3.44.58 5.2.72.85-3.24-2.66-3.19-4.73-3.82a41.07 41.07 0 0 0-.76-3.27c-1.86-.29-2.58.57-2.19 2.59zM76.62 1027.86c7.77-.83 15.61-.27 23.41-.48 7.13-.38 14.67 2.89 18.5 9.06 2.55 4 2.97 8.9 2.95 13.54-.06 12.33.07 24.66-.08 36.99-.12 10.06-9.69 17.9-19.35 18.17-8.04.09-16.1.27-24.14-.14-9.66-.55-17.84-9.31-17.97-18.94-.06-13.35-.13-26.71.06-40.05.04-9.16 7.9-16.69 16.62-18.15m12.69 32.8c.25 7.46-.73 15.09.65 22.45.92.17 2.75.52 3.67.7-2.6-7.48-.69-15.54-1.2-23.29-.78.03-2.34.11-3.12.14m8.94 2.7c-.23 1.32-.33 2.67-.35 4.04-.66.3-1.98.9-2.65 1.2-.11 1.56 1.65 1.53 2.68 2.06-.01 3.69-.62 7.52.36 11.13 1.01 2.48 4.07 1.95 6.22 2.07.08-.57.25-1.7.34-2.27-1.25-.26-2.49-.55-3.72-.87-.87-3.43-.27-7.03-.5-10.51 1.32-.1 2.64-.14 3.96-.24.03-.53.07-1.61.1-2.15-1.34.01-2.67.03-4 .07-.03-1.5-.06-2.99-.1-4.46-.58-.01-1.76-.05-2.34-.07m-21.86 4.31c-1.52.48-4.02 1.08-2.93 3.21 2.17-.23 4.3-1.6 6.5-.91 1.42.59 1.37 2.36 1.9 3.61-2.7.55-5.87.24-8.05 2.24-2.4 1.82-2.41 6.41.62 7.61 2.57 1.14 5.22-.32 7.62-1.18.27.58.81 1.75 1.08 2.33 2.1-2.39 1.32-5.74 1.45-8.62-.2-2.41.23-5.12-1.27-7.19-1.81-1.8-4.62-1.69-6.92-1.1zM147.44 1027.6c5.8-.96 11.73-.27 17.59-.39 5.41.25 11.15-.7 16.23 1.69 6.72 2.9 11.58 9.67 11.83 17.05.26 10.67.01 21.36.1 32.05-.07 4.62.31 9.39-1.22 13.85-1.94 5.37-6.45 9.67-11.81 11.57-5.51 2.03-11.48 1.11-17.21 1.33-6.38-.28-13.05.89-19.14-1.59-7.34-2.73-12.57-10.37-12.23-18.23.01-12.63-.05-25.27 0-37.89-.1-9.19 6.92-17.59 15.86-19.44m3.23 8.13c-.02.54-.06 1.62-.07 2.16 2.66-.06 5.33-.07 8-.05-2.44 4.43-5.74 9.45-4.87 14.66l1.75-.76c1.19-5.61 3.57-10.77 5.95-15.94-3.59-.07-7.17-.04-10.76-.07m2.74 23.07l.04 3.49c4.34-.05 8.68-.19 13.03-.17-2.5 3.3-5.09 6.54-7.71 9.76-2.52 3.33-5.76 6.48-6.25 10.87 6.3.23 12.61.07 18.91.04-.01-1.16-.01-2.31-.01-3.45-4.67.03-9.33-.03-13.99-.04 4-5.26 8.27-10.3 12.3-15.53 1.15-1.39 1.4-3.22 1.76-4.9-6.02-.12-12.05-.05-18.08-.07zM221.15 1027.21c7.96-.31 15.93-.06 23.89 0 6.62 0 13.25 3.47 16.67 9.21 2.34 3.71 2.98 8.2 2.94 12.52.01 12.36.13 24.72.03 37.08.04 7.69-5.63 14.69-12.77 17.14-3.12 1.24-6.51 1.45-9.83 1.38-6.04-.01-12.08 0-18.12.03-7.37.23-14.89-3.8-18.31-10.41-1.84-3.39-2.52-7.29-2.43-11.1.07-12.37-.05-24.74.06-37.11-.03-9.67 8.58-17.73 17.87-18.74m1.33 11.22c-1.2 1.99.4 3.97 1.42 5.63-1.24 1.44-2.96 2.89-2.42 5.05 1.48 4.49 9.47 4.71 10.58-.11.63-2.06-1.13-3.68-2.15-5.21.75-1.42 2.4-2.83 1.65-4.58-1.22-3.79-7.26-4.37-9.08-.78m.85 21.83c2.41 3.77 5.34 7.21 7.59 11.1-1.95 4.45-5.41 8.27-8.11 12.36 1.55-.07 3.12.05 4.67-.19 2.16-2.97 4.04-6.14 5.95-9.27 1.87 2.9 3.52 5.95 5.59 8.73 1.18 1.64 3.53.5 5.21.8-2.73-4.02-5.71-7.85-8.37-11.92 2.69-4.03 5.57-7.94 8.16-12.04-1.53.23-3.15.13-4.59.75-2.31 2.59-3.8 5.79-5.65 8.72-1.98-2.93-3.78-5.97-5.65-8.96-1.61-.04-3.21-.06-4.8-.08z"/><path d="M225.12 1041.82c-1.64-1.75.52-3.46 1.82-4.45.77.99 2.58 1.65 2.37 3.19-.1 2.04-3.09 3.56-4.19 1.26zM298.37 1038.22c2.3-.91 4.45 1.58 3.85 3.81 0 2.25-3.63 3.8-4.9 1.66-1.6-1.63-.99-4.54 1.05-5.47zM225.6 1045.56c1.57-1 3.14.58 3.92 1.85.84 2.41-2.8 4.24-4.38 2.48-1.65-1.05-.82-3.35.46-4.33zM673.02 1048.2c-2.25.47-2.19-3.89-.01-3.52 1.15.69 1.2 2.8.01 3.52zM444.73 1063.17c2.08.03 4.2-.12 6.26.31 2.2.54 3.15 3.45 1.72 5.23-1.6 2.8-5.27 1.63-7.9 1.92-.05-2.5-.09-4.98-.08-7.46zM659.06 1072.65c-2.9-.89-3.95-6.76 0-6.42.13 2.13.05 4.28 0 6.42zM444.84 1073.63c2.98.18 6.94-1.27 9 1.65 1.83 2.27-.06 6.1-2.9 6.3-2.04.26-4.1.15-6.14.14-.04-2.7-.01-5.4.04-8.09zM74.48 1078.78c1.38-2.65 4.36-2.91 7.01-3.15.02 1.55.02 3.11 0 4.69-1.82.48-3.65.92-5.51 1.27-.37-.7-1.13-2.11-1.5-2.81zM661.34 1076.53c1.31.97 3.07 2.07 2.97 3.96.01 1.58-1.49 2.42-2.49 3.41-.28-2.46-.48-4.92-.48-7.37zM327.24 1114.33c53.24-.45 106.51 0 159.77-.19 5.43.19 11.17-.78 16.27 1.63 6.23 2.74 10.68 9.29 10.55 16.16.07 9.03.06 18.06-.08 27.1-.14 9.65-9.15 17.83-18.69 17.65-54.72.1-109.43.09-164.14.05-7.13.32-14.44-3.69-17.43-10.27-3.11-6.39-1.56-13.67-1.93-20.48.44-7.58-1.5-15.87 2.62-22.75 2.55-4.88 7.71-8.04 13.06-8.9m38.36 20.17c.09 4.69.06 9.39.02 14.09 1.36.62 2.75 1.33 4.3 1.2 16.02-.08 32.05-.05 48.07-.05 9.12-.25 18.31.57 27.39-.46 1.3-5.09.57-10.38.75-15.55-.88-.02-2.62-.07-3.49-.1.05 4.18.07 8.37.04 12.56-24.51.17-49.02-.04-73.53.1-.04-3.96-.26-7.92-.27-11.87-1.1.01-2.19.04-3.28.08zM544.35 1114.57c13.64-.38 27.33-.21 40.98-.03 9.36.15 17.55 8.2 17.95 17.53.11 8.29.12 16.6.02 24.91-.1 6.43-3.81 12.59-9.33 15.85-3.6 2.09-7.85 2.67-11.95 2.57-12-.09-24 .06-36-.05-6.55.05-13.07-3.57-16.03-9.48-3.44-6.07-2.21-13.27-2.47-19.91.28-6.28-.74-12.72 1.02-18.83 2.04-6.94 8.64-12.04 15.81-12.56m-1.69 28.81c2.03 1.97 5.44 2.08 6.96 4.65-1.92 4.01-5.54-.51-8.47.56 1.63 4.33 9.2 4.97 10.6.24.7-3.06-2.51-4.69-4.79-5.73-.98-.73-3.89-1.69-2.04-3.26 2.24-1.09 4.74.62 7.1.51-1.04-2.87-4.28-3.1-6.84-2.93-2.81.14-3.79 3.81-2.52 5.96m10.99-7.34c.07 5.38 3.5 9.86 4.69 14.99-.37.99-.79 1.97-1.25 2.94-1.77.42-3.46 1.09-2.96 3.32 1.6-.64 3.72-.64 4.76-2.24 2.23-2.93 2.75-6.68 4.1-10.02.87-2.95 3.34-5.75 2.05-8.95-2.93 3.45-3.79 7.99-5.28 12.14-1.81-4.16-2.32-9.18-6.11-12.18m15.12 1.24c-.98 4.73-.45 9.61-.35 14.42.54 0 1.64-.01 2.18-.01.12-3.3-.02-6.6.36-9.87.23-2.03 2.8-1.86 4.2-2.65 2.43 3.87.98 8.62 1.53 12.91.62-.14 1.86-.4 2.48-.53.28-3.17-.03-6.34.21-9.48.07-2.43 3.77-3.89 4.9-1.32 1.28 3.35-.07 7.14.96 10.57.51.26 1.51.76 2.02 1.02.05-4.29 1.06-8.94-.51-12.99-1.88-3.28-5.96-2.24-8.22-.01-.86-.77-1.69-1.56-2.61-2.23-1.73.18-3.32.93-4.95 1.46-.74-.44-1.48-.88-2.2-1.29zM629.28 1114.34c13.88-.49 27.81-.13 41.71-.18 6.41-.2 13.05 2.66 16.49 8.25 4.06 5.72 2.72 13.04 2.96 19.62-.14 5.99.55 12.04-.3 18-1.41 8.14-8.67 15.26-17.14 15.26-13.68 0-27.35.14-41.02-.09-6.68-.16-13.37-3.68-16.52-9.69-3.48-6.27-2.36-13.67-2.56-20.52.28-7.21-1.13-14.96 2.46-21.59 2.69-5.21 8.3-8.17 13.92-9.06m9.62 40.44l3.93.04c.02 2.58-.01 5.18-.02 7.79 3.83-.06 7.66-.1 11.49-.14.01-2.59.01-5.16-.03-7.73 1.43 0 2.87 0 4.32.02-3.06-5.56-6.76-10.73-9.68-16.36-3.4 5.42-6.49 11.03-10.01 16.38zM151.33 1115.42c13.57-.12 27.14 0 40.71-.03 9.63.16 17.86 9.04 17.67 18.59.04 8.6.12 17.2-.02 25.8-.2 10.84-10.95 19.64-21.63 18.1-12.04 0-24.08-.03-36.12.03-10.47.35-19.71-9.42-18.7-19.87.06-8.6-.12-17.2.09-25.79.62-9.15 9.01-16.48 18-16.83m4.39 33.79c1 .01 2.99.02 3.99.03.03 2.65.04 5.3.06 7.97 3.87.03 7.73.01 11.6-.02.01-2.64-.01-5.26.07-7.88 1.35-.13 2.71-.23 4.07-.31-3.55-5.26-6.8-10.72-9.83-16.29-3.15 5.6-6.3 11.21-9.96 16.5zM238.37 1115.44c13.87-.2 27.76-.04 41.63-.02 9.57-.23 18.4 8 18.71 17.58.07 8.66.1 17.32 0 25.98-.1 7.73-5.4 15.28-12.85 17.59-2.53.83-5.21.96-7.86.96-12.68-.02-25.36.06-38.04.04-7.05-.09-13.86-4.42-16.76-10.87-2.91-6.5-1.41-13.83-1.81-20.71.35-6.37-.88-13.07 1.46-19.16 2.67-6.2 8.78-10.76 15.52-11.39m-1.92 11.04c-4.05 2.42-3.79 8.11-2.79 12.13.75 3.6 5.71 5.02 8.22 2.3 2.56-3.05 2.29-7.56 1.39-11.19-.7-2.92-4.13-4.47-6.82-3.24m17.01 10.97c-3 3.02-1.46 7.85-1.6 11.67-.02 4.79 7.84 5.21 8.83.74.67-3.53.75-7.29-.12-10.77-1.45-2.09-4.96-3.39-7.11-1.64m-5.97 8.21c-.19 2.82-.05 5.81 1.65 8.22 1.21 2.56 5.11 2.15 5.86 5.1-1.94.56-4.61.05-5.68 2.25 4.26 1.03 8.7.27 13.04.37-.05-.53-.14-1.58-.19-2.11-1.69-.04-3.37-.06-5.05-.09.04-.74.09-1.47.14-2.18 2.17-.55 4.58-1.18 5.85-3.2 1.87-2.54 3.51-7.25-.18-8.96-.47 2.59.21 5.89-2.05 7.84-2.19 2.28-5.86 2.02-8.49.75-2.69-1.85-2.36-5.45-2.8-8.29-.52.07-1.57.22-2.1.3z"/><path d="M236.65 1139.21c-1.44-3.9-2.13-9.69 2.33-11.87 2.62 3.1 3.12 7.63 1.58 11.32-.72 1.58-2.88 2.22-3.91.55z"/></g><g fill="#e9e9e8"><path d="M731.97 881.12c-6.47-4.87-3.52-17.91 5.03-18.24 7.21-.5 10.27 10.11 5.38 14.52-2.17.98-4.71-.01-7.02.49-3.39.02-3.81-4.35-2.62-6.71 1.18-3.12 4.98-2.82 7.62-3.73.54 1.96.39 3.97-.34 5.89-.84-.97-1.67-1.93-2.49-2.88-.86.34-1.72.7-2.57 1.06-.18 1.03-.37 2.07-.43 3.14.9.35 2.7 1.05 3.61 1.41-.4-.96-1.21-2.87-1.61-3.82 2.69-.28 3.47 2.08 4.39 4.08 2.39-3.35 2.46-9.35-1.97-11.01-7.81-2.25-11.38 10.34-5.47 14.35 2.43 2.07 5.72.76 8.47.27-1.52 4.19-7.13 3.52-9.98 1.18zM665.01 964.22c.22-2.97.95-5.93 2.98-8.19.78.89 1.54 1.8 2.3 2.74-.92.76-1.82 1.53-2.72 2.32-.01 1.66-.9 2.77-2.56 3.13z"/></g></svg>