<svg width="976pt" height="1088pt" viewBox="0 0 976 1088" xmlns="http://www.w3.org/2000/svg"><path d="M95.57 627.69c1.04-.03 2.08-.06 3.12-.07.08 6.29-.01 12.58-.12 18.88-1.04-.04-2.08-.06-3.11-.08.06-6.24.03-12.49.11-18.73zm-16.27.2c.8-.05 2.41-.13 3.22-.17.13 5.34.05 10.68-.05 16.02 3.44-.01 6.89 0 10.34.09-.04.68-.11 2.03-.14 2.7-4.42-.01-8.84-.04-13.25-.13-.02-6.18-.09-12.35-.12-18.51zm22.77-.08c.8-.01 2.42-.04 3.22-.05.07 5.26.03 10.52.03 15.78 3.44 0 6.87.05 10.31.12-.01.69-.02 2.08-.02 2.78-4.49-.09-8.98-.09-13.48-.06.12-6.19.08-12.38-.06-18.57zm15.99-.52c4.96-.09 5.6 5.79 8.11 8.89 2.33-3.36 3.18-9.39 8.43-8.88-2.17 3.88-5.1 7.38-6.67 11.58-.33 2.51-.18 5.05-.17 7.59-1.05-.02-2.09-.03-3.13-.03-.07-2.65.42-5.39-.25-7.97-1.9-3.84-4.46-7.32-6.32-11.18zm22.17.97c4.05-1.8 11.46-.35 11.21 5.14-3.44.42-5.72-4.39-9.33-2.79-3.62 1.46-2.96 6.17-2.71 9.3.19 3.29 4.31 5.07 7.03 3.51 1.5-.76 1.64-2.61 2.28-3.96-1.72-.57-5.84.15-4.03-2.74 2.38-.58 4.85-.26 7.26-.02-.3 2.52.13 5.47-1.7 7.52-3.7 4.29-12.04 3.15-13.69-2.55-.96-4.56-1.19-10.98 3.68-13.41zm19.08.05c3.31-1.54 8.01-1 9.98 2.38 1.97 3.35 1.73 7.61.77 11.25-1.95 6.17-12.12 6.53-14.47.48-1.77-4.73-1.58-11.76 3.72-14.11m1.94 2.05c-4.21 1.71-3.81 7.5-2.67 11.09 1.57 4.08 8.55 2.87 8.75-1.49 1.15-4.1-.48-11.22-6.08-9.6zm633.5 25.42c.99-1.35 2.28-2.41 3.77-3.18.26 3.52.08 7.05-.04 10.58 3.27-.04 6.54 0 9.81.08.05 2.68.03 5.37-.03 8.06-3.22.1-6.44.13-9.65.04-.02 3.1.17 6.22-.21 9.32-1.46.94-2.32-1.04-3.28-1.8-3.26-3.89-6.67-7.66-9.68-11.75 2.94-3.91 6.28-7.5 9.31-11.35zm-461.37 83.36c3.83.32 7.92-.48 11.58.95 4.27 2.63 3.09 9.03-.87 11.39 1.46 2.9 2.91 5.8 4.46 8.67-.92-.01-2.75-.04-3.66-.05-1.47-2.82-2.69-5.8-4.53-8.4-1.32-.36-2.68-.45-4.01-.62-.04 3.05-.03 6.12-.07 9.18-.7-.08-2.12-.24-2.82-.31-.38-6.93-.04-13.88-.08-20.81m2.86 2.99c0 2.17.01 4.34.03 6.53 2.82-.34 7.42 1.13 8.34-2.69.58-4.91-5.32-3.69-8.37-3.84zm70.3-.46l.12-2.6c4.88 0 9.77.01 14.65-.01 0 .89.01 1.79.01 2.7-1.98.01-3.95.02-5.92.04.1 5.97-.02 11.95.09 17.93-.75.05-2.24.13-2.99.18-.22-6.03 0-12.06-.02-18.09-1.98-.06-3.96-.09-5.94-.15zm58.96-2.58c1.27.37 3.21-.15 3.84 1.38 1.5 2.72 2.74 5.58 4.23 8.32 1.66-3.05 3.16-6.19 4.74-9.27 1.07-.12 2.15-.22 3.24-.31-1.88 4.29-4.57 8.2-6.27 12.57-.25 2.78-.1 5.59-.11 8.39-1-.03-1.99-.04-2.97-.05-.17-2.96.35-6.03-.46-8.91-1.92-4.12-4.21-8.06-6.24-12.12zm73.27 2.67c.75.04 2.24.1 2.99.13.15 4.72-.24 9.45.12 14.16.38 3.05 4.4 4.78 6.9 3.01 1.49-.76 1.76-2.55 1.79-4.03.12-4.44-.01-8.88-.04-13.32.72.08 2.16.24 2.88.33.21 5.13.37 10.33-.12 15.46-1.18 6.71-12.28 6.92-14.04.48-1.08-5.32-.24-10.82-.48-16.22zm-279.61 4.72c4.51-.01 9.02.05 13.53.03l-.12 2.87c-3.49-.1-6.98-.12-10.47-.1.01 2.14.02 4.29.02 6.45 3.13-.05 6.26-.08 9.39-.01-.15.63-.43 1.89-.58 2.51-2.93.35-5.89.22-8.84.27.01 2.01 0 4.03 0 6.06 3.51.04 7.03.09 10.54-.03l.12 2.99c-4.55-.1-9.1-.04-13.65.01.08-7.02.09-14.04.06-21.05zm362.04.64c.74.01 2.23.02 2.98.03.02 6.82-.01 13.63.03 20.45-1.02.02-2.03.04-3.03.08.05-6.86-.05-13.71.02-20.56zm-445.54 7.32c.76.14 2.28.43 3.04.58 1.54 4.9 2.53 9.96 3.54 15 2.01-4.96 2.59-10.39 4.63-15.31 1.97-.44 2.11 1.83 2.56 3.09 1.1 3.96 1.9 8.05 3.58 11.83 1.28-4.86 2.06-9.84 3.51-14.66.78-.08 2.34-.25 3.11-.34-1.86 6.78-3.29 13.68-5.38 20.4-.67.13-2.02.4-2.69.54-1.18-5.04-2.76-9.97-3.79-15.04-1.51 4.82-2.83 9.7-3.83 14.66-.77.02-2.3.08-3.06.11-1.59-7-3.66-13.87-5.22-20.86zm518.84 2.26c3.77-2.29 9.93-1.09 11.24 3.54.75 3.87.79 7.97.19 11.88-1.69 6.37-12.1 6.48-14.19.35-.86-3.43-.66-7.04-.43-10.53.05-2.19 1.28-4.2 3.19-5.24m1.78 2.44c-3.03 2.27-1.93 6.65-2.01 9.92-.38 3.57 4.06 6.58 7.02 4.21 3.09-2.47 1.64-6.99 1.74-10.39.41-3.58-3.97-5.74-6.75-3.74zm-590.44 9.64c2.05-5.78 11.5-6.06 13.65-.23 1.18 4.28 1.04 8.98-.07 13.28.6.99 3.25 1.66 1.9 3.08-.64 2.04-2.54.04-3.48-.57-4.07 2.87-10.87 1.32-12.24-3.75-.41-3.9-.7-7.98.24-11.81m2.72 1.61c-.42 3.23-.52 6.63.17 9.84 1.11 2.57 3.99 3.27 6.36 2.03-1.01-1.04-1.9-2.17-2.66-3.38 1.5-1.28 3.14.07 4.66.5-.11-3.45 1.07-7.42-1.05-10.46-1.93-2.67-6.78-1.81-7.48 1.47zm663.11-2.63c3.39.08 6.82-.27 10.19.26 4.56 1.33 5.78 8.01 2.27 11.07-2.64 2.27-6.42 1.33-9.58 1.53.04 2.69.03 5.39.01 8.1-.74.02-2.23.07-2.97.09-.08-7.02.01-14.04.08-21.05m3 10.15c2.31-.11 4.77.36 6.98-.49 1.76-1.45 1.73-4.67.15-6.23-2.25-.92-4.76-.5-7.11-.59-.05 2.43-.06 4.86-.02 7.31zm-366.44 41.96c.02-4.03 3.59-7.85 7.77-7.25 3.68-.1 6.28 3.04 7.02 6.38-3.38.38-4.76-3.88-8.06-3.57-5 1.57-3.89 7.68-3.7 11.71-.05 3.12 3.81 5.3 6.46 3.69 1.94-.97 2.03-3.38 2.72-5.15-2.28-.06-5.13.38-4.93-2.85 2.55-.18 5.11-.22 7.67-.15-.33 3.16-.01 6.79-2.22 9.38-2.74 3.09-8.12 2.69-10.92-.12-2.65-3.41-1.93-8.06-1.81-12.07zm57.16 13.92c.13-6.97-.29-13.94.13-20.89.7-.09 2.1-.26 2.79-.35.04 3.11.03 6.22.06 9.34 2.91-.03 5.82.08 8.73-.08.31-3.01.16-6.05.21-9.06l3.09-.12c.03 7.05.04 14.11-.01 21.17l-3.05.04c.02-3.09.03-6.18.06-9.26-3.02 0-6.02.01-9.03.06 0 3.07 0 6.14.02 9.22-1-.04-2-.06-3-.07zm-132.61-18.67c4.44-.01 8.9-.05 13.35.07-.01.66-.04 1.98-.05 2.64-3.34.06-6.68 0-10.01.03-.18 2.21-.24 4.44-.26 6.68 2.77.03 5.56-.11 8.32.19.14.63.42 1.91.56 2.55-2.94.02-5.88-.04-8.81-.07-.03 3-.04 6.01 0 9.02-.77-.02-2.3-.05-3.07-.07-.02-7.02-.01-14.03-.03-21.04zm212.91 1.49c1.01-.03 2.03-.05 3.05-.06-.13 5.66.42 11.39-.39 17.01-1.77 4.87-8.34 5.07-11.95 2.13.79-.81 1.6-1.61 2.43-2.38 1.16.56 2.32 1.13 3.49 1.71 1.09-.79 2.31-1.46 3.15-2.53.49-5.27.08-10.59.22-15.88zm-286.43 5.24c4.73.34 11.62-1.12 14.05 4.26 1.13 4.09 1.13 8.58-.01 12.67-2.62 5.24-9.3 3.87-14.07 3.89.15-6.94-.01-13.88.03-20.82m2.96 2.86c-.03 5.06.03 10.12.12 15.18 2.73-.18 6.53.56 8.04-2.4.81-3.26.74-6.8.1-10.08-1.41-3.13-5.46-2.58-8.26-2.7zm354.95-2.68c.72.03 2.17.1 2.89.13-.2 3.59-.11 7.19-.2 10.8 3.09-3.32 5.66-7.06 8.46-10.62 1.19-.1 2.4-.19 3.61-.27-2.07 2.84-4.19 5.64-6.34 8.42 2.55 4.2 5.09 8.42 7.42 12.76-1.28-.18-2.55-.41-3.79-.68-2.15-3.15-3.8-6.62-5.83-9.84-1.08 1.41-2.42 2.67-3.2 4.29-.31 1.95-.29 3.95-.37 5.93-.67-.01-2.02-.05-2.69-.07-.11-6.95-.02-13.9.04-20.85zm75.5 9.51c.99-.01 1.99 0 3 .01-.09 5.94-.05 11.88-.06 17.82 3.44.02 6.88.05 10.33 0 .07.74.22 2.21.29 2.95-4.55.07-9.1.03-13.64.11.02-6.97.08-13.93.08-20.89zm-506.3 1.97c3.35-1.44 6.94.03 10.02 1.45-.31.62-.92 1.85-1.22 2.46-2.25-.82-4.65-2.36-7.1-1.34-2.2.55-3.82 3.92-1.32 5.21 2.44 1.06 5.25 1.04 7.62 2.32 3.44 1.86 3.23 7.78-.25 9.5-4.05 2.12-9 1.2-12.68-1.27.6-.77 1.21-1.53 1.83-2.27 2.8 1.48 6.35 2.63 9.32.87 1.7-1.02 1.39-3.81-.3-4.68-2.52-1.06-5.52-.75-7.82-2.32-3.19-2.67-2.07-8.61 1.9-9.93zm590.75 4.54c.94-.84 1.79-2.72 3.29-1.76.34 3.26.13 6.56.1 9.85 2.95-.04 5.91-.05 8.87-.08.14-2.59.2-5.17.3-7.75 2.16.01 4.33.03 6.5.14-.06 4.53.24 9.1-.13 13.63-.31 2.05-2.57 1.57-4.06 1.73-3.84.15-7.72-.38-11.52.28-.12 3.36.26 6.74-.22 10.1-5.12-3.96-8.78-9.46-13.05-14.26 3.21-4.04 6.67-7.87 9.92-11.88zm-662.15 5.98c3.26-.36 3.59 3.08 4.43 5.41 1.7 5.35 3.85 10.54 5.75 15.82-.83 0-2.49-.01-3.32-.01-.45-1.53-.9-3.04-1.37-4.54-2.75-.11-5.5-.2-8.25-.27-.97 2.42-1.42 5.81-4.96 5.01 2.35-7.22 5.08-14.31 7.72-21.42m-1.99 13.81c2.19-.01 4.38-.03 6.57-.01-1.21-3.15-2.28-6.33-3.39-9.5-1 3.18-2.1 6.34-3.18 9.51zm292.08 28.88c.8.08 2.4.25 3.19.33 2.1 5.17 3.36 10.65 5.49 15.82 1.58-5.21 3.25-10.38 4.79-15.59l3.25-.4c-2.07 6.58-4.1 13.18-6.51 19.65-.29 1.62-2.14.99-3.3 1.23-2.09-7.08-4.36-14.11-6.91-21.04zm61.38.37c3.7.13 7.48-.37 11.12.49 4.15 1.19 4.33 7.6.46 9.35 3.8 2.07 4.54 8.33.32 10.32-3.81 1.17-7.91.49-11.84.62.04-6.93-.08-13.86-.06-20.78m2.97 2.9c-.03 1.9-.04 3.82-.02 5.74 2.21.04 4.44.24 6.64-.02 2.12-.3 2.24-3.53 1.09-4.88-2.2-1.72-5.17-.86-7.71-.84m.18 8.59c.05 2.23.07 4.47.08 6.71 2.56-.25 5.37.33 7.72-.95.78-1.39.75-3.36-.01-4.73-2.06-1.98-5.26-.78-7.79-1.03zm-137.27.33c-.48-4.66 4.21-8.61 8.72-7.51 3.22.38 5.04 3.38 6.25 6.07-2 .2-3.67-.37-4.82-1.96-1.74-2.21-6.03-1.74-6.67 1.21-.65 3-.57 6.14-.25 9.19.17 1.83 1.43 3.79 3.42 3.93 3.3.66 4.55-3.81 7.87-3.46-.42 5.41-7.1 8.17-11.37 5.14-4.24-2.72-3-8.37-3.15-12.61zm206.89-7.36c1.11.04 2.22.08 3.34.14 3.08 5.19 6.15 10.4 9.59 15.38-.11-5.16-.33-10.31-.23-15.47.97-.05 1.95-.09 2.93-.12.16 6.96-.2 13.92.03 20.88-.77.01-2.3.02-3.07.02-3-5.36-6.4-10.48-9.51-15.77-.02 5.3.02 10.6-.04 15.91-.7-.05-2.11-.14-2.81-.18-.26-6.93-.1-13.86-.23-20.79zm-283.04 4.14c4.87-.86 5.73 4.85 8.05 7.8 2.29-2.96 3.09-8.68 7.98-7.84-2.12 3.56-4.31 7.08-6.47 10.62 2.13 3.57 4.26 7.14 6.6 10.59-.88.02-2.63.05-3.5.07-1.51-2.68-2.98-5.4-4.61-8-1.57 2.55-2.93 5.24-4.68 7.69-1.2.18-2.41.3-3.63.34 2.06-3.64 4.51-7.04 6.52-10.72-2.02-3.56-4.31-6.95-6.26-10.55zm358.37 2.33c.79.08 2.36.23 3.14.3 1.9 4.41 3.95 8.74 5.82 13.17 2.38-4.29 4.1-8.9 6.17-13.33.98-.03 1.96-.04 2.96-.03-.3 6.94-.02 13.89-.06 20.84-.71-.03-2.13-.09-2.84-.13.02-4.69.15-9.38-.01-14.06-2 3.85-2.96 8.3-5.73 11.71-3.91-2.47-4.08-8.01-6.55-11.71-.23 4.69.08 9.4.07 14.11l-3.04-.08c.01-6.93.19-13.86.07-20.79zm-428.05 13.57c.28-.94.65-1.82 1.1-2.66 4.1-.05 8.25-.35 12.32.29.14 2.35-1.32 4.3-2.49 6.21-2.44 3.75-4.81 7.56-7.15 11.38 3.2-.04 6.4-.05 9.6-.01.02.74.06 2.22.09 2.96-4.69-.02-9.37.09-14.05-.18 2.03-6.67 7.06-11.86 10.36-17.9-3.26.04-6.53.08-9.78-.09zm497.03 20.87c4.03-3.1 8.24-5.96 12.16-9.21 4.15 3.18 8.49 6.13 12.55 9.43-8.23.16-16.5.36-24.71-.22z" fill="#fff"/><g fill="#010101"><path d="M778.86 36.5c1.31-6.99 7.97-12.68 15.17-12.33 13.02.12 26.04.14 39.06.34 5.98-.1 11.86 3.31 14.55 8.69 1.95 3.59 1.48 7.83 1.73 11.76 2.09 51.99 4.69 103.96 6.37 155.96.58 11.58-.33 23.15-.69 34.72-2.84 65.77-5.9 131.53-8.4 197.31-4.88-8.28-10.51-16.48-18.48-22.09-13.37-9.64-29.69-15.22-46.2-15.48-11.41-.23-22.83.08-34.24-.03l-.08-3.47c2-51.68 4.85-103.33 7.34-154.99 1.01-14.77.8-29.64 2.88-44.32 5.02-41.6 10.97-83.08 16.48-124.62 1.48-10.49 2.79-21 4.51-31.45zM89.59 31.8c11.72-1.26 23.57-.77 35.35-1.11 6.2.1 12.43-.62 18.6.15-1.81.36-3.6.8-5.39 1.23.07 6.37.05 12.74-.12 19.11-13.64.56-27.29.54-40.94.39-.43-6.34-.41-12.69-.45-19.04-2.35-.26-4.7-.54-7.05-.73zm-4.92 135.16c.19-1.74-.43-4.06 1.38-5.13 4.12-.55 8.62-1.05 12.54.6 1.13 4.45.42 9.11.54 13.65.1 12.98-.39 25.95-.19 38.93-.03 2.1-.01 4.24-.58 6.29-4.23 1.75-8.92.77-13.34.56-.78-5.92-.39-11.89-.41-17.83 0-12.36.19-24.71.06-37.07zm52.49-4.9c3.87-.59 7.87-.56 11.73.15 2.28.33 1.67 3.16 1.88 4.79-.04 16-.12 32.01-.06 48.01-.08 2 .06 4.09-.68 5.98-.73 1.57-2.61 1.28-4.02 1.46-2.94.12-5.93.14-8.8-.55-1.57-1.11-1.15-3.23-1.34-4.88-.02-16.32.19-32.65-.05-48.97.16-2.01-.29-4.46 1.34-5.99zm-53.21 154.7c4.33-.3 8.74-.72 13.02.23.93 1.84.76 3.97.85 5.98-.1 15.69-.15 31.38-.2 47.08-.18 1.81.18 3.92-.93 5.5-3.77 1.06-7.81.99-11.67.51-1.97-1.29-1.3-4.08-1.56-6.08.32-17.74-.11-35.49.49-53.22zm52.21.4c3.85-.84 7.9-.87 11.8-.29 2.03.89 1.36 3.42 1.61 5.17.02 15.96-.08 31.92-.02 47.89-.25 2.09.48 4.73-1.19 6.39-4.27.54-8.86.89-13-.48-.4-1.93-.46-3.9-.48-5.86.1-15.34.05-30.68 0-46.02.24-2.25-.46-5.03 1.28-6.8zm.31 118.48c4.58-1.7 9.99 2.46 9.25 7.37-.26 5.65-8.19 8.2-11.97 4.18-3.6-3.41-2.19-10.23 2.72-11.55zm25.97-.06c4.58-1.81 10 2.48 8.98 7.39-.25 5.5-7.82 7.71-11.55 4.14-3.75-3.23-2.3-10.28 2.57-11.53zm-79.05.95c4.49-2.66 11.1 1.11 10.32 6.48 0 5.46-7.43 8.54-11.38 4.85-3.8-2.86-3.21-9.24 1.06-11.33zm25.87-.32c4.56-2.74 10.93 1.5 10.19 6.77-.04 5.7-8.07 8.42-11.87 4.48-3.32-3.14-2.5-9.29 1.68-11.25zm694.66 24.71c2.3-2.47 5.97-2.06 9.04-2.13 4.33.15 8.71-.24 13.01.5 1.09.41 2.54 1.64 2.26 2.97-.1.28-.31.86-.42 1.14-6.6-1.31-13.49-1.53-20.15-.58-2.55.21-2.08 3.32-1.96 5.11 1.26 9.31 2.19 18.66 2.52 28.06.5 13.66 1.45 27.33.92 41-.56 10.02-.94 20.05-1.77 30.06-.58 7.95-2 15.86-1.48 23.86 6.64.42 13.39 1.28 20.02.31 1.56-1.13 2.63-2.78 3.74-4.33-.63 2.65-.46 6.07-2.98 7.78-4.5.88-9.14.33-13.7.51-3.03-.18-6.79.48-8.98-2.12-1.76-2.26-1.17-5.38-1.4-8.04-.03-39.68-.08-79.36-.15-119.04.06-1.76.08-3.77 1.48-5.06zm-641.47.73c4.61-1.85 9.68 2.51 8.94 7.32-.14 5.59-7.85 8.27-11.65 4.35-3.9-3.31-2.28-10.44 2.71-11.67zm-79.07.71c4.24-2.53 10.18.7 10.34 5.62.82 5.39-5.83 9.56-10.39 6.67-4.68-2.4-4.74-9.99.05-12.29zm25.92-.07c4.6-2.71 10.84 1.44 10.18 6.73-.02 5.45-7.35 8.49-11.35 4.95-3.83-2.93-3.16-9.58 1.17-11.68zm25.91-.05c4.68-2.74 11.16 1.28 10.58 6.72-.02 5.58-7.57 8.35-11.57 4.8-3.81-2.81-3.17-9.37.99-11.52z"/><path d="M806.56 468.99c6.31-1.78 12.94-.88 19.39-.57 1.91-.13 1.62 2.28 2.31 3.48-6.37.42-12.82 1.01-19.17.22-1.6-.08-1.68-2.18-2.53-3.13zm-670.24 18.54c4.35-1.66 9.65 1.74 9.48 6.5.38 5.42-6.38 9.27-10.85 6.16-5.06-2.7-4.13-11.12 1.37-12.66zm26.05-.1c4.69-1.7 9.85 2.68 9.04 7.58-.39 5.42-7.83 7.95-11.6 4.17-3.98-3.21-2.26-10.36 2.56-11.75zm-79.06.89c4.6-2.88 11.23 1.2 10.45 6.64-.06 5.27-6.8 8.15-10.95 5.22-4.37-2.52-3.99-9.69.5-11.86zm25.9-.24c4.57-2.41 11.09 1.55 10.2 6.92-.04 5.16-6.58 7.98-10.68 5.23-4.58-2.49-4.2-9.99.48-12.15zm700.41 3.73c6.39-1.05 12.89-.67 19.35-.56.1 1.35.21 2.71.32 4.07-6.16.47-12.42.88-18.55 0-.43-1.16-.81-2.33-1.12-3.51zm-673.2 21.78c4.97-2.06 10.64 3.21 9.07 8.32-.98 5.76-9.79 7.06-12.66 2.1-2.55-3.64-.56-9.05 3.59-10.42zm25.95-.1c4.89-1.89 10.61 2.97 9.07 8.12-.88 5.85-9.64 7.29-12.66 2.42-2.65-3.62-.74-9.32 3.59-10.54zm-79.03.82c4.57-2.77 11.19 1.36 10.44 6.71-.3 4.83-6.17 7.97-10.36 5.46-4.65-2.32-4.97-9.96-.08-12.17zm25.88-.11c4.98-3.01 11.73 2.22 10.13 7.79-.79 4.95-7.31 6.79-11.03 3.83-4.08-2.68-3.45-9.57.9-11.62zm703.12 11.39c6.26-.74 12.61-.14 18.85.56-.55 1.39-.16 3.83-2.28 3.8-5.6.59-11.3.61-16.91.13-1-1.38-.9-3.31.34-4.49zM110.4 539.47c4.61-1.67 9.82 2.69 8.86 7.55-.39 4.83-6.32 7.85-10.42 5.18-5.22-2.66-4.09-11.35 1.56-12.73zm25.91-.02c4.03-1.47 8.94 1.33 9.36 5.68.72 3.97-2.65 8-6.69 7.98-3.17.1-6.5-1.89-7.19-5.12-1.16-3.49 1.19-7.35 4.52-8.54zm25.93-.11c4.76-1.8 10.1 2.59 9.03 7.62-.31 5.09-6.95 7.81-10.86 4.69-4.68-2.89-3.21-10.69 1.83-12.31zm-78.97.96c4.58-2.7 11.08 1.32 10.36 6.68.1 5.79-8.29 8.58-11.91 4.24-3.13-3.02-2.54-9.05 1.55-10.92zm727.71 23.71c-1.46-1.61-.06-4.29 2.03-4.23 4.97-.34 10-.47 14.97.05 1.89.39 1.63 2.65 2.21 4.07-6.39.43-12.84.88-19.21.11zm-726.56 1.61c4.99-1.95 10.66 3.14 9.22 8.31-.93 5.31-8.38 7.04-11.92 3.24-3.57-3.39-2.13-10.19 2.7-11.55zm25.94-.15c5.03-1.76 10.35 3.46 8.87 8.52-.85 5.43-8.76 6.87-12.09 2.9-3.17-3.61-1.68-10.26 3.22-11.42zm25.99.02c5.39-2.26 11.2 3.66 8.97 8.99-1.5 5.6-10.26 6.12-12.84 1.16-2.2-3.69-.33-8.98 3.87-10.15zm25.91-.12c4.71-2.06 10.35 2.58 9.17 7.62-.52 5.1-7.07 7.67-11.07 4.62-4.63-2.9-3.28-10.78 1.9-12.24zm646.07 16.92c6.33-1.24 13.06-1.1 19.42-.05.23.46.68 1.4.91 1.86-2.6 2.45-6.45 1.76-9.7 2.08-3.8-.12-7.87.66-11.46-.79-1.88-.71-.43-2.74.83-3.1zm-723.86 9.34c5.27-2.07 10.93 3.71 9.02 8.96-1.35 5.33-9.18 6.43-12.22 1.98-3.13-3.55-1.15-9.49 3.2-10.94zm25.95-.06c5.3-2.01 10.82 4.26 8.56 9.33-1.47 4.6-8.06 5.79-11.36 2.47-3.71-3.43-2.08-10.41 2.8-11.8zm25.92-.05c4.32-1.67 9.66 1.76 9.42 6.51.36 3.74-3 7.17-6.75 6.92-3.18.29-6.4-1.9-7.13-5.03-.94-3.42 1.14-7.25 4.46-8.4zm26.1.01c5.44-2.19 11.07 4.23 8.44 9.39-1.99 5.17-9.87 5.3-12.55.7-2.39-3.74.02-8.88 4.11-10.09zm-83.03 31.12c1.61-2.74 3.99-5.82 7.59-5.34 3.48-.3 5.71 2.63 7.06 5.42-4.88.21-9.77.23-14.65-.08zm25.74.16c1.42-3.09 4.18-6.05 7.91-5.55 3.32-.19 5.41 2.7 6.88 5.26-4.92.42-9.86.37-14.79.29zm26.25-.08c1.52-2.89 3.92-6.14 7.64-5.65 3.44-.15 5.83 2.54 7.14 5.42-4.92.33-9.85.35-14.78.23zm25.85.02c1.39-3.07 3.99-6.22 7.77-5.72 3.41-.19 5.46 2.87 6.98 5.45-4.91.3-9.83.3-14.75.27zm625.99.61c5.44-2.27 12.42-.33 15.51 4.8 3.02 4.92 5.15 10.32 7.74 15.46 4.68 9.88 9.89 19.5 14.54 29.39 1.89 4.14 4.77 8.21 4.36 12.97-.22 5.85-5.54 10.94-11.37 11.03-5.38.21-10.79.22-16.15-.33-13.88-1.32-24.6-14.94-23.33-28.7.1-10.33.08-20.66 0-30.98-.24-5.77 3.21-11.6 8.7-13.64m11.51 32.42c-3.03 3.85-6.37 7.44-9.31 11.35 3.01 4.09 6.42 7.86 9.68 11.75.96.76 1.82 2.74 3.28 1.8.38-3.1.19-6.22.21-9.32 3.21.09 6.43.06 9.65-.04.06-2.69.08-5.38.03-8.06-3.27-.08-6.54-.12-9.81-.08.12-3.53.3-7.06.04-10.58-1.49.77-2.78 1.83-3.77 3.18zM79.2 650.72c5-.32 10.01-.24 15.01-.01-1.1 2.84-2.96 5.78-6.22 6.33-4.23 1.04-7.35-2.89-8.79-6.32zm51.9-.09c5-.3 10-.24 15-.13-1.1 3.19-3.2 6.85-7.11 6.65-4.01.26-6.41-3.34-7.89-6.52zm26.28-.34c4.84.13 9.67.08 14.51.19-1.02 2.5-2.24 5.43-5.16 6.13-4.31 1.25-8.92-1.82-9.35-6.32zm-52.41.42c4.99-.19 9.99-.19 14.98-.11-1.24 2.92-3.27 6.29-6.9 6.24-4 .71-6.87-2.77-8.08-6.13zm-20.7 18.66c4.46-1.72 9.87 1.71 9.46 6.65.18 5.51-6.92 8.8-11.18 5.5-4.4-2.98-3.45-10.61 1.72-12.15zm25.16.07c4.59-2.55 10.57 1.37 10.12 6.58.42 5.9-7.62 8.89-11.66 5.02-3.69-3.07-2.77-9.58 1.54-11.6zm25.94.08c4.82-2.89 11.73 1.83 10.39 7.42-.66 5.42-7.82 7.31-11.78 4.09-3.7-2.94-2.68-9.4 1.39-11.51zm25.98-.07c4.55-2.72 10.82 1.29 10.07 6.59.05 5.6-7.44 8.54-11.46 4.88-3.89-2.89-2.94-9.52 1.39-11.47zm228.91 39.8c9.8-1.74 19.73 2.2 27.52 7.96 11.77 8.94 21.48 23.63 18.32 38.97-1.72 7.37-8.56 13.11-16.07 13.73-8.74.9-17.44-2.4-24.58-7.26-8.18-5.96-14.83-14.16-18.42-23.66-1.88-5.73-2.42-12.09-.71-17.92 1.96-6.15 7.62-10.78 13.94-11.82m-1.41 10.33c-.01 3.03-.01 6.07-.03 9.11 2.29-.21 4.59-.42 6.91-.43.27 2.61.09 5.3-2.63 6.53-.44-.64-1.32-1.94-1.76-2.58l-2.64-.04c.42 1.83.9 4.13 3.18 4.32 3.99 1.4 7.82-2.58 6.83-6.53.3-3.72-3.43-5.03-6.52-4.87-.01-.99-.01-1.96 0-2.93 1.77.06 3.54.12 5.32.22.33-.96.66-1.92 1-2.86-3.22 0-6.45.02-9.66.06m17.69 22.09c1.98.06 3.96.09 5.94.15.02 6.03-.2 12.06.02 18.09.75-.05 2.24-.13 2.99-.18-.11-5.98.01-11.96-.09-17.93 1.97-.02 3.94-.03 5.92-.04 0-.91-.01-1.81-.01-2.7-4.88.02-9.77.01-14.65.01l-.12 2.6zm82.76-32.36c7.41-1.66 16.09.31 20.84 6.55 4.35 5.32 4.34 12.76 3.13 19.19-2.55 9.74-8.51 18.51-16.26 24.88-6.4 4.94-13.72 9.33-21.95 10.05-7.59.91-16.11-1.88-20.26-8.63-4.29-7.06-3.04-16.1.13-23.35 6.36-13.99 19.17-25.46 34.37-28.69m5.97 12.99c-1.95 3.44-4.38 7.21-3.75 11.34.29 2.27 2.79 2.91 4.45 3.94 1.87-.83 4.47-1.3 5.01-3.66 1.43-3.39-1.32-6.94-4.85-7 1.15-2.32 2.2-4.7 3.09-7.13-1.52.47-3.25.89-3.95 2.51m-29.77 16.79c2.03 4.06 4.32 8 6.24 12.12.81 2.88.29 5.95.46 8.91.98.01 1.97.02 2.97.05.01-2.8-.14-5.61.11-8.39 1.7-4.37 4.39-8.28 6.27-12.57-1.09.09-2.17.19-3.24.31-1.58 3.08-3.08 6.22-4.74 9.27-1.49-2.74-2.73-5.6-4.23-8.32-.63-1.53-2.57-1.01-3.84-1.38zm98.96-27.48c4.27-.6 8.8-.54 12.82 1.2 6.01 2.61 10.41 8.65 10.87 15.21 1.06 10.08-3.77 19.72-9.9 27.39-6.77 7.97-15.72 14.7-26.19 16.65-6.54 1.3-14 .75-19.22-3.8-5.67-4.52-7.59-12.38-6.32-19.3 3.39-18.67 19.46-33.88 37.94-37.35m-1.94 10.72c.3 1.78.63 3.58.97 5.38 1.53-1.65 3.32-2.98 5.64-3.21-.81 5.19-3.17 9.94-4.36 15.02.72-.22 2.17-.65 2.9-.87 2.01-5.32 3.58-10.81 5.05-16.3-3.4-.14-6.8-.14-10.2-.02m-23.75 19.43c.24 5.4-.6 10.9.48 16.22 1.76 6.44 12.86 6.23 14.04-.48.49-5.13.33-10.33.12-15.46-.72-.09-2.16-.25-2.88-.33.03 4.44.16 8.88.04 13.32-.03 1.48-.3 3.27-1.79 4.03-2.5 1.77-6.52.04-6.9-3.01-.36-4.71.03-9.44-.12-14.16-.75-.03-2.24-.09-2.99-.13zM313.4 712.51c8.21-2.64 17.16-.35 24.56 3.61 10.46 5.99 19.04 15.5 23.16 26.9 1.61 4.4 2.09 9.19 1.53 13.84-.88 6.32-5.11 12.35-11.31 14.39-6.49 2.12-13.62 1.37-20.03-.7-13.22-4.86-23.73-16.07-28.46-29.26-2.04-6.22-2.52-13.29.07-19.42 1.88-4.51 5.9-7.85 10.48-9.36m3.16 15.13c-.86 2.49-2.99 4.96-2.43 7.67 2.14.23 4.3.19 6.46.25-.02.68-.07 2.03-.09 2.71.91.02 1.82.05 2.74.1.52-1.29 1.06-2.55 1.62-3.8-.47-1.88-.84-3.79-1.45-5.62-2.75-2.04-2.21 2.85-3.09 4.42-.87-.02-2.61-.04-3.48-.06 2-4.05 4.13-8.08 5.38-12.45-3.61.21-4.21 4.22-5.66 6.78m16.82 11.5c.04 6.93-.3 13.88.08 20.81.7.07 2.12.23 2.82.31.04-3.06.03-6.13.07-9.18 1.33.17 2.69.26 4.01.62 1.84 2.6 3.06 5.58 4.53 8.4.91.01 2.74.04 3.66.05-1.55-2.87-3-5.77-4.46-8.67 3.96-2.36 5.14-8.76.87-11.39-3.66-1.43-7.75-.63-11.58-.95zm-91.95-21.54c10.35-1.53 20.69 2.98 28.76 9.18 8.28 7.02 15.53 16.2 17.47 27.14 1.32 6.54.12 14.09-4.78 18.94-5.2 5.07-13.09 6.07-19.98 4.91-10.75-1.82-20.05-8.55-26.95-16.76-6.42-7.74-10.88-17.94-9.46-28.16 1-7.62 7.43-13.96 14.94-15.25m-.81 10.13c-1.52.91-1.8 2.82-2.41 4.33 2.1-.81 4.1-1.85 6.12-2.84.19 1.24.37 2.5.55 3.77-1.32.71-2.46 1.65-3.06 3.06 1.32.63 2.65 1.26 3.98 1.91a54.44 54.44 0 0 1-1.55 3.61c-2.29-.02-4.14-1.65-6.21-2.42-.42 4.54 5.74 6.65 8.69 3.62 1.91-2.17.77-5.25-.22-7.56.87-1.93 1.77-4.26.55-6.24-1.4-2.13-4.32-2.03-6.44-1.24m18.54 18.75c.03 7.01.02 14.03-.06 21.05 4.55-.05 9.1-.11 13.65-.01l-.12-2.99c-3.51.12-7.03.07-10.54.03 0-2.03.01-4.05 0-6.06 2.95-.05 5.91.08 8.84-.27.15-.62.43-1.88.58-2.51-3.13-.07-6.26-.04-9.39.01 0-2.16-.01-4.31-.02-6.45 3.49-.02 6.98 0 10.47.1l.12-2.87c-4.51.02-9.02-.04-13.53-.03zm379.23-28.87c6.01-1.11 12.79-.68 17.84 3.11 5.23 3.98 7.32 10.86 7.06 17.22-.4 8.69-4.65 16.7-9.97 23.39-6.35 8.05-15.44 13.94-25.46 16.22-7.33 1.65-15.85.41-21.32-5.09-4.49-4.5-5.62-11.32-4.72-17.4 1.32-9.31 6.58-17.56 12.99-24.23 6.3-6.64 14.63-11.33 23.58-13.22m.23 13.25c-1.03 2-.2 4.23.31 6.25-.93 2.03-2.17 4.56-.63 6.65 1.43 2.43 4.85 2.23 7.2 1.58 2.49-1.21 2.1-4.25 2.16-6.54-.5-.38-1.49-1.14-1.99-1.52.9-1.6 2.28-3.33 1.49-5.27-1.07-3.53-6.54-3.99-8.54-1.15m-17.42 16.26c-.07 6.85.03 13.7-.02 20.56 1-.04 2.01-.06 3.03-.08-.04-6.82-.01-13.63-.03-20.45-.75-.01-2.24-.02-2.98-.03zm-453.76-21.53c8.14-1.1 16.22 1.79 23.16 5.83 10.07 6.29 18.11 16.11 21.5 27.55 1.42 5.04 1.69 10.51.25 15.58-2.19 6.91-9.08 11.77-16.24 12.11-12.56.77-24.61-5.71-32.89-14.81-7.07-8.21-13.02-18.69-11.78-29.9.63-8.32 7.76-15.43 16-16.36m-3.25 16.44c1.14-.88 1.94-3.02 3.71-2.59 1.8-.05 2.21 2.44 1.23 3.61-2.15 3.53-5.46 6.32-6.91 10.29 3.46.1 6.93.11 10.4.15.01-.53.04-1.59.05-2.12-2-.13-4-.25-5.99-.4 1.84-2.85 4.39-5.28 5.67-8.45 1.22-3.61-2.92-7.15-6.36-5.69-2.26.45-5.01 4.01-1.8 5.2m11.47 12.41c1.56 6.99 3.63 13.86 5.22 20.86.76-.03 2.29-.09 3.06-.11 1-4.96 2.32-9.84 3.83-14.66 1.03 5.07 2.61 10 3.79 15.04.67-.14 2.02-.41 2.69-.54 2.09-6.72 3.52-13.62 5.38-20.4-.77.09-2.33.26-3.11.34-1.45 4.82-2.23 9.8-3.51 14.66-1.68-3.78-2.48-7.87-3.58-11.83-.45-1.26-.59-3.53-2.56-3.09-2.04 4.92-2.62 10.35-4.63 15.31-1.01-5.04-2-10.1-3.54-15-.76-.15-2.28-.44-3.04-.58zm534.81-27.8c5.23-1.55 10.93-1.79 16.17-.15 6.94 2.25 11.91 9.16 12.23 16.4.67 8.72-3.03 17.09-7.93 24.1-5.18 7.84-13.03 13.67-21.62 17.31-7.56 2.97-16.75 3.89-23.94-.53-6-3.63-8.95-10.93-8.51-17.75.52-10.58 6.45-20.09 13.79-27.39 5.43-5.61 12.38-9.65 19.81-11.99m4.09 18.17c-.09 3.03 2.99 4.02 5.4 4.59-1.15 2.11-2.27 4.23-3.3 6.4 4.07-.03 5.07-4.48 6.68-7.4 1.56-3.02 1.75-8.23-2.23-9.35-3.69-1.61-7.41 2.04-6.55 5.76M694.5 756.7a6.147 6.147 0 0 0-3.19 5.24c-.23 3.49-.43 7.1.43 10.53 2.09 6.13 12.5 6.02 14.19-.35.6-3.91.56-8.01-.19-11.88-1.31-4.63-7.47-5.83-11.24-3.54z"/><path d="M495.32 729.4c2.8-.8 4.49 3.56 2.08 5.05-.99.14-1.98.24-2.97.3.09-1.73-.84-4.22.89-5.35zm145.34 2.28c1.27-.05 2.54-.1 3.82-.11.1 1.39.19 2.79.27 4.21-1.41-.09-2.81-.18-4.2-.28.02-1.29.06-2.56.11-3.82zm149.81 4.89c6.08-.85 13-.24 17.62 4.26 5.88 5.11 7.26 13.62 5.65 20.94-4.11 17.25-18.51 31.72-35.84 35.65-7.1 1.71-15.23.45-20.68-4.67-5.06-4.72-6.21-12.26-5.05-18.81 1.98-11.49 9.26-21.44 18.31-28.5 5.83-4.48 12.66-7.84 19.99-8.87m3.93 12.85c-1.92.61-2.51 2.76-2.56 4.56-.13 2.99-.34 6.04.29 9 1.14 4.04 7.58 4.31 9.41.67.86-2.8.7-5.8.66-8.69-.15-1.85-.17-4.22-2.06-5.19-1.75-.92-3.88-.81-5.74-.35m-22.73 18.34c-.07 7.01-.16 14.03-.08 21.05.74-.02 2.23-.07 2.97-.09.02-2.71.03-5.41-.01-8.1 3.16-.2 6.94.74 9.58-1.53 3.51-3.06 2.29-9.74-2.27-11.07-3.37-.53-6.8-.18-10.19-.26zm-683.15-30.1c5.38-1.95 11.35-1.4 16.77.09 16.21 5.05 29.41 19.06 33.01 35.72 1.1 5.72.71 12.14-2.86 16.99-4.17 5.67-11.59 8.13-18.44 7.53-9.62-.45-18.22-5.59-25.45-11.59-6.58-5.75-11.49-13.43-13.99-21.8-1.57-5.47-1.79-11.49.27-16.86 1.84-4.73 6.07-8.21 10.69-10.08m2.97 12.86l.12 2.48c.54-.27 1.63-.81 2.17-1.08.11 4.46.12 8.93.09 13.4.63.3 1.91.89 2.55 1.19.31-6.06.35-12.13-.04-18.18-1.64.69-3.27 1.42-4.89 2.19m14.35 18.26c-.94 3.83-.65 7.91-.24 11.81 1.37 5.07 8.17 6.62 12.24 3.75.94.61 2.84 2.61 3.48.57 1.35-1.42-1.3-2.09-1.9-3.08 1.11-4.3 1.25-9 .07-13.28-2.15-5.83-11.6-5.55-13.65.23zm534.57-30.09c1.31-.05 2.62-.09 3.94-.11.19 1.14.39 2.28.59 3.44-.51.44-1.52 1.34-2.03 1.79-2.29-.88-3.01-2.86-2.5-5.12zm77.19 2.94c1.31-.15 2.63-.13 3.96-.12-.02 1.57.3 3.24-.44 4.71-1.16.25-2.33.32-3.48.46-.16-1.68-.59-3.41-.04-5.05zm-381.36.5c3.05.15 8.95-1.07 8.37 3.84-.92 3.82-5.52 2.35-8.34 2.69-.02-2.19-.03-4.36-.03-6.53z"/><path d="M795.7 751.53c1.31-.26 2.53.39 3.77.76-.01 2.92.16 5.86-.07 8.8.11 1.75-1.98 3.25-3.53 2.24-2.05-1.42-1.19-4.24-1.46-6.35.19-1.85-.51-4.22 1.29-5.45zm-99.42 7.61c2.78-2 7.16.16 6.75 3.74-.1 3.4 1.35 7.92-1.74 10.39-2.96 2.37-7.4-.64-7.02-4.21.08-3.27-1.02-7.65 2.01-9.92zm-587.72 11.25c.7-3.28 5.55-4.14 7.48-1.47 2.12 3.04.94 7.01 1.05 10.46-1.52-.43-3.16-1.78-4.66-.5.76 1.21 1.65 2.34 2.66 3.38-2.37 1.24-5.25.54-6.36-2.03-.69-3.21-.59-6.61-.17-9.84zm666.11 7.52c-.04-2.45-.03-4.88.02-7.31 2.35.09 4.86-.33 7.11.59 1.58 1.56 1.61 4.78-.15 6.23-2.21.85-4.67.38-6.98.49zm-384.4 5.41c10.79-1.66 21.46 3.07 29.66 9.79 7.31 6.38 13.76 14.46 15.79 24.16 1.57 6.68 1.03 14.4-3.6 19.8-4.55 5.58-12.28 7.4-19.19 6.57-10.44-1.2-19.61-7.46-26.5-15.12-7.65-8.08-12.73-19.38-11.1-30.66 1.08-7.44 7.53-13.53 14.94-14.54m-2.51 16.42c.01.65.03 1.97.05 2.63 3.67.07 7.35.08 11.03.04.02-.67.04-1.99.05-2.65-3.71.01-7.42-.01-11.13-.02m-.46 7.67c4.16.2 8.33.14 12.49-.07-.22-.52-.66-1.54-.88-2.05-3.34-.81-6.84-.58-10.23-.38-.35.63-1.04 1.88-1.38 2.5m20.93 12.46c-.12 4.01-.84 8.66 1.81 12.07 2.8 2.81 8.18 3.21 10.92.12 2.21-2.59 1.89-6.22 2.22-9.38a78.47 78.47 0 0 0-7.67.15c-.2 3.23 2.65 2.79 4.93 2.85-.69 1.77-.78 4.18-2.72 5.15-2.65 1.61-6.51-.57-6.46-3.69-.19-4.03-1.3-10.14 3.7-11.71 3.3-.31 4.68 3.95 8.06 3.57-.74-3.34-3.34-6.48-7.02-6.38-4.18-.6-7.75 3.22-7.77 7.25zm79.32-36.11c5.64-1.06 11.9-1.23 17.06 1.67 5.23 2.85 8.77 8.52 8.97 14.49.66 11.77-5.18 23.1-13.68 30.96-7.56 7.12-17.17 12.93-27.83 13.04-6.96.32-14.4-2.92-17.76-9.23-3.69-6.9-2.77-15.29.13-22.29 5.89-13.87 18.35-25.12 33.11-28.64m5.03 12.99c-.51 2.78 1.57 3.14 3.76 3.19-.01-1.12-.01-2.22-.01-3.31-1.26.03-2.51.07-3.75.12m.58 8.29c-.08.81-.25 2.42-.34 3.23 1.13-.02 2.27-.03 3.41-.03.06-1.01.13-2.01.2-3-1.1-.08-2.19-.15-3.27-.2m-27.77 28.75c1 .01 2 .03 3 .07-.02-3.08-.02-6.15-.02-9.22 3.01-.05 6.01-.06 9.03-.06-.03 3.08-.04 6.17-.06 9.26l3.05-.04c.05-7.06.04-14.12.01-21.17l-3.09.12c-.05 3.01.1 6.05-.21 9.06-2.91.16-5.82.05-8.73.08-.03-3.12-.02-6.23-.06-9.34-.69.09-2.09.26-2.79.35-.42 6.95 0 13.92-.13 20.89zm-151.98-46.18c7.9-2.67 16.56-.58 23.72 3.24 12.04 6.35 21.89 17.64 24.88 31.11 1.26 5.87.99 12.48-2.47 17.6-3.18 4.84-8.85 7.72-14.59 7.98-8.29.32-16.49-2.52-23.24-7.26-9.19-5.94-16.14-15.2-19.43-25.62-1.58-6.02-1.8-12.75.86-18.5 1.9-4.25 5.98-7.07 10.27-8.55m1.89 19.02c-.04.92-.07 1.85-.09 2.8 2.19-.01 4.38-.01 6.57-.01 0-.94.01-1.87.02-2.79-2.17-.01-4.34-.01-6.5 0m17.48 8.49c.02 7.01.01 14.02.03 21.04.77.02 2.3.05 3.07.07-.04-3.01-.03-6.02 0-9.02 2.93.03 5.87.09 8.81.07-.14-.64-.42-1.92-.56-2.55-2.76-.3-5.55-.16-8.32-.19.02-2.24.08-4.47.26-6.68 3.33-.03 6.67.03 10.01-.03.01-.66.04-1.98.05-2.64-4.45-.12-8.91-.08-13.35-.07zm227.63-27.55c6.1-1.52 12.96-1.66 18.58 1.5 6.16 3.59 9.26 10.99 8.75 17.94-1.21 17.35-14.33 32.19-30.19 38.31-6.38 2.33-13.63 3.39-20.17 1.14-5.25-1.9-9.63-6.36-10.91-11.85-2.19-9.27.91-19.04 6.36-26.59 6.57-9.6 16.16-17.54 27.58-20.45m6.36 15.73c.21 2.19.39 4.4.55 6.61 2.65-1.48 3.81-4.03 3.15-7-1.24.12-2.48.25-3.7.39m-21.08 13.31c-.14 5.29.27 10.61-.22 15.88-.84 1.07-2.06 1.74-3.15 2.53-1.17-.58-2.33-1.15-3.49-1.71-.83.77-1.64 1.57-2.43 2.38 3.61 2.94 10.18 2.74 11.95-2.13.81-5.62.26-11.35.39-17.01-1.02.01-2.04.03-3.05.06zM240.4 792.55c7.32-1.7 15 .2 21.55 3.58 11.53 5.99 21.17 16.28 24.89 28.89 1.89 6.32 2.12 13.63-1.49 19.41-3.35 5.61-9.92 8.72-16.35 8.72-10.7-.16-20.86-5.21-28.46-12.56-8.95-8.19-15.69-20.2-14.12-32.66.84-7.42 6.65-13.87 13.98-15.38m.27 14.56c-.01 1.38-.03 2.77-.04 4.17-1.4 0-2.8.01-4.2.04.09.93.19 1.88.29 2.84 1.34 0 2.69 0 4.04.02-.02 1.46-.04 2.94-.05 4.42.65-.13 1.97-.38 2.62-.51.18-1.43.17-2.86.23-4.27 1.32-.02 2.64-.02 3.97-.02-.01-.64-.04-1.93-.05-2.57-1.37-.01-2.73-.01-4.08 0 0-1.33.01-2.66.02-3.98-.92-.06-1.83-.1-2.75-.14m18.59 14.74c-.04 6.94.12 13.88-.03 20.82 4.77-.02 11.45 1.35 14.07-3.89 1.14-4.09 1.14-8.58.01-12.67-2.43-5.38-9.32-3.92-14.05-4.26zm379.16-29.15c5.32-.89 11.15-.88 15.98 1.82 5.45 3.08 8.4 9.4 8.78 15.48.4 8.45-2.83 16.77-7.87 23.46-7.47 10.22-18.63 18.35-31.4 20-7.2.88-15.54-1.34-19.68-7.69-4.06-5.88-3.79-13.63-1.87-20.22 5.37-16.06 19.3-29.43 36.06-32.85m4.22 15.16c-.74.98-1.47 1.96-2.19 2.97.88.97 1.73 2.03 2.74 2.92 1.5.08 3.01-.08 4.53-.15.84-2.51.56-4.88-1.55-6.62-1.18.29-2.36.58-3.53.88m-25.47 14.17c-.06 6.95-.15 13.9-.04 20.85.67.02 2.02.06 2.69.07.08-1.98.06-3.98.37-5.93.78-1.62 2.12-2.88 3.2-4.29 2.03 3.22 3.68 6.69 5.83 9.84 1.24.27 2.51.5 3.79.68-2.33-4.34-4.87-8.56-7.42-12.76 2.15-2.78 4.27-5.58 6.34-8.42-1.21.08-2.42.17-3.61.27-2.8 3.56-5.37 7.3-8.46 10.62.09-3.61 0-7.21.2-10.8-.72-.03-2.17-.1-2.89-.13zm-450.98-18.76c8.62-1.55 17.55 1.19 24.86 5.76 10.61 6.85 19.19 17.45 21.91 29.95 1.33 6.26.66 13.38-3.46 18.52-4.19 5.04-11.14 6.93-17.48 6.62-9.55-.66-18.45-5.36-25.47-11.7-7.96-7.45-14.17-17.44-15-28.52-.52-5.51 1.06-11.34 4.96-15.38 2.63-2.62 6.09-4.36 9.68-5.25m4.56 12.6c-1.86 5.77-3.03 11.74-4.68 17.57.69.02 2.06.07 2.74.09 1.76-6.04 3.46-12.11 4.73-18.28-.7.16-2.09.47-2.79.62m15.62 17.64c-3.97 1.32-5.09 7.26-1.9 9.93 2.3 1.57 5.3 1.26 7.82 2.32 1.69.87 2 3.66.3 4.68-2.97 1.76-6.52.61-9.32-.87-.62.74-1.23 1.5-1.83 2.27 3.68 2.47 8.63 3.39 12.68 1.27 3.48-1.72 3.69-7.64.25-9.5-2.37-1.28-5.18-1.26-7.62-2.32-2.5-1.29-.88-4.66 1.32-5.21 2.45-1.02 4.85.52 7.1 1.34.3-.61.91-1.84 1.22-2.46-3.08-1.42-6.67-2.89-10.02-1.45zm525.16-29.71c7.05-1.43 15.32-1.24 20.95 3.84 6.12 5.42 7.24 14.57 5.3 22.15-2.36 8.54-7.5 16.15-13.79 22.31-8.3 7.63-19.44 13.32-30.99 12.02-8.15-.68-15.39-7.32-16.73-15.38-.73-5.94.5-12.01 3.06-17.38 6.24-13.09 18.05-23.85 32.2-27.56m-3.79 16.67c-1.11 4.3-1.06 9.96 2.92 12.82 3.51 2.53 8.03 1.87 11.96.84-1.36-2.7-4.29-1.48-6.63-1.6-2.69.16-5.35-1.94-5.66-4.63-.27-2.2-.28-4.43.08-6.6.93-3.77 5.87-6.16 9.24-3.88 3.8 2.28 3.91 7.86 2.06 11.45-.34-2.29-.36-4.61-.81-6.86-.36-2.58-3.51-4.11-5.8-3.01-4.08 1.44-4.42 7.12-2.38 10.34 1.74 2.35 4.92 1.01 7.22.41 1.53.81 4.21 1.46 4.84-.78 1.07-3.31.99-7.26-.51-10.43-3.66-6.16-14.38-4.95-16.53 1.93m-15.07 11.07c0 6.96-.06 13.92-.08 20.89 4.54-.08 9.09-.04 13.64-.11-.07-.74-.22-2.21-.29-2.95-3.45.05-6.89.02-10.33 0 .01-5.94-.03-11.88.06-17.82-1.01-.01-2.01-.02-3-.01zM89.45 816.46c4.77-1.44 9.9-.98 14.67.19 14.77 3.95 26.87 15.62 32.49 29.69 2.65 6.97 3.57 15.32-.2 22.06-3 5.54-9.32 8.42-15.4 8.84-9.01.66-17.69-3.2-24.84-8.41-9.28-6.48-16.09-16.43-18.71-27.44-1.11-4.99-.98-10.35.93-15.12 1.95-4.74 6.3-8.17 11.06-9.81m4.23 15.23c-2.32.89-3.29 4.2-1.33 5.94 1.94 2.42 6.41.48 6.25-2.46.03-2.5-2.66-4.12-4.92-3.48m21.29 12.34c-2.64 7.11-5.37 14.2-7.72 21.42 3.54.8 3.99-2.59 4.96-5.01 2.75.07 5.5.16 8.25.27.47 1.5.92 3.01 1.37 4.54.83 0 2.49.01 3.32.01-1.9-5.28-4.05-10.47-5.75-15.82-.84-2.33-1.17-5.77-4.43-5.41zm672.48-27.38c5.71-1.34 12.06-1.39 17.32 1.51 5.98 3.27 9.32 10.22 9.16 16.91-.07 9.43-4.48 18.29-10.29 25.5-6.9 8.03-16.06 14.68-26.68 16.5-6.73 1.35-14.33.35-19.55-4.41-5.21-4.53-6.62-12.03-5.66-18.59 1.45-9.01 6.41-17.12 12.51-23.75 6.37-6.41 14.22-11.8 23.19-13.67m-10.33 21.4c-3.25 4.01-6.71 7.84-9.92 11.88 4.27 4.8 7.93 10.3 13.05 14.26.48-3.36.1-6.74.22-10.1 3.8-.66 7.68-.13 11.52-.28 1.49-.16 3.75.32 4.06-1.73.37-4.53.07-9.1.13-13.63-2.17-.11-4.34-.13-6.5-.14-.1 2.58-.16 5.16-.3 7.75-2.96.03-5.92.04-8.87.08.03-3.29.24-6.59-.1-9.85-1.5-.96-2.35.92-3.29 1.76z"/><path d="M715.39 823.41c.53-.82 1.2-1.32 2.02-1.48.59 1.92.15 4.01.28 6.01-.82-.14-2.44-.42-3.25-.56l.2-.83c.24-1.06.48-2.1.75-3.14zm-453.17 1.3c2.8.12 6.85-.43 8.26 2.7.64 3.28.71 6.82-.1 10.08-1.51 2.96-5.31 2.22-8.04 2.4-.09-5.06-.15-10.12-.12-15.18zm-149.24 33.13c1.08-3.17 2.18-6.33 3.18-9.51 1.11 3.17 2.18 6.35 3.39 9.5-2.19-.02-4.38 0-6.57.01zm274.42-.24c5.68-1.89 11.92-1.29 17.5.68 13.41 4.85 24.63 15.71 29.52 29.15 2.35 6.8 2.9 14.8-.67 21.28-3.69 6.5-11.54 9.62-18.78 8.97-10.56-.89-20.4-6.36-27.63-13.99-6.8-7.31-12.22-16.62-12.78-26.77-.46-8.31 4.57-16.99 12.84-19.32m1.9 12.76c-1.96.99-2.24 3.36-2.92 5.2 1.95-.1 3.43-1.19 4.75-2.49 1.25-1.72 4.15-.11 3.57 1.85-1.68 2.8-3.65 5.42-4.98 8.42l3.25.48c1.09-3.23 3.82-5.66 4.7-8.93.7-4.36-5.08-6.8-8.37-4.53m1.86 14.75c-1.38.65-.94 2.24-.76 3.43 1.24.82 3.93.62 3.44-1.4-.21-1-1.59-3.82-2.68-2.03m13.9 1.61c2.55 6.93 4.82 13.96 6.91 21.04 1.16-.24 3.01.39 3.3-1.23 2.41-6.47 4.44-13.07 6.51-19.65l-3.25.4c-1.54 5.21-3.21 10.38-4.79 15.59-2.13-5.17-3.39-10.65-5.49-15.82-.79-.08-2.39-.25-3.19-.33zm81.41-29.12c6.45-1.48 13.76-1.27 19.38 2.57 4.85 3.27 7.36 9.17 7.38 14.91.16 10.82-5.19 21.02-12.4 28.8-6.46 6.59-14.57 11.98-23.73 13.82-6.94 1.29-14.73.06-20.12-4.75-4.44-4.36-6.34-10.91-5.71-17.03.82-9.07 5.61-17.34 11.78-23.86 6.39-6.69 14.3-12.32 23.42-14.46m6.25 10.92c.15 4.49.17 9.02.87 13.47.51.14 1.53.43 2.04.57.3-4.72.55-9.45.6-14.17-.88.03-2.63.1-3.51.13m.65 18.28c2.45.71 2.91-1.31 3.04-3.34-1.72.63-5.29.83-3.04 3.34m-26.93.29c-.02 6.92.1 13.85.06 20.78 3.93-.13 8.03.55 11.84-.62 4.22-1.99 3.48-8.25-.32-10.32 3.87-1.75 3.69-8.16-.46-9.35-3.64-.86-7.42-.36-11.12-.49zm-151.02-25.44c7.52-1.57 15.24.68 21.95 4.03 10.14 5.08 18.01 14.1 22.63 24.36 3.08 7.23 4.22 16.11.28 23.24-3.51 5.97-10.55 9.08-17.31 8.96-10.25-.07-19.78-5.25-27.28-11.91-8.91-8.47-15.8-20.49-14.47-33.14.67-7.59 6.82-14.04 14.2-15.54m2.02 14.51c.01 1.03.02 2.07.04 3.12 1.03.06 2.05.13 3.08.21.07-1.12.14-2.24.22-3.34-1.12-.01-2.23 0-3.34.01m.25 9.91c-.01 2.1-.05 4.21-.08 6.33 1.03-.87 2.06-1.73 3.1-2.58.06-1.23.13-2.45.2-3.65-1.08-.05-2.15-.08-3.22-.1m14.63 12.84c.15 4.24-1.09 9.89 3.15 12.61 4.27 3.03 10.95.27 11.37-5.14-3.32-.35-4.57 4.12-7.87 3.46-1.99-.14-3.25-2.1-3.42-3.93-.32-3.05-.4-6.19.25-9.19.64-2.95 4.93-3.42 6.67-1.21 1.15 1.59 2.82 2.16 4.82 1.96-1.21-2.69-3.03-5.69-6.25-6.07-4.51-1.1-9.2 2.85-8.72 7.51zm228.93-36.72c5.82-1.2 12.26-1.02 17.55 1.96 5.54 3.18 8.51 9.62 8.58 15.87.12 7.92-2.87 15.63-7.27 22.11-6.43 8.97-15.45 16.4-26.19 19.44-6.08 1.68-12.88 2.01-18.68-.78-5.34-2.47-9.4-7.74-9.98-13.64-1.08-9.01 2.27-18.01 7.58-25.18 6.81-9.58 16.86-17.1 28.41-19.78m7.59 15.37c-.07 2.58-.17 5.17-.22 7.76 2.7-1.76 4.14-4.47 3.89-7.69a150.7 150.7 0 0 0-3.67-.07m-29.63 13.99c.13 6.93-.03 13.86.23 20.79.7.04 2.11.13 2.81.18.06-5.31.02-10.61.04-15.91 3.11 5.29 6.51 10.41 9.51 15.77.77 0 2.3-.01 3.07-.02-.23-6.96.13-13.92-.03-20.88-.98.03-1.96.07-2.93.12-.1 5.16.12 10.31.23 15.47-3.44-4.98-6.51-10.19-9.59-15.38-1.12-.06-2.23-.1-3.34-.14zm-300.82-23.92c6.68-2.11 13.9-.9 20.3 1.61 11.48 4.64 20.75 13.97 26.17 25.02 2.96 6.48 4.54 14.03 2.37 21-2 6.68-8.4 11.48-15.22 12.3-8.03 1.14-16.18-1.34-23.01-5.5-13.54-8.39-24.58-23.6-22.71-40.18.78-6.62 5.68-12.44 12.1-14.25m-1.8 17.44c1.12 3.4 5.05 4.07 7.88 5.47.01.5.01 1.5.01 2-2.65 1.72-5.61.3-8.39-.17.31 2.39 2.47 3.15 4.37 3.93.21.63.62 1.87.82 2.49l1.57-.4c1.08-2.78 4.53-4.27 4.49-7.5-.92-3.88-5.46-4.35-8.46-5.89 1.11-3.72 5.03-2.96 7.75-1.7.17-3.2-3.45-3.81-4.74-6.23-1.79 2.6-5.56 4.43-5.3 8m19.58 10.62c1.95 3.6 4.24 6.99 6.26 10.55-2.01 3.68-4.46 7.08-6.52 10.72 1.22-.04 2.43-.16 3.63-.34 1.75-2.45 3.11-5.14 4.68-7.69 1.63 2.6 3.1 5.32 4.61 8 .87-.02 2.62-.05 3.5-.07-2.34-3.45-4.47-7.02-6.6-10.59 2.16-3.54 4.35-7.06 6.47-10.62-4.89-.84-5.69 4.88-7.98 7.84-2.32-2.95-3.18-8.66-8.05-7.8zm381.26-28.13c6.96-1.5 15-.38 20.37 4.6 4.71 4.86 5.73 12.27 4.61 18.72-1.57 8.28-5.41 16.18-11.19 22.34-7.38 7.98-17.11 14.51-28.17 15.53-7.28.76-15.46-1.83-19.54-8.23-4.26-6.58-3.74-15.11-.99-22.16 5.98-14.9 18.91-27.5 34.91-30.8m6.33 15.75c-.04 1.8-.08 3.6-.1 5.42.92-.13 1.85-.26 2.78-.37.42-1.7.83-3.39 1.22-5.08-1.31-.01-2.61 0-3.9.03m-29.22 14.71c.12 6.93-.06 13.86-.07 20.79l3.04.08c.01-4.71-.3-9.42-.07-14.11 2.47 3.7 2.64 9.24 6.55 11.71 2.77-3.41 3.73-7.86 5.73-11.71.16 4.68.03 9.37.01 14.06.71.04 2.13.1 2.84.13.04-6.95-.24-13.9.06-20.84-1-.01-1.98 0-2.96.03-2.07 4.43-3.79 9.04-6.17 13.33-1.87-4.43-3.92-8.76-5.82-13.17-.78-.07-2.35-.22-3.14-.3zM168.4 880.43c9.06-2.1 18.46 1.29 26.09 6.11 9.18 6.12 16.69 15.11 20.33 25.6 2.56 7.48 2.95 16.8-2.58 23.09-5.85 6.59-15.79 7.58-23.85 5.16-13.79-4.12-25.3-14.84-30.91-28.03-2.46-6.06-3.82-12.88-2.14-19.32 1.62-6.19 6.89-11.09 13.06-12.61m-.89 17.51c.04.65.1 1.95.14 2.6 4.34.07 8.68.08 13.02-.01-.11-.93-.21-1.86-.31-2.78-4.28-.02-8.57-.04-12.85.19m18.98 13.65c3.25.17 6.52.13 9.78.09-3.3 6.04-8.33 11.23-10.36 17.9 4.68.27 9.36.16 14.05.18-.03-.74-.07-2.22-.09-2.96-3.2-.04-6.4-.03-9.6.01 2.34-3.82 4.71-7.63 7.15-11.38 1.17-1.91 2.63-3.86 2.49-6.21-4.07-.64-8.22-.34-12.32-.29-.45.84-.82 1.72-1.1 2.66zm522.79-30.33c6.2-1.34 13.31-1.15 18.51 2.92 6.09 4.51 8.07 12.77 6.87 19.97-1.82 11.44-8.73 21.64-17.72 28.75-7.88 6.15-17.75 10.79-27.97 9.81-6.88-.57-13.42-5.16-15.7-11.76-3.06-8.33-.36-17.46 3.63-24.97 6.87-12.09 18.55-21.93 32.38-24.72m-16.67 29.83c-.14 3.67 4.28 6.54 7.49 4.47.87-.01 2.59-.02 3.46-.02l-.23 1.34c1.24-1.01 2.16-2.28 2.99-3.62 1.57-.06 3.14-.08 4.73-.08.75 1.6 1.99 2.71 3.78 2.99-1.77-4.53-3.25-9.17-5.06-13.67-.38-.08-1.14-.25-1.53-.33-1.44 2.85-2.5 5.88-3.59 8.88-3.3.56-6.6 1.12-9.88 1.75-.13-2.81-.83-6.06 1.18-8.41 2.44-.43 4.51 1.47 6.76 2.09-.89-2.83-3.49-5.2-6.62-4.14-3.83.92-3.84 5.62-3.48 8.75m23.84-8.98c.16 4.88.04 9.77.3 14.65 2.33-1.05 1.7-3.68 1.96-5.7 2.31-.37 5.32-.17 6.66-2.54 1.5-1.65.35-3.92-.6-5.52-2.58-1.27-5.56-.77-8.32-.89m-32.93 30.35c8.21.58 16.48.38 24.71.22-4.06-3.3-8.4-6.25-12.55-9.43-3.92 3.25-8.13 6.11-12.16 9.21z"/><path d="M469.41 889.99c2.54-.02 5.51-.88 7.71.84 1.15 1.35 1.03 4.58-1.09 4.88-2.2.26-4.43.06-6.64.02-.02-1.92-.01-3.84.02-5.74zm.18 8.59c2.53.25 5.73-.95 7.79 1.03.76 1.37.79 3.34.01 4.73-2.35 1.28-5.16.7-7.72.95-.01-2.24-.03-4.48-.08-6.71zm248.89 5.44c1.71.41 5.06-.26 5.26 2.16.23 2.8-3.28 2.5-5.13 2.87-.06-1.69-.1-3.37-.13-5.03z"/></g><path d="M143.54 30.84c7.01.04 13.57 4.87 16.23 11.28 2.68 6.29 1.61 13.27 1.75 19.91-.22 49.67-.81 99.33-1.04 149.01-.21 57.31-.91 114.61-1.1 171.92-.13 5.19.51 10.46-.61 15.59-12.91.06-25.83.29-38.74.28-6.57.04-13.24-.19-19.67 1.38-6.94 1.66-13.61 4.35-19.89 7.7-2.13-1.15-4.9-2.05-5.69-4.63-1.83-5.57-.99-11.52-1.14-17.28.17-18.66-.02-37.34.48-56 .32-93 1.23-185.99 1.68-278.99-.25-8.5 5.21-17.28 13.79-19.21 2.35.19 4.7.47 7.05.73.04 6.35.02 12.7.45 19.04 13.65.15 27.3.17 40.94-.39.17-6.37.19-12.74.12-19.11 1.79-.43 3.58-.87 5.39-1.23M84.67 166.96c.13 12.36-.06 24.71-.06 37.07.02 5.94-.37 11.91.41 17.83 4.42.21 9.11 1.19 13.34-.56.57-2.05.55-4.19.58-6.29-.2-12.98.29-25.95.19-38.93-.12-4.54.59-9.2-.54-13.65-3.92-1.65-8.42-1.15-12.54-.6-1.81 1.07-1.19 3.39-1.38 5.13m52.49-4.9c-1.63 1.53-1.18 3.98-1.34 5.99.24 16.32.03 32.65.05 48.97.19 1.65-.23 3.77 1.34 4.88 2.87.69 5.86.67 8.8.55 1.41-.18 3.29.11 4.02-1.46.74-1.89.6-3.98.68-5.98-.06-16 .02-32.01.06-48.01-.21-1.63.4-4.46-1.88-4.79-3.86-.71-7.86-.74-11.73-.15m-53.21 154.7c-.6 17.73-.17 35.48-.49 53.22.26 2-.41 4.79 1.56 6.08 3.86.48 7.9.55 11.67-.51 1.11-1.58.75-3.69.93-5.5.05-15.7.1-31.39.2-47.08-.09-2.01.08-4.14-.85-5.98-4.28-.95-8.69-.53-13.02-.23m52.21.4c-1.74 1.77-1.04 4.55-1.28 6.8.05 15.34.1 30.68 0 46.02.02 1.96.08 3.93.48 5.86 4.14 1.37 8.73 1.02 13 .48 1.67-1.66.94-4.3 1.19-6.39-.06-15.97.04-31.93.02-47.89-.25-1.75.42-4.28-1.61-5.17-3.9-.58-7.95-.55-11.8.29zm671.5 145.66c6.66-.95 13.55-.73 20.15.58.11-.28.32-.86.42-1.14.19.4.56 1.21.75 1.61 6.15 35.96 6.89 72.84 2.38 109.04-.58 4.66-.9 9.36-1.71 13.98-1.11 1.55-2.18 3.2-3.74 4.33-6.63.97-13.38.11-20.02-.31-.52-8 .9-15.91 1.48-23.86.83-10.01 1.21-20.04 1.77-30.06.53-13.67-.42-27.34-.92-41-.33-9.4-1.26-18.75-2.52-28.06-.12-1.79-.59-4.9 1.96-5.11m-1.1 6.17c.85.95.93 3.05 2.53 3.13 6.35.79 12.8.2 19.17-.22-.69-1.2-.4-3.61-2.31-3.48-6.45-.31-13.08-1.21-19.39.57m3.06 22.82c.31 1.18.69 2.35 1.12 3.51 6.13.88 12.39.47 18.55 0-.11-1.36-.22-2.72-.32-4.07-6.46-.11-12.96-.49-19.35.56m2.72 33.78c-1.24 1.18-1.34 3.11-.34 4.49 5.61.48 11.31.46 16.91-.13 2.12.03 1.73-2.41 2.28-3.8-6.24-.7-12.59-1.3-18.85-.56m-1.36 38.42c6.37.77 12.82.32 19.21-.11-.58-1.42-.32-3.68-2.21-4.07-4.97-.52-10-.39-14.97-.05-2.09-.06-3.49 2.62-2.03 4.23m-2.65 18.28c-1.26.36-2.71 2.39-.83 3.1 3.59 1.45 7.66.67 11.46.79 3.25-.32 7.1.37 9.7-2.08-.23-.46-.68-1.4-.91-1.86-6.36-1.05-13.09-1.19-19.42.05zm-94.04 238.94c1.45.04 2.9.04 4.37.16-.02 2.21-.26 4.44-.97 6.55-.13-2 .31-4.09-.28-6.01-.82.16-1.49.66-2.02 1.48-.27 1.04-.51 2.08-.75 3.14-.25.02-.75.07-1 .09.19-1.81.41-3.62.65-5.41zm-7.5 89.97c.57-1.88 1.06-3.81 2.14-5.46.83 1.78 1.46 3.65 2.12 5.52-1.43-.03-2.85-.05-4.26-.06zm-12.02 1.6c3.28-.63 6.58-1.19 9.88-1.75-.46 1.46-.82 2.96-1.09 4.49-.87 0-2.59.01-3.46.02.89-1.29 1.66-2.66 2.48-3.99-2.5.9-5.27 3.35-7.81 1.23z" fill="#262626"/><g fill="#7d8184"><path d="M747.02 395.27c.2-1.14.41-2.27.63-3.39l.08 3.47c11.41.11 22.83-.2 34.24.03 16.51.26 32.83 5.84 46.2 15.48 7.97 5.61 13.6 13.81 18.48 22.09 9.04 16.77 10.8 36.33 10.53 55.06-.69 21.66-.42 43.32-.72 64.98-.13 23.34-.33 46.67-.3 70.01-.94 34.67-.69 69.37-.99 104.05-.51 28.64-.48 57.28-.72 85.92.16 17.88-1.2 36.15-7.48 53.04-3.8 10.28-9.53 19.68-15.55 28.79 3.4 3.43 6.62 7.04 9.79 10.71-3.1-3-5.66-6.54-9.07-9.2-2.31-.65-3.42 2.13-4.77 3.48-10.91 15.55-22.07 31.01-34.98 44.97-6.38 7.06-14.06 12.71-21.71 18.3.19 1.23.4 2.46.63 3.71.59.62 1.19 1.25 1.8 1.9 1.22 2.69 2.74 5.23 4.54 7.59-1.83-2.34-3.59-4.73-5.29-7.15l-1.05.59c-.24-1.19-.47-2.37-.7-3.53l-1.39.61c-.06-.68-.19-2.05-.25-2.73-15.23 9.27-32.08 16.14-49.83 18.51-14.94 2.37-30.1 1.56-45.16 1.68-58.35.01-116.69-.49-175.04-.46-70.64-.17-141.28-.5-211.92-.61-40.67-.35-81.34-.44-122.02-.56-18.03-.43-36.43 1.25-54.04-3.64-17.79-4.71-34.2-14.7-46.31-28.59-13.25-15.2-21.85-34.36-24.67-54.3-1.26-9.64-1.66-19.38-1.5-29.1.03-123.65-.01-247.3.02-370.94.09-9.32-.59-18.73 1.24-27.92 3.26-19.32 12.58-37.99 27.6-50.82 4.08-3.51 8.48-6.66 13.13-9.39 6.28-3.35 12.95-6.04 19.89-7.7 6.43-1.57 13.1-1.34 19.67-1.38 12.91.01 25.83-.22 38.74-.28 116.74-.36 233.48-1.39 350.22-1.9 79.34-.5 158.68-1 238.03-1.38m-610.55 40.37c-4.91 1.32-6.32 8.14-2.72 11.55 3.78 4.02 11.71 1.47 11.97-4.18.74-4.91-4.67-9.07-9.25-7.37m25.97-.06c-4.87 1.25-6.32 8.3-2.57 11.53 3.73 3.57 11.3 1.36 11.55-4.14 1.02-4.91-4.4-9.2-8.98-7.39m-79.05.95c-4.27 2.09-4.86 8.47-1.06 11.33 3.95 3.69 11.38.61 11.38-4.85.78-5.37-5.83-9.14-10.32-6.48m25.87-.32c-4.18 1.96-5 8.11-1.68 11.25 3.8 3.94 11.83 1.22 11.87-4.48.74-5.27-5.63-9.51-10.19-6.77m85.21 5.35c-1.69.34-3.36 1.62-3.49 3.45-.59 4.31-.17 8.68-.23 13.01 0 71.99.06 143.98.02 215.97-.24 2.37 1.17 4.96 3.77 5.11 5.15.53 10.35.13 15.53.26 162.32.01 324.65.02 486.97 0 2.73.27 6.45-.95 5.97-4.38.01-76.01.03-152.03-.01-228.03.24-2.32-.97-4.84-3.4-5.33-4.82-.78-9.73-.16-14.59-.28-163.01 0-326.03.07-489.03 0-.38.06-1.13.17-1.51.22m609.45 19.36c-1.4 1.29-1.42 3.3-1.48 5.06.07 39.68.12 79.36.15 119.04.23 2.66-.36 5.78 1.4 8.04 2.19 2.6 5.95 1.94 8.98 2.12 4.56-.18 9.2.37 13.7-.51 2.52-1.71 2.35-5.13 2.98-7.78.81-4.62 1.13-9.32 1.71-13.98 4.51-36.2 3.77-73.08-2.38-109.04-.19-.4-.56-1.21-.75-1.61.28-1.33-1.17-2.56-2.26-2.97-4.3-.74-8.68-.35-13.01-.5-3.07.07-6.74-.34-9.04 2.13m-641.47.73c-4.99 1.23-6.61 8.36-2.71 11.67 3.8 3.92 11.51 1.24 11.65-4.35.74-4.81-4.33-9.17-8.94-7.32m-79.07.71c-4.79 2.3-4.73 9.89-.05 12.29 4.56 2.89 11.21-1.28 10.39-6.67-.16-4.92-6.1-8.15-10.34-5.62m25.92-.07c-4.33 2.1-5 8.75-1.17 11.68 4 3.54 11.33.5 11.35-4.95.66-5.29-5.58-9.44-10.18-6.73m25.91-.05c-4.16 2.15-4.8 8.71-.99 11.52 4 3.55 11.55.78 11.57-4.8.58-5.44-5.9-9.46-10.58-6.72m1.11 25.29c-5.5 1.54-6.43 9.96-1.37 12.66 4.47 3.11 11.23-.74 10.85-6.16.17-4.76-5.13-8.16-9.48-6.5m26.05-.1c-4.82 1.39-6.54 8.54-2.56 11.75 3.77 3.78 11.21 1.25 11.6-4.17.81-4.9-4.35-9.28-9.04-7.58m-79.06.89c-4.49 2.17-4.87 9.34-.5 11.86 4.15 2.93 10.89.05 10.95-5.22.78-5.44-5.85-9.52-10.45-6.64m25.9-.24c-4.68 2.16-5.06 9.66-.48 12.15 4.1 2.75 10.64-.07 10.68-5.23.89-5.37-5.63-9.33-10.2-6.92m27.21 25.51c-4.15 1.37-6.14 6.78-3.59 10.42 2.87 4.96 11.68 3.66 12.66-2.1 1.57-5.11-4.1-10.38-9.07-8.32m25.95-.1c-4.33 1.22-6.24 6.92-3.59 10.54 3.02 4.87 11.78 3.43 12.66-2.42 1.54-5.15-4.18-10.01-9.07-8.12m-79.03.82c-4.89 2.21-4.57 9.85.08 12.17 4.19 2.51 10.06-.63 10.36-5.46.75-5.35-5.87-9.48-10.44-6.71m25.88-.11c-4.35 2.05-4.98 8.94-.9 11.62 3.72 2.96 10.24 1.12 11.03-3.83 1.6-5.57-5.15-10.8-10.13-7.79m1.18 25.27c-5.65 1.38-6.78 10.07-1.56 12.73 4.1 2.67 10.03-.35 10.42-5.18.96-4.86-4.25-9.22-8.86-7.55m25.91-.02c-3.33 1.19-5.68 5.05-4.52 8.54.69 3.23 4.02 5.22 7.19 5.12 4.04.02 7.41-4.01 6.69-7.98-.42-4.35-5.33-7.15-9.36-5.68m25.93-.11c-5.04 1.62-6.51 9.42-1.83 12.31 3.91 3.12 10.55.4 10.86-4.69 1.07-5.03-4.27-9.42-9.03-7.62m-78.97.96c-4.09 1.87-4.68 7.9-1.55 10.92 3.62 4.34 12.01 1.55 11.91-4.24.72-5.36-5.78-9.38-10.36-6.68m1.15 25.32c-4.83 1.36-6.27 8.16-2.7 11.55 3.54 3.8 10.99 2.07 11.92-3.24 1.44-5.17-4.23-10.26-9.22-8.31m25.94-.15c-4.9 1.16-6.39 7.81-3.22 11.42 3.33 3.97 11.24 2.53 12.09-2.9 1.48-5.06-3.84-10.28-8.87-8.52m25.99.02c-4.2 1.17-6.07 6.46-3.87 10.15 2.58 4.96 11.34 4.44 12.84-1.16 2.23-5.33-3.58-11.25-8.97-8.99m25.91-.12c-5.18 1.46-6.53 9.34-1.9 12.24 4 3.05 10.55.48 11.07-4.62 1.18-5.04-4.46-9.68-9.17-7.62m-77.79 26.26c-4.35 1.45-6.33 7.39-3.2 10.94 3.04 4.45 10.87 3.35 12.22-1.98 1.91-5.25-3.75-11.03-9.02-8.96m25.95-.06c-4.88 1.39-6.51 8.37-2.8 11.8 3.3 3.32 9.89 2.13 11.36-2.47 2.26-5.07-3.26-11.34-8.56-9.33m25.92-.05c-3.32 1.15-5.4 4.98-4.46 8.4.73 3.13 3.95 5.32 7.13 5.03 3.75.25 7.11-3.18 6.75-6.92.24-4.75-5.1-8.18-9.42-6.51m26.1.01c-4.09 1.21-6.5 6.35-4.11 10.09 2.68 4.6 10.56 4.47 12.55-.7 2.63-5.16-3-11.58-8.44-9.39m-83.03 31.12c4.88.31 9.77.29 14.65.08-1.35-2.79-3.58-5.72-7.06-5.42-3.6-.48-5.98 2.6-7.59 5.34m25.74.16c4.93.08 9.87.13 14.79-.29-1.47-2.56-3.56-5.45-6.88-5.26-3.73-.5-6.49 2.46-7.91 5.55m26.25-.08c4.93.12 9.86.1 14.78-.23-1.31-2.88-3.7-5.57-7.14-5.42-3.72-.49-6.12 2.76-7.64 5.65m25.85.02c4.92.03 9.84.03 14.75-.27-1.52-2.58-3.57-5.64-6.98-5.45-3.78-.5-6.38 2.65-7.77 5.72m625.99.61c-5.49 2.04-8.94 7.87-8.7 13.64.08 10.32.1 20.65 0 30.98-1.27 13.76 9.45 27.38 23.33 28.7 5.36.55 10.77.54 16.15.33 5.83-.09 11.15-5.18 11.37-11.03.41-4.76-2.47-8.83-4.36-12.97-4.65-9.89-9.86-19.51-14.54-29.39-2.59-5.14-4.72-10.54-7.74-15.46-3.09-5.13-10.07-7.07-15.51-4.8m-687.67 4.33c-.08 6.24-.05 12.49-.11 18.73 1.03.02 2.07.04 3.11.08.11-6.3.2-12.59.12-18.88-1.04.01-2.08.04-3.12.07m-16.27.2c.03 6.16.1 12.33.12 18.51 4.41.09 8.83.12 13.25.13.03-.67.1-2.02.14-2.7-3.45-.09-6.9-.1-10.34-.09.1-5.34.18-10.68.05-16.02-.81.04-2.42.12-3.22.17m22.77-.08c.14 6.19.18 12.38.06 18.57 4.5-.03 8.99-.03 13.48.06 0-.7.01-2.09.02-2.78-3.44-.07-6.87-.12-10.31-.12 0-5.26.04-10.52-.03-15.78-.8.01-2.42.04-3.22.05m15.99-.52c1.86 3.86 4.42 7.34 6.32 11.18.67 2.58.18 5.32.25 7.97 1.04 0 2.08.01 3.13.03-.01-2.54-.16-5.08.17-7.59 1.57-4.2 4.5-7.7 6.67-11.58-5.25-.51-6.1 5.52-8.43 8.88-2.51-3.1-3.15-8.98-8.11-8.89m22.17.97c-4.87 2.43-4.64 8.85-3.68 13.41 1.65 5.7 9.99 6.84 13.69 2.55 1.83-2.05 1.4-5 1.7-7.52-2.41-.24-4.88-.56-7.26.02-1.81 2.89 2.31 2.17 4.03 2.74-.64 1.35-.78 3.2-2.28 3.96-2.72 1.56-6.84-.22-7.03-3.51-.25-3.13-.91-7.84 2.71-9.3 3.61-1.6 5.89 3.21 9.33 2.79.25-5.49-7.16-6.94-11.21-5.14m19.08.05c-5.3 2.35-5.49 9.38-3.72 14.11 2.35 6.05 12.52 5.69 14.47-.48.96-3.64 1.2-7.9-.77-11.25-1.97-3.38-6.67-3.92-9.98-2.38M79.2 650.72c1.44 3.43 4.56 7.36 8.79 6.32 3.26-.55 5.12-3.49 6.22-6.33-5-.23-10.01-.31-15.01.01m51.9-.09c1.48 3.18 3.88 6.78 7.89 6.52 3.91.2 6.01-3.46 7.11-6.65-5-.11-10-.17-15 .13m26.28-.34c.43 4.5 5.04 7.57 9.35 6.32 2.92-.7 4.14-3.63 5.16-6.13-4.84-.11-9.67-.06-14.51-.19m-52.41.42c1.21 3.36 4.08 6.84 8.08 6.13 3.63.05 5.66-3.32 6.9-6.24-4.99-.08-9.99-.08-14.98.11m-20.7 18.66c-5.17 1.54-6.12 9.17-1.72 12.15 4.26 3.3 11.36.01 11.18-5.5.41-4.94-5-8.37-9.46-6.65m25.16.07c-4.31 2.02-5.23 8.53-1.54 11.6 4.04 3.87 12.08.88 11.66-5.02.45-5.21-5.53-9.13-10.12-6.58m25.94.08c-4.07 2.11-5.09 8.57-1.39 11.51 3.96 3.22 11.12 1.33 11.78-4.09 1.34-5.59-5.57-10.31-10.39-7.42m25.98-.07c-4.33 1.95-5.28 8.58-1.39 11.47 4.02 3.66 11.51.72 11.46-4.88.75-5.3-5.52-9.31-10.07-6.59m228.91 39.8c-6.32 1.04-11.98 5.67-13.94 11.82-1.71 5.83-1.17 12.19.71 17.92 3.59 9.5 10.24 17.7 18.42 23.66 7.14 4.86 15.84 8.16 24.58 7.26 7.51-.62 14.35-6.36 16.07-13.73 3.16-15.34-6.55-30.03-18.32-38.97-7.79-5.76-17.72-9.7-27.52-7.96m99.04.06c-15.2 3.23-28.01 14.7-34.37 28.69-3.17 7.25-4.42 16.29-.13 23.35 4.15 6.75 12.67 9.54 20.26 8.63 8.23-.72 15.55-5.11 21.95-10.05 7.75-6.37 13.71-15.14 16.26-24.88 1.21-6.43 1.22-13.87-3.13-19.19-4.75-6.24-13.43-8.21-20.84-6.55m75.16 2.3c-18.48 3.47-34.55 18.68-37.94 37.35-1.27 6.92.65 14.78 6.32 19.3 5.22 4.55 12.68 5.1 19.22 3.8 10.47-1.95 19.42-8.68 26.19-16.65 6.13-7.67 10.96-17.31 9.9-27.39-.46-6.56-4.86-12.6-10.87-15.21-4.02-1.74-8.55-1.8-12.82-1.2m-251.06.9c-4.58 1.51-8.6 4.85-10.48 9.36-2.59 6.13-2.11 13.2-.07 19.42 4.73 13.19 15.24 24.4 28.46 29.26 6.41 2.07 13.54 2.82 20.03.7 6.2-2.04 10.43-8.07 11.31-14.39.56-4.65.08-9.44-1.53-13.84-4.12-11.4-12.7-20.91-23.16-26.9-7.4-3.96-16.35-6.25-24.56-3.61m-71.97 5.09c-7.51 1.29-13.94 7.63-14.94 15.25-1.42 10.22 3.04 20.42 9.46 28.16 6.9 8.21 16.2 14.94 26.95 16.76 6.89 1.16 14.78.16 19.98-4.91 4.9-4.85 6.1-12.4 4.78-18.94-1.94-10.94-9.19-20.12-17.47-27.14-8.07-6.2-18.41-10.71-28.76-9.18m396.96.01c-8.95 1.89-17.28 6.58-23.58 13.22-6.41 6.67-11.67 14.92-12.99 24.23-.9 6.08.23 12.9 4.72 17.4 5.47 5.5 13.99 6.74 21.32 5.09 10.02-2.28 19.11-8.17 25.46-16.22 5.32-6.69 9.57-14.7 9.97-23.39.26-6.36-1.83-13.24-7.06-17.22-5.05-3.79-11.83-4.22-17.84-3.11m-470.95 7.98c-8.24.93-15.37 8.04-16 16.36-1.24 11.21 4.71 21.69 11.78 29.9 8.28 9.1 20.33 15.58 32.89 14.81 7.16-.34 14.05-5.2 16.24-12.11 1.44-5.07 1.17-10.54-.25-15.58-3.39-11.44-11.43-21.26-21.5-27.55-6.94-4.04-15.02-6.93-23.16-5.83m543.03 1.05c-7.43 2.34-14.38 6.38-19.81 11.99-7.34 7.3-13.27 16.81-13.79 27.39-.44 6.82 2.51 14.12 8.51 17.75 7.19 4.42 16.38 3.5 23.94.53 8.59-3.64 16.44-9.47 21.62-17.31 4.9-7.01 8.6-15.38 7.93-24.1-.32-7.24-5.29-14.15-12.23-16.4-5.24-1.64-10.94-1.4-16.17.15m80 9.93c-7.33 1.03-14.16 4.39-19.99 8.87-9.05 7.06-16.33 17.01-18.31 28.5-1.16 6.55-.01 14.09 5.05 18.81 5.45 5.12 13.58 6.38 20.68 4.67 17.33-3.93 31.73-18.4 35.84-35.65 1.61-7.32.23-15.83-5.65-20.94-4.62-4.5-11.54-5.11-17.62-4.26m-701.95 1.09c-4.62 1.87-8.85 5.35-10.69 10.08-2.06 5.37-1.84 11.39-.27 16.86 2.5 8.37 7.41 16.05 13.99 21.8 7.23 6 15.83 11.14 25.45 11.59 6.85.6 14.27-1.86 18.44-7.53 3.57-4.85 3.96-11.27 2.86-16.99-3.6-16.66-16.8-30.67-33.01-35.72-5.42-1.49-11.39-2.04-16.77-.09m301.75 45.66c-7.41 1.01-13.86 7.1-14.94 14.54-1.63 11.28 3.45 22.58 11.1 30.66 6.89 7.66 16.06 13.92 26.5 15.12 6.91.83 14.64-.99 19.19-6.57 4.63-5.4 5.17-13.12 3.6-19.8-2.03-9.7-8.48-17.78-15.79-24.16-8.2-6.72-18.87-11.45-29.66-9.79m97.28.44c-14.76 3.52-27.22 14.77-33.11 28.64-2.9 7-3.82 15.39-.13 22.29 3.36 6.31 10.8 9.55 17.76 9.23 10.66-.11 20.27-5.92 27.83-13.04 8.5-7.86 14.34-19.19 13.68-30.96-.2-5.97-3.74-11.64-8.97-14.49-5.16-2.9-11.42-2.73-17.06-1.67m-174.14 3.85c-4.29 1.48-8.37 4.3-10.27 8.55-2.66 5.75-2.44 12.48-.86 18.5 3.29 10.42 10.24 19.68 19.43 25.62 6.75 4.74 14.95 7.58 23.24 7.26 5.74-.26 11.41-3.14 14.59-7.98 3.46-5.12 3.73-11.73 2.47-17.6-2.99-13.47-12.84-24.76-24.88-31.11-7.16-3.82-15.82-5.91-23.72-3.24m247-.04c-11.42 2.91-21.01 10.85-27.58 20.45-5.45 7.55-8.55 17.32-6.36 26.59 1.28 5.49 5.66 9.95 10.91 11.85 6.54 2.25 13.79 1.19 20.17-1.14 15.86-6.12 28.98-20.96 30.19-38.31.51-6.95-2.59-14.35-8.75-17.94-5.62-3.16-12.48-3.02-18.58-1.5m-320.01 4.98c-7.33 1.51-13.14 7.96-13.98 15.38-1.57 12.46 5.17 24.47 14.12 32.66 7.6 7.35 17.76 12.4 28.46 12.56 6.43 0 13-3.11 16.35-8.72 3.61-5.78 3.38-13.09 1.49-19.41-3.72-12.61-13.36-22.9-24.89-28.89-6.55-3.38-14.23-5.28-21.55-3.58m398.02.15c-16.76 3.42-30.69 16.79-36.06 32.85-1.92 6.59-2.19 14.34 1.87 20.22 4.14 6.35 12.48 8.57 19.68 7.69 12.77-1.65 23.93-9.78 31.4-20 5.04-6.69 8.27-15.01 7.87-23.46-.38-6.08-3.33-12.4-8.78-15.48-4.83-2.7-10.66-2.71-15.98-1.82m-472.23 10.57c-3.59.89-7.05 2.63-9.68 5.25-3.9 4.04-5.48 9.87-4.96 15.38.83 11.08 7.04 21.07 15 28.52 7.02 6.34 15.92 11.04 25.47 11.7 6.34.31 13.29-1.58 17.48-6.62 4.12-5.14 4.79-12.26 3.46-18.52-2.72-12.5-11.3-23.1-21.91-29.95-7.31-4.57-16.24-7.31-24.86-5.76m545.34.53c-14.15 3.71-25.96 14.47-32.2 27.56-2.56 5.37-3.79 11.44-3.06 17.38 1.34 8.06 8.58 14.7 16.73 15.38 11.55 1.3 22.69-4.39 30.99-12.02 6.29-6.16 11.43-13.77 13.79-22.31 1.94-7.58.82-16.73-5.3-22.15-5.63-5.08-13.9-5.27-20.95-3.84M89.45 816.46c-4.76 1.64-9.11 5.07-11.06 9.81-1.91 4.77-2.04 10.13-.93 15.12 2.62 11.01 9.43 20.96 18.71 27.44 7.15 5.21 15.83 9.07 24.84 8.41 6.08-.42 12.4-3.3 15.4-8.84 3.77-6.74 2.85-15.09.2-22.06-5.62-14.07-17.72-25.74-32.49-29.69-4.77-1.17-9.9-1.63-14.67-.19m698 .19c-8.97 1.87-16.82 7.26-23.19 13.67-6.1 6.63-11.06 14.74-12.51 23.75-.96 6.56.45 14.06 5.66 18.59 5.22 4.76 12.82 5.76 19.55 4.41 10.62-1.82 19.78-8.47 26.68-16.5 5.81-7.21 10.22-16.07 10.29-25.5.16-6.69-3.18-13.64-9.16-16.91-5.26-2.9-11.61-2.85-17.32-1.51M387.4 857.6c-8.27 2.33-13.3 11.01-12.84 19.32.56 10.15 5.98 19.46 12.78 26.77 7.23 7.63 17.07 13.1 27.63 13.99 7.24.65 15.09-2.47 18.78-8.97 3.57-6.48 3.02-14.48.67-21.28-4.89-13.44-16.11-24.3-29.52-29.15-5.58-1.97-11.82-2.57-17.5-.68m99.07 0c-9.12 2.14-17.03 7.77-23.42 14.46-6.17 6.52-10.96 14.79-11.78 23.86-.63 6.12 1.27 12.67 5.71 17.03 5.39 4.81 13.18 6.04 20.12 4.75 9.16-1.84 17.27-7.23 23.73-13.82 7.21-7.78 12.56-17.98 12.4-28.8-.02-5.74-2.53-11.64-7.38-14.91-5.62-3.84-12.93-4.05-19.38-2.57m-171.05 4.05c-7.38 1.5-13.53 7.95-14.2 15.54-1.33 12.65 5.56 24.67 14.47 33.14 7.5 6.66 17.03 11.84 27.28 11.91 6.76.12 13.8-2.99 17.31-8.96 3.94-7.13 2.8-16.01-.28-23.24-4.62-10.26-12.49-19.28-22.63-24.36-6.71-3.35-14.43-5.6-21.95-4.03m245.83.54c-11.55 2.68-21.6 10.2-28.41 19.78-5.31 7.17-8.66 16.17-7.58 25.18.58 5.9 4.64 11.17 9.98 13.64 5.8 2.79 12.6 2.46 18.68.78 10.74-3.04 19.76-10.47 26.19-19.44 4.4-6.48 7.39-14.19 7.27-22.11-.07-6.25-3.04-12.69-8.58-15.87-5.29-2.98-11.73-3.16-17.55-1.96m-322.86 5.44c-6.42 1.81-11.32 7.63-12.1 14.25-1.87 16.58 9.17 31.79 22.71 40.18 6.83 4.16 14.98 6.64 23.01 5.5 6.82-.82 13.22-5.62 15.22-12.3 2.17-6.97.59-14.52-2.37-21-5.42-11.05-14.69-20.38-26.17-25.02-6.4-2.51-13.62-3.72-20.3-1.61m399.04-.07c-16 3.3-28.93 15.9-34.91 30.8-2.75 7.05-3.27 15.58.99 22.16 4.08 6.4 12.26 8.99 19.54 8.23 11.06-1.02 20.79-7.55 28.17-15.53 5.78-6.16 9.62-14.06 11.19-22.34 1.12-6.45.1-13.86-4.61-18.72-5.37-4.98-13.41-6.1-20.37-4.6M168.4 880.43c-6.17 1.52-11.44 6.42-13.06 12.61-1.68 6.44-.32 13.26 2.14 19.32 5.61 13.19 17.12 23.91 30.91 28.03 8.06 2.42 18 1.43 23.85-5.16 5.53-6.29 5.14-15.61 2.58-23.09-3.64-10.49-11.15-19.48-20.33-25.6-7.63-4.82-17.03-8.21-26.09-6.11m540.88.83c-13.83 2.79-25.51 12.63-32.38 24.72-3.99 7.51-6.69 16.64-3.63 24.97 2.28 6.6 8.82 11.19 15.7 11.76 10.22.98 20.09-3.66 27.97-9.81 8.99-7.11 15.9-17.31 17.72-28.75 1.2-7.2-.78-15.46-6.87-19.97-5.2-4.07-12.31-4.26-18.51-2.92M92.63 901.65c-2.19.66-3.79 2.39-5.48 3.84.38 2.89 1.52 5.68 3.82 7.58 8.3 7.63 17.52 14.64 28.15 18.68 3.41 1.17 8.5 1.83 10.29-2.18 2.2-4.96 3.31-10.33 4.82-15.52 1.23-4.11-.85-8.95-5.06-10.28-11.56-4.49-24.55-5.33-36.54-2.12M422 939.58c-9 .65-18.01 1.66-26.81 3.73-8.45 1.6-17.44 3.67-23.82 9.84.21 2.59.73 5.65 3.48 6.74 12.25 6.75 26.44 8.62 40.13 10.24 7.02.37 13.98 1.68 21.03 1.43 9.32-.15 18.69.49 27.95-.88 10.58-.39 21.13-1.87 31.44-4.28 6.79-1.89 14.01-3.72 19.25-8.73-.05-1.73-.08-3.44-.1-5.15-10.05-8.1-23.29-9.26-35.51-11.49-10.27-1.8-20.73-1.23-31.06-2.42-8.69-.7-17.29 1.04-25.98.97z"/><path d="M161.25 630.36c5.6-1.62 7.23 5.5 6.08 9.6-.2 4.36-7.18 5.57-8.75 1.49-1.14-3.59-1.54-9.38 2.67-11.09zm331.91 174.68c1.08.05 2.17.12 3.27.2-.07.99-.14 1.99-.2 3-1.14 0-2.28.01-3.41.03.09-.81.26-2.42.34-3.23zm.21 81.76c-2.25-2.51 1.32-2.71 3.04-3.34-.13 2.03-.59 4.05-3.04 3.34zm-102.21-1.69c1.09-1.79 2.47 1.03 2.68 2.03.49 2.02-2.2 2.22-3.44 1.4-.18-1.19-.62-2.78.76-3.43zm325.29 17c2.76.12 5.74-.38 8.32.89.95 1.6 2.1 3.87.6 5.52-1.34 2.37-4.35 2.17-6.66 2.54-.26 2.02.37 4.65-1.96 5.7-.26-4.88-.14-9.77-.3-14.65m2.03 1.91c.03 1.66.07 3.34.13 5.03 1.85-.37 5.36-.07 5.13-2.87-.2-2.42-3.55-1.75-5.26-2.16z"/></g><path fill="#b5b5b5" d="M194.47 441.56c.38-.05 1.13-.16 1.51-.22 163 .07 326.02 0 489.03 0 4.86.12 9.77-.5 14.59.28 2.43.49 3.64 3.01 3.4 5.33.04 76 .02 152.02.01 228.03.48 3.43-3.24 4.65-5.97 4.38-162.32.02-324.65.01-486.97 0-5.18-.13-10.38.27-15.53-.26-2.6-.15-4.01-2.74-3.77-5.11.04-71.99-.02-143.98-.02-215.97.06-4.33-.36-8.7.23-13.01.13-1.83 1.8-3.11 3.49-3.45z"/><path d="M388.85 719.58c3.21-.04 6.44-.06 9.66-.06-.34.94-.67 1.9-1 2.86-1.78-.1-3.55-.16-5.32-.22-.01.97-.01 1.94 0 2.93 3.09-.16 6.82 1.15 6.52 4.87.99 3.95-2.84 7.93-6.83 6.53-2.28-.19-2.76-2.49-3.18-4.32l2.64.04c.44.64 1.32 1.94 1.76 2.58 2.72-1.23 2.9-3.92 2.63-6.53-2.32.01-4.62.22-6.91.43.02-3.04.02-6.08.03-9.11zm106.42 2.72c.7-1.62 2.43-2.04 3.95-2.51-.89 2.43-1.94 4.81-3.09 7.13 3.53.06 6.28 3.61 4.85 7-.54 2.36-3.14 2.83-5.01 3.66-1.66-1.03-4.16-1.67-4.45-3.94-.63-4.13 1.8-7.9 3.75-11.34m.05 7.1c-1.73 1.13-.8 3.62-.89 5.35.99-.06 1.98-.16 2.97-.3 2.41-1.49.72-5.85-2.08-5.05zm-178.76-1.76c1.45-2.56 2.05-6.57 5.66-6.78-1.25 4.37-3.38 8.4-5.38 12.45.87.02 2.61.04 3.48.06.88-1.57.34-6.46 3.09-4.42.61 1.83.98 3.74 1.45 5.62-.56 1.25-1.1 2.51-1.62 3.8-.92-.05-1.83-.08-2.74-.1.02-.68.07-2.03.09-2.71-2.16-.06-4.32-.02-6.46-.25-.56-2.71 1.57-5.18 2.43-7.67zm245.96-5.31c3.4-.12 6.8-.12 10.2.02-1.47 5.49-3.04 10.98-5.05 16.3-.73.22-2.18.65-2.9.87 1.19-5.08 3.55-9.83 4.36-15.02-2.32.23-4.11 1.56-5.64 3.21-.34-1.8-.67-3.6-.97-5.38zm-321.9 5.4c2.12-.79 5.04-.89 6.44 1.24 1.22 1.98.32 4.31-.55 6.24.99 2.31 2.13 5.39.22 7.56-2.95 3.03-9.11.92-8.69-3.62 2.07.77 3.92 2.4 6.21 2.42a54.44 54.44 0 0 0 1.55-3.61c-1.33-.65-2.66-1.28-3.98-1.91.6-1.41 1.74-2.35 3.06-3.06-.18-1.27-.36-2.53-.55-3.77-2.02.99-4.02 2.03-6.12 2.84.61-1.51.89-3.42 2.41-4.33zm398 3.13c2-2.84 7.47-2.38 8.54 1.15.79 1.94-.59 3.67-1.49 5.27.5.38 1.49 1.14 1.99 1.52-.06 2.29.33 5.33-2.16 6.54-2.35.65-5.77.85-7.2-1.58-1.54-2.09-.3-4.62.63-6.65-.51-2.02-1.34-4.25-.31-6.25m2.04.82c-.05 1.26-.09 2.53-.11 3.82 1.39.1 2.79.19 4.2.28-.08-1.42-.17-2.82-.27-4.21-1.28.01-2.55.06-3.82.11m-.25 7.01c-.51 2.26.21 4.24 2.5 5.12.51-.45 1.52-1.35 2.03-1.79-.2-1.16-.4-2.3-.59-3.44-1.32.02-2.63.06-3.94.11zm-476.22 3.34c-3.21-1.19-.46-4.75 1.8-5.2 3.44-1.46 7.58 2.08 6.36 5.69-1.28 3.17-3.83 5.6-5.67 8.45 1.99.15 3.99.27 5.99.4-.01.53-.04 1.59-.05 2.12-3.47-.04-6.94-.05-10.4-.15 1.45-3.97 4.76-6.76 6.91-10.29.98-1.17.57-3.66-1.23-3.61-1.77-.43-2.57 1.71-3.71 2.59zm550.37 2.78c-.86-3.72 2.86-7.37 6.55-5.76 3.98 1.12 3.79 6.33 2.23 9.35-1.61 2.92-2.61 7.37-6.68 7.4 1.03-2.17 2.15-4.29 3.3-6.4-2.41-.57-5.49-1.56-5.4-4.59m3.04-3.18c-.55 1.64-.12 3.37.04 5.05 1.15-.14 2.32-.21 3.48-.46.74-1.47.42-3.14.44-4.71-1.33-.01-2.65-.03-3.96.12zm-626.11 8.89c1.62-.77 3.25-1.5 4.89-2.19.39 6.05.35 12.12.04 18.18-.64-.3-1.92-.89-2.55-1.19.03-4.47.02-8.94-.09-13.4-.54.27-1.63.81-2.17 1.08l-.12-2.48zm702.91-1.1c1.86-.46 3.99-.57 5.74.35 1.89.97 1.91 3.34 2.06 5.19.04 2.89.2 5.89-.66 8.69-1.83 3.64-8.27 3.37-9.41-.67-.63-2.96-.42-6.01-.29-9 .05-1.8.64-3.95 2.56-4.56m1.3 2.11c-1.8 1.23-1.1 3.6-1.29 5.45.27 2.11-.59 4.93 1.46 6.35 1.55 1.01 3.64-.49 3.53-2.24.23-2.94.06-5.88.07-8.8-1.24-.37-2.46-1.02-3.77-.76zm-303.12 45.22c1.24-.05 2.49-.09 3.75-.12 0 1.09 0 2.19.01 3.31-2.19-.05-4.27-.41-3.76-3.19zm-104.82 2.99c3.71.01 7.42.03 11.13.02-.01.66-.03 1.98-.05 2.65-3.68.04-7.36.03-11.03-.04-.02-.66-.04-1.98-.05-2.63zm179.01 3.56c1.22-.14 2.46-.27 3.7-.39.66 2.97-.5 5.52-3.15 7-.16-2.21-.34-4.42-.55-6.61zm-179.47 4.11c.34-.62 1.03-1.87 1.38-2.5 3.39-.2 6.89-.43 10.23.38.22.51.66 1.53.88 2.05-4.16.21-8.33.27-12.49.07zm-72-.78c2.16-.01 4.33-.01 6.5 0-.01.92-.02 1.85-.02 2.79-2.19 0-4.38 0-6.57.01.02-.95.05-1.88.09-2.8zm-74.63.48c.92.04 1.83.08 2.75.14-.01 1.32-.02 2.65-.02 3.98 1.35-.01 2.71-.01 4.08 0 .01.64.04 1.93.05 2.57-1.33 0-2.65 0-3.97.02-.06 1.41-.05 2.84-.23 4.27-.65.13-1.97.38-2.62.51.01-1.48.03-2.96.05-4.42-1.35-.02-2.7-.02-4.04-.02-.1-.96-.2-1.91-.29-2.84 1.4-.03 2.8-.04 4.2-.04.01-1.4.03-2.79.04-4.17zm401.97.75c1.17-.3 2.35-.59 3.53-.88 2.11 1.74 2.39 4.11 1.55 6.62-1.52.07-3.03.23-4.53.15-1.01-.89-1.86-1.95-2.74-2.92.72-1.01 1.45-1.99 2.19-2.97zm65.1 12.61c2.15-6.88 12.87-8.09 16.53-1.93 1.5 3.17 1.58 7.12.51 10.43-.63 2.24-3.31 1.59-4.84.78-2.3.6-5.48 1.94-7.22-.41-2.04-3.22-1.7-8.9 2.38-10.34 2.29-1.1 5.44.43 5.8 3.01.45 2.25.47 4.57.81 6.86 1.85-3.59 1.74-9.17-2.06-11.45-3.37-2.28-8.31.11-9.24 3.88-.36 2.17-.35 4.4-.08 6.6.31 2.69 2.97 4.79 5.66 4.63 2.34.12 5.27-1.1 6.63 1.6-3.93 1.03-8.45 1.69-11.96-.84-3.98-2.86-4.03-8.52-2.92-12.82m6.55.76c-.24 1.79-.46 3.6-.65 5.41.25-.02.75-.07 1-.09l-.2.83c.81.14 2.43.42 3.25.56.71-2.11.95-4.34.97-6.55-1.47-.12-2.92-.12-4.37-.16zm-543.54-5.36c.7-.15 2.09-.46 2.79-.62-1.27 6.17-2.97 12.24-4.73 18.28-.68-.02-2.05-.07-2.74-.09 1.65-5.83 2.82-11.8 4.68-17.57zm-77.07 15.82c2.26-.64 4.95.98 4.92 3.48.16 2.94-4.31 4.88-6.25 2.46-1.96-1.74-.99-5.05 1.33-5.94zm399.04 36.83c.88-.03 2.63-.1 3.51-.13-.05 4.72-.3 9.45-.6 14.17-.51-.14-1.53-.43-2.04-.57-.7-4.45-.72-8.98-.87-13.47zm-103.42 1.84c3.29-2.27 9.07.17 8.37 4.53-.88 3.27-3.61 5.7-4.7 8.93l-3.25-.48c1.33-3 3.3-5.62 4.98-8.42.58-1.96-2.32-3.57-3.57-1.85-1.32 1.3-2.8 2.39-4.75 2.49.68-1.84.96-4.21 2.92-5.2zm-71.86 5.8c1.11-.01 2.22-.02 3.34-.01-.08 1.1-.15 2.22-.22 3.34-1.03-.08-2.05-.15-3.08-.21-.02-1.05-.03-2.09-.04-3.12zm251.4 1.4c1.22.01 2.44.03 3.67.07.25 3.22-1.19 5.93-3.89 7.69.05-2.59.15-5.18.22-7.76zm-332.25 7.51c-.26-3.57 3.51-5.4 5.3-8 1.29 2.42 4.91 3.03 4.74 6.23-2.72-1.26-6.64-2.02-7.75 1.7 3 1.54 7.54 2.01 8.46 5.89.04 3.23-3.41 4.72-4.49 7.5l-1.57.4c-.2-.62-.61-1.86-.82-2.49-1.9-.78-4.06-1.54-4.37-3.93 2.78.47 5.74 1.89 8.39.17 0-.5 0-1.5-.01-2-2.83-1.4-6.76-2.07-7.88-5.47zm407.17-1.76c1.29-.03 2.59-.04 3.9-.03-.39 1.69-.8 3.38-1.22 5.08-.93.11-1.86.24-2.78.37.02-1.82.06-3.62.1-5.42zm-326.07 2.76c1.07.02 2.14.05 3.22.1-.07 1.2-.14 2.42-.2 3.65-1.04.85-2.07 1.71-3.1 2.58.03-2.12.07-4.23.08-6.33zm-150.18 11.87c4.28-.23 8.57-.21 12.85-.19.1.92.2 1.85.31 2.78-4.34.09-8.68.08-13.02.01-.04-.65-.1-1.95-.14-2.6zm659.86 1.85c1.35-1.35 2.46-4.13 4.77-3.48 3.41 2.66 5.97 6.2 9.07 9.2 1.58 1.59 3.12 3.24 4.61 4.94 12.01 12.54 23.5 25.56 35.58 38.02 12.92 14.5 25.56 29.24 37.66 44.43 3.62 4.73 7.83 9.05 10.86 14.22-13.31 12.95-25.54 27.13-40.36 38.44-8.06 6.63-16.6 12.66-24.64 19.33-1.54 1.19-3.77 2.93-5.59 1.23-5.09-3.62-9.24-8.36-13.86-12.53-14.71-13.03-27.06-28.4-39.8-43.28-9.36-11.34-19-22.44-28.02-34.05-1.8-2.36-3.32-4.9-4.54-7.59-.61-.65-1.21-1.28-1.8-1.9-.23-1.25-.44-2.48-.63-3.71 7.65-5.59 15.33-11.24 21.71-18.3 12.91-13.96 24.07-29.42 34.98-44.97zm-734.74 1.86c11.99-3.21 24.98-2.37 36.54 2.12 4.21 1.33 6.29 6.17 5.06 10.28-1.51 5.19-2.62 10.56-4.82 15.52-1.79 4.01-6.88 3.35-10.29 2.18-10.63-4.04-19.85-11.05-28.15-18.68-2.3-1.9-3.44-4.69-3.82-7.58 1.69-1.45 3.29-3.18 5.48-3.84zm599.98 9.44c-.36-3.13-.35-7.83 3.48-8.75 3.13-1.06 5.73 1.31 6.62 4.14-2.25-.62-4.32-2.52-6.76-2.09-2.01 2.35-1.31 5.6-1.18 8.41 2.54 2.12 5.31-.33 7.81-1.23-.82 1.33-1.59 2.7-2.48 3.99-3.21 2.07-7.63-.8-7.49-4.47zm15.63-8.92c.39.08 1.15.25 1.53.33 1.81 4.5 3.29 9.14 5.06 13.67-1.79-.28-3.03-1.39-3.78-2.99-1.59 0-3.16.02-4.73.08-.83 1.34-1.75 2.61-2.99 3.62l.23-1.34c.27-1.53.63-3.03 1.09-4.49 1.09-3 2.15-6.03 3.59-8.88m-1.45 9.03c1.41.01 2.83.03 4.26.06-.66-1.87-1.29-3.74-2.12-5.52-1.08 1.65-1.57 3.58-2.14 5.46zM422 939.58c8.69.07 17.29-1.67 25.98-.97 10.33 1.19 20.79.62 31.06 2.42 12.22 2.23 25.46 3.39 35.51 11.49.02 1.71.05 3.42.1 5.15-5.24 5.01-12.46 6.84-19.25 8.73-10.31 2.41-20.86 3.89-31.44 4.28-9.26 1.37-18.63.73-27.95.88-7.05.25-14.01-1.06-21.03-1.43-13.69-1.62-27.88-3.49-40.13-10.24-2.75-1.09-3.27-4.15-3.48-6.74 6.38-6.17 15.37-8.24 23.82-9.84 8.8-2.07 17.81-3.08 26.81-3.73z" fill="#ec8a27"/></svg>