<svg width="752pt" height="1408pt" viewBox="0 0 752 1408" xmlns="http://www.w3.org/2000/svg"><path fill="#888b94" d="M107.77 0h528.71c17.3 1.49 34.61 5.38 50.12 13.37 17.57 8.72 32.62 22.13 44.12 37.95 10.87 15 17.82 32.63 21.28 50.78v1204.22c-5.62 31.38-23.45 60.63-49.71 78.92-19.12 14.09-42.69 21.1-66.2 22.76H106.6c-18.76-2.28-37.44-7.76-53.22-18.4-15.3-9.66-28.12-23.02-37.77-38.29-7.76-12.35-12.48-26.33-15.61-40.5V96.78C2.81 84.89 6.53 73.11 12.48 62.4 26.44 36.77 50.02 16.6 77.44 6.66 87.2 3.1 97.48 1.18 107.77 0m.71 17.65c-14.96 1.63-29.39 6.86-42.34 14.46-30.82 18.54-51.06 53.76-50.61 89.84-.16 53.35-.02 106.7-.07 160.05.02 334.31-.01 668.63.01 1002.94-.25 15.23 3.03 30.43 9.27 44.31 5.58 13.35 14.91 24.78 25.28 34.72 13.19 12.28 29.89 20.4 47.32 24.62 11.02 2.67 22.44 2.71 33.71 2.73 164-.08 328-.06 492-.06 12.32.13 24.79-.83 36.59-4.6 24.31-7.14 45.99-23.09 59.44-44.62 11.24-17.8 16.97-39.01 16.22-60.05-.11-381.66 0-763.33-.06-1144.99-.09-9.1.43-18.25-.77-27.3-3.4-31.62-22.54-60.95-49.83-77.18-17-10.27-36.79-15.57-56.62-15.71-166.67-.09-333.34.03-500.01-.02-6.52-.1-13.05.18-19.53.86z"/><path fill="#cad3d4" d="M108.48 17.65c6.48-.68 13.01-.96 19.53-.86 166.67.05 333.34-.07 500.01.02 19.83.14 39.62 5.44 56.62 15.71 27.29 16.23 46.43 45.56 49.83 77.18 1.2 9.05.68 18.2.77 27.3.06 381.66-.05 763.33.06 1144.99.75 21.04-4.98 42.25-16.22 60.05-13.45 21.53-35.13 37.48-59.44 44.62-11.8 3.77-24.27 4.73-36.59 4.6-164 0-328-.02-492 .06-11.27-.02-22.69-.06-33.71-2.73-17.43-4.22-34.13-12.34-47.32-24.62-10.37-9.94-19.7-21.37-25.28-34.72-6.24-13.88-9.52-29.08-9.27-44.31-.02-334.31.01-668.63-.01-1002.94.05-53.35-.09-106.7.07-160.05-.45-36.08 19.79-71.3 50.61-89.84 12.95-7.6 27.38-12.83 42.34-14.46m-47.99 108.3c-.05 371.96-.07 743.94.01 1115.9 44.14-.37 88.29-.03 132.44-.15 165.88-.04 331.76.15 497.63-.1-.21-49.19-.05-98.38-.08-147.56-.03-322.66 0-645.32-.01-967.98-90.81.04-181.63-.11-272.43-.03-119.19-.17-238.37.17-357.56-.08M368.3 1263.34c-20.49 2.64-37.11 21.1-38.3 41.6-1.48 17.69 8.72 35.64 24.62 43.53 15.67 8.3 36.04 6.17 49.75-5.07 10.84-8.23 16.75-21.96 16.81-35.41.15-14.48-7.28-28.68-19.09-37.01-9.68-6.82-22.14-9.42-33.79-7.64z"/><path fill="#4e4e54" d="M60.49 125.95c119.19.25 238.37-.09 357.56.08 90.8-.08 181.62.07 272.43.03.01 322.66-.02 645.32.01 967.98.03 49.18-.13 98.37.08 147.56-165.87.25-331.75.06-497.63.1-44.15.12-88.3-.22-132.44.15-.08-371.96-.06-743.94-.01-1115.9m7.93 8.21c.31 12.63.09 25.25.04 37.88.02 199.66-.03 399.32.03 598.98-.08 154.25.1 308.51-.1 462.77 151.55.16 303.11.04 454.66.02 53.17-.17 106.35.26 159.52-.13.13-268.56.03-537.13.07-805.7-.08-97.86.13-195.73-.12-293.59-1.15-1.06-3.05-.35-4.47-.59-89.36.71-178.7-.06-268.03.26-109.02 0-218.04.13-327.05-.08-4.85-.16-9.72-.34-14.55.18z"/><path fill="#747474" d="M68.42 134.16c4.83-.52 9.7-.34 14.55-.18 109.01.21 218.03.08 327.05.08 89.33-.32 178.67.45 268.03-.26 1.42.24 3.32-.47 4.47.59.25 97.86.04 195.73.12 293.59-.04 268.57.06 537.14-.07 805.7-53.17.39-106.35-.04-159.52.13-151.55.02-303.11.14-454.66-.02.2-154.26.02-308.52.1-462.77-.06-199.66-.01-399.32-.03-598.98.05-12.63.27-25.25-.04-37.88z"/><path fill="#b1b9bb" d="M368.3 1263.34c11.65-1.78 24.11.82 33.79 7.64 11.81 8.33 19.24 22.53 19.09 37.01-.06 13.45-5.97 27.18-16.81 35.41-13.71 11.24-34.08 13.37-49.75 5.07-15.9-7.89-26.1-25.84-24.62-43.53 1.19-20.5 17.81-38.96 38.3-41.6z"/></svg>