<svg version="1.2" xmlns="http://www.w3.org/2000/svg" viewBox="0 0 1392 768" width="1392" height="768"><style>.a{fill:#fff}.b{fill:#c7a237}.c{fill:#0a0a0a}.d{fill:#494949}.e{fill:#cbcbcb}</style><path class="a" d="m1155.4 148c0-2.2 2.7-2.8 4.5-2.7 5 0.1 10.1-0.2 15.1 0.3 1.8 0.1 3.4 1.6 3.2 3.5 0.2 4.3 0.3 8.7 0 13.1-0.6 0.1-1.8 0.2-2.4 0.3-1-4.5-0.1-9.3-0.5-13.9-5.6-0.5-11.2-0.4-16.7-0.1-0.5 4.8-0.1 9.7-0.2 14.5-0.8-0.1-2.3-0.2-3.1-0.3 0-4.9-0.2-9.8 0.1-14.7z"/><path class="a" d="m1178.9 147.1c0.2-2.7 3.3-1.7 5.1-2 17.7 0.2 35.4-0.1 53 0.1 1.8-0.3 3.4 0.9 3.2 2.8 0.1 8.4 0.1 16.7 0.1 25.1-0.9 1.6-2.8 1.3-4.3 1.3-16-0.2-32-0.1-48-0.1-3.2-0.1-6.5 0.3-9.7-0.7 0.1 4.3 0.3 8.6 0 12.9-0.2 2.1-2.3 3.2-4.2 3.1-5.1 0.1-10.1 0.1-15.2-0.1-2.3 0.2-3.6-2.3-3.5-4.4-0.1-4.4-0.4-8.9 0.3-13.3 0.6 0 2-0.1 2.7-0.2 0.2 4.9 0 9.9 0.2 14.9 5.5 0 11 0.3 16.5-0.3 0.6-4.5-0.2-9.1 0.5-13.7 0.6 1.5 3.7 0.9 3.3-0.8-0.1-8.2-0.5-16.4 0-24.6zm2.9 1.2c0.1 7.6-0.1 15.2 0.1 22.9q27.8 0 55.6 0 0.1-11.5-0.2-23c-18.5 0.2-37-0.1-55.5 0.1z"/><path class="a" d="m1240.8 145.7c4.3-0.9 8.8-0.4 13.3-0.6 15.3 0.1 30.6-0.1 46 0.1 2.8-0.6 2.4 2.9 2.5 4.7-0.3 8.1 0.2 16.3-0.4 24.4-20.2 0.1-40.5-0.1-60.7 0-0.4-1.4-0.8-2.8-0.8-4.3-0.1-8.1-0.1-16.2 0.1-24.3zm3.1 2.5c-0.2 7.7-0.3 15.4-0.2 23 18.6 0 37.1 0 55.7 0.1q0.1-11.5-0.1-23.1c-18.5 0.1-37 0-55.4 0z"/><path class="a" d="m1195.6 150.5c9.6 0 19.2-0.1 28.8 0.1l0.1 1.3q0.2 8.4 0 16.8c-10 0.8-20.1 0.5-30.1 0.2v-0.9c0-5.3 0-10.7-0.7-16 0.5-0.4 1.5-1.2 1.9-1.5z"/><path class="a" d="m1256.6 150.7c10.2-0.5 20.4-0.2 30.6 0v1.3c0.1 4.9 0 9.9 0 14.8 2.4 0.3 4.9 0.6 7.3 1-2.4-0.1-4.8-0.3-7.1-0.6-0.3 0.5-0.8 1.4-1.1 1.9q-14.8 0.1-29.7 0c-0.5-6.1 0.2-12.2 0-18.4z"/><path class="a" d="m1196 183c11-0.7 22 0 33-0.2 2.3 0.2 5.2-0.6 6.9 1.4 2.2 2.7 1.7 6.5 1.8 9.8-0.2 3.3 0.5 7-1.9 9.7 2.2 3 1.8 6.8 1.9 10.3-0.1 3.3 0.4 6.9-1.8 9.7 2.5 4 1.4 8.9 1.7 13.3 0.2 2.3-0.4 4.4-1.7 6.2 2.3 3.2 1.5 7.2 1.6 10.8-0.1 2.9 0.5 6.1-1.8 8.2 2.7 4.1 1.6 9.2 1.9 13.9 0.2 2.1-0.6 4.2-1.8 6 2.7 4.1 1.4 9.3 1.7 13.9 0.4 2.7-0.8 5.2-2.3 7.4 4.5 5.5 4.2 13.8-0.8 18.9 1.2 1 2.9 1.9 2.9 3.7 0.4 4.3 0.2 8.7 0.1 13 0.1 1.5-0.9 2.7-1.7 3.9 2.4 3.2 1.7 7.3 1.9 11.1-0.1 3.1 0.4 6.6-1.7 9.3 2.1 3.2 1.5 7.1 1.6 10.7-0.1 3.1 0.5 6.5-1.6 9.1 2.3 2.8 1.6 6.5 1.7 9.9-0.1 3.2 0.4 6.7-1.4 9.6 2 3.5 1.2 7.6 1.4 11.4-0.1 2.8 0.3 5.8-1.5 8.2 2.4 4.6 1.2 9.9 1.4 14.8-0.1 2.2 0.5 5.6-2.5 6.2-3.3 0.7-6.7 0.2-10.1 0.4-9.1-0.1-18.3 0.1-27.5-0.2-2.7-0.1-3.4-3.2-3.3-5.4 0.1-5.3-0.7-10.7 1.2-15.7-2.4-3.7-1-8.2-1.2-12.3-0.2-2.6 0.3-5.2 1-7.7-1.6-4.6-1.1-9.6-1.2-14.4-0.2-1.8 0.8-3.4 1.7-5-2.5-3.1-1.6-7.2-1.7-10.9-0.2-3 0.2-6.1 1.7-8.8-2.2-2.6-1.6-6.1-1.6-9.3 0.2-3.6-0.4-7.4 1.3-10.7-2.8-5.7-0.7-12.3-1.1-18.3q1.2-1.3 2.5-2.5c-4.7-5.4-5.5-14-0.7-19.5-0.9-1.5-2-3-1.9-4.9-0.3-5.3-0.9-10.9 1.4-15.9-2.2-2.9-1.5-6.7-1.5-10.2 0.2-3.2-0.3-6.6 1.5-9.5-2.3-3.2-1.5-7.6-1.5-11.4 0.2-2.8 0-5.7 1.5-8.1-1.6-2.3-1.5-5.2-1.6-7.9-0.2-3.8-0.4-7.7 1.6-11.1-2.1-3.9-1.7-8.5-1.7-12.9 0-2.5 0.4-5 2-7-3.2-3.2-1.6-8.1-1.9-12.1 0.4-2.9-0.6-6.8 2.1-8.9zm1.3 2.5c-0.1 4.9-0.2 9.8 0 14.6-0.2 1.4 1.4 2.4 2.7 2.1 11 0 22.1 0.2 33.1 0 0.4-0.3 1-0.9 1.3-1.2 0.3-5 0.1-10.1-0.1-15.2-12.3-0.3-24.7 0.2-37-0.3zm0.5 20.2c-1.3 3.6-0.3 7.5-0.6 11.2 0.1 1.6-0.7 4.8 1.7 4.9 11.8-0.1 23.7 0.5 35.4-0.4 0.1-4.8 0.4-9.6 0-14.5-0.1-2.2-2.9-1.3-4.3-1.5-10.7 0.2-21.5-0.5-32.2 0.3zm-0.6 22.2c-0.1 4.5-0.6 9 0.3 13.5 10.8 0.5 21.7 0.1 32.5 0.1 1.5-0.1 3.5 0.3 4.3-1.3 0.5-4.1 0.3-8.1 0.2-12.1 0-1.4-0.7-3.3-2.4-3-10.7 0-21.5 0.1-32.2 0-1.8-0.4-2.8 1.2-2.7 2.8zm0.3 17.6c-0.7 3.7-0.1 7.7-0.3 11.5-0.2 1.7 0.4 4.3 2.7 4 10.7 0.2 21.4 0.4 32.1 0 3.1-0.4 2.5-3.8 2.6-6-0.3-3.3 0.4-6.8-0.6-9.9-9-0.8-18 0-26.9-0.3-3.2 0.3-6.7-0.6-9.6 0.7zm0.8 19l-0.6 0.1c-0.7 4.5-0.4 9.1-0.5 13.5-0.2 1.6 1.3 2.9 2.8 2.7 10.9-0.1 21.9 0.1 32.8-0.1 0.3-0.2 0.9-0.5 1.2-0.7 0.9-4.6 0.4-9.4 0.5-14 0.4-2.2-2.3-1.7-3.5-1.8-10.9 0.2-21.8-0.1-32.7 0.3zm-0.7 20.1c-1.1 4.2-0.1 9.1-0.5 13.5-0.3 1.7 1.6 2.4 2.9 2.3 10.3 0.3 20.7 0 31 0.2 1.2 0 3.4 0 3.4-1.7 0.3-4.6 0.2-9.3-0.1-13.9-0.3-0.3-0.9-0.8-1.2-1.1-9.1-0.3-18.1-0.1-27.2-0.2-2.7 0.3-5.9-0.6-8.3 0.9zm1.9 19.9c-5.3 3.1-5.4 13.2 0.3 15.7 10 0.2 20.1 0 30.2 0 4 0.2 5.8-4.7 5.4-8.1 0-3.1-1.4-7.9-5.2-7.7-10.3-0.2-20.5-0.4-30.7 0.1zm-2.2 22.3c-0.2 4.1-0.1 8.2-0.1 12.3-0.2 1.5 1.1 2.9 2.7 2.7 10.7 0.1 21.4 0.2 32.1 0 1.5 0.1 2.7-1.2 2.5-2.7 0.1-4.5 0.2-9-0.2-13.5-11.1-0.6-22.2 0-33.3-0.3-1.3 0.3-4.1-0.7-3.7 1.5zm0.4 18.8c-1 4-0.4 8.3-0.5 12.4 0.1 1.1-0.3 3.3 1.4 3.4 5.8 0.7 11.6 0.1 17.4 0.3 6.1-0.2 12.3 0.4 18.3-0.4-0.1-5.3 0.8-10.9-0.4-16-9.5-1-19.3-0.1-28.9-0.4-2.4 0.2-5.1-0.6-7.3 0.7zm-0.8 24.4c0.2 3.8-0.1 7.6 0.7 11.3 12.2 0.1 24.4 0.3 36.5-0.2 0.8-5.4 0.6-11 0.1-16.3-11.8 0.2-23.7-0.2-35.4 0.1-2.2 0.7-1.8 3.4-1.9 5.1zm0.7 15.5c-0.8 4.8-0.7 10.1-0.1 15 2 1 4.3 0.5 6.5 0.6 9.7-0.1 19.3 0.3 29-0.3 2.2 0.3 1.4-2.5 1.6-3.7-0.3-4.1 0.6-8.3-0.7-12.2-10.6-0.8-21.3 0-31.9-0.3-1.4 0.2-3.5-0.6-4.4 0.9zm-0.1 19c-0.5 4.5-0.4 9.1-0.3 13.6-0.1 1 0.4 2.8 1.8 2.6 11.3 0.2 22.6 0.2 33.9-0.1 0.3-0.1 0.9-0.4 1.2-0.5 1.1-3.5 0.2-7.4 0.5-11-0.2-1.6 0.4-4.6-1.9-4.6-11.8-0.1-23.5-0.2-35.2 0zm0.1 20.2c-0.8 5.2-0.2 10.4-0.3 15.7 12.4 0.1 24.7-0.1 37.2 0.1-0.1-5.2 0.1-10.3-0.1-15.5-0.3-0.2-1-0.8-1.3-1.1-11.4-0.3-22.8-0.1-34.2 0.1-0.3 0.2-0.9 0.5-1.3 0.7z"/><path class="a" d="m1050.5 244c0.9-3.6 3.2-7.9 7.5-7.7 5.6-1 10.3 5.6 7.9 10.6-0.9 2.1-3 3.3-4.8 4.5-2.4 0-5 0.2-7-1.4-2.1-1.4-2.7-3.9-3.6-6z"/><path class="a" d="m200.8 243c-0.5-2.6 2.4-2.3 4.1-2.3 156.7 0 313.4 0 470.1 0 89 0.1 177.9-0.2 266.8 0.2 0.5 4.7 0.3 9.4 0.3 14.2 0 117.6 0 235.2 0 352.9-0.2 3.1 0.6 6.4-0.6 9.4-6.9 0.7-13.9 0.2-20.8 0.3q0-1.6 0-3.2 9.1 0 18.2 0.1c-0.3-68.9-0.1-137.7-0.2-206.5 0.1-54.7-0.1-109.3 0.1-164-70.1 0-140.3 0.1-210.4-0.1q-0.2 1-0.5 2c0-0.5-0.2-1.5-0.2-2-174.5 0.3-349 0-523.5 0.2q-0.1 185.1 0 370.3c5.8 0 11.7 0 17.5 0q0 1.6-0.1 3.2c-6.7-0.1-13.5 0.4-20.2-0.2-0.6-1.4-0.5-3-0.6-4.4 0.1-123.4-0.1-246.7 0-370.1z"/><path class="a" d="m38.8 280.2c31.7 0 63.3-0.1 95 0 0.2 100.7 0.1 201.4 0 302.1-7.2 0.8-14.5 0.3-21.8 0.4-24.4-0.1-48.8 0.4-73.2-0.2 0.1-100.8-0.1-201.5 0-302.3zm46.2 31.7c-9.2 0.2-18.4 5-22.8 13.2-4.3 8.1-3.9 18.7 1.5 26.3 4.4 6.2 11.7 10.2 19.3 10.9 8.5 0.8 17.8-1 24.2-7.1 10.1-9.4 10-27.7-0.7-36.7-5.8-5.2-13.9-6.9-21.5-6.6zm-18.1 62.9c-4.1 2.8-6.4 7.5-7.3 12.2-1.1 7.2-0.2 15.1 4.5 20.9 9.6 12.6 29.9 14.2 41.9 4.2 8.4-6.9 10.3-19.2 7-29.1-1.6-4.4-3.3-9.1-6.9-12.2-6.6-0.1-13.2 0.1-19.9 0 0.1 7.3 0 14.6 0.1 21.9q3.3 0 6.6 0c0-4.8 0-9.7 0-14.5 3.4-0.1 6.8-0.1 10.2-0.1 4.1 6.4 6.2 14.8 3.1 22.1-2.2 5.3-7.3 8.8-12.8 10-7.2 1.6-15.5 0.7-21.4-4.1-6.6-5.3-8.2-15.7-3.7-22.7 1.9-3 5.3-4.4 8.4-5.5q-0.6-3.5-1.3-6.9c-2.9 0.9-6 1.9-8.5 3.8zm-6.9 56.5c8.2 5.1 16.1 10.6 24.2 15.7-8.1 4.9-16 10.1-24.1 15q0 4.7 0 9.4c10-6.5 19.9-13.2 30-19.6 1.1-0.9 2.6-0.6 3.9-0.7 6.5 0 13 0 19.5 0.1q0.1-3.9 0.1-7.8c-7.5 0-15.1 0.3-22.6 0-10.7-6.5-20.6-14.1-30.8-21.1-0.1 3-0.1 6-0.1 9zm47.1 38.5c-0.1 8.6-0.3 17.2-0.3 25.9q-23.4-0.1-46.8-0.1 0 3.8 0 7.5c17.8 0.1 35.6-0.1 53.4 0 0.2-11.1 0.2-22.2 0.1-33.4q-3.2 0.1-6.4 0.1zm-47.1 45.4q0 3.8 0 7.6 26.8-0.1 53.5 0 0-3.8 0-7.6c-17.8 0.1-35.6 0-53.5 0zm47.1 17.1c-0.2 8.6 0 17.2-0.4 25.8-15.5-0.2-31.1 0-46.6-0.2q-0.1 3.8-0.1 7.7 26.7-0.2 53.5 0c-0.1-11.1 0.1-22.3 0-33.4q-3.2 0-6.4 0.1z"/><path class="a" d="m998.2 296c-0.7-3.7 1.8-6.5 4.6-8.5 2.4 0.2 5.3-0.5 7.3 1.3 2.6 1.9 3.4 5.3 3.4 8.4-1.4 3.2-4 5.4-7.5 6.2-3.7-0.7-8.2-2.9-7.8-7.4z"/><path class="a" d="m1103.5 292.8c1.8-2.5 4-5.6 7.5-5.3 5.4-0.7 10.1 6 7.5 10.9-1.9 5.2-9.5 6.2-13 2.1-2-2-2-5.1-2-7.7z"/><path class="a" d="m78.5 320.7c8.5-2.6 19.1-1.6 25.4 5.4 6 6.7 5.1 18.1-1.8 23.9-4.9 4.3-11.9 5.3-18.2 4.8-7.2-0.6-14.6-4.7-17-11.8-1.4-4.9-1.2-10.5 1.5-14.9 2.3-3.6 6-6.1 10.1-7.4z"/><path class="a" d="m1009.4 386.2c1.9 0.3 4.5-0.2 5.6 1.7 0.3 2.6 0.3 5.3 0.1 7.9-0.7 0.1-2.1 0.4-2.7 0.5q-0.1-3.4-0.1-6.8-1.9-0.5-3.7-0.9c0.2-0.6 0.6-1.8 0.8-2.4z"/><path class="a" d="m962 386.6c2-0.1 4.1-0.2 6 0.2 1.5 3-4.3 1.3-3.4 4.2 0 8.2 0.1 16.5 0.1 24.8 2.2-0.5 3.5 0.6 3.2 2.8-2.3 0-7 1.3-6.3-2.6 0.2-9.8-0.6-19.6 0.4-29.4z"/><path class="a" d="m1012.1 406.2q0.2-3 0.6-5.9c2 0.1 2.5 2 2.6 3.8 0.8 2.1-2.1 1.6-3.2 2.1z"/><path class="a" d="m1012.2 415.9c0.2-2.1-0.8-6.8 2.9-4.8 0.1 2.3 0.4 4.7-0.3 7-1.8 0.9-3.9 0.7-5.9 0.6-0.7-0.8-0.4-2-0.6-2.9 1 0 2.9 0.1 3.9 0.1z"/><path class="a" d="m1238.8 483.9c-0.3-2.4 1.7-4.7 4.2-4.3 22.5 0.1 45 0.1 67.6 0.1 0 0.7 0 2.1-0.1 2.8q-19.9-0.2-39.9 0.1c0.1 5.1 0.1 10.3-0.1 15.5-0.2-5 0-10.1-0.2-15.1l-0.9-0.1c-9.1-0.2-18.2-0.4-27.3 0.1-0.7 9-0.1 18-0.2 27-0.1 17.4 0.1 34.8-0.1 52.1q0 2.4 0.1 4.9-0.1 6-0.1 12 0 1.5 0 3.1c0 18.3-0.1 36.5 0.1 54.8 22.9 0.6 45.9 0.1 68.9 0.3q-0.2 1.5-0.3 3.1c-23.2 0-46.5-0.1-69.7 0-1.1-1.6-2.3-3.3-2.1-5.3q0-75.5 0.1-151.1z"/><path class="a" d="m1180.9 490c-0.2-1.8 1.3-3.3 3.1-3.2 5-0.1 10.1-0.2 15.1 0.1q0.6 1.3 0.8 2.7c-5.3 0.2-10.7 0-16 0.1-0.1 6 0 11.9-0.1 17.9 12.6 0.1 25.2-0.2 37.8 0-0.1-5.9 0.1-11.9-0.2-17.8-5.3-0.3-10.7 0.1-16-0.4-1.6-1 0.1-2.8 1.5-2.7 5.4 0 10.8-0.2 16.1 0.3 1.7 1.1 1.6 3.2 1.6 5 0.1 5.5 0.2 11 0 16.5 3.1 0.1 6.4-0.4 9.4 0.6 2.2 1.3 1.1 4.3 1.5 6.4-0.7 0-2 0.1-2.6 0.1q-0.2-2.1-0.5-4.1c-15.4-0.5-30.9 0-46.4-0.3-4.4 0.2-9-0.5-13.4 0.7-0.2 1.4-0.4 2.8-0.5 4.3-0.6 0-1.7 0-2.3 0-1.1-2.3-0.4-5.4 1.4-7.2 3.1-0.8 6.4-0.2 9.6-0.2 0.1-6.3-0.1-12.6 0.1-18.8z"/><path class="a" d="m1169.8 526.8c0.7-0.1 2-0.1 2.6-0.2 0.3 4.1 0.5 8.2 0 12.3-0.7 0.1-2.1 0.4-2.7 0.5-0.2-4.2-0.4-8.4 0.1-12.6z"/><path class="a" d="m1232.7 526.5c0.7 0.1 2 0.4 2.6 0.5 0.7 4 0.2 8.1 0.4 12.2-0.7 0-2.1 0-2.8-0.1-0.1-4.2 0-8.4-0.2-12.6z"/><path class="a" d="m1183 534.3c-2.2 0.6-2.5-3.8 0-3.1 13.6 0 27.2-0.2 40.9 0.1-0.3 1.1 0.3 3.5-1.8 3-13.1 0-26.1 0.2-39.1 0z"/><path class="a" d="m1172 557.3c-3.1-1.3-4.3-8.2 0.6-7.1q0 2.1 0 4.2c16.9-0.1 33.8-0.5 50.7-0.2 2.2 7.8 1.1 16 0.9 23.9-1.5 1.1-3.5 0.7-5.2 0.8-11.7 0-23.3-0.1-35 0.3-1.9 0.3-2.9-1.5-3-3.1 0-5.2 0.1-10.4 0.1-15.7 0-1.1 0.1-2.2 0.1-3.3-3.1 0-6.2 0.3-9.2 0.2zm12.1 0.5c-0.3 6-0.4 12 0.1 17.9 12.4 0.2 24.8 0 37.2 0 0.3-5.9 0.2-11.9-0.1-17.8-12.4-0.2-24.8-0.1-37.2-0.1z"/><path class="a" d="m1232.2 554.6c0.3-1.9 0.5-5.4 3.3-4.1 0.6 2 0 4.1-1.2 5.9l-1.3 0.4c-0.1 0.1-0.4 0.2-0.6 0.2q-2.3 1-4.5 0.2c-0.2-0.8-0.4-2.4-0.5-3.2 1.6 0.2 3.2 0.4 4.8 0.6z"/><path class="a" d="m1127.5 602.1c-0.3-2 2.1-1.8 3.4-1.9 10.8 0 21.5-0.1 32.3 0.1 1.6-0.6 2.6 2.9 0.8 2.7-11.2 0.5-22.4-0.1-33.6 0.2 0 13.2 0 26.3 0 39.5 2.4 0 5.2-0.2 6.5 2.4-2.3 0.4-4.6 0.7-6.9 0.6-1.5 0.3-3-1.1-2.7-2.6 0.2-13.7-0.1-27.4 0.2-41z"/><path class="a" d="m1178.9 603.1c-2.5-0.5-0.7-3.1 1-2.9 10.7-0.1 21.4 0 32.2 0 1.8-0.2 4 0.6 3.5 2.9 0 14.1 0.3 28.3-0.2 42.4-2.3 0.2-4.5 0.3-6.7-0.2-1.9-2.8 2.2-2.6 4-2.6q-0.1-19.8 0-39.5c-11.3-0.2-22.5 0.1-33.8-0.1z"/><path class="a" d="m1167.6 616.1c0.8-2.8 3.3-4.7 5.5-6.4 0.4 0.2 1.2 0.4 1.6 0.5 0.6 2.8-2.9 3.9-4.4 5.7 1.5 1.5 3.1 2.8 4.4 4.6 0.2 2.6-2.7 4-4.2 5.8 1.6 1.8 5 3.4 4.1 6.3-1.5 2.2-3.3 4.3-5.5 5.9-0.4-0.4-1.2-1.1-1.6-1.5 1.1-2.1 3-3.6 4.8-5.3-1.8-1.7-3.7-3.3-4.8-5.6 1.4-1.7 3-3.4 4.4-5.2-1.3-1.7-3.2-2.9-4.3-4.8z"/><path class="a" d="m1152.1 643.8c3.4-1.7 7.3-0.7 10.9-0.8 2.1-0.7 2 3.2 0 2.7-2.5 0.1-4.9 0.2-7.3-0.1-1.2-0.5-2.4-1.2-3.6-1.8z"/><path class="a" d="m1177.5 644.1c0.4-0.3 1.2-0.9 1.5-1.2 4-0.2 8.1-0.3 12.1 0.3-0.3 0.5-0.8 1.4-1 1.9q-0.9 0.8-1.8 1.5l-0.5-0.3c-3-2.1-8 1.3-10.3-2.2z"/><path class="a" d="m997.7 680.1c10.5-0.6 21.1-0.1 31.7-0.3 0 6.5 0.1 13.1 0 19.7-10.6 0-21.2 0.1-31.8-0.1q-0.1-9.6 0.1-19.3z"/><path class="b" d="m1012.7 10.7c0.8-1.5 2.8-1.3 4.3-1.4 25.6 0 51.3 0 77 0 3.3 0.1 6.8-0.4 10.2 0.4 1.3 6-0.1 12.2 0.7 18.3 1.9 2.1 4.7 3.1 7.1 4.7-1.9 2-4.4 3.1-6.6 4.7-0.9 3.5 6.9 3.2 5.1 7-2 1.5-4.3 2.8-6.3 4.3 2.7 1.6 5.5 3.1 7.8 5.3-2.1 1.8-5.6 2.6-6.8 5.1 1.7 2.2 4.5 3.1 6.7 4.7-1.7 2.3-4.4 3.4-6.9 4.8 0.6 3.3 4.8 3.9 6.9 6.1-2.3 1.7-4.7 3.2-7.1 4.7 2 2.4 5.1 3.4 7.3 5.6-2.2 2.2-6.2 2.8-7.3 5.9-0.2 8.3-0.1 16.6 0 24.9 7.8 0.5 15.8-0.9 23.5 0.7-0.3 8.4 0.1 16.9-0.2 25.4-0.3 19.3 0.1 38.5 0.2 57.8-0.1 0.5-0.5 1.3-0.7 1.8-5.9 0-11.8 0-17.6 0.1-1.8-0.2-4 0.2-5.3-1.4 0-19.4 0.1-38.8 0.1-58.2-12 0-23.9-0.5-35.8 0.2-6.7 0.5-13.4 0.6-20.1 0-12.2-0.7-24.4-0.3-36.5-0.2 0 9.4-0.2 18.8 0.1 28.2 0.3 10.2 0.1 20.3 0.1 30.4-7.8 0.1-15.7-0.1-23.5 0.2-1.2-10.1-0.5-20.3-0.4-30.4l0.8-0.2c-0.1-9.5 0-18.9-0.1-28.4 0-8.5 0.1-17 0.1-25.5 3.1-0.1 6.3-0.1 9.5-0.3 4.5-0.4 9 0.6 13.5-0.4-0.2-7.6-0.1-15.2 0-22.9-2.2-1.4-4.7-2.6-6.6-4.6 2.6-1.3 5.2-2.8 7.2-5-2.5-1.7-5.5-2.8-7.1-5.4 2.5-1.5 4.9-3 7.2-4.7-2.1-2-5-3-6.9-5 1.4-2.5 4.6-3.6 6.7-5.7q-3-2.4-6.4-4.2c0-0.3-0.2-1.1-0.3-1.5 2.4-1.3 5-2.7 6.7-4.9-2.3-1.5-4.7-2.8-7.1-4.2 1.7-2.7 4.7-3.9 7.1-5.7-2.1-1.9-4.5-3.3-6.9-4.6 1.1-2.6 4.1-3.4 6.1-5.2 0.8-7.1-0.3-14.2 0.5-21.3z"/><path class="b" d="m1222.3 427.6c2.7-0.1 5.4 0 8.2 0.1q0 4.6 0 9.2-4.4-0.1-8.7-0.1c0.8-3-0.3-6.2 0.5-9.2z"/><path class="c" d="m20.5 160.3c4.9-11.4 17.3-18.6 29.5-18.4 313.2-0.1 626.3 0 939.4-0.1 0.1 9.5 0 18.9 0.1 28.4l-0.8 0.1c-0.7 0.1-2.2 0.3-3 0.4-0.1 13.5 0 26.9-0.1 40.3q19.7 0 39.4 0 0-20.3 0-40.6-6.3-0.2-12.5-0.2c-0.3-9.4-0.1-18.8-0.1-28.2 12.2-0.1 24.4-0.5 36.5 0.2-0.8 14.3-0.2 28.5-0.4 42.8 0.1 8-0.3 16 0.1 24q10.2 0 20.4 0 0-33.4 0-66.8c11.9-0.7 23.8-0.2 35.8-0.2 0 19.4-0.1 38.8-0.1 58.2l-0.5-0.4c-0.2-9.8-0.2-19.6 0.1-29.4q-6.2-0.2-12.3 0.1 0 20.3 0 40.5 20 0 40 0 0-20.2 0-40.5c-0.8 0.1-2.3 0.2-3.1 0.3 0.1 7.4-0.1 14.8 0.1 22.2-0.2 2.2 0.1 4.6-0.7 6.7-0.1-19.3-0.5-38.5-0.2-57.8 67.7-0.1 135.3 0 202.9-0.1 7.3-0.1 14.8 1.9 20.6 6.5 7.8 5.5 12.2 15.2 12.2 24.6 0.1 103.2 0 206.4 0 309.5q-4.1 0.1-8.2 0.1c-1.2-3.5-2.8-7.2-6.1-9.1-4.8-3.4-11-2.2-16.6-2.4-5.2-0.2-10.9 0.2-15.1 3.7-2.5 1.8-3.4 5-4.3 7.8q-1.5 0-3 0c0.1-0.7 0.1-2.1 0.1-2.8-22.5 0-45.1 0-67.6-0.1-2.5-0.4-4.5 1.9-4.2 4.3q-0.1 75.6-0.1 151.1c-0.2 2 1 3.7 2.1 5.3 23.2-0.1 46.5 0 69.7 0q0.1-1.6 0.3-3.1c-23-0.2-46 0.3-68.9-0.3-0.2-18.3-0.1-36.5-0.1-54.8 3.9 2.1 7.8 4.5 12.4 4.9q0.4 1.5 0.8 3 7.6 0.7 15.3 1c-0.1 2.6-0.2 5.3-0.6 7.9q-0.3 1.4-0.7 2.7c-6.1 3.9-6.6 13.9-0.4 17.9 0.1 0.2 0.4 0.6 0.5 0.8 0.4 4.9 0 9.8 0.2 14.7 14.7-0.1 29.5-0.1 44.3 0.2 0.6 3.3 1.8 6.6 4.8 8.5 5.5 4.4 13 3.2 19.6 3.3 5.1 0.2 10.8-0.8 14.3-4.8 1.9-1.8 2.5-4.5 3.1-7 2.8-0.1 5.6-0.1 8.4-0.1 0.1 12.6 0 25.3 0 37.9 0 11-7.1 21.2-16.8 26-5.5 2.9-11.9 3.2-18 3.1-29.5-0.1-59.1 0.1-88.6-0.1q-93.5-0.1-187 0.1-4.5 0.1-8.9-0.2c-0.2-8.6 0-17.3-0.2-25.9 0.5-2.6-2.4-2-4-2.1 1-1.5 2.1-3 1.9-4.9q-0.2-7-0.4-14c0-1.5-1.1-3.2-2.7-3.2-5-0.3-10.1-0.3-15.1 0.1q-2.2 0.8-0.8 2.7c5.1 0.7 10.6-0.6 15.5 0.7 0.5 4.2 0 8.5 0.2 12.7-0.1 1.3 0.4 3.7-1.8 3.3-10.7 0.1-21.4-0.1-32.1 0.1-1.2-0.2-3.8 0.6-3.8-1.4 0-4.9-0.1-9.9 0.2-14.7 4.9-1.2 10.3-0.2 15.4-0.7q-0.4-1.3-0.8-2.6c-4.9-0.8-10-0.3-14.9-0.3-2.2 0.1-2.8 2.7-2.8 4.4-0.2 4.7-0.1 9.3-0.1 13.9-0.1 1.6 0.9 2.8 1.6 4.1-5.5 0.1-11.1-0.3-16.6 0.2-0.9 9.1 0 18.4-0.4 27.6-19.4 0.5-38.9 0.1-58.3 0.2 0 5.1-0.1 10.2 0 15.3q-18.6-0.1-37.1 0 0.1-7.7 0-15.3-262.2 0-524.4 0c-92.1-0.1-184.2 0.2-276.3-0.1 6.3-4.4 12.2-10 15-17.3 4.2-9.9 3.4-21.8-2.1-31.1-3.9-6.9-10.5-11.8-17.8-14.5-12-4-26.2-0.6-35 8.6-10.2 10.5-12.3 27.7-4.9 40.3 3.3 5.8 8.1 11.1 14.4 13.7-7.4 0.4-15.3 0.8-22.1-2.9-10.1-5.2-16.8-16.4-16.6-27.8 0-162.6 0-325.3 0-487.9 0.1-7.7-0.7-15.7 2.9-22.8zm1158.4-13.2c-0.5 8.2-0.1 16.4 0 24.6 0.4 1.7-2.7 2.3-3.3 0.8-0.7 4.5 0.1 9.2-0.5 13.7-5.5 0.5-11 0.3-16.5 0.3-0.2-5 0-10-0.2-14.9-0.7 0-2.1 0.2-2.7 0.2-0.7 4.4-0.4 8.9-0.3 13.3-0.1 2.1 1.2 4.6 3.5 4.4 5.1 0.2 10.1 0.1 15.2 0.1 1.9 0.1 4-1 4.2-3.1 0.3-4.3 0.1-8.6 0-12.9 3.2 1 6.5 0.6 9.7 0.7 16 0 32-0.1 48 0.1 1.5 0 3.4 0.3 4.3-1.3 0-8.4 0-16.7-0.1-25.1 0.2-1.9-1.4-3.1-3.2-2.8-17.6-0.2-35.3 0.1-53-0.1-1.8 0.3-4.9-0.7-5.1 2zm-23.5 0.9c-0.3 4.9-0.1 9.8-0.1 14.7 0.8 0.1 2.3 0.2 3.1 0.3 0.1-4.8-0.3-9.7 0.2-14.5 5.5-0.4 11.1-0.4 16.7 0.1 0.4 4.6-0.5 9.4 0.5 13.9 0.6-0.1 1.8-0.2 2.4-0.3 0.3-4.4 0.2-8.8 0-13.1 0.2-1.9-1.4-3.4-3.2-3.5-5-0.5-10.1-0.2-15.1-0.3-1.8-0.1-4.5 0.5-4.5 2.7zm85.4-2.3c-0.3 8.1-0.2 16.2-0.1 24.3 0 1.4 0.4 2.9 0.8 4.3 20.2-0.1 40.5 0.1 60.7-0.1 0.6-8 0.1-16.2 0.4-24.3-0.1-1.8 0.3-5.3-2.5-4.7-15.4-0.2-30.7 0-46-0.1-4.5 0.2-9-0.4-13.3 0.6zm-78.8 6.3c-0.2 2.7-0.4 5.4-0.8 8 3.8 0.1 7.7 0 11.5 0.1-0.5-2.7-0.7-5.4-0.7-8.1q-5 0-10 0zm0.2 8.9c1.2 7.3-1.4 14.6-0.3 21.9q5.1 0.2 10.1 0.2c0.7-7.4-1.2-14.7-0.2-22.1-3.2 0.1-6.4 0-9.6 0zm-1016 6.5c-3.4 1.3-6.2 4-7.6 7.4-1.2 3.9-0.6 8.1-0.8 12.2 0.3 5.2-1 11.1 2.5 15.6 4.7 7 16.5 6.4 20.9-0.6 3.1-4.7 2.5-10.7 2.5-16-0.2-5.2 0.4-11.1-3.5-15.2-3.4-4-9.1-4.9-14-3.4zm53-0.1c-4.8 1.7-8.6 6.4-8.3 11.7 0.1 6.7-0.8 13.7 0.7 20.3 2.7 9 16.2 11.3 21.7 3.7 4-4.7 2.8-11.3 2.9-16.9-0.3-5 0.8-10.7-2.8-14.7-3.1-4.5-9.2-5.6-14.2-4.1zm53 0c-4.7 1.5-8.3 5.8-8.6 10.8-0.6 5.9-0.8 11.9-0.1 17.7 0.6 6 5.5 11.4 11.6 11.8 7.2 1 14.1-5.5 13.9-12.6-0.1-6.1 0.2-12.1-0.1-18.1-1.3-7.4-9.7-12.2-16.7-9.6zm53 0c-4.2 1.4-7.9 5.1-8.4 9.7-0.9 6-0.9 12.1-0.4 18.1 0.3 3.7 1.7 7.4 4.7 9.8 3.6 3.1 9 3.2 13.4 1.6 4.7-2.1 7.8-7.4 7.6-12.6 0-5.6 0.2-11.3-0.3-17-1.2-7.4-9.5-12-16.6-9.6zm52.2 0.1c-4 1.6-7 5.2-7.9 9.4-0.9 4.7-0.4 9.5-0.5 14.2-0.2 4.2 0.5 8.6 3.1 12 4.7 6.5 16 6.1 20.3-0.6 3.6-5.1 2.4-11.6 2.6-17.5 0-4.9 0.2-10.6-3.6-14.4-3.4-3.9-9.3-4.6-14-3.1zm53 0c-6 2.1-9 8.6-8.4 14.6 0.5 7.2-1.9 15.7 3.6 21.5 4.7 5.9 14.7 5.4 19.2-0.6 4.7-5.6 2.8-13.2 3.2-19.9 0.4-4.8-0.9-10.1-4.8-13.3-3.4-3.2-8.5-3.7-12.8-2.3zm53 0c-5.1 1.9-8.8 7.1-8.5 12.6 0.1 5.3-0.1 10.7 0.1 16 0 3.5 2.2 6.7 4.9 8.9 5.5 4.7 15.2 3.2 18.8-3.2 2.9-4.4 2.3-9.7 2.3-14.7 0-4.8 0.5-10.2-2.3-14.5-3.1-5-9.8-7-15.3-5.1zm52.9 0c-3 1.1-5.5 3.3-7 6.1-2.2 4.2-1 9.1-1.3 13.5 0.2 5-1 10.6 2.1 15 4.5 7.7 17.3 7.4 21.6-0.3 2.8-4.8 2.1-10.5 2.2-15.8-0.1-5.2 0.2-11.1-3.6-15.1-3.3-4.1-9.2-4.8-14-3.4zm53.1 0c-4.8 1.7-8.7 6.4-8.5 11.6-0.2 5.7-0.5 11.4 0 17.1 0.7 6.7 7.2 12.4 14 11.5 6.4-0.4 11.4-6.4 11.6-12.7 0.1-5.6 0.2-11.2-0.1-16.8-0.6-8-9.6-13.5-17-10.7zm52.9 0c-2.7 1.1-5 2.9-6.6 5.2-2.8 3.9-1.8 8.9-2.1 13.4 0.3 5.7-1.1 12.3 3 17 4.8 6.3 15.6 6.2 20.2-0.3 3.4-4.5 2.8-10.4 3-15.7-0.1-5.4 0.4-11.7-3.5-16-3.4-4-9.2-5.1-14-3.6zm52.9-0.1c-4.7 1.9-8.6 6.5-8.4 11.8q-0.3 7.9 0 15.9c0 4 2 7.9 5.2 10.3 5.7 4.3 15 2.5 18.5-3.8 2.8-4.3 1.8-9.7 1.9-14.6-0.2-5.2 0.9-11.2-2.7-15.6-3.2-4.4-9.5-5.4-14.5-4zm47.6 3.7c-3.7 3.7-3.1 9.2-3.2 14 0.1 5.9-1 12.5 2.7 17.6 1.8 3 5.3 3.9 8.3 5.3-0.4 10.4-2 20.7-3.4 30.9 1.3-0.2 2.6-0.3 3.9-0.6 1.6-10.1 1.9-20.3 3.5-30.3 4.7-1.6 8.9-5 10.2-9.9 0.6-4.3 0.1-8.7 0.3-13-0.1-4.6 0.7-9.9-2.7-13.5-4.5-6.2-14.8-6.5-19.6-0.5zm58.4-3.7c-4.6 1.5-8.2 5.8-8.5 10.7-0.6 4.6-0.5 9.3-0.4 13.9 0 4 0.6 8.4 3.4 11.5 4.2 5.2 12.8 5.7 17.9 1.3 2.7-2.4 4.7-6 4.5-9.8 0.1-6 0.1-12-0.2-18-1.2-7.4-9.7-12-16.7-9.6zm-717.1 9.8c-9.3 2.1-18 7.9-22.4 16.5-4.2 7.3-4.9 16.2-3.4 24.4 3.2 14.3 16.9 25.8 31.7 26 12.1 0.6 24-6.4 29.9-16.9 8-14 4.6-33.8-8.5-43.5-7.6-6.1-17.8-8.5-27.3-6.5zm1223.9 0.9q0 4.2 0 8.4c-9.8 0.1-19.7 0-29.5 0 0 14.2 0.2 28.4 0.1 42.6q-4.4-0.2-8.7-0.3-0.1 5.5 0.2 11.1c2.8-0.2 5.8-0.2 8.5 0.9-5.5 0.6-11.1 0.2-16.6 0.4 0.3 18.6-0.1 37.3 0.1 55.9-0.2 23.5 0.1 46.9-0.2 70.4 2.5 0.2 5.1 0.3 7.6 0.4q0 5-0.1 10.1c3 0.1 6 0.1 9.1 0.1-0.2 3.3 0.7 6.9-0.6 10-3-0.6-6.1-0.8-9.1-0.7q-0.1 6.4 0 12.9 4.7 0 9.5-0.2c0.3 2 0.3 4.1 0.4 6.2-1 0-2.8 0-3.7 0q-0.2 8.1-0.2 16.2c10.7 0.1 21.5 0 32.2 0.1q0 4.3 0 8.5c22.9 0 45.7 0 68.6 0-0.1-2.8 0.8-5.9-0.6-8.5q2.2-0.1 4.5-0.2c0.2-3.9 0.1-7.9 0.1-11.8q-1.7-0.1-3.4-0.2c0.3-10.5 0-21 0.2-31.5l-0.5-0.6c0.5-36 0.2-72.1 0.4-108.2-0.3-11.1 0.6-22.2-0.5-33.3 1.1-1.6 2.5-3 3.6-4.6 0.3-15.1 0-30.3 0-45.5q-1.7-0.2-3.4-0.4 0-4.1 0-8.1c-22.7-0.2-45.3-0.1-68-0.1zm-92 5c-2.7 2.1-1.7 6-2.1 8.9 0.3 4-1.3 8.9 1.9 12.1-1.6 2-2 4.5-2 7 0 4.4-0.4 9 1.6 12.9-1.9 3.4-1.7 7.3-1.5 11.1 0.1 2.7 0 5.6 1.6 7.9-1.5 2.4-1.3 5.3-1.5 8.1 0 3.7-0.8 8.2 1.5 11.4-1.8 2.9-1.3 6.3-1.5 9.5-0.1 3.5-0.7 7.3 1.5 10.2-2.3 5-1.7 10.6-1.4 15.9-0.1 1.8 1 3.4 1.9 4.9-4.8 5.5-4 14.1 0.7 19.5q-1.3 1.2-2.5 2.5c0.4 6-1.7 12.6 1.1 18.3-1.7 3.3-1.1 7.1-1.3 10.7-0.1 3.2-0.6 6.7 1.6 9.3-1.5 2.7-1.9 5.8-1.7 8.8 0.1 3.7-0.8 7.8 1.7 10.9-0.9 1.6-1.9 3.2-1.7 5 0.1 4.8-0.4 9.8 1.2 14.4-0.7 2.5-1.2 5.1-1 7.7 0.2 4.1-1.2 8.6 1.2 12.3-1.9 5-1.1 10.4-1.2 15.7-0.2 2.2 0.6 5.3 3.3 5.4 9.2 0.3 18.4 0.1 27.5 0.1 3.4-0.1 6.8 0.3 10.1-0.3 3-0.6 2.4-4 2.5-6.2-0.2-4.9 1-10.3-1.4-14.8 1.8-2.4 1.4-5.4 1.5-8.2-0.2-3.8 0.6-7.9-1.4-11.4 1.7-2.9 1.3-6.4 1.4-9.6-0.1-3.4 0.6-7.1-1.7-9.9 2.1-2.6 1.5-6 1.6-9.1-0.1-3.6 0.5-7.5-1.6-10.7 2.1-2.7 1.5-6.2 1.7-9.3-0.2-3.8 0.5-7.9-1.9-11.1 0.8-1.2 1.8-2.4 1.7-3.9 0.1-4.3 0.3-8.7-0.1-13 0-1.8-1.7-2.7-2.9-3.7 5-5.1 5.3-13.4 0.8-18.9 1.5-2.2 2.7-4.7 2.3-7.4-0.3-4.6 1-9.8-1.7-14 1.2-1.7 2-3.8 1.8-6-0.3-4.6 0.8-9.7-1.9-13.8 2.3-2.1 1.7-5.3 1.8-8.2-0.1-3.6 0.7-7.6-1.6-10.8 1.3-1.8 1.9-3.9 1.7-6.2-0.3-4.4 0.8-9.3-1.7-13.3 2.2-2.8 1.7-6.4 1.8-9.7-0.1-3.5 0.3-7.3-1.9-10.3 2.4-2.7 1.7-6.4 1.9-9.7-0.1-3.3 0.4-7.1-1.8-9.8-1.7-2-4.6-1.2-6.9-1.4-11 0.2-22-0.5-33 0.2zm-143.6 41.4c-8.4 2.8-14.5 11.6-13.6 20.6-0.1 8 5.6 15.5 13.2 17.9 5.8 2.1 12.5 1 17.8-2 7-4.2 10.4-13 8.9-20.9-1.2-5.7-4.7-11-9.9-13.8-4.9-2.9-11-3.2-16.4-1.8zm-851.6 18.6c-0.1 123.3 0.1 246.7 0 370.1 0 1.4-0.1 3 0.6 4.4 6.7 0.6 13.5 0.1 20.2 0.2q0.1-1.6 0.1-3.2c-5.8 0-11.7 0-17.5 0q-0.1-185.2 0-370.3c174.5-0.2 349 0.1 523.5-0.2 0 0.5 0.2 1.5 0.2 2q0.3-1 0.5-2c70.1 0.2 140.3 0.1 210.4 0.1-0.2 54.7 0 109.3-0.1 163.9 0.1 68.9-0.1 137.7 0.2 206.6q-9.1-0.1-18.2-0.1 0 1.6 0 3.2c6.9-0.1 13.9 0.4 20.8-0.3 1.2-3 0.4-6.3 0.6-9.4 0-117.7 0-235.3 0-353 0-4.7 0.2-9.4-0.3-14.1-88.9-0.4-177.8-0.1-266.8-0.2-156.7 0-313.4 0-470.1 0-1.7 0-4.6-0.3-4.1 2.3zm116.8 22.6c-0.1 90.7 0.1 181.3-0.1 271.9 9.5 0.3 19 0.1 28.5 0.1 159.5 0 319.1 0.1 478.7 0-0.3-90.6 0.1-181.3-0.2-272-169 0.1-338 0-506.9 0zm683.6 9.7c-5.6 1.6-10.9 5.3-13.5 10.6-2.3 4.3-2.3 9.4-1.6 14.1 1.4 6.3 6.2 11.3 11.9 14 8.1 3.8 18.5 0.8 23.9-6.3 6.3-8.1 5.2-21.1-2.8-27.7-4.8-4.4-11.6-6.1-17.9-4.7zm105.8-0.1c-7.5 1.8-14.1 8.1-15.4 15.9-1.9 7.4 1.3 15.5 7.2 20.2 6.5 5.4 16.7 5.8 23.7 1 5.6-3.4 9-9.8 9.5-16.3-0.4-7.6-4.3-15.4-11.2-18.9-4.2-2.4-9.2-2.5-13.8-1.9zm-1068.2 5c-0.1 100.8 0.1 201.5 0 302.3 24.4 0.6 48.8 0.1 73.2 0.2 7.3-0.1 14.6 0.4 21.8-0.4 0.1-100.7 0.2-201.4 0-302.1-31.7-0.1-63.3 0-95 0zm932.4 92.8c-0.1 5.5-0.1 11-0.2 16.5q4 0.1 8 0c0-5.5 0-11.1 0-16.6-2.6-0.5-5.3-0.4-7.8 0.1zm13.6-0.3q-0.5 8.4-0.6 16.9 4 0 7.9 0c-0.1-5.6-0.1-11.2-0.1-16.7q-3.6-0.4-7.2-0.2zm13 0.1c-0.4 5.6-0.4 11.1-0.3 16.7q3.7 0 7.5-0.1c0-5.6 0-11.1 0-16.6q-3.6-0.3-7.2 0zm11.6 13.4c-0.2 0.6-0.6 1.8-0.8 2.4q1.8 0.4 3.7 0.9 0 3.4 0 6.8c0.7-0.1 2.1-0.4 2.8-0.5 0.2-2.6 0.2-5.3-0.1-7.9-1.1-1.9-3.7-1.4-5.6-1.7zm-47.4 0.4c-1 9.8-0.2 19.6-0.4 29.4-0.7 3.9 4 2.6 6.2 2.6 0.4-2.2-0.9-3.3-3.1-2.8 0-8.3-0.1-16.6-0.1-24.8-0.9-2.9 4.9-1.2 3.4-4.2-1.9-0.4-4-0.3-6-0.2zm50.1 19.6c1.1-0.5 4 0 3.2-2.2-0.1-1.7-0.6-3.6-2.6-3.7q-0.4 2.9-0.6 5.9zm0.1 9.7c-1 0-2.9-0.1-3.9-0.1 0.2 0.9-0.1 2.1 0.6 2.9 2 0.1 4.1 0.3 5.9-0.6 0.7-2.3 0.4-4.7 0.3-7-3.7-2-2.7 2.7-2.9 4.8zm-41.1-0.6c-0.1 5.6-0.2 11.1 0 16.6 2.6 0.6 5.3 0.6 7.9 0.1 0-5.6-0.1-11.2 0.1-16.8q-4.1-0.2-8 0.1zm13-0.2c0.1 5.7 0.2 11.4 0.7 17q3.6 0.3 7.2 0c0-5.6 0-11.2 0.1-16.9q-4-0.1-8-0.1zm13.5 0.1c0.1 5.6-0.1 11.3 0.2 17 2.4 0.3 4.8 0.2 7.2-0.1 0-5.6 0-11.2 0-16.8q-3.7-0.1-7.4-0.1zm183.3 74.8c-0.2 6.2 0 12.5-0.1 18.8-3.2 0-6.5-0.6-9.6 0.2-1.8 1.8-2.5 4.9-1.4 7.2 0.6 0.2 1.7 0.6 2.3 0.8-3.1 3.3-0.7 7.3 1.8 10.1q10.7 0.1 21.3 0 0.2-6.1-0.1-12.1c-7.4 0.3-14.9-0.7-22.2 0.6q-0.2-1.8-0.3-3.7c4.4-1.2 9-0.5 13.4-0.7 15.5 0.3 31-0.2 46.4 0.3q0.3 2 0.5 4.1c0.6 0 1.9-0.1 2.6-0.1-0.4-2.1 0.7-5.1-1.5-6.4-3-1-6.3-0.5-9.4-0.6 0.2-5.5 0-11 0-16.5 0-1.8 0.1-3.9-1.6-5-5.3-0.5-10.7-0.3-16.1-0.3-1.4-0.1-3.1 1.6-1.5 2.7 5.3 0.5 10.7 0.1 16 0.3 0.3 6 0.1 12 0.2 17.9-12.6-0.2-25.2 0.1-37.8 0 0.1-6 0-11.9 0.1-17.9 5.3-0.1 10.7 0.1 16-0.1q-0.2-1.4-0.8-2.7c-5-0.3-10.1-0.2-15.1-0.1-1.8-0.1-3.3 1.4-3.1 3.2zm6.7 3.3c-0.5 3.6-0.2 7.2 0.2 10.7 2.9 0 5.9 0 8.9-0.1 0-3.5 0.2-7.1-0.2-10.6-2.9-0.6-6-0.6-8.9 0zm21.4-0.3q0 5.5 0 11 4.5 0 9 0 0-5.5 0-11-4.5 0-9 0zm0.6 22.2c0.1 3.9 0.1 7.9 0.2 11.9 6.7-0.2 13.5 0.3 20.2-0.2 2.7-0.9 4.3-3.6 5.9-5.7-1.9-2.7-4.1-6.6-7.9-6.2-6.1 0-12.3-0.1-18.4 0.2zm22.9 24.2c-1.8-0.7-3.6-1.4-5.4-1.4-5.8-0.1-11.6 0-17.4 0q-0.2 6.2 0.1 12.3c4.8 0.1 9.5-0.1 14.3 0.5q-0.4 1.7-0.8 3.4c-16.9-0.3-33.8 0.1-50.7 0.2q0-2.1 0-4.2c-4.9-1.1-3.7 5.8-0.6 7.1 3 0.1 6.1-0.2 9.2-0.2 0 1.1-0.1 2.2-0.1 3.3-37.6 0.2-75.1-0.1-112.6 0.1-36.5 36.5-73.1 73-109.4 109.6-1.5 1.8-4 1.3-6.1 1.4-7.3-0.2-14.7 0.1-22.1 0-1.7 0.5-2.2-1.5-3.1-2.5-4.1-1.4-8.4-3-12.8-2.6-3.3-0.3-5.9 2.8-6.5 5.8-0.7 4.5 4.3 8.1 8.5 7.3 4.2-0.6 9.2-0.4 11.9-4.1 9.4-0.4 18.8 0 28.1 0 3 0.1 5-2.6 7-4.4 15.4-16.2 31.6-31.7 47.3-47.7 14.7-14.3 28.8-29.2 43.5-43.5 4.8-5 10.4-9.4 14.3-15.3 37.2-0.3 74.4 0.1 111.6-0.2-0.1 3.9-0.4 7.9 0.3 11.8 0.1 1.6 1.1 3.4 3 3.1 11.7-0.4 23.3-0.4 35-0.3 1.7-0.1 3.7 0.3 5.2-0.8 0.5-3.8 0.6-7.6 0.9-11.4 4.4 4.1 7.7 9.3 12.3 13.3q-0.1-2.8-0.1-5.6c-2.7-2.6-5.9-4.6-8-7.7-2.1-2.9-5.1-5.7-4.4-9.6q1.2 0.8 2.5 1.7c-1.7-2.1-0.8-4.3 0.6-6.2q-1.6-0.5-3.3-1c4.8 0.4 7.9-3.2 11.3-5.9q-1-2.7-2-5.4c0.4-0.3 1.3-0.8 1.7-1.1-0.2-4.1 0.3-8.2-0.4-12.2-0.6-0.2-1.9-0.4-2.6-0.5-0.6 4.3-0.4 8.6-0.2 12.9zm-62.7-12.6c-0.5 4.2-0.3 8.4-0.1 12.6 0.6-0.1 2-0.4 2.7-0.5 0.5-4.1 0.3-8.2 0-12.3-0.7 0-1.9 0.1-2.6 0.2zm13.1 7.4c13.1 0.3 26.1 0.1 39.2 0.1 2 0.5 1.5-1.9 1.8-3-13.7-0.3-27.3-0.1-41-0.1-2.4-0.7-2.1 3.7 0 3zm-13.1 10.8c1.5 2.6 3.7 5.8 7.2 5.5 6-0.1 12-0.3 18-0.3q0.1-6.1 0-12.2-8.5 0-17 0c-4.1-0.8-7.5 3.4-8.2 7zm62.4 9.6c-1.6-0.2-3.2-0.4-4.8-0.6 0.1 0.8 0.3 2.4 0.5 3.2q2.2 0.8 4.5-0.2c-1.2 2.3-0.8 4.8 0.5 7q2.3 0.8 4.6 1.6-0.1-1.6-0.1-3.1c-1.9-1.6-3.4-3.5-4.4-5.7l1.3-0.4c1.1-1.8 1.8-3.9 1.2-5.9-2.8-1.3-3 2.2-3.3 4.1zm-310.9 10.8q-0.6 1.1-1.1 2.2c5.7 1.6 11.6 0.6 17.4 0.9q0-1.6 0-3.2-8.1 0.2-16.3 0.1zm206.2 36.7c-0.3 13.6 0 27.3-0.2 41-0.3 1.5 1.2 2.9 2.7 2.6 2.3 0.1 4.6-0.2 6.9-0.6-1.3-2.6-4.1-2.4-6.5-2.4 0-13.2 0-26.4 0-39.5 11.2-0.3 22.4 0.3 33.5-0.2 1.9 0.2 0.9-3.3-0.7-2.7-10.8-0.2-21.5-0.1-32.3-0.1-1.3 0.1-3.7-0.1-3.4 1.9zm51.4 1c11.3 0.2 22.5-0.1 33.8 0.1q-0.1 19.7 0 39.5c-1.8 0-5.9-0.2-4 2.6 2.2 0.5 4.4 0.4 6.7 0.2 0.5-14.1 0.2-28.3 0.2-42.4 0.5-2.3-1.7-3.1-3.5-2.9-10.8 0-21.5-0.1-32.2 0-1.7-0.2-3.5 2.4-1 2.9zm-41.2 4.9c-0.4 9.3-0.3 18.7 0.1 28q2.9 0 5.9 0-0.1 3.3-0.3 6.5c-8.8 1.4-15.4 10.7-13.2 19.5 1.5 8.4 10.5 14 18.8 12.1 7.9-1.1 13.3-9.4 12.9-17-0.4-4.6-3.1-8.3-6.2-11.5 2.4 0.3 4.8 0.2 7.2 0 2 0.6 2.2-3.3 0.1-2.6-3.6 0.1-7.6-0.9-10.9 0.8-1.4-0.6-3-0.8-4.5-1.1q-0.1-3.3 0-6.7c4.5 0 9 0 13.5 0 0.1-9.3-0.1-18.7 0-28q-11.7 0-23.4 0zm44.5 0.1c-0.1 9.3-0.2 18.6-0.2 27.9 8 0.1 15.9 0 23.9 0 0.1-9.3 0.2-18.6 0-27.9-7.9-0.1-15.8-0.2-23.7 0zm-14.6 8c1.1 1.9 3 3.1 4.3 4.8-1.4 1.8-3 3.5-4.4 5.2 1.1 2.3 3 3.9 4.8 5.6-1.8 1.6-3.7 3.2-4.8 5.3 0.4 0.4 1.2 1.1 1.6 1.5 2.2-1.6 4-3.7 5.5-5.9 0.9-2.9-2.5-4.5-4.1-6.3 1.5-1.8 4.4-3.2 4.1-5.8-1.2-1.8-2.8-3.1-4.3-4.6 1.5-1.8 5-2.9 4.4-5.7-0.4-0.1-1.2-0.3-1.6-0.5-2.2 1.7-4.7 3.6-5.5 6.4zm-1021.3 27.2c-4.7 1.9-8.4 6.6-8.3 11.8 0 5.6-0.1 11.3 0.1 17 0.3 6.5 6.2 12.3 12.9 12 6.5 0.1 12.9-5.4 13-12.1 0-5.7 0-11.4 0-17 0.1-3.9-1.9-7.8-5.1-9.9-3.6-2.6-8.5-2.9-12.6-1.8zm53.8-0.2c-5.5 1.6-9.5 7.2-9.1 12.9 0.1 5.7-0.2 11.4 0.1 17.1 1.1 7.7 9.7 13.1 17.1 10.3 6-1.9 9.1-8.4 8.5-14.4-0.6-7 1.8-14.8-2.4-21.1-3-4.7-9-6.2-14.2-4.8zm52.1 0.1c-4.5 1.7-8.2 5.9-8.3 10.8-0.2 6-0.1 12 0 18-0.1 4.2 2.5 8.2 6 10.3 5.2 3.2 12.6 2 16.5-2.8 3.4-3.6 3.2-8.9 3.4-13.5 0-5.4 0.7-11-1.5-16.1-2.7-5.8-10-8.9-16.1-6.7zm52.1 0.3c-4.2 1.7-7.4 5.9-7.5 10.6-0.2 5.9 0 11.9 0.1 17.8-0.4 6.1 5.1 11.5 11 12.1 5.8 0.9 11.8-2.7 13.8-8.2 1.4-5.1 0.9-10.5 1-15.8-0.1-4 0.1-8.5-2.4-12-3.4-5.1-10.4-6.7-16-4.5zm53.8-0.2c-3.6 1.3-6.5 4.3-7.9 7.8-1.2 4.5-0.5 9.3-0.6 13.9 0.1 4.9-0.6 10.6 3 14.5 4.8 6.1 15.1 6.1 19.8 0 3.9-4.2 2.7-10.3 2.9-15.5-0.2-5.7 1.1-12.3-3-17-3.1-4.5-9.3-5.1-14.2-3.7zm52.3 0.2c-4.3 1.8-7.5 6-7.8 10.7-0.6 6.2-0.6 12.4 0.1 18.6 0.5 7.3 8.1 12.8 15.2 11 5.9-1.1 10.7-6.8 10.2-12.8-0.2-6.1 0.2-12.1-0.2-18.1-1.3-7.7-10.4-12.5-17.5-9.4zm52.9-0.1c-4.7 1.8-7.8 6.5-8 11.5-0.4 6.4-0.5 12.8 0.4 19.1 1.2 7.3 9.5 11.8 16.4 9.6 5.3-1.5 9.3-7 8.9-12.6-0.1-6 0.2-12.1-0.1-18.1-1.3-7.7-10.4-12.2-17.6-9.5zm211.9-0.1c-4.8 1.7-8.4 6.6-8.2 11.7-0.1 5.7-0.1 11.3 0 17-0.2 3.7 1.9 7 4.7 9.3 5.1 4.4 13.6 3.5 17.9-1.8 3.8-4.1 2.9-10.2 3.1-15.5-0.1-5.5 0.7-11.9-2.9-16.6-3.3-4.5-9.6-5.4-14.6-4.1zm52.2 0.2c-4.6 1.8-7.8 6.6-7.7 11.6-0.1 5.6-0.3 11.2 0 16.8 0.2 6.3 5.9 12.1 12.3 12.2 6.7 0.5 13.4-5.4 13.1-12.2 0-5.3 0.1-10.6 0.1-15.8 0.1-3.8-1.1-7.7-3.7-10.5-3.8-3.2-9.5-3.9-14.1-2.1zm52.9-0.1c-3 1.3-5.8 3.7-7 6.8-1.3 4.8-0.9 9.9-0.9 14.8 0.2 5.1-0.6 11 3.3 15 5 5.7 15 5.4 19.6-0.6 3.8-4.3 2.8-10.2 2.9-15.4-0.2-4.3 0.6-8.7-0.1-12.9-2.6-6.7-11.1-10.2-17.8-7.7zm308.7-0.4c-8.7 2.1-14.6 12.5-10.9 20.9 3 9 14.4 13.3 22.7 8.9 6-3.1 9.3-10.2 8.3-16.8-0.9-9.3-11.3-15.6-20.1-13zm88.5 1.1c2.3 3.5 7.2 0.1 10.3 2.2l0.5 0.3c-8 5.9-6.7 19.4 1.2 24.9 3.2 2.4 7.4 3.2 11.3 2.8 7.4-0.4 13.2-7.2 14.1-14.2 1.2-8.8-6.3-17-15-17.3-3.3 0-7.3-0.3-9.8 2.3 0.2-0.5 0.7-1.4 1-1.9-4-0.6-8.1-0.5-12.1-0.3-0.3 0.3-1.1 0.9-1.5 1.2zm-172.7 14.1q0 4.9 0 9.8 4.6 0.2 9.2 0.1 0.1-5 0.1-10.1-4.7-0.1-9.3 0.2zm20.9 0q0 5 0.1 10 4.6 0 9.2-0.2 0-4.9 0.1-9.8-4.7-0.3-9.4 0zm-517.9 10.2c0.2 4.2 0.8 8.7 3.9 11.8 5.4 6 16.5 4.8 20.5-2.2 1.9-2.8 1.8-6.4 1.9-9.6-1.3 0.1-2.8-0.1-4 0.5-5.3-0.1-11-0.9-16.2 0.4l-0.1 0.6c-0.3-0.2-0.7-0.7-0.9-0.9-1.6-0.7-3.4-0.5-5.1-0.6zm52.8 0c0.2 4 0.6 8.3 3.6 11.3 4.5 5.4 13.4 5.9 18.4 1.1 3.6-3 4.5-7.8 4.5-12.2q-2.3-0.1-4.6 0l-0.3 0.3c-5.7-0.3-11.4-0.3-17.2-0.1l-0.2-0.3q-2.1-0.1-4.2-0.1zm53.2-0.1c0.1 3.6-0.2 7.6 2.3 10.6 4.4 6.4 14.8 7 19.9 1.2 3.2-3.1 3.9-7.6 4.2-11.8-1.7 0.2-3.5 0-5.1 0.7-0.2 0.2-0.7 0.7-0.9 0.9l-0.2-0.6c-5.2-1.4-10.8-0.3-16.2-0.4-1.2-0.7-2.7-0.4-4-0.6zm274.7 33.8c-0.2 4.8-0.1 9.6 0 14.4 11.6 0 23.3 0.3 35-0.1 0.1-4.7 0.2-9.5-0.1-14.2q-17.5 0.1-34.9-0.1z"/><path class="c" d="m1181.8 148.3c18.5-0.2 37 0.1 55.5-0.1q0.3 11.5 0.2 23-27.8 0-55.5 0c-0.3-7.7-0.1-15.3-0.2-23zm13.8 2.3c-0.4 0.3-1.4 1.1-1.9 1.5-2.6-0.3-5.3-0.4-7.9-0.4 0 5.5 0 11 0.1 16.4q4.2 0 8.4 0l0.1 0.9c10 0.3 20.1 0.6 30.1-0.2 2.8-1 5.9-0.7 8.9-0.7 0-5.4-0.1-10.9-0.1-16.4q-4.4 0.1-8.8 0.3l-0.1-1.3c-9.6-0.2-19.2-0.1-28.8-0.1z"/><path class="c" d="m1243.9 148.2c18.4 0 36.9 0.1 55.4 0q0.2 11.6 0.1 23.1c-18.6-0.1-37.1-0.1-55.7-0.1-0.1-7.6 0-15.3 0.2-23zm12.7 2.5c0.2 6.2-0.5 12.3 0 18.4q14.9 0.1 29.7 0c0.3-0.5 0.8-1.4 1.1-1.9 2.3 0.3 4.7 0.5 7.1 0.6l0.8 0.2c0.2-5.4 0.4-10.7 0.2-16.1q-4.1 0-8.3 0.1v-1.3c-10.2-0.2-20.4-0.5-30.6 0zm-8.6 1.1c0 5.4 0 10.8 0 16.2q4.2 0 8.3 0.1c0.2-5.5-0.3-10.9-0.2-16.3-2.7-0.2-5.4-0.2-8.1 0z"/><path class="c" d="m1197.3 185.5c12.3 0.5 24.7 0 37 0.3 0.2 5.1 0.4 10.2 0.1 15.2-0.3 0.3-0.9 0.9-1.3 1.2-11 0.2-22.1 0-33.1 0-1.3 0.3-2.9-0.7-2.7-2.1-0.2-4.8-0.1-9.7 0-14.6zm3.7 3.5q0 5 0 10 4.6 0 9.3 0 0.1-5 0-10-4.7 0-9.3 0zm20.6-0.1q-0.1 5.1 0.1 10.1 4.6 0 9.3 0c0-3.3 0-6.7-0.1-10q-4.6-0.1-9.3-0.1z"/><path class="c" d="m1197.8 205.7c10.7-0.8 21.5-0.1 32.2-0.3 1.4 0.2 4.2-0.7 4.3 1.5 0.4 4.9 0.1 9.7 0 14.5-11.7 0.9-23.6 0.3-35.4 0.4-2.4-0.1-1.6-3.3-1.7-4.9 0.3-3.7-0.7-7.6 0.6-11.2zm3.2 3c-0.1 3.4-0.1 6.7 0.1 10.1 2.9 0.1 5.9 0.3 8.8-0.1 1.1-3.3 0.3-6.8 0.5-10.2q-4.8-0.2-9.4 0.2zm20.5-0.1q-0.2 5.2 0.1 10.4 4.6 0 9.3-0.1c0.1-3.4 0.1-6.8 0.1-10.1q-4.7-0.4-9.5-0.2z"/><path class="c" d="m1197.2 227.9c-0.1-1.6 0.9-3.3 2.7-2.8 10.7 0.1 21.5 0 32.2 0 1.6-0.3 2.4 1.6 2.4 3 0.1 4 0.2 8-0.2 12.1-0.8 1.6-2.8 1.2-4.3 1.3-10.8 0-21.7 0.4-32.5-0.1-0.9-4.5-0.4-9-0.3-13.5zm3.8 0.8q0 4.7 0 9.4c10 0.3 20 0.8 29.9 0.1q0.1-4.8 0.1-9.6c-5-0.9-10-0.5-15-0.5-5 0.1-10-0.1-15 0.6z"/><path class="c" d="m1197.5 245.5c2.9-1.3 6.4-0.4 9.6-0.7 8.9 0.3 17.9-0.5 26.9 0.3 1 3.1 0.3 6.6 0.6 9.9-0.1 2.2 0.5 5.6-2.6 6-10.7 0.4-21.4 0.2-32.1 0-2.3 0.3-2.9-2.3-2.7-4 0.2-3.8-0.4-7.8 0.3-11.5zm3.5 2.5q0 5 0 10c3.7 0.1 7.3 0 11-0.4 6.3-0.5 12.6 0.8 19 0.4q0-5-0.1-10c-3.4-0.1-6.7-0.1-10.1 0.3-6.6 0.7-13.2-0.7-19.8-0.3z"/><path class="c" d="m1198.3 264.5c10.9-0.4 21.8-0.1 32.7-0.3 1.2 0.1 3.9-0.4 3.5 1.8-0.1 4.6 0.4 9.4-0.5 14-0.3 0.2-0.9 0.5-1.2 0.7-10.9 0.2-21.9 0-32.8 0.1-1.5 0.2-3-1.1-2.8-2.7 0.1-4.4-0.2-9 0.5-13.5zm2.6 3.2c0.1 3.3-0.3 6.7 0.3 10 2.9 0.4 5.9 0.3 8.8 0.2 0.3-3.4 0.4-6.9 0.3-10.3q-4.7-0.3-9.4 0.1zm20.5-0.2q-0.2 5.3 0.1 10.6 4.6 0 9.3-0.2 0.2-4.9 0-9.8-4.7-0.8-9.4-0.6z"/><path class="c" d="m1197.6 284.6c2.4-1.5 5.6-0.6 8.3-0.9 9.1 0.1 18.1-0.1 27.2 0.2 0.3 0.3 0.9 0.8 1.2 1.1 0.3 4.6 0.4 9.3 0.1 13.9 0 1.7-2.2 1.7-3.4 1.7-10.3-0.2-20.6 0.1-31-0.2-1.3 0.1-3.2-0.6-2.9-2.3 0.4-4.4-0.6-9.3 0.5-13.5zm3.4 2.5c0 3.3 0 6.6 0 10 10 0.3 19.9-0.1 29.9-0.1-0.4-3.2 1.4-7.4-1-9.9-9.6-0.3-19.2-0.1-28.9 0z"/><path class="c" d="m1199.5 304.5c10.2-0.5 20.4-0.3 30.7-0.1 3.8-0.2 5.2 4.6 5.2 7.7 0.4 3.4-1.4 8.3-5.4 8.1-10.1 0-20.2 0.2-30.2 0-5.7-2.5-5.6-12.6-0.3-15.7zm3.6 2.7c-3.8 1.6-2.5 6.9-1.2 9.9 9.1-0.2 18.2 0.4 27.4 0 1.8-2.2 2.3-5.1 1.5-7.9-2-2.7-5.8-2.1-8.8-2.2-6.3 0.2-12.6-0.3-18.9 0.2z"/><path class="c" d="m85 311.9c7.6-0.3 15.7 1.4 21.5 6.6 10.7 9 10.8 27.3 0.7 36.7-6.4 6.1-15.7 7.9-24.2 7.1-7.6-0.7-14.9-4.7-19.3-10.9-5.4-7.6-5.8-18.2-1.5-26.3 4.4-8.2 13.6-13 22.8-13.2zm-6.5 8.8c-4.1 1.3-7.8 3.8-10.1 7.4-2.7 4.4-2.9 10-1.5 14.9 2.4 7.1 9.8 11.2 17 11.8 6.3 0.5 13.3-0.5 18.2-4.8 6.9-5.8 7.8-17.2 1.8-23.9-6.3-7-16.9-8-25.4-5.4z"/><path class="c" d="m1197.3 326.8c-0.4-2.2 2.4-1.2 3.7-1.5 11.1 0.3 22.2-0.3 33.3 0.3 0.4 4.5 0.3 9 0.2 13.5 0.2 1.4-1 2.8-2.4 2.7-10.8 0.2-21.5 0.1-32.2 0-1.6 0.2-2.9-1.2-2.7-2.7 0-4.1-0.1-8.2 0.1-12.3zm3.7 2.1c0 3.3 0 6.7 0.1 10q5.4 0.3 10.9-0.3c6.3-0.8 12.5 0.9 18.9 0.2 0.1-3.3 0.1-6.6 0.1-9.9-3.7-0.3-7.4-0.1-11 0.3-6.4 0.9-12.7-1.2-19-0.3z"/><path class="c" d="m1197.7 345.6c2.2-1.3 4.9-0.5 7.3-0.7 9.6 0.3 19.4-0.6 28.9 0.4 1.2 5.1 0.3 10.7 0.4 16-6.1 0.8-12.2 0.2-18.3 0.4-5.8-0.2-11.6 0.4-17.4-0.3-1.7-0.1-1.3-2.3-1.4-3.4 0.1-4.1-0.5-8.4 0.5-12.4zm3.4 2.5q-0.2 5.3 0 10.5 4.5 0.1 9 0.2c0.4-3.6 0.3-7.2 0-10.7q-4.5-0.1-9 0zm20.5-0.1q-0.3 5.3-0.1 10.6 4.7 0.2 9.5 0.1c0-3.2 0.2-6.4-0.2-9.6-2.4-2-6.2-0.7-9.2-1.1z"/><path class="c" d="m1196.9 370c0.1-1.7-0.3-4.4 1.8-5.1 11.8-0.3 23.7 0.1 35.5-0.1 0.5 5.3 0.7 10.9-0.1 16.3-12.1 0.5-24.3 0.3-36.5 0.2-0.8-3.7-0.5-7.6-0.7-11.3zm4.2-1.9c-0.1 3.3-0.1 6.6-0.1 9.9 9.9 0.5 19.9 0.3 29.8-0.1q0.2-4.9 0.1-9.8c-10-0.2-19.9-0.1-29.8 0z"/><path class="c" d="m66.9 374.8c2.5-1.9 5.5-2.9 8.5-3.8q0.7 3.4 1.3 6.9c-3.1 1.1-6.5 2.5-8.4 5.5-4.5 7-2.9 17.4 3.7 22.7 5.9 4.8 14.2 5.7 21.4 4.1 5.5-1.2 10.6-4.7 12.8-10 3.1-7.3 1-15.7-3.1-22.1-3.4 0-6.8 0-10.2 0.1 0 4.8 0 9.7 0 14.5q-3.3 0-6.6 0c-0.1-7.3 0-14.6-0.1-21.9 6.7 0.1 13.3-0.1 19.9 0 3.6 3.1 5.3 7.8 6.9 12.2 3.3 9.9 1.4 22.2-7 29.1-12 9.9-32.3 8.4-41.9-4.2-4.7-5.8-5.7-13.7-4.5-20.9 0.9-4.7 3.2-9.4 7.3-12.2z"/><path class="c" d="m1197.6 385.5c0.9-1.5 3-0.7 4.4-0.9 10.6 0.3 21.3-0.5 31.9 0.3 1.3 3.9 0.5 8.1 0.7 12.2-0.2 1.2 0.6 4-1.6 3.7-9.7 0.6-19.3 0.2-29 0.3-2.2-0.1-4.5 0.4-6.5-0.6-0.6-4.9-0.7-10.2 0.1-15zm3.4 2.5q0 5 0 10 4.6 0 9.2 0 0.2-5 0.1-10-4.7 0-9.3 0zm20.4 0q-0.1 5 0.1 10 4.8 0 9.5 0 0-5 0-10-4.8 0-9.6 0z"/><path class="c" d="m1197.5 404.5c11.7-0.2 23.4-0.1 35.2 0 2.3 0 1.7 3 1.9 4.6-0.3 3.6 0.6 7.5-0.5 11-0.3 0.1-0.9 0.4-1.2 0.5-11.3 0.3-22.6 0.3-33.9 0.1-1.4 0.2-1.9-1.6-1.8-2.6-0.1-4.5-0.2-9.1 0.3-13.6zm3.5 3.3c0 3.3 0 6.7 0.1 10 3.6 0.1 7.2 0 10.8-0.3 6.4-0.4 12.8 0.6 19.1-0.1q0-4.8 0-9.6c-5.4-0.8-10.7 0.5-16 0.7-4.7-0.4-9.3-1.4-14-0.7z"/><path class="c" d="m60 431.3c0.1-3 0.1-6 0.2-9 10.2 7 20.1 14.6 30.8 21.1 7.5 0.3 15.1 0 22.6 0q0 3.9-0.1 7.8c-6.5-0.1-13-0.1-19.5-0.1-1.3 0.1-2.8-0.2-3.9 0.7-10.1 6.4-20 13.1-30 19.6q0-4.7 0-9.4c8.1-4.9 16-10.1 24.1-15-8.1-5.1-16-10.6-24.2-15.7z"/><path class="c" d="m1197.6 424.7c0.4-0.2 1-0.5 1.3-0.7 11.4-0.2 22.8-0.4 34.2-0.1 0.3 0.3 1 0.9 1.3 1.1 0.2 5.2 0 10.3 0.1 15.5-12.4-0.2-24.8 0-37.2-0.1 0.1-5.3-0.5-10.5 0.3-15.7zm3.5 2.6c-0.1 3.2-0.1 6.5-0.1 9.8q4.7 0.1 9.4 0 0.1-5.1-0.1-10.1-4.6 0-9.2 0.3zm21.2 0.3c-0.8 3 0.3 6.2-0.5 9.2q4.3 0 8.7 0.1 0-4.6 0-9.2c-2.8-0.1-5.5-0.2-8.2-0.1z"/><path class="c" d="m107.2 469.8q3.2 0 6.4-0.1c0.1 11.2 0.1 22.3-0.1 33.4-17.8-0.1-35.6 0.1-53.4 0q0-3.7 0-7.5 23.4 0 46.8 0.1c0-8.7 0.2-17.3 0.3-25.9z"/><path class="c" d="m1242.1 483c9.1-0.5 18.2-0.3 27.3-0.1-0.1 4.9 0.1 9.8-0.3 14.7-6.2 3.8-6.5 13.7-0.4 17.6l0.7 0.7c0.1 0.5 0.4 1.6 0.5 2.2 0.1 3.2 0 6.3-0.1 9.5-4.8 0-9.6 0-14.4 0.2q-1.3 1.6-2.5 3.3c-3-4-5.5-8.6-9.7-11.4 0.1 6 4.3 10.6 7 15.7q1.3-0.5 2.6-1c4.9 3.8 11.5 1.7 17.2 2.5q0 2 0 4.1c-5.7 0.3-12.1-1.3-17.1 2.3q-1.4-0.4-2.7-0.8-2.5 1.7-4.9 3.5c3.6 0.8 7.4 1.4 10.3 3.9 4.8 0.2 9.5 0.1 14.3 0.1q0 2.4 0 4.8c-5.8 0.3-11.8-0.9-17.3 1.5-1.9-1.8-3.7-3.5-5.5-5.3 0.7 2.6 0.9 5.3 2.3 7.6 1.2 1.1 2.7 1.9 4.2 2.7 1 0.8 1.8 2.3 3.2 2.4 4.4 0.4 8.8 0.1 13.2 0.3q0 2 0 4c-5.5 0-11.1-0.5-16.3 1.4-2 0.8-3.3-1.3-4.7-2.4-2-2.1-4.5-3.6-7.1-4.9 0.1-17.3-0.1-34.7 0-52.1 0.1-9-0.5-18.1 0.2-27z"/><path class="c" d="m60.1 515.2c17.9 0 35.7 0.1 53.5 0q0 3.8 0 7.6-26.7-0.1-53.5 0 0-3.8 0-7.6z"/><path class="c" d="m107.2 532.3q3.2-0.1 6.4-0.1c0.1 11.1-0.1 22.3 0 33.4q-26.8-0.2-53.5 0 0-3.9 0.1-7.7c15.5 0.2 31.1 0 46.6 0.2 0.4-8.6 0.2-17.2 0.4-25.8z"/><path class="c" d="m1184.1 557.8c12.4 0 24.8-0.1 37.2 0.1 0.3 5.9 0.5 11.9 0.1 17.8-12.4 0-24.8 0.2-37.2 0-0.5-5.9-0.4-11.9-0.1-17.9zm3.6 3.8c-0.3 3.5-0.3 6.9 0 10.4q4.3 0 8.7 0 0.2-5.3-0.1-10.6-4.3-0.1-8.6 0.2zm21.3-0.1q0 5.3 0 10.5 4.5 0 9 0 0-5.2 0-10.5-4.5-0.2-9 0z"/><path class="c" d="m1241.9 567c4.3 2.2 7.6 5.9 12 8 0.3 0.5 1 1.5 1.3 2q7.3-0.1 14.6 0.4 0.1 2.2 0.2 4.5c-5 0.1-10-0.2-15 0.4-4.7 1-8.9-1.9-13.2-3.3q0-6 0.1-12z"/><path class="c" d="m985.9 677.2c18.5-0.3 36.9-0.5 55.4-0.1 0 8.3 0 16.7 0 25-18.4-0.1-36.8 0.3-55.2-0.2-0.5-8.2-0.2-16.5-0.2-24.7zm4 3.8c-1.1 5.9-0.1 12-0.2 18q4 0.3 7.9 0.4c10.6 0.2 21.2 0.1 31.8 0.1q3.9-0.1 7.9-0.3c1.2-5.9 0.6-12.1 0.6-18.2-2.2-2-5.8-0.7-8.5-1.2-10.6 0.2-21.2-0.3-31.7 0.3-2.5 0.2-5.9-1.2-7.8 0.9z"/><path class="d" d="m1048.9 142.2c6.7 0.6 13.4 0.5 20.1 0q0 33.4 0 66.8-10.2 0-20.4 0c-0.4-8 0-16-0.1-24 0.2-14.3-0.4-28.5 0.4-42.8z"/><path class="d" d="m1162 152q5 0 10 0c0 2.7 0.2 5.4 0.7 8.1-3.8 0-7.7 0-11.5 0 0.4-2.7 0.6-5.4 0.8-8.1z"/><path class="d" d="m1185.8 151.7c2.6-0.1 5.3 0 7.9 0.3 0.7 5.3 0.7 10.7 0.6 16q-4.2 0-8.4 0c-0.1-5.4-0.1-10.9-0.1-16.3z"/><path class="d" d="m1224.5 151.9q4.4-0.2 8.8-0.3c0 5.5 0.1 11 0.1 16.4-3 0-6.1-0.3-8.9 0.7q0.2-8.4 0-16.8z"/><path class="d" d="m1248 151.8c2.7-0.2 5.4-0.2 8.1 0-0.1 5.4 0.4 10.8 0.2 16.3q-4.1-0.1-8.3-0.1c0-5.4 0-10.8 0-16.2z"/><path class="d" d="m1287.2 152q4.2-0.1 8.3-0.1c0.2 5.3 0 10.7-0.2 16.1l-0.8-0.2c-2.4-0.4-4.9-0.7-7.3-1 0-4.9 0.1-9.9 0-14.8z"/><path class="d" d="m1162.2 160.9c3.2 0 6.4 0.1 9.6 0-1 7.4 0.9 14.7 0.2 22.1q-5 0-10.1-0.2c-1.1-7.3 1.5-14.6 0.3-21.9z"/><path class="d" d="m146.2 167.4c4.9-1.5 10.6-0.6 14.1 3.4 3.8 4.1 3.2 10 3.4 15.2 0 5.3 0.6 11.3-2.5 16-4.4 7-16.2 7.6-20.9 0.6-3.5-4.5-2.1-10.4-2.5-15.6 0.2-4.1-0.4-8.3 0.8-12.2 1.4-3.4 4.2-6.1 7.6-7.4zm-0.4 11.2c-2.5 1.3-3.8 3.9-5.2 6.2-0.9 5.7 2.9 10.9 8.2 12.5 0.9 0 2.5 0 3.4 0 4.2-1.3 8.5-4.5 8.3-9.3 0.6-4.6-2.7-8.3-6.3-10.4-2.8 0-5.9-0.6-8.4 1z"/><path class="d" d="m199.2 167.3c5.1-1.5 11.1-0.4 14.2 4.1 3.6 4 2.5 9.7 2.8 14.7-0.1 5.6 1.1 12.2-2.9 16.9-5.5 7.6-19 5.3-21.7-3.7-1.5-6.6-0.6-13.6-0.7-20.3-0.3-5.3 3.5-10 8.3-11.7zm-5.7 17.5c0.2 2 0.1 4.1 0.8 6 1.6 5.1 8.2 8.1 13.1 5.6 2.9-1.1 4.6-3.7 6-6.2 1.2-5.9-3-12.9-9.4-12.7-4.8-0.5-8.6 3.2-10.5 7.3z"/><path class="d" d="m252.2 167.3c7-2.6 15.4 2.2 16.7 9.6 0.3 6 0 12 0.1 18.1 0.2 7.1-6.7 13.6-13.9 12.6-6.1-0.4-11-5.8-11.6-11.8-0.7-5.8-0.5-11.8 0.1-17.7 0.3-5 3.9-9.3 8.6-10.8zm-5.7 20.7c0.2 5.8 6.2 9.8 11.6 9.4 2.9-1.4 6-2.9 7.2-6.1 3.4-5.9-1.8-13.8-8.4-14-5.7-0.6-11.2 5-10.4 10.7z"/><path class="d" d="m305.2 167.3c7.1-2.4 15.4 2.3 16.6 9.6 0.5 5.7 0.3 11.4 0.3 17 0.2 5.2-2.9 10.5-7.6 12.6-4.4 1.6-9.8 1.5-13.4-1.6-3-2.4-4.4-6.1-4.7-9.8-0.5-6-0.5-12.1 0.4-18 0.5-4.7 4.2-8.4 8.4-9.8zm-5.9 19.7c-0.6 5.4 4.6 9.9 9.7 10.3 6.8 0.4 12.7-7.4 9.5-13.7-1.9-5-7.6-6.9-12.6-6-3.3 2.1-6.9 5-6.6 9.4z"/><path class="d" d="m357.4 167.4c4.8-1.5 10.6-0.8 14 3.2 3.8 3.7 3.6 9.4 3.6 14.3-0.2 5.9 1 12.4-2.6 17.5-4.3 6.7-15.6 7.1-20.3 0.6-2.6-3.4-3.3-7.8-3.1-12 0.1-4.7-0.4-9.5 0.5-14.2 0.9-4.2 3.9-7.8 7.9-9.4zm-5 19.7c-0.5 4.8 3.3 8.6 7.4 10.2q2.2 0 4.3 0c2.9-1.3 6-2.9 7.1-6.1 2.5-4.8-0.4-11.2-5.3-13.1-5.9-2.5-14.1 2.2-13.5 9z"/><path class="d" d="m410.4 167.4c4.3-1.4 9.4-0.8 12.8 2.3 3.9 3.2 5.2 8.5 4.8 13.4-0.4 6.6 1.5 14.2-3.2 19.8-4.5 6-14.4 6.5-19.2 0.6-5.5-5.8-3.1-14.3-3.6-21.5-0.6-6 2.4-12.5 8.4-14.6zm0.8 10.8c-7.6 2.5-8 14.2-1 17.6 6.1 4.2 15.3-1.6 14.6-8.8 0.2-6.7-7.6-11.7-13.6-8.8z"/><path class="d" d="m463.4 167.4c5.5-1.8 12.2 0.1 15.3 5.1 2.9 4.3 2.3 9.7 2.3 14.6 0 4.9 0.6 10.2-2.3 14.6-3.6 6.4-13.3 7.9-18.8 3.2-2.7-2.2-4.9-5.4-4.9-8.9-0.2-5.3 0-10.7 0-16-0.3-5.4 3.3-10.7 8.4-12.6zm-0.5 11.4c-3.3 1.8-5 5.5-4.6 9.2-0.3 4.6 3.8 7.7 7.6 9.3q2.1 0 4.3 0c4.3-1.5 7.9-5.5 7.5-10.3 0.4-4.4-3-7.6-6.6-9.4-2.7 0-5.8-0.6-8.2 1.2z"/><path class="d" d="m516.3 167.4c4.8-1.4 10.7-0.7 14 3.4 3.8 4 3.5 9.9 3.6 15.1-0.1 5.3 0.6 11-2.1 15.8-4.4 7.7-17.2 8-21.7 0.3-3.1-4.4-1.9-9.9-2.1-14.9 0.3-4.5-0.9-9.4 1.3-13.5 1.5-2.9 4.1-5.1 7-6.2zm-5 16.9c-2.5 6.8 4.7 14.7 11.8 12.7 4.8-1.1 8.2-6.1 7.4-11 0.1-4-3.3-6.6-6.4-8.4q-3.2 0-6.3 0c-2.7 1.5-5.8 3.4-6.5 6.7z"/><path class="d" d="m569.4 167.4c7.4-2.8 16.4 2.7 17 10.7 0.3 5.6 0.2 11.2 0.1 16.8-0.2 6.3-5.2 12.3-11.6 12.7-6.8 0.9-13.3-4.8-14-11.5-0.5-5.7-0.2-11.4 0-17.1-0.2-5.2 3.7-9.9 8.5-11.6zm-2.9 13.1c-1.5 1.4-2 3.5-2.8 5.4 0 0.8 0 2.4 0 3.2 1.1 4.1 4.4 6.8 8.3 8.3 4.5 0.1 9.4-2 11.1-6.4 1.1-3.7 0.6-8.1-2.3-10.8-3.7-4-10.7-3.7-14.3 0.3z"/><path class="d" d="m622.3 167.4c4.8-1.5 10.7-0.4 14 3.6 4 4.3 3.5 10.6 3.5 16-0.2 5.3 0.4 11.2-3 15.7-4.6 6.5-15.4 6.6-20.2 0.3-4.1-4.7-2.7-11.3-3-17 0.3-4.5-0.6-9.5 2.1-13.4 1.6-2.3 3.9-4.1 6.6-5.2zm0.2 11c-4.2 1.7-6.1 6.3-5.9 10.7 1.5 3.8 4.5 6.7 8.3 8.3 5.6 0.4 11.6-3.4 11.6-9.5 1-7.2-7.7-12.8-14-9.5z"/><path class="d" d="m675.2 167.3c5-1.4 11.3-0.4 14.5 4 3.6 4.4 2.5 10.4 2.8 15.6-0.2 4.9 0.8 10.3-2 14.6-3.5 6.3-12.8 8.1-18.5 3.8-3.2-2.4-5.2-6.3-5.2-10.3q-0.3-8 0-15.9c-0.2-5.3 3.7-9.9 8.4-11.8zm-0.4 11.3c-4.3 2.1-5.8 7-5.2 11.5 1.5 2.5 3.2 5.1 6.1 6.2 5.8 3.1 13.6-1.7 13.7-8.3 1.2-7.6-8.2-13.2-14.6-9.4z"/><path class="d" d="m722.8 171c4.8-6 15.1-5.7 19.6 0.5 3.5 3.7 2.6 8.9 2.7 13.5-0.2 4.3 0.3 8.7-0.3 13-1.3 4.9-5.5 8.3-10.2 9.9-1.6 10-1.9 20.2-3.5 30.3-1.3 0.3-2.6 0.5-3.9 0.6 1.4-10.2 3-20.5 3.4-30.9-3-1.4-6.5-2.3-8.3-5.3-3.7-5.1-2.5-11.7-2.7-17.6 0.1-4.8-0.5-10.3 3.2-14zm1.7 10.5c-3.5 4.1-2.3 11 2.1 13.9 2.2 1.6 4.9 1.8 7.5 2 1.8-1 3.8-1.7 5.3-3 4-3.7 4-10.8-0.4-14.4-2.3-2.7-6-2.6-9.2-2.4-1.9 1.1-3.9 2.2-5.3 3.9z"/><path class="d" d="m781.2 167.3c7-2.4 15.5 2.2 16.7 9.6 0.3 6 0.3 12 0.2 18 0.2 3.8-1.8 7.4-4.5 9.8-5.1 4.4-13.7 3.9-17.9-1.3-2.8-3.1-3.4-7.5-3.4-11.5-0.1-4.6-0.2-9.3 0.4-13.9 0.3-4.9 3.9-9.2 8.5-10.7zm-5.6 16.6c-0.6 4.4 0.6 9.5 4.8 11.8 5.1 3.7 13.1 0.5 14.5-5.7 2.2-6.1-3.5-13.3-9.9-12.6-4.3-0.1-7.2 3.4-9.4 6.5z"/><path class="d" d="m1012.5 170.2q6.2 0 12.5 0.2 0 20.3 0 40.6-19.7 0-39.4 0c0.1-13.4 0-26.8 0.1-40.2 0.8-0.1 2.3-0.3 3-0.4-0.1 10.1-0.8 20.3 0.4 30.4 7.8-0.3 15.7-0.1 23.5-0.2 0-10.1 0.2-20.2-0.1-30.4z"/><path class="d" d="m1092 170.5q6.1-0.3 12.3-0.1c-0.3 9.8-0.3 19.6-0.1 29.4l0.5 0.4c1.3 1.6 3.5 1.2 5.3 1.4 5.8-0.1 11.7-0.1 17.6-0.1 0.2-0.5 0.6-1.3 0.7-1.8 0.8-2.1 0.5-4.5 0.7-6.7-0.2-7.4 0-14.8-0.1-22.2 0.8-0.1 2.3-0.2 3.1-0.3q0 20.3 0 40.5-20 0-40 0 0-20.2 0-40.5z"/><path class="d" d="m64.1 177.1c9.5-2 19.7 0.4 27.3 6.5 13.1 9.7 16.5 29.5 8.5 43.5-5.9 10.5-17.8 17.5-29.9 16.9-14.8-0.2-28.4-11.6-31.7-26-1.5-8.2-0.8-17.1 3.5-24.4 4.3-8.6 13-14.4 22.3-16.5zm-1.3 11.7c-8.5 3.3-14.7 12-14.5 21.1-0.3 6.1 2.3 12 6.4 16.4 4.3 4.3 10.3 6.6 16.3 7 7.7-0.2 15.3-4.2 19.3-10.9 3.9-6.1 4.1-13.8 1.9-20.5-2.7-5.7-7.1-10.8-13.2-13-5.2-2.1-10.9-1.6-16.2-0.1z"/><path class="d" d="m1288 178c22.7 0 45.3-0.1 68 0.1q0 4 0 8.1c-7.7-1-15.4-0.4-23-0.6-6.6 0.2-13.2-0.6-19.6 0.8 1.3 3.4 1.5 7 1.1 10.6-6.3-0.2-12.6 0.3-18.8-0.6-4.1-0.6-8.3-0.4-12.4-0.4 0 4.7 0 9.3 0.2 14q6.2 0 12.3-0.1 0.4-1.7 0.9-3.5c5.9-0.1 11.9-0.1 17.9 0q0.1 4.3 0.2 8.5c-12.4 0.1-24.7 0-37 0.1q-0.1-12.2 0-24.3c6.6-0.1 13.2-0.2 19.9 0q-0.2-2.2-0.3-4.3c-3.1-0.1-6.3-0.1-9.4 0q0-4.2 0-8.4z"/><path class="d" d="m1201 189q4.6 0 9.3 0 0.1 5 0 10-4.7 0-9.3 0 0-5 0-10z"/><path class="d" d="m1221.6 188.9q4.7 0 9.3 0.1c0.1 3.3 0.1 6.7 0.1 10q-4.7 0-9.3 0-0.2-5-0.1-10.1z"/><path class="d" d="m1201 208.7q4.6-0.4 9.4-0.2c-0.2 3.4 0.6 7-0.5 10.2-2.9 0.4-5.9 0.2-8.8 0.1-0.2-3.4-0.2-6.7-0.1-10.1z"/><path class="d" d="m1221.5 208.6q4.8-0.2 9.5 0.2c0 3.3 0 6.7-0.1 10.1q-4.7 0.1-9.3 0.1-0.3-5.2-0.1-10.4z"/><path class="d" d="m1052.5 224.4c5.3-1.4 11.4-1.1 16.3 1.8 5.2 2.8 8.7 8.1 9.9 13.8 1.5 7.9-1.9 16.7-8.9 20.9-5.3 3-12 4.1-17.8 2-7.6-2.4-13.3-9.9-13.2-17.9-0.9-9 5.2-17.8 13.7-20.6zm-2 19.6c0.9 2.1 1.5 4.6 3.6 6 2 1.6 4.6 1.4 7 1.4 1.8-1.2 3.9-2.4 4.8-4.5 2.4-5-2.3-11.6-7.9-10.6-4.3-0.2-6.6 4.1-7.5 7.7z"/><path class="d" d="m1201 228.7c5-0.7 10-0.5 15-0.6 5 0 10-0.4 15 0.5q0 4.8 0 9.6c-10 0.7-20 0.2-30-0.1q0-4.7 0-9.4z"/><path class="d" d="m1249.9 228.7q4.3 0.1 8.7 0.3-0.2 5.8 0 11.7c-2.7-1.1-5.7-1.1-8.5-0.9q-0.3-5.6-0.2-11.1z"/><path class="d" d="m1339.8 284.1c2.7-16.5 7.5-32.9 16-47.4 1.1 11.1 0.2 22.2 0.5 33.3-0.2 36.1 0.1 72.2-0.4 108.2-6-7.1-8.4-16.4-11.1-25.2-6.8-22.2-8.7-46-5-68.9z"/><path class="d" d="m1201 248c6.6-0.4 13.2 1 19.8 0.3 3.4-0.4 6.7-0.4 10.1-0.3q0.1 5 0.1 10c-6.4 0.4-12.7-0.9-19-0.4-3.7 0.4-7.3 0.5-11 0.4q0-5 0-10z"/><path class="d" d="m317.6 265.6c168.9 0 337.9 0.1 506.9 0 0.3 90.7-0.1 181.4 0.2 272-159.6 0.1-319.2 0-478.7 0-9.5 0-19 0.2-28.5-0.1 0.2-90.6 0-181.2 0.1-271.9z"/><path class="d" d="m1201 267.7q4.7-0.4 9.3-0.2c0.2 3.5 0.1 6.9-0.2 10.3-2.9 0.1-5.9 0.3-8.8-0.2-0.6-3.3-0.2-6.6-0.3-9.9z"/><path class="d" d="m1221.4 267.4q4.8-0.1 9.5 0.6 0.2 4.9 0 9.9-4.7 0.1-9.4 0.1-0.2-5.3-0.1-10.6z"/><path class="d" d="m1001.2 275.3c6.3-1.4 13.1 0.3 17.9 4.7 8 6.6 9.1 19.6 2.8 27.7-5.4 7.1-15.8 10.1-23.9 6.3-5.7-2.7-10.5-7.7-11.9-14-0.7-4.7-0.7-9.8 1.6-14.1 2.6-5.3 7.9-9 13.5-10.6zm-3 20.7c-0.4 4.5 4.1 6.7 7.8 7.4 3.5-0.8 6.1-3 7.5-6.2 0-3.1-0.8-6.5-3.4-8.4-2-1.8-4.9-1.1-7.3-1.3-2.8 2-5.3 4.8-4.6 8.5z"/><path class="d" d="m1107 275.2c4.7-0.6 9.6-0.5 13.8 1.9 6.9 3.5 10.8 11.3 11.2 18.9-0.5 6.5-3.9 12.9-9.5 16.3-7 4.8-17.2 4.4-23.7-1-5.9-4.7-9.1-12.8-7.1-20.2 1.2-7.8 7.8-14.1 15.3-15.9zm-3.5 17.6c0 2.6 0 5.7 2 7.7 3.5 4.1 11.1 3.1 13-2.1 2.6-4.9-2.1-11.6-7.5-10.9-3.5-0.3-5.7 2.8-7.5 5.3z"/><path class="d" d="m1201 287.1c9.7-0.1 19.3-0.3 28.9 0 2.4 2.5 0.6 6.7 1 9.9-10 0-19.9 0.4-29.9 0.1 0-3.4 0-6.7 0-10z"/><path class="d" d="m1203.1 307.2c6.3-0.5 12.6 0 18.9-0.2 3 0.1 6.8-0.5 8.8 2.2 0.8 2.8 0.3 5.7-1.5 7.9-9.2 0.4-18.3-0.2-27.4 0-1.3-3-2.6-8.3 1.2-9.9z"/><path class="d" d="m1201 328.9c6.3-0.9 12.6 1.2 19 0.3 3.6-0.4 7.3-0.6 11-0.3 0 3.3 0 6.6-0.1 9.9-6.4 0.7-12.6-1-18.9-0.2q-5.5 0.6-10.9 0.4c-0.1-3.4-0.1-6.8-0.1-10.1z"/><path class="d" d="m1201.1 348.1q4.5-0.1 9 0c0.3 3.5 0.4 7.1 0 10.7q-4.5-0.1-9-0.2-0.2-5.2 0-10.5z"/><path class="d" d="m1221.6 348c3 0.4 6.8-0.9 9.2 1.1 0.4 3.2 0.2 6.4 0.2 9.6q-4.8 0.2-9.5-0.1-0.2-5.3 0.1-10.6z"/><path class="d" d="m1241.9 367.4c5.5-0.1 11 0.3 16.6 0.3-0.1 3.4-0.2 6.9 0 10.3-3.1 0-6.1 0-9.1-0.1q0.1-5.1 0.1-10.1c-2.5-0.1-5.1-0.2-7.6-0.4z"/><path class="d" d="m1201.1 368.1c9.9-0.1 19.9-0.2 29.8 0q0.2 4.9-0.1 9.8c-9.9 0.4-19.9 0.6-29.8 0.1 0-3.3 0-6.6 0.1-9.9z"/><path class="d" d="m971.2 373c2.5-0.5 5.2-0.6 7.8-0.1 0 5.5 0 11.1 0 16.6q-4 0.1-8 0c0.1-5.5 0.1-11 0.2-16.5z"/><path class="d" d="m984.8 372.7q3.6-0.2 7.2 0.2c0 5.5 0 11.1 0.1 16.7q-3.9 0-7.9 0 0.1-8.5 0.6-16.9z"/><path class="d" d="m997.8 372.8q3.6-0.3 7.2 0c0 5.5 0 11.1 0 16.6q-3.8 0.1-7.5 0.1c-0.1-5.6-0.1-11.1 0.3-16.7z"/><path class="d" d="m1201 388q4.6 0 9.3 0 0.1 5-0.1 10-4.6 0-9.2 0 0-5 0-10z"/><path class="d" d="m1221.4 388q4.8 0 9.6 0 0 5 0 10-4.8 0-9.5 0-0.2-5-0.1-10z"/><path class="d" d="m1248.8 387.3c3-0.1 6.1 0.1 9.1 0.7-0.5 4-0.4 8.1 0.4 12q-4.8 0.2-9.5 0.2-0.1-6.5 0-12.9z"/><path class="d" d="m1201 407.8c4.7-0.7 9.3 0.3 14 0.7 5.3-0.2 10.6-1.5 16-0.7q0 4.8 0 9.6c-6.3 0.7-12.7-0.3-19.1 0.1-3.6 0.3-7.2 0.4-10.8 0.3-0.1-3.3-0.1-6.7-0.1-10z"/><path class="d" d="m971.1 415.3q3.9-0.3 8-0.1c-0.2 5.6-0.1 11.2-0.1 16.8-2.6 0.5-5.3 0.5-7.9-0.1-0.2-5.5-0.1-11 0-16.6z"/><path class="d" d="m984.1 415.1q4 0 8 0.1c-0.1 5.7-0.1 11.3-0.1 16.9q-3.6 0.3-7.2 0c-0.5-5.6-0.6-11.3-0.7-17z"/><path class="d" d="m997.6 415.2q3.7 0 7.4 0.1c0 5.6 0 11.2 0 16.8-2.4 0.3-4.8 0.4-7.2 0.1-0.3-5.7-0.1-11.3-0.2-17z"/><path class="d" d="m1287 422.5c22.7 0.3 45.3 0.2 68 0 1.4 2.6 0.5 5.7 0.6 8.5-22.9 0-45.7 0-68.6 0q0-4.2 0-8.5z"/><path class="d" d="m1201.1 427.3q4.6-0.3 9.3-0.3 0.1 5 0 10.1-4.7 0.1-9.4 0c0-3.3 0-6.6 0.1-9.8z"/><path class="d" d="m1317.8 474.7c4.2-3.5 9.9-3.9 15.1-3.7 5.6 0.2 11.8-1 16.6 2.5 3.3 1.8 4.9 5.5 6.1 9-14.1-0.1-28.1-0.3-42.1 0 0.9-2.8 1.8-5.9 4.3-7.8z"/><path class="d" d="m1187.6 493.3c2.9-0.6 6-0.6 8.9 0 0.4 3.5 0.2 7.1 0.2 10.6-3 0.1-6 0.1-8.9 0.1-0.3-3.5-0.6-7.1-0.2-10.7z"/><path class="d" d="m1209 493q4.5 0 9 0 0 5.5 0 11-4.5 0-9 0 0-5.5 0-11z"/><path class="d" d="m1268.7 515.2c-6.1-4-5.8-13.8 0.3-17.7-0.7 5.9-0.2 11.8-0.3 17.7z"/><path class="d" d="m1340 502.8c3.1 0.2 5.1-2.9 8.1-3.4 3.3-0.5 7 0.6 9.3 3.2 2.5 2.8 2.8 7 1.5 10.4-1.5 3.9-5.9 6.1-10 5.7-2.7 0-4.6-2.2-6.9-3.2-6.8-0.5-13.6-0.2-20.4-0.2-0.2-4.2-0.2-8.4-0.1-12.6 6.2 0.1 12.3 0.2 18.5 0.1z"/><path class="d" d="m1172.1 516.2c0.1-1.5 0.3-2.9 0.5-4.3q0.1 1.9 0.3 3.7c7.3-1.3 14.8-0.3 22.2-0.6q0.3 6 0.2 12.1-10.7 0.1-21.4 0c-2.5-2.8-4.9-6.8-1.8-10.1-0.6-0.2-1.7-0.6-2.3-0.8 0.6 0 1.7 0 2.3 0z"/><path class="d" d="m1277.5 512.4c2.5 0.3 6.7-0.7 7.3 2.6 0.9 5 0.6 10 0.9 15 2.1 1.7 4.3 3.6 4.8 6.4 0.4 2 0.5 5.2-2 5.9-4.8 0.9-9.8 0.3-14.7 0.4-0.1 10.3 0.2 20.6 0 30.9 4.8 0.1 9.6-0.5 14.4 0.2 2.7 0.6 2.3 4.1 2.4 6.2 0.2 3.1-2.9 4.7-4.4 7.1-1.4 5.5 0.6 11.7-2.2 16.9-2 0.5-4.1 0.7-6 0.1-0.3-1.7-0.4-3.5-0.5-5.3q-3.9 0.1-7.8 0.1c0.4-2.6 0.5-5.3 0.6-7.9q-7.7-0.3-15.3-1-0.4-1.5-0.8-3c-4.6-0.4-8.5-2.8-12.4-4.9q0-1.6 0-3.1c4.3 1.4 8.5 4.3 13.2 3.3 5-0.6 10-0.3 15-0.4q-0.1-2.3-0.2-4.5-7.3-0.5-14.6-0.4c-0.3-0.5-1-1.5-1.3-2-4.4-2.1-7.7-5.8-12-8q-0.1-2.5-0.1-4.8c2.7 1.2 5.2 2.7 7.2 4.8 1.3 1.1 2.7 3.2 4.7 2.4 5.2-1.9 10.8-1.4 16.3-1.4q0-2 0-4c-4.4-0.2-8.8 0.1-13.2-0.3-1.4-0.1-2.2-1.6-3.3-2.4-1.4-0.8-2.9-1.6-4.1-2.7-1.4-2.3-1.6-5-2.3-7.6 1.8 1.8 3.6 3.5 5.5 5.3 5.4-2.4 11.5-1.2 17.3-1.5q0-2.4 0-4.8c-4.8 0-9.5 0.1-14.3-0.1-2.9-2.5-6.7-3.1-10.3-3.9q2.4-1.8 4.9-3.5 1.3 0.4 2.7 0.8c5-3.6 11.4-2 17.1-2.3q0-2.1 0-4.1c-5.7-0.8-12.3 1.3-17.2-2.5q-1.3 0.5-2.6 1c-2.7-5.1-6.9-9.7-7-15.7 4.2 2.8 6.7 7.4 9.7 11.4q1.2-1.7 2.5-3.3c4.8-0.2 9.6-0.2 14.4-0.2 0.1-3.2 0.2-6.3 0.1-9.5q3.7 0.3 7.4 0.5 0.1-3.1 0.2-6.2z"/><path class="d" d="m1209.6 515.2c6.1-0.3 12.3-0.2 18.4-0.2 3.9-0.4 6 3.5 7.9 6.2-1.6 2.1-3.2 4.8-5.9 5.7-6.7 0.5-13.5 0-20.2 0.2-0.1-4-0.1-8-0.2-11.9z"/><path class="d" d="m1232.5 539.4c-0.2-4.3-0.3-8.6 0.2-12.9 0.2 4.2 0.1 8.4 0.2 12.6 0.7 0.1 2.1 0.1 2.9 0.1-0.5 0.3-1.3 0.8-1.8 1.1q1 2.7 2 5.4c-3.4 2.7-6.5 6.3-11.3 5.9q1.7 0.5 3.3 1c-1.4 1.9-2.2 4.1-0.6 6.2q-1.3-0.9-2.5-1.7c-0.7 3.9 2.3 6.7 4.4 9.6 2.1 3.1 5.3 5.1 8 7.7q0 2.8 0.1 5.6c-4.6-4-7.9-9.2-12.3-13.3-0.3 3.8-0.3 7.6-0.9 11.4 0.2-7.9 1.3-16.1-0.9-23.9q0.4-1.7 0.8-3.4c-4.8-0.6-9.5-0.4-14.3-0.5q-0.3-6.1-0.1-12.3c5.8 0 11.6-0.1 17.4 0 1.9 0 3.6 0.8 5.4 1.4z"/><path class="d" d="m1169.8 545c0.7-3.6 4.1-7.8 8.2-7q8.5 0 17 0 0.1 6.1 0 12.2c-6 0-12 0.2-18 0.3-3.5 0.3-5.7-2.9-7.2-5.5z"/><path class="d" d="m1232.4 557c0.2 0 0.5-0.1 0.6-0.2 1 2.2 2.5 4.1 4.4 5.7q0 1.5 0.1 3.1-2.3-0.8-4.6-1.6c-1.3-2.2-1.7-4.7-0.5-7z"/><path class="d" d="m1068.5 560.5c37.5-0.2 75 0.1 112.6-0.1 0 5.2-0.1 10.5-0.1 15.7-0.7-3.9-0.4-7.9-0.3-11.8-37.2 0.3-74.4-0.1-111.6 0.2-3.9 5.9-9.5 10.3-14.3 15.3-14.7 14.3-28.8 29.2-43.4 43.5-15.8 16-31.9 31.5-47.4 47.7-2 1.8-4 4.5-7 4.4-9.3 0-18.7-0.4-28 0-2.8 3.7-7.8 3.5-12 4.1-4.1 0.8-9.2-2.8-8.5-7.3 0.6-3 3.2-6.1 6.5-5.8 4.4-0.4 8.7 1.2 12.8 2.6 0.9 1 1.4 3 3.1 2.5 7.4 0.1 14.8-0.1 22.1 0 2.1-0.1 4.6 0.4 6.1-1.4 36.3-36.6 72.9-73.1 109.4-109.6z"/><path class="d" d="m1187.7 561.6q4.3-0.3 8.6-0.2 0.3 5.3 0.1 10.6-4.4 0-8.7 0c-0.3-3.5-0.3-6.9 0-10.4z"/><path class="d" d="m1209 561.5q4.5-0.2 9 0 0 5.3 0 10.5-4.5 0-9 0 0-5.2 0-10.5z"/><path class="d" d="m921.4 565.4q8.1 0.1 16.2-0.1 0 1.6 0 3.2c-5.8-0.3-11.7 0.7-17.4-0.9q0.6-1.1 1.2-2.2z"/><path class="d" d="m1346.8 598.7c5.7-2.1 12.7 2.1 12.8 8.4 0.8 5.6-4.1 10.7-9.6 10.7-3.1 0.4-5.3-2.1-8-3.2-6.8-0.5-13.7-0.2-20.6-0.1-0.1-4.1-0.1-8.2-0.1-12.3 6.2-0.2 12.5 0.1 18.7-0.1 2.7 0.1 4.5-2.4 6.8-3.4z"/><path class="d" d="m1268.6 619.5c-6.2-4-5.7-14 0.4-17.9-0.7 5.9-0.4 11.9-0.4 17.9z"/><path class="d" d="m1137.7 608q11.7 0 23.4 0c-0.1 9.3 0.1 18.7 0 28-4.5 0-9 0-13.5 0q-0.1 3.4 0 6.7c1.5 0.3 3.1 0.5 4.5 1.1 1.2 0.6 2.4 1.3 3.6 1.8 3.1 3.2 5.8 6.9 6.2 11.5 0.4 7.6-5 15.9-12.9 17-8.3 1.9-17.3-3.7-18.8-12.1-2.2-8.8 4.4-18.1 13.3-19.5q0.1-3.2 0.2-6.5-3 0-5.9 0c-0.4-9.3-0.5-18.7-0.1-28z"/><path class="d" d="m1182.2 608.1c7.9-0.2 15.8-0.1 23.7 0 0.2 9.3 0.1 18.6 0 27.9-8 0-15.9 0.1-23.9 0 0-9.3 0.1-18.6 0.2-27.9z"/><path class="d" d="m1313.6 635.2c13.9 0.4 27.9 0.3 41.8 0-0.6 2.5-1.2 5.2-3.1 7-3.5 4-9.2 5-14.3 4.8-6.6-0.1-14.1 1.1-19.6-3.3-3-1.9-4.2-5.2-4.8-8.5z"/><path class="d" d="m46.8 647.7c8.8-9.2 23-12.6 35-8.6 7.3 2.7 13.9 7.6 17.8 14.5 5.5 9.3 6.3 21.2 2.1 31.1-2.9 7.3-8.7 12.9-15 17.3-10.2-0.7-20.3-0.2-30.4-0.3-6.3-2.6-11.1-7.9-14.4-13.7-7.4-12.6-5.3-29.8 4.9-40.3zm7.6 7.7c-7.1 7.3-8.2 19.5-2.8 28.1 3.2 5.7 9.2 9 15.3 10.8q4.1 0.1 8.1-0.1 2-0.6 4-1.1c10.8-3.9 16.8-16.2 14.2-27.2-2.1-9.2-10.4-17.2-20.2-17.5-6.9-0.7-14 1.9-18.6 7z"/><path class="d" d="m146.3 643.3c4.1-1.1 9-0.8 12.6 1.8 3.2 2.1 5.2 6 5.1 9.9 0 5.7 0.1 11.3 0 17-0.1 6.7-6.4 12.3-13 12.1-6.7 0.3-12.6-5.5-12.9-12-0.2-5.7-0.1-11.4-0.1-17-0.1-5.2 3.6-9.9 8.3-11.8zm-5.8 19.7c0.9 3.4 2.1 7.2 5.4 9.1 2.3 1.9 5.5 1.3 8.3 1.3 1.3-1 2.8-2 4-3.2 4.3-4.2 3.2-12.5-2.1-15.4-2.4-1.8-5.5-1.2-8.2-1.2-3.9 1.8-6.4 5.2-7.4 9.4z"/><path class="d" d="m200.1 643.1c5.2-1.4 11.2 0.1 14.2 4.8 4.2 6.3 1.8 14.1 2.4 21.1 0.6 6-2.5 12.5-8.5 14.4-7.4 2.8-16-2.6-17.1-10.3-0.3-5.7 0-11.4-0.1-17.1-0.4-5.7 3.7-11.3 9.1-12.9zm-5.9 21c-0.3 7.4 9.6 12.3 15.3 7.5 3.9-2.6 4.4-7.5 3.9-11.7-1.4-2.3-3-4.7-5.5-5.8-6.4-2.8-14.7 2.8-13.7 10z"/><path class="d" d="m252.2 643.2c6.1-2.2 13.4 0.9 16.2 6.7 2.1 5.1 1.4 10.7 1.4 16.1-0.2 4.6 0 9.9-3.4 13.5-3.8 4.8-11.2 6-16.4 2.8-3.6-2.1-6.2-6.1-6.1-10.3-0.1-6-0.2-12 0-18 0.1-4.9 3.8-9.1 8.3-10.8zm-4.9 17c-2.4 5.5 1.6 11.1 6.6 13.2 3.2 0.2 6.7 0.2 9.2-2.3 4.8-3.8 4.5-12.1-0.6-15.6-5-4.3-13.4-1.4-15.2 4.7z"/><path class="d" d="m304.4 643.5c5.5-2.2 12.6-0.6 16 4.5 2.4 3.5 2.2 8 2.3 12-0.1 5.3 0.4 10.7-1 15.8-1.9 5.5-8 9.1-13.8 8.2-5.9-0.6-11.4-6-11-12.1 0-5.9-0.3-11.9-0.1-17.8 0.1-4.7 3.3-8.9 7.6-10.6zm1.7 10.5c-3.9 1.5-7 5.6-6.6 10 0.1 4 3.1 7.4 6.6 9 6.3 2.6 13.9-3.3 13.5-9.9 0-6.5-7.4-11.4-13.5-9.1z"/><path class="d" d="m358.1 643.3c4.9-1.4 11.1-0.8 14.2 3.7 4.1 4.7 2.8 11.3 3 17-0.2 5.2 1 11.3-2.9 15.5-4.7 6.1-15 6.1-19.8 0-3.6-3.9-2.9-9.6-3-14.5 0.1-4.6-0.6-9.3 0.6-13.9 1.4-3.5 4.3-6.5 7.9-7.8zm-5.5 17.5c-0.1 3.5 0.3 7.2 3 9.7 3.5 4 10.4 4 14 0 2.8-2.4 3-6.2 2.8-9.7-1.7-3.8-4.9-7.6-9.5-7.3-4.7-0.4-8.5 3.3-10.3 7.3z"/><path class="d" d="m410.4 643.5c7.1-3.1 16.2 1.7 17.5 9.4 0.4 6 0 12 0.2 18.1 0.5 6-4.3 11.7-10.2 12.8-7 1.8-14.7-3.7-15.2-11-0.7-6.2-0.7-12.4-0.1-18.6 0.3-4.7 3.5-8.9 7.8-10.7zm-5 20.5c-0.1 4.6 3.9 7.5 7.5 9.4 4.1 0.4 8.7-0.8 10.8-4.7 3.2-4.6 1.3-11.4-3.5-14.1-6.3-3.9-15.9 2-14.8 9.4z"/><path class="d" d="m463.4 643.4c7.2-2.7 16.2 1.8 17.5 9.5 0.3 6 0 12.1 0.1 18.1 0.4 5.6-3.6 11.1-8.9 12.6-6.9 2.2-15.2-2.2-16.3-9.6-1-6.3-0.9-12.7-0.5-19.1 0.2-5 3.3-9.7 8.1-11.5zm-4.1 15.8c-3.4 6.2 1.8 14.3 8.7 14.3 6.8 0.5 12.5-7.7 9.5-13.9-1.1-2.9-3.9-4.5-6.4-6-4.7-0.8-9.7 1.2-11.8 5.6z"/><path class="d" d="m675.2 643.3c5-1.3 11.3-0.4 14.6 4.1 3.6 4.7 2.8 11.1 2.9 16.6-0.2 5.3 0.7 11.4-3.1 15.5-4.3 5.3-12.8 6.2-17.9 1.8-2.8-2.3-4.9-5.6-4.7-9.3-0.1-5.7-0.1-11.3 0-17-0.2-5.1 3.4-10 8.2-11.7zm0.3 11.1c-4.7 1.9-6.5 7.1-5.9 11.8 1.5 2.8 3.4 5.6 6.4 6.8 6 2.5 13.3-2.6 13.4-9 0.9-7.1-7.6-13-13.9-9.6z"/><path class="d" d="m727.4 643.5c4.6-1.8 10.3-1.1 14.1 2.1 2.6 2.8 3.9 6.7 3.7 10.5 0 5.2-0.1 10.5 0 15.8 0.2 6.8-6.5 12.7-13.2 12.2-6.4-0.1-12.1-5.8-12.3-12.2-0.3-5.6-0.1-11.2 0-16.8-0.1-5 3.1-9.8 7.7-11.6zm-4.9 20.5c0 7.5 10.3 12.4 16 7.5 3.3-2.5 4.1-6.8 3.9-10.7-1.3-2.6-2.9-5.3-5.7-6.6-6.4-3.2-14.9 2.7-14.2 9.8z"/><path class="d" d="m780.4 643.4c6.6-2.5 15.1 1 17.7 7.7 0.7 4.3-0.1 8.6 0.1 12.9-0.1 5.2 0.9 11.1-2.9 15.4-4.6 6-14.6 6.3-19.6 0.6-3.9-4-3.1-9.9-3.3-15 0.1-4.9-0.4-10 0.9-14.7 1.2-3.2 4-5.6 7.1-6.9zm-5 20.6c-0.1 4.5 3.8 7.5 7.5 9.4 3.6 0.3 7.6-0.5 10-3.4 2.5-2.4 2.5-6 2.5-9.1-1.8-3.7-4.9-7.5-9.4-7.4-5.7-0.6-11.3 4.8-10.6 10.5z"/><path class="d" d="m1089 643c8.8-2.6 19.3 3.7 20.1 13 1 6.6-2.3 13.8-8.3 16.8-8.3 4.4-19.7 0.1-22.7-8.9-3.7-8.4 2.2-18.8 10.9-20.9z"/><path class="d" d="m1190.1 645.1c2.5-2.6 6.5-2.3 9.8-2.3 8.7 0.3 16.2 8.6 15.1 17.3-1 7-6.8 13.8-14.2 14.3-3.9 0.3-8.1-0.5-11.3-2.9-7.9-5.5-9.2-19-1.2-24.9q0.9-0.7 1.8-1.5z"/><path class="d" d="m1004.8 658.2q4.6-0.3 9.3-0.2 0 5.1-0.1 10.1-4.6 0.1-9.2-0.1 0-4.9 0-9.8z"/><path class="d" d="m1025.8 658.2q4.6-0.3 9.3 0-0.1 4.9-0.1 9.8-4.6 0.2-9.2 0.2-0.1-5 0-10z"/><path class="d" d="m507.8 668.4c1.7 0.1 3.5-0.1 5.1 0.6 0.2 0.2 0.6 0.7 0.9 0.9 1.6 2.4 4.3 3.9 7.2 3.6 3.7 0.4 6.4-2.5 9.1-4.6 1.2-0.6 2.7-0.4 4-0.5-0.1 3.2 0 6.8-1.9 9.6-4 7-15.1 8.2-20.5 2.2-3.1-3.1-3.7-7.6-3.9-11.8z"/><path class="d" d="m560.6 668.4q2.1 0 4.2 0.1l0.2 0.3c2.5 2.4 5.4 4.9 9 4.7 3.4 0.1 6.1-2.2 8.2-4.6l0.3-0.3q2.3-0.1 4.6 0c0 4.4-0.9 9.2-4.5 12.2-5 4.8-13.9 4.3-18.4-1-3-3.1-3.4-7.4-3.6-11.4z"/><path class="d" d="m613.8 668.3c1.3 0.2 2.8-0.1 4 0.6 2.4 2 4.8 4.6 8.2 4.6 3.2 0.4 6.2-1.2 8.2-3.6 0.2-0.2 0.7-0.7 1-0.9 1.5-0.7 3.3-0.5 5-0.6-0.3 4.1-1 8.6-4.1 11.7-5.2 5.8-15.6 5.2-20-1.2-2.5-3-2.2-7-2.3-10.6z"/><path class="d" d="m989.9 681c1.9-2.1 5.3-0.6 7.8-0.9q-0.2 9.7-0.1 19.3-3.9-0.1-7.9-0.4c0.1-6-0.9-12.1 0.2-18z"/><path class="d" d="m1029.4 679.8c2.7 0.5 6.3-0.8 8.5 1.3 0 6 0.6 12.2-0.6 18.1q-4 0.2-7.9 0.3c0.1-6.6 0-13.1 0-19.7z"/><path class="d" d="m888.5 702.1q17.4 0.2 34.9 0.1c0.3 4.7 0.2 9.5 0.1 14.2-11.7 0.4-23.4 0.1-35 0.1-0.1-4.8-0.2-9.6 0-14.4z"/><path class="d" d="m1053.4 702.1q93.5-0.2 187-0.1-0.1 3.9 0 7.7c-33.7-0.1-67.4 0.1-101.2 0-0.3 13.4 0 26.9-0.1 40.4-10.3-0.1-20.6 0.1-30.9-0.1 0-13.5 0-26.9 0-40.4-18.3 0.3-36.7-0.1-55.1 0.3q0.2-3.9 0.3-7.8z"/><path class="e" d="m1313.4 186.4c6.4-1.4 13-0.6 19.5-0.8 7.7 0.2 15.4-0.4 23.1 0.6q1.7 0.2 3.4 0.5c0 15.1 0.2 30.3 0 45.4-1.1 1.6-2.5 3-3.6 4.6-8.5 14.5-13.4 30.9-16.1 47.4-3.6 22.9-1.7 46.7 5 68.9 2.8 8.8 5.2 18.1 11.2 25.2l0.5 0.6c-0.2 10.5 0.1 21-0.2 31.6q1.7 0 3.4 0.1c0 3.9 0.1 7.9-0.1 11.8q-2.3 0.1-4.5 0.2c-22.7 0.2-45.3 0.3-68 0-10.7-0.1-21.5 0-32.2-0.1q0-8.1 0.2-16.2c0.9 0 2.7 0 3.7 0-0.1-2.1-0.1-4.2-0.4-6.2-0.8-3.9-0.9-8-0.4-12 1.3-3.1 0.4-6.7 0.6-10-0.2-3.4-0.1-6.9 0-10.3-5.6 0-11.1-0.4-16.6-0.3 0.3-23.5 0-46.9 0.2-70.4-0.2-18.6 0.2-37.3-0.1-55.9 5.5-0.2 11.1 0.2 16.6-0.4q-0.2-5.9 0-11.7c0.1-14.2-0.1-28.4-0.1-42.6 9.8 0 19.7 0.1 29.5 0 3.1-0.1 6.3-0.1 9.4 0q0.1 2.1 0.3 4.3c-6.7-0.2-13.3-0.1-19.9 0q-0.1 12.1 0 24.3c12.3-0.1 24.6 0 37-0.1q-0.1-4.2-0.2-8.5c-6-0.1-12-0.1-17.9 0q-0.5 1.8-0.9 3.5-6.1 0.1-12.3 0.1c-0.2-4.7-0.2-9.3-0.2-14 4.1 0 8.3-0.2 12.4 0.4 6.2 0.9 12.5 0.4 18.8 0.6 0.4-3.6 0.2-7.2-1.1-10.6z"/><path class="e" d="m1376 481.9c2.7-2.5 4.8-6.6 9.2-6.1 0.1 4.8-2.1 9.4-1.9 14.3-0.1 42.3 0 84.6 0 126.9 0.2 6.7-0.5 13.6 1.2 20.3 0.3 1.5 1 4.2-1.5 3.9-2.9-1.2-4.3-4.4-7-5.9-4.1-0.7-8.2-0.2-12.2-0.2-2.8 0-5.6 0-8.4 0.1-13.9 0.3-27.9 0.4-41.8 0-14.8-0.3-29.6-0.3-44.3-0.2-0.2-4.9 0.2-9.8-0.3-14.7 0-0.2-0.3-0.6-0.4-0.8 0-6-0.3-12 0.4-17.9q0.4-1.3 0.7-2.7 3.9 0 7.8-0.1c0.1 1.8 0.2 3.6 0.5 5.3 1.9 0.5 4 0.4 6-0.1 2.8-5.2 0.8-11.4 2.2-16.9 1.5-2.4 4.6-4 4.4-7.1-0.1-2.1 0.3-5.6-2.4-6.2-4.8-0.7-9.6-0.1-14.4-0.2 0.2-10.3-0.1-20.6 0-30.9 4.9-0.1 9.9 0.5 14.7-0.4 2.5-0.7 2.4-3.9 2-5.9-0.5-2.8-2.7-4.7-4.8-6.4-0.3-5 0-10-0.9-15-0.6-3.3-4.8-2.3-7.3-2.6q-0.1 3.1-0.2 6.2-3.7-0.2-7.4-0.5c-0.1-0.6-0.4-1.7-0.5-2.2l-0.7-0.7c0.1-5.9-0.4-11.8 0.3-17.6 0.5-4.9 0.3-9.8 0.4-14.7l0.8 0.1c0.3 5 0.1 10.1 0.3 15.1 0.2-5.2 0.2-10.4 0.1-15.5q20-0.3 39.9-0.1 1.5 0 3 0c14-0.3 28-0.1 42.1 0q4.1 0 8.2-0.1c4.1-0.2 8.2 0.3 12.2-0.5zm-36 20.9c-6.2 0.1-12.3 0-18.5-0.1-0.1 4.2-0.1 8.4 0.1 12.6 6.8 0 13.6-0.3 20.4 0.2 2.3 1 4.2 3.2 6.9 3.2 4.1 0.4 8.5-1.8 10-5.7 1.3-3.4 1-7.6-1.5-10.4-2.3-2.6-6-3.7-9.3-3.1-3 0.5-5 3.5-8.1 3.3zm6.8 95.9c-2.3 1-4.1 3.5-6.8 3.4-6.3 0.2-12.5-0.1-18.7 0.1 0 4.1 0 8.2 0.1 12.3 6.9-0.1 13.8-0.4 20.6 0.1 2.7 1.1 4.9 3.6 8 3.2 5.5 0 10.4-5.1 9.5-10.7 0-6.2-7-10.5-12.7-8.4z"/></svg>