<svg width="1024pt" height="1040pt" viewBox="0 0 1024 1040" xmlns="http://www.w3.org/2000/svg"><g fill="#e1e2e3"><path d="M137.38 60.5c7.49-.87 15.04-.69 22.56-.69 235.68.01 471.36-.02 707.03-.01 19.42.06 38.54 6.77 54.35 17.91 22.09 15.94 37.44 41.26 40.36 68.43.93 7.25.54 14.57.59 21.86.01 233.34.01 466.68.02 700.03.11 8.72-.12 17.51-1.97 26.07-6.42 32.84-31.42 60.97-62.73 72.33-10.48 3.67-21.52 5.77-32.62 5.92-238.32-.01-476.65.01-714.96 0-18.35-.17-36.75-5.22-52.21-15.19-15.03-9.32-27.36-22.84-35.54-38.49-7.8-14.91-11.19-31.9-10.6-48.66-.03-236.33.01-472.67.05-709.01-.52-19.84 4.58-40.05 15.82-56.54 15.24-24 41.58-40.69 69.85-43.96m8.99 34.47c-.25 14-.48 28.01-.4 42.02.49 13.82-.09 27.64.26 41.45 60.93.03 121.85.17 182.77-.02.06-27.82.01-55.63-.01-83.44-60.87-.11-121.75-.11-182.62-.01m-55.86 30.79c-13.17 2.11-23.98 14.83-23.09 28.29.09 14.29 13.18 27.35 27.6 26.63 15.14.7 28.79-13.56 27.61-28.65-.07-16.07-16.43-29.19-32.12-26.27m808.77.41c-12.29 2.57-22.09 14.19-21.84 26.86-.47 14.69 12.79 28.31 27.6 27.64 15.55.8 29.46-14.37 27.56-29.8-.62-16.09-17.73-28.73-33.32-24.7M205.2 249.96c.02 180.26-.08 360.52 0 540.78 196.01-.18 392.01-.05 588.02-.06.33-5.2.22-10.41.19-15.61.06-71.35-.06-142.71-.03-214.06-.09-103.68.19-207.37-.14-311.05-72.76-.29-145.54-.05-218.31-.15-123.24.11-246.49-.17-369.73.15M90.45 858.74c-11.71 2.47-21.43 13.18-21.98 25.27-1 13.41 9.41 26.54 22.62 28.82 11 2.23 22.96-3.44 28.62-13.05 5.73-9.55 4.9-22.61-2.29-31.18-6.32-7.91-17.02-11.83-26.97-9.86m810.98 3.86c-12.09 2.42-22.04 13.89-21.77 26.38-.23 7.74 3 15.46 8.8 20.62 10.45 10.06 29.08 9.49 38.68-1.5 10.53-10.31 9.77-29.3-1.41-38.85-6.35-6.22-15.72-8.17-24.3-6.65M193.48 872c6.88 7.18 14.21 13.92 21.04 21.16-6.74 7.34-14.1 14.06-20.97 21.27 1.64 1.67 3.28 3.34 4.92 5.02 8.94-8.55 17.76-17.26 26.65-25.88-8.41-9.3-17.64-17.84-26.46-26.74-1.73 1.71-3.46 3.43-5.18 5.17m36.89.36c6.68 7.42 14.19 14.03 20.9 21.42-7.15 6.89-14.2 13.89-21.15 20.98 1.73 1.71 3.47 3.42 5.22 5.12 2.77-2.43 5.39-5.02 7.9-7.7 6-6.29 12.46-12.11 18.43-18.42-8.55-9.04-17.34-17.87-26.38-26.41l-4.92 5.01m509.59 24.52c8.66 8.9 17.58 17.54 26.31 26.36 1.73-1.73 3.43-3.5 5.1-5.29-6.68-7.28-14.02-13.92-20.83-21.07 6.81-7.17 14.04-13.92 21.02-20.93-1.68-1.78-3.36-3.56-5.02-5.34-9 8.62-17.86 17.38-26.58 26.27m62.55-25.76c-8.48 8.92-17.76 17.04-26.18 26.01 8.57 8.89 17.42 17.5 26.16 26.21 1.74-1.74 3.44-3.51 5.12-5.3-6.79-7.08-13.88-13.85-20.64-20.94 6.83-7.07 13.91-13.89 20.75-20.95-1.74-1.69-3.47-3.37-5.21-5.03m-498.17.33c.03 3.13.05 6.27.14 9.41 4.97-.07 9.94-.06 14.92-.07-.15 13.47-.06 26.94-.17 40.41 3.67.01 7.34.01 11.01.01.22-13.41.08-26.83.23-40.24 4.99-.07 9.97.04 14.96.13.04-3.18.04-6.35.03-9.51-13.7-.07-27.41-.09-41.12-.14m76.3.25c-.09 16.59.05 33.19-.11 49.79 12.64.02 25.27.17 37.9.05.03-3.06.06-6.1.08-9.14-8.96-.23-17.92-.03-26.87-.13-.08-4.08-.07-8.15.01-12.23 7.95.14 15.9.06 23.85.08 0-2.85-.01-5.7-.02-8.54-7.92-.03-15.83-.13-23.75-.24-.03-3.44-.01-6.87.04-10.29 8.69.02 17.38.17 26.07.17.02-3.15.04-6.29.04-9.43-12.41-.07-24.82-.01-37.24-.09m87.01.42c-.14 16.6.04 33.2-.03 49.81 3.43-.03 6.86-.03 10.3-.06-.04-5.61-.14-11.22-.14-16.83.1-2.94.02-6.07 1.43-8.73 1.7-3.51 6.73-4.27 9.81-2.23 2.18 1.57 2.25 4.52 2.4 6.96.12 6.99.01 13.99.09 20.98 3.41.11 6.83.16 10.26.16-.05-8.74.25-17.49-.19-26.22-.14-3.93-2.21-7.96-5.95-9.55-5.96-2.5-13.29-1.46-17.86 3.29.19-5.87.04-11.75.02-17.62-3.38.01-6.76.04-10.14.04m102.67 51.4c11.77.02 23.55.16 35.33.12-.02-3.06-.02-6.12-.01-9.17-8.14-.04-16.29-.01-24.43-.18.25-13.48.26-26.96.26-40.44-3.66-.03-7.33-.06-10.98-.08-.2 16.58-.13 33.16-.17 49.75m42.12-41.21c3.4-.01 6.81-.01 10.23-.06-.06-2.86-.08-5.7-.16-8.54-3.35.03-6.69.01-10.03-.02-.07 2.87-.13 5.74-.04 8.62m21.87-5.51c-.02 3.69-.04 7.38-.08 11.07-2.01-.01-4.02 0-6.02.02l-.03 6.83c1.98.02 3.96.05 5.95.09.24 7.41-.2 14.82.12 22.23.04 3.27 2.68 6.07 5.8 6.77 3.83.84 7.79.45 11.68.39.03-2.7.07-5.4.12-8.08-2.28-.31-5.23.65-6.96-1.24-.84-6.65-.26-13.42-.35-20.11 2.39.09 4.78.18 7.17.29-.01-2.4-.02-4.79-.01-7.17-2.34.01-4.67.03-6.99.06-.03-3.69-.03-7.38 0-11.05-3.47-.07-6.94-.09-10.4-.1m-202.34 11.17c-8.9 6.45-9.88 20.75-2.86 28.92 5.26 5.89 14.29 7.09 21.54 4.74 5.84-1.97 9.53-7.73 9.92-13.74-3.29-.1-6.58-.07-9.86.08-.65 1.55-1.13 3.21-2.07 4.64-2.83 3.59-9.19 3.32-11.64-.58-2.55-3.9-2.25-8.98-1.31-13.33.96-4.41 5.85-7.63 10.22-5.91 2.67.76 3.65 3.52 4.8 5.74 3.28.04 6.57.08 9.85.05-.83-4.9-3.47-9.76-8.2-11.81-6.44-2.72-14.41-2.66-20.39 1.2m92.38-2.44c-5.61.89-10.82 4.5-13.14 9.76-2.63 6.2-2.52 13.78.8 19.71 6.91 11.64 26.87 11.13 33.09-.95 3.89-8.18 2.39-19.44-5.08-25.11-4.38-3.44-10.29-4.23-15.67-3.41m136.25 7.97c-6.07 7.61-5.79 19.82 1.13 26.8 4.98 4.63 12.42 5.17 18.83 4.07 5.74-1.2 9.79-6.1 11.49-11.5-3.03-.02-6.05.04-9.07.21-2.73 3.94-8.08 5.36-12.4 3.25-2.88-1.49-3.48-4.9-4.22-7.73 8.77-.21 17.54-.1 26.3-.07-.13-5.23-.65-10.81-3.95-15.11-6.53-8.84-21.47-8.41-28.11.08m-48.25-5.63c-.1 11.93-.02 23.86.03 35.79 3.39-.01 6.79.01 10.19.04.07-11.93.03-23.86.08-35.79-3.44-.11-6.87-.2-10.3-.04m-262.71 10.01l-.09 8.6c7.1.14 14.2.1 21.3.24.06-2.96.08-5.92.11-8.87-7.11 0-14.21-.01-21.32.03z"/><path d="M217.38 261.4c187.89-.1 375.77.05 563.66-.07.95 9.23-.97 18.45-.13 27.68.31 6.34-.7 12.69.25 19.01.05 8.01-1.11 16.02-.08 24.02.62 10.97-.13 21.97.19 32.95-.22 10.99-.66 22 .06 32.99.24 6.68-1.14 13.34-.47 20.02.61 5.99-.65 11.99.07 17.98.66 5.99-.59 12 .2 18 .36 11.98.14 23.99-.11 35.98.96 21.02-.72 42.05.34 63.04-.02 4.34-.77 8.65-.57 13 1.06 14.01-.38 28.05.53 42.06-.23 12.32.42 24.66-.53 36.97-.49 6.31.59 12.63.05 18.95-.49 5.68.59 11.34.45 17.04.18 12.33-1.09 24.69.04 37.01-.79 7.34-.02 14.68-.02 22.03-.82 7.31.35 14.64-.31 21.96 0 5.82.81 11.68-.33 17.47-187.73-.06-375.46-.04-563.19-.04-.22-172.68-.08-345.37-.1-518.05zM525.33 893.5c4.05-1.51 9.02.67 10.39 4.84 1.56 4.54 1.62 10.11-1.13 14.22-2.8 4.08-9.45 4.2-12.53.4-2.42-3.06-2.72-7.24-2.31-10.97.35-3.47 2.07-7.27 5.58-8.49zM666.29 901.84c1.11-3.91 4.21-7.99 8.77-7.37 4.17-.01 6.3 3.97 7.12 7.52-5.3.01-10.59-.14-15.89-.15z"/></g><g fill="#c5c5c5"><path d="M133.74 30.01c7.75-.2 15.51-.38 23.27-.27 213.65.02 427.3 0 640.94.03 27.56.07 55.11-.25 82.67.21 34.61 1.91 67.67 20.38 88.05 48.33 11.48 15.46 18.9 33.78 22.21 52.71 2.75 15.18 1.66 30.65 1.88 45.98-.13 233.33-.06 466.67-.08 700.01.21 21.25-4.06 42.75-14.14 61.58-15.64 28.8-43.02 51.33-74.78 59.86-10.66 2.87-21.7 4.35-32.74 4.42-225.34.01-450.67-.01-676.01 0-20.19-.25-40.42.57-60.59-.51-35.51-1.82-69.24-21.08-90.06-49.7-15.05-20.3-22.78-45.54-23.18-70.71-.07-243.98.08-487.96-.03-731.94.61-31.5 13.22-62.91 35.72-85.15 20.26-20.42 48.11-33.22 76.87-34.85m3.64 30.49c-28.27 3.27-54.61 19.96-69.85 43.96-11.24 16.49-16.34 36.7-15.82 56.54-.04 236.34-.08 472.68-.05 709.01-.59 16.76 2.8 33.75 10.6 48.66 8.18 15.65 20.51 29.17 35.54 38.49 15.46 9.97 33.86 15.02 52.21 15.19 238.31.01 476.64-.01 714.96 0 11.1-.15 22.14-2.25 32.62-5.92 31.31-11.36 56.31-39.49 62.73-72.33 1.85-8.56 2.08-17.35 1.97-26.07-.01-233.35-.01-466.69-.02-700.03-.05-7.29.34-14.61-.59-21.86-2.92-27.17-18.27-52.49-40.36-68.43-15.81-11.14-34.93-17.85-54.35-17.91-235.67-.01-471.35.02-707.03.01-7.52 0-15.07-.18-22.56.69z"/><path d="M146.37 94.97c60.87-.1 121.75-.1 182.62.01.02 27.81.07 55.62.01 83.44-60.92.19-121.84.05-182.77.02-.35-13.81.23-27.63-.26-41.45-.08-14.01.15-28.02.4-42.02m20.88 16.34c.16 16.83.05 33.65.06 50.47 15.66-.08 31.33-.02 46.99.05-.03-16.85-.04-33.7.04-50.54-15.7.1-31.39.02-47.09.02m95.35-.03c.04 16.86.02 33.71.01 50.57 15.69-.17 31.38-.11 47.06-.06-.07-16.82-.02-33.65.01-50.47-15.69.04-31.39.02-47.08-.04zM205.2 249.96c123.24-.32 246.49-.04 369.73-.15 72.77.1 145.55-.14 218.31.15.33 103.68.05 207.37.14 311.05-.03 71.35.09 142.71.03 214.06.03 5.2.14 10.41-.19 15.61-196.01.01-392.01-.12-588.02.06-.08-180.26.02-360.52 0-540.78m12.18 11.44c.02 172.68-.12 345.37.1 518.05 187.73 0 375.46-.02 563.19.04 1.14-5.79.33-11.65.33-17.47.66-7.32-.51-14.65.31-21.96 0-7.35-.77-14.69.02-22.03-1.13-12.32.14-24.68-.04-37.01.14-5.7-.94-11.36-.45-17.04.54-6.32-.54-12.64-.05-18.95.95-12.31.3-24.65.53-36.97-.91-14.01.53-28.05-.53-42.06-.2-4.35.55-8.66.57-13-1.06-20.99.62-42.02-.34-63.04.25-11.99.47-24 .11-35.98-.79-6 .46-12.01-.2-18-.72-5.99.54-11.99-.07-17.98-.67-6.68.71-13.34.47-20.02-.72-10.99-.28-22-.06-32.99-.32-10.98.43-21.98-.19-32.95-1.03-8 .13-16.01.08-24.02-.95-6.32.06-12.67-.25-19.01-.84-9.23 1.08-18.45.13-27.68-187.89.12-375.77-.03-563.66.07z"/></g><g fill="#010101"><path d="M167.25 111.31c15.7 0 31.39.08 47.09-.02-.08 16.84-.07 33.69-.04 50.54-15.66-.07-31.33-.13-46.99-.05-.01-16.82.1-33.64-.06-50.47zM262.6 111.28c15.69.06 31.39.08 47.08.04-.03 16.82-.08 33.65-.01 50.47-15.68-.05-31.37-.11-47.06.06.01-16.86.03-33.71-.01-50.57z"/></g><g fill="#c6a654"><path d="M90.51 125.76c15.69-2.92 32.05 10.2 32.12 26.27 1.18 15.09-12.47 29.35-27.61 28.65-14.42.72-27.51-12.34-27.6-26.63-.89-13.46 9.92-26.18 23.09-28.29zM899.28 126.17c15.59-4.03 32.7 8.61 33.32 24.7 1.9 15.43-12.01 30.6-27.56 29.8-14.81.67-28.07-12.95-27.6-27.64-.25-12.67 9.55-24.29 21.84-26.86zM90.45 858.74c9.95-1.97 20.65 1.95 26.97 9.86 7.19 8.57 8.02 21.63 2.29 31.18-5.66 9.61-17.62 15.28-28.62 13.05-13.21-2.28-23.62-15.41-22.62-28.82.55-12.09 10.27-22.8 21.98-25.27zM901.43 862.6c8.58-1.52 17.95.43 24.3 6.65 11.18 9.55 11.94 28.54 1.41 38.85-9.6 10.99-28.23 11.56-38.68 1.5-5.8-5.16-9.03-12.88-8.8-20.62-.27-12.49 9.68-23.96 21.77-26.38z"/></g><g fill="#979796"><path d="M193.48 872c1.72-1.74 3.45-3.46 5.18-5.17 8.82 8.9 18.05 17.44 26.46 26.74-8.89 8.62-17.71 17.33-26.65 25.88-1.64-1.68-3.28-3.35-4.92-5.02 6.87-7.21 14.23-13.93 20.97-21.27-6.83-7.24-14.16-13.98-21.04-21.16zM230.37 872.36l4.92-5.01c9.04 8.54 17.83 17.37 26.38 26.41-5.97 6.31-12.43 12.13-18.43 18.42-2.51 2.68-5.13 5.27-7.9 7.7-1.75-1.7-3.49-3.41-5.22-5.12 6.95-7.09 14-14.09 21.15-20.98-6.71-7.39-14.22-14-20.9-21.42zM739.96 896.88c8.72-8.89 17.58-17.65 26.58-26.27 1.66 1.78 3.34 3.56 5.02 5.34-6.98 7.01-14.21 13.76-21.02 20.93 6.81 7.15 14.15 13.79 20.83 21.07a212.16 212.16 0 0 1-5.1 5.29c-8.73-8.82-17.65-17.46-26.31-26.36zM802.51 871.12c1.74 1.66 3.47 3.34 5.21 5.03-6.84 7.06-13.92 13.88-20.75 20.95 6.76 7.09 13.85 13.86 20.64 20.94-1.68 1.79-3.38 3.56-5.12 5.3-8.74-8.71-17.59-17.32-26.16-26.21 8.42-8.97 17.7-17.09 26.18-26.01zM304.34 871.45c13.71.05 27.42.07 41.12.14.01 3.16.01 6.33-.03 9.51-4.99-.09-9.97-.2-14.96-.13-.15 13.41-.01 26.83-.23 40.24-3.67 0-7.34 0-11.01-.01.11-13.47.02-26.94.17-40.41-4.98.01-9.95 0-14.92.07-.09-3.14-.11-6.28-.14-9.41zM380.64 871.7c12.42.08 24.83.02 37.24.09 0 3.14-.02 6.28-.04 9.43-8.69 0-17.38-.15-26.07-.17-.05 3.42-.07 6.85-.04 10.29 7.92.11 15.83.21 23.75.24.01 2.84.02 5.69.02 8.54-7.95-.02-15.9.06-23.85-.08-.08 4.08-.09 8.15-.01 12.23 8.95.1 17.91-.1 26.87.13-.02 3.04-.05 6.08-.08 9.14-12.63.12-25.26-.03-37.9-.05.16-16.6.02-33.2.11-49.79zM467.65 872.12c3.38 0 6.76-.03 10.14-.04.02 5.87.17 11.75-.02 17.62 4.57-4.75 11.9-5.79 17.86-3.29 3.74 1.59 5.81 5.62 5.95 9.55.44 8.73.14 17.48.19 26.22-3.43 0-6.85-.05-10.26-.16-.08-6.99.03-13.99-.09-20.98-.15-2.44-.22-5.39-2.4-6.96-3.08-2.04-8.11-1.28-9.81 2.23-1.41 2.66-1.33 5.79-1.43 8.73 0 5.61.1 11.22.14 16.83-3.44.03-6.87.03-10.3.06.07-16.61-.11-33.21.03-49.81zM570.32 923.52c.04-16.59-.03-33.17.17-49.75 3.65.02 7.32.05 10.98.08 0 13.48-.01 26.96-.26 40.44 8.14.17 16.29.14 24.43.18-.01 3.05-.01 6.11.01 9.17-11.78.04-23.56-.1-35.33-.12zM612.44 882.31c-.09-2.88-.03-5.75.04-8.62 3.34.03 6.68.05 10.03.02.08 2.84.1 5.68.16 8.54-3.42.05-6.83.05-10.23.06zM634.31 876.8c3.46.01 6.93.03 10.4.1-.03 3.67-.03 7.36 0 11.05 2.32-.03 4.65-.05 6.99-.06-.01 2.38 0 4.77.01 7.17-2.39-.11-4.78-.2-7.17-.29.09 6.69-.49 13.46.35 20.11 1.73 1.89 4.68.93 6.96 1.24-.05 2.68-.09 5.38-.12 8.08-3.89.06-7.85.45-11.68-.39-3.12-.7-5.76-3.5-5.8-6.77-.32-7.41.12-14.82-.12-22.23-1.99-.04-3.97-.07-5.95-.09l.03-6.83c2-.02 4.01-.03 6.02-.02.04-3.69.06-7.38.08-11.07zM431.97 887.97c5.98-3.86 13.95-3.92 20.39-1.2 4.73 2.05 7.37 6.91 8.2 11.81-3.28.03-6.57-.01-9.85-.05-1.15-2.22-2.13-4.98-4.8-5.74-4.37-1.72-9.26 1.5-10.22 5.91-.94 4.35-1.24 9.43 1.31 13.33 2.45 3.9 8.81 4.17 11.64.58.94-1.43 1.42-3.09 2.07-4.64 3.28-.15 6.57-.18 9.86-.08-.39 6.01-4.08 11.77-9.92 13.74-7.25 2.35-16.28 1.15-21.54-4.74-7.02-8.17-6.04-22.47 2.86-28.92zM524.35 885.53c5.38-.82 11.29-.03 15.67 3.41 7.47 5.67 8.97 16.93 5.08 25.11-6.22 12.08-26.18 12.59-33.09.95-3.32-5.93-3.43-13.51-.8-19.71 2.32-5.26 7.53-8.87 13.14-9.76m.98 7.97c-3.51 1.22-5.23 5.02-5.58 8.49-.41 3.73-.11 7.91 2.31 10.97 3.08 3.8 9.73 3.68 12.53-.4 2.75-4.11 2.69-9.68 1.13-14.22-1.37-4.17-6.34-6.35-10.39-4.84zM660.6 893.5c6.64-8.49 21.58-8.92 28.11-.08 3.3 4.3 3.82 9.88 3.95 15.11-8.76-.03-17.53-.14-26.3.07.74 2.83 1.34 6.24 4.22 7.73 4.32 2.11 9.67.69 12.4-3.25 3.02-.17 6.04-.23 9.07-.21-1.7 5.4-5.75 10.3-11.49 11.5-6.41 1.1-13.85.56-18.83-4.07-6.92-6.98-7.2-19.19-1.13-26.8m5.69 8.34c5.3.01 10.59.16 15.89.15-.82-3.55-2.95-7.53-7.12-7.52-4.56-.62-7.66 3.46-8.77 7.37zM612.35 887.87c3.43-.16 6.86-.07 10.3.04-.05 11.93-.01 23.86-.08 35.79-3.4-.03-6.8-.05-10.19-.04-.05-11.93-.13-23.86-.03-35.79zM349.64 897.88c7.11-.04 14.21-.03 21.32-.03-.03 2.95-.05 5.91-.11 8.87-7.1-.14-14.2-.1-21.3-.24l.09-8.6z"/></g></svg>