<svg version="1.2" xmlns="http://www.w3.org/2000/svg" viewBox="0 0 768 1353" width="768" height="1353"><style>.a{fill:#fff}.b{fill:#a3a4a6}.c{fill:#d2d6d7}.d{fill:#010202}.e{fill:#484848}</style><path class="a" d="m427.8 937.8c0.6-0.3 1.7-1 2.2-1.3 5 6.1 5.1 15.3 0.4 21.6-0.5-0.4-1.6-1.1-2.1-1.4 4-5.7 3.4-13.3-0.5-18.9z"/><path class="a" d="m340.4 939.4c0.3-1.2 2.6-1.7 2.9-0.2-0.9 2.9-2.7 5.6-2.8 8.7-0.4 3.9 1.3 7.6 3.1 11-0.7 0.1-2 0.5-2.7 0.7-3.9-5.9-4.4-14.1-0.5-20.2z"/><path class="a" d="m60.1 938.8c0.7-0.1 2-0.1 2.7-0.1-0.2 1.2-0.4 2.5-0.6 3.7 0.7 0.1 2.1 0.2 2.8 0.2 0.1-1 0.3-2.9 0.4-3.9 0.7 0 2.2 0 2.9 0-0.3 1.2-0.6 2.5-0.8 3.7 0.6 0.1 1.7 0.4 2.3 0.5-1.3 1.4-2.6 2.8-3.8 4.4 0.9 0.1 2.7 0.5 3.7 0.7-0.7 1.5-2.2 1.9-3.6 2.2-0.4 1.9-0.7 4.2-3.4 3.8q0.4-2.2 0.8-4.5c-4.3-1-2.3 4.7-6 5q0.3-2.3 0.6-4.6c-0.5-0.1-1.5-0.4-2-0.5 0.1-0.3 0.3-1 0.4-1.4 1.7-0.3 2.6-1.6 3-3.2-0.9-0.1-2.5-0.3-3.4-0.4 0.4-1.9 1.7-2.5 3.5-2.2q0.3-1.7 0.5-3.4zm1.5 5.9q-0.3 1.5-0.5 3c0.7 0 2 0 2.7 0q0.4-1.5 0.8-3-1.5 0-3 0z"/><path class="a" d="m197.2 942.7c-1-2.8 2.9-3.4 4.8-3.4 3-0.4 5.9 2.6 4.8 5.6-1.4 3.3-4.6 5.3-7 7.9 2.7 0 5.3-0.1 8 0-0.2 0.5-0.6 1.5-0.7 2-3.4 0.5-6.8 0.4-10.2 0.4 0.5-5 5.3-7.5 7.7-11.5-1.7-3-4.8-0.9-7.4-1z"/><path class="a" d="m704.3 942.5c3.7-4.6 12.4-4.3 14.8 1.5 1.5 3 1.2 8.1-2.5 9.4-2.2-0.5-4.4-0.6-6.6 0-3.1-0.4-3.8-4.7-2.8-7.2 0.8-3 5.1-3.9 7.4-1.8 1.1 2.2 0.4 4.9 0.6 7.3 5.3-2.2 1.2-11.4-4.2-10.2-7-0.3-8.6 10.6-3 13.6 2.7 0.9 5.7 0.2 8.5 0.7-2 2.5-5.4 1.9-8.1 1.5-6.2-1.5-8.1-10.2-4.1-14.8zm6.2 3.1c-1.7 0.9-1.9 4.1-0.4 5.4 3.6 1.9 3.6-6.7 0.4-5.4z"/><path class="a" d="m267.3 943c-0.2-3.4 4.1-3 6.4-2.7 3.4 0.8 3.7 5.2 1.7 7.5 2.6 2 2.6 6.5-0.8 7.7-2.6 0.9-7.5 1.7-8-2 2.7 0.1 7.1 1.4 8-2.3-0.8-2.4-3.9-2.1-5.4-3.9 1.7-0.7 4.1-0.4 4.9-2.4-0.5-3.5-4.5-2-6.8-1.9z"/><path class="a" d="m126.6 943.6c2.2-1.2 4.4-2.6 6.7-3.6 0.2 5.3 0.1 10.7 0.1 16.1-0.7 0-2.1 0-2.8 0 0-4.1 0.1-8.1-0.1-12.2-0.7 0.5-2 1.5-2.7 1.9-0.3-0.5-0.9-1.6-1.2-2.2z"/><path class="a" d="m639.8 942.7c0.7 0 2 0 2.7 0q0 1.9-0.1 3.9c2 0 4.5-0.5 4.3 2.3q-2.2 0-4.3 0 0 2.3 0.1 4.5c-0.7 0-2.1 0-2.8 0q0-2.2 0-4.4-2.1-0.2-4.2-0.4c0.4-2.3 2.6-1.9 4.4-2.1q-0.1-1.9-0.1-3.8z"/><path class="a" d="m566.8 945.4q3.7 0 7.3 0c0 0.6 0 1.8 0 2.4q-3.7-0.1-7.3-0.2c0-0.5 0-1.6 0-2.2z"/><path class="a" d="m495.8 953.5q-0.1-1.4-0.1-2.8 5.7 0 11.3 0.1c0 0.7 0 2.1 0.1 2.8q-5.7 0.1-11.3-0.1z"/><path class="a" d="m497.2 960.8q2 0.1 4 0.1c-0.2 6 0.5 12.1-0.3 18-1.4 8.3-15.2 8.9-17.5 0.9-1.2-6.2-0.3-12.7-0.6-19q2.2 0 4.3 0c0.3 5.7-0.3 11.4 0.3 17.1 0.7 4.7 8.6 4.8 9.4 0.1 0.9-5.7 0.2-11.5 0.4-17.2z"/><path class="a" d="m63.7 964.6c3.7-5.3 12.3-5.7 16.6-0.9 3.7 3.9 3.6 9.9 2.2 14.8-1.1 3.3-4.4 4.9-7.2 6.5 2 1.5 4.5 2.2 7 2.2q-0.6 1.9-1.2 3.8c-3.9-0.8-8.4-1.7-10.2-5.8-9.2-1.4-12.5-13.6-7.2-20.6zm6.7-0.2c-5 1.7-5.4 8.2-4 12.5 1.2 4.2 7.1 5.8 10.3 2.7 2.7-2.9 2.7-7.4 1.7-11.1-0.9-3.3-4.8-5.3-8-4.1z"/><path class="a" d="m559.6 960.7q2.1 0 4.2 0.1 0 11.9 0.1 23.7-2.2 0-4.3 0c-0.1-7.9 0.1-15.8 0-23.8z"/><path class="a" d="m628.3 961.5c5.4-1.6 11.9 1.1 13.7 6.7 1.5 4.9 1.4 11.3-2.7 15-3.5 3.2-8.9 3.4-13 1.5-8.4-4.9-7.7-20.2 2-23.2zm0.2 4.1c-3.9 2.2-3.7 7.5-3.1 11.3 0.9 4.5 6.8 6.9 10.4 4 3.3-3.2 3.4-8.6 1.8-12.5-1.5-3.5-6-4.6-9.1-2.8z"/><path class="a" d="m203.3 962.1q7.3 0 14.5 0 0 1.7 0 3.5-5.2 0.1-10.3 0 0 3.1 0 6.1 4.6 0 9.2 0 0 1.8 0 3.7-4.6-0.1-9.2-0.2 0 3.3 0 6.7 5.5-0.1 11.1 0 0 1.9 0 3.8-7.6 0-15.3-0.1c0.1-7.8 0.1-15.6 0-23.5z"/><path class="a" d="m411.2 961.9q2.5 0.1 4.9 0.3c1.8 3.4 3.5 6.8 5.2 10.3 2.2-3.3 4-6.8 5.8-10.2q2.2-0.1 4.5-0.2c-2.5 4.7-5.4 9.1-7.6 14-0.6 3.1-0.3 6.3-0.4 9.5q-2.2 0-4.3 0.1c-0.3-3.9 0.8-8.2-1.4-11.7-2.3-4-4.4-8.1-6.7-12.1z"/><path class="a" d="m272.4 963c4.7-0.2 10.5-1.4 14.4 2.1 3.4 3.5 1.9 9.6-2.3 11.7 2.1 3.1 3.8 6.5 5.5 9.9q-2.3-0.1-4.7-0.1-2.4-4.5-5-8.9-2-0.1-3.9-0.2 0.1 4.6 0 9.3-2.1-0.1-4.1-0.1c0-7.9 0-15.8 0.1-23.7zm4.1 3.2q-0.1 4.1-0.1 8.1c2.6-0.4 6.1 0.4 7.6-2.3 0.7-1.9 0.2-4.5-1.9-5.2-1.8-0.6-3.8-0.5-5.6-0.6z"/><path class="a" d="m340.8 966.6q-0.1-1.9-0.1-3.7c6.2 0 12.3-0.1 18.4 0q0 1.8-0.1 3.7-3.6 0.1-7.2 0.1 0.5 9.9 0.3 19.8-2.2 0.1-4.4 0.1-0.1-10 0.2-20-3.6 0-7.1 0z"/><path class="a" d="m692.5 963.2c4.3-0.3 8.9-1.2 12.9 0.6 5.4 2.2 5.3 11.3-0.2 13.4-2.6 1-5.5 0.9-8.2 1.2q-0.1 4.1-0.1 8.1-2.1 0.1-4.2 0.1c-0.1-7.8 0.1-15.6-0.2-23.4zm4.3 3.3q0 4 0.1 8.1c2-0.2 4.1 0 6-0.7 2.5-1.2 3-5 0.8-6.6-2.1-1.4-4.6-0.7-6.9-0.8z"/><path class="a" d="m125 963.9q2.3 0 4.6 0c1.3 5.8 1.8 11.9 3.8 17.5 2-4.9 3.4-10 4.6-15.1q2 0 4-0.1c1.4 5.2 3 10.3 4.9 15.3 1.4-5.9 2.5-11.8 3.5-17.7q2.2 0 4.4 0.1c-1.7 8-3.1 16.1-5.9 23.8-1.3-0.2-2.9 0.2-4-0.5-2.2-4.6-3.2-9.7-4.9-14.5-1.7 5-3.2 10-4.8 14.9q-2.2-0.1-4.4-0.1c-2.2-7.8-4.3-15.7-5.8-23.6z"/><path class="a" d="m270.1 1024.8c1.7-1.3 3.9-1.3 6-1.7-0.1 0.6-0.1 1.7-0.1 2.3-2.7 0.5-5.2 1.9-7 4 2.9 0 7.6-0.2 8.1 3.7 1.5 5.2-5.8 9-9.3 5-3.2-3.8-1.9-10.6 2.2-13.3zm-1.1 9.1c-0.2 2.6 2.2 3.4 4.4 3.7 0.4-1.5 1.3-3 0.8-4.6-1.3-1.9-5.3-2.2-5.2 0.9z"/><path class="a" d="m333.6 1022.8c3.6 0 7.2 0 10.9 0.1-2.5 5.1-5.3 10-6.5 15.6-0.6 0.1-1.8 0.3-2.4 0.4 0.7-4.8 2.2-9.5 4.9-13.6q-3.5-0.1-7-0.1c0-0.6 0-1.8 0-2.4z"/><path class="a" d="m62.7 1023.6c3.1 0.3 2.8 3.2 2.8 5.5q1.9-1.1 3.7-2.1c0.5 1.1 1.4 2.3 0.7 3.5-0.9 0.2-2.8 0.6-3.7 0.7q1.5 2 3 3.9c-0.7 0.4-1.9 1.1-2.5 1.4-1.4-0.8-1.7-2.5-2.5-3.8-1 1.4-1.9 2.8-3 4.1q-1.2-1-2.4-2 1.6-1.8 3.2-3.6c-1-0.1-3.1-0.5-4.1-0.7-1.1-1.6 0.7-2.5 1.6-3.5q1.6 1 3.1 2 0.1-2.7 0.1-5.4z"/><path class="a" d="m131.7 1024.5c0.7 0 2-0.1 2.6-0.1 0 3.1 0 6.3 0.1 9.5q1.2 1.1 2.6 2.1c-0.7 0.2-2 0.4-2.6 0.5q0 1.8 0.1 3.7c-0.7 0-2.1 0-2.8 0q0-1.9 0-3.8c-2.5-0.1-5.1-0.1-7.7-0.2 1.4-4.5 4.6-8.2 7.7-11.7zm-4.6 9.7q2.3 0 4.7 0-0.1-2.9-0.2-5.9c-1.6 1.9-3 3.9-4.5 5.9z"/><path class="a" d="m497.5 1026.1c0.6-1.2 2.3-2.3 3.5-1 1.6 1-0.3 2.9-0.9 4.1-1-1-2-1.9-2.6-3.1z"/><path class="a" d="m197.9 1024.5c2.8-0.1 5.7-0.1 8.6-0.1-0.1 0.6-0.1 1.8-0.1 2.4q-3 0-6 0.1-0.1 1.7-0.1 3.4c3 0.6 7.1 1.9 7 5.6-0.4 4.8-6.3 6-10.1 4.3-0.2-0.6-0.6-1.7-0.8-2.3 2.6 0 6.1 1.6 7.8-1.2 0.9-3.8-4-4-6.5-3.9 0.1-2.8 0.1-5.5 0.2-8.3z"/><path class="a" d="m431.1 1029c1.4-1.4 3.1-1.7 4.9-0.8q-1 1.9-1.9 3.8-1.6-1.5-3-3z"/><path class="a" d="m570.6 1034c0.4-2.2 0.8-4.2 1.3-6.3 0.8 0 2.4 0.1 3.2 0.1-1 2.4-1.2 6-4.5 6.2z"/><path class="a" d="m643.2 1029.3c0.6 0 2 0.2 2.7 0.3-0.1 0.7-0.4 2.2-0.5 2.9 0.6-0.2 1.7-0.5 2.3-0.7l-1.4-0.7c1-1.3 2.7-1.6 4.1-2q-0.4 2.8-0.8 5.6-1.7-0.2-3.3-0.3l-0.2-0.5q-0.9-1-1.7 0.4c-0.7 0.1-2.1 0.3-2.8 0.4q0.7-2.7 1.6-5.4z"/><path class="a" d="m499.4 1033.6q1.3-0.1 2.4 0.7c-0.3 2.4-1.3 5.2-3.8 6.1-0.7-2.3-0.2-5.1 1.4-6.8z"/><path class="a" d="m434.1 1040.5c-1.8-1.2-3.5-4.4-0.1-4.7 2.5 1 1.4 3.2 0.1 4.7z"/><path class="a" d="m274.2 1046.1q7.3 0.1 14.5 0 0 1.8 0 3.6-5.2-0.1-10.3-0.1 0 3.1 0 6.3 4.6-0.1 9.1-0.1 0 1.8 0 3.6-4.5-0.1-9-0.1c0 3.6-0.1 7.1-0.2 10.6q-2.1 0-4.1 0c0.2-7.9 0-15.9 0-23.8z"/><path class="a" d="m340.1 1052c2.7-6.7 11.7-8.2 17.4-4.5-0.3 0.7-1 2-1.4 2.7-3.6-1-8.5-1.7-11.1 1.8-2.3 3.5-2.1 8.6-0.1 12.2 1.9 2.9 5.7 2.5 8.7 2.4 0-3 0-5.9-0.1-8.8 1.1 0 3.1 0 4.2 0.1 0 3.8 0 7.7 0 11.6-4.6 1.2-10.1 2-14.2-0.9-5-3.8-5.3-11.1-3.4-16.6z"/><path class="a" d="m493.8 1046.3q2.1 0 4.2 0c0 5.3 0.2 10.5 0.1 15.8-0.2 2.7-0.8 6.1-3.4 7.6-3.6 1.7-8.1 1.1-11.1-1.5q1-1.4 2-2.7c2 0.9 4.5 1.9 6.6 0.7 1.4-0.8 1.4-2.7 1.5-4.1 0.1-5.3 0-10.5 0.1-15.8z"/><path class="a" d="m554.5 1045.9q2.1 0 4.2 0c0 3.3 0 6.5 0.1 9.8 2.8-3.1 5.7-6.3 8.5-9.4q2.5-0.2 5.1-0.3c-3.2 3.6-6.4 7.2-9.7 10.8 3.8 4 7.7 7.9 10.3 12.8q-2.4 0-4.8 0.1c-2.7-4-5.7-7.8-9.5-11-0.1 3.6-0.1 7.2 0 10.8q-2.1 0-4.2 0c0.1-7.8 0-15.7 0-23.6z"/><path class="a" d="m688.2 1056.7c2.5-3.8 4.7-7.8 7.8-11.2 5.6-0.3 11.4-0.2 17 0.1 1.9-0.2 1.7 2.1 1.8 3.3-0.2 6 0.4 12-0.2 18-1.3 0.9-3 0.5-4.5 0.6-4.7-0.1-9.4 0.1-14.1-0.2-3.1-3.1-5-7.2-7.8-10.6zm8.9-8.9q-3 4.3-6 8.6c2.1 2.8 4 5.6 5.9 8.5 5.1-0.1 10.1-0.1 15.2-0.1 0-5.7 0-11.4 0.1-17.1-5.1 0-10.1 0.1-15.2 0.1z"/><path class="a" d="m69.6 1047.3q2.2-0.1 4.4-0.1c3.3 7.7 6.2 15.6 8.8 23.5q-2.1 0-4.2 0-1.2-2.8-2.3-5.6c-3 0.1-6.1 0.1-9.2 0.1q-1.1 2.8-2.1 5.7-2.2-0.1-4.4-0.1c2.9-7.8 5.8-15.7 9-23.5zm-1.6 14.4q3.8 0 7.6 0-1.9-4.9-3.8-9.7c-1.3 3.2-2.5 6.5-3.8 9.7z"/><path class="a" d="m134.7 1047.9c3.6-2.4 8.1-1.5 11.8 0q-0.6 1.7-1.2 3.4c-2.9-0.7-7-2.3-9.1 0.7-0.4 4 4.5 4.4 7.1 5.9 5 1.8 5.7 9.8 0.8 12.3-4 1.7-8.9 1.3-12.8-0.8q0.8-1.6 1.5-3.2c2.9 0.7 6 2.1 8.9 0.8 1.4-0.7 2.4-2.8 1.1-4-2.6-2.9-7.1-2.9-9.7-5.8-1.7-2.9-1.4-7.4 1.6-9.3z"/><path class="a" d="m625.8 1047.3q2.2 0 4.4 0c0.1 6.6 0 13.2 0 19.9q5.2 0 10.4-0.1 0.1 1.9 0.1 3.8c-4.9-0.2-9.9-0.2-14.9-0.1q0-11.7 0-23.5z"/><path class="a" d="m201.6 1047.8c4.3-0.1 8.8-1 12.9 0.7 9 3.6 8.6 19.2-0.6 22.2-4 1.3-8.3 0.6-12.4 0.5 0-7.8 0.1-15.6 0.1-23.4zm4.2 3c-0.1 5.6 0 11.2-0.1 16.9 3.3 0.3 7.2 0.4 9.4-2.6 2.3-3.6 2.1-9-0.9-12.2-2.2-2.2-5.6-1.8-8.4-2.1z"/><path class="a" d="m414.8 1048.3q2 0.1 4.1 0.1-0.1 4.6 0.1 9.2c3.3 0.1 6.7 0.1 10.1 0.1-0.2-3-0.2-6.1-0.2-9.1q2.1-0.1 4.2-0.1 0 11.8 0 23.6-2.1 0-4.2 0c0.2-3.6 0.2-7.1 0.2-10.7q-5.1-0.1-10.2 0c0 3.6 0 7.1-0.1 10.7q-2 0-4-0.1c0-7.8 0-15.8 0-23.7z"/><path class="a" d="m698.6 1050.2c2.5 0.7 4 2.8 5.5 4.8 1.5-1.9 2.9-4.4 5.6-4.7-1.1 2.4-2.6 4.4-4.3 6.4 1.7 1.8 3.3 3.7 4.7 5.9-3 0.7-4.4-2.2-6-4.1-1.6 1.7-3.3 3.3-5.4 4.4 0.6-2.5 2.3-4.4 4.1-6.1-1.9-1.9-3.6-4-4.2-6.6z"/><path class="a" d="m633.5 1111.5c3.1-1.2 5.9-3 8.7-4.6 1 4.8 1.1 9.7 0.2 14.5-3-1.2-5.8-3.2-9-4q0-3 0.1-5.9z"/><path class="a" d="m337.2 1110.8c2.8-2.8 9.8-1.7 9.2 3.2-1.8 2.6-3.6 6.5-7.2 6.8 1.3-2.9 3.2-5.5 4.7-8.3-2.1-1-5.9 0.9-6.7-1.7z"/><path class="a" d="m643.8 1113.1c1.2-1.8 2.7-3.4 4.4-4.7 0.8 3.9 0.8 8-0.1 11.9-1.5-1.4-2.8-3-3.9-4.6l-0.2 1.2q-0.1-1.9-0.2-3.8z"/><path class="a" d="m197.2 1115.7c-2-3.9 3.4-7 6.7-5.5 3.6 0.6 4 5.5 1.2 7.4 1 1.3 2.6 2.5 2.3 4.4-0.5 5.3-9.6 5.7-10.9 0.7-0.8-2.5 2.7-4.6 0.7-7zm2.6-3q0 1.8 0 3.7c1.8 0.1 3.5-0.4 5-1.1-0.4-0.9-0.7-1.9-1.3-2.7-1.1-0.7-2.5 0.1-3.7 0.1zm0.6 6.7c-3.2 1.5 0.4 6.2 3 4 3-1.4-0.6-6.4-3-4z"/><path class="a" d="m266.6 1118.4c-2.2-3.1-0.6-8.3 3.5-8.6 4.4-0.7 7.4 4.1 6.4 8.1-0.1 5-5 8.1-9.6 7.9 0-0.5-0.1-1.6-0.2-2.2 2.9 0 5.4-1.4 7-3.8-2.4-0.2-5.3 0.6-7.1-1.4zm2.1-5.9q-0.1 2.4 0 4.8 2.5 0.2 5.1 0.3c-0.2-1.6-0.2-3.1-0.8-4.6-1.2-1.1-2.9-0.6-4.3-0.5z"/><path class="a" d="m125.5 1111.2c3.6 0.1 7.3 0 10.9 0.1-2.3 5.1-5.1 10-6 15.6-0.7 0-2.2-0.1-2.9-0.1 0.9-4.7 2.7-9.2 5.2-13.3q-3.6 0-7.1 0c-0.1-0.6-0.1-1.7-0.1-2.3z"/><path class="a" d="m433.8 1111.1c0.8 0.1 2.3 0.1 3 0.1 0 3.4-0.2 6.8-0.2 10.2-0.6 0-1.8 0.1-2.4 0.1-0.3-3.4-0.4-6.9-0.4-10.4z"/><path class="a" d="m569.7 1116.4c-1.1-1.7 1.3-2.5 2.5-3.1 0.3 0.8 1.1 2.3 1.4 3.1-1.2 0.4-3 1.8-3.9 0z"/><path class="a" d="m501.2 1114.9c0.6 0 1.9-0.1 2.6-0.1q-0.1 2.7-0.1 5.4c-0.6 0-1.9 0-2.6 0q0-2.7 0.1-5.3z"/><path class="a" d="m339.7 1122.2q1.6 0 3.3 0.1 0 1.6-0.1 3.2-1.7 0-3.4 0 0.1-1.7 0.2-3.3z"/><path class="a" d="m433.8 1123.4c1.6-0.1 4.2 0.3 3.2 2.5 0 1.8-2.3 0.8-3.4 1q0.1-1.7 0.2-3.5z"/><path class="a" d="m630.8 1127.2c0.8 0 2.4-0.1 3.1-0.1 0 0.7-0.1 2.1-0.2 2.8 1.9 0.7 3.8 1.5 5.7 2.2-0.1 0.8-0.3 2.4-0.4 3.2-1.8-0.6-3.6-1.2-5.4-1.7q-0.2 3.2-0.2 6.4c3.1 1.3 7.2 3.1 7.2 7.1 0.5 4-3.7 5.8-6.6 7.4q0 1.7 0.1 3.3c-0.8 0-2.4-0.1-3.2-0.1q0-1.7-0.1-3.4c-1.5-0.4-3.1-0.8-4.6-1.3-1.9-0.3-1.4-2.7-1.7-4 2.2 0.5 4.4 1.1 6.6 1.6q0-3.2 0-6.4c-2.9-1.4-6.8-3.3-6.6-7.2-0.5-4 3.9-5.6 6.8-7.2-0.1-0.6-0.3-1.9-0.5-2.6zm-3.1 8.9q1.6 2.1 3.4 4 0.1-3.2 0-6.4-1.7 1.2-3.4 2.4zm6.1 7.8q-0.1 3.5 0 7c1-1.1 3-1.9 2.7-3.7 0-1.7-1.7-2.3-2.7-3.3z"/><path class="a" d="m483.4 1130.2c1.6 0.4 3.7 0 4.7 1.6 3.9 4.5 7.1 9.6 10.6 14.4 0.1-5.3-0.1-10.6 0-16q2 0.1 4 0.3-0.1 11.9 0.1 23.8-2-0.1-3.8-0.1c-3.1-6.2-7-11.8-11.4-17.1q-0.1 8.5 0.1 17.1-2.1 0-4.2 0c0-8-0.1-16-0.1-24z"/><path class="a" d="m549.2 1153.8c0.2-8 1.1-16 1.8-24.1 1.5 0.5 3.8-0.2 4.6 1.6 2.5 4.3 4.3 9 6.2 13.6 2.3-4.9 4.5-9.9 6.8-14.7q2-0.3 4-0.4c0.9 8 1.3 16 1.8 24q-2.1 0-4.1 0c-0.1-5.6-0.3-11.2-1-16.7-2.2 4.4-3.8 9.1-6.1 13.5-0.7 1.3-2.6 0.8-3.1-0.5-2-4.4-3.7-8.9-5.6-13.3-1 5.6-0.8 11.4-1 17.1q-2.1 0-4.3-0.1z"/><path class="a" d="m72 1131.6c0.8-0.2 2.6-0.5 3.5-0.7 0 6.4-0.3 12.7 0 19.1 1.2 1.1 2 2.5 2 4.2-2-0.4-4.9-0.8-5.3-3.4-0.7-6.3-0.1-12.8-0.2-19.2z"/><path class="a" d="m277.1 1132.9c3.8-2.5 8.7-1.6 12.7 0q-0.8 1.8-1.6 3.6c-3.2-1.3-7.4-2.1-10.1 0.6-3 3.3-3.1 8.8-0.8 12.5 2.4 3.7 7.6 3.2 11.2 1.8q0.8 1.4 1.6 2.9c-4.5 2.6-10.8 3-15.1-0.4-5.5-5.7-5.1-16.8 2.1-21z"/><path class="a" d="m338.1 1131.8q2.3 0.2 4.6 0.5c2.2 5.9 3.9 12.1 6.5 17.8 2.5-6 4.2-12.3 6.4-18.3 1.1 0 3.3 0 4.3 0-2.6 8.1-5.6 16-9 23.8q-1.9-0.1-3.9-0.1c-3.4-7.7-6.3-15.7-9-23.7z"/><path class="a" d="m79.9 1133.8q1.8-0.3 3.7-0.5 0 2.4 0 4.8 2.5 0 5 0.1c0 0.7 0.1 2.2 0.2 3q-2.6-0.1-5.1-0.1-0.2 4.7 0 9.6c1.8 0 3.5 0 5.3-0.1-0.1 0.8-0.2 2.4-0.3 3.1-3 0.1-7.4 0.9-8.3-2.9-0.6-5.6-0.4-11.3-0.5-17z"/><path class="a" d="m132.5 1132.9c5.4-0.1 10.8 0 16.3 0-0.4 1.5 0 3.3-1.1 4.6-3.8 5-7.6 10.1-10.8 15.6 4.1 0 8.2 0 12.3 0.1 0 0.8 0.1 2.6 0.1 3.5-5.9 0-11.8 0.1-17.7 0.1 0.1-1.7 0.2-3.5 1.3-5 3.1-5.3 7-10.1 10.6-15.2q-5.6 0-11.2 0.1 0.1-1.9 0.2-3.8z"/><path class="a" d="m201.7 1133q2.5-0.1 4.9-0.1c1.7 2.6 3.3 5.3 5.1 7.9 1.8-2.7 3.5-5.4 5.2-8.1q2.2 0 4.4 0.1c-2.3 3.8-4.7 7.6-7.3 11.3 2.7 4.3 5.4 8.5 8 12.9-1.7-0.3-3.7 0.2-5.1-0.7-2-2.8-3.5-5.9-5.3-8.8q-3 4.5-5.6 9.3-2.4-0.1-4.8 0c2.5-4.2 4.9-8.4 7.9-12.3-2.4-3.9-5-7.6-7.4-11.5z"/><path class="a" d="m709.1 1132.6q2.1-0.1 4.3 0c-0.2 4.4 0.1 8.9-0.1 13.4 0 2.4-1.8 4.8-4.3 5.1-3.1 0.4-6.2 0-9.3-0.2 0.1 0.9 0.2 2.7 0.2 3.6-3.3-1.7-6.5-3.6-9.8-5.5 3.3-1.7 6.5-3.6 9.7-5.3 0.1 0.8 0.1 2.3 0.1 3.1 3-0.1 6.6 1.3 9.1-0.8 0.4-4.5 0.1-9 0.1-13.4z"/><path class="a" d="m417.3 1133.7c4.3-0.1 9.1-1.2 13.1 0.8 3.7 1.8 4.5 7.9 0.6 9.8 4.6 2 5.1 9.7 0.3 11.8-4.4 2.1-9.4 1.1-14 1 0-7.8-0.1-15.6 0-23.4zm4 3.1q0 3.2 0 6.5c2.8-0.1 7.8 0.7 8.2-3.3-0.5-3.9-5.4-3.1-8.2-3.2zm0.1 9.6q0 3.7 0 7.5c2.3-0.1 4.9 0.4 7.2-0.5 2.5-1.1 2.6-5.1 0.1-6.3-2.3-1-4.9-0.6-7.3-0.7z"/><path class="a" d="m57.3 1138.3c3.6 0 8.9-1.5 10.4 3 0.4 4 0.4 8.1 0 12.1-3.2 0.5-6.7 1.2-9.7-0.1-3.2-1.5-3.3-6.9 0-8.3 2-0.8 4.3-0.6 6.5-0.8q0-1.4-0.1-2.8c-2.4-0.6-4.9-0.4-7.3-0.1 0.1-0.8 0.2-2.3 0.2-3zm2 10.7c0 2.7 3.3 2.2 5.1 2.1q0-2.3 0-4.5c-1.6 0.5-5.4-0.3-5.1 2.4z"/><path class="a" d="m225.3 1195.5c3.5-1.2 6.5 2.3 6.5 5.5 0.4 3.4 0.1 8.4-3.9 9.5-3.4 0.9-6.3-2.3-6.4-5.5-0.4-3.4 0-8.4 3.8-9.5zm0.5 12.9c2.7 0.7 3.2-2.5 3.4-4.4 0.4-2.5-0.7-4.9-2.2-6.9-3.8 2.3-3.4 8-1.2 11.3z"/><path class="a" d="m614.2 1215c3-5.2 5.7-10.5 8.9-15.5 3.2 5 6.2 10.1 8.9 15.4q-1.6 0.3-3.2 0.6 0 3.6 0.1 7.2-5.6 0-11.2 0 0-3.8 0-7.6c-0.8 0-2.6-0.1-3.5-0.1z"/><path class="a" d="m138.2 1218c2.7-5.5 5.9-10.5 8.8-15.7 3.3 4.9 6.1 10.2 9.2 15.2-0.7 0.2-2.2 0.6-2.9 0.8-0.2 2.4-0.1 4.8 0 7.2q-5.9 0-11.7 0.1-0.1-3.7-0.1-7.4c-0.8 0-2.4-0.2-3.3-0.2z"/><path class="a" d="m518.2 1206.3c2.2-1.8 5.2-0.9 7.8-0.8 0.2 4.2-5.6 0.5-6.3 4 2.6 1.6 7.4 2.3 6.7 6.5-0.8 4.5-6.4 3.4-9.6 2.7 0-0.6 0-1.8 0.1-2.4 2.3 0.1 4.6 0.2 6.9 0-1-2.8-4.1-3.3-6.2-4.9-1.3-1.6-1-3.9 0.6-5.1z"/><path class="a" d="m542.3 1205.5c3-0.1 6.2-0.5 9.1 0.5 2.9-0.9 7.2-1.6 8.6 1.9 1 3.6 0.4 7.4 0.6 11.1q-1.6 0-3.2 0.1c-0.1-3.4 0.2-6.8-0.3-10.2-0.9-1.9-3-0.7-4.6-0.6q0.1 5.2 0.1 10.5c-0.7 0-2.2 0-2.9 0 0-3.4 0-6.9-0.2-10.4q-2.1-0.3-4.3-0.5c-0.1 3.6-0.1 7.3 0 10.9-0.8 0.1-2.2 0.1-2.9 0.2 0-4.5-0.1-9 0-13.5z"/><path class="a" d="m238.2 1206.2c2.2-1.2 5.4 0.2 5.6 2.8 0.2 3 0.2 6 0 9-0.1 3-4.3 5-6.5 2.7-2-2-1.4-5.2-1.7-7.7 0.1-2.4-0.1-5.8 2.6-6.8z"/><path class="a" d="m347.7 1205.7q2.9 0 5.8 0.1 0 3.2 0.1 6.4 31 0 62 0 0-3.3 0-6.6 3.1 0 6.1 0-0.1 6 0.1 12.1-37.1 0.1-74.1 0 0-6 0-12z"/><path class="a" d="m527.3 1205.5c0.9 0 2.7 0 3.6 0 0.9 3.3 1.9 6.6 3.2 9.9 1.1-3.3 1.9-6.6 2.7-9.9 0.9 0 2.6 0 3.4 0-2.3 5.4-3.2 11.4-6.3 16.5-1.4 2.3-4.4 1.7-6.7 1.7 0-3 3.2-2.6 5.1-3.7 0.6-1.5-0.6-2.9-1-4.2-1.5-3.4-2.6-6.9-4-10.3z"/><path class="a" d="m232.2 1219.8c-0.5-2.1-1.2-5.6 1.7-6.1 0.4 2.5-0.1 5.5 1.9 7.5 1.8 2 5.2 2.8 7.3 0.8 2.6-1.9 2.2-5.4 2.4-8.2 0.6 0 1.7 0 2.2 0 0 2.6 0.4 5.5-1.1 7.8-1.2 2-3.4 3-5.3 4.2 0 0.4 0 1.1 0 1.5 1.7 0.4 5-1 4.4 2.4-4.1 0-8.1 0-12.1-0.2 0.2-2.9 3.1-2.2 5.1-2.5-1.6-2.9-5.7-3.7-6.5-7.2z"/><path class="a" d="m688.6 1235.5c2.3-5.6 10-7.2 14.9-4 2.2 1.5 3.4 4 4.8 6.2 5.7 0 11.4-0.2 17.2-0.2 0.1 10.3 0 20.5 0.1 30.8-6.3 6.4-12.2 13.2-18.8 19.3q-1.3-1.7-2.7-3.5c5.4-6 11.5-11.4 16.9-17.4 0.6-8.2 0.1-16.5 0-24.8-4.3-0.1-8.5-0.1-12.7 0.1-1.6 4.9-6 9.2-11.4 8.4-7-0.3-11.6-8.8-8.3-14.9zm6.9-0.9c-2.9 1.2-4.6 5-3 7.9 1.7 4.3 8.5 4.6 10.7 0.5 2.9-4.6-2.8-10.9-7.7-8.4z"/><path class="a" d="m67.5 1231.5c3.9-2 9.1-1.3 12.2 1.9 2.8 2.7 2.7 7 2.1 10.6-1.6 6.7-11.3 9-16.2 4.4-1.7-1.6-2.7-3.7-3.8-5.6q-4.2-0.2-8.4-0.3c-0.3 8.3 0 16.7-0.1 25.1 5.5 6.1 11.2 11.9 16.9 17.6q-1.3 1.4-2.6 3c-6.6-6-13-12.3-18.9-19 0-10.2 0.4-20.5 0.4-30.8 4.3 0.1 8.6 0.1 12.9 0 1.4-2.6 2.7-5.5 5.5-6.9zm2 4c-3.5 1.9-4.1 7.4-0.7 9.8 2.9 2.6 7.9 0.9 9-2.7 2.1-4.7-4-10.1-8.3-7.1z"/><path class="a" d="m480.3 1270.5c4-1 9-1 12.1 2.2 4.6 4.3 3.8 12.7-1.3 16.3-4.9 3.5-12.6 1.8-15.4-3.6-3.1-5.1-0.9-12.6 4.6-14.9zm2.1 1.8c-5.2 1.5-7.4 8.2-4.5 12.6 2.9 5.9 12.7 4.6 14.5-1.6 2.7-6-3.8-13.3-10-11z"/><path class="a" d="m480.7 1274.7c2.3-0.9 5.1-0.8 7.2 0.4 2.1 1.8 0.1 4.3-0.3 6.4 0.6 1.8 1.5 3.5 2.2 5.2-3.3-0.1-4.4-3.5-6.2-5.6q-0.5 2.6-1.1 5.3c-0.4-0.2-1.1-0.6-1.5-0.8-0.9-3.5-0.8-7.3-0.3-10.9zm2.5 1.4c0.1 1.4 0.1 2.9 0.1 4.3q1.7-1.4 3.5-2.8-1.8-0.8-3.6-1.5z"/><path class="a" d="m450.4 1275.7c5.6-1.1 11.8-0.1 16.3 3.7 7.8 6.4 8.6 18.8 3.8 27.3-6.6 11.6-26 10.9-32.4-0.6-2.6-4.2-2.3-9.4-2.1-14.2 0.2-7.9 6.6-15 14.4-16.2zm0.9 7.6c-3.1 1-5.3 3.8-6.1 6.9-1.3 5-1 11 2.8 14.8 3.9 4.2 11.7 3.4 14.5-1.7 2.6-5.1 2.8-11.6-0.3-16.5-2.2-3.6-7-5.1-10.9-3.5z"/><path class="a" d="m292.5 1276.4q4.5-0.2 9 0c-0.1 10.2-0.1 20.5-0.1 30.7 4.8 0 9.5 0 14.3 0.1q0 3.3-0.1 6.7-11.5 0-23 0c-0.1-12.5 0-25-0.1-37.5z"/><path class="a" d="m320.8 1276.8c2.8-0.9 5.8-0.4 8.7-0.5-0.2 12.7 0.2 25.4-0.1 38q-4.3-0.1-8.7-0.1c0.2-12.5-0.3-25 0.1-37.4z"/><path class="a" d="m338 1276.3q4.3 0 8.6 0c0.2 10.2-0.4 20.4 0.3 30.6 4.8 0.4 9.6 0.1 14.4 0.2q0 3.4 0 6.8c-7.9 0.1-15.7-0.1-23.5 0-0.4-12.6 0.3-25.1 0.2-37.6z"/><path class="a" d="m361 1276.3c3.4 0 6.8 0 10.3 0 2.7 5.4 5.4 10.8 7.7 16.4 2.3-5.5 4.9-10.9 7.6-16.3q4.7-0.1 9.4-0.1c-3.8 6.5-7.4 13.2-11 19.8-3.3 5.4-1.7 11.9-2.1 17.8q-4.3 0-8.6 0c-0.3-4.8 0.6-9.7-0.7-14.3-4.1-7.8-8.6-15.4-12.6-23.3z"/><path class="a" d="m407.2 1277.4c6.8-3.1 14.9-2.4 21.8-0.1q-0.2 3.8-0.7 7.6c-5.2-1.4-11-3.5-16.2-0.9-7.3 3.8-7.7 14.8-2.7 20.6 3.2 3.8 8.5 3.2 12.9 2.6q-0.1-3.7-0.1-7.4-3.5 0-7 0-0.1-3.6-0.1-7.1 7.7-0.1 15.5 0.1c-0.1 5.8 0.2 11.5 0 17.3 0.3 2.9-3.3 3.3-5.4 4-6.8 1.3-14.8 1.7-20.6-2.7-11.1-8.1-9.6-27.8 2.6-34z"/><path class="a" d="m73.4 1289.5c3.9-0.1 7.8-0.3 11.6-0.1 2.1-0.2 3.4 1.6 4.7 2.9 8 8.6 16.8 16.4 24.8 25q-6.8 0.2-13.6 0c-8.8-9.6-18.7-18.2-27.5-27.8z"/><path class="a" d="m113.7 1289.5c4.5 0.1 9.1-0.8 13.5 0.3 9.2 8.9 18.5 17.9 27.4 27.2-4.5 0-9.2 1-13.6-0.1-3.7-2.9-6.6-6.6-9.9-9.8-5.7-6-12-11.4-17.4-17.6z"/><path class="a" d="m153.7 1289.4c4.6 0.3 9.8-1.2 14.1 0.9 9.1 8.7 18.2 17.7 26.9 26.9q-6.8 0.2-13.5 0.1c-9.1-9.4-18.5-18.5-27.5-27.9z"/><path class="a" d="m173.7 1289.5q6.8-0.2 13.6-0.1c9.3 9 18 18.6 27.4 27.5q-6.8-0.1-13.5 0.1c-9.3-9.1-18.4-18.3-27.5-27.5z"/><path class="a" d="m193.7 1289.4c4.1-0.1 8.2-0.4 12.3-0.2 1.6-0.2 2.6 1.1 3.6 2.1 8.1 9 17.3 17 25.5 25.9-4.7 0-9.3-0.3-14-0.4-6.1-5.9-11.8-12.1-18-17.9-3.2-3.1-6.5-6.2-9.4-9.5z"/><path class="a" d="m213.7 1289.4c4.1 0 8.2-0.3 12.3-0.1q1.4 0.1 2.4 1.3c8.8 8.7 17.6 17.5 26.4 26.3-4.2-0.1-8.5 0.1-12.7-0.1-1.5-0.1-2.5-1.5-3.6-2.4-8.3-8.3-16.1-17-24.8-25z"/><path class="a" d="m545.2 1288.8c4.4-0.1 8.8-0.1 13.3 0.1-8.6 9.7-18.4 18.1-27.1 27.7q-6.9 0-13.7 0c9-9.5 18.4-18.5 27.5-27.8z"/><path class="a" d="m565.2 1289.1c4.3 0 8.7 0 13.1 0.1-8.5 9.1-17.5 17.8-26.2 26.8q-6.8-0.1-13.5 0c9.1-8.8 17.5-18.2 26.6-26.9z"/><path class="a" d="m585.2 1289.2c4.5-0.1 9-0.1 13.5-0.1-6.8 7-13.6 14-20.6 20.9-2.2 2.1-4 4.7-6.6 6.4-4.3 0.6-8.8 0.1-13.2-0.1 8.6-9.4 18.1-17.9 26.9-27.1z"/><path class="a" d="m604.8 1289.7c4.3-1.5 9.1-0.4 13.6-0.5-6.5 7.6-14.1 14-20.7 21.5-2.6 2.3-4.7 6.3-8.7 5.9-3.5 0.1-7 0-10.5-0.1 8.4-9.3 17.3-18.1 26.3-26.8z"/><path class="a" d="m625.3 1289.2c4.6-0.1 9.1-0.1 13.7-0.1-9.2 8.8-17.8 18.1-26.8 26.9-4.6-0.1-9.1-0.1-13.6 0 9.2-8.6 17.5-18.2 26.7-26.8z"/><path class="a" d="m645.4 1289.4c4.4-0.7 8.9-0.1 13.4-0.3-8.8 9.2-17.8 18.1-26.7 27.1-4.5 1.1-9.3 0.3-13.9 0.5 7.1-7.7 14.9-14.7 22.1-22.4 1.6-1.7 3.1-3.6 5.1-4.9z"/><path class="a" d="m665.2 1289.2q6.8-0.2 13.7-0.1c-7.7 7.9-15.7 15.5-23.2 23.6-1.2 1.3-2.5 2.8-4.1 3.8-4.5 0.5-9 0-13.4 0.1 8.7-9.4 18.1-18.1 27-27.4z"/><path class="a" d="m685.3 1289.1q6.9 0.1 13.8 0.1c-9.1 9.3-18.3 18.4-27.4 27.5q-6.7 0.2-13.4 0 13.6-13.7 27-27.6z"/><path class="a" d="m93.5 1289.4c4.5 0.2 9.1 0.2 13.7 0.1 9.4 9.2 18.2 18.8 27.7 27.8-4.4 0-8.7 0.3-13.1-0.2-2-0.8-3.3-2.6-4.8-4.1-8-7.8-15.9-15.5-23.5-23.6z"/><path class="a" d="m133.8 1289.6c4.5 0 8.9 0 13.4-0.1 9.1 9.2 18.4 18.3 27.2 27.7-4.3 0-8.8 0.6-13.2-0.3-9.5-8.7-18.2-18.3-27.4-27.3z"/><path class="a" d="m130.4 1336.4c2.6-2.4 4.8-6.1 8.7-6 164.2 0 328.3-0.3 492.5-0.2 6.3 6.1 12.9 11.9 18.3 18.9-1.9 0.1-3.9 0.2-5.8 0.2-4.3-5.2-9-10.3-14.4-14.5-7.8-1-15.8 0-23.6-0.3-155.8 0-311.6 0.2-467.3 0.1-4.9 4.1-9 9.1-13.8 13.3-1.6 1.6-4 1.5-6 1.1v-0.6c2.9-4.7 7.7-8 11.4-12z"/><path class="b" d="m138 24.9c146.4-0.2 292.9-0.1 439.3-0.5 14.6-0.9 29.1-0.3 43.7-0.5 4.9 0 9.9-0.1 14.8 0.4 36.3 0.4 71.8 19.9 91.7 50.2 14.1 20.6 20.7 45.7 20.8 70.5 0.2 103.1 0.2 206.2 0.4 309.2 0 4.3 0.5 8.5 0.3 12.8-0.6 11.7-0.2 23.5-0.3 35.2 0.6 9.6 0.2 19.2 0.3 28.8 0.1 165.3 0.2 330.7 0.7 496 0.7 24 0.2 48 0.3 72 0.1 43.7 0 87.3 0.1 131-0.3 7.3-0.3 14.6-1.3 21.8-2.5 17.7-9.1 34.8-19.4 49.4-18.2 26.2-47.8 44.3-79.5 47.9-5.4-7-12-12.8-18.3-18.9-164.2 0-328.4 0.2-492.5 0.2-3.9-0.1-6.1 3.6-8.7 6-3.7 4.1-8.5 7.3-11.4 12v0.6c-14.9-1.4-29.2-7.2-42.2-14.6-28.9-17.2-49.8-47.5-54.5-80.9-1.9-13.8-1.4-27.7-1.5-41.5-0.2-134.1-0.2-268.2-0.4-402.3-0.5-5.2-0.5-10.5-0.4-15.7-0.1-216.3-0.2-432.7-0.5-649-0.2-27.7 9.1-55.4 26.4-77.1 17.3-22 43.2-37.1 71-41.3 6.9-1.3 14-1.2 21.1-1.7zm142.5 10.6c-9.5 0.8-19-0.5-28.5 0.5-39.7 0.1-79.4 0-119 0.1-38.4-0.1-74.5 24.9-90.8 59.2-8.9 17.4-12.1 37.2-11.7 56.7 0 49.7 0.1 99.3 0.2 149-0.2 10.7 0.6 21.3 0.2 32 0.4 176 0.4 352 0.6 528-0.1 12 4.1 24.3 12.6 33 8.5 8.9 20.6 14.2 32.9 14 83.7-0.1 167.3-0.3 251-0.5 20.6-0.8 41.3-0.4 61.9-0.5 78.1-0.1 156.1-0.3 234.1-0.4 4-0.1 8-0.6 12-0.5 13.3 0.8 26.7 0.7 40-0.1 11.8-0.4 24.4 1.9 35.4-3.5 11.5-4.9 20.5-15 24.4-26.9 2.7-6.5 2.1-13.7 2.1-20.6-0.1-127-0.2-254-0.3-381-0.9-7.7 0.4-15.4-0.4-23-0.4-5.4 0.5-10.7 0.4-16-0.1-29.7-0.1-59.4-0.2-89-0.6-12.4-0.4-24.7-0.4-37 0-55.4-0.1-110.7-0.2-166.1 0.3-16.5-3.8-32.9-10.8-47.8-14-30-42.8-52.8-75.4-58.8-18.7-3.1-37.7-1-56.6-1.3-104.5 0.1-209 0.3-313.5 0.4zm401.9 891.3c-7.3 1.6-12.6 8.9-12.5 16.3-0.3 11-0.1 22 0 33 0.1 4.9-0.2 10.2 2.7 14.4 2.7 4.6 8.2 7 13.4 7.2 8 0.2 16-0.2 24-0.1 5.5 0.2 11.4-2.3 14.2-7.3 2.8-4.9 2.2-10.8 2.2-16.2-0.1-10.7 0.3-21.3 0-32-0.1-5.7-3.4-11.4-8.7-13.9-4.5-2.4-9.7-1.6-14.6-1.7-6.9 0.1-13.8-0.5-20.7 0.3zm-487 0.9c-6.8 1.3-12.4 7.3-12.5 14.3-0.4 12.7-0.1 25.4 0 38.1-0.1 5.6 1 11.8 5.9 15.2 6.1 4.8 14.1 3 21.2 3.3 6.3-0.2 12.8 0.8 19-0.7 6.4-1.8 10.6-8.3 10.6-14.8 0.3-11 0-22 0.1-33-0.1-4.5 0.3-9.2-1.4-13.5-2.4-5.5-8.2-9.5-14.2-9.2-9.6 0.1-19.2-0.3-28.7 0.3zm69 0.1c-6.5 1.6-11.8 7.5-12 14.3-0.3 11 0 22 0 33 0.1 5.6-0.6 11.9 2.9 16.7 2.8 4.7 8.4 6.7 13.6 6.6 8.4 0.1 16.7 0.1 25.1 0 5.7 0.2 11.5-3.2 13.8-8.6 1.7-3.6 1.5-7.8 1.5-11.7-0.2-11.7 0-23.4-0.2-35.1-0.1-5.4-2.7-10.9-7.5-13.5-5-3-11.1-2-16.6-2.1-6.9 0.1-13.8-0.5-20.6 0.4zm69-0.1c-6.8 1.7-11.8 8.4-11.6 15.4 0 13.3 0 26.7 0.3 40 0 7.2 5.6 14.2 12.9 14.9 7.3 0.7 14.7 0.1 22.1 0.4 5.8 0.3 12.5 0 17-4.3 3.3-3 4.8-7.6 4.7-12 0-13 0-26-0.1-39 0-5.3-2.4-10.8-7.1-13.6-4.9-3.3-11.1-2-16.7-2.3-7.1 0.4-14.4-0.6-21.5 0.5zm69.1 0.1c-3.9 1.3-7.3 4-9.3 7.6-1.7 2.9-1.5 6.4-1.6 9.7 0.1 12.7-0.1 25.4 0.2 38 0 7.7 6.5 14.5 14.2 14.8 10 0.6 20 0.6 30-0.2 7.4-0.9 12.5-8.3 12.5-15.5q0.2-19.6 0.1-39.1c0.2-8-6.4-15.8-14.5-15.8-6.4-0.2-12.8-0.5-19.1-0.5-4.2 0.1-8.5-0.4-12.5 1zm70.8-0.5c-4.6 1-8.4 4.4-10.5 8.5-1.6 3.2-1.5 6.8-1.5 10.3 0 12.3-0.1 24.7 0.2 37 0.1 7.7 6.7 14.5 14.4 14.8 9.1 0.1 18.1 0 27.2-0.1 5 0.1 10.1-2.6 12.6-7.1 2.5-4.1 2.4-9 2.5-13.5-0.1-11.1 0.1-22.1-0.1-33.1 0-5-1.4-10.4-5.5-13.6-5.5-4.4-13-3.7-19.6-3.7-6.6 0.2-13.2-0.6-19.7 0.5zm69 0.1c-7.3 1.8-12 9.3-11.6 16.7 0 12.3-0.1 24.7 0.1 37 0.1 5.5 2.3 11.2 7.1 14.2 5 3.4 11.4 2.4 17.1 2.6 6.9-0.3 13.8 0.3 20.6-0.4 7.3-1 12.3-8.3 12.2-15.4-0.1-13 0-26 0-39 0.1-5.7-2.7-11.4-7.7-14.1-5.5-3.2-12.1-2-18.1-2.3-6.6 0.3-13.2-0.7-19.7 0.7zm68.1 0.3c-5.6 1.9-9.7 7.3-9.8 13.3-0.5 11.7-0.2 23.4-0.3 35.1 0.1 4.8-0.1 10 2.4 14.4 2.5 4.3 7.3 7.1 12.3 7.2 7.3 0.2 14.7 0.1 22 0.1 4.2-0.1 8.8 0.3 12.6-2 5.1-3 7.8-8.9 7.6-14.7 0-13 0.1-26 0-39 0.1-7.7-6.4-14.7-14.1-15.2-6.7-0.4-13.4 0-20.1-0.2-4.2 0.1-8.6-0.5-12.6 1zm-555 1c-3.1 1.2-6 3.1-8.2 5.6-3.2 4.2-3.2 9.8-3.2 14.8 0.2 11.9-0.1 23.8 0.3 35.7 0.3 7.9 7.8 14.4 15.7 14.2 8.7-0.1 17.3 0.1 26 0 7.6 0.1 14.3-6.3 14.6-13.9 0.4-13.3 0-26.7 0-40 0.1-5.6-2-11.6-6.9-14.7-5.9-3.7-13.2-2.3-19.7-2.5-6.2 0.2-12.6-1-18.6 0.8zm69-0.1c-5.1 1.6-9.3 6-10.6 11.2-0.6 3-0.5 6.2-0.5 9.3 0 11.4-0.1 22.9 0.2 34.3 0 7.5 5.9 14.7 13.5 15.4 7.3 0.5 14.6 0 22 0.2 4.6-0.1 9.7 0.6 13.8-2 4.7-2.9 7.6-8.4 7.4-13.9 0.1-12.7 0.1-25.3-0.1-38 0-5.2-1.7-10.8-6-14.1-5.4-4.4-12.7-3-19.1-3.2-6.9 0.4-13.9-0.8-20.6 0.8zm560 83c-5.2 0.5-10.1 3.8-12.5 8.5-1.6 3.1-1.7 6.6-1.8 10q0.1 18 0 36.1c-1.1 9 6.8 17.6 15.9 17.2 8 0.1 16-0.1 24-0.1 5.5 0.1 11.3-2.3 14.3-7 2.1-3.3 2.4-7.4 2.3-11.2 0-12 0-24-0.1-36 0-4.4-0.8-9.2-4-12.5-3.4-3.7-8.5-5.5-13.5-5.3-8.2 0.3-16.4-0.2-24.6 0.3zm-488 1c-7.2 0.9-13.2 7.2-13.4 14.5-0.5 9-0.1 18-0.2 27 0.2 6-0.4 12.1 0.6 18.1 1.2 6.7 7.7 11.9 14.5 12q13.1 0.3 26.1 0.1c5.5 0 11-2.7 13.7-7.5 1.9-3.2 2.1-7.1 2.1-10.7-0.1-11.3 0-22.7 0-34-0.1-3.2-0.1-6.4-1.1-9.4-1.7-4.9-5.9-9.1-11.2-9.9-5.1-0.8-10.3-0.4-15.5-0.5-5.2 0.1-10.4-0.2-15.6 0.3zm69 0c-5.1 0.8-9.8 4.4-11.6 9.3-1.8 4.5-1.5 9.4-1.5 14.2 0.1 10.7 0 21.3 0.1 32 0 5.3 2.3 10.8 7 13.6 4.9 3.2 11.1 2.4 16.6 2.5 6.7-0.1 13.4 0.4 20.1-0.3 7.2-1 13.4-7.4 13.3-14.8 0-13-0.2-26-0.2-39 0.2-5.8-1.9-12-7-15.3-4.7-3.3-10.7-2.5-16.2-2.6-6.9 0.1-13.8-0.3-20.6 0.4zm69.9-0.1c-7.2 0.8-13.1 7.3-13.3 14.6-0.4 13.3 0.2 26.6 0 40-0.2 5.6 2.3 11.7 7.3 14.6 4.4 2.7 9.7 2.3 14.7 2.3 6.7-0.1 13.4 0.1 20.1-0.1 5.3-0.1 10.6-3 13-7.7 2.6-5 2-10.8 2-16.1-0.3-10.7-0.1-21.4-0.2-32.1-0.1-5.1-2.2-10.5-6.7-13.2-4.4-3.2-10-2.6-15.2-2.6-7.2 0.2-14.5-0.3-21.7 0.3zm69-0.1c-6.2 1-11.4 6.4-12.3 12.6-0.7 4.7-0.3 9.4-0.4 14.2 0.1 10-0.2 20 0.2 30 0.4 7.4 6.6 14.3 14.2 14.6 9 0.3 18 0.2 27 0.1 5.7 0.1 11.1-3.2 13.8-8.1 2-3.5 2-7.7 2-11.7-0.2-11.7 0-23.3-0.1-35-0.1-5.5-2.1-11.6-7.1-14.6-4.9-3.2-11.1-2.3-16.6-2.4-6.9 0.2-13.8-0.3-20.7 0.3zm68.1 0.3c-6.7 1.8-10.9 8.7-10.8 15.4q-0.1 20.5 0 41c-0.1 5.3 3.1 10.3 7.8 12.7 6.3 3.3 13.7 1.6 20.6 2 7.4-0.4 15.8 1.4 22.3-3.4 4.5-2.8 6.1-8.3 6-13.3 0.1-12.4 0-24.7 0-37 0-5.6-1.4-11.7-6.2-15.1-5.8-4.2-13.3-3-20.1-3.2-6.5 0.2-13.2-0.7-19.6 0.9zm70-0.2c-6.9 1.7-11.7 8.6-11.5 15.6-0.2 11.7 0 23.3-0.1 35 0 4.4-0.1 9.1 2.3 13 2.6 5 8.4 7.5 13.9 7.5 8.3 0.1 16.7 0.1 25 0 4.2 0.1 8.3-1.3 11.4-4.1 3.4-3.1 4.6-7.9 4.5-12.4 0-12.7 0.1-25.3 0-38 0.1-5.5-1.9-11.2-6.6-14.4-5.3-3.7-12.1-2.9-18.2-3-6.9 0.2-13.9-0.6-20.7 0.8zm68.9 0.1c-6 1.6-10.7 7.2-10.7 13.5-0.3 12 0 24-0.1 36 0 4.5-0.1 9.3 2 13.4 2.6 5.4 8.8 8.1 14.5 8.1 8.3 0 16.7 0.2 25.1-0.2 5.7-0.1 11-3.6 13.7-8.6 1.8-3.2 1.6-7.1 1.6-10.7 0-11.7 0.1-23.3 0-35 0-5.9-2.3-12.4-7.8-15.4-5.4-3.1-11.8-1.8-17.7-2.1-6.8 0.3-13.8-0.7-20.6 1zm-553.9 0.9c-5.7 0.8-10.7 5.1-12.3 10.6-1.4 4.2-0.9 8.7-1 13 0.2 11-0.1 22 0.2 32.9 0.1 6.4 4.6 12.4 10.7 14.2 5.9 1.5 12 0.5 18.1 0.8 6.7-0.4 14.2 1.4 20.3-2.4 4.8-2.7 7.3-8.2 7.3-13.5 0.2-11.6-0.1-23.3 0.1-35 0-4.5 0-9.4-2.3-13.5-3-4.9-8.8-7.6-14.4-7.4-8.9 0.2-17.8-0.3-26.7 0.3zm68.9-0.1c-7 1.1-12.8 7.5-12.8 14.7-0.3 13.7-0.2 27.4-0.2 41-0.1 7.3 5.3 14 12.4 15.4 6.4 1 12.9 0.3 19.3 0.4 4.8-0.1 9.6 0.3 14.3-0.6 6.7-1.7 11.1-8.5 11-15.2 0.2-11.7-0.1-23.3 0-35 0.1-4.7-0.1-9.6-2.5-13.7-2.7-4.9-8.4-7.4-13.8-7.4-9.2-0.1-18.5 0-27.7 0.4zm348.2 84.4c-7.4 0.9-12.7 8.1-12.6 15.3-0.1 13.7 0.1 27.4 0.2 41.1 0 6.8 5.3 13.2 12 14.4 11 0.5 22.1 1.2 33-0.2 6.5-1.5 11.5-7.6 11.3-14.3-0.1-13.3 0-26.7-0.1-40 0-5.7-2.5-11.8-7.7-14.5-5.1-2.9-11.1-2.1-16.6-2.3-6.5 0.1-13.1-0.2-19.5 0.5zm71.9-0.3c-8-0.2-14.9 6.6-15.2 14.5-0.3 12.1 0.1 24.1 0 36.1 0 3.9-0.3 7.8 1.2 11.5 2.3 5.7 8.4 9.5 14.6 9.2 8.6 0 17.4 0.4 26.1 0.1 7.8 0 14.9-6.9 14.9-14.8 0.4-12.3-0.1-24.7-0.1-37 0-3.8 0.2-7.7-1.8-11.1-2.4-4.7-7.3-8.3-12.7-8.4-9-0.5-18-0.3-27-0.1zm67 0.2c-4.3 1-8.3 3.5-10.5 7.3-2 3.3-2.4 7.3-2.4 11.1 0.1 11.3 0 22.7 0.1 34.1 0.1 3.5 0.3 7.2 2 10.4 2.5 5 7.9 8.3 13.4 8.2 8.7 0 17.4 0.3 26.1 0 5.3-0.2 10.5-2.9 13.2-7.5 2.7-4.2 2.3-9.4 2.4-14.2-0.1-11.4 0.2-22.7-0.1-34.1-0.2-5.2-2.8-10.5-7.4-13.2-5.1-3.4-11.4-2.3-17.2-2.4-6.5 0.2-13.1-0.6-19.6 0.3zm68 0c-6.8 2.2-11.3 9.3-11.1 16.4 0 12.9-0.2 25.9 0 38.9 0 5.8 3.3 11.7 8.7 14.2 4.4 2.1 9.3 1.4 14 1.5 6.9-0.1 13.8 0.4 20.6-0.3 7.1-0.9 13-7.1 13.1-14.3 0.1-13.3 0.1-26.7 0-40 0-5.8-2.5-12-7.8-14.8-5.8-3.2-12.6-2.2-18.9-2.3-6.2 0.2-12.5-0.6-18.6 0.7zm-485 0.9c-4.9 0.7-9.4 3.7-11.6 8.2-1.7 3.1-1.9 6.8-1.9 10.3-0.1 12 0.1 24 0.2 36.1-0.1 5.3 2.2 10.9 6.9 13.8 4.5 2.9 10 2.7 15 2.7 7.3 0 14.6 0.4 21.9-0.3 7-0.7 12.8-7.2 12.9-14.3 0.2-13.3 0-26.7 0-40 0.3-6.2-3-12.4-8.5-15.3-4.1-2.2-8.9-1.5-13.3-1.6-7.2 0.2-14.4-0.2-21.6 0.4zm67 0.1c-6 2.1-10.6 8-10.6 14.4-0.3 12 0 24-0.2 36 0 4.4-0.1 9.2 2.5 13 2.7 4.5 7.7 7.2 12.9 7.3 8 0.3 16 0.2 24 0.1 4.2 0 8.6-0.8 11.9-3.5 4.2-3.2 5.8-8.8 5.6-13.9-0.1-12.7 0-25.3-0.1-38-0.1-5.4-2.4-11.2-7.3-13.9-5.8-3.3-12.7-2.2-19.1-2.5-6.5 0.3-13.2-0.6-19.6 1zm70-0.1c-6.5 1.5-10.9 7.9-11.1 14.4-0.2 11.7 0.1 23.4-0.1 35.1 0 4.3-0.2 9 1.9 13 2.5 5.1 8.3 8.1 13.9 8.1 8.3 0.3 16.7 0.2 25 0.2 4.8 0.1 9.7-1.9 12.7-5.7 3.2-3.7 3.6-8.9 3.6-13.6-0.2-12.3 0.1-24.7-0.2-37-0.2-7.9-6.9-15.5-15.1-15.2-10.2 0.1-20.5-0.6-30.6 0.7zm68.9 0c-6.2 2.2-10.3 9-10.1 15.5 0.1 13-0.1 26 0 39-0.7 8.8 7.1 16.4 15.8 16.2 8.6 0.1 17.3-0.2 26-0.4 8.2 0.2 15.2-7.6 14.8-15.7 0.1-13.4 0-26.8-0.1-40.2 0.2-7.5-6.1-14.6-13.7-15.2-6.9-0.5-14-0.1-20.9-0.2-4 0.1-8-0.3-11.8 1zm-346 0.7c-7 1.6-12.2 8.6-12 15.8 0 12 0.1 24 0 35.9 0 4.9 0.6 10.1 3.9 13.9 3.4 3.9 8.7 5.7 13.8 5.5 8-0.2 16 0.1 24-0.1 7.9-0.3 14.7-7.3 14.7-15.2 0.3-13 0.1-26 0-39 0.1-5.6-2-11.7-7.1-14.7-5.2-3.4-11.7-2.4-17.6-2.6-6.5 0.3-13.2-0.4-19.7 0.5zm68.1 0.4c-6.5 2.1-11 8.6-10.9 15.4q-0.2 19 0 38c-0.1 5.3 1.8 11.1 6.5 14.1 5.8 3.9 13.3 2.9 20 3.1 6.5-0.3 13.2 0.4 19.6-0.8 6.6-1.8 10.8-8.7 10.9-15.3 0.1-14 0.3-28.1-0.4-42.1-0.8-6.6-6.3-12.6-13.1-13.2-6.3-0.5-12.7-0.1-19-0.2-4.5 0.1-9.2-0.4-13.6 1zm180 83.9c-6.9 0.6-13.7 5.5-15.1 12.5-1.1 6.3-0.3 12.7-0.5 19 0.2 6-0.8 12.4 2.3 17.8 3.1 5.6 9.7 8.3 15.9 8.1 53.3 0 106.7 0 160-0.1 7.1 0.1 14.3-4.6 16.1-11.7 1.2-5.3 0.4-10.7 0.7-16.1-0.2-5.8 0.5-11.8-0.4-17.6-1.8-7.7-9.7-12.6-17.4-12.2-53.9 0.1-107.7-0.1-161.6 0.3zm209.1 0.2c-7 1.1-13.1 6.8-14.1 13.9-0.7 5.5-0.1 11-0.3 16.4 0.1 5.8-0.9 12.2 2.4 17.4 3.1 5.4 9.4 8.4 15.5 8.2 12.7 0 25.3 0.1 38-0.1 7.6 0.1 14.9-5.7 16.1-13.2 1-6.4 0.3-12.9 0.5-19.3 0.1-6.2 0.4-13.4-4.4-18.2-4.2-5-11-5.9-17.2-5.4-12.2 0.4-24.4-0.4-36.5 0.3zm84.9-0.1c-6.4 1.1-12.2 5.8-13.6 12.3-1.2 5.6-0.5 11.4-0.7 17.1 0.2 6.1-0.9 12.9 2.4 18.4 2.9 5.1 8.7 8 14.4 8 12.4 0.1 24.8 0.2 37.1 0.1 6.6 0.1 13.5-2.9 16.5-8.9 2.8-5.1 1.9-11 2-16.6-0.1-5.7 0.4-11.5-0.4-17.3-1.2-8-9.3-13.5-17.1-13.3-13.5-0.1-27.1-0.3-40.6 0.2zm-381 0.8c-4.2 0.3-8.2 1.9-11.3 4.6-3.6 3.3-4.9 8.3-4.8 13 0.1 8-0.3 15.9 0.2 23.9 0.5 8.2 8.4 14.8 16.5 14.7q19 0 38.1-0.1c6 0.1 12.2-2.9 15.1-8.3 2.9-4.9 2-10.8 2.2-16.3-0.2-6 0.3-12-0.4-17.9-1.1-7.7-8.4-13.5-15.9-13.6-13.3-0.4-26.5-0.1-39.7 0zm-89.1 0.9c-5.9 1.1-11.1 5.4-12.8 11.1-1.5 5.4-0.7 11.1-0.9 16.6 0.2 5.7-0.6 11.7 1.2 17.3 2.2 6.8 9.3 10.9 16.2 10.9 12.3 0.1 24.7 0 37 0 6.1 0.2 12.3-2.5 15.3-7.9 3.7-6.1 2.2-13.6 2.5-20.3-0.3-7.2 1.4-15.3-3.3-21.5-3.6-5.3-10.3-7.3-16.5-6.8-12.9 0.5-25.9-0.9-38.7 0.6zm560.3 50.2c-3.3 6.1 1.3 14.6 8.3 14.9 5.4 0.8 9.8-3.5 11.4-8.4 4.2-0.2 8.4-0.2 12.7-0.1 0.1 8.3 0.7 16.6 0 24.8-5.4 6-11.5 11.4-16.9 17.4q1.4 1.8 2.8 3.5c6.5-6.1 12.4-12.9 18.7-19.3-0.1-10.3 0-20.6-0.1-30.8-5.7 0-11.5 0.2-17.2 0.2-1.4-2.2-2.6-4.7-4.8-6.2-4.9-3.2-12.6-1.6-14.9 4zm-621.1-4c-2.8 1.4-4.1 4.3-5.5 6.9-4.3 0.1-8.6 0.1-12.9 0 0.1 10.3-0.4 20.6-0.4 30.8 5.9 6.7 12.3 13 18.9 19q1.3-1.6 2.7-3c-5.8-5.7-11.5-11.5-17-17.6 0.1-8.4-0.2-16.8 0.1-25.1q4.2 0.1 8.4 0.3c1.1 1.9 2.1 4 3.8 5.6 4.9 4.6 14.6 2.3 16.2-4.4 0.6-3.6 0.7-7.9-2.1-10.6-3.1-3.2-8.3-3.9-12.2-1.9zm412.8 39c-5.5 2.3-7.7 9.8-4.6 14.9 2.8 5.4 10.5 7.1 15.4 3.6 5.1-3.6 5.9-12 1.3-16.3-3.1-3.2-8.1-3.2-12.1-2.2zm-29.9 5.2c-7.8 1.2-14.2 8.3-14.4 16.2-0.2 4.8-0.5 10 2.1 14.2 6.4 11.5 25.8 12.2 32.4 0.6 4.8-8.5 4-20.9-3.8-27.3-4.5-3.8-10.7-4.8-16.3-3.7zm-157.9 0.7c0.1 12.5 0 25 0.1 37.5q11.5 0 23 0 0.1-3.4 0.1-6.7c-4.8-0.1-9.5-0.1-14.3-0.1 0-10.2 0-20.5 0.1-30.7q-4.5-0.2-9 0zm28.3 0.3c-0.4 12.5 0.1 25-0.1 37.5q4.4 0 8.7 0.1c0.3-12.6-0.1-25.3 0.1-38-2.9 0.1-5.9-0.4-8.7 0.4zm17.2-0.4c0.1 12.5-0.6 25-0.2 37.6 7.8-0.1 15.7 0.1 23.5 0q0-3.4 0-6.8c-4.8-0.1-9.6 0.2-14.4-0.2-0.7-10.2-0.1-20.4-0.3-30.6q-4.3-0.1-8.6 0zm23 0c4 7.9 8.5 15.5 12.6 23.2 1.3 4.7 0.4 9.6 0.7 14.4q4.3 0 8.7 0c0.3-5.9-1.3-12.4 2-17.8 3.7-6.6 7.2-13.3 11-19.8q-4.7 0-9.4 0.1c-2.7 5.4-5.3 10.8-7.6 16.3-2.3-5.6-5-11-7.7-16.4-3.5-0.1-6.9 0-10.3 0zm46.2 1.1c-12.2 6.2-13.7 25.9-2.6 34 5.8 4.4 13.8 4 20.6 2.7 2.1-0.7 5.7-1.1 5.4-4 0.2-5.8-0.1-11.5 0-17.3q-7.8-0.2-15.5-0.1 0 3.5 0.1 7.1 3.5 0 7 0 0 3.7 0.1 7.4c-4.4 0.6-9.7 1.2-12.9-2.6-5-5.8-4.6-16.8 2.7-20.6 5.2-2.6 11-0.5 16.2 0.9q0.5-3.8 0.7-7.6c-6.9-2.3-15-3-21.8 0.1zm-333.8 12.1c8.8 9.6 18.7 18.2 27.5 27.8q6.8 0.2 13.6 0c-8-8.6-16.7-16.4-24.8-25-1.3-1.3-2.6-3.1-4.7-2.9-3.8-0.2-7.7 0-11.6 0.1zm40.3 0c5.4 6.2 11.7 11.6 17.4 17.6 3.3 3.2 6.3 6.9 9.9 9.8 4.4 1.1 9.1 0.1 13.6 0.1-8.9-9.3-18.1-18.3-27.4-27.2-4.4-1.1-9-0.2-13.5-0.3zm40-0.1c9 9.4 18.4 18.5 27.5 27.9q6.7 0.1 13.5-0.1c-8.7-9.2-17.8-18.2-26.9-26.9-4.3-2.1-9.5-0.6-14.1-0.9zm20 0.1c9.1 9.2 18.2 18.4 27.5 27.5q6.7-0.2 13.5-0.1c-9.4-8.9-18.1-18.5-27.4-27.5q-6.8-0.1-13.6 0.1zm20-0.1c2.9 3.3 6.2 6.4 9.4 9.5 6.2 5.8 11.9 12 18 17.9 4.7 0.1 9.3 0.4 14 0.4-8.2-8.9-17.4-16.9-25.5-25.9-1-1-2-2.3-3.6-2.1-4.1-0.2-8.2 0.1-12.3 0.2zm20 0c8.7 8 16.5 16.7 24.8 25 1.1 0.9 2.1 2.3 3.6 2.4 4.2 0.2 8.5 0 12.7 0.1-8.8-8.8-17.6-17.6-26.4-26.3q-1-1.2-2.4-1.3c-4.1-0.2-8.2 0.1-12.3 0.1zm331.5-0.6c-9.1 9.3-18.5 18.3-27.5 27.8q6.8 0 13.7 0c8.7-9.6 18.5-18 27.1-27.7-4.5-0.2-8.9-0.2-13.3-0.1zm20 0.3c-9.1 8.7-17.5 18.1-26.6 26.9q6.7-0.1 13.5 0c8.7-9 17.7-17.7 26.2-26.8-4.4-0.1-8.8-0.1-13.1-0.1zm20 0.1c-8.8 9.2-18.3 17.7-26.8 27.1 4.3 0.2 8.8 0.7 13.2 0.1 2.6-1.7 4.3-4.3 6.5-6.4 7-6.9 13.8-13.9 20.7-20.9-4.6 0-9.1 0-13.6 0.1zm19.6 0.5c-9 8.7-17.9 17.5-26.3 26.8 3.5 0.1 7 0.2 10.5 0.1 4 0.4 6.1-3.6 8.7-5.9 6.6-7.5 14.2-13.9 20.7-21.5-4.5 0.1-9.3-1-13.6 0.5zm20.5-0.5c-9.2 8.6-17.5 18.2-26.7 26.8 4.5-0.1 9-0.1 13.6 0 9-8.8 17.6-18.1 26.8-26.9-4.6 0-9.1 0-13.7 0.1zm20.1 0.2c-2 1.3-3.5 3.2-5.1 4.9-7.2 7.7-15 14.7-22.1 22.4 4.6-0.2 9.4 0.6 13.9-0.5 8.9-9 17.9-17.9 26.7-27.1-4.5 0.2-9-0.4-13.4 0.3zm19.8-0.2c-8.9 9.3-18.3 18-27 27.4 4.4-0.1 9 0.4 13.4-0.1 1.6-1 2.9-2.5 4.2-3.8 7.4-8.1 15.4-15.7 23.1-23.6q-6.9-0.1-13.7 0.1zm20.1-0.1q-13.4 13.9-27 27.6 6.7 0.2 13.4 0c9.1-9.1 18.3-18.2 27.4-27.5q-6.9 0-13.8-0.1zm-591.8 0.3c7.6 8.1 15.5 15.8 23.5 23.6 1.5 1.5 2.8 3.3 4.8 4.1 4.4 0.6 8.7 0.2 13.1 0.2-9.5-9-18.3-18.6-27.7-27.8-4.6 0.1-9.1 0.1-13.7-0.1zm40.3 0.2c9.2 9 17.9 18.6 27.4 27.3 4.4 0.9 8.9 0.3 13.2 0.3-8.8-9.4-18.1-18.5-27.2-27.7-4.5 0.1-8.9 0.1-13.4 0.1z"/><path class="b" d="m462 102.7c13.3 0 26.7 0.1 40.1-0.3 6-0.6 11.9 0.4 17.9 0.1 11.7-0.6 23.3-0.2 35 0.1 23.3-0.1 46.6-0.1 70-0.2 5.4 0 10.9-0.6 16.3-0.1 1.1 13.9-0.1 27.8 0.5 41.7-0.1 12.7-0.6 25.4-0.2 38.1-0.4 8.6 0.8 17.2-0.1 25.9 0 34.7-0.2 69.4 0.2 104-0.4 21 0.1 42 0.3 63 0 104.4 0 208.7 0.2 313 0 32.6 0.1 65.2-0.1 97.8-6.6-0.1-13.4-1-20 0.5-4.1 0.8-8-1.1-12.1-0.9-13.3 0.3-26.7-0.2-40 0.1-8.7 0.6-17.3-0.5-26 0.2-10-0.5-20 0.6-30 0.3-83.3 0.1-166.7 0.2-250 0.3-21.7 0.2-43.3-0.3-65 0.4-17-0.8-34 0.2-51.1-0.1-6.9 0.9-14-0.4-20.9 0.3-0.3-160-0.2-319.9-0.6-479.9-0.3-11-0.1-22 0.1-33 0.1-6.6-0.8-13.3-0.4-20 0.5-8.6-0.5-17.3 0.2-25.9 0.3-5.1-0.4-10.1-0.3-15.2 0.8-13.6 0.1-27.3 0-40.9 0-22.8-0.1-45.6 0-68.4 5.6-0.3 11.3-0.4 17-0.1 16 0.3 32-0.2 48-0.1 8.3-0.9 16.7 0.3 25-0.4 82-0.1 164-0.2 246-0.3z"/><path class="b" d="m695.5 1234.6c4.9-2.5 10.6 3.8 7.7 8.4-2.2 4.1-9 3.8-10.7-0.5-1.6-2.9 0.1-6.7 3-7.9z"/><path class="b" d="m69.5 1235.5c4.3-3 10.4 2.4 8.3 7.1-1.1 3.6-6.1 5.3-9 2.7-3.4-2.4-2.8-7.9 0.7-9.8z"/><path class="b" d="m482.4 1272.3c6.2-2.3 12.7 5 10 11-1.8 6.2-11.6 7.5-14.5 1.6-2.9-4.4-0.7-11.1 4.5-12.6zm-1.7 2.4c-0.5 3.6-0.6 7.4 0.3 10.9 0.4 0.2 1.1 0.6 1.5 0.8q0.6-2.7 1.1-5.3c1.8 2.2 2.9 5.5 6.2 5.7-0.7-1.8-1.6-3.5-2.2-5.3 0.4-2.1 2.4-4.6 0.3-6.4-2.1-1.2-4.9-1.3-7.2-0.4z"/><path class="b" d="m483.2 1276.1q1.8 0.7 3.6 1.5-1.8 1.4-3.5 2.8c0-1.4 0-2.9-0.1-4.3z"/><path class="b" d="m451.3 1283.3c3.9-1.6 8.7-0.1 10.9 3.5 3.1 4.9 2.9 11.5 0.3 16.5-2.8 5.1-10.6 5.9-14.5 1.7-3.8-3.8-4.1-9.8-2.8-14.8 0.8-3.1 3-5.9 6.1-6.9z"/><path class="b" d="m125 1347.9c4.8-4.2 8.9-9.2 13.8-13.3 155.8 0.1 311.5-0.1 467.3-0.1 7.8 0.3 15.8-0.7 23.6 0.3 5.4 4.2 10.1 9.3 14.4 14.5 1.9 0 3.9-0.1 5.8-0.2-0.9 1.1-2.6 0.7-3.9 0.8-30 0.8-60 0.2-90 0.4q-108.1 0.2-216.2 0.4c-10.2 0.7-20.5 0.2-30.8 0.3-48.7 0.1-97.4 0.1-146 0.1-14.9-0.2-30.1 1-44.7-2.1h0.7c2 0.4 4.4 0.5 6-1.1z"/><path class="c" d="m280.5 35.5c104.5-0.1 209-0.4 313.5-0.5 18.9 0.3 37.9-1.8 56.6 1.3 32.6 6 61.4 28.8 75.4 58.8 7 14.9 11.1 31.3 10.8 47.8 0.1 55.4 0.2 110.7 0.2 166.1 0 12.3-0.2 24.6 0.4 37 0.1 29.6 0.1 59.3 0.2 89 0.1 5.3-0.8 10.6-0.5 16 0.9 7.6-0.4 15.3 0.5 23 0.1 127 0.2 254 0.3 381 0 6.9 0.6 14.1-2.1 20.6-3.9 11.9-12.9 22-24.4 26.9-11 5.4-23.6 3.1-35.4 3.5-13.3 0.8-26.7 0.9-40 0.1-4-0.1-8 0.4-12 0.5-78 0.1-156.1 0.3-234.1 0.4-20.6 0.1-41.3-0.3-61.9 0.5-83.7 0.2-167.3 0.4-251 0.5-12.3 0.2-24.5-5.1-32.9-14-8.5-8.7-12.7-21-12.6-33-0.2-176-0.2-352-0.6-528 0.4-10.7-0.4-21.3-0.2-32-0.1-49.7-0.2-99.3-0.2-149-0.4-19.5 2.8-39.3 11.7-56.7 16.3-34.3 52.4-59.3 90.7-59.2 39.7-0.1 79.4 0 119.1-0.1 9.5-1 19 0.3 28.5-0.5zm181.5 67.2c-82 0.2-164 0.2-246 0.3-8.3 0.7-16.7-0.5-25 0.4-16-0.1-32 0.4-48 0.1-5.7-0.3-11.4-0.2-17 0.1-0.1 22.8 0 45.6-0.1 68.4 0.2 13.6 0.9 27.3 0.1 40.9-0.1 5.1 0.6 10.1 0.3 15.2-0.7 8.6 0.3 17.3-0.2 25.9-0.4 6.7 0.5 13.4 0.4 20.1-0.2 10.9-0.4 21.9-0.1 32.9 0.4 159.9 0.3 319.9 0.5 479.9 7-0.7 14.1 0.6 21-0.3 17.1 0.3 34.1-0.7 51.1 0.1 21.7-0.7 43.3-0.2 65-0.4 83.3 0 166.7-0.2 250-0.3 10 0.3 20-0.7 30-0.3 8.7-0.7 17.3 0.4 26-0.2 13.3-0.3 26.7 0.2 40-0.1 4.1-0.2 8 1.7 12.1 0.9 6.6-1.5 13.4-0.6 20-0.5 0.2-32.6 0.1-65.2 0.1-97.8-0.2-104.3-0.2-208.6-0.2-313-0.2-21-0.7-42-0.3-63-0.4-34.6-0.2-69.3-0.2-104 0.9-8.6-0.3-17.3 0.1-25.9-0.4-12.7 0.1-25.4 0.2-38.1-0.6-13.9 0.6-27.8-0.5-41.7-5.4-0.5-10.9 0.1-16.3 0.1-23.4 0.1-46.7 0.1-70 0.2-11.7-0.3-23.3-0.7-35-0.1-6 0.3-12-0.7-17.9-0.1-13.4 0.4-26.8 0.3-40.1 0.3zm196.5 721.9c-10.8 4.5-21.5 9.1-32.3 13.5-1.5 0.6-2.8 1.4-3.9 2.5 4.8 2.8 10 4.9 15 7.3 7-5.1 12.3-12.3 19.8-16.6-4.8 7.2-11.6 12.8-17.2 19.5 1.9 3.9 3.7 8 5.4 12 0.7 1.3 1.1 2.9 2.7 3.4 1.5-0.8 1.8-2.5 2.4-3.9 4.2-11.6 9-22.9 13.4-34.4 0.5-1.4 1.3-2.9 0.9-4.5-2.2-0.9-4.3 0.5-6.2 1.2zm-292.7 13c-2.3 5.7-1.5 12.2 1.4 17.6-0.4 3.1-2.8 6.6-0.9 9.6 3.9 0.4 7.7-2.4 11.5-0.9 6.3 2.2 13.5 1.5 19-2.3 7.7-5.2 10.9-16.1 7-24.5-3.2-7.7-11.4-13.3-19.8-12.6-8.1 0-15.2 5.8-18.2 13.1zm-260.4 6.3c1.9 8.1 9.2 13.1 15 18.5 2.1 1.6 3.8 3.9 6.4 4.5 3.9-2.3 6.9-5.8 10.5-8.6 5.3-4.4 10.5-10 10.9-17.2 0.7-7.1-4.9-14.4-12.2-14.5-3.8-0.3-6.9 2-9.7 4.2-3.1-3.3-7.8-5.1-12.3-3.7-7 1.8-10.8 10.1-8.7 16.8z"/><path class="c" d="m369.6 839.8c2.4-8 12-13.3 20-10.3 8.4 2.3 13.8 12.2 10.8 20.5-2.2 6.4-8.6 11.3-15.4 11.2-2.9 0.1-5.4-1.3-8.1-2-2.3-0.1-4.4 0.8-6.6 1.2 0.4-2.6 1.8-5.5 0.3-8-1.9-3.9-2.6-8.4-1-12.6z"/><path class="c" d="m109.8 843.6c-2.1-5.3 1.1-12.4 7.2-12.8 4-0.5 6.3 3.3 8.9 5.7 2 0.1 2.8-2.2 4.2-3.3 2.5-3 7.4-3.2 10.3-0.6 2.3 1.7 3.2 4.6 3.9 7.3-1.4 10-10.5 15.7-17.5 21.9-6.5-5.1-14.1-10.2-17-18.2z"/><path class="d" d="m658.5 824.6c1.9-0.7 4-2.1 6.2-1.2 0.4 1.6-0.4 3.1-0.9 4.5-4.4 11.5-9.2 22.8-13.4 34.4-0.6 1.4-0.9 3.1-2.4 3.9-1.6-0.5-2-2.1-2.7-3.4-1.7-4-3.5-8.1-5.4-12 5.6-6.7 12.4-12.3 17.2-19.5-7.5 4.3-12.8 11.5-19.8 16.6-5-2.4-10.2-4.5-15-7.3 1.1-1.1 2.4-1.9 3.9-2.5 10.8-4.4 21.5-9 32.3-13.5z"/><path class="d" d="m365.8 837.6c3-7.3 10.1-13.1 18.2-13.1 8.4-0.7 16.6 4.9 19.8 12.6 3.9 8.4 0.7 19.3-7 24.5-5.5 3.8-12.7 4.5-18.9 2.3-3.9-1.5-7.7 1.3-11.6 0.9-1.9-3 0.5-6.5 0.9-9.6-2.9-5.4-3.7-11.9-1.4-17.6zm3.8 2.2c-1.6 4.2-0.9 8.7 1 12.6 1.5 2.5 0.1 5.4-0.3 8 2.2-0.4 4.3-1.3 6.6-1.2 2.7 0.7 5.2 2.1 8.1 2 6.8 0.1 13.2-4.8 15.4-11.2 3-8.3-2.4-18.2-10.8-20.5-8-3-17.6 2.3-20 10.3z"/><path class="d" d="m105.3 843.9c-2-6.7 1.7-15 8.7-16.8 4.5-1.4 9.2 0.4 12.3 3.7 2.8-2.2 6-4.5 9.7-4.2 7.3 0.1 12.9 7.4 12.2 14.5-0.4 7.2-5.6 12.8-10.9 17.2-3.6 2.8-6.6 6.3-10.5 8.6-2.6-0.6-4.3-2.9-6.4-4.5-5.8-5.4-13.1-10.4-15.1-18.5zm4.5-0.3c2.9 8 10.5 13.2 17 18.2 7-6.1 16.1-11.9 17.5-21.9-0.7-2.7-1.6-5.6-3.9-7.3-2.9-2.6-7.8-2.4-10.3 0.6-1.4 1.1-2.2 3.4-4.2 3.3-2.6-2.4-4.9-6.2-8.9-5.7-6.1 0.4-9.3 7.5-7.2 12.8z"/><path class="e" d="m682.4 926.7c6.9-0.8 13.8-0.2 20.7-0.3 4.9 0.1 10.1-0.7 14.6 1.7 5.3 2.5 8.6 8.2 8.7 13.9 0.3 10.7-0.1 21.3 0 32 0 5.4 0.6 11.3-2.2 16.2-2.8 5-8.7 7.5-14.2 7.3-8-0.1-16 0.3-24 0.1-5.2-0.2-10.7-2.6-13.4-7.2-2.9-4.2-2.6-9.5-2.7-14.4-0.1-11-0.3-22 0-33-0.1-7.4 5.2-14.7 12.5-16.3zm21.9 15.8c-4 4.6-2.1 13.3 4.1 14.8 2.7 0.4 6.1 1 8.1-1.5-2.8-0.5-5.8 0.2-8.5-0.7-5.6-3-4-13.9 3-13.6 5.4-1.2 9.5 8 4.2 10.2-0.2-2.4 0.5-5.1-0.6-7.3-2.3-2.1-6.6-1.2-7.4 1.8-1 2.5-0.3 6.8 2.8 7.2 2.2-0.6 4.4-0.5 6.6 0 3.7-1.3 4-6.4 2.5-9.4-2.4-5.8-11.1-6.1-14.8-1.5zm-11.8 20.7c0.3 7.8 0.1 15.6 0.2 23.4q2.1 0 4.2-0.1 0-4 0.1-8.1c2.7-0.3 5.6-0.2 8.2-1.2 5.5-2.1 5.6-11.2 0.2-13.4-4-1.8-8.6-0.9-12.9-0.6z"/><path class="e" d="m195.4 927.6c9.5-0.6 19.1-0.2 28.7-0.3 6-0.3 11.8 3.7 14.2 9.2 1.7 4.3 1.3 9 1.4 13.5-0.1 11 0.2 22-0.1 33 0 6.5-4.2 13-10.6 14.8-6.2 1.5-12.7 0.5-19 0.7-7.1-0.3-15.2 1.5-21.2-3.3-4.9-3.4-6-9.6-5.9-15.2-0.1-12.7-0.4-25.4 0-38.1 0.1-7 5.7-13 12.5-14.3zm1.8 15.1c2.6 0.1 5.7-2 7.4 1-2.4 4-7.2 6.5-7.7 11.5 3.4 0 6.8 0.2 10.2-0.4 0.1-0.5 0.5-1.5 0.7-2-2.7-0.1-5.3 0-8 0 2.4-2.6 5.6-4.6 7-7.9 1.1-3-1.8-6-4.8-5.6-1.9 0-5.8 0.6-4.8 3.4zm6.1 19.4c0.1 7.9 0.1 15.7 0 23.5q7.7 0.1 15.3 0.1 0-1.9 0-3.8-5.6-0.1-11.1 0 0-3.4 0-6.7 4.6 0.1 9.2 0.2 0-1.9 0-3.7-4.6 0-9.2 0 0-3 0-6.1 5.1 0.1 10.3 0 0-1.8 0-3.5-7.2 0-14.5 0z"/><path class="e" d="m264.4 927.7c6.8-0.9 13.7-0.3 20.6-0.4 5.5 0.1 11.6-0.9 16.6 2.1 4.8 2.6 7.4 8.1 7.5 13.5 0.2 11.7 0 23.4 0.2 35.1 0 3.9 0.2 8.1-1.5 11.7-2.3 5.4-8.1 8.8-13.8 8.6-8.4 0.1-16.7 0-25.1 0-5.2 0-10.8-2-13.6-6.6-3.5-4.8-2.8-11.1-2.9-16.7 0-11-0.3-22 0-33 0.2-6.8 5.5-12.7 12-14.3zm2.9 15.3c2.3-0.2 6.3-1.6 6.8 1.9-0.8 2-3.2 1.7-4.9 2.4 1.5 1.8 4.6 1.5 5.4 3.9-0.9 3.7-5.3 2.4-8 2.3 0.5 3.7 5.4 2.9 8 2 3.4-1.2 3.5-5.7 0.8-7.7 2-2.4 1.7-6.7-1.6-7.5-2.4-0.3-6.7-0.7-6.5 2.7zm5.1 20c-0.1 7.9-0.1 15.8-0.1 23.7q2 0 4.1 0 0.1-4.6 0-9.2 1.9 0.1 3.9 0.2 2.6 4.4 5 8.9 2.4 0 4.7 0.1c-1.7-3.4-3.4-6.8-5.5-9.9 4.2-2.1 5.7-8.2 2.3-11.7-3.9-3.5-9.7-2.3-14.4-2.1z"/><path class="e" d="m333.4 927.6c7.1-1.1 14.4-0.1 21.5-0.5 5.6 0.3 11.8-1 16.7 2.3 4.7 2.8 7.1 8.3 7.1 13.6 0.1 13 0.1 26 0.1 39 0.1 4.4-1.4 9-4.7 12-4.5 4.3-11.2 4.6-17 4.3-7.4-0.3-14.8 0.3-22.1-0.4-7.3-0.7-12.9-7.7-12.9-14.9-0.3-13.3-0.3-26.7-0.3-40-0.2-7 4.8-13.7 11.6-15.4zm7 11.8c-3.9 6.1-3.4 14.3 0.5 20.2 0.7-0.2 2-0.6 2.7-0.7-1.8-3.4-3.5-7.1-3.1-11 0.1-3.1 1.9-5.8 2.8-8.7-0.3-1.5-2.6-1-2.9 0.2zm0.4 27.2q3.5 0 7.1 0-0.3 10-0.2 20 2.2 0 4.4-0.1 0.2-9.9-0.3-19.8 3.6 0 7.2-0.1 0.1-1.9 0.2-3.7c-6.2-0.1-12.3 0-18.5 0q0 1.8 0.1 3.7z"/><path class="e" d="m402.4 927.7c4.1-1.4 8.4-0.9 12.6-1 6.3 0 12.7 0.3 19.1 0.5 8.1 0 14.7 7.8 14.5 15.8q0.1 19.5-0.1 39.1c0 7.2-5.1 14.6-12.5 15.5-10 0.8-20 0.8-30 0.2-7.7-0.3-14.2-7.1-14.2-14.8-0.3-12.6-0.1-25.3-0.2-38 0.1-3.3-0.1-6.8 1.6-9.7 2-3.6 5.4-6.3 9.3-7.6zm25.3 10.1c3.9 5.5 4.5 13.2 0.5 18.9 0.5 0.3 1.6 1 2.1 1.4 4.7-6.3 4.6-15.5-0.4-21.6-0.5 0.3-1.6 1-2.2 1.3zm-16.6 24.1c2.3 4 4.4 8.1 6.7 12.1 2.2 3.5 1.1 7.8 1.4 11.7q2.1-0.1 4.3-0.1c0.1-3.2-0.2-6.4 0.4-9.5 2.2-4.9 5.1-9.3 7.6-14q-2.3 0.1-4.5 0.1c-1.8 3.5-3.6 7-5.8 10.3-1.7-3.5-3.4-6.9-5.2-10.3q-2.4-0.2-4.9-0.3z"/><path class="e" d="m473.3 927.2c6.5-1.1 13.1-0.3 19.7-0.5 6.6 0 14.1-0.8 19.6 3.7 4.1 3.2 5.5 8.6 5.5 13.6 0.2 11 0 22 0.1 33.1-0.1 4.5 0 9.4-2.5 13.5-2.5 4.5-7.6 7.2-12.7 7.1-9 0.1-18 0.2-27.1 0.1-7.7-0.3-14.3-7.1-14.4-14.8-0.3-12.3-0.2-24.7-0.2-37 0-3.5-0.1-7.1 1.5-10.3 2.1-4.1 5.9-7.5 10.5-8.5zm22.5 26.3q5.6 0.2 11.3 0.1c-0.1-0.7-0.1-2.1-0.1-2.8q-5.6-0.1-11.3-0.1 0 1.4 0.1 2.8zm1.4 7.3c-0.2 5.7 0.5 11.5-0.4 17.2-0.8 4.7-8.7 4.6-9.4-0.1-0.6-5.7 0-11.4-0.3-17.1q-2.1 0-4.3 0c0.3 6.3-0.6 12.8 0.6 19 2.3 8 16.1 7.4 17.5-0.9 0.8-5.9 0.1-12 0.3-18q-2 0-4-0.1z"/><path class="e" d="m542.3 927.3c6.5-1.4 13.1-0.4 19.7-0.6 6 0.2 12.6-1 18.1 2.2 5 2.7 7.8 8.4 7.7 14.1 0 13-0.1 26 0 39 0.1 7.1-4.9 14.4-12.2 15.4-6.8 0.7-13.7 0.1-20.6 0.4-5.7-0.2-12.1 0.8-17.1-2.6-4.8-3-7-8.7-7.1-14.2-0.2-12.3-0.1-24.7-0.1-37-0.4-7.4 4.3-14.9 11.6-16.7zm24.5 18.1c0 0.6 0 1.7 0 2.2q3.6 0.1 7.3 0.2c0-0.6 0-1.8 0-2.4q-3.6 0-7.3 0zm-7.2 15.3c0.1 8-0.1 15.9 0 23.8q2.1 0 4.3 0-0.1-11.8-0.1-23.7-2.1-0.1-4.2-0.1z"/><path class="e" d="m610.4 927.6c4-1.5 8.4-0.9 12.6-1 6.7 0.2 13.4-0.2 20.1 0.2 7.7 0.5 14.2 7.5 14.1 15.2 0.1 13 0 26 0 39 0.2 5.8-2.5 11.7-7.6 14.7-3.8 2.3-8.4 1.9-12.6 2-7.3 0-14.7 0.1-22-0.1-5-0.1-9.8-2.9-12.3-7.2-2.6-4.4-2.3-9.6-2.4-14.4 0.1-11.7-0.2-23.4 0.2-35.1 0.2-6 4.3-11.4 9.9-13.3zm29.4 15.1q0 1.9 0.1 3.8c-1.8 0.2-4-0.2-4.4 2.1q2.1 0.2 4.2 0.4 0 2.2 0 4.4c0.7 0 2.1 0 2.8 0q-0.1-2.2-0.1-4.5 2.1 0 4.3 0c0.2-2.8-2.3-2.3-4.3-2.3q0.1-2 0.1-3.9c-0.7 0-2 0-2.7 0zm-11.5 18.8c-9.7 3-10.4 18.3-2 23.2 4.1 1.9 9.5 1.7 13-1.5 4.1-3.7 4.2-10.1 2.7-15-1.8-5.6-8.3-8.3-13.7-6.7z"/><path class="e" d="m55.4 928.6c6-1.8 12.4-0.6 18.6-0.8 6.5 0.2 13.8-1.2 19.7 2.5 4.9 3.1 7 9.1 6.9 14.7 0 13.3 0.4 26.7 0 40-0.3 7.6-7 14-14.6 13.9-8.7 0.1-17.3-0.1-26 0-7.9 0.2-15.4-6.3-15.8-14.2-0.3-11.9 0-23.8-0.2-35.7 0-5 0-10.6 3.2-14.8 2.2-2.5 5.1-4.4 8.2-5.6zm4.7 10.1q-0.2 1.8-0.5 3.5c-1.8-0.3-3.1 0.3-3.5 2.2 0.9 0.1 2.5 0.3 3.4 0.4-0.4 1.6-1.3 2.9-3 3.2-0.1 0.4-0.3 1.1-0.4 1.4 0.5 0.1 1.5 0.4 2 0.5q-0.3 2.3-0.6 4.6c3.7-0.3 1.7-6 6-5q-0.4 2.3-0.7 4.5c2.6 0.4 2.9-1.9 3.3-3.8 1.4-0.3 2.9-0.7 3.6-2.2-0.9-0.2-2.8-0.6-3.7-0.8 1.2-1.5 2.5-2.9 3.8-4.3-0.6-0.1-1.7-0.4-2.3-0.5 0.3-1.2 0.5-2.5 0.8-3.7-0.7 0-2.2 0-2.9 0-0.1 1-0.3 2.9-0.4 3.9-0.7 0-2.1-0.1-2.7-0.2 0.1-1.2 0.3-2.5 0.5-3.7-0.7 0-2 0-2.7 0zm3.6 25.9c-5.2 7-2 19.3 7.2 20.6 1.8 4.1 6.3 5 10.2 5.8q0.6-1.9 1.2-3.8c-2.5 0-5-0.7-7-2.2 2.8-1.6 6.1-3.2 7.2-6.5 1.5-4.9 1.5-10.9-2.2-14.8-4.3-4.8-12.9-4.4-16.6 0.9z"/><path class="e" d="m124.4 928.5c6.7-1.6 13.7-0.4 20.6-0.8 6.4 0.2 13.7-1.2 19.1 3.2 4.3 3.3 6 8.9 6 14.1 0.2 12.7 0.2 25.3 0.1 38 0.1 5.5-2.7 11-7.5 13.9-4.1 2.6-9.1 1.9-13.8 2-7.3-0.2-14.6 0.3-21.9-0.2-7.6-0.7-13.5-7.9-13.5-15.4-0.3-11.4-0.2-22.9-0.3-34.3 0.1-3.1-0.1-6.3 0.6-9.3 1.3-5.2 5.5-9.6 10.6-11.2zm2.2 15.1c0.3 0.6 0.9 1.7 1.2 2.3 0.7-0.5 2-1.5 2.7-2 0.2 4.1 0.1 8.1 0.1 12.2 0.7 0 2.1 0 2.8 0 0-5.4 0.1-10.8-0.1-16.1-2.3 1-4.5 2.4-6.7 3.6zm-1.6 20.3c1.5 7.9 3.6 15.8 5.8 23.6q2.2 0 4.4 0.1c1.6-4.9 3.1-9.9 4.8-14.9 1.7 4.8 2.7 9.9 4.9 14.5 1.1 0.7 2.7 0.3 4 0.5 2.8-7.7 4.2-15.8 5.9-23.8q-2.2-0.1-4.4-0.1c-1 5.9-2.1 11.8-3.5 17.7-1.9-5-3.5-10.1-4.9-15.3q-2 0.1-4 0.1c-1.2 5.1-2.6 10.2-4.6 15.1-2-5.6-2.5-11.7-3.8-17.5q-2.3 0-4.6 0z"/><path class="e" d="m61.6 944.7q1.5 0 3 0-0.4 1.5-0.8 3c-0.7 0-2 0-2.7 0q0.2-1.5 0.5-3z"/><path class="e" d="m710.5 945.6c3.2-1.3 3.2 7.3-0.4 5.4-1.5-1.3-1.3-4.5 0.4-5.4z"/><path class="e" d="m70.4 964.4c3.2-1.2 7.1 0.8 8 4.1 1 3.7 1 8.2-1.7 11.1-3.2 3.1-9.1 1.6-10.3-2.7-1.4-4.2-1-10.8 4-12.5z"/><path class="e" d="m628.5 965.6c3.1-1.8 7.6-0.7 9.1 2.8 1.6 3.9 1.5 9.3-1.8 12.4-3.6 3-9.5 0.5-10.4-3.9-0.6-3.8-0.8-9.1 3.1-11.3z"/><path class="e" d="m276.5 966.2c1.8 0.1 3.8 0 5.6 0.6 2.1 0.7 2.6 3.3 1.9 5.2-1.5 2.7-5 1.9-7.6 2.3q0-4 0.1-8.1z"/><path class="e" d="m696.8 966.5c2.3 0.1 4.9-0.5 6.9 0.8 2.2 1.6 1.7 5.4-0.8 6.6-1.9 0.7-4 0.5-6 0.7q-0.1-4.1-0.1-8.1z"/><path class="e" d="m684.4 1011.5c8.2-0.5 16.4 0 24.6-0.3 5-0.2 10.1 1.6 13.5 5.3 3.1 3.3 4 8.1 4 12.5 0.1 12 0 24 0.1 36 0.1 3.8-0.2 7.9-2.3 11.2-3 4.7-8.8 7.1-14.3 7-8 0-16 0.2-24 0.1-9.1 0.4-17-8.2-15.9-17.2q0.1-18.1 0-36.1c0.1-3.4 0.2-6.9 1.8-10 2.4-4.7 7.2-8 12.5-8.5zm3.8 45.2c2.8 3.4 4.7 7.5 7.8 10.6 4.7 0.3 9.4 0.1 14.1 0.2 1.5-0.1 3.2 0.3 4.5-0.6 0.6-6 0.1-12 0.2-18-0.1-1.2 0.1-3.4-1.8-3.3-5.6-0.3-11.4-0.4-17-0.1-3.1 3.4-5.3 7.5-7.8 11.2z"/><path class="e" d="m196.4 1012.5c5.2-0.5 10.4-0.2 15.6-0.3 5.2 0.1 10.4-0.3 15.5 0.5 5.3 0.8 9.5 5 11.2 9.9 1 3 1 6.2 1 9.4 0.1 11.3 0 22.7 0.1 34 0 3.6-0.2 7.5-2.1 10.7-2.7 4.8-8.2 7.5-13.7 7.5q-13 0.2-26.1-0.1c-6.8-0.1-13.3-5.3-14.5-12-1.1-6-0.5-12.1-0.6-18.1 0.1-9-0.3-18 0.2-27 0.2-7.3 6.2-13.6 13.4-14.5zm1.5 12c-0.1 2.8-0.1 5.5-0.2 8.3 2.5-0.1 7.4 0.1 6.5 3.9-1.7 2.8-5.2 1.2-7.8 1.2 0.2 0.6 0.6 1.7 0.8 2.3 3.8 1.7 9.7 0.5 10.1-4.3 0.1-3.7-4-5-7-5.6q0-1.7 0.1-3.4 3-0.1 6-0.1c0-0.6 0-1.8 0.1-2.4-2.9 0-5.8 0-8.6 0.1zm3.7 23.3c0 7.8-0.1 15.6-0.1 23.4 4.1 0.1 8.4 0.8 12.4-0.5 9.2-3 9.6-18.6 0.6-22.2-4.1-1.7-8.6-0.8-12.9-0.7z"/><path class="e" d="m265.4 1012.5c6.8-0.7 13.7-0.3 20.6-0.4 5.5 0.1 11.5-0.7 16.2 2.6 5.1 3.3 7.2 9.5 7 15.3-0.1 13 0.2 26 0.2 39 0.1 7.4-6.1 13.8-13.3 14.8-6.7 0.7-13.4 0.2-20.1 0.3-5.5-0.1-11.7 0.7-16.6-2.5-4.7-2.8-7-8.3-7-13.6-0.1-10.7 0-21.3-0.1-32 0-4.8-0.3-9.7 1.5-14.2 1.8-4.9 6.5-8.5 11.6-9.3zm4.7 12.3c-4.2 2.7-5.4 9.5-2.3 13.3 3.5 4 10.8 0.2 9.3-5-0.5-3.9-5.2-3.7-8.1-3.7 1.8-2.1 4.3-3.5 7-4 0-0.6 0.1-1.8 0.1-2.3-2.1 0.4-4.3 0.4-6 1.7zm4.1 21.3c0 7.9 0.2 15.9 0 23.8q2 0 4.1 0c0.1-3.5 0.2-7 0.2-10.6q4.5 0 9 0.1 0-1.8 0-3.6-4.5 0-9.1 0.1 0-3.2 0-6.3 5.1 0 10.3 0.1 0-1.8 0-3.6-7.2 0.1-14.5 0z"/><path class="e" d="m335.3 1012.4c7.2-0.6 14.5-0.1 21.7-0.3 5.1 0 10.8-0.6 15.2 2.6 4.5 2.7 6.6 8.1 6.7 13.2 0.1 10.7-0.1 21.4 0.2 32.1 0 5.3 0.6 11.1-2 16.1-2.4 4.7-7.7 7.6-13 7.7-6.7 0.2-13.4 0-20.2 0.1-4.9 0-10.2 0.4-14.6-2.3-5-2.9-7.5-9-7.3-14.6 0.2-13.4-0.4-26.7 0-40 0.2-7.3 6.1-13.8 13.3-14.6zm-1.8 10.4c0 0.6 0 1.8 0 2.4q3.5 0 7 0.1c-2.6 4.1-4.2 8.7-4.9 13.6 0.6-0.1 1.8-0.3 2.4-0.4 1.2-5.6 4-10.5 6.5-15.6-3.7-0.1-7.3-0.1-11-0.1zm6.6 29.2c-1.9 5.5-1.6 12.8 3.4 16.6 4.1 2.9 9.6 2.1 14.2 0.9 0-3.9 0-7.8 0-11.6-1.1-0.1-3.1-0.1-4.2-0.1 0.1 2.9 0.1 5.8 0.1 8.8-3 0.1-6.8 0.5-8.7-2.4-2-3.6-2.2-8.7 0.1-12.2 2.6-3.5 7.5-2.7 11.1-1.8 0.4-0.7 1.1-2 1.5-2.7-5.8-3.7-14.8-2.2-17.5 4.5z"/><path class="e" d="m404.3 1012.3c6.9-0.6 13.8-0.1 20.7-0.3 5.5 0.1 11.6-0.7 16.6 2.4 5 3 7 9.1 7 14.6 0.2 11.7 0 23.3 0.1 35 0.1 4 0.1 8.2-1.9 11.7-2.7 4.9-8.2 8.2-13.8 8.1-9 0.1-18.1 0.2-27.1-0.1-7.5-0.3-13.8-7.2-14.1-14.6-0.4-10-0.1-20-0.2-30 0.1-4.8-0.3-9.5 0.4-14.2 0.9-6.2 6.1-11.6 12.3-12.6zm26.8 16.7q1.4 1.5 3 3 0.9-1.9 1.9-3.8c-1.8-0.9-3.5-0.6-4.9 0.8zm3 11.5c1.3-1.5 2.4-3.7-0.1-4.7-3.4 0.3-1.7 3.5 0.1 4.7zm-19.3 7.8c0 7.9 0 15.9 0 23.8q2 0 4 0c0.1-3.6 0.1-7.1 0.1-10.7q5.1-0.1 10.2 0c0 3.6 0 7.1-0.2 10.7q2.1 0 4.2 0 0-11.8 0-23.6-2.1 0-4.2 0.1c0 3 0 6.1 0.2 9.1-3.4 0-6.8 0-10.1-0.1q-0.2-4.6-0.1-9.2-2.1 0-4.1-0.1z"/><path class="e" d="m472.4 1012.6c6.4-1.6 13.1-0.7 19.6-0.9 6.8 0.2 14.3-1 20.1 3.2 4.8 3.4 6.2 9.5 6.2 15.1 0 12.3 0.1 24.6 0 37 0.1 5-1.5 10.5-6 13.3-6.5 4.8-14.9 3-22.3 3.4-6.9-0.4-14.3 1.3-20.6-2-4.7-2.4-7.9-7.4-7.8-12.7q-0.1-20.5 0-41c-0.1-6.7 4.1-13.6 10.8-15.4zm25.1 13.5c0.6 1.2 1.6 2.1 2.6 3.1 0.6-1.2 2.5-3.1 0.9-4.2-1.2-1.2-2.9-0.1-3.5 1.1zm1.9 7.5c-1.6 1.7-2.1 4.5-1.4 6.8 2.5-0.9 3.5-3.7 3.8-6.1q-1.1-0.8-2.4-0.7zm-5.6 12.7c-0.1 5.3 0 10.5-0.1 15.8-0.1 1.4-0.1 3.3-1.5 4.1-2.1 1.2-4.6 0.2-6.6-0.7q-1 1.3-2 2.7c3 2.5 7.5 3.2 11.1 1.5 2.6-1.5 3.2-4.9 3.4-7.6 0.1-5.3-0.1-10.5-0.1-15.8q-2.1 0-4.2 0z"/><path class="e" d="m542.4 1012.4c6.8-1.4 13.8-0.6 20.7-0.8 6.1 0.1 12.9-0.7 18.2 3 4.7 3.2 6.7 8.9 6.6 14.4 0.1 12.7 0 25.3 0 38 0.1 4.5-1.1 9.3-4.5 12.4-3.1 2.8-7.2 4.2-11.4 4.1-8.3 0.1-16.7 0.1-25 0-5.5 0-11.3-2.5-14-7.5-2.3-3.9-2.2-8.6-2.2-13 0.1-11.7-0.1-23.3 0.1-35-0.2-7 4.6-13.9 11.5-15.6zm28.2 21.6c3.3-0.2 3.5-3.8 4.5-6.2-0.8 0-2.4-0.1-3.2-0.1-0.5 2.1-0.9 4.1-1.3 6.3zm-16.1 11.9c0 7.9 0.1 15.8 0 23.6q2.1 0 4.2 0c-0.1-3.6-0.1-7.2 0.1-10.8 3.7 3.2 6.7 7 9.4 11q2.4-0.1 4.8-0.1c-2.6-4.9-6.5-8.8-10.3-12.8 3.3-3.6 6.5-7.2 9.7-10.8q-2.6 0.1-5.1 0.3c-2.8 3.1-5.7 6.3-8.5 9.4-0.1-3.3 0-6.5-0.1-9.8q-2.1 0-4.2 0z"/><path class="e" d="m611.3 1012.5c6.8-1.7 13.8-0.7 20.6-1 5.9 0.3 12.3-1 17.7 2.1 5.4 3 7.8 9.5 7.8 15.4 0.1 11.7 0 23.3 0 35 0 3.6 0.2 7.5-1.6 10.7-2.7 5-8 8.5-13.8 8.6-8.3 0.4-16.7 0.2-25 0.2-5.7 0-11.9-2.7-14.5-8.1-2.1-4.1-2-8.9-2-13.4 0.1-12-0.2-24 0.1-36 0-6.3 4.7-11.9 10.7-13.5zm31.9 16.8q-0.9 2.7-1.6 5.4c0.7-0.1 2.1-0.3 2.8-0.4q0.8-1.4 1.7-0.4l0.2 0.5q1.6 0.1 3.3 0.3 0.4-2.8 0.8-5.6c-1.4 0.4-3 0.7-4.1 2l1.5 0.7c-0.6 0.2-1.8 0.5-2.4 0.7 0.1-0.7 0.4-2.2 0.5-3-0.7 0-2.1-0.2-2.7-0.2zm-17.4 18q0 11.8 0 23.5c5-0.1 10-0.1 14.9 0.1q0-1.9-0.1-3.8-5.2 0.1-10.4 0.1c0-6.7 0.1-13.3 0-19.9q-2.2 0-4.4 0z"/><path class="e" d="m57.4 1013.4c8.9-0.6 17.8-0.1 26.7-0.3 5.6-0.2 11.4 2.5 14.4 7.4 2.3 4.1 2.3 9 2.3 13.5-0.2 11.7 0.1 23.4-0.1 35 0 5.3-2.5 10.8-7.3 13.5-6.1 3.8-13.6 2-20.4 2.4-6-0.3-12.1 0.7-18-0.8-6.1-1.8-10.6-7.8-10.7-14.2-0.3-10.9 0-21.9-0.2-32.9 0.1-4.3-0.4-8.8 1-13 1.6-5.5 6.6-9.8 12.3-10.6zm5.3 10.2q0 2.7-0.1 5.4-1.5-1-3.1-2c-0.9 1-2.6 1.9-1.6 3.5 1 0.2 3.1 0.6 4.1 0.7q-1.6 1.8-3.1 3.6 1.1 1 2.3 2c1.1-1.3 2-2.7 3-4.1 0.8 1.3 1.1 3 2.5 3.8 0.6-0.3 1.8-1 2.5-1.4q-1.5-1.9-3-3.8c0.9-0.2 2.8-0.6 3.7-0.8 0.7-1.2-0.2-2.4-0.7-3.5q-1.8 1-3.7 2.1c0-2.3 0.3-5.2-2.8-5.5zm6.9 23.7c-3.2 7.8-6.1 15.7-9 23.5q2.2 0 4.4 0.1 1-2.9 2.1-5.7c3.1 0 6.2 0 9.2-0.1q1.1 2.8 2.3 5.6 2.1 0 4.2 0c-2.6-7.9-5.5-15.8-8.8-23.5q-2.2 0-4.4 0.1z"/><path class="e" d="m126.3 1013.3c9.2-0.4 18.5-0.5 27.7-0.4 5.4 0 11.1 2.5 13.8 7.4 2.4 4.1 2.5 9 2.5 13.7-0.1 11.7 0.2 23.3 0 35 0 6.7-4.4 13.5-11 15.2-4.7 0.9-9.5 0.5-14.3 0.6-6.4-0.1-12.9 0.6-19.3-0.4-7.1-1.4-12.5-8.1-12.4-15.3 0-13.7-0.1-27.4 0.2-41.1 0-7.2 5.8-13.6 12.8-14.7zm5.4 11.2c-3.1 3.6-6.3 7.2-7.7 11.7 2.6 0.1 5.2 0.1 7.7 0.2q0 1.9 0 3.8c0.7 0 2.1 0 2.8 0q-0.1-1.9-0.1-3.6c0.6-0.2 1.9-0.4 2.6-0.6q-1.4-1-2.6-2.1c-0.1-3.2-0.1-6.4-0.1-9.5-0.6 0-1.9 0.1-2.6 0.1zm3 23.4c-3 1.9-3.3 6.4-1.6 9.3 2.6 2.9 7.1 2.9 9.7 5.8 1.3 1.2 0.3 3.3-1.1 4-2.9 1.3-6-0.1-8.9-0.8q-0.7 1.6-1.5 3.2c3.9 2.1 8.8 2.5 12.8 0.8 4.9-2.5 4.2-10.5-0.8-12.3-2.6-1.5-7.5-1.9-7.1-5.9 2.1-3 6.2-1.4 9.1-0.7q0.6-1.7 1.2-3.4c-3.7-1.5-8.2-2.4-11.8 0z"/><path class="e" d="m127.1 1034.2c1.5-2 2.9-4 4.5-5.9q0.1 3 0.2 5.9-2.4 0-4.7 0z"/><path class="e" d="m268.9 1033.9c-0.1-3.1 3.9-2.8 5.2-0.9 0.5 1.6-0.4 3.1-0.8 4.6-2.2-0.3-4.5-1.1-4.4-3.7z"/><path class="e" d="m697.1 1047.8c5.1 0 10.1-0.1 15.2 0-0.1 5.6-0.1 11.3-0.1 17-5.1 0-10.1 0-15.2 0.1-1.9-2.9-3.8-5.7-5.9-8.5q3-4.3 6-8.6zm1.5 2.4c0.6 2.6 2.3 4.7 4.2 6.6-1.8 1.7-3.5 3.6-4.1 6.1 2.1-1.1 3.8-2.7 5.4-4.4 1.6 1.9 3 4.8 6 4.1-1.4-2.2-3-4.1-4.7-5.9 1.7-2 3.2-4 4.3-6.4-2.7 0.3-4.1 2.8-5.6 4.7-1.5-2-3-4.1-5.5-4.8z"/><path class="e" d="m205.8 1050.8c2.8 0.3 6.2-0.1 8.4 2.1 3 3.2 3.2 8.6 0.9 12.2-2.2 3-6.1 2.9-9.4 2.6 0.1-5.7 0-11.3 0-16.9z"/><path class="e" d="m68 1061.7c1.3-3.2 2.5-6.5 3.8-9.7q1.9 4.8 3.8 9.7-3.8 0-7.6 0z"/><path class="e" d="m474.5 1097.7c6.4-0.7 13-0.4 19.5-0.5 5.5 0.2 11.5-0.6 16.6 2.3 5.2 2.7 7.7 8.8 7.7 14.5 0.1 13.3 0 26.7 0.1 40 0.2 6.7-4.8 12.8-11.3 14.3-10.9 1.4-22 0.7-33 0.2-6.7-1.2-12-7.6-12-14.4-0.1-13.7-0.3-27.4-0.2-41.1-0.1-7.2 5.2-14.4 12.6-15.3zm26.7 17.2q-0.1 2.6-0.1 5.3c0.7 0 2 0 2.6 0q0-2.7 0.1-5.4c-0.7 0-2 0.1-2.6 0.1zm-17.8 15.3c0 8 0 16 0.1 24q2.1 0 4.2 0-0.2-8.6-0.1-17.1c4.3 5.3 8.3 10.9 11.3 17.1q1.9 0 3.9 0.1-0.2-11.9-0.1-23.8-2-0.2-4-0.3c-0.1 5.4 0.1 10.7 0 16-3.5-4.8-6.7-9.9-10.6-14.4-1-1.6-3.1-1.2-4.7-1.6z"/><path class="e" d="m546.4 1097.4c9-0.2 18-0.4 27 0.1 5.4 0.1 10.3 3.7 12.7 8.4 2 3.4 1.8 7.3 1.8 11.1 0 12.3 0.5 24.7 0.1 37 0 7.9-7.1 14.8-15 14.8-8.6 0.3-17.4-0.2-26-0.1-6.2 0.2-12.3-3.5-14.6-9.2-1.5-3.7-1.2-7.6-1.2-11.5 0.1-12-0.3-24 0-36.1 0.3-7.9 7.2-14.7 15.2-14.5zm23.3 19c0.9 1.8 2.7 0.4 3.9 0-0.3-0.8-1.1-2.3-1.4-3.1-1.2 0.6-3.5 1.4-2.5 3.1zm-20.5 37.4q2.2 0.1 4.3 0.1c0.2-5.7 0-11.5 1-17.1 1.9 4.4 3.7 8.9 5.6 13.3 0.5 1.3 2.4 1.8 3.2 0.4 2.2-4.3 3.8-9 6-13.4 0.7 5.5 1 11.1 1 16.7q2 0 4.1 0c-0.5-8-0.9-16-1.8-24q-2 0.1-4 0.4c-2.3 4.8-4.5 9.8-6.8 14.7-1.9-4.6-3.7-9.3-6.2-13.6-0.8-1.8-3.1-1.1-4.6-1.6-0.7 8-1.6 16.1-1.8 24.1z"/><path class="e" d="m613.4 1097.6c6.5-0.9 13.1 0 19.6-0.3 5.8 0.1 12.1-1 17.2 2.4 4.6 2.7 7.2 8 7.3 13.2 0.4 11.4 0.1 22.7 0.2 34.1-0.1 4.8 0.3 10-2.4 14.3-2.7 4.5-7.9 7.3-13.2 7.4-8.7 0.3-17.4 0-26.1 0-5.5 0.1-10.9-3.2-13.4-8.1-1.7-3.3-1.9-7-2-10.5-0.1-11.4 0-22.8-0.1-34.1 0-3.8 0.4-7.8 2.4-11.1 2.2-3.8 6.2-6.3 10.5-7.3zm20.1 13.9q-0.1 2.9-0.1 5.9c3.2 0.9 6 2.8 9 4 0.9-4.8 0.8-9.7-0.2-14.5-2.8 1.6-5.6 3.4-8.7 4.6zm10.3 1.6q0.1 1.9 0.2 3.8l0.2-1.2c1.1 1.6 2.4 3.2 3.9 4.6 0.9-3.9 0.9-8 0.1-11.9-1.7 1.3-3.2 2.9-4.4 4.7zm-13 14.1c0.2 0.7 0.3 2 0.5 2.6-2.9 1.6-7.3 3.2-6.8 7.2-0.2 3.9 3.6 5.8 6.6 7.3q0 3.1 0 6.3c-2.2-0.5-4.4-1.1-6.6-1.6 0.3 1.3-0.2 3.7 1.7 4 1.5 0.6 3.1 0.9 4.6 1.3q0.1 1.7 0.1 3.4c0.8 0 2.4 0.1 3.2 0.1q-0.1-1.6-0.1-3.2c2.9-1.6 7.1-3.5 6.6-7.5 0-4-4.1-5.8-7.2-7.1q0-3.2 0.2-6.4c1.8 0.5 3.6 1.1 5.4 1.7 0.1-0.8 0.3-2.4 0.4-3.2-1.9-0.7-3.8-1.5-5.7-2.2 0.1-0.7 0.2-2.1 0.2-2.8-0.7 0-2.3 0.1-3.1 0.1z"/><path class="e" d="m681.4 1097.6c6.1-1.3 12.4-0.5 18.6-0.7 6.3 0.2 13.1-0.9 18.9 2.3 5.3 2.8 7.8 9.1 7.8 14.9 0.1 13.3 0.1 26.6 0 39.9-0.1 7.2-6 13.4-13.1 14.3-6.8 0.7-13.7 0.2-20.6 0.3-4.7-0.1-9.6 0.6-14-1.5-5.4-2.5-8.7-8.4-8.7-14.2-0.2-13 0-26 0-38.9-0.2-7.1 4.3-14.2 11.1-16.4zm27.8 35c-0.1 4.4 0.2 8.9-0.2 13.4-2.5 2.1-6.1 0.7-9.1 0.8 0-0.8 0-2.3-0.1-3.1-3.2 1.7-6.4 3.6-9.7 5.3 3.3 1.9 6.5 3.8 9.8 5.5 0-0.9-0.1-2.7-0.2-3.6 3.1 0.2 6.2 0.6 9.3 0.2 2.5-0.3 4.3-2.7 4.3-5.1 0.2-4.5 0-9 0.1-13.4q-2.2-0.1-4.3 0z"/><path class="e" d="m196.4 1098.5c7.2-0.6 14.4-0.2 21.6-0.4 4.4 0.1 9.2-0.6 13.3 1.6 5.5 2.9 8.8 9.1 8.5 15.3 0 13.3 0.2 26.7 0 40-0.1 7.1-5.9 13.6-12.9 14.3-7.3 0.7-14.6 0.3-21.9 0.3-5.1 0-10.6 0.2-15-2.7-4.7-2.9-7-8.5-6.9-13.8-0.1-12.1-0.3-24.1-0.3-36.1 0.1-3.5 0.3-7.2 1.9-10.3 2.3-4.5 6.8-7.5 11.7-8.2zm0.8 17.2c2 2.4-1.6 4.5-0.7 7 1.3 5 10.4 4.6 10.9-0.7 0.3-1.9-1.3-3.1-2.3-4.4 2.8-1.9 2.4-6.8-1.2-7.4-3.3-1.4-8.7 1.6-6.7 5.5zm4.5 17.3c2.4 3.9 5 7.6 7.4 11.5-3 3.9-5.4 8.1-7.9 12.3q2.4-0.1 4.8 0 2.6-4.8 5.6-9.3c1.8 2.9 3.3 6 5.2 8.8 1.5 0.9 3.5 0.4 5.2 0.7-2.6-4.4-5.3-8.6-8-12.9 2.6-3.7 5-7.5 7.3-11.3q-2.2-0.1-4.4-0.1c-1.7 2.7-3.4 5.4-5.2 8.1-1.8-2.6-3.4-5.3-5.1-7.9q-2.4 0-4.9 0.1z"/><path class="e" d="m263.4 1098.6c6.4-1.6 13.1-0.7 19.6-1 6.4 0.3 13.3-0.8 19.1 2.5 4.9 2.7 7.2 8.5 7.3 13.9 0.1 12.7 0 25.3 0.1 38 0.2 5.1-1.4 10.7-5.6 13.9-3.3 2.7-7.7 3.5-11.9 3.5-8 0.1-16 0.2-24-0.1-5.2-0.1-10.2-2.8-12.9-7.3-2.6-3.8-2.5-8.6-2.5-12.9 0.2-12.1-0.1-24.1 0.2-36.1 0-6.4 4.6-12.3 10.6-14.4zm3.2 19.8c1.8 2 4.7 1.2 7.1 1.5-1.6 2.4-4.1 3.7-7 3.7 0.1 0.6 0.2 1.7 0.2 2.2 4.6 0.2 9.5-2.9 9.7-7.9 0.9-4-2.1-8.8-6.5-8.1-4.1 0.3-5.7 5.5-3.5 8.6zm10.5 14.5c-7.2 4.2-7.6 15.3-2.1 21 4.3 3.4 10.6 3 15.1 0.4q-0.8-1.5-1.5-2.9c-3.7 1.4-8.8 1.9-11.3-1.8-2.3-3.7-2.2-9.2 0.8-12.5 2.7-2.7 6.9-1.9 10.1-0.6q0.8-1.8 1.6-3.6c-4-1.6-8.8-2.5-12.7 0z"/><path class="e" d="m333.4 1098.5c10.1-1.3 20.4-0.6 30.6-0.7 8.2-0.3 14.9 7.3 15.1 15.2 0.3 12.3 0 24.7 0.2 37 0 4.7-0.4 9.9-3.6 13.6-3 3.8-7.9 5.8-12.7 5.7-8.3 0-16.7 0.1-25-0.2-5.6 0-11.4-3-13.9-8.1-2.1-4-1.9-8.7-1.9-13 0.2-11.7-0.1-23.4 0.1-35.1 0.2-6.5 4.6-12.9 11.1-14.4zm3.8 12.3c0.8 2.6 4.6 0.7 6.7 1.7-1.5 2.8-3.4 5.4-4.7 8.3 3.6-0.3 5.4-4.2 7.2-6.8 0.6-4.9-6.4-6-9.2-3.2zm2.5 11.4q-0.1 1.6-0.2 3.3 1.7 0 3.4 0 0.1-1.6 0.1-3.2-1.7-0.1-3.3-0.1zm-1.6 9.6c2.7 8 5.5 16 8.9 23.7q2 0 3.9 0.1c3.4-7.8 6.4-15.7 9-23.8-1 0-3.2 0-4.3 0-2.2 6-3.9 12.3-6.4 18.3-2.6-5.7-4.3-11.9-6.5-17.8q-2.3-0.3-4.6-0.5z"/><path class="e" d="m402.3 1098.5c3.8-1.3 7.8-0.9 11.8-1 6.9 0.1 13.9-0.3 20.9 0.2 7.6 0.6 13.9 7.7 13.7 15.2 0.1 13.4 0.2 26.8 0.1 40.2 0.4 8.1-6.6 15.9-14.8 15.7-8.7 0.2-17.4 0.5-26 0.4-8.7 0.2-16.5-7.4-15.8-16.2-0.1-13 0.1-26 0-39-0.2-6.5 3.9-13.3 10.1-15.5zm31.5 12.6c0 3.5 0.1 6.9 0.4 10.4 0.6 0 1.8-0.1 2.4-0.1 0-3.4 0.2-6.8 0.2-10.2-0.7 0-2.2 0-3-0.1zm0 12.3q-0.1 1.8-0.2 3.5c1.1-0.2 3.4 0.8 3.4-1 1-2.2-1.6-2.6-3.2-2.5zm-16.5 10.3c-0.1 7.8 0 15.6 0 23.4 4.6 0.1 9.6 1.1 14-1 4.8-2.1 4.3-9.8-0.3-11.8 3.9-1.9 3.1-8-0.6-9.8-4-2-8.8-0.9-13.1-0.8z"/><path class="e" d="m56.3 1099.2c6.5-0.9 13.2-0.3 19.7-0.5 5.9 0.2 12.4-0.8 17.6 2.6 5.1 3 7.2 9.1 7.1 14.7 0.1 13 0.3 26 0 39 0 7.9-6.8 14.9-14.7 15.2-8 0.2-16-0.1-24 0.1-5.1 0.2-10.4-1.6-13.8-5.5-3.3-3.8-3.9-9-3.9-13.9 0.1-11.9 0-23.9 0-35.9-0.2-7.2 5-14.2 12-15.8zm15.7 32.4c0.1 6.4-0.5 12.9 0.2 19.2 0.4 2.6 3.3 3 5.3 3.4 0-1.7-0.8-3.1-2-4.2-0.3-6.4 0-12.7 0-19.1-0.9 0.2-2.7 0.5-3.5 0.7zm7.9 2.2c0.1 5.7-0.1 11.4 0.5 17 0.9 3.8 5.3 3 8.3 2.9 0.1-0.7 0.2-2.3 0.3-3.1-1.7 0.1-3.5 0.1-5.3 0.1q-0.2-4.9 0-9.7 2.5 0.1 5.1 0.2c-0.1-0.8-0.1-2.3-0.2-3q-2.5-0.1-5-0.1 0-2.4 0-4.8-1.9 0.2-3.7 0.5zm-22.6 4.5c0 0.7-0.1 2.2-0.2 3 2.4-0.3 4.9-0.6 7.3 0.1q0.1 1.4 0.1 2.8c-2.2 0.2-4.4 0-6.5 0.8-3.3 1.4-3.2 6.8 0 8.3 3 1.3 6.5 0.6 9.7 0.1 0.4-4 0.4-8.1 0-12.1-1.5-4.5-6.8-3-10.4-3z"/><path class="e" d="m124.4 1099.6c4.4-1.4 9.1-0.9 13.6-1 6.3 0.2 12.7-0.3 19 0.2 6.8 0.6 12.3 6.6 13.1 13.2 0.7 14 0.5 28.1 0.4 42.1-0.1 6.6-4.3 13.5-10.9 15.3-6.4 1.2-13.1 0.5-19.6 0.8-6.7-0.2-14.2 0.9-20-3.1-4.7-3-6.6-8.8-6.6-14.1q-0.1-19 0.1-38c-0.1-6.8 4.4-13.3 10.9-15.4zm1.1 11.6c0 0.6 0 1.7 0.1 2.3q3.5 0 7.1 0c-2.5 4.1-4.3 8.6-5.2 13.3 0.7 0 2.2 0.1 2.9 0.1 0.9-5.6 3.7-10.5 6-15.6-3.7-0.1-7.3 0-10.9-0.1zm7 21.7q-0.1 1.9-0.2 3.8 5.6-0.1 11.2-0.1c-3.6 5.1-7.5 9.9-10.6 15.2-1.1 1.5-1.2 3.3-1.3 5 5.9 0 11.8 0 17.7-0.1 0-0.9-0.1-2.7-0.1-3.5-4.1-0.1-8.2-0.1-12.3-0.1 3.2-5.5 7-10.6 10.8-15.6 1.1-1.3 0.7-3.1 1.1-4.6-5.5 0-10.9-0.1-16.3 0z"/><path class="e" d="m199.8 1112.7c1.2 0 2.6-0.8 3.7-0.1 0.6 0.8 0.9 1.8 1.3 2.7-1.5 0.7-3.2 1.2-5 1.1q0-1.9-0.1-3.7z"/><path class="e" d="m268.7 1112.5c1.4 0 3.1-0.6 4.3 0.5 0.6 1.5 0.6 3 0.8 4.6q-2.6-0.1-5.1-0.3-0.1-2.4 0-4.8z"/><path class="e" d="m200.3 1119.4c2.4-2.4 6.1 2.6 3.1 4-2.6 2.2-6.3-2.5-3.1-4z"/><path class="e" d="m627.7 1136.1q1.7-1.2 3.4-2.3 0.1 3.1 0 6.3-1.8-1.9-3.4-4z"/><path class="e" d="m421.3 1136.8c2.8 0.1 7.7-0.7 8.2 3.3-0.4 3.9-5.4 3.1-8.2 3.2q0-3.3 0-6.5z"/><path class="e" d="m633.8 1143.9c1 1 2.7 1.6 2.7 3.3 0.3 1.8-1.7 2.6-2.7 3.7q-0.1-3.5 0-7z"/><path class="e" d="m421.4 1146.4c2.4 0.1 5-0.3 7.3 0.7 2.5 1.2 2.4 5.2-0.1 6.3-2.3 0.9-4.8 0.4-7.2 0.5q0-3.8 0-7.5z"/><path class="e" d="m59.3 1149c-0.3-2.7 3.5-1.9 5.1-2.5q0 2.3 0 4.6c-1.8 0.1-5.1 0.6-5.1-2.1z"/><path class="e" d="m304.4 1183.5c53.9-0.4 107.7-0.2 161.6-0.3 7.7-0.4 15.6 4.5 17.4 12.2 0.9 5.8 0.2 11.8 0.4 17.6-0.3 5.4 0.5 10.8-0.7 16.1-1.8 7.1-9 11.8-16.1 11.7-53.3 0.1-106.7 0.1-160 0.1-6.2 0.2-12.8-2.5-15.9-8.1-3.1-5.4-2.1-11.8-2.3-17.8 0.2-6.3-0.6-12.7 0.5-19 1.4-7 8.2-11.9 15.1-12.5zm43.3 22.2q0 6 0 12 37 0.1 74.1 0-0.2-6.1-0.1-12.1-3 0-6.1 0 0 3.3 0 6.6-31 0-62 0-0.1-3.2-0.1-6.4-2.9-0.1-5.8-0.1z"/><path class="e" d="m513.5 1183.7c12.1-0.8 24.3 0.1 36.5-0.3 6.1-0.5 13 0.4 17.2 5.4 4.8 4.8 4.5 12 4.4 18.2-0.2 6.4 0.5 12.9-0.5 19.3-1.2 7.5-8.5 13.3-16.1 13.2-12.7 0.2-25.3 0.1-38 0.1-6.1 0.2-12.4-2.8-15.5-8.2-3.3-5.2-2.3-11.6-2.4-17.4 0.2-5.4-0.4-10.9 0.3-16.4 1-7.1 7.1-12.8 14.1-13.9zm4.7 22.6c-1.6 1.2-1.8 3.5-0.6 5.1 2.1 1.6 5.2 2.1 6.2 4.9-2.3 0.2-4.6 0.1-6.9 0 0 0.6-0.1 1.8-0.1 2.4 3.2 0.7 8.8 1.8 9.6-2.7 0.7-4.2-4.1-4.9-6.7-6.5 0.7-3.5 6.5 0.2 6.3-4-2.6-0.1-5.6-1-7.8 0.8zm24.1-0.8c-0.1 4.5 0 9 0 13.5 0.7-0.1 2.1-0.1 2.9-0.2-0.1-3.6-0.1-7.3 0-10.9q2.2 0.2 4.3 0.5c0.2 3.5 0.2 7 0.2 10.4 0.7 0 2.2 0 2.9 0q0-5.3-0.1-10.5c1.6-0.1 3.7-1.3 4.6 0.6 0.5 3.4 0.2 6.8 0.3 10.2q1.6-0.1 3.1-0.1c-0.1-3.7 0.5-7.5-0.5-11.1-1.4-3.5-5.7-2.8-8.6-1.9-2.9-1-6.1-0.6-9.1-0.5zm-15 0c1.4 3.4 2.5 6.9 4 10.3 0.4 1.3 1.6 2.7 1 4.2-1.9 1.1-5.1 0.7-5.1 3.7 2.3 0 5.3 0.6 6.7-1.8 3.1-5 4-11 6.3-16.4-0.8 0-2.5 0-3.4 0-0.8 3.3-1.7 6.6-2.7 9.9-1.3-3.3-2.3-6.6-3.2-9.9-0.9 0-2.7 0-3.6 0z"/><path class="e" d="m598.4 1183.6c13.5-0.5 27.1-0.3 40.6-0.2 7.8-0.2 15.9 5.3 17.1 13.3 0.8 5.8 0.3 11.6 0.4 17.3-0.1 5.6 0.8 11.5-2 16.6-3 6-9.9 9-16.5 8.9-12.3 0.1-24.7 0-37.1-0.1-5.7 0-11.5-2.9-14.4-8-3.3-5.5-2.2-12.3-2.4-18.4 0.2-5.7-0.5-11.5 0.7-17.1 1.4-6.5 7.2-11.2 13.6-12.3zm15.8 31.4c0.9 0 2.7 0.1 3.5 0.1q0 3.8 0 7.6 5.6 0 11.2 0-0.1-3.6-0.1-7.2 1.6-0.3 3.2-0.6c-2.7-5.3-5.7-10.4-8.9-15.4-3.2 5-5.9 10.3-8.9 15.5z"/><path class="e" d="m217.4 1184.4c13.2-0.1 26.4-0.4 39.7 0 7.5 0.1 14.8 5.9 15.9 13.5 0.7 6 0.2 12 0.4 18-0.2 5.5 0.7 11.4-2.2 16.3-2.9 5.4-9.1 8.4-15.1 8.3q-19.1 0.1-38.1 0.1c-8.1 0.1-16-6.5-16.5-14.7-0.5-8-0.1-15.9-0.2-23.9-0.1-4.7 1.2-9.7 4.8-13 3.1-2.7 7.1-4.3 11.3-4.6zm7.9 11.1c-3.8 1.1-4.2 6.1-3.8 9.5 0.1 3.2 3 6.4 6.4 5.5 4-1.1 4.3-6.1 3.9-9.5 0-3.2-3-6.7-6.5-5.5zm12.9 10.7c-2.7 1-2.5 4.4-2.6 6.8 0.2 2.5-0.3 5.7 1.7 7.7 2.2 2.3 6.4 0.3 6.5-2.7 0.2-3 0.2-6 0-9-0.2-2.6-3.4-4-5.6-2.8zm-6 13.6c0.8 3.5 4.9 4.3 6.5 7.2-2 0.3-4.9-0.4-5.1 2.5 4 0.2 8 0.2 12 0.2 0.7-3.4-2.6-2-4.3-2.4 0-0.4 0-1.1 0-1.5 1.9-1.2 4.1-2.2 5.3-4.2 1.5-2.3 1.1-5.2 1.1-7.8-0.5 0-1.6 0-2.2 0-0.2 2.8 0.2 6.3-2.4 8.2-2.1 2-5.5 1.2-7.3-0.8-2-2-1.5-5-1.9-7.5-2.9 0.5-2.2 4-1.7 6.1z"/><path class="e" d="m128.3 1185.3c12.8-1.5 25.8-0.1 38.7-0.6 6.1-0.5 12.8 1.5 16.5 6.8 4.7 6.2 3 14.3 3.3 21.5-0.3 6.8 1.2 14.2-2.5 20.3-3 5.4-9.3 8.1-15.3 7.9-12.3 0-24.7 0.1-37 0-6.9 0.1-14-4.1-16.2-10.9-1.8-5.6-1-11.5-1.2-17.3 0.2-5.5-0.6-11.2 0.9-16.6 1.7-5.7 6.9-10 12.8-11.1zm9.9 32.7c0.8 0 2.5 0.2 3.3 0.2q0 3.7 0.1 7.4 5.8-0.1 11.7-0.1c-0.1-2.4-0.2-4.8 0-7.2 0.7-0.2 2.2-0.6 2.9-0.8-3.1-5-5.9-10.3-9.2-15.2-2.9 5.2-6.2 10.2-8.8 15.7z"/><path class="e" d="m225.8 1208.4c-2.2-3.3-2.6-9 1.2-11.3 1.5 2 2.6 4.4 2.2 6.9-0.2 1.9-0.7 5.1-3.4 4.4z"/></svg>