<svg version="1.2" xmlns="http://www.w3.org/2000/svg" viewBox="0 0 831 922" width="831" height="922"><style>.a{fill:#4b4c46}.b{fill:#393a35}.c{fill:#0d0d0c}.d{fill:#242422}.e{fill:#d6b25a}.f{fill:#a18541}</style><path class="a" d="m110.4 27.9c1.1-1.1 2.6-1 3.9-0.8 5.5 1.4 11.1 0.8 16.6 0.9 5.9-0.1 11.9 0.5 17.8-0.8 16.1-0.5 32.2 0 48.3-0.2v0.9c-7.2 0.1-14.4-1.2-21.5 0.6 2.5 0.3 5 0.5 7.5 0.5 15.7-0.1 31.3 0 47 0 2.2 0 4.4-0.4 6.6-0.9 19.1-0.4 38.3 0.1 57.4-0.1v0.9c-4.5-0.2-9.1-0.4-13.5 0.3 1.8 0.5 3.6 0.9 5.5 0.8 12.4-0.1 24.7 0 37 0 2.6 0 5.1-0.4 7.6-0.9 19.6-0.3 39.3 0 58.9 0l-0.9 1c-4.6 0.3-9.2 0.2-13.8 0.4 19.8 0.3 39.5 0 59.3 0.2 3.1 0 6.2-0.3 9.3-0.6 17.9-0.2 35.7 0 53.6-0.1v0.9c-5.8 0-11.8-1-17.5 0.7 5.8 0.7 11.7 0.3 17.5 0.4 11.7 0 23.4-0.1 35 0 2.9 0.1 5.8-0.3 8.6-0.8 2.3-0.2 5-0.8 7 0.7 2 0.1 4.2-0.3 6 0.8 1.3 0.2 2.7 0.4 4 0.9q1.5 0.6 3 1.2c0.5 0.1 1.4 0.2 1.9 0.3 1.3 0.8 2.7 1.6 4.1 2.2 0.5 0.2 1.5 0.7 2 0.9 1.7 1 3.3 2.1 5 3.1q1.9 1.7 3.8 3.4c1.9 0.7 3.2 2 3.9 3.9 1.4 1.5 3.1 2.9 4 4.9 1 2.1 2.4 4 3.7 5.9 0 0.6 0.1 1.6 0.1 2.1q0.9 1.5 1.8 2.9c0.1 0.5 0.2 1.5 0.3 2 0.8 1.2 0.8 2.7 1.1 4 0.9 1.5 0.7 3.3 0.9 5 1.8 3.4 0.4 7.4 0.9 11 0.2 0.4 0.6 1.3 0.9 1.7 0.1 11.1-0.1 22.3 0 33.4 0 91.2 0 182.4 0 273.5q0 6.5 0 13c42.7-0.1 85.4 0.1 128.1-0.1 16.6 0.2 33.2 0 49.9 0.1 3.4 0.1 6.8 0.1 10.2-0.7l0.8-0.2c0 0.3 0 1.1 0 1.5 0.6 0.3 1.9 0.9 2.6 1.3 0.5 0 1.5 0.1 2 0.2 4 2.5 8.3 5.1 10.8 9.4 1.3 1.8 2.4 3.9 3.5 6 0 0.5 0.2 1.4 0.3 1.9 1.3 1.7 0.7 4 0.9 6 0.3 0.4 0.7 1.2 0.9 1.7 0.1 85.3-0.1 170.6 0 255.9-15.2-6.2-31.9-6.1-48-6q-339.5 0-679 0c-11.5-0.1-23 0-34.5 1.3-6.1 0.9-11.9 2.7-17.8 4.2-0.7-12 0.4-24-0.6-36-0.3-14.5 0-29-0.1-43.5h0.9c-0.1 9.2-0.7 18.4 0.3 27.6 0.5-1.8 0.9-3.7 0.8-5.6 0-18.6-0.1-37.3 0-56 0-2.5-0.4-5.1-0.9-7.6-0.3-17.6-0.1-35.3 0-52.9l1 0.9c0.5 6.3 0.1 12.5 0.4 18.8 0.3-21.1 0-42.1 0.2-63.2 0-2.8-0.3-5.6-0.6-8.4q-0.2-23.6 0-47.1l1 0.9c0.5 6.6 0.1 13.2 0.4 19.7 0.5-8.3-0.1-16.7 0.1-25.1 0.2-13.7-0.1-27.4 0.1-41 0-3.2-0.3-6.3-0.6-9.5-0.2-15.3-0.1-30.6 0-46l1 0.9c0.3 4.6 0.2 9.2 0.4 13.8 0.3-17.8 0-35.5 0.2-53.2 0.1-3.8-0.2-7.6-0.6-11.4-0.2-15.7-0.1-31.4 0-47.1l1 0.9c0.4 5.3 0.1 10.5 0.4 15.8 0.3-20.4 0-40.8 0.2-61.2 0.1-3.8-0.2-7.7-0.6-11.5-0.3-11.5 0-23-0.1-34.5h0.9c-0.2 4.2-0.4 8.4 0.2 12.6 1.4-3.7 0.8-7.7 0.9-11.6 0-6-0.2-12 0.1-18 0.2-4.9 2.5-9.6 1.1-14.5v-0.1c0.8-1.6 0.9-3.4 1.4-5q0.6-1.4 1-3 0.5-1.5 1.2-3c0.1-0.5 0.2-1.4 0.3-1.9 0.3-0.5 0.9-1.6 1.2-2.1 1-2 1.9-4.1 3-6.1q1.1-1.9 1.9-3.9c1.3-2.4 2.9-4.7 4.5-6.9 0.8-1.5 1.9-2.8 3-4 2-3.5 5.4-5.8 8-8.8 2.3-2 4.1-4.6 6.8-6 1.2-1.1 2.5-2.2 4-3q1.5-1 3-2.1 1.8-1.3 3.9-2.3c1.7-1 3.3-2.1 5-3.1 0.5-0.3 1.6-0.8 2.1-1.1 0.5 0 1.5-0.1 2-0.2q1.5-0.9 2.9-1.8c0.5-0.1 1.5-0.2 2-0.3q1.5-0.7 3-1.2 1.5-0.4 3-1c1.3-0.5 2.7-0.7 4-0.9 1.2-0.7 2.7-0.7 4-1 1.8-1.1 4-0.7 6-0.8zm-54.5 69c-2.7 3-4.7 6.9-4.9 11-0.1 28.8 0 57.4 0 86.2 0.4 6 2.6 12.5 7.9 16.1 4.6 3.4 10.7 2.9 16.1 2.7 1.8 0.1 3.1-1.2 4.4-2.2l-1.8 0.1c2.7-2.5 5.5-5 7.3-8.3 0.1-0.5 0.2-1.5 0.3-2 0.9-1.6 0.6-3.6 1.7-5.1 0.3-27.2 0-54.3 0.1-81.5l0.4-0.2c-0.4-5.2-0.4-11-4-15.1-6.5-8.3-20-8.7-27.5-1.7z"/><path class="b" d="m114.3 27.1c11.5-0.3 22.9-0.3 34.4 0.1-5.9 1.3-11.9 0.7-17.8 0.8-5.5-0.1-11.1 0.5-16.6-0.9z"/><path class="b" d="m175.5 28.5c7.1-1.8 14.3-0.6 21.5-0.6 13.2 0.2 26.4-0.2 39.6 0.2-2.2 0.5-4.4 0.9-6.6 0.9-15.7 0-31.3-0.1-47 0-2.5 0-5-0.2-7.5-0.5z"/><path class="b" d="m280.5 29.2c4.4-0.7 9-0.5 13.5-0.3 12.2 0.2 24.4-0.2 36.6 0.2-2.5 0.5-5 0.9-7.6 0.9-12.3 0-24.6-0.1-37 0-1.9 0.1-3.7-0.3-5.5-0.8z"/><path class="b" d="m479.5 31.6c5.7-1.7 11.7-0.7 17.5-0.7 14.5 0.2 29.1-0.3 43.6 0.3-2.8 0.5-5.7 0.9-8.6 0.8-11.6-0.1-23.3 0-35 0-5.8-0.1-11.7 0.3-17.5-0.4z"/><path class="b" d="m55.9 96.9c7.5-7 21-6.6 27.5 1.7 3.6 4.1 3.6 9.9 4 15.1l-0.4 0.2c-0.4 0.2-1.2 0.6-1.6 0.8q-1.4 0.3-2.8 0.4c-4.4 1.7-8 5-9.4 9.5q-0.5 1.6-1.2 3.1c-0.2-0.4-0.7-1.4-0.9-1.9-0.3 4.9-0.5 10 0.9 14.8 0.1 12.9 0.1 25.9 0 38.8-1.5 4.6-1.5 9.5 0 14.2 0.1 3.2 0 6.5 0.2 9.7 0.9 3 1.5 6 2.9 8.8q1.2-0.6 2.5-1.3l1.8-0.1c-1.3 1-2.6 2.4-4.4 2.2-5.4 0.2-11.5 0.7-16.1-2.7-5.3-3.6-7.5-10.1-7.9-16.1 0-28.8-0.1-57.4 0-86.2 0.3-4.1 2.2-8 4.9-11z"/><path class="b" d="m33.3 97.5c1.3 4.9-1 9.6-1.2 14.5-0.3 6-0.1 12-0.1 18-0.1 3.9 0.5 7.9-0.9 11.6-0.6-4.2-0.4-8.4-0.2-12.6 0.2-7.5-0.2-15 0.3-22.4 1.1-1.9 0.5-4.3 1.6-6.2 0.1-0.7 0.3-2.1 0.5-2.9z"/><path class="b" d="m595 121.5c2.2 1.9 2.9 4.8 4.6 6.9 3 4 5.8 8.1 8.7 12.2 2.7 2.7 4.6 6.1 7.5 8.7 4 3.6 6.8 8.3 10.9 12 2.6 4.2 6.9 7 9.6 11.2 2.7 3.6 6.6 6.2 9 10 3.4 4.2 7.9 7.5 11.1 12 2.2 3.1 5.4 5.3 7.6 8.5 2 3 5 5 7 8 1.7 2.8 4.8 4.6 6.3 7.6 1.7 1.9 3.7 3.7 5 5.9 2.8 3.1 4.5 7 7.4 9.9 1.3 2 2.5 4 3.6 6.1 5.9 8.7 10.9 18 16.5 26.9 1.6 3.2 4.1 5.8 5.5 9.1 2 2.8 3.6 6 5.5 8.9 4.3 7 8.8 13.9 12.9 21 1.3 2 2.6 4 3.6 6.1 6.8 9.9 12.1 20.6 19 30.4 6.4 11.3 13.7 22.1 19.6 33.7q0.1 1.4 0.3 2.9c0.8 1.1 0.8 2.6 1.1 3.9 0.7 1.6 0.7 3.3 0.9 5 0.6 1.3 0.8 2.7 1.1 4.1 0.6 1.2 0.7 2.6 1 4q0.5 1.5 1.1 3 0.4 1.5 0.9 2.9c0.7 1.6 0.7 3.2 0.9 4.9-3.4 0.8-6.8 0.8-10.2 0.7-16.7-0.1-33.3 0.1-49.9-0.1q-0.1-6.4-0.1-12.9c-5 0-10 0-14.9 0q4.1-2.5 7.9-5.4c0-5.1 0-10.3 0-15.5-2.8-1.9-5.7-4-9.1-4.9-3.3-0.5-6.6-0.2-9.9-0.2-0.6 0-1.7 0-2.3 0q1.1-1.2 2.2-2.3c0.1-0.6 0.1-1.8 0.1-2.4-0.3-0.2-1.1-0.4-1.5-0.5q-1.6-1.1-3.2-2.2c0.6-0.5 1.8-1.5 2.4-2q1.1-1 2.3-1.9c0-0.6 0-1.8 0-2.4-0.4-0.2-1.1-0.6-1.5-0.8-1.2-0.9-2.1-2-2.9-3.2q2.9-1.9 5.7-3.8-0.8-0.6-1.5-1.1-1.9-1.6-3.8-3c1.5-1.5 3-3 4.5-4.5 0.1-0.2 0.4-0.5 0.6-0.6-1.9-1.5-3.9-2.9-5.8-4.4 1.9-1.1 3.7-2.4 5.1-4 0.2-0.2 0.5-0.5 0.6-0.7-1.7-1.4-3.6-2.7-5.6-3.7 1.8-1.8 3.8-3.4 5.9-5-0.5-0.4-1.6-1.1-2.1-1.4-0.6-0.2-1.9-0.6-2.6-0.8q-0.7-1.3-1.4-2.7l-0.1-0.6v-1c-0.2-4.3-0.1-8.7 0-13-2.3-0.8-4.7-1.2-7.1-1.1-20 0.3-39.9-0.1-59.9 0.2-0.1 4.9 0.2 9.8-0.9 14.6-1.3 1.2-4 1.8-4.1 3.8 1.4 1.5 4.1 2.2 4.4 4.6-1 1.4-2.7 1.7-4.2 2.3q-0.7 1.2-1.3 2.3c1.7 0.9 3.5 1.9 5.4 2.5-0.6 1.5-1.5 2.8-2.9 3.8q-1.4 0.7-2.9 1.5 2.9 1.9 5.8 3.8c-0.6 1.4-1.8 2.3-2.9 3.3-1 0.5-2 1.1-3 1.7q2.8 2.1 5.8 4.1-0.8 1.2-1.7 2.5c-1 0.8-4.7 0.7-3.3 2.5 1.1 1.5 3 2.1 4.6 2.7 0 0.8-0.2 2.4-0.2 3.2q-2.3 0.9-4.5 1.9c1.2 1.7 2.8 3.2 4.8 3.9-0.1 0.9-0.3 2.8-0.4 3.8-4.9 0.3-9.8-0.3-14.6 0.4-3.1 1.3-6 3.3-9 4.7 0 5.2 0 10.4 0 15.5 2.7 1.6 5.3 3.3 7.6 5.5q-6.3 0-12.6 0c0-91.1 0-182.3 0-273.4z"/><path class="b" d="m26.1 569.4c0.5 2.5 0.9 5.1 0.9 7.6-0.1 18.7 0 37.4 0 56 0.1 1.9-0.3 3.8-0.8 5.6-1-9.2-0.4-18.4-0.3-27.6 0.2-13.9-0.2-27.7 0.2-41.6z"/><path class="c" d="m374.8 30.5c4.6-0.2 9.2-0.1 13.8-0.4 18.2-0.1 36.5 0 54.8 0-3.1 0.3-6.2 0.6-9.3 0.6-19.8-0.2-39.5 0.1-59.3-0.2z"/><path class="c" d="m30.1 163.5c0.4 3.8 0.7 7.7 0.6 11.5-0.2 20.4 0.1 40.8-0.2 61.2-0.3-5.3 0-10.5-0.4-15.8-0.1-19 0-37.9 0-56.9z"/><path class="c" d="m29.1 266.6c0.4 3.8 0.7 7.6 0.6 11.4-0.2 17.7 0.1 35.4-0.2 53.2-0.2-4.6-0.1-9.2-0.4-13.8-0.1-16.9 0.1-33.9 0-50.8z"/><path class="c" d="m28.1 362.5c0.3 3.2 0.6 6.3 0.6 9.5-0.2 13.6 0.1 27.3-0.1 41-0.2 8.4 0.4 16.8-0.1 25.1-0.3-6.5 0.1-13.1-0.4-19.7 0-18.6 0-37.3 0-55.9z"/><path class="c" d="m27.1 464.6c0.3 2.8 0.6 5.6 0.6 8.4-0.2 21.1 0.1 42.1-0.2 63.2-0.3-6.3 0.1-12.5-0.4-18.8-0.1-17.6 0-35.2 0-52.8z"/><path class="c" d="m473.1 729.1c27.9-0.2 55.9-0.1 83.8 0q0.2 5.4 0 10.9c-27.9 0-55.9 0.1-83.8-0.1q-0.2-5.4 0-10.8z"/><path class="c" d="m285.3 757.3c7-7.4 18.4-8.1 27.7-5.2 4.3 1.2 6.3 5.7 10 7.9 3.8-3.9 8.2-8.2 14-8.9 6.4-0.3 13.4-1 18.9 3 7.2 4.1 9.8 13 10.2 20.9-0.2 10.9 0 21.9-0.2 32.9q-6.4 0.3-12.8 0c-0.2-10.6 0-21.3-0.1-31.9 0.1-3.8-1.4-7.5-3.4-10.6-5.9-6.5-18.9-3.3-20.4 5.7-0.9 12.2 1.2 24.7-1.5 36.8q-5.8 0.2-11.6 0c-0.2-11.3 0-22.6-0.1-33.9 0.2-8.5-10.3-15.1-17.7-10.7-5 2-7.4 7.6-7.3 12.7 0 10.7 0.1 21.3-0.1 31.9q-5.9 0.2-11.8 0c-0.2-11.6 0-23.2-0.2-34.9-0.2-5.8 2.8-11.3 6.4-15.7z"/><path class="c" d="m393.1 752.1q6.4-0.3 12.8 0c0.2 10.6 0.1 21.3 0.1 31.9-0.2 6.1 4.6 12.5 11 12.9 3.6 0.2 7.4 0.6 10.7-1.2 4.6-1.9 6.4-7.2 7.2-11.7 0.3-10.7-0.1-21.3 0.2-32q6.3-0.1 12.6 0c-0.6 3.7-1 7.4 0 11.1 1.1 4-0.8 7.9-0.8 11.9-0.2 6.4 1.3 13.2-1.9 19-3.3 8.5-11.9 14.4-21 15-8.8 0.7-18.7-1.3-24.8-8.3-4.7-6.2-6-14.1-6.2-21.7 0.1-9-0.1-18 0-26.9z"/><path class="c" d="m473.1 752c15.3 0 30.6 0 45.9 0.1 0 2.6 0.2 5.2-0.2 7.8-1.2 2.6-3.3 4.7-5.1 6.8-4.8 5.2-8.9 11.1-13.5 16.4-4.1 4.3-7.9 8.9-11.2 13.9 10.3 0.1 20.6-0.1 31 0.1q0.1 5.4-0.1 10.9c-15.9 0-31.9 0.1-47.9-0.1 0.1-4-1.1-8.7 2.1-11.8q10.7-12.3 20.8-25.3c2.3-3 5.9-5.1 7.4-8.7-9.8-0.3-19.5 0.1-29.2-0.2q-0.2-4.9-0.1-9.9z"/><path class="c" d="m545 752.1c4.2-0.2 8.4-0.1 12.5-0.1-0.9 3.7 0.2 7.4-0.2 11.1-0.5 15 0 29.9-0.4 44.8q-5.9 0.2-11.8 0-0.2-27.9-0.1-55.8z"/><path class="c" d="m23.1 785.4c1.4 6 1.4 12.3 0 18.3-0.3-6.1-0.2-12.2 0-18.3z"/><path class="c" d="m643.4 887.3c4.5-0.5 9.1-0.3 13.6-0.3 14.7 0 29.4 0 44 0 5.6 0 11.3-0.5 16.7 0.9-16.2 0.4-32.4 0-48.7 0.2-5.3 0.2-10.7 0.2-16.1 0.2-3.2 0-6.5 0.3-9.5-1z"/><path class="c" d="m288.3 888.9c4.1-1.2 8.3-1.3 12.4 0q-6.2 0.4-12.4 0z"/><path class="d" d="m71.1 125.8c0.3 0.5 0.7 1.5 0.9 1.9 0.2 4.3 0 8.6 0 12.9-1.4-4.8-1.2-9.9-0.9-14.8z"/><path class="d" d="m72 193.6c-1.5-4.7-1.5-9.6 0-14.2q0.1 7.1 0 14.2z"/><path class="d" d="m25.1 654.5c1 12-0.1 24 0.6 36 5.9-1.5 11.8-3.3 17.8-4.2 11.5-1.3 23-1.4 34.5-1.3q339.5 0 679 0c16.1-0.1 32.8-0.2 48 6 0.1 35.3 0 70.6 0 106-0.2 3.8 0.7 7.9-0.8 11.6-0.2 1.9 0 4.1-1 5.9-0.2 1.7-0.3 3.4-0.9 5-2 6.1-3.8 12.3-7 17.9-1.3 2.4-2.3 4.9-4 7.1-6.9 11.5-16.6 21.5-27.9 28.8-1.5 1.2-3.2 2.1-4.9 3-3 2.2-6.5 3.9-10 5-2.5 1.3-5.3 2.2-8 3q-1.5 0.5-3 1c-1.3 0.4-2.6 0.7-3.9 1-2 0.7-4.1 0.7-6.1 0.9-3 1.3-6.5 0.9-9.8 0.7-5.4-1.4-11.1-0.9-16.7-0.9-14.6 0-29.3 0-44 0-4.5 0-9.1-0.2-13.6 0.3 3 1.3 6.3 1 9.5 1 5.4 0 10.8 0 16.1-0.2l-0.1 0.7c-118.6-0.1-237.3 0.4-355.9 0.2-4.1-0.1-8.2 0.3-12.3-0.1-4.1-1.3-8.3-1.2-12.4 0-27.4 0.4-54.8 0-82.3 0.2-0.4 0.2-1.3 0.6-1.7 0.9-0.2-0.3-0.5-0.8-0.7-1.1-0.9 1.1-2 1-3.1 0.5-1.5 0.2-3 0.5-4.5 0.5-28.8-0.2-57.6 0.1-86.4-0.2-3.2-1.6-7 0.2-10.2-1.5-3-0.2-6-1.1-8.9-1.9q-1.5-0.5-3-1c-2.7-0.9-5.5-1.7-8-3-4.2-1.4-8.3-3.5-12-6-13.5-8.3-25-20-32.8-33.8-1.8-2.4-3.2-5.1-4-8-1.3-2.5-2.1-5.3-3-8q-0.5-1.5-1-3-0.5-1.5-1-3c-0.6-1.6-0.7-3.3-0.9-5-1-1.8-0.8-4-1-6-0.9-1.8-1-3.9-0.7-5.8 1.4-6 1.4-12.3 0-18.3-0.4-15 0.2-29.9 0.2-44.8q0.9-1.7 0.7-3.6c-0.1-14 0-28-0.1-42 0.1-1.6-0.2-3.4 1.1-4.6 0-12-0.2-23.9 0.1-35.9zm448 74.6q-0.2 5.4 0 10.8c27.9 0.2 55.9 0.1 83.8 0.1q0.2-5.5 0-10.9c-27.9-0.1-55.9-0.2-83.8 0zm-187.8 28.1c-3.6 4.5-6.6 9.9-6.4 15.8 0.1 11.7 0 23.3 0.1 34.9q6 0.2 11.9 0c0.2-10.6 0.1-21.3 0.1-31.9-0.1-5.1 2.3-10.7 7.3-12.8 7.4-4.3 17.9 2.3 17.7 10.8 0.1 11.3-0.1 22.6 0.1 33.9q5.8 0.2 11.6 0c2.7-12.1 0.6-24.6 1.5-36.9 1.5-8.9 14.5-12.1 20.4-5.6 2 3.1 3.5 6.8 3.4 10.6 0.1 10.6-0.1 21.3 0.1 31.9q6.4 0.3 12.8 0c0.2-11 0-22 0.1-32.9-0.3-7.9-2.9-16.8-10.1-20.9-5.5-4-12.5-3.3-18.9-3-5.8 0.7-10.2 5-14 8.9-3.7-2.2-5.7-6.7-10-7.9-9.3-2.9-20.7-2.2-27.7 5.1zm107.7-5.1c-0.1 8.9 0.1 17.9 0 26.9 0.2 7.6 1.5 15.5 6.2 21.7 6.1 7 16 9 24.8 8.3 9.1-0.6 17.7-6.5 21-15 3.2-5.8 1.7-12.6 1.9-19 0-4 1.9-7.9 0.8-11.9-1-3.7-0.6-7.4 0-11.1q-6.3-0.1-12.6 0c-0.3 10.7 0.1 21.4-0.2 32-0.8 4.5-2.6 9.8-7.2 11.7-3.3 1.8-7.1 1.4-10.7 1.2-6.4-0.4-11.2-6.8-11-12.9 0-10.6 0.1-21.3-0.1-31.9q-6.4-0.3-12.9 0zm80-0.1q-0.1 5 0.1 9.9c9.7 0.3 19.4-0.1 29.2 0.2-1.5 3.6-5.1 5.6-7.4 8.7q-10.1 13-20.8 25.3c-3.2 3.1-2 7.8-2.1 11.8 16 0.2 32 0.1 47.9 0.1q0.2-5.5 0.1-10.9c-10.4-0.2-20.7 0-31-0.1 3.3-5 7.1-9.6 11.2-13.9 4.6-5.3 8.7-11.2 13.5-16.4 1.8-2.1 3.9-4.2 5.1-6.8 0.4-2.6 0.2-5.2 0.2-7.8-15.3-0.1-30.7-0.1-46-0.1zm72 0.1q-0.1 27.9 0.1 55.8 5.9 0.2 11.8 0c0.4-14.9-0.1-29.8 0.4-44.8 0.4-3.7-0.7-7.4 0.2-11.1-4.1 0-8.3-0.1-12.5 0.1z"/><path class="e" d="m625.1 300.1c20-0.3 39.9 0.1 59.9-0.2 2.4-0.1 4.8 0.3 7.1 1.1-0.1 4.3-0.2 8.7 0 13-7.8 0.1-15.6-0.3-23.3 0.4-9.2 1.2-18.6 0.3-27.8 0.7-5.7 0.3-11.4-0.7-17 0.8l0.2-1.2c1.1-4.8 0.8-9.7 0.9-14.6z"/><path class="e" d="m677.1 317.3c5-0.4 10.3-0.1 15-2.3l0.1 0.6q0.2 2.2 0.5 4.4c-10-0.6-19.8 2.1-29.7 2.1-5.5 0.7-11.1 0.8-16.6 1.3-7.3 1.4-14.8-0.3-22 1.4q0.2-1.9 0.5-3.8c10.8 0.2 21.4-2 32.1-2.2 6.7-1.1 13.4-0.5 20.1-1.5z"/><path class="e" d="m693.6 318.3c0.7 0.2 2 0.6 2.6 0.8-0.5 1.7-2.5 0.5-2.6-0.8z"/><path class="e" d="m667 327c8.5 0.2 16.9-1.4 25.4-1.5 2 1 3.9 2.3 5.6 3.7-0.1 0.2-0.4 0.5-0.6 0.7-7-2-14.3-0.5-21.4-0.1-11.9 1.2-23.9 1.8-35.8 2.5-6.2 1.1-12.5 0.3-18.7 1.7 1.4-1 2.3-2.3 2.9-3.8 10.9-0.1 21.7-2.4 32.6-2.2 3.4-0.1 6.7-0.9 10-1z"/><path class="e" d="m670.8 335.6c7.1-1.2 14.4 0 21.5-1.7 1.9 1.4 3.9 2.9 5.8 4.4-0.2 0.1-0.5 0.4-0.6 0.5-9.8-2.3-19.7 0.4-29.5 0.4-6 1-12.2 0.5-18.2 1.5-4.5 0.6-9 0-13.5 0.6-4.9 0.5-9.8 1.6-14.8 1.3 1.1-1 2.3-1.9 2.9-3.3l0.3-1.3c1.5 0.3 2.9 0.7 4.4 0.8 13.9-1.3 27.8-2.1 41.7-3.2z"/><path class="e" d="m676 344c5.5-0.2 10.9-1.5 16.3-1.1l0.7 0.5q1.9 1.4 3.8 3c-5 1.1-10.3 0.2-15.3 1-3.9 0.7-7.7 0.6-11.5 0.6-11.4 1.2-22.8 1.3-34.1 2.8-4.4 0.6-8.8 0.1-13.3 0.1q0.9-1.3 1.7-2.5l0.7-1.3c6.5-0.5 13 0.5 19.4-0.7 10.6-0.9 21.1-1.3 31.6-2.4z"/><path class="e" d="m653.9 354.8c12.9-1.6 25.9-2.1 38.8-3.5 0.7 1.2 1.6 2.3 2.8 3.2-5.4 2.7-11.6 0.8-17.3 1.8-5.8 1.2-11.8 0.2-17.6 1.2-4.7 0.9-9.6 0.1-14.3 0.8-5.4 0.9-10.9 0.5-16.3 1.5-2.1 0.5-4.3 0.1-6.3-0.5 0-0.8 0.2-2.4 0.2-3.2 4.8 0.1 9.6 0 14.3-0.8 5.2-0.8 10.5 0.1 15.7-0.5z"/><path class="e" d="m682 361c4.3 0.3 8.5-0.3 12.7-1.4-0.6 0.5-1.8 1.5-2.4 2q1.6 1.1 3.2 2.2c-7.4 1.1-15 1.1-22.4 2.1-4.2 0.3-8.5-0.2-12.7 0.5-6.2 1.2-12.4 0-18.6 1.3-6.1 0.4-12.1 0.4-18.2 1.2 0.1-1 0.3-2.9 0.4-3.8 3.2 0.1 6.4-0.1 9.6-0.6 6.6-1.1 13.3 0 19.8-1.2 9.6-0.3 19.1-1.4 28.6-2.3z"/><path class="e" d="m648.6 369.5c11-1.3 22.5-0.8 33 2.9 2.8 0.9 5.5 2.1 8.4 2.6 2.5-1.7 4.6-4 7-6 3.3 0 6.6-0.3 9.9 0.2 3.4 0.9 6.3 3 9.1 4.9 0 5.2 0 10.4 0 15.5q-3.8 2.9-7.9 5.4c4.9 0 9.9 0 14.9 0q0 6.5 0.1 12.9c-42.7 0.2-85.4 0-128.1 0.1q0-6.5 0-13 6.3 0 12.6 0c14.8 0 29.6 0 44.4 0v-0.9c-7.6 0.1-14.8-2.6-22.1-4.4-0.3-4.6 0.5-9.3-0.5-13.9 5.8-3.6 12.7-4.8 19.2-6.3zm27.8 23.9c-2.3 0.7-4.8 0.2-6.8 1.5 9.9 0.2 19.9 0.1 29.9 0-3.5-1.5-7.2-2.8-9.9-5.6-4.1 2.1-8.7 3-13.2 4.1z"/><path class="f" d="m641 315.1c9.3-0.4 18.6 0.5 27.8-0.7 7.7-0.7 15.5-0.3 23.3-0.4v1c-4.7 2.2-10 1.9-15 2.3-6.7 1-13.4 0.4-20.1 1.5-10.7 0.2-21.3 2.4-32.1 2.2q-0.3 1.9-0.5 3.8c7.2-1.7 14.7 0 22-1.4 5.5-0.5 11.1-0.6 16.6-1.3 9.9 0 19.7-2.7 29.7-2.1q-0.3-2.2-0.5-4.4 0.7 1.4 1.4 2.7c0.1 1.3 2.2 2.5 2.7 0.7 0.5 0.4 1.5 1.1 2 1.5-2.1 1.6-4.1 3.2-5.9 5-8.5 0.1-16.9 1.7-25.4 1.5-3.3 0.1-6.6 0.9-10 1-10.9-0.2-21.7 2.1-32.6 2.2-1.9-0.6-3.7-1.6-5.4-2.5q0.6-1.1 1.3-2.3c1.5-0.6 3.2-0.9 4.2-2.3-0.3-2.4-3-3.1-4.4-4.6 0.1-2 2.8-2.6 4.1-3.8l-0.2 1.2c5.6-1.5 11.3-0.5 17-0.8z"/><path class="f" d="m676 329.8c7.1-0.4 14.4-1.9 21.4 0.1-1.4 1.6-3.2 2.9-5.1 4-7.1 1.7-14.4 0.5-21.5 1.7-13.9 1.1-27.8 1.9-41.7 3.2-1.5-0.1-2.9-0.5-4.4-0.8l-0.3 1.3q-2.9-1.9-5.8-3.8 1.5-0.8 2.9-1.5c6.2-1.4 12.5-0.6 18.7-1.7 11.9-0.7 23.9-1.3 35.8-2.5z"/><path class="f" d="m668 339.2c9.8 0 19.7-2.7 29.5-0.3-1.5 1.5-3 3-4.5 4.5l-0.7-0.5c-5.4-0.4-10.8 0.9-16.3 1.1-10.5 1.1-21 1.5-31.6 2.4-6.4 1.2-12.9 0.2-19.4 0.7l-0.7 1.3q-3-2-5.8-4.1c1-0.6 2-1.2 3-1.7 5 0.3 9.9-0.8 14.8-1.3 4.4-0.6 9 0 13.5-0.6 6-1 12.2-0.5 18.2-1.5z"/><path class="f" d="m696.8 346.4q0.7 0.5 1.5 1.1-2.8 1.9-5.6 3.8c-12.9 1.4-25.9 1.9-38.8 3.5-5.2 0.7-10.5-0.3-15.7 0.5-4.7 0.8-9.5 0.9-14.3 0.9-1.6-0.7-3.5-1.3-4.6-2.7-1.4-1.9 2.3-1.8 3.3-2.6 4.5 0 8.9 0.5 13.3-0.1 11.4-1.5 22.7-1.6 34.1-2.8 3.8 0 7.7 0.1 11.5-0.6 5-0.8 10.3 0.1 15.3-1z"/><path class="f" d="m695.5 354.5c0.4 0.2 1.1 0.6 1.5 0.8 0 0.6 0 1.8 0 2.4q-1.2 0.9-2.3 1.9c-4.2 1.1-8.4 1.7-12.7 1.4-9.5 0.9-19 2-28.6 2.3-6.5 1.2-13.2 0.1-19.8 1.2-3.2 0.5-6.4 0.7-9.6 0.6-2-0.7-3.6-2.2-4.7-3.9q2.1-1 4.4-1.9c2 0.6 4.2 1 6.3 0.5 5.4-1 10.9-0.6 16.3-1.5 4.7-0.7 9.6 0.1 14.3-0.7 5.8-1.1 11.8-0.1 17.6-1.3 5.7-1 11.9 0.9 17.3-1.8z"/><path class="f" d="m673.1 365.9c7.4-1 15-1 22.4-2.1 0.4 0.1 1.2 0.3 1.5 0.5 0 0.6 0 1.8-0.1 2.4q-1.1 1.1-2.2 2.3c0.6 0 1.7 0 2.3 0-2.4 2-4.5 4.3-7 6-2.9-0.5-5.6-1.7-8.4-2.6-10.5-3.6-22-4.2-33-2.9-6.5 1.5-13.4 2.7-19.2 6.3 1 4.6 0.2 9.3 0.5 13.9 7.3 1.8 14.5 4.5 22.1 4.5v0.8c-14.8 0-29.6 0-44.4 0-2.3-2.2-4.9-3.9-7.6-5.5 0-5.1 0-10.3 0-15.5 3-1.4 5.9-3.4 9-4.7 4.8-0.7 9.7-0.1 14.6-0.4 6.1-0.8 12.1-0.8 18.2-1.2 6.2-1.3 12.4-0.1 18.6-1.3 4.2-0.7 8.4-0.2 12.7-0.5z"/><path class="f" d="m676.4 393.4c4.5-1.1 9.1-2 13.2-4.1 2.7 2.8 6.4 4.1 9.9 5.6-10 0.1-20 0.3-29.9 0 2-1.3 4.5-0.8 6.8-1.5z"/></svg>