<svg width="1088" height="1312pt" viewBox="0 0 816 1312" xmlns="http://www.w3.org/2000/svg"><g fill="#fff"><path d="M700.2 650.12c11.89-2.86 25.13 2.95 31.21 13.53 6.02 10.34 4.93 24.61-3.16 33.58-7.5 9.02-20.69 12.31-31.68 8.48-8.24-3.12-15.3-9.78-17.82-18.35-2.32-8.09-1.75-17.42 3.02-24.54 4.17-6.42 10.89-11.19 18.43-12.7m.28 5.56c-7.66 1.75-14.08 7.8-16.52 15.23-2.43 7.41-1.06 16.04 3.95 22.09 5.36 6.82 14.73 10.02 23.17 8.2 9.68-1.82 17.62-10.31 18.61-20.13 1.4-9.38-3.77-19.28-12.27-23.47-5.16-2.73-11.3-3.37-16.94-1.92z"/><path d="M692.32 675.31c2.06-.89 4.44-.33 6.64-.47 4.27.21 8.62-.44 12.84.45 2.53 1.51 1.68 6.98-1.72 6.54-5.39.11-10.78.08-16.16-.02-3.47.36-4.57-5.04-1.6-6.5zM719.05 682.65c-3.79-1.05-4.54-7.52-.04-7.88 4.19.25 3.59 6.74.04 7.88zM684.14 773.05c6.9-.75 13.89-.18 20.83-.4 3.4.18 7.65-.75 10.09 2.29 5.02 5.76 9.19 12.19 14.05 18.09 3.01 3.26 2.73 8.64-.21 11.85-4.59 5.74-9.07 11.57-13.65 17.32-2.36 3.25-6.72 2.9-10.27 2.99-6.72-.08-13.45.15-20.17-.15-2.99-.13-5.34-3.09-5.11-6.01-.07-13.34.05-26.69.03-40.04-.17-2.72 1.75-5.34 4.41-5.94m.35 4.53c-.6 13.12-.19 26.29-.3 39.43.15 1.17-.32 3.78 1.75 3.38 7.93.21 15.89.13 23.83-.01-4.3-5.79-8.8-11.43-13.02-17.27-.89-1.25-1.68-2.61-1.96-4.11.26-3.15 2.69-5.37 4.39-7.81 3.32-4.61 6.8-9.11 10.06-13.77-8.25-.09-16.51-.31-24.75.16m14.84 21.23c4.4 6.38 9.24 12.46 13.68 18.82 4.43-6.55 10.31-12.01 14.47-18.76-3.95-6.91-9.7-12.55-14.34-18.97-4.57 6.33-9.4 12.47-13.81 18.91zM698.36 887.43c4.3-2.45 8.66-5.24 13.7-5.78 6.87-.89 14.07 3.23 16.7 9.66 3.24 7.19 1.33 16.55-5.06 21.39-5.49 4.27-13.42 4.41-19.39 1.05-8.9-4.69-17.34-10.19-26.3-14.75 6.84-3.75 13.66-7.55 20.35-11.57m10.9 2.83c-6.59 2.68-7.48 13.24-.94 16.5 5.78 3.69 14.41-.71 14.42-7.67.69-6.87-7.51-11.76-13.48-8.83zM685.89 981.74c.43-1.46 2.4-1.98 3.57-1.06 2.73 1.66 5.05 4.6 8.52 4.59 6.52.33 13.63-1.34 19.56 2.25 4.62 2.23 7.21 6.93 8.71 11.63 4.23.83 4.35 7.84-.07 8.45-1.75 7.87-8.89 14.55-17.2 14.28-5.5.55-12-1.7-16.55 2.43-1.73 1.29-4.78 4.37-6.5 1.57-.46-4.42-.13-8.88-.09-13.3-4.51-.92-8.31-4.76-8.03-9.56-.13-4.55 3.95-7.53 7.93-8.59.13-4.24-.11-8.47.15-12.69m4.31 38.25c7.7-6.02 18.58.31 26.32-5.45 4.97-3.47 6.13-10.23 4.66-15.78-1.75-5.07-6.86-8.65-12.21-8.62-6.28-.81-13.39 1.42-18.76-2.92.12 10.92.17 21.84-.01 32.77m-7.98-15.98c.01 2.01 2.03 2.81 3.53 3.62.1-2.84.11-5.67-.02-8.49-1.96.86-4.09 2.39-3.51 4.87zM292.05 1093.98c19.19-27.9 38.19-55.93 57.63-83.66 5.02 3.82 10.33 7.21 15.5 10.83-29.19 42.89-58.81 85.49-87.99 128.39-5.11-3.99-10.65-7.38-15.81-11.29 10.64-14.47 20.2-29.69 30.67-44.27zM425.34 1018.41c2.91-4.62 9.63-6.09 14.12-2.9 4.04 3.1 6.1 7.95 9.02 12 21.61 31.8 42.61 64.02 64.12 95.9 3.54 5.16 7.04 10.37 10.39 15.67-5.41 3.39-10.66 7.02-16.01 10.51-24.33-36.62-48.74-73.19-73.28-109.66-11.07 15.91-22 31.91-32.93 47.92-9.96 15.27-20.88 29.89-30.87 45.14-3.9 5.56-7.46 11.35-11.58 16.75-5.13-3.75-10.46-7.2-15.59-10.93 11.7-16.41 22.58-33.37 34.05-49.93 16.3-23.41 32-47.24 48.56-70.47zM694.66 1084.84c9.88-3.74 22.71 1.17 26.37 11.34-1.35 1.13-3.03 2.17-4.86 1.52-1.7-1.6-2.97-3.64-4.88-4.99-3.79-2.77-8.79-3.54-13.32-2.6-8.39 1.88-14.16 11.56-11.47 19.81 2.08 7.31 9.76 12.79 17.41 11.53 4.77-.49 8.83-3.43 11.66-7.16 1.67-2.49 6.44-.2 4.94 2.71-3.56 6.57-11.09 10.61-18.49 10.7-9.95.39-19.34-7.22-21.58-16.81-2.7-10.57 3.61-22.85 14.22-26.05z"/><path d="M704.47 1108.35c-2.8-1.01-1.63-4.27.14-5.67 7.82.27 15.66-.49 23.46.15 2.57 1.2 1.79 5.86-1.23 5.61-7.45.1-14.94.31-22.37-.09zM480.79 1179.58c2.63-.03 5.26-.04 7.9-.04.07 14.63-.01 29.27.05 43.9-2.65.01-5.29.03-7.94.07-.07-14.64-.15-29.29-.01-43.93zM205.55 1182.36c2.6-.01 5.21-.01 7.82-.01 5.28 8.91 10.83 17.67 16.16 26.56.22-8.84.03-17.69.09-26.53 2.72-.04 5.45-.08 8.18-.07.01 13.71.01 27.43.04 41.14-2.73 0-5.47.01-8.2.08-5.17-9.01-10.62-17.86-15.92-26.8-.03 8.89-.01 17.78 0 26.68-2.73 0-5.45 0-8.18.03-.03-13.7.05-27.39.01-41.08zM355.7 1198.05c.64-7.01 5.34-14.07 12.49-15.65 6.04-1.34 13.47-.23 17.32 5.1 1.92 2.22 2.54 5.13 2.95 7.96-2.69.05-5.37.07-8.05.12.2-5.32-5.69-8.04-10.18-6.27-4.94 1.45-6.44 7.19-6.48 11.74-.05 4.89-.02 10.78 4.07 14.2 3.67 2.85 8.73 2.15 12.56.01.07-2.33.09-4.65.07-6.95-2.55.01-5.1.03-7.65.06-.03-2.11-.05-4.2-.05-6.28 5.24-.07 10.48-.25 15.73-.17-.13 5.34.27 10.71-.21 16.04-1.85 2.75-5.14 4.12-8.19 5.11-6.5 1.94-14.45 1.29-19.31-3.89-5.28-5.58-5.79-13.88-5.07-21.13zM395.85 1187.85c2.5-4.12 7.55-5.95 12.2-5.8 4.4-.19 9.34 1.41 11.68 5.39 2.71 4.65 1.83 10.78-1.32 15.01-3.82 5.14-8.56 9.48-12.87 14.2 5.63.09 11.26.07 16.9.08-.02 2.19-.03 4.39-.03 6.6-9.33.04-18.66.13-27.99.04.23-2.27-.6-5.02 1.2-6.81 4.77-5.51 10.49-10.18 14.94-15.99 1.88-2.56 3.57-6.07 2.08-9.19-1.55-3.18-6.29-3.82-8.78-1.36-1.66 1.38-1.58 3.73-2.08 5.67-2.63-.02-5.25-.04-7.87-.05.29-2.67.37-5.51 1.94-7.79zM442.55 1182.68c2.76-.02 5.53-.02 8.3.02-.01 8.43-.01 16.86.02 25.3.09 2.68.14 5.93 2.53 7.7 2.72 1.73 6.5 1.68 9.26.06 2.39-1.81 2.19-5.11 2.37-7.77.1-8.45.02-16.9.04-25.34 2.7-.02 5.4-.01 8.12.04-.01 8.42.05 16.85.04 25.27-.04 2.69-.01 5.52-1.24 8.01-4.92 10.33-22.27 10.96-27.74.81-1.3-2.38-1.67-5.14-1.68-7.8-.01-8.77.08-17.53-.02-26.3zM497.93 1185.13c2.6-.04 5.21-.05 7.82-.03.02 2.7.03 5.4.03 8.12 1.8.05 3.6.09 5.41.16-.01 1.96-.01 3.95 0 5.94-1.79-.05-3.58-.1-5.35-.11.15 5.36-.15 10.74.16 16.1.34 2.6 3.67 1.68 5.5 1.8.02 2.13.04 4.28.04 6.44-2.82.28-5.69.64-8.5.2-3.22-.95-4.96-4.45-5.12-7.6-.22-5.67.07-11.35.01-17.02-1.57-.02-3.14-.02-4.7-.02-.02-1.96-.03-3.9-.03-5.84 1.56-.01 3.12-.01 4.7.01 0-2.73.02-5.44.03-8.15zM244.74 1201.27c1.01-8 10.8-10.43 17.45-8.38 3.47.87 6.58 3.67 7.24 7.28 1.03 7.72-1.06 15.81 1.73 23.3-2.82.03-5.63.04-8.45-.01-.15-.71-.45-2.12-.6-2.82-3.99 4.4-11.78 4.56-15.78.1-3.42-3.87-3.16-11.04 1.62-13.72 4.23-2.38 9.27-2.04 13.95-2.31-.11-1.46-.12-2.93-.43-4.33-2.13-3.17-7.76-2.73-9.19.92-2.51.02-5.03.03-7.54-.03m7.57 11.07c-2.14 3.48 3.18 7.02 6.23 5.03 3.53-1.06 3.43-4.94 3.4-7.92-3.29.21-7.69-.55-9.63 2.89zM283.83 1196.2c2.63-2.14 5.58-4.48 9.22-3.96 4.45-.19 8.64 3.23 9.09 7.72.53 7.82.01 15.67.2 23.51-2.66-.03-5.32-.03-7.99-.01-.09-7.16.32-14.33-.13-21.46-.98-4.95-9.56-3.69-9.85 1.11-.33 6.75-.02 13.52-.05 20.28-2.63 0-5.25.02-7.87.06-.09-10.2.02-20.4-.11-30.6 2.52-.02 5.05-.03 7.57-.01l-.08 3.36zM318.42 1192.66c6.33-1.58 13.77 1.25 16.5 7.4 2.35 6.08 2.07 13.61-2.05 18.9-5.49 7.01-17.96 6.62-22.75-1-2.67-4.47-2.89-10.07-1.88-15.05.98-5.07 5.19-9.14 10.18-10.25m.98 6.72c-4.41 2.28-4.26 8.31-3.45 12.53.52 4.14 5.74 7.01 9.24 4.29 3.75-3.11 3.63-8.78 2.49-13.09-.88-3.48-5.09-5.47-8.28-3.73zM516.3 1193.22c2.52-.04 5.03-.04 7.56-.01-.02.86-.06 2.6-.07 3.47 2.51-2.78 5.71-4.86 9.63-4.28 0 2.77-.01 5.55-.03 8.35-3.3-.41-7.89-.35-8.92 3.63-.83 6.29-.18 12.69-.28 19.03-2.63-.01-5.26-.01-7.88.01-.04-10.07-.07-20.14-.01-30.2zM536.56 1201.68c.84-3.89 3.39-7.53 7.4-8.57 5.98-1.75 14.57-.8 17.04 5.87 1.95 8.01-1.01 16.63 1.92 24.49-2.82.13-5.65.22-8.47.26-.07-.73-.2-2.18-.26-2.91-3.27 2.98-7.82 4.4-12.09 2.74-6.75-1.77-8.32-12.17-2.53-15.94 4.13-2.92 9.39-2.49 14.17-2.44-.36-2.06.47-5.09-1.92-6.11-1.84-.89-3.91-.46-5.84-.3-.47.93-.93 1.88-1.4 2.84-2.68.05-5.35.09-8.02.07m7.28 13.22c1.24 4.65 7.77 3.65 9.71.1.23-1.79.19-3.59.25-5.35-3.9-.29-9.94-.04-9.96 5.25z"/></g><g fill="#191917"><path d="M608.38 16.53c20.86-.22 41.73-.23 62.6-.43 8.17-.4 16.4-.49 24.51.68 13.78 2.3 27.05 8.83 36.53 19.2 8.81 9.27 14.62 21.4 16.2 34.1.63 4.6.37 9.27.39 13.9-1.41 382-2.5 764-3.99 1145.99-.01 26.42-19.18 51.06-44.42 58.38-9.43 2.9-19.41 2.78-29.17 2.56-56.54-.4-113.07-1.15-169.61-1.47-29.37-.15-58.74-.87-88.11-.89-104.12-.81-208.24-1.72-312.36-2.52-11.34-.36-22.68-.06-34.01-.63-17.51-.99-34.44-10.74-43.67-25.72-5.66-8.79-8.36-19.29-8.39-29.7.97-62.98 1.43-125.98 2.29-188.97 2.27-217.36 4.97-434.71 7.17-652.07 1.19-99.97 2.5-199.93 3.52-299.9.44-9.04-.38-18.31 2.3-27.08 4.97-16.56 17.6-30.98 33.94-37.02 8.51-3.5 17.81-4.17 26.91-4.17 26.3-.27 52.61-.39 78.9-.76 43.05-.53 86.1-.46 129.14-1.01 37.32-.47 74.64-.53 111.96-.86 52.65-.7 105.33-.58 157.98-1.34 13.13-.13 26.26-.16 39.39-.27m64.14 46.24c-8.05 1.3-15.51 5.62-20.54 12.05-11.53 12.79-10.2 34.36 1.89 46.33 7.27 7.29 17.92 10.74 28.11 9.97 11.27-.97 21.84-7.89 27.28-17.81 3.32-5.87 4.17-12.8 3.87-19.44-.49-10.88-7.17-20.91-16.32-26.57-7.02-4.87-16.02-5.88-24.29-4.53M81.54 64.91c-7.61 1.3-14.63 5.23-20.17 10.55-8.13 8.01-11.33 20.4-8.82 31.44 2.69 13.34 13.91 24.56 27.3 27.11 11.02 2.35 22.87-1.54 30.81-9.42 5.75-5.3 9.87-12.73 10.02-20.67.05-5.96.67-12.24-1.98-17.79-5.88-14.26-21.82-23.64-37.16-21.22m588.03 477.9c-10.94 1.83-20.45 9.47-25.3 19.34-3.36 6.65-3.45 14.37-2.65 21.62 2.95 16.58 19.64 29.46 36.46 27.77 11.71-.74 22.25-8.25 28.19-18.14 4.1-7.1 3.89-15.58 3.07-23.47-3.16-17.68-22.14-30.67-39.77-27.12m-597.05.92c-8.92 2.19-17.28 7.53-22.11 15.46-5.44 8.62-6.55 19.66-3.69 29.36 3.03 10.56 11.79 18.93 22.06 22.46 14.94 5.49 32.94-1.59 40.89-15.19 5.27-8.46 6.33-19.19 3.58-28.69-2.99-9.33-10.35-16.92-19.07-21.17-6.63-3.45-14.46-3.29-21.66-2.23M700.2 650.12c-7.54 1.51-14.26 6.28-18.43 12.7-4.77 7.12-5.34 16.45-3.02 24.54 2.52 8.57 9.58 15.23 17.82 18.35 10.99 3.83 24.18.54 31.68-8.48 8.09-8.97 9.18-23.24 3.16-33.58-6.08-10.58-19.32-16.39-31.21-13.53m-16.06 122.93c-2.66.6-4.58 3.22-4.41 5.94.02 13.35-.1 26.7-.03 40.04-.23 2.92 2.12 5.88 5.11 6.01 6.72.3 13.45.07 20.17.15 3.55-.09 7.91.26 10.27-2.99 4.58-5.75 9.06-11.58 13.65-17.32 2.94-3.21 3.22-8.59.21-11.85-4.86-5.9-9.03-12.33-14.05-18.09-2.44-3.04-6.69-2.11-10.09-2.29-6.94.22-13.93-.35-20.83.4m-452.92 1.07c-1.96.79-2.5 2.91-2.35 4.84-.1 60.36-.59 120.73-1.16 181.09.09 1.99 0 5.05 2.46 5.67 2.57.56 5.23.31 7.85.31 58.99.25 117.99-.01 176.98.39 63.36.11 126.72.62 190.07.38 2.74.35 4.76-2.11 4.44-4.72.29-61.34.77-122.7.83-184.04.4-2.98-2.84-4.12-5.24-3.79-66.05-.13-132.09-.02-198.13-.17-52.01-.45-104.02-.09-156.03-.28-6.56.3-13.19-.53-19.72.32m467.14 113.31c-6.69 4.02-13.51 7.82-20.35 11.57 8.96 4.56 17.4 10.06 26.3 14.75 5.97 3.36 13.9 3.22 19.39-1.05 6.39-4.84 8.3-14.2 5.06-21.39-2.63-6.43-9.83-10.55-16.7-9.66-5.04.54-9.4 3.33-13.7 5.78m-12.47 94.31c-.26 4.22-.02 8.45-.15 12.69-3.98 1.06-8.06 4.04-7.93 8.59-.28 4.8 3.52 8.64 8.03 9.56-.04 4.42-.37 8.88.09 13.3 1.72 2.8 4.77-.28 6.5-1.57 4.55-4.13 11.05-1.88 16.55-2.43 8.31.27 15.45-6.41 17.2-14.28 4.42-.61 4.3-7.62.07-8.45-1.5-4.7-4.09-9.4-8.71-11.63-5.93-3.59-13.04-1.92-19.56-2.25-3.47.01-5.79-2.93-8.52-4.59-1.17-.92-3.14-.4-3.57 1.06m-393.84 112.24c-10.47 14.58-20.03 29.8-30.67 44.27 5.16 3.91 10.7 7.3 15.81 11.29 29.18-42.9 58.8-85.5 87.99-128.39-5.17-3.62-10.48-7.01-15.5-10.83-19.44 27.73-38.44 55.76-57.63 83.66m133.29-75.57c-16.56 23.23-32.26 47.06-48.56 70.47-11.47 16.56-22.35 33.52-34.05 49.93 5.13 3.73 10.46 7.18 15.59 10.93 4.12-5.4 7.68-11.19 11.58-16.75 9.99-15.25 20.91-29.87 30.87-45.14 10.93-16.01 21.86-32.01 32.93-47.92 24.54 36.47 48.95 73.04 73.28 109.66 5.35-3.49 10.6-7.12 16.01-10.51-3.35-5.3-6.85-10.51-10.39-15.67-21.51-31.88-42.51-64.1-64.12-95.9-2.92-4.05-4.98-8.9-9.02-12-4.49-3.19-11.21-1.72-14.12 2.9m269.32 66.43c-10.61 3.2-16.92 15.48-14.22 26.05 2.24 9.59 11.63 17.2 21.58 16.81 7.4-.09 14.93-4.13 18.49-10.7 1.5-2.91-3.27-5.2-4.94-2.71-2.83 3.73-6.89 6.67-11.66 7.16-7.65 1.26-15.33-4.22-17.41-11.53-2.69-8.25 3.08-17.93 11.47-19.81 4.53-.94 9.53-.17 13.32 2.6 1.91 1.35 3.18 3.39 4.88 4.99 1.83.65 3.51-.39 4.86-1.52-3.66-10.17-16.49-15.08-26.37-11.34m9.81 23.51c7.43.4 14.92.19 22.37.09 3.02.25 3.8-4.41 1.23-5.61-7.8-.64-15.64.12-23.46-.15-1.77 1.4-2.94 4.66-.14 5.67M68.55 1169.8c-10.85 2.45-21.01 9.71-25.47 20.09-3.94 9.35-3.85 20.41.55 29.59 7.35 15.78 27.77 23.88 43.86 16.93 15.66-5.94 25.39-24.11 21.24-40.4-3.79-17.38-22.6-30.19-40.18-26.21m602.01 7.05c-6.44 1.13-12.65 3.84-17.66 8.07-10.54 8.74-14.28 23.88-10.35 36.79 3.43 10 11.25 18.8 21.51 21.97 6.85 2.46 14.49 2.68 21.46.53 9.33-2.65 16.84-9.91 21.32-18.34 3.64-6.69 3.2-14.6 2.53-21.92-3-17.35-21.48-30.27-38.81-27.1m-189.77 2.73c-.14 14.64-.06 29.29.01 43.93 2.65-.04 5.29-.06 7.94-.07-.06-14.63.02-29.27-.05-43.9-2.64 0-5.27.01-7.9.04m-275.24 2.78c.04 13.69-.04 27.38-.01 41.08 2.73-.03 5.45-.03 8.18-.03-.01-8.9-.03-17.79 0-26.68 5.3 8.94 10.75 17.79 15.92 26.8 2.73-.07 5.47-.08 8.2-.08-.03-13.71-.03-27.43-.04-41.14-2.73-.01-5.46.03-8.18.07-.06 8.84.13 17.69-.09 26.53-5.33-8.89-10.88-17.65-16.16-26.56-2.61 0-5.22 0-7.82.01m150.15 15.69c-.72 7.25-.21 15.55 5.07 21.13 4.86 5.18 12.81 5.83 19.31 3.89 3.05-.99 6.34-2.36 8.19-5.11.48-5.33.08-10.7.21-16.04-5.25-.08-10.49.1-15.73.17 0 2.08.02 4.17.05 6.28 2.55-.03 5.1-.05 7.65-.06.02 2.3 0 4.62-.07 6.95-3.83 2.14-8.89 2.84-12.56-.01-4.09-3.42-4.12-9.31-4.07-14.2.04-4.55 1.54-10.29 6.48-11.74 4.49-1.77 10.38.95 10.18 6.27 2.68-.05 5.36-.07 8.05-.12-.41-2.83-1.03-5.74-2.95-7.96-3.85-5.33-11.28-6.44-17.32-5.1-7.15 1.58-11.85 8.64-12.49 15.65m40.15-10.2c-1.57 2.28-1.65 5.12-1.94 7.79 2.62.01 5.24.03 7.87.05.5-1.94.42-4.29 2.08-5.67 2.49-2.46 7.23-1.82 8.78 1.36 1.49 3.12-.2 6.63-2.08 9.19-4.45 5.81-10.17 10.48-14.94 15.99-1.8 1.79-.97 4.54-1.2 6.81 9.33.09 18.66 0 27.99-.04 0-2.21.01-4.41.03-6.6-5.64-.01-11.27.01-16.9-.08 4.31-4.72 9.05-9.06 12.87-14.2 3.15-4.23 4.03-10.36 1.32-15.01-2.34-3.98-7.28-5.58-11.68-5.39-4.65-.15-9.7 1.68-12.2 5.8m46.7-5.17c.1 8.77.01 17.53.02 26.3.01 2.66.38 5.42 1.68 7.8 5.47 10.15 22.82 9.52 27.74-.81 1.23-2.49 1.2-5.32 1.24-8.01.01-8.42-.05-16.85-.04-25.27-2.72-.05-5.42-.06-8.12-.04-.02 8.44.06 16.89-.04 25.34-.18 2.66.02 5.96-2.37 7.77-2.76 1.62-6.54 1.67-9.26-.06-2.39-1.77-2.44-5.02-2.53-7.7-.03-8.44-.03-16.87-.02-25.3-2.77-.04-5.54-.04-8.3-.02m55.38 2.45c-.01 2.71-.03 5.42-.03 8.15-1.58-.02-3.14-.02-4.7-.01 0 1.94.01 3.88.03 5.84 1.56 0 3.13 0 4.7.02.06 5.67-.23 11.35-.01 17.02.16 3.15 1.9 6.65 5.12 7.6 2.81.44 5.68.08 8.5-.2 0-2.16-.02-4.31-.04-6.44-1.83-.12-5.16.8-5.5-1.8-.31-5.36-.01-10.74-.16-16.1 1.77.01 3.56.06 5.35.11-.01-1.99-.01-3.98 0-5.94-1.81-.07-3.61-.11-5.41-.16 0-2.72-.01-5.42-.03-8.12-2.61-.02-5.22-.01-7.82.03m-253.19 16.14c2.51.06 5.03.05 7.54.03 1.43-3.65 7.06-4.09 9.19-.92.31 1.4.32 2.87.43 4.33-4.68.27-9.72-.07-13.95 2.31-4.78 2.68-5.04 9.85-1.62 13.72 4 4.46 11.79 4.3 15.78-.1.15.7.45 2.11.6 2.82 2.82.05 5.63.04 8.45.01-2.79-7.49-.7-15.58-1.73-23.3-.66-3.61-3.77-6.41-7.24-7.28-6.65-2.05-16.44.38-17.45 8.38m39.09-5.07l.08-3.36c-2.52-.02-5.05-.01-7.57.01.13 10.2.02 20.4.11 30.6 2.62-.04 5.24-.06 7.87-.06.03-6.76-.28-13.53.05-20.28.29-4.8 8.87-6.06 9.85-1.11.45 7.13.04 14.3.13 21.46 2.67-.02 5.33-.02 7.99.01-.19-7.84.33-15.69-.2-23.51-.45-4.49-4.64-7.91-9.09-7.72-3.64-.52-6.59 1.82-9.22 3.96m34.59-3.54c-4.99 1.11-9.2 5.18-10.18 10.25-1.01 4.98-.79 10.58 1.88 15.05 4.79 7.62 17.26 8.01 22.75 1 4.12-5.29 4.4-12.82 2.05-18.9-2.73-6.15-10.17-8.98-16.5-7.4m197.88.56c-.06 10.06-.03 20.13.01 30.2 2.62-.02 5.25-.02 7.88-.01.1-6.34-.55-12.74.28-19.03 1.03-3.98 5.62-4.04 8.92-3.63.02-2.8.03-5.58.03-8.35-3.92-.58-7.12 1.5-9.63 4.28.01-.87.05-2.61.07-3.47-2.53-.03-5.04-.03-7.56.01m20.26 8.46c2.67.02 5.34-.02 8.02-.07.47-.96.93-1.91 1.4-2.84 1.93-.16 4-.59 5.84.3 2.39 1.02 1.56 4.05 1.92 6.11-4.78-.05-10.04-.48-14.17 2.44-5.79 3.77-4.22 14.17 2.53 15.94 4.27 1.66 8.82.24 12.09-2.74.06.73.19 2.18.26 2.91 2.82-.04 5.65-.13 8.47-.26-2.93-7.86.03-16.48-1.92-24.49-2.47-6.67-11.06-7.62-17.04-5.87-4.01 1.04-6.56 4.68-7.4 8.57z"/><path d="M673.56 75.2c3.34-.52 6.73-.58 10.09-.11.1 5.51.06 11.02.15 16.53 5.52-.04 11.04-.01 16.56.04.03 3.3.04 6.6.03 9.9-5.49.55-11.01 1.05-16.52.69-.53 5.41.88 10.83-.05 16.22-3.43-.03-6.86-.04-10.29-.04-.1-5.41-.03-10.83.14-16.24-5.24-.19-10.49.33-15.71-.03-.29-.25-.87-.74-1.16-.99-.32-3.18-.1-6.38-.05-9.57 5.63-.08 11.25.09 16.88.22-.11-5.54-.09-11.08-.07-16.62zM80.88 78.88c2.63-2.5 7.15-.63 10.53-1.13.07 5.59.04 11.18.06 16.77 5.6 0 11.21-.1 16.81.05-.05 3.3-.07 6.61-.04 9.91-5.51 1.13-11.14.73-16.71.85-.02 5.39-.05 10.78-.14 16.17-3.55.05-7.11.01-10.66-.13.01-5.53-.01-11.05.11-16.58-5.45.29-10.9.49-16.36.46-.03-3.56-.01-7.12.05-10.69 5.36-.14 10.72-.11 16.08-.1.21-5.19-.18-10.4.27-15.58zM74.94 556.05c3.27-.16 7.47-1.38 10.18.85.38 5.23-.03 10.49.17 15.74 5.4-.05 10.81.08 16.21.14.12 3.5.16 7 .1 10.51-5.45.04-10.89.11-16.34.01-.02 5.44-.02 10.88-.06 16.33-3.51.15-7.02.18-10.53.09-.13-5.49-.1-10.98-.05-16.47-5.63-.06-11.27-.02-16.9.13.03-3.53.05-7.05.07-10.57 5.58-.1 11.17-.1 16.75-.17.35-5.53-.33-11.1.4-16.59zM670.49 555.52c3.34-.04 6.68-.05 10.02-.05.14 5.42.18 10.84-.01 16.26 5.57-.02 11.15.02 16.72.03-.02 3.21 0 6.43.14 9.65-5.45 1.86-11.31.59-16.94.87.02 5.43.04 10.86-.04 16.28-3.31.06-6.62.08-9.92.07.05-5.46.09-10.92.09-16.38-5.41-.04-10.81.02-16.21.03-.77-3.5-.74-7.08-.05-10.58 5.4-.02 10.8.03 16.2.08-.06-5.42-.07-10.84 0-16.26zM700.48 655.68c5.64-1.45 11.78-.81 16.94 1.92 8.5 4.19 13.67 14.09 12.27 23.47-.99 9.82-8.93 18.31-18.61 20.13-8.44 1.82-17.81-1.38-23.17-8.2-5.01-6.05-6.38-14.68-3.95-22.09 2.44-7.43 8.86-13.48 16.52-15.23m-8.16 19.63c-2.97 1.46-1.87 6.86 1.6 6.5 5.38.1 10.77.13 16.16.02 3.4.44 4.25-5.03 1.72-6.54-4.22-.89-8.57-.24-12.84-.45-2.2.14-4.58-.42-6.64.47m26.73 7.34c3.55-1.14 4.15-7.63-.04-7.88-4.5.36-3.75 6.83.04 7.88zM684.49 777.58c8.24-.47 16.5-.25 24.75-.16-3.26 4.66-6.74 9.16-10.06 13.77-1.7 2.44-4.13 4.66-4.39 7.81.28 1.5 1.07 2.86 1.96 4.11 4.22 5.84 8.72 11.48 13.02 17.27-7.94.14-15.9.22-23.83.01-2.07.4-1.6-2.21-1.75-3.38.11-13.14-.3-26.31.3-39.43z"/><path d="M699.33 798.81c4.41-6.44 9.24-12.58 13.81-18.91 4.64 6.42 10.39 12.06 14.34 18.97-4.16 6.75-10.04 12.21-14.47 18.76-4.44-6.36-9.28-12.44-13.68-18.82zM709.26 890.26c5.97-2.93 14.17 1.96 13.48 8.83-.01 6.96-8.64 11.36-14.42 7.67-6.54-3.26-5.65-13.82.94-16.5zM690.2 1019.99c.18-10.93.13-21.85.01-32.77 5.37 4.34 12.48 2.11 18.76 2.92 5.35-.03 10.46 3.55 12.21 8.62 1.47 5.55.31 12.31-4.66 15.78-7.74 5.76-18.62-.57-26.32 5.45zM682.22 1004.01c-.58-2.48 1.55-4.01 3.51-4.87.13 2.82.12 5.65.02 8.49-1.5-.81-3.52-1.61-3.53-3.62zM69.64 1182.49c3.3-.11 6.61-.13 9.91-.05 0 5.38 1.01 10.73.53 16.12 5.4.08 10.8.14 16.2.25.09 3.49.11 6.98.08 10.49-5.55.03-11.11-.14-16.66.03 0 5.45.1 10.91.01 16.37-3.38.09-6.75.11-10.13.04-.15-5.44-.2-10.87-.14-16.3-5.53-.28-11.07-.09-16.61-.22-.06-3.46-.08-6.91-.05-10.36 5.59-.24 11.18-.12 16.77-.11.06-5.42.02-10.85.09-16.26zM670.44 1189.63c3.37 0 6.73 0 10.1-.01.1 5.42.12 10.85.11 16.28 5.54-.39 11.12-.42 16.63.47.02 3.27.01 6.55-.04 9.84-5.61.17-11.21.2-16.81.05-.02 5.41.02 10.82-.03 16.23-3.33.07-6.65.1-9.96.1-.04-5.45.01-10.89-.04-16.33-5.5-.02-10.99.16-16.48.18-.24-3.38-.35-6.75-.26-10.11 5.56-.06 11.12-.77 16.68-.28.06-5.48.11-10.95.1-16.42zM319.4 1199.38c3.19-1.74 7.4.25 8.28 3.73 1.14 4.31 1.26 9.98-2.49 13.09-3.5 2.72-8.72-.15-9.24-4.29-.81-4.22-.96-10.25 3.45-12.53zM252.31 1212.34c1.94-3.44 6.34-2.68 9.63-2.89.03 2.98.13 6.86-3.4 7.92-3.05 1.99-8.37-1.55-6.23-5.03zM543.84 1214.9c.02-5.29 6.06-5.54 9.96-5.25-.06 1.76-.02 3.56-.25 5.35-1.94 3.55-8.47 4.55-9.71-.1z"/></g><g fill="#434341"><path d="M672.52 62.77c8.27-1.35 17.27-.34 24.29 4.53 9.15 5.66 15.83 15.69 16.32 26.57.3 6.64-.55 13.57-3.87 19.44-5.44 9.92-16.01 16.84-27.28 17.81-10.19.77-20.84-2.68-28.11-9.97-12.09-11.97-13.42-33.54-1.89-46.33 5.03-6.43 12.49-10.75 20.54-12.05m1.04 12.43c-.02 5.54-.04 11.08.07 16.62-5.63-.13-11.25-.3-16.88-.22-.05 3.19-.27 6.39.05 9.57.29.25.87.74 1.16.99 5.22.36 10.47-.16 15.71.03-.17 5.41-.24 10.83-.14 16.24 3.43 0 6.86.01 10.29.04.93-5.39-.48-10.81.05-16.22 5.51.36 11.03-.14 16.52-.69.01-3.3 0-6.6-.03-9.9-5.52-.05-11.04-.08-16.56-.04-.09-5.51-.05-11.02-.15-16.53-3.36-.47-6.75-.41-10.09.11zM81.54 64.91c15.34-2.42 31.28 6.96 37.16 21.22 2.65 5.55 2.03 11.83 1.98 17.79-.15 7.94-4.27 15.37-10.02 20.67-7.94 7.88-19.79 11.77-30.81 9.42-13.39-2.55-24.61-13.77-27.3-27.11-2.51-11.04.69-23.43 8.82-31.44 5.54-5.32 12.56-9.25 20.17-10.55m-.66 13.97c-.45 5.18-.06 10.39-.27 15.58-5.36-.01-10.72-.04-16.08.1-.06 3.57-.08 7.13-.05 10.69 5.46.03 10.91-.17 16.36-.46-.12 5.53-.1 11.05-.11 16.58 3.55.14 7.11.18 10.66.13.09-5.39.12-10.78.14-16.17 5.57-.12 11.2.28 16.71-.85-.03-3.3-.01-6.61.04-9.91-5.6-.15-11.21-.05-16.81-.05-.02-5.59.01-11.18-.06-16.77-3.38.5-7.9-1.37-10.53 1.13zM669.57 542.81c17.63-3.55 36.61 9.44 39.77 27.12.82 7.89 1.03 16.37-3.07 23.47-5.94 9.89-16.48 17.4-28.19 18.14-16.82 1.69-33.51-11.19-36.46-27.77-.8-7.25-.71-14.97 2.65-21.62 4.85-9.87 14.36-17.51 25.3-19.34m.92 12.71c-.07 5.42-.06 10.84 0 16.26-5.4-.05-10.8-.1-16.2-.08-.69 3.5-.72 7.08.05 10.58 5.4-.01 10.8-.07 16.21-.03 0 5.46-.04 10.92-.09 16.38 3.3.01 6.61-.01 9.92-.07.08-5.42.06-10.85.04-16.28 5.63-.28 11.49.99 16.94-.87-.14-3.22-.16-6.44-.14-9.65-5.57-.01-11.15-.05-16.72-.03.19-5.42.15-10.84.01-16.26-3.34 0-6.68.01-10.02.05zM72.52 543.73c7.2-1.06 15.03-1.22 21.66 2.23 8.72 4.25 16.08 11.84 19.07 21.17 2.75 9.5 1.69 20.23-3.58 28.69-7.95 13.6-25.95 20.68-40.89 15.19-10.27-3.53-19.03-11.9-22.06-22.46-2.86-9.7-1.75-20.74 3.69-29.36 4.83-7.93 13.19-13.27 22.11-15.46m2.42 12.32c-.73 5.49-.05 11.06-.4 16.59-5.58.07-11.17.07-16.75.17-.02 3.52-.04 7.04-.07 10.57 5.63-.15 11.27-.19 16.9-.13-.05 5.49-.08 10.98.05 16.47 3.51.09 7.02.06 10.53-.09.04-5.45.04-10.89.06-16.33 5.45.1 10.89.03 16.34-.01.06-3.51.02-7.01-.1-10.51-5.4-.06-10.81-.19-16.21-.14-.2-5.25.21-10.51-.17-15.74-2.71-2.23-6.91-1.01-10.18-.85zM231.22 774.12c6.53-.85 13.16-.02 19.72-.32 52.01.19 104.02-.17 156.03.28 66.04.15 132.08.04 198.13.17 2.4-.33 5.64.81 5.24 3.79-.06 61.34-.54 122.7-.83 184.04.32 2.61-1.7 5.07-4.44 4.72-63.35.24-126.71-.27-190.07-.38-58.99-.4-117.99-.14-176.98-.39-2.62 0-5.28.25-7.85-.31-2.46-.62-2.37-3.68-2.46-5.67.57-60.36 1.06-120.73 1.16-181.09-.15-1.93.39-4.05 2.35-4.84zM68.55 1169.8c17.58-3.98 36.39 8.83 40.18 26.21 4.15 16.29-5.58 34.46-21.24 40.4-16.09 6.95-36.51-1.15-43.86-16.93-4.4-9.18-4.49-20.24-.55-29.59 4.46-10.38 14.62-17.64 25.47-20.09m1.09 12.69c-.07 5.41-.03 10.84-.09 16.26-5.59-.01-11.18-.13-16.77.11-.03 3.45-.01 6.9.05 10.36 5.54.13 11.08-.06 16.61.22-.06 5.43-.01 10.86.14 16.3 3.38.07 6.75.05 10.13-.04.09-5.46-.01-10.92-.01-16.37 5.55-.17 11.11 0 16.66-.03.03-3.51.01-7-.08-10.49-5.4-.11-10.8-.17-16.2-.25.48-5.39-.53-10.74-.53-16.12-3.3-.08-6.61-.06-9.91.05zM670.56 1176.85c17.33-3.17 35.81 9.75 38.81 27.1.67 7.32 1.11 15.23-2.53 21.92-4.48 8.43-11.99 15.69-21.32 18.34-6.97 2.15-14.61 1.93-21.46-.53-10.26-3.17-18.08-11.97-21.51-21.97-3.93-12.91-.19-28.05 10.35-36.79 5.01-4.23 11.22-6.94 17.66-8.07m-.12 12.78c.01 5.47-.04 10.94-.1 16.42-5.56-.49-11.12.22-16.68.28-.09 3.36.02 6.73.26 10.11 5.49-.02 10.98-.2 16.48-.18.05 5.44 0 10.88.04 16.33 3.31 0 6.63-.03 9.96-.1.05-5.41.01-10.82.03-16.23 5.6.15 11.2.12 16.81-.05.05-3.29.06-6.57.04-9.84-5.51-.89-11.09-.86-16.63-.47.01-5.43-.01-10.86-.11-16.28-3.37.01-6.73.01-10.1.01z"/></g></svg>