<svg width="832pt" height="1280pt" viewBox="0 0 832 1280" xmlns="http://www.w3.org/2000/svg"><g fill="#010101"><path d="M116.41 27.43c.63-.05 1.91-.14 2.55-.18 198.36 0 396.72.01 595.08-.01 7.47.23 14.87 3.22 20.32 8.37 21.49 21.51 42.95 43.06 64.46 64.57 8.1 6.78 13.34 17.12 12.78 27.81.09 361.66.06 723.32.1 1084.98-.13 7.52.99 15.45-2.27 22.52-4.13 10.02-14.29 17.67-25.36 17.25-242.36 0-484.73-.01-727.1 0-5.45-.12-11.11.61-16.3-1.46-11.53-4.05-19.48-16.15-19.14-28.3-.01-364.34-.04-728.69.06-1093.03-.56-9.04 2.01-18.4 8.17-25.19C52.23 82.21 74.7 59.66 97.2 37.15c5.13-5.23 11.92-8.79 19.21-9.72m212.9 32.91c-9.38 1.61-17.06 10.11-17.66 19.62-.5 6.48 2.35 12.94 6.91 17.46 4.36 4.12 10.48 5.78 16.37 5.67 55.04 0 110.09.03 165.13-.02 9.01.15 17.75-5.72 20.4-14.44 4.96-12.49-4.94-28.1-18.5-28.46-54.64-.11-109.29.01-163.93-.06-2.91.02-5.84-.21-8.72.23M71.38 133.51c-11.55 1.6-20.05 13-19.57 24.44-.13 343.7-.05 687.4-.07 1031.11.06 5.44-.45 10.99.89 16.33 2.35 8.58 9.9 15.67 18.78 16.97 3.5.46 7.04.39 10.57.42 222.32.03 444.65.03 666.98-.01 6.07-.25 12.41.65 18.18-1.71 8.89-3.28 14.96-12.61 14.87-22.02.07-101.33.04-202.67.06-304.01-.43-27.36.26-54.73-.05-82.09-.31-12.96.14-25.92.06-38.88-.16-149.68-.08-299.35-.15-449.02.32-46.34-.32-92.69.13-139.03-.37-10.97.5-21.96-.42-32.91-1.34-8.27-7.24-15.89-15.23-18.68-4.31-1.53-8.96-1.18-13.44-1.23-225.65.01-451.3 0-676.95 0-1.55.03-3.1.1-4.64.32z"/><path d="M411.31 377.33c18.54-.88 37.25 2.21 54.5 9.07 35.09 13.49 63.99 42.53 76.72 77.98 6 15.79 8.52 32.77 8.28 49.63-.77 36.11-17.42 71.44-44.31 95.48-29.11 26.59-70.47 39.06-109.42 32.79-38-5.61-72.7-28.87-93.03-61.34-19.4-30.44-25.09-69.04-15.92-103.89 5.46-21.36 16.44-41.3 31.52-57.37 23.58-25.17 57.1-41.02 91.66-42.35m1.07 24.15c-9.57.41-19.08 2.03-28.23 4.84-13.98 4.13-26.67 11.78-38.02 20.82-15.04 13.08-26.74 30.13-32.84 49.16-11.68 35.59-3.83 77.17 21.01 105.38 10.89 12.84 24.92 22.94 40.37 29.57 33.07 14.05 73.23 10.88 102.96-9.64 30.98-19.99 50.3-56.78 48.99-93.65-.6-23.44-8.78-46.73-23.34-65.15-21.15-27.55-56.27-43.39-90.9-41.33z"/><path d="M412.18 408.16c37.07-2.52 74.35 17.58 93.2 49.48 18.35 30.43 19.48 70.71 2.05 101.8-16.08 30.24-48.24 51.18-82.43 53.51-37.76 3.22-76.22-16.8-95.5-49.37-18.87-30.72-19.6-71.51-2.02-102.97 16.78-30.41 49.87-51.28 84.7-52.45m-20.96 24.07c-5.03 1.65-6.17 9.3-1.66 12.2 4.13 3.37 11.06-.09 10.98-5.38.47-4.74-4.98-8.71-9.32-6.82m47.16.24c-4.75 1.93-5.18 9.34-.87 12.01 4.14 3.23 10.9-.27 10.8-5.46.39-4.93-5.55-8.96-9.93-6.55m-72 24.01c-4.5 1.85-5.15 8.57-1.36 11.48 4.01 3.63 11.63.63 11.56-4.95.41-5.09-5.77-9.05-10.2-6.53m47.95-.07c-4.36 1.69-5.4 8.05-1.91 11.12 3.77 4.24 12.04 1.4 11.94-4.45.55-5.08-5.55-9.19-10.03-6.67m47.96-.04c-4.51 1.6-5.64 8.21-1.95 11.24 3.53 3.74 10.91 1.71 11.64-3.52 1.39-5.24-4.86-10.33-9.69-7.72m-119.03 23.85c-5.23 1.84-5.87 9.91-.92 12.47 4.21 2.77 10.34-.76 10.35-5.71.54-4.82-5.05-8.81-9.43-6.76m47.13.28c-4.78 2.28-4.87 9.93-.11 12.29 4.51 2.84 11.06-1.54 10.21-6.77-.11-4.78-6.04-7.91-10.1-5.52m47.95-.11c-4.8 1.99-5.06 9.37-.82 12.11 4.13 3.2 10.93-.3 10.8-5.5.5-5.06-5.53-9-9.98-6.61m47.84-.03c-4.85 1.97-5.21 9.55-.76 12.17 3.66 2.56 9.08.42 10.35-3.77 2.09-5.36-4.51-11.19-9.59-8.4M366.4 504.52c-4.53 1.78-5.22 8.55-1.39 11.43 3.82 3.4 10.89 1.06 11.54-4.12 1-5.31-5.4-10.06-10.15-7.31m47.92-.07c-4.4 1.65-5.48 8.09-1.88 11.11 3.55 3.91 11.09 1.79 11.86-3.52 1.27-5.37-5.14-10.28-9.98-7.59m47.91-.07c-4.52 1.6-5.56 8.22-1.86 11.21 3.28 3.55 10.19 2.05 11.46-2.7 2.15-5.4-4.5-11.23-9.6-8.51m-119.04 23.78c-4.94 1.78-5.72 9.18-1.42 12.09 4.07 3.37 11.04-.04 10.93-5.3.47-4.85-5.06-8.91-9.51-6.79m47.22.29c-4.9 2.24-4.77 9.93-.05 12.28 4.14 2.57 10.23-.86 10.18-5.74.62-5.17-5.7-9.24-10.13-6.54m47.94-.09c-4.72 2.02-5.15 9.29-.87 12.02 4.4 3.5 11.7-.82 10.76-6.37-.06-4.69-5.83-7.94-9.89-5.65m47.88-.03c-4.98 1.9-5.28 9.51-.8 12.15 4.47 3.3 11.51-1.14 10.5-6.58-.11-4.56-5.71-7.74-9.7-5.57m-119.87 24.1c-4.23 1.79-5.17 7.92-1.8 10.99 3.56 3.8 10.97 1.85 11.9-3.37 1.46-5.44-5.25-10.62-10.1-7.62m47.92-.08c-4.37 1.74-5.37 8.06-1.83 11.12 3.83 4.05 11.87 1.33 11.94-4.42.51-5.1-5.6-9.26-10.11-6.7m48-.05c-4.59 1.57-5.61 8.33-1.84 11.29 3.57 3.63 10.77 1.52 11.57-3.6 1.4-5.25-4.93-10.3-9.73-7.69m-71.89 24.08c-4.78 2.2-4.8 9.92-.05 12.19 4.43 2.8 10.92-1.29 10.2-6.52-.1-4.84-5.99-8.15-10.15-5.67m47.87-.07c-5.01 2.14-4.94 10.23.03 12.39 4.48 2.58 10.79-1.58 9.99-6.73-.06-4.82-5.88-7.97-10.02-5.66z"/></g><path fill="#242424" d="M71.38 133.51c1.54-.22 3.09-.29 4.64-.32 225.65 0 451.3.01 676.95 0 4.48.05 9.13-.3 13.44 1.23 7.99 2.79 13.89 10.41 15.23 18.68.92 10.95.05 21.94.42 32.91-.45 46.34.19 92.69-.13 139.03.07 149.67-.01 299.34.15 449.02.08 12.96-.37 25.92-.06 38.88.31 27.36-.38 54.73.05 82.09-.02 101.34.01 202.68-.06 304.01.09 9.41-5.98 18.74-14.87 22.02-5.77 2.36-12.11 1.46-18.18 1.71-222.33.04-444.66.04-666.98.01-3.53-.03-7.07.04-10.57-.42-8.88-1.3-16.43-8.39-18.78-16.97-1.34-5.34-.83-10.89-.89-16.33.02-343.71-.06-687.41.07-1031.11-.48-11.44 8.02-22.84 19.57-24.44m272 71.99c-2.33.8-1.74 3.61-1.87 5.52.12 8.98-.14 17.97.03 26.94-.04 2.24 2.45 3.26 4.37 3.08 9.39-.22 18.78-.13 28.17-.06 1.74.19 3.81-1.08 3.7-3-.03-9.96.02-19.93-.01-29.89.09-2-1.96-3.17-3.76-2.86-10.2.29-20.48-.4-30.63.27m69.06.21c-7.02 1.67-12.71 8-13.45 15.2-1.39 9.94 6.88 20.11 17.08 20.02 10.18.82 19.52-8.75 18.51-18.9-.17-10.76-11.87-19.17-22.14-16.32m60-.41c-1.17.49-1.75 1.67-2.4 2.65-5.39 9.04-10.45 18.28-15.75 27.37-.58 1.27-1.85 2.84-.77 4.22 1.05 1.98 3.65 1.38 5.5 1.55 10.33-.1 20.66-.25 30.98-.08 2.57.37 4.42-2.64 2.65-4.67-5.59-9.5-10.79-19.22-16.43-28.69-.72-1.32-2.09-3.01-3.78-2.35m-72.87 158.54c-47.54 5.34-91.45 35.69-113.36 78.19-11.43 21.43-16.91 45.83-16.91 70.06.45 16.58 3.28 33.17 8.86 48.82 6.67 17.02 15.71 33.32 28.09 46.88 24.67 27.78 59.74 46.44 96.88 49.78 35.3 3.88 71.55-6.45 100.25-27.16 31.48-22.25 53.64-57.39 59.72-95.5 5.81-32.73-.4-67.29-16.62-96.25-17.81-32.29-48.36-57.24-83.4-68.62-20.39-6.71-42.21-8.72-63.51-6.2m238.79 79.74c-5.79 1.67-10.2 7.32-9.78 13.45-.23 8.3 8.41 15.06 16.43 13.3 7.73-1.17 12.97-9.79 10.68-17.23-1.82-7.29-10.2-11.86-17.33-9.52m-1.02 35.85c-5.9 1.99-9.48 8.45-8.64 14.53.66 8.21 9.94 14.24 17.74 11.57 6.94-2.05 11.53-10.03 9.21-17.01-2-7.56-11.09-12.07-18.31-9.09m1.11 35.32c-7.19 1.86-11.67 10.06-9.37 17.13 2.05 7.65 11.36 12.21 18.61 8.85 6.69-2.49 10.18-10.7 7.78-17.32-2.17-6.83-10.21-10.93-17.02-8.66m.77 35.43c-7.59 1.63-12.59 10.37-10 17.74 1.6 5.95 7.73 9.81 13.75 9.54 8.18-.12 14.78-8.59 12.98-16.53-1.3-7.42-9.39-12.81-16.73-10.75z"/><g fill="#b4b4b4"><path d="M343.38 205.5c10.15-.67 20.43.02 30.63-.27 1.8-.31 3.85.86 3.76 2.86.03 9.96-.02 19.93.01 29.89.11 1.92-1.96 3.19-3.7 3-9.39-.07-18.78-.16-28.17.06-1.92.18-4.41-.84-4.37-3.08-.17-8.97.09-17.96-.03-26.94.13-1.91-.46-4.72 1.87-5.52zm69.06.21c10.27-2.85 21.97 5.56 22.14 16.32 1.01 10.15-8.33 19.72-18.51 18.9-10.2.09-18.47-10.08-17.08-20.02.74-7.2 6.43-13.53 13.45-15.2zm60-.41c1.69-.66 3.06 1.03 3.78 2.35 5.64 9.47 10.84 19.19 16.43 28.69 1.77 2.03-.08 5.04-2.65 4.67-10.32-.17-20.65-.02-30.98.08-1.85-.17-4.45.43-5.5-1.55-1.08-1.38.19-2.95.77-4.22 5.3-9.09 10.36-18.33 15.75-27.37.65-.98 1.23-2.16 2.4-2.65zm-72.87 158.54c21.3-2.52 43.12-.51 63.51 6.2 35.04 11.38 65.59 36.33 83.4 68.62 16.22 28.96 22.43 63.52 16.62 96.25-6.08 38.11-28.24 73.25-59.72 95.5-28.7 20.71-64.95 31.04-100.25 27.16-37.14-3.34-72.21-22-96.88-49.78-12.38-13.56-21.42-29.86-28.09-46.88-5.58-15.65-8.41-32.24-8.86-48.82 0-24.23 5.48-48.63 16.91-70.06 21.91-42.5 65.82-72.85 113.36-78.19m11.74 13.49c-34.56 1.33-68.08 17.18-91.66 42.35-15.08 16.07-26.06 36.01-31.52 57.37-9.17 34.85-3.48 73.45 15.92 103.89 20.33 32.47 55.03 55.73 93.03 61.34 38.95 6.27 80.31-6.2 109.42-32.79 26.89-24.04 43.54-59.37 44.31-95.48.24-16.86-2.28-33.84-8.28-49.63-12.73-35.45-41.63-64.49-76.72-77.98-17.25-6.86-35.96-9.95-54.5-9.07z"/><path d="M412.38 401.48c34.63-2.06 69.75 13.78 90.9 41.33 14.56 18.42 22.74 41.71 23.34 65.15 1.31 36.87-18.01 73.66-48.99 93.65-29.73 20.52-69.89 23.69-102.96 9.64-15.45-6.63-29.48-16.73-40.37-29.57-24.84-28.21-32.69-69.79-21.01-105.38 6.1-19.03 17.8-36.08 32.84-49.16 11.35-9.04 24.04-16.69 38.02-20.82a112.69 112.69 0 0 1 28.23-4.84m-.2 6.68c-34.83 1.17-67.92 22.04-84.7 52.45-17.58 31.46-16.85 72.25 2.02 102.97 19.28 32.57 57.74 52.59 95.5 49.37 34.19-2.33 66.35-23.27 82.43-53.51 17.43-31.09 16.3-71.37-2.05-101.8-18.85-31.9-56.13-52-93.2-49.48z"/><path d="M391.22 432.23c4.34-1.89 9.79 2.08 9.32 6.82.08 5.29-6.85 8.75-10.98 5.38-4.51-2.9-3.37-10.55 1.66-12.2zm47.16.24c4.38-2.41 10.32 1.62 9.93 6.55.1 5.19-6.66 8.69-10.8 5.46-4.31-2.67-3.88-10.08.87-12.01zm199.98 11.11c7.13-2.34 15.51 2.23 17.33 9.52 2.29 7.44-2.95 16.06-10.68 17.23-8.02 1.76-16.66-5-16.43-13.3-.42-6.13 3.99-11.78 9.78-13.45zm-271.98 12.9c4.43-2.52 10.61 1.44 10.2 6.53.07 5.58-7.55 8.58-11.56 4.95-3.79-2.91-3.14-9.63 1.36-11.48zm47.95-.07c4.48-2.52 10.58 1.59 10.03 6.67.1 5.85-8.17 8.69-11.94 4.45-3.49-3.07-2.45-9.43 1.91-11.12zm47.96-.04c4.83-2.61 11.08 2.48 9.69 7.72-.73 5.23-8.11 7.26-11.64 3.52-3.69-3.03-2.56-9.64 1.95-11.24zm175.05 23.06c7.22-2.98 16.31 1.53 18.31 9.09 2.32 6.98-2.27 14.96-9.21 17.01-7.8 2.67-17.08-3.36-17.74-11.57-.84-6.08 2.74-12.54 8.64-14.53zm-294.08.79c4.38-2.05 9.97 1.94 9.43 6.76-.01 4.95-6.14 8.48-10.35 5.71-4.95-2.56-4.31-10.63.92-12.47zm47.13.28c4.06-2.39 9.99.74 10.1 5.52.85 5.23-5.7 9.61-10.21 6.77-4.76-2.36-4.67-10.01.11-12.29zm47.95-.11c4.45-2.39 10.48 1.55 9.98 6.61.13 5.2-6.67 8.7-10.8 5.5-4.24-2.74-3.98-10.12.82-12.11zm47.84-.03c5.08-2.79 11.68 3.04 9.59 8.4-1.27 4.19-6.69 6.33-10.35 3.77-4.45-2.62-4.09-10.2.76-12.17zM366.4 504.52c4.75-2.75 11.15 2 10.15 7.31-.65 5.18-7.72 7.52-11.54 4.12-3.83-2.88-3.14-9.65 1.39-11.43zm47.92-.07c4.84-2.69 11.25 2.22 9.98 7.59-.77 5.31-8.31 7.43-11.86 3.52-3.6-3.02-2.52-9.46 1.88-11.11zm47.91-.07c5.1-2.72 11.75 3.11 9.6 8.51-1.27 4.75-8.18 6.25-11.46 2.7-3.7-2.99-2.66-9.61 1.86-11.21zm176.22 10.37c6.81-2.27 14.85 1.83 17.02 8.66 2.4 6.62-1.09 14.83-7.78 17.32-7.25 3.36-16.56-1.2-18.61-8.85-2.3-7.07 2.18-15.27 9.37-17.13zm-295.26 13.41c4.45-2.12 9.98 1.94 9.51 6.79.11 5.26-6.86 8.67-10.93 5.3-4.3-2.91-3.52-10.31 1.42-12.09zm47.22.29c4.43-2.7 10.75 1.37 10.13 6.54.05 4.88-6.04 8.31-10.18 5.74-4.72-2.35-4.85-10.04.05-12.28zm47.94-.09c4.06-2.29 9.83.96 9.89 5.65.94 5.55-6.36 9.87-10.76 6.37-4.28-2.73-3.85-10 .87-12.02zm47.88-.03c3.99-2.17 9.59 1.01 9.7 5.57 1.01 5.44-6.03 9.88-10.5 6.58-4.48-2.64-4.18-10.25.8-12.15zm152.99 21.85c7.34-2.06 15.43 3.33 16.73 10.75 1.8 7.94-4.8 16.41-12.98 16.53-6.02.27-12.15-3.59-13.75-9.54-2.59-7.37 2.41-16.11 10-17.74zm-272.86 2.25c4.85-3 11.56 2.18 10.1 7.62-.93 5.22-8.34 7.17-11.9 3.37-3.37-3.07-2.43-9.2 1.8-10.99zm47.92-.08c4.51-2.56 10.62 1.6 10.11 6.7-.07 5.75-8.11 8.47-11.94 4.42-3.54-3.06-2.54-9.38 1.83-11.12zm48-.05c4.8-2.61 11.13 2.44 9.73 7.69-.8 5.12-8 7.23-11.57 3.6-3.77-2.96-2.75-9.72 1.84-11.29zm-71.89 24.08c4.16-2.48 10.05.83 10.15 5.67.72 5.23-5.77 9.32-10.2 6.52-4.75-2.27-4.73-9.99.05-12.19zm47.87-.07c4.14-2.31 9.96.84 10.02 5.66.8 5.15-5.51 9.31-9.99 6.73-4.97-2.16-5.04-10.25-.03-12.39z"/></g></svg>