<svg width="1344" height="1408" viewBox="0 0 1008 1056" xmlns="http://www.w3.org/2000/svg"><g fill="#d2dae4"><path d="M31.28 72.98c-.42-18.24 15.34-35.37 33.75-35.58 60.84-.02 121.69-.03 182.54.01 6.55 11.6 12.5 23.54 19.29 35 41.4.14 82.8.16 124.2-.02 5.94-11.87 12.66-23.32 19-34.98 64.16-.06 128.32.02 192.48-.03 6.53 11.64 12.57 23.56 19.3 35.09 41.37-.03 82.74.13 124.11-.09 6.36-11.67 12.51-23.46 19.27-34.91 60.58-.18 121.16-.03 181.74-.07 11.13-.34 21.38 6.22 27.73 15.03 5.1 7.04 6.72 16.03 6.5 24.57-.11 41.79.03 83.57-.07 125.35-10.6 6.34-21.06 12.9-31.67 19.22-.38 22.13-.01 44.28-.14 66.42.12 18.11-.23 36.23.14 54.34 10.54 6.53 21.21 12.85 31.77 19.34-.16 29.88 0 59.76-.07 89.65-10.64 6.28-21.29 12.55-31.7 19.2-.27 40.03-.14 80.07-.09 120.11 10.61 6.5 21.33 12.85 31.86 19.49-.11 30.22-.03 60.44-.07 90.66-7.25 4.13-14.41 8.43-21.46 12.88-3.39 2.22-7.32 3.75-10.2 6.64-.42 28.21-.09 56.47-.17 84.69.13 11.8-.31 23.61.15 35.4 10.59 6.37 21.07 12.92 31.73 19.19-.1 42.5-.04 85-.03 127.49.34 7.3-.28 14.88-3.64 21.5-3.79 7.23-10.23 13.03-17.8 16.09-4.98 2.01-10.41 2.32-15.71 2.25-99.47.01-198.94.09-298.4-.04-8.62-16.84-18.44-33.02-26.89-49.94 99.44-.23 198.89.07 298.33-.13 7.51.42 14.65-6.16 14.23-13.81.02-287.34-.04-574.68.01-862.02.19-6.23-3.47-12.67-9.54-14.68-4.48-1.2-9.18-.62-13.75-.71-268.67 0-537.33-.01-806 0-5.01.07-10.59-.59-14.89 2.55-4.59 2.96-6.48 8.63-6.3 13.89.01 278-.04 556 .03 833.99.17 9.35-.31 18.72.24 28.06.45 7.35 7.52 13.42 14.87 12.77 99.29.05 198.58-.02 297.87.05-9.04 16.68-17.82 33.49-27.2 49.98-100.53.14-201.09.04-301.64.04-10.85.24-21.44-5.44-27.45-14.43-4.73-6.47-6.42-14.65-6.29-22.54.07-43.46-.16-86.93.04-130.39 10.57-6.64 21.54-12.63 31.99-19.44-.11-39.99-.02-79.99-.06-119.98-10.47-6.75-21.51-12.61-31.9-19.5-.14-30.28-.14-60.57.03-90.84 8.37-5.15 16.82-10.18 25.32-15.11 2.06-1.25 4.23-2.35 6.04-3.96.89-2.46.46-5.18.56-7.74-.1-37.39-.06-74.79.01-112.18-10.39-6.94-21.42-12.87-31.99-19.52-.05-29.91-.13-59.83.04-89.73 10.46-6.8 21.47-12.69 31.92-19.47-.05-40.07-.05-80.13.02-120.2-10.72-6.35-21.27-12.98-31.9-19.48-.15-43.14-.08-86.28-.09-129.42z"/><path d="M374.06 1026.89c8.4-15.84 16.69-31.76 25.78-47.21 4.73-.17 9.47-.21 14.2-.17 64.64.1 129.28.07 193.92.05 1.99.08 4.62-.39 5.65 1.85 8.71 14.94 16.83 30.23 25.1 45.42-11.24.37-22.49.03-33.73.09-47.66.02-95.32.28-142.99-.01-13.99-.16-27.99.45-41.98.1-15.32-.39-30.64.22-45.95-.12m208.35-33.85c.81.82 1.23 2.46 2.65 2.5 2.37.59 3.84-3.22 1.75-4.44-1.69-1.26-3.79.2-4.4 1.94m-84.27-1.96c.01 1.9 0 3.79.02 5.71-3.12-1.22-6.74-2.12-9.91-.52-5.61 2.33-7.09 10.3-3.42 14.91 2.94 4.25 9.88 4.99 13.39 1.03-1.16 3.36 2.46 2.14 4.41 2.39.02-7.85.03-15.69-.04-23.53-1.49-.01-2.97-.01-4.45.01m77.37-.23c.01 2.2.09 4.39.27 6.6-3.22-2.18-7.63-2.9-11.04-.73-6.05 3.28-6 13.11-.24 16.66 3.45 2.21 8.09 1.75 11.25-.77l-.06 2.09c1.41-.09 2.82-.16 4.24-.23-.25-7.85 0-15.7-.2-23.55-1.41-.04-2.82-.06-4.22-.07m-44.86.64c.12 6.17-.34 12.37.22 18.53.56 3.66 4.57 5.04 7.84 4.73-.14-1.36-.28-2.7-.41-4.03-.67-.11-1.99-.34-2.66-.45-.66-3.23-.42-6.54-.47-9.8l2.94.28-.04-4.45c-.7 0-2.1-.01-2.81-.01-.07-1.56-.14-3.12-.19-4.65-1.48-.06-2.96-.12-4.42-.15m-124.14 4.2c-3.3 1.11-5.03 5.69-2.69 8.48 1.99 2.43 5.4 2.31 8.19 3.05 1.49-.05 2.19 1.29 1.72 2.63-2.65 2.29-6.43 1.05-8.98-.75-.9.97-1.8 1.93-2.67 2.94 3.84 2.94 9.95 3.98 14.04 1.06 3.67-2.55 2.38-9.15-2.13-9.81-2.41-.92-7.31.17-6.7-3.81 2.94-.98 5.99-.49 8.86.48.4-1.04.81-2.08 1.22-3.1-3.32-1.65-7.27-2.24-10.86-1.17m16.88 1.71c-5.14 4.13-4.07 13.49 1.92 16.33 3.84 1.78 8.86 1.39 12.13-1.44.46-1.51-1.54-2.25-2.29-3.26-2.92 3.02-8.96 1.91-10.19-2.25 4.8-.17 9.61-.03 14.4-.41-.42-2.83-.39-6-2.46-8.21-3.35-3.85-9.66-3.79-13.51-.76m17.73 8.68c.25 8.56 11.99 11.26 17.67 5.99-.85-1.04-1.69-2.01-2.56-3-3.35 2.78-8.97 2.05-10.58-2.29 4.86-.13 9.72.04 14.58-.19.43-4.61-1.69-9.93-6.62-11.03-6.41-2.08-13.89 3.62-12.49 10.52m22.34 4.33c3.47 5.34 11.85 5.83 16.32 1.5-.89-1.02-1.79-2.01-2.69-2.99-3.21 3.06-9 2.17-10.5-2.22 4.66-.16 9.35.29 14.01-.16 2.43-5.78-3.61-12.19-9.61-11.29-7.34-.03-11.29 9.35-7.53 15.16m49.58-7.43c1.63 3.76 6.24 3.68 9.62 4.58 1.34.31 1.68 2.74.12 3.06-2.71 1.37-5.6-.05-7.93-1.46-.91.94-1.81 1.9-2.68 2.89 3.26 2.82 8.03 3.28 12.07 2.2 3.96-1.21 5.44-6.9 2.28-9.69-2.6-2.63-8.74-.13-9.3-4.63 3.07-2.16 6.84.64 10.08-.81.59-3.84-4.67-3.75-7.28-3.94-4.19-.61-8.68 3.53-6.98 7.8m40.3-7.45c-.06 4.15.21 8.33-.26 12.47-.72 3.69-7.05 3.31-7.55-.31-.35-4.08-.05-8.18-.15-12.25-1.49.02-2.98.05-4.46.09.12 4.7-.59 9.51.53 14.13 2.34 6.91 13.66 6.78 15.98-.07.86-4.61.21-9.37.44-14.04-1.52-.02-3.03-.03-4.53-.02m44.1.04c-4.27.9-7.69 4.98-7.25 9.44-.37 5.33 4.48 9.97 9.75 9.76 6.15.54 11.55-5.8 9.95-11.8-.87-5.57-7.22-8.83-12.45-7.4m-14.29 1.66c.01 5.78.11 11.57.05 17.36 1.48.01 2.97.04 4.47.08.03-5.75.05-11.49-.02-17.23-1.51-.09-3.01-.17-4.5-.21z"/><path d="M424.53 1002.74c1.7-4.58 9.18-5.08 10.46.02-3.48.16-6.97.13-10.46-.02zM445.85 1003.11c.62-5.34 8.59-5.02 10.1-.43-3.37.22-6.74.36-10.1.43zM466.62 1002.74c1.6-4.49 8.83-4.91 10.1.05-3.37.11-6.74.17-10.1-.05zM490.11 1000.15c3.01-1.84 7.52.24 7.88 3.8 1.06 3.75-2.74 7.71-6.53 6.55-4.48-1.09-5.36-8.14-1.35-10.35zM567.31 1000.36c3.37-2.28 8.32.72 8.14 4.72.27 3.62-3.58 6.59-7.01 5.34-4.3-1.2-4.99-7.89-1.13-10.06zM597.21 1000.24c3.75-2.57 9.53 1.23 8.33 5.72-.49 3.25-3.97 5.55-7.13 4.4-4.35-1.2-5.11-7.92-1.2-10.12z"/></g><g fill="#a7adb4"><path d="M247.57 37.41c54.16-.1 108.32-.08 162.49 0-6.34 11.66-13.06 23.11-19 34.98-41.4.18-82.8.16-124.2.02-6.79-11.46-12.74-23.4-19.29-35zM602.54 37.38c54.23.01 108.46-.14 162.68.09-6.76 11.45-12.91 23.24-19.27 34.91-41.37.22-82.74.06-124.11.09-6.73-11.53-12.77-23.45-19.3-35.09zM87.12 88.13c4.3-3.14 9.88-2.48 14.89-2.55 268.67-.01 537.33 0 806 0 4.57.09 9.27-.49 13.75.71 6.07 2.01 9.73 8.45 9.54 14.68-.05 287.34.01 574.68-.01 862.02.42 7.65-6.72 14.23-14.23 13.81-99.44.2-198.89-.1-298.33.13 8.45 16.92 18.27 33.1 26.89 49.94-2.31-.05-4.61-.06-6.91-.04-8.27-15.19-16.39-30.48-25.1-45.42-1.03-2.24-3.66-1.77-5.65-1.85-64.64.02-129.28.05-193.92-.05-4.73-.04-9.47 0-14.2.17-9.09 15.45-17.38 31.37-25.78 47.21-2.48-.03-4.96-.04-7.43-.02 9.38-16.49 18.16-33.3 27.2-49.98-99.29-.07-198.58 0-297.87-.05-7.35.65-14.42-5.42-14.87-12.77-.55-9.34-.07-18.71-.24-28.06-.07-277.99-.02-555.99-.03-833.99-.18-5.26 1.71-10.93 6.3-13.89m5.68 8.7c-.36 40.39-.07 80.78-.17 121.17.02 247.67-.03 495.33 0 742.99-.29 2.45 1.73 5.06 4.33 4.84 272.69.01 545.38.03 818.07-.01 3.13.34 5.26-2.87 4.76-5.74-.07-271.71.02-543.43-.05-815.14-.17-16.07.34-32.17-.25-48.22-275.56.16-551.13-.05-826.69.11zM31.37 202.4c10.63 6.5 21.18 13.13 31.9 19.48-.07 40.07-.07 80.13-.02 120.2-10.45 6.78-21.46 12.67-31.92 19.47-.05-53.05-.12-106.1.04-159.15zM949.45 221.57c10.61-6.32 21.07-12.88 31.67-19.22.29 53.1.12 106.21.1 159.32-10.56-6.49-21.23-12.81-31.77-19.34-.37-18.11-.02-36.23-.14-54.34.13-22.14-.24-44.29.14-66.42zM31.29 451.28c10.57 6.65 21.6 12.58 31.99 19.52-.07 37.39-.11 74.79-.01 112.18-.1 2.56.33 5.28-.56 7.74-1.81 1.61-3.98 2.71-6.04 3.96-8.5 4.93-16.95 9.96-25.32 15.11-.17-52.84-.08-105.68-.06-158.51zM949.45 470.52c10.41-6.65 21.06-12.92 31.7-19.2.22 52.93.06 105.86.07 158.8-10.53-6.64-21.25-12.99-31.86-19.49-.05-40.04-.18-80.08.09-120.11zM31.32 700.63c10.39 6.89 21.43 12.75 31.9 19.5.04 39.99-.05 79.99.06 119.98-10.45 6.81-21.42 12.8-31.99 19.44-.02-52.98-.03-105.95.03-158.92zM959.69 713.66c7.05-4.45 14.21-8.75 21.46-12.88.15 52.93.1 105.87.05 158.8-10.66-6.27-21.14-12.82-31.73-19.19-.46-11.79-.02-23.6-.15-35.4.08-28.22-.25-56.48.17-84.69 2.88-2.89 6.81-4.42 10.2-6.64z"/></g><g fill="#191a1c"><path d="M92.8 96.83c275.56-.16 551.13.05 826.69-.11.59 16.05.08 32.15.25 48.22.07 271.71-.02 543.43.05 815.14.5 2.87-1.63 6.08-4.76 5.74-272.69.04-545.38.02-818.07.01-2.6.22-4.62-2.39-4.33-4.84-.03-247.66.02-495.32 0-742.99.1-40.39-.19-80.78.17-121.17zM582.41 993.04c.61-1.74 2.71-3.2 4.4-1.94 2.09 1.22.62 5.03-1.75 4.44-1.42-.04-1.84-1.68-2.65-2.5zM498.14 991.08c1.48-.02 2.96-.02 4.45-.01.07 7.84.06 15.68.04 23.53-1.95-.25-5.57.97-4.41-2.39-3.51 3.96-10.45 3.22-13.39-1.03-3.67-4.61-2.19-12.58 3.42-14.91 3.17-1.6 6.79-.7 9.91.52-.02-1.92-.01-3.81-.02-5.71m-8.03 9.07c-4.01 2.21-3.13 9.26 1.35 10.35 3.79 1.16 7.59-2.8 6.53-6.55-.36-3.56-4.87-5.64-7.88-3.8zM575.51 990.85c1.4.01 2.81.03 4.22.07.2 7.85-.05 15.7.2 23.55-1.42.07-2.83.14-4.24.23l.06-2.09c-3.16 2.52-7.8 2.98-11.25.77-5.76-3.55-5.81-13.38.24-16.66 3.41-2.17 7.82-1.45 11.04.73-.18-2.21-.26-4.4-.27-6.6m-8.2 9.51c-3.86 2.17-3.17 8.86 1.13 10.06 3.43 1.25 7.28-1.72 7.01-5.34.18-4-4.77-7-8.14-4.72zM530.65 991.49c1.46.03 2.94.09 4.42.15.05 1.53.12 3.09.19 4.65.71 0 2.11.01 2.81.01l.04 4.45-2.94-.28c.05 3.26-.19 6.57.47 9.8.67.11 1.99.34 2.66.45.13 1.33.27 2.67.41 4.03-3.27.31-7.28-1.07-7.84-4.73-.56-6.16-.1-12.36-.22-18.53zM406.51 995.69c3.59-1.07 7.54-.48 10.86 1.17-.41 1.02-.82 2.06-1.22 3.1-2.87-.97-5.92-1.46-8.86-.48-.61 3.98 4.29 2.89 6.7 3.81 4.51.66 5.8 7.26 2.13 9.81-4.09 2.92-10.2 1.88-14.04-1.06.87-1.01 1.77-1.97 2.67-2.94 2.55 1.8 6.33 3.04 8.98.75.47-1.34-.23-2.68-1.72-2.63-2.79-.74-6.2-.62-8.19-3.05-2.34-2.79-.61-7.37 2.69-8.48z"/><path d="M423.39 997.4c3.85-3.03 10.16-3.09 13.51.76 2.07 2.21 2.04 5.38 2.46 8.21-4.79.38-9.6.24-14.4.41 1.23 4.16 7.27 5.27 10.19 2.25.75 1.01 2.75 1.75 2.29 3.26-3.27 2.83-8.29 3.22-12.13 1.44-5.99-2.84-7.06-12.2-1.92-16.33m1.14 5.34c3.49.15 6.98.18 10.46.02-1.28-5.1-8.76-4.6-10.46-.02zM441.12 1006.08c-1.4-6.9 6.08-12.6 12.49-10.52 4.93 1.1 7.05 6.42 6.62 11.03-4.86.23-9.72.06-14.58.19 1.61 4.34 7.23 5.07 10.58 2.29.87.99 1.71 1.96 2.56 3-5.68 5.27-17.42 2.57-17.67-5.99m4.73-2.97c3.36-.07 6.73-.21 10.1-.43-1.51-4.59-9.48-4.91-10.1.43zM463.46 1010.41c-3.76-5.81.19-15.19 7.53-15.16 6-.9 12.04 5.51 9.61 11.29-4.66.45-9.35 0-14.01.16 1.5 4.39 7.29 5.28 10.5 2.22.9.98 1.8 1.97 2.69 2.99-4.47 4.33-12.85 3.84-16.32-1.5m3.16-7.67c3.36.22 6.73.16 10.1.05-1.27-4.96-8.5-4.54-10.1-.05zM513.04 1002.98c-1.7-4.27 2.79-8.41 6.98-7.8 2.61.19 7.87.1 7.28 3.94-3.24 1.45-7.01-1.35-10.08.81.56 4.5 6.7 2 9.3 4.63 3.16 2.79 1.68 8.48-2.28 9.69-4.04 1.08-8.81.62-12.07-2.2.87-.99 1.77-1.95 2.68-2.89 2.33 1.41 5.22 2.83 7.93 1.46 1.56-.32 1.22-2.75-.12-3.06-3.38-.9-7.99-.82-9.62-4.58zM553.34 995.53c1.5-.01 3.01 0 4.53.02-.23 4.67.42 9.43-.44 14.04-2.32 6.85-13.64 6.98-15.98.07-1.12-4.62-.41-9.43-.53-14.13 1.48-.04 2.97-.07 4.46-.09.1 4.07-.2 8.17.15 12.25.5 3.62 6.83 4 7.55.31.47-4.14.2-8.32.26-12.47zM597.44 995.57c5.23-1.43 11.58 1.83 12.45 7.4 1.6 6-3.8 12.34-9.95 11.8-5.27.21-10.12-4.43-9.75-9.76-.44-4.46 2.98-8.54 7.25-9.44m-.23 4.67c-3.91 2.2-3.15 8.92 1.2 10.12 3.16 1.15 6.64-1.15 7.13-4.4 1.2-4.49-4.58-8.29-8.33-5.72zM583.15 997.23c1.49.04 2.99.12 4.5.21.07 5.74.05 11.48.02 17.23-1.5-.04-2.99-.07-4.47-.08.06-5.79-.04-11.58-.05-17.36z"/></g></svg>