<svg width="752pt" height="1424pt" viewBox="0 0 752 1424" xmlns="http://www.w3.org/2000/svg"><g fill="#fff"><path d="M121.48 180.2l2.85.03c.23 3.76.7 7.5 1.26 11.22.65-3.72 1.38-7.43 2.11-11.14.77.07 1.54.14 2.32.22.41 3.76 1.06 7.48 1.96 11.16.23-3.8.36-7.6.54-11.39l3.22.04c-.77 5.78-1.8 11.54-2.38 17.36-1.03-.05-2.05-.09-3.08-.13-.51-3.69-.93-7.38-1.52-11.05-.86 3.7-1.5 7.45-2.16 11.2-.95-.04-1.91-.09-2.86-.13-.53-5.82-1.58-11.58-2.26-17.39zm19.9.21c.89-.01 1.78-.01 2.67 0 1.69 5.81 3.72 11.53 5.28 17.39-.72-.01-2.14-.01-2.85-.01-.47-1.39-.94-2.77-1.4-4.15-1.74-.03-3.48-.05-5.22-.07-.4 1.4-.8 2.81-1.2 4.22-.78 0-2.36-.01-3.14-.01 1.79-5.85 3.87-11.59 5.86-17.37m1.03 3.8c-.6 2.35-1.22 4.68-1.85 7.02 1.37.03 2.74.05 4.12.08-.77-2.36-1.51-4.73-2.27-7.1zm21.93-3.66c1.05 0 2.09.01 3.14.03 1.98 3.93 3.86 7.9 5.8 11.86.08-3.93.08-7.87.06-11.8l2.99.04c-.16 5.95-.03 11.91-.14 17.86-1.2-.64-3.11-.42-3.64-1.95-1.92-3.48-3.52-7.13-5.28-10.69-.02 4.09-.01 8.18-.01 12.27-.75-.02-2.26-.05-3.01-.06-.1-5.86.24-11.71.09-17.56zm-13.6-.14c3.76.31 9.05-1.33 11.25 2.79 1.6 2.98-.23 6.07-2.82 7.67 1.55 2.34 2.85 4.85 3.79 7.5-4.25.54-4.63-4.1-6.25-6.83-.76-.21-2.28-.62-3.04-.83-.06 2.38-.09 4.76-.11 7.15-.73-.01-2.19-.01-2.92-.01.3-5.81.1-11.63.1-17.44m2.86 2.2c-.01 2.1 0 4.21.05 6.33 2.54-.1 6.37-.54 5.98-4.02-.95-2.56-3.87-2.02-6.03-2.31zm24.92-1.98c3.67.02 7.35.03 11.02.28-.64 2.29-2.84 2.33-4.76 2.6.04 4.08.05 8.16.06 12.25 1.27-.03 2.54-.05 3.81-.07-.01.82-.03 1.65-.05 2.48-3.38.03-6.77.03-10.15-.02.02-.85.05-1.7.09-2.55h3.34c.01-4.14.24-8.27.28-12.4-.92.01-2.77.04-3.7.06.02-.66.05-1.98.06-2.63zm12.35.09l3.11.12c1.82 3.97 3.77 7.89 5.75 11.79-.01-3.92-.08-7.84-.14-11.76.74-.02 2.21-.08 2.94-.11-.16 5.97.02 11.94-.04 17.92-1.51-.41-3.34-.56-3.8-2.35-1.72-3.25-3.28-6.59-4.98-9.85-.07 3.9-.02 7.8.03 11.71-.75.01-2.27.04-3.02.06.24-5.84.17-11.69.15-17.53zm15.18 2.39c2.61-3.63 9.06-2.98 10.81 1.2 1.37 1.25-1.1 1.87-1.42 2.99-1.48-1.67-3.19-5.6-5.99-3.7-2.34 1.98-2.5 5.5-2.14 8.34.27 2.25 2.16 4.75 4.66 4.34 1.98.13 1.89-2.15 2.53-3.45-1.66-.62-3.3-1.29-4.92-2 2.32-1.45 5.03-1.3 7.63-1.2-.51 2.73.82 6.84-2.21 8.37-2.96 1.35-7.25 1.1-9.09-1.93-2.45-3.84-2.32-9.16.14-12.96zm41.47-1.46c3.44-1.66 8.03.54 8.69 4.36.42 3.36.66 7.12-1.07 10.17-1.73 3.06-6.21 3.82-8.89 1.57-2.51-2.09-2.83-5.65-2.69-8.7.07-2.87 1.18-6.1 3.96-7.4m.76 2.55c-2.75 3.23-2.7 9.57.72 12.38 5.16.41 4.86-6.11 4.34-9.6.04-2.48-3.03-4.54-5.06-2.78zm10.27-2.81c3.59.36 8.23-1.03 10.88 2.15 2.42 2.77.8 7.32-2.5 8.52-1.81.42-3.68.37-5.51.46.01 2.13 0 4.26-.03 6.39l-3.02-.04c.03-5.83.23-11.65.18-17.48m2.91 2.31c-.01 2.24.01 4.49.08 6.74 1.91-.54 4.5-.19 5.79-2.03.92-1.11.38-2.47-.22-3.58-1.69-1.02-3.77-.85-5.65-1.13zm10.98-2.06c3.74-.08 7.48-.07 11.23-.08l-.04 2.26c-2.73.02-5.45.05-8.17.06-.02 1.77-.03 3.55-.04 5.33 2.35-.05 4.7-.09 7.06-.12-.02.56-.04 1.68-.05 2.24-2.34 0-4.68-.01-7.01-.01-.02 1.75-.02 3.5-.03 5.25 2.96-.01 5.92-.01 8.88.15-.28.57-.85 1.71-1.14 2.28-3.56.27-7.14.08-10.71.11-.09-5.83.16-11.65.02-17.47zm13.38.07c3.69.15 8.61-1.16 11.11 2.39 1.81 2.89-.04 6.19-2.2 8.25 1.22 2.35 2.37 4.74 3.55 7.12-.86-.12-2.57-.35-3.43-.47-1.85-2.6-2.33-6.49-5.91-7.36-.1 2.5-.14 5.02-.12 7.53-1.01 0-2.02.01-3.02.01.09-5.82.07-11.65.02-17.47m2.96 2.24c.01 2.15.04 4.3.08 6.46 2.13-.48 6.09-.25 5.88-3.4.06-3.25-3.76-2.65-5.96-3.06zm15.69-1.81c2.22-1.67 2.98 1.28 3.54 2.89 1.58 4.92 3.13 9.87 4.4 14.89-2.95.15-3.47-2.39-4.31-4.55-1.79-.23-3.6-.18-5.4-.22-.36 1.38-.71 2.76-1.05 4.14-.77-.01-2.32-.05-3.09-.06 1.87-5.73 3.57-11.53 5.91-17.09m1.16 3.59c-.81 2.38-1.61 4.77-2.36 7.18 1.41-.06 2.83-.12 4.25-.16-.66-2.34-1.28-4.68-1.89-7.02zm36.88-3.08c2.9-1.26 6.74-.13 7.99 2.92 1.42 3.61 1.39 7.97-.39 11.45-2.12 4.09-8.85 3.66-10.59-.57-1.83-4.41-1.82-11.3 2.99-13.8m.72 2.33c-2.31 1.9-1.84 5.3-1.71 7.95.01 2.28 1.75 5.33 4.43 4.38 3.23-1.84 2.74-6.1 2.41-9.23-.02-2.48-2.93-4.78-5.13-3.1zm9.9-2.54c1.05.02 2.11.05 3.18.08 1.77 3.87 3.54 7.75 5.43 11.57.31-3.8.42-7.62.35-11.43.91 0 1.82 0 2.73.01-.07 5.75.07 11.49 0 17.24l-2.91-.04c-1.87-3.84-3.73-7.69-5.62-11.53-.21 3.83-.37 7.65-.41 11.48l-2.84-.2c.16-5.73.22-11.45.09-17.18zm26.82.24l2.66.04c.43 3.88.72 7.77 1.15 11.65.82-3.59 1.21-7.27 2.17-10.82.55-.31 1.65-.94 2.19-1.25.44 3.77.93 7.54 1.88 11.23.47-3.57.89-7.14 1.28-10.72.66.01 1.98.02 2.64.03-.53 5.83-1.45 11.61-2.33 17.38-.73 0-2.17-.01-2.89-.01-.48-3.69-1.02-7.38-1.73-11.03-.73 3.62-1.34 7.25-1.81 10.91l-2.89.04c-.79-5.82-1.66-11.62-2.32-17.45zm-68.68-.23c4.66-.48 9.35-.29 14.03-.32l-.02 2.49c-1.66-.03-3.32-.06-4.97-.1.1 5.01.03 10.02-.02 15.04-.99 0-1.97.01-2.94.02.1-5.04.11-10.07.14-15.1-2.17-.38-5.24.82-6.22-2.03z"/><path d="M326.85 182.26c3.84-.04 7.72-.28 11.5.6-1.52.99-3.18 1.71-4.92 2.21-.03 3.91.02 7.82.04 11.73 1.83.24 3.63.67 4.6 2.42-3.67.52-7.37.31-11.06.31.03-.62.09-1.84.11-2.46.85.02 2.56.04 3.41.06.07-4.18.06-8.35.12-12.53-1.29 0-2.57-.01-3.85-.01l.05-2.33zm68.09 2.88c1.78-3.98 6.97-1.6 10.37-2.25.03.59.1 1.78.13 2.37-1.21.11-2.42.23-3.62.35.01 4.07 0 8.14-.03 12.21 1.2 0 2.41-.01 3.62-.01-.01.64-.04 1.92-.05 2.55-3.58-.01-7.16.03-10.73-.16.54-2.2 2.38-2.53 4.33-2.57-.12-4.07-.08-8.14.04-12.21l-4.06-.28zm12.02-1.98c4.3-.08 8.6-.11 12.9-.05-.02.57-.07 1.7-.09 2.27l-4.99-.03c.06 5.02-.01 10.03-.03 15.05-.68 0-2.02-.01-2.69-.01.04-4.98.01-9.96.1-14.94-1.79-.03-3.57-.05-5.35-.07.04-.56.11-1.67.15-2.22zm14.5-.12c.94.01 1.89.02 2.85.04 0 2.36.01 4.73.01 7.09 2.02-.02 4.05-.03 6.08-.04.03-2.34.03-4.68.03-7.02.72.01 2.16.05 2.87.06-.23 5.84-.23 11.7.04 17.54-1.01-.03-2.01-.05-3.01-.07-.01-2.68-.03-5.36-.03-8.03-2.02.03-4.04.03-6.04.03.01 2.64.01 5.28.02 7.92-.96-.03-1.93-.05-2.88-.07.03-5.82.17-11.64.06-17.45zm17.86.43c3.06-1.14 6.92.33 7.87 3.6.95 3.42.92 7.32-.45 10.63-1.57 3.8-7.26 4.16-9.83 1.24-2.02-2.13-2.03-5.31-2-8.06.04-2.97 1.31-6.46 4.41-7.41m.01 2.84c-1.88 2.1-1.57 5.22-1.38 7.83.16 2.11 1.58 4.69 4.05 4.45 3.64-1.67 2.97-6.39 2.75-9.65-.02-2.57-3.52-4.88-5.42-2.63zm-217.72.68c-.46-1.83 2.78-3.44 3.7-1.47 1.52 1.55-.56 2.86-1.24 4.23-.8-.9-2.6-1.29-2.46-2.76zm227.99-3.71c.74.02 2.21.06 2.94.09.07 4.4-.49 8.84.1 13.22.63 2.86 5.22 2.63 5.59-.28.54-4.23.19-8.52.29-12.77l2.86-.04c-.24 4.49.25 9.01-.31 13.48-1.1 5.37-10.07 5.35-11.22.01-.72-4.53-.07-9.15-.25-13.71zm14.04.4c4.22-.31 8.46.02 12.69-.13-.04.77-.07 1.54-.1 2.31-1.83-.02-3.66-.04-5.48-.05-.02 5.08.07 10.17-.08 15.25l-2.87.04c0-5.09 0-10.18.15-15.27-1.9-.03-3.79-.08-5.67-.2.34-.49 1.02-1.46 1.36-1.95zm32.42.14c.65-.02 1.95-.06 2.6-.09 1.88 5.92 3.9 11.79 5.73 17.73-.81-.03-2.44-.08-3.25-.11-.32-1.39-.62-2.77-.94-4.15-1.89-.08-3.78-.1-5.66-.15-.37 1.4-.73 2.79-1.09 4.19-.79.01-2.38.03-3.18.03 1.98-5.8 3.9-11.62 5.79-17.45m-.73 11.05l4.13-.06c-.73-2.28-1.43-4.56-2.1-6.85-.65 2.31-1.34 4.61-2.03 6.91zm10.32-11.07c.77.12 2.33.36 3.11.47 1.92 3.77 3.76 7.58 5.55 11.42.07-3.97.08-7.94.04-11.9.72.08 2.16.25 2.89.33-.01 5.79-.07 11.59.01 17.38-.78-.01-2.32-.05-3.1-.06-1.62-4.14-3.65-8.1-5.54-12.11-.15 4.02-.12 8.05-.08 12.08l-2.96.04c.04-5.88-.15-11.77.08-17.65zm32.29.54c.87-.01 1.75-.03 2.64-.05 1.93 5.81 3.76 11.65 5.65 17.47-.81 0-2.44-.01-3.25-.01-.31-1.36-.6-2.72-.88-4.07-1.9-.04-3.79-.09-5.67-.13-.33 1.37-.64 2.75-.94 4.14-1.15-.02-2.29-.05-3.42-.07 2.05-5.73 3.96-11.5 5.87-17.28m-.64 10.85c1.34-.02 2.69-.03 4.05-.04-.74-2.26-1.43-4.53-2.13-6.8-.65 2.28-1.28 4.56-1.92 6.84zm10.11-10.89c1.04.08 2.08.16 3.14.25 1.9 3.79 3.33 7.91 6.05 11.21.18-3.7-.45-7.37-.43-11.07.76 0 2.28.01 3.04.02-.07 5.72-.15 11.44-.03 17.17h-3.15c-1.79-4.02-3.76-7.96-5.63-11.95-.13 3.98-.15 7.97-.16 11.96-.72-.01-2.18-.04-2.91-.05-.05-5.85-.15-11.69.08-17.54zm41.74.5c1 0 2 .01 3.02.02 1.86 3.9 3.72 7.8 5.69 11.65.08-3.87.04-7.74-.03-11.61.73.05 2.2.13 2.93.18-.04 5.74.05 11.49 0 17.24-1.03.03-2.06.05-3.07.08-1.96-4.19-3.78-8.44-5.79-12.6.05 4.18 0 8.35-.01 12.53-.73-.01-2.21-.04-2.94-.05.27-5.81.09-11.63.2-17.44zm-28.43-.17c4.66.05 9.34-.08 14 .2-.67 3.1-3.88 2.08-6.15 2.4.03 4.95.02 9.9-.05 14.86-.73 0-2.2 0-2.93.01.05-5.09.12-10.17.26-15.25-1.7.02-3.39.05-5.06.09-.02-.58-.06-1.73-.07-2.31zm15.05.08c3.72-.09 7.44-.07 11.17.06-.04.59-.11 1.76-.15 2.35-2.7 0-5.4.01-8.09 0-.03 1.59-.04 3.19-.06 4.79 2.75.37 7.04-1.52 8.04 2.23-2.69.13-5.37.17-8.05.14-.01 1.81-.02 3.61-.02 5.42 3.01-.02 6.03.01 9.05.13-.32.57-.95 1.7-1.26 2.27-3.55.3-7.11.07-10.65.08-.04-5.83 0-11.65.02-17.47zm27.52-.13c.99.29 1.98.61 2.97.96 2.07 3.52 3.57 7.34 5.46 10.96.03-3.87.02-7.74.02-11.6h2.99c-.04 5.83.02 11.65 0 17.47l-2.97.06c-1.7-3.99-3.74-7.81-5.72-11.66.04 3.86.05 7.72.06 11.59-.74.01-2.23.02-2.98.03.11-5.94-.22-11.88.17-17.81zm18.35.68c.99-.04 1.98-.09 2.98-.13 1.68 5.94 3.74 11.78 5.26 17.78-3.2.41-3.7-2.26-4.21-4.67-1.67.05-3.33.07-4.99.08-.66 2.4-1.36 5.04-4.54 4.33 1.31-5.95 3.87-11.52 5.5-17.39m-.42 10.67c1.25-.09 2.5-.19 3.76-.27-.68-2.15-1.35-4.32-1.98-6.48-.61 2.25-1.18 4.5-1.78 6.75zm-398.33-1.24c1.69-.84 2.53 1.45 3.62 2.25-1.04.52-2.1 2.58-3.4 1.73-1.91-.36-2.13-3.41-.22-3.98zm-80.97 16.66c.9-.01 2.68-.03 3.57-.05.8 2.53 1.61 5.06 2.45 7.58.78-2.43 1.59-4.85 2.43-7.26 1.29-.04 2.57-.07 3.86-.09-.14 5.71.18 11.44-.29 17.15l-2.68.88c-.15-4.55.27-9.09.22-13.64-1.17 2.98-1.95 6.16-3.84 8.8-1.38-2.77-2.12-5.79-3.19-8.68 0 4.5.42 8.99.11 13.49-.64-.26-1.93-.77-2.58-1.03-.27-5.71 0-11.43-.06-17.15zm13.23 18.07c1.68-5.99 4.3-11.68 5.63-17.77.73 0 2.2-.01 2.93-.01 1.53 5.96 3.71 11.72 5.47 17.61-.81-.03-2.44-.1-3.25-.14-.3-1.44-.61-2.87-.91-4.31-1.81.05-3.61.09-5.42.13-.42 1.34-.78 2.7-1.31 4.01l-3.14.48m4.98-6.78c1.27-.08 2.55-.16 3.83-.22-.55-2.34-1.11-4.66-1.73-6.97-.65 2.41-1.33 4.81-2.1 7.19zm9.07-10.96c.85.01 2.56.02 3.41.03a284.6 284.6 0 0 1 3.38 8.52c1.25-2.71 2.27-5.56 3.85-8.1.84-.15 2.51-.46 3.35-.61-2.5 5.76-6.96 11.19-5.79 17.89-.71 0-2.13.01-2.84.01 1.18-6.55-2.78-12.1-5.36-17.74zm29.38.22c2.99.06 6.08-.28 9 .55 3.26 1.41 4.23 6.32 1.48 8.7-1.98 2.1-5.08 1.75-7.68 2.08.02 2.08.03 4.16.04 6.24-.74-.01-2.21-.04-2.95-.06.09-5.83.11-11.67.11-17.51m2.88 2.25c-.06 2.17-.06 4.35-.01 6.52 2.56-.02 6.34-.12 6.46-3.55-.46-3.12-4.13-2.69-6.45-2.97zm11.08-2.12c3.86.09 7.72.11 11.58.12.02.56.05 1.7.07 2.27-2.89.03-5.78.03-8.66 0-.03 1.68-.05 3.37-.08 5.06 2.36-.06 4.72-.11 7.08-.13l.04 2.49c-2.37-.03-4.73-.07-7.09-.1.03 1.8.06 3.6.1 5.4 3.03.69 7.89-1.74 9.18 2.18-4.09.37-8.2.2-12.29.18.08-5.82.12-11.65.07-17.47zm13.72.04c3.66.38 8.6-1.06 11.12 2.42 2 2.88 0 6.32-2.31 8.27 1.43 2.38 2.66 4.87 3.53 7.51-5.41.28-4.24-7.24-9.18-7.93-.19 2.44-.22 4.89-.23 7.34-.77-.03-2.32-.08-3.1-.1.07-5.84.16-11.67.17-17.51m2.92 2.48c-.04 2.05-.06 4.11-.03 6.17 2.22-.31 5.45.13 6.18-2.68.7-3.62-3.82-3.22-6.15-3.49zm29.74-2.09c.96 0 1.92.01 2.89.03 1.57 5.95 3.68 11.73 5.32 17.67-.79-.09-2.38-.27-3.18-.35-.3-1.24-.6-2.47-.89-3.7-1.86-.04-3.72-.06-5.57-.06-.38 1.28-.74 2.57-1.1 3.86-1.01.07-2.01.15-3.01.24 1.73-5.94 3.96-11.71 5.54-17.69m1.41 4.13c-.54 2.32-1.22 4.61-1.98 6.87 1.31-.03 2.64-.06 3.96-.08-.7-2.25-1.35-4.52-1.98-6.79zm44.77-3.8l2.94.06c.08 5.82-.25 11.64-.17 17.46l-3.02.12c-1.67-4.01-3.57-7.91-5.55-11.78-.06 3.89-.07 7.78-.12 11.66l-2.97-.03c.04-5.96.02-11.92.1-17.88 1.05.32 2.08.69 3.1 1.12 2.13 3.58 3.75 7.44 5.71 11.12-.07-3.95-.04-7.9-.02-11.85zm-64.97-.32c1.2 0 2.41 0 3.61.02.84 2.53 1.57 5.09 2.27 7.67.82-2.55 1.58-5.12 2.34-7.69 1.27 0 2.55-.01 3.83 0-.18 5.94.04 11.89-.07 17.84-.7-.2-2.09-.6-2.79-.81-.13-4.2.26-8.41.19-12.61-1.14 2.93-2.06 5.97-3.56 8.75-1.79-2.49-2.26-5.57-3.2-8.42-.24 4.09.21 8.19-.02 12.28-.71.18-2.13.56-2.84.75-.05-5.93.35-11.85.24-17.78zm28.4.12c.78.04 2.36.12 3.14.15 1.83 3.96 3.75 7.86 5.59 11.81-.03-3.94-.08-7.88-.13-11.82.76.01 2.27.04 3.03.06 0 5.77-.05 11.54-.04 17.32-.79 0-2.35.01-3.14.02-1.86-4.05-3.62-8.15-5.49-12.2-.17 4.07-.12 8.15-.09 12.23-.76-.02-2.28-.07-3.04-.09.1-5.82.2-11.65.17-17.48zm14.35.22c3.7-.03 7.4-.04 11.1 0-.03.59-.08 1.75-.11 2.34-2.73.03-5.45.05-8.17.04.01 1.61.02 3.23.04 4.85 2.74.28 6.95-1.59 7.92 2.17-2.64.15-5.28.17-7.91.12.02 1.81.03 3.61.04 5.42 2.8-.02 5.59 0 8.39 0 0 .61-.01 1.83-.01 2.44-3.81.01-7.61.04-11.41-.01.09-5.79.15-11.58.12-17.37zm25.67.59c4.77-.57 9.59-.26 14.38-.26-.02.58-.07 1.73-.09 2.31-1.83-.01-3.65-.03-5.47-.04.09 5.01.05 10.02.09 15.04l-2.88-.04c.06-5.02.05-10.04.17-15.05-2.27-.12-5.21.83-6.2-1.96zm28.35-.63c5.14-.37 5.06 5.75 6.83 9.1 1.31-2.87 2.64-5.73 3.93-8.6 1.06.01 2.12.02 3.18.04-2.67 5.53-6.69 10.88-5.69 17.39-.98.01-1.95.03-2.93.04 1.04-6.65-3.32-12.01-5.32-17.97zm-12.15.36l2.89.12c-.02 4.96-.03 9.93.05 14.89 2.82.01 5.64.02 8.46.02.02.79.05 1.58.08 2.38-3.86.04-7.72.03-11.58.04.03-5.82.23-11.64.1-17.45zm41.33.42c3.58.15 8.19-.53 10.5 2.92 2.56 4.06 2.34 10.43-1.75 13.44-2.57 1.66-5.81 1.03-8.7 1.2.03-5.86-.25-11.71-.05-17.56m2.81 2.16c-.04 4.38-.08 8.76-.03 13.15 1.81-.4 4.1-.26 5.22-2.04 2.78-4.28.76-11.5-5.19-11.11zm15.57-2.02c.7.02 2.09.06 2.79.07 1.83 5.96 3.67 11.92 5.36 17.93-3.12.37-3.7-2.25-4.28-4.6-1.88.09-3.74.19-5.61.31-.26 1.26-.51 2.52-.75 3.78l-3.29.08c2.12-5.79 3.97-11.68 5.78-17.57m1.5 3.87c-.81 2.45-1.6 4.91-2.37 7.38l4.03-.15c-.58-2.4-1.12-4.82-1.66-7.23zm7.97-3.73c1.18.02 2.38.03 3.58.06.77 2.52 1.55 5.05 2.41 7.55.8-2.44 1.44-4.93 2.44-7.3 1.16-.23 2.34-.41 3.54-.52-.02 5.92-.13 11.85-.04 17.77l-2.73.02c.05-4.41.07-8.82.14-13.23-1.36 2.61-1.09 6.76-3.97 8.09-1.15-2.57-1.86-5.31-2.79-7.96-.07 4.35.04 8.7.07 13.05-.69-.02-2.06-.05-2.74-.06-.02-5.83.02-11.65.09-17.47zm18.8.2c.93.05 1.86.11 2.8.15 1.84 5.81 3.49 11.67 5.31 17.48-3.29.66-3.91-1.98-4.4-4.5-1.7.08-3.38.17-5.06.26-.39 1.36-.76 2.72-1.13 4.09-.85-.05-2.55-.13-3.4-.18 1.97-5.76 4.11-11.47 5.88-17.3m-.81 11.16c1.36-.14 2.71-.27 4.07-.41-.68-2.53-1.32-5.06-1.9-7.61-.69 2.68-1.42 5.35-2.17 8.02zm10.91-8.25c1.89-3.93 8.48-4.42 10.57-.43.94 1.28.58 2.88-.29 4.09-1.8-1.57-3.05-5.27-6.06-4.02-2.77 1.27-2.47 4.89-2.43 7.43-.15 2.51 1.51 5.59 4.36 5.41 1.58-.06 2.32-1.51 2.89-2.75-1.55-1.32-3.27-2.41-4.8-3.75 2.36-.14 4.73-.15 7.1-.08-.14 2.49.75 5.43-.82 7.6-3.43 2.56-9.5 1.63-11.12-2.68-.99-3.5-1.02-7.51.6-10.82zm13.75-2.71c3.78 0 7.55-.04 11.33-.02.01.63.02 1.9.03 2.53-2.77-.06-5.53-.1-8.29-.11-.03 1.65-.06 3.31-.08 4.97 2.43-.05 4.86-.08 7.3-.05-.06.87-.11 1.74-.16 2.61-2.35-.11-4.69-.23-7.03-.31-.05 1.8-.08 3.61-.11 5.42 2.84 0 5.68.01 8.52 0v2.42c-3.87-.01-7.75-.04-11.62-.07.05-5.8.39-11.6.11-17.39zm27.35.45c4.42-.3 8.88-.15 13.31.03-.68 3.07-3.81 2.03-6.1 2.2.04 4.98.02 9.95.01 14.93l-2.91.36c-.04-5.1.04-10.2.09-15.3-1.96-.05-3.91-.15-5.86-.29.36-.48 1.09-1.45 1.46-1.93zm14.22.38l2.49-.8c.15 2.54.18 5.09.19 7.64 2.02-.02 4.05-.03 6.09-.05l-.09-7.18c.75 0 2.24-.01 2.99-.01-.11 5.89-.14 11.78-.05 17.67-1-.02-2-.05-2.99-.08 0-2.63 0-5.26.02-7.89-2.05-.03-4.1-.07-6.14-.11-.01 2.64-.01 5.28.03 7.92-.95-.01-1.9-.02-2.84-.02.18-5.7-.31-11.42.3-17.09zm14.14 17.23c.02-5.86.21-11.71.18-17.57 3.72.04 7.44.02 11.17.01-.04.62-.11 1.85-.15 2.47-2.72-.03-5.44-.05-8.15-.07 0 1.67.01 3.35.03 5.02 2.39-.03 4.8-.05 7.21-.07.04.62.14 1.85.19 2.47-2.5-.04-5-.07-7.49-.1.01 1.8.03 3.61.05 5.41 2.77-.05 5.53-.07 8.3-.12l-.12 2.55c-3.75-.03-7.48-.01-11.22 0zm27.46-17.21c3.55.2 8.14-.68 10.47 2.78 2.44 3.69 2.34 9.34-.65 12.7-2.56 2.7-6.55 1.89-9.86 1.96-.03-5.81.04-11.63.04-17.44m3.02 2.08c-.14 4.48-.13 8.95-.04 13.43 1.41-.49 3.03-.62 4.29-1.52 3.72-3.85 2.04-12.27-4.25-11.91zm11.44-1.99c5.13.06 10.26.12 15.39.06 1.25 4.37 2.42 8.78 3.55 13.19 1.45-4.25 2.71-8.55 3.89-12.87 1.12-.07 2.23-.13 3.36-.18-2.04 5.76-3.93 11.56-5.69 17.41-.72.03-2.18.08-2.91.1-1.72-5.29-3.3-10.63-4.83-15.98l1.12.14c-.78-.16-2.35-.47-3.13-.62l.53 1.31c-2.82-.06-5.64-.08-8.45-.05.01 1.6.02 3.2.04 4.81 2.34.01 4.69.03 7.04.05l.04 2.27c-2.35 0-4.69-.02-7.03-.04-.07 1.81-.15 3.63-.22 5.45 2.75.01 5.5 0 8.26-.05.03.88.08 1.76.12 2.64-3.72-.09-7.45-.06-11.17-.14-.17-5.83.09-11.66.09-17.5zm27.52.27c3.58.09 7.17-.02 10.75.25-.77 1.92-2.48 2.65-4.45 2.73.15 3.96.11 7.92 0 11.89 2.07-.05 4.06.18 4.18 2.75-3.52.03-7.04 0-10.56.01l.2-2.61c.82.01 2.45.04 3.26.05-.07-4.22-.01-8.45.11-12.67h-3.78c.07-.6.22-1.8.29-2.4zm15.78.33c3.86-1.81 8.81 1.11 8.54 5.52-2.97.94-3.26-3.82-6-3.61-2.25-.25-3.45 2.45-3.53 4.34-.12 2.81-.55 6.5 2.01 8.4 2.65 1.63 4.25-1.69 5.7-3.28 1.51-.17 2.03.44 1.55 1.83-.87 4.96-8.97 6.09-11.02 1.37-1.96-4.6-2.25-11.81 2.75-14.57zm10.67-.04c3.75-.06 7.5-.09 11.26-.11-.04.64-.11 1.91-.15 2.55-2.7-.02-5.4-.04-8.1-.07.01 1.6.03 3.2.05 4.81 2.38-.03 4.76-.05 7.15-.07.05.65.14 1.94.19 2.58-2.48-.02-4.96-.07-7.43-.14-.01 1.85-.03 3.7-.03 5.55 2.94-.06 5.89-.08 8.85-.01-.29.59-.85 1.76-1.13 2.35-3.59.29-7.2 0-10.79-.05.22-5.79.22-11.59.13-17.39zm17.35 13.81c1.02-.99 2.99.31 3.04 1.61.54 1.95-2.37 3.35-3.66 1.88-1.39-.96-.74-2.85.62-3.49zM494.34 541.36c1.91-1.57 4.46-.24 5.44 1.74 9.79 16.66 19.1 33.61 28.77 50.35.99 2.16 3.4 5.09 1.05 7.16-1.37 1.64-3.72 1.1-5.58 1.24-19.59-.17-39.2.15-58.79-.2-3.33-.18-4.12-4.33-2.26-6.6 9.55-16.83 19.37-33.51 28.82-50.39.72-1.18 1.42-2.44 2.55-3.3m-28.81 56.77c20.47.06 40.95.03 61.42.01-10.13-18.03-20.54-35.89-30.57-53.97-10.07 18.11-20.85 35.81-30.85 53.96z"/><path d="M484.53 572.06c.41-2.71 1.59-7.14 5.27-5.56-.62 2.19-2.27 4.19-2.17 6.54.96 3.79 4.52 6.71 4.12 10.88-.18 2.47-1.34 5.76-4.32 5.67-.89-2.23 1.43-4.15 1.29-6.39-.87-3.91-4.61-6.92-4.19-11.14zm10.72-5.66c.51-.14 1.52-.44 2.03-.59.91 2.2-.87 4.1-1.26 6.2-.09 4.09 3.98 6.87 3.88 10.95.03 3-1.13 7.31-5 6.51.52-2.55 2.1-4.87 1.96-7.52-1.45-3.29-4.21-6.17-4.13-9.96.18-2.04.94-4.23 2.52-5.59zm5.55 7.65c-.76-3.02 1.04-5.81 2.26-8.42.64.51 1.92 1.53 2.56 2.03-.57 1.83-1.55 3.51-2 5.38.81 3.84 4.82 6.66 4.09 10.92-.16 2.4-1.68 7.21-4.74 4.76.49-1.92 1.4-3.72 1.66-5.68-.59-3.26-3.17-5.75-3.83-8.99zm-24.4 17.68c13.02-.67 26.07-.19 39.1-.21.02 1.01.03 2.02.05 3.04-12.73.27-25.48.11-38.22.05-.23-.72-.7-2.16-.93-2.88zm-137.42 93.7c5.16 3.59 10.33 7.17 15.51 10.74-22.22 32.78-44.95 65.21-67.41 97.83-6.67 9.51-13.12 19.18-19.91 28.62-5.2-3.59-10.38-7.22-15.63-10.73 29.12-42.17 58.38-84.25 87.44-126.46zm76.83 7.45c2.58-3.94 8.13-5.51 12.15-2.79 4.42 3.33 6.78 8.55 10 12.93 12.27 17.44 24.14 35.18 36.24 52.74 13.4 19.03 26.23 38.47 39.63 57.49-5.22 3.62-10.4 7.3-15.72 10.77-20.09-29.27-40.21-58.52-60.31-87.79-4.76-7.01-9.46-14.06-14.5-20.88-24.71 36.03-49.49 72.03-74.28 108-5.27-3.61-10.52-7.24-15.72-10.94 27.73-39.68 54.89-79.78 82.51-119.53zm279.61 161.8c12.48-3.84 27.17 1.97 33.44 13.49 8.92 13.96 2.51 34.72-12.71 41.25-13.42 7.01-31.12.68-38.24-12.35-6.9-11.92-3.76-28.45 7.11-36.96 3.03-2.52 6.63-4.31 10.4-5.43m2.04 6.09c-10.88 2.67-18.37 14.24-16.47 25.27 1.42 10.67 11.15 19.65 22.02 19.67 10.26.56 19.97-6.99 22.59-16.81 2.65-9.27-1.35-19.96-9.47-25.17-5.37-3.79-12.4-4.66-18.67-2.96zm-343.27.96c3.91-.02 7.81-.07 11.72.01a611.6 611.6 0 0 0-.02 9.58c-3.89-.02-7.77-.01-11.65-.09-.05-3.17-.05-6.34-.05-9.5zm-116.24 3.25c5.97-4.23 14.26-4.51 20.93-1.83 3.79 1.46 6.05 5.01 7.77 8.5-3.24 1.08-6.53 2.01-9.8 2.99-1.36-1.67-2.73-3.67-4.98-4.13-2.37-.58-5.9-.33-6.7 2.48.47 2.49 3.26 2.7 5.25 3.31 4.53 1.3 9.69 1.67 13.34 5.01 4.31 3.82 4.84 10.73 2.08 15.61-2.71 4.3-7.87 6.37-12.76 6.86-5.8.55-12.22-.08-16.84-3.98-2.73-2.22-4.14-5.54-5.08-8.82 3.67-.57 7.33-1.14 11.01-1.57 1.35 1.72 2.49 3.94 4.77 4.58 3.07 1.08 7.96.98 8.6-3.08-4.68-4.16-11.89-2.87-16.94-6.53-6.92-3.92-6.93-14.89-.65-19.4zm35.81-2.19c3.66.01 7.33-.18 10.99.08.34 3.29.07 6.61.17 9.92 1.97.01 3.95 0 5.93-.02.08 2.62.2 5.24.31 7.87-2.12-.03-4.23-.06-6.34-.07.13 4.48-.24 8.99.15 13.47 1.19 2.41 4.13 1.26 6.2 1.25-.07 2.74-.19 5.48-.32 8.23-4.21.48-8.74 1.31-12.72-.6-2.69-1.19-4.45-3.93-4.61-6.83-.39-5.21-.08-10.43-.2-15.64-1.43.01-2.85.03-4.26.05.02-2.55.06-5.08.12-7.61 1.45.01 2.91.04 4.36.07.06-3.4.11-6.79.22-10.17zm59.08.42c3.69-.02 7.38 0 11.08.08-.01 3.37-.01 6.74.01 10.12 2.08.09 4.15.17 6.24.27-.02 2.39-.03 4.79-.06 7.2h-6.33c.09 4.42-.24 8.87.13 13.29.83 2.78 4.12 1.3 6.22 1.48.01 2.79 0 5.59-.03 8.41-4.21.48-8.71 1.19-12.73-.59-2.59-1.1-4.56-3.62-4.72-6.46-.37-5.44-.05-10.9-.14-16.34-1.58.02-3.16.04-4.74.09-.01-2.45 0-4.89.01-7.33 1.62-.03 3.25-.03 4.88-.03.09-3.4.15-6.8.18-10.19zm130.25 7.83c5.85-7.95 18.03-9.6 26.13-4.27 3.91 2.58 5.93 7.05 7.25 11.39-3.94.46-7.91.67-11.85 1.14-1.01-2.71-2.09-6.42-5.6-6.53-3.34-.61-5.86 2.41-6.5 5.38-.96 4.63-1.16 9.6.32 14.15.9 3.02 4.08 5.09 7.22 4.5 2.79-.32 4.11-3.07 5.42-5.18-2.52-.22-5.05-.32-7.57-.4 0-2.7.01-5.39.01-8.07 6.05-.49 12.11-.04 18.17 0 .02 7.51-.33 15.03-.28 22.55-2.03 0-4.05 0-6.06-.02-.47-1.3-.92-2.6-1.36-3.89-2.96 2.45-6.45 4.54-10.43 4.46-7.56.5-14.94-4.45-17.42-11.59-2.67-7.67-2.27-16.88 2.55-23.62zm45.14-4.78c5.99-3.26 14.01-3.08 19.62.89 5.47 4.22 5.82 13.07 1.48 18.21-3.55 4.31-8.43 7.18-12.85 10.49 5.22.06 10.45.01 15.67.04-.04 3.32-.16 6.65-.31 9.98-10.25 0-20.51-.04-30.76-.02.01-3.2.03-6.39.08-9.57 4.71-3.69 9.75-6.95 14.37-10.76 2.46-2.22 5.32-4.95 5.12-8.55.04-3.83-5.96-5.45-7.81-2.14-.96 1.73-1.31 3.72-1.86 5.61-3.36-.72-6.73-1.35-10.07-2.11.64-4.8 2.89-9.67 7.32-12.07zm-208.47 8.52c5.28-2.74 11.62-2.71 17.31-1.46 3.7.77 7.54 3.46 7.85 7.52.66 7.67-.47 15.44.85 23.08-3.69-.11-7.37-.07-11.05-.1l-.4-3.63c-4.09 4.67-11.63 5.64-16.8 2.27-4.52-3.04-5.1-10.31-.95-13.92 4.95-4.22 11.88-3.72 17.88-4.98-.82-1.48-1.46-3.49-3.42-3.7-2.73-.82-4.73 1.53-6.52 3.15-3.34-.38-6.68-.72-9.99-1.29 1.25-2.62 2.48-5.58 5.24-6.94m6 19.24c-.52 3.98 5.95 4.1 7.36 1.16.72-1.89.63-3.95.81-5.91-3.08.45-7.74.83-8.17 4.75zm48.54-20.21c3.83-.01 7.67-.01 11.51.09-.02 10.1-.01 20.21.03 30.33-3.88-.01-7.77-.01-11.65-.05-.03-10.12-.04-20.25.11-30.37zm26.16.81c6.99-2.45 16.13-1.06 20.57 5.33 3.7 5.36 3.84 12.94.41 18.46-6 8.68-20.39 9.15-27.16 1.14-6.53-7.63-3.69-21.64 6.18-24.93m5.11 7.04c-2.39 1.58-2.21 4.81-2.33 7.33.1 2.7-.15 5.79 1.6 8.07 2 1.85 5.56.44 6.09-2.14.8-3.54.96-7.32.13-10.85-.53-2.3-3.46-3.88-5.49-2.41zm33.29-3.52c3.76-4.13 9.95-5.44 15.04-3.06 3.32 1.59 4.43 5.51 4.39 8.94.06 7.03-.08 14.07.03 21.11-3.92-.03-7.83-.04-11.74-.05-.16-6.91.29-13.83-.14-20.72-.35-3.29-5.14-2.78-5.71.18-.79 6.74-.23 13.58-.48 20.36-3.89-.03-7.78-.05-11.67-.11.19-10.11 0-20.23.08-30.34 3.66.02 7.33.07 10.99.19-.2.87-.6 2.62-.79 3.5z"/><path d="M689.31 879.38c5.83-.46 11.74-.27 17.6-.09 3.6.17 3.95 6.92.14 7.12-5.67.04-11.37.12-17.02-.2-3.26-.69-3.49-5.34-.72-6.83zm25.86-.22c3.19-.83 6.16 3.47 3.96 6.04-1.18 2.03-4.21 2.2-5.66.39-1.98-2.03-.58-5.34 1.7-6.43zm-35.52 242.6c1.99-2.54 5.43-2.09 8.28-2.13 12.7.09 25.42-.18 38.12.1 6 1.38 6.61 8.44 7.4 13.47-5.48-.06-10.94-.11-16.41-.14-1.77.04-3.72-.21-5.23.92-.71 4.28-.16 8.66-.32 13 .13 4.67-.45 9.42.46 14.05 1.48.99 3.32.72 5.02.8 5.26-.04 10.53-.1 15.8.01-.42 4.95-3.61 9.68-7.83 12.16-13.31.46-26.67.16-40 .23-3.46.25-6.65-2.79-6.61-6.23-.22-13.35.03-26.69-.19-40.03.03-2.14-.23-4.63 1.51-6.21m5.03 7.76c-.6 11.54-.36 23.18.02 34.74 6.54.41 13.14.46 19.69.05 1.23-6.32.13-12.9.61-19.31-.2-5.1.81-10.42-.69-15.35-3.34-.86-6.85-.3-10.26-.45-3.12.08-6.31-.43-9.37.32z"/><path d="M714.22 1146.91c4.87-.01 9.75.03 14.63 0 .05 3.13.03 6.27.01 9.42-4.88.08-9.75.06-14.62.07.02-3.17-.01-6.33-.02-9.49zm-27.79 95.58c5.67-6.12 14.22-9.59 22.57-8.56 7.64 1.09 14.88 5.47 18.96 12.09 3.62 5.5 4.82 12.27 4.15 18.77a76.726 76.726 0 0 0-6.4-3.09c.06-6.61-2.75-13.29-7.98-17.42-6.55-4.77-16.22-5.22-22.94-.52-5.19 3.48-7.77 9.68-8.35 15.73 4.85-.01 9.7-.04 14.56.03-5.16 5.63-10.43 11.16-15.39 16.96-5.66-5.52-11.52-10.83-16.91-16.61 3.69-.07 7.38-.15 11.07-.15.5-6.22 2.29-12.59 6.66-17.23zm37.82 24.71c1.83.95 3.64 1.96 5.43 3.02-2.56 5.81-6.98 11-12.93 13.49-7.66 3.63-17.03 2.8-24.14-1.7 1.4-1.59 2.81-3.15 4.23-4.7 4.94 2 10.58 2.93 15.71 1.02 5.35-1.78 9.11-6.33 11.7-11.13z"/></g><path fill="#c92328" d="M452.71 32.62c8.43-9.29 20.98-13.79 33.27-14.66 12.95-.87 26.69 1.92 37.08 10.06 9.24 6.93 15.03 18.37 14.71 29.98.01 35.56.02 71.12.07 106.69-31.69-.09-63.38-.17-95.07.03-.11-35.26 0-70.51-.05-105.77-.06-9.61 3.45-19.23 9.99-26.33z"/><g fill="#262221"><path d="M15.19 190.19c11.03-13.57 27.35-22.76 44.72-24.9 6.02-.72 12.09-.5 18.14-.55 121.57-.01 243.15-.01 364.72-.02 31.69-.2 63.38-.12 95.07-.03 48.72.14 97.45-.03 146.18.09 17.38-.02 34.58 7.04 47.03 19.14 12.31 11.67 19.81 28.16 20.95 45.05v1129.45c-.8 17.15-8.47 33.89-20.84 45.79-11.74 11.97-28.21 18.89-44.89 19.79H65.42c-17.51-1.11-34.54-9.06-46.41-22.02C7.52 1390.02.95 1373.76 0 1357.27V229.68c.87-14.3 6.21-28.31 15.19-39.49m106.29-9.99c.68 5.81 1.73 11.57 2.26 17.39.95.04 1.91.09 2.86.13.66-3.75 1.3-7.5 2.16-11.2.59 3.67 1.01 7.36 1.52 11.05 1.03.04 2.05.08 3.08.13.58-5.82 1.61-11.58 2.38-17.36l-3.22-.04c-.18 3.79-.31 7.59-.54 11.39-.9-3.68-1.55-7.4-1.96-11.16-.78-.08-1.55-.15-2.32-.22-.73 3.71-1.46 7.42-2.11 11.14-.56-3.72-1.03-7.46-1.26-11.22l-2.85-.03m19.9.21c-1.99 5.78-4.07 11.52-5.86 17.37.78 0 2.36.01 3.14.01.4-1.41.8-2.82 1.2-4.22 1.74.02 3.48.04 5.22.07.46 1.38.93 2.76 1.4 4.15.71 0 2.13 0 2.85.01-1.56-5.86-3.59-11.58-5.28-17.39-.89-.01-1.78-.01-2.67 0m22.96.14c.15 5.85-.19 11.7-.09 17.56.75.01 2.26.04 3.01.06 0-4.09-.01-8.18.01-12.27 1.76 3.56 3.36 7.21 5.28 10.69.53 1.53 2.44 1.31 3.64 1.95.11-5.95-.02-11.91.14-17.86l-2.99-.04c.02 3.93.02 7.87-.06 11.8-1.94-3.96-3.82-7.93-5.8-11.86-1.05-.02-2.09-.03-3.14-.03m-13.6-.14c0 5.81.2 11.63-.1 17.44.73 0 2.19 0 2.92.01.02-2.39.05-4.77.11-7.15.76.21 2.28.62 3.04.83 1.62 2.73 2 7.37 6.25 6.83-.94-2.65-2.24-5.16-3.79-7.5 2.59-1.6 4.42-4.69 2.82-7.67-2.2-4.12-7.49-2.48-11.25-2.79m27.78.22c-.01.65-.04 1.97-.06 2.63.93-.02 2.78-.05 3.7-.06-.04 4.13-.27 8.26-.28 12.4h-3.34c-.04.85-.07 1.7-.09 2.55 3.38.05 6.77.05 10.15.02.02-.83.04-1.66.05-2.48-1.27.02-2.54.04-3.81.07-.01-4.09-.02-8.17-.06-12.25 1.92-.27 4.12-.31 4.76-2.6-3.67-.25-7.35-.26-11.02-.28m12.35.09c.02 5.84.09 11.69-.15 17.53.75-.02 2.27-.05 3.02-.06-.05-3.91-.1-7.81-.03-11.71 1.7 3.26 3.26 6.6 4.98 9.85.46 1.79 2.29 1.94 3.8 2.35.06-5.98-.12-11.95.04-17.92-.73.03-2.2.09-2.94.11.06 3.92.13 7.84.14 11.76-1.98-3.9-3.93-7.82-5.75-11.79l-3.11-.12m15.18 2.39c-2.46 3.8-2.59 9.12-.14 12.96 1.84 3.03 6.13 3.28 9.09 1.93 3.03-1.53 1.7-5.64 2.21-8.37-2.6-.1-5.31-.25-7.63 1.2 1.62.71 3.26 1.38 4.92 2-.64 1.3-.55 3.58-2.53 3.45-2.5.41-4.39-2.09-4.66-4.34-.36-2.84-.2-6.36 2.14-8.34 2.8-1.9 4.51 2.03 5.99 3.7.32-1.12 2.79-1.74 1.42-2.99-1.75-4.18-8.2-4.83-10.81-1.2m41.47-1.46c-2.78 1.3-3.89 4.53-3.96 7.4-.14 3.05.18 6.61 2.69 8.7 2.68 2.25 7.16 1.49 8.89-1.57 1.73-3.05 1.49-6.81 1.07-10.17-.66-3.82-5.25-6.02-8.69-4.36m11.03-.26c.05 5.83-.15 11.65-.18 17.48l3.02.04c.03-2.13.04-4.26.03-6.39 1.83-.09 3.7-.04 5.51-.46 3.3-1.2 4.92-5.75 2.5-8.52-2.65-3.18-7.29-1.79-10.88-2.15m13.89.25c.14 5.82-.11 11.64-.02 17.47 3.57-.03 7.15.16 10.71-.11.29-.57.86-1.71 1.14-2.28-2.96-.16-5.92-.16-8.88-.15.01-1.75.01-3.5.03-5.25 2.33 0 4.67.01 7.01.01.01-.56.03-1.68.05-2.24-2.36.03-4.71.07-7.06.12.01-1.78.02-3.56.04-5.33 2.72-.01 5.44-.04 8.17-.06l.04-2.26c-3.75.01-7.49 0-11.23.08m13.38.07c.05 5.82.07 11.65-.02 17.47 1 0 2.01-.01 3.02-.01-.02-2.51.02-5.03.12-7.53 3.58.87 4.06 4.76 5.91 7.36.86.12 2.57.35 3.43.47-1.18-2.38-2.33-4.77-3.55-7.12 2.16-2.06 4.01-5.36 2.2-8.25-2.5-3.55-7.42-2.24-11.11-2.39m18.65.43c-2.34 5.56-4.04 11.36-5.91 17.09.77.01 2.32.05 3.09.06.34-1.38.69-2.76 1.05-4.14 1.8.04 3.61-.01 5.4.22.84 2.16 1.36 4.7 4.31 4.55-1.27-5.02-2.82-9.97-4.4-14.89-.56-1.61-1.32-4.56-3.54-2.89m38.04.51c-4.81 2.5-4.82 9.39-2.99 13.8 1.74 4.23 8.47 4.66 10.59.57 1.78-3.48 1.81-7.84.39-11.45-1.25-3.05-5.09-4.18-7.99-2.92m10.62-.21c.13 5.73.07 11.45-.09 17.18l2.84.2c.04-3.83.2-7.65.41-11.48 1.89 3.84 3.75 7.69 5.62 11.53l2.91.04c.07-5.75-.07-11.49 0-17.24-.91-.01-1.82-.01-2.73-.01.07 3.81-.04 7.63-.35 11.43-1.89-3.82-3.66-7.7-5.43-11.57-1.07-.03-2.13-.06-3.18-.08m26.82.24c.66 5.83 1.53 11.63 2.32 17.45l2.89-.04c.47-3.66 1.08-7.29 1.81-10.91.71 3.65 1.25 7.34 1.73 11.03.72 0 2.16.01 2.89.01.88-5.77 1.8-11.55 2.33-17.38-.66-.01-1.98-.02-2.64-.03-.39 3.58-.81 7.15-1.28 10.72-.95-3.69-1.44-7.46-1.88-11.23-.54.31-1.64.94-2.19 1.25-.96 3.55-1.35 7.23-2.17 10.82-.43-3.88-.72-7.77-1.15-11.65l-2.66-.04m-68.68-.23c.98 2.85 4.05 1.65 6.22 2.03-.03 5.03-.04 10.06-.14 15.1.97-.01 1.95-.02 2.94-.02.05-5.02.12-10.03.02-15.04 1.65.04 3.31.07 4.97.1l.02-2.49c-4.68.03-9.37-.16-14.03.32m15.58-.19l-.05 2.33c1.28 0 2.56.01 3.85.01-.06 4.18-.05 8.35-.12 12.53-.85-.02-2.56-.04-3.41-.06-.02.62-.08 1.84-.11 2.46 3.69 0 7.39.21 11.06-.31-.97-1.75-2.77-2.18-4.6-2.42-.02-3.91-.07-7.82-.04-11.73 1.74-.5 3.4-1.22 4.92-2.21-3.78-.88-7.66-.64-11.5-.6m68.09 2.88l4.06.28c-.12 4.07-.16 8.14-.04 12.21-1.95.04-3.79.37-4.33 2.57 3.57.19 7.15.15 10.73.16.01-.63.04-1.91.05-2.55-1.21 0-2.42.01-3.62.01.03-4.07.04-8.14.03-12.21 1.2-.12 2.41-.24 3.62-.35-.03-.59-.1-1.78-.13-2.37-3.4.65-8.59-1.73-10.37 2.25m12.02-1.98c-.04.55-.11 1.66-.15 2.22 1.78.02 3.56.04 5.35.07-.09 4.98-.06 9.96-.1 14.94.67 0 2.01.01 2.69.01.02-5.02.09-10.03.03-15.05l4.99.03c.02-.57.07-1.7.09-2.27-4.3-.06-8.6-.03-12.9.05m14.5-.12c.11 5.81-.03 11.63-.06 17.45.95.02 1.92.04 2.88.07-.01-2.64-.01-5.28-.02-7.92 2 0 4.02 0 6.04-.03 0 2.67.02 5.35.03 8.03 1 .02 2 .04 3.01.07-.27-5.84-.27-11.7-.04-17.54-.71-.01-2.15-.05-2.87-.06 0 2.34 0 4.68-.03 7.02-2.03.01-4.06.02-6.08.04 0-2.36-.01-4.73-.01-7.09-.96-.02-1.91-.03-2.85-.04m17.86.43c-3.1.95-4.37 4.44-4.41 7.41-.03 2.75-.02 5.93 2 8.06 2.57 2.92 8.26 2.56 9.83-1.24 1.37-3.31 1.4-7.21.45-10.63-.95-3.27-4.81-4.74-7.87-3.6m-217.71 3.52c-.14 1.47 1.66 1.86 2.46 2.76.68-1.37 2.76-2.68 1.24-4.23-.92-1.97-4.16-.36-3.7 1.47m227.99-3.71c.18 4.56-.47 9.18.25 13.71 1.15 5.34 10.12 5.36 11.22-.01.56-4.47.07-8.99.31-13.48l-2.86.04c-.1 4.25.25 8.54-.29 12.77-.37 2.91-4.96 3.14-5.59.28-.59-4.38-.03-8.82-.1-13.22-.73-.03-2.2-.07-2.94-.09m14.04.4c-.34.49-1.02 1.46-1.36 1.95 1.88.12 3.77.17 5.67.2-.15 5.09-.15 10.18-.15 15.27l2.87-.04c.15-5.08.06-10.17.08-15.25 1.82.01 3.65.03 5.48.05.03-.77.06-1.54.1-2.31-4.23.15-8.47-.18-12.69.13m32.42.14c-1.89 5.83-3.81 11.65-5.79 17.45.8 0 2.39-.02 3.18-.03.36-1.4.72-2.79 1.09-4.19 1.88.05 3.77.07 5.66.15.32 1.38.62 2.76.94 4.15.81.03 2.44.08 3.25.11-1.83-5.94-3.85-11.81-5.73-17.73-.65.03-1.95.07-2.6.09m9.59-.02c-.23 5.88-.04 11.77-.08 17.65l2.96-.04c-.04-4.03-.07-8.06.08-12.08 1.89 4.01 3.92 7.97 5.54 12.11.78.01 2.32.05 3.1.06-.08-5.79-.02-11.59-.01-17.38-.73-.08-2.17-.25-2.89-.33.04 3.96.03 7.93-.04 11.9-1.79-3.84-3.63-7.65-5.55-11.42-.78-.11-2.34-.35-3.11-.47m32.29.54c-1.91 5.78-3.82 11.55-5.87 17.28 1.13.02 2.27.05 3.42.07.3-1.39.61-2.77.94-4.14 1.88.04 3.77.09 5.67.13.28 1.35.57 2.71.88 4.07.81 0 2.44.01 3.25.01-1.89-5.82-3.72-11.66-5.65-17.47-.89.02-1.77.04-2.64.05m9.47-.04c-.23 5.85-.13 11.69-.08 17.54.73.01 2.19.04 2.91.05.01-3.99.03-7.98.16-11.96 1.87 3.99 3.84 7.93 5.63 11.95h3.15c-.12-5.73-.04-11.45.03-17.17-.76-.01-2.28-.02-3.04-.02-.02 3.7.61 7.37.43 11.07-2.72-3.3-4.15-7.42-6.05-11.21-1.06-.09-2.1-.17-3.14-.25m41.74.5c-.11 5.81.07 11.63-.2 17.44.73.01 2.21.04 2.94.05.01-4.18.06-8.35.01-12.53 2.01 4.16 3.83 8.41 5.79 12.6 1.01-.03 2.04-.05 3.07-.08.05-5.75-.04-11.5 0-17.24-.73-.05-2.2-.13-2.93-.18.07 3.87.11 7.74.03 11.61-1.97-3.85-3.83-7.75-5.69-11.65-1.02-.01-2.02-.02-3.02-.02m-28.43-.17c.01.58.05 1.73.07 2.31 1.67-.04 3.36-.07 5.06-.09-.14 5.08-.21 10.16-.26 15.25.73-.01 2.2-.01 2.93-.01.07-4.96.08-9.91.05-14.86 2.27-.32 5.48.7 6.15-2.4-4.66-.28-9.34-.15-14-.2m15.05.08c-.02 5.82-.06 11.64-.02 17.47 3.54-.01 7.1.22 10.65-.08.31-.57.94-1.7 1.26-2.27-3.02-.12-6.04-.15-9.05-.13 0-1.81.01-3.61.02-5.42 2.68.03 5.36-.01 8.05-.14-1-3.75-5.29-1.86-8.04-2.23.02-1.6.03-3.2.06-4.79 2.69.01 5.39 0 8.09 0 .04-.59.11-1.76.15-2.35-3.73-.13-7.45-.15-11.17-.06m27.52-.13c-.39 5.93-.06 11.87-.17 17.81.75-.01 2.24-.02 2.98-.03-.01-3.87-.02-7.73-.06-11.59 1.98 3.85 4.02 7.67 5.72 11.66l2.97-.06c.02-5.82-.04-11.64 0-17.47h-2.99c0 3.86.01 7.73-.02 11.6-1.89-3.62-3.39-7.44-5.46-10.96-.99-.35-1.98-.67-2.97-.96m18.35.68c-1.63 5.87-4.19 11.44-5.5 17.39 3.18.71 3.88-1.93 4.54-4.33 1.66-.01 3.32-.03 4.99-.08.51 2.41 1.01 5.08 4.21 4.67-1.52-6-3.58-11.84-5.26-17.78-1 .04-1.99.09-2.98.13m-398.75 9.43c-1.91.57-1.69 3.62.22 3.98 1.3.85 2.36-1.21 3.4-1.73-1.09-.8-1.93-3.09-3.62-2.25M68.34 210.41c-11.09 1.36-21.43 8.31-26.57 18.29-5.91 10.66-5.49 24.39.72 34.83 8.09 13.94 26.12 20.53 41.38 15.53 10.54-3.39 19.26-12.09 22.62-22.65 4.23-12.68.58-27.55-9.14-36.75-7.52-7.43-18.59-10.8-29.01-9.25m605.96-.05c-14.93 2.11-28.14 14.49-30.12 29.64-2.42 14.21 5.13 29.14 17.59 36.18 14.84 8.75 35.82 4.48 45.83-9.62 10.71-13.81 8.66-35.26-4.1-47.08-7.62-7.4-18.77-10.51-29.2-9.12m-532.38.99c.06 5.72-.21 11.44.06 17.15.65.26 1.94.77 2.58 1.03.31-4.5-.11-8.99-.11-13.49 1.07 2.89 1.81 5.91 3.19 8.68 1.89-2.64 2.67-5.82 3.84-8.8.05 4.55-.37 9.09-.22 13.64l2.68-.88c.47-5.71.15-11.44.29-17.15-1.29.02-2.57.05-3.86.09-.84 2.41-1.65 4.83-2.43 7.26-.84-2.52-1.65-5.05-2.45-7.58-.89.02-2.67.04-3.57.05m13.23 18.07l3.14-.48c.53-1.31.89-2.67 1.31-4.01 1.81-.04 3.61-.08 5.42-.13.3 1.44.61 2.87.91 4.31.81.04 2.44.11 3.25.14-1.76-5.89-3.94-11.65-5.47-17.61-.73 0-2.2.01-2.93.01-1.33 6.09-3.95 11.78-5.63 17.77m14.05-17.74c2.58 5.64 6.54 11.19 5.36 17.74.71 0 2.13-.01 2.84-.01-1.17-6.7 3.29-12.13 5.79-17.89-.84.15-2.51.46-3.35.61-1.58 2.54-2.6 5.39-3.85 8.1a284.6 284.6 0 0 0-3.38-8.52c-.85-.01-2.56-.02-3.41-.03m29.38.22c0 5.84-.02 11.68-.11 17.51.74.02 2.21.05 2.95.06-.01-2.08-.02-4.16-.04-6.24 2.6-.33 5.7.02 7.68-2.08 2.75-2.38 1.78-7.29-1.48-8.7-2.92-.83-6.01-.49-9-.55m13.96.13c.05 5.82.01 11.65-.07 17.47 4.09.02 8.2.19 12.29-.18-1.29-3.92-6.15-1.49-9.18-2.18-.04-1.8-.07-3.6-.1-5.4 2.36.03 4.72.07 7.09.1l-.04-2.49c-2.36.02-4.72.07-7.08.13.03-1.69.05-3.38.08-5.06 2.88.03 5.77.03 8.66 0-.02-.57-.05-1.71-.07-2.27-3.86-.01-7.72-.03-11.58-.12m13.72.04c-.01 5.84-.1 11.67-.17 17.51.78.02 2.33.07 3.1.1.01-2.45.04-4.9.23-7.34 4.94.69 3.77 8.21 9.18 7.93-.87-2.64-2.1-5.13-3.53-7.51 2.31-1.95 4.31-5.39 2.31-8.27-2.52-3.48-7.46-2.04-11.12-2.42m32.66.39c-1.58 5.98-3.81 11.75-5.54 17.69 1-.09 2-.17 3.01-.24.36-1.29.72-2.58 1.1-3.86 1.85 0 3.71.02 5.57.06.29 1.23.59 2.46.89 3.7.8.08 2.39.26 3.18.35-1.64-5.94-3.75-11.72-5.32-17.67-.97-.02-1.93-.03-2.89-.03m46.18.33c-.02 3.95-.05 7.9.02 11.85-1.96-3.68-3.58-7.54-5.71-11.12-1.02-.43-2.05-.8-3.1-1.12-.08 5.96-.06 11.92-.1 17.88l2.97.03c.05-3.88.06-7.77.12-11.66 1.98 3.87 3.88 7.77 5.55 11.78l3.02-.12c-.08-5.82.25-11.64.17-17.46l-2.94-.06m-64.97-.32c.11 5.93-.29 11.85-.24 17.78.71-.19 2.13-.57 2.84-.75.23-4.09-.22-8.19.02-12.28.94 2.85 1.41 5.93 3.2 8.42 1.5-2.78 2.42-5.82 3.56-8.75.07 4.2-.32 8.41-.19 12.61.7.21 2.09.61 2.79.81.11-5.95-.11-11.9.07-17.84-1.28-.01-2.56 0-3.83 0-.76 2.57-1.52 5.14-2.34 7.69-.7-2.58-1.43-5.14-2.27-7.67-1.2-.02-2.41-.02-3.61-.02m28.4.12c.03 5.83-.07 11.66-.17 17.48.76.02 2.28.07 3.04.09-.03-4.08-.08-8.16.09-12.23 1.87 4.05 3.63 8.15 5.49 12.2.79-.01 2.35-.02 3.14-.02-.01-5.78.04-11.55.04-17.32-.76-.02-2.27-.05-3.03-.06.05 3.94.1 7.88.13 11.82-1.84-3.95-3.76-7.85-5.59-11.81-.78-.03-2.36-.11-3.14-.15m14.35.22c.03 5.79-.03 11.58-.12 17.37 3.8.05 7.6.02 11.41.01 0-.61.01-1.83.01-2.44-2.8 0-5.59-.02-8.39 0-.01-1.81-.02-3.61-.04-5.42 2.63.05 5.27.03 7.91-.12-.97-3.76-5.18-1.89-7.92-2.17-.02-1.62-.03-3.24-.04-4.85 2.72.01 5.44-.01 8.17-.04.03-.59.08-1.75.11-2.34-3.7-.04-7.4-.03-11.1 0m25.67.59c.99 2.79 3.93 1.84 6.2 1.96-.12 5.01-.11 10.03-.17 15.05l2.88.04c-.04-5.02 0-10.03-.09-15.04 1.82.01 3.64.03 5.47.04.02-.58.07-1.73.09-2.31-4.79 0-9.61-.31-14.38.26m28.35-.63c2 5.96 6.36 11.32 5.32 17.97.98-.01 1.95-.03 2.93-.04-1-6.51 3.02-11.86 5.69-17.39-1.06-.02-2.12-.03-3.18-.04-1.29 2.87-2.62 5.73-3.93 8.6-1.77-3.35-1.69-9.47-6.83-9.1m-12.15.36c.13 5.81-.07 11.63-.1 17.45 3.86-.01 7.72 0 11.58-.04-.03-.8-.06-1.59-.08-2.38-2.82 0-5.64-.01-8.46-.02-.08-4.96-.07-9.93-.05-14.89l-2.89-.12m41.33.42c-.2 5.85.08 11.7.05 17.56 2.89-.17 6.13.46 8.7-1.2 4.09-3.01 4.31-9.38 1.75-13.44-2.31-3.45-6.92-2.77-10.5-2.92m18.38.14c-1.81 5.89-3.66 11.78-5.78 17.57l3.29-.08c.24-1.26.49-2.52.75-3.78 1.87-.12 3.73-.22 5.61-.31.58 2.35 1.16 4.97 4.28 4.6-1.69-6.01-3.53-11.97-5.36-17.93-.7-.01-2.09-.05-2.79-.07m9.47.14c-.07 5.82-.11 11.64-.09 17.47.68.01 2.05.04 2.74.06-.03-4.35-.14-8.7-.07-13.05.93 2.65 1.64 5.39 2.79 7.96 2.88-1.33 2.61-5.48 3.97-8.09-.07 4.41-.09 8.82-.14 13.23l2.73-.02c-.09-5.92.02-11.85.04-17.77-1.2.11-2.38.29-3.54.52-1 2.37-1.64 4.86-2.44 7.3-.86-2.5-1.64-5.03-2.41-7.55-1.2-.03-2.4-.04-3.58-.06m18.8.2c-1.77 5.83-3.91 11.54-5.88 17.3.85.05 2.55.13 3.4.18.37-1.37.74-2.73 1.13-4.09 1.68-.09 3.36-.18 5.06-.26.49 2.52 1.11 5.16 4.4 4.5-1.82-5.81-3.47-11.67-5.31-17.48-.94-.04-1.87-.1-2.8-.15m10.1 2.91c-1.62 3.31-1.59 7.32-.6 10.82 1.62 4.31 7.69 5.24 11.12 2.68 1.57-2.17.68-5.11.82-7.6-2.37-.07-4.74-.06-7.1.08 1.53 1.34 3.25 2.43 4.8 3.75-.57 1.24-1.31 2.69-2.89 2.75-2.85.18-4.51-2.9-4.36-5.41-.04-2.54-.34-6.16 2.43-7.43 3.01-1.25 4.26 2.45 6.06 4.02.87-1.21 1.23-2.81.29-4.09-2.09-3.99-8.68-3.5-10.57.43m13.75-2.71c.28 5.79-.06 11.59-.11 17.39 3.87.03 7.75.06 11.62.07v-2.42c-2.84.01-5.68 0-8.52 0 .03-1.81.06-3.62.11-5.42 2.34.08 4.68.2 7.03.31.05-.87.1-1.74.16-2.61-2.44-.03-4.87 0-7.3.05.02-1.66.05-3.32.08-4.97 2.76.01 5.52.05 8.29.11-.01-.63-.02-1.9-.03-2.53-3.78-.02-7.55.02-11.33.02m27.35.45c-.37.48-1.1 1.45-1.46 1.93 1.95.14 3.9.24 5.86.29-.05 5.1-.13 10.2-.09 15.3l2.91-.36c.01-4.98.03-9.95-.01-14.93 2.29-.17 5.42.87 6.1-2.2-4.43-.18-8.89-.33-13.31-.03m14.22.38c-.61 5.67-.12 11.39-.3 17.09.94 0 1.89.01 2.84.02-.04-2.64-.04-5.28-.03-7.92 2.04.04 4.09.08 6.14.11-.02 2.63-.02 5.26-.02 7.89.99.03 1.99.06 2.99.08-.09-5.89-.06-11.78.05-17.67-.75 0-2.24.01-2.99.01l.09 7.18c-2.04.02-4.07.03-6.09.05-.01-2.55-.04-5.1-.19-7.64l-2.49.8m14.14 17.23c3.74-.01 7.47-.03 11.22 0l.12-2.55c-2.77.05-5.53.07-8.3.12-.02-1.8-.04-3.61-.05-5.41 2.49.03 4.99.06 7.49.1-.05-.62-.15-1.85-.19-2.47-2.41.02-4.82.04-7.21.07-.02-1.67-.03-3.35-.03-5.02 2.71.02 5.43.04 8.15.07.04-.62.11-1.85.15-2.47-3.73.01-7.45.03-11.17-.01.03 5.86-.16 11.71-.18 17.57m27.46-17.21c0 5.81-.07 11.63-.04 17.44 3.31-.07 7.3.74 9.86-1.96 2.99-3.36 3.09-9.01.65-12.7-2.33-3.46-6.92-2.58-10.47-2.78m14.46.09c0 5.84-.26 11.67-.09 17.5 3.72.08 7.45.05 11.17.14-.04-.88-.09-1.76-.12-2.64-2.76.05-5.51.06-8.26.05.07-1.82.15-3.64.22-5.45 2.34.02 4.68.04 7.03.04l-.04-2.27c-2.35-.02-4.7-.04-7.04-.05-.02-1.61-.03-3.21-.04-4.81 2.81-.03 5.63-.01 8.45.05l-.53-1.31c.78.15 2.35.46 3.13.62l-1.12-.14c1.53 5.35 3.11 10.69 4.83 15.98.73-.02 2.19-.07 2.91-.1 1.76-5.85 3.65-11.65 5.69-17.41-1.13.05-2.24.11-3.36.18-1.18 4.32-2.44 8.62-3.89 12.87-1.13-4.41-2.3-8.82-3.55-13.19-5.13.06-10.26 0-15.39-.06m27.52.27c-.07.6-.22 1.8-.29 2.4h3.78c-.12 4.22-.18 8.45-.11 12.67-.81-.01-2.44-.04-3.26-.05l-.2 2.61c3.52-.01 7.04.02 10.56-.01-.12-2.57-2.11-2.8-4.18-2.75.11-3.97.15-7.93 0-11.89 1.97-.08 3.68-.81 4.45-2.73-3.58-.27-7.17-.16-10.75-.25m15.78.33c-5 2.76-4.71 9.97-2.75 14.57 2.05 4.72 10.15 3.59 11.02-1.37.48-1.39-.04-2-1.55-1.83-1.45 1.59-3.05 4.91-5.7 3.28-2.56-1.9-2.13-5.59-2.01-8.4.08-1.89 1.28-4.59 3.53-4.34 2.74-.21 3.03 4.55 6 3.61.27-4.41-4.68-7.33-8.54-5.52m10.67-.04c.09 5.8.09 11.6-.13 17.39 3.59.05 7.2.34 10.79.05.28-.59.84-1.76 1.13-2.35-2.96-.07-5.91-.05-8.85.01 0-1.85.02-3.7.03-5.55 2.47.07 4.95.12 7.43.14-.05-.64-.14-1.93-.19-2.58-2.39.02-4.77.04-7.15.07-.02-1.61-.04-3.21-.05-4.81 2.7.03 5.4.05 8.1.07.04-.64.11-1.91.15-2.55-3.76.02-7.51.05-11.26.11m17.35 13.81c-1.36.64-2.01 2.53-.62 3.49 1.29 1.47 4.2.07 3.66-1.88-.05-1.3-2.02-2.6-3.04-1.61m-485.2 46.84c-3.04.44-6.14 2.57-6.71 5.75-.73 4.9-.24 9.87-.29 14.81.08 60.05.1 120.1.08 180.15-.72 6.96 8.45 10.81 13.62 6.89 2.43-1.86 2.76-5.13 2.85-7.95.04-63.35-.06-126.71.05-190.05-.15-2.18-.16-4.55-1.44-6.42-1.77-2.58-5.16-3.61-8.16-3.18m54.06 1.05c-2.24.95-4 3.07-4.24 5.53-.67 4.66-.28 9.37-.31 14.06-.08 59.68.09 119.36-.05 179.04.1 2.9.39 6.32 2.98 8.16 3.43 2.42 8.59 1.99 11.7-.79 1.81-1.59 1.89-4.15 2.01-6.37-.02-63.72.02-127.45.01-191.17-.11-2.46-.41-5.22-2.32-6.99-2.52-2.53-6.61-2.82-9.78-1.47m56.9-.09c-3.51 1.25-5.09 5.06-4.89 8.57.09 60.02.03 120.05.06 180.07.08 4.78-.44 9.62.37 14.36 1.4 6.45 11.46 7.71 14.85 2.28 1.05-1.66 1.09-3.7 1.21-5.59.04-63.36-.06-126.72.07-190.08-.13-2.46-.12-5.17-1.68-7.23-2.24-2.99-6.64-3.59-9.99-2.38m56.99-.02c-2.56.81-4.77 2.98-5.07 5.73-.7 4.61-.36 9.29-.38 13.93.08 60.36-.09 120.72.01 181.08-.72 7.05 8.67 10.75 13.73 6.6 2.47-1.74 2.8-4.94 2.89-7.7-.01-63.65-.06-127.32.03-190.96.72-6-5.68-10.7-11.21-8.68m74.08.15c-4.3.32-7.32 4.32-6.91 8.52.07 63.68.08 127.36.01 191.03.09 2.54.19 5.5 2.28 7.3 3.95 3.8 11.85 2.88 13.77-2.6 1.28-5.48.44-11.17.61-16.74.08-59-.06-118 .06-177.01-.13-2.34-.13-4.84-1.26-6.96-1.69-2.91-5.36-4.12-8.56-3.54m75.91 1.82c-4.27 1.13-5.7 5.77-5.47 9.73.07 63 .07 126-.01 189 .14 2.23.1 4.68 1.38 6.64 2.78 4.07 9.32 4.72 12.98 1.51 2.05-1.77 2.21-4.66 2.36-7.17-.09-59.32-.03-118.64-.05-177.97-.17-5.9.71-11.93-.64-17.74-1.34-4.3-6.74-5.38-10.55-4m56.98-.02c-4.43.92-6.34 5.58-5.92 9.71.2 64.01-.03 128.04.14 192.05-.25 7.33 10 9.69 14.57 5.06 1.92-1.82 1.97-4.65 2.11-7.09-.04-58.35-.13-116.7-.07-175.04-.13-6.31.54-12.67-.36-18.94-.72-4.68-6.24-7.01-10.47-5.75m56.14.24c-2.57.74-4.91 2.81-5.21 5.58-.8 5.61-.23 11.29-.32 16.93.04 55.64 0 111.29-.02 166.93.02 4.66-.44 9.38.41 14.01 1.5 6.98 13.53 8 15.69.95 1.19-5.89.33-11.95.5-17.91.06-55.35.02-110.71.05-166.06-.09-5.29.63-10.68-.53-15.89-1.2-4.43-6.6-5.89-10.57-4.54m58.96-.15c-4.61-.11-8.28 4.05-7.92 8.58-.04 63.67.02 127.36-.08 191.04.11 2.58.24 5.51 2.19 7.46 3.87 4.11 12.31 3.01 13.89-2.8 1.23-5.81.56-11.81.7-17.7-.04-58.33-.1-116.65.04-174.97-.15-2.83-.08-5.93-1.77-8.35-1.53-2.28-4.38-3.38-7.05-3.26M400.37 537.5c-14.76.84-28.28 11.99-31.73 26.39-4.11 15.02 3.06 32.33 16.98 39.52 14.05 8.24 33.51 4.61 43.89-7.86 8.52-9.33 10.33-23.48 6.04-35.14-4.91-14.3-20.16-24.05-35.18-22.91m93.97 3.86c-1.13.86-1.83 2.12-2.55 3.3-9.45 16.88-19.27 33.56-28.82 50.39-1.86 2.27-1.07 6.42 2.26 6.6 19.59.35 39.2.03 58.79.2 1.86-.14 4.21.4 5.58-1.24 2.35-2.07-.06-5-1.05-7.16-9.67-16.74-18.98-33.69-28.77-50.35-.98-1.98-3.53-3.31-5.44-1.74M338.98 685.43c-29.06 42.21-58.32 84.29-87.44 126.46 5.25 3.51 10.43 7.14 15.63 10.73 6.79-9.44 13.24-19.11 19.91-28.62 22.46-32.62 45.19-65.05 67.41-97.83-5.18-3.57-10.35-7.15-15.51-10.74m76.83 7.45c-27.62 39.75-54.78 79.85-82.51 119.53 5.2 3.7 10.45 7.33 15.72 10.94 24.79-35.97 49.57-71.97 74.28-108 5.04 6.82 9.74 13.87 14.5 20.88 20.1 29.27 40.22 58.52 60.31 87.79 5.32-3.47 10.5-7.15 15.72-10.77-13.4-19.02-26.23-38.46-39.63-57.49-12.1-17.56-23.97-35.3-36.24-52.74-3.22-4.38-5.58-9.6-10-12.93-4.02-2.72-9.57-1.15-12.15 2.79m209.62 145.59c-17.91 3.06-31.45 21.56-28.39 39.59 1.62 11.57 9.41 22 19.91 27.05 9.36 4.44 20.75 4.53 30.08-.03 7.16-3.48 12.93-9.56 16.4-16.68 4.83-9.77 4.56-21.79-.28-31.48-6.85-13.45-22.82-21.62-37.72-18.45m69.99 16.21c-3.77 1.12-7.37 2.91-10.4 5.43-10.87 8.51-14.01 25.04-7.11 36.96 7.12 13.03 24.82 19.36 38.24 12.35 15.22-6.53 21.63-27.29 12.71-41.25-6.27-11.52-20.96-17.33-33.44-13.49m-341.23 7.05c0 3.16 0 6.33.05 9.5 3.88.08 7.76.07 11.65.09-.02-3.2-.01-6.39.02-9.58-3.91-.08-7.81-.03-11.72-.01m-116.24 3.25c-6.28 4.51-6.27 15.48.65 19.4 5.05 3.66 12.26 2.37 16.94 6.53-.64 4.06-5.53 4.16-8.6 3.08-2.28-.64-3.42-2.86-4.77-4.58-3.68.43-7.34 1-11.01 1.57.94 3.28 2.35 6.6 5.08 8.82 4.62 3.9 11.04 4.53 16.84 3.98 4.89-.49 10.05-2.56 12.76-6.86 2.76-4.88 2.23-11.79-2.08-15.61-3.65-3.34-8.81-3.71-13.34-5.01-1.99-.61-4.78-.82-5.25-3.31.8-2.81 4.33-3.06 6.7-2.48 2.25.46 3.62 2.46 4.98 4.13 3.27-.98 6.56-1.91 9.8-2.99-1.72-3.49-3.98-7.04-7.77-8.5-6.67-2.68-14.96-2.4-20.93 1.83m35.81-2.19c-.11 3.38-.16 6.77-.22 10.17-1.45-.03-2.91-.06-4.36-.07-.06 2.53-.1 5.06-.12 7.61 1.41-.02 2.83-.04 4.26-.05.12 5.21-.19 10.43.2 15.64.16 2.9 1.92 5.64 4.61 6.83 3.98 1.91 8.51 1.08 12.72.6.13-2.75.25-5.49.32-8.23-2.07.01-5.01 1.16-6.2-1.25-.39-4.48-.02-8.99-.15-13.47 2.11.01 4.22.04 6.34.07-.11-2.63-.23-5.25-.31-7.87-1.98.02-3.96.03-5.93.02-.1-3.31.17-6.63-.17-9.92-3.66-.26-7.33-.07-10.99-.08m59.08.42c-.03 3.39-.09 6.79-.18 10.19-1.63 0-3.26 0-4.88.03-.01 2.44-.02 4.88-.01 7.33 1.58-.05 3.16-.07 4.74-.09.09 5.44-.23 10.9.14 16.34.16 2.84 2.13 5.36 4.72 6.46 4.02 1.78 8.52 1.07 12.73.59.03-2.82.04-5.62.03-8.41-2.1-.18-5.39 1.3-6.22-1.48-.37-4.42-.04-8.87-.13-13.29h6.33c.03-2.41.04-4.81.06-7.2-2.09-.1-4.16-.18-6.24-.27-.02-3.38-.02-6.75-.01-10.12-3.7-.08-7.39-.1-11.08-.08m130.25 7.83c-4.82 6.74-5.22 15.95-2.55 23.62 2.48 7.14 9.86 12.09 17.42 11.59 3.98.08 7.47-2.01 10.43-4.46.44 1.29.89 2.59 1.36 3.89 2.01.02 4.03.02 6.06.02-.05-7.52.3-15.04.28-22.55-6.06-.04-12.12-.49-18.17 0 0 2.68-.01 5.37-.01 8.07 2.52.08 5.05.18 7.57.4-1.31 2.11-2.63 4.86-5.42 5.18-3.14.59-6.32-1.48-7.22-4.5-1.48-4.55-1.28-9.52-.32-14.15.64-2.97 3.16-5.99 6.5-5.38 3.51.11 4.59 3.82 5.6 6.53 3.94-.47 7.91-.68 11.85-1.14-1.32-4.34-3.34-8.81-7.25-11.39-8.1-5.33-20.28-3.68-26.13 4.27m45.14-4.78c-4.43 2.4-6.68 7.27-7.32 12.07 3.34.76 6.71 1.39 10.07 2.11.55-1.89.9-3.88 1.86-5.61 1.85-3.31 7.85-1.69 7.81 2.14.2 3.6-2.66 6.33-5.12 8.55-4.62 3.81-9.66 7.07-14.37 10.76-.05 3.18-.07 6.37-.08 9.57 10.25-.02 20.51.02 30.76.02.15-3.33.27-6.66.31-9.98-5.22-.03-10.45.02-15.67-.04 4.42-3.31 9.3-6.18 12.85-10.49 4.34-5.14 3.99-13.99-1.48-18.21-5.61-3.97-13.63-4.15-19.62-.89m-208.47 8.52c-2.76 1.36-3.99 4.32-5.24 6.94 3.31.57 6.65.91 9.99 1.29 1.79-1.62 3.79-3.97 6.52-3.15 1.96.21 2.6 2.22 3.42 3.7-6 1.26-12.93.76-17.88 4.98-4.15 3.61-3.57 10.88.95 13.92 5.17 3.37 12.71 2.4 16.8-2.27l.4 3.63c3.68.03 7.36-.01 11.05.1-1.32-7.64-.19-15.41-.85-23.08-.31-4.06-4.15-6.75-7.85-7.52-5.69-1.25-12.03-1.28-17.31 1.46m54.54-.97c-.15 10.12-.14 20.25-.11 30.37 3.88.04 7.77.04 11.65.05-.04-10.12-.05-20.23-.03-30.33-3.84-.1-7.68-.1-11.51-.09m26.16.81c-9.87 3.29-12.71 17.3-6.18 24.93 6.77 8.01 21.16 7.54 27.16-1.14 3.43-5.52 3.29-13.1-.41-18.46-4.44-6.39-13.58-7.78-20.57-5.33m38.4 3.52c.19-.88.59-2.63.79-3.5a402.8 402.8 0 0 0-10.99-.19c-.08 10.11.11 20.23-.08 30.34 3.89.06 7.78.08 11.67.11.25-6.78-.31-13.62.48-20.36.57-2.96 5.36-3.47 5.71-.18.43 6.89-.02 13.81.14 20.72 3.91.01 7.82.02 11.74.05-.11-7.04.03-14.08-.03-21.11.04-3.43-1.07-7.35-4.39-8.94-5.09-2.38-11.28-1.07-15.04 3.06m-199.4 122.67c-4.62.9-6.94 5.78-6.65 10.15-.02 53.69.05 107.39-.02 161.09.12 5.12-.72 10.43.8 15.42 1.59 4.15 6.32 5.52 10.39 5.38 121.67-.02 243.35-.03 365.02-.01 2.9-.1 6.16-.29 8.33-2.49 3.21-2.83 2.86-7.47 2.96-11.34-.2-56.01.07-112.03-.1-168.04.08-3.92-1.47-8.29-5.41-9.76-4.8-1.42-9.9-.58-14.82-.72-119-.04-238.01.07-357.01-.06-1.18.02-2.34.15-3.49.38m460.19 120.95c-1.74 1.58-1.48 4.07-1.51 6.21.22 13.34-.03 26.68.19 40.03-.04 3.44 3.15 6.48 6.61 6.23 13.33-.07 26.69.23 40-.23 4.22-2.48 7.41-7.21 7.83-12.16-5.27-.11-10.54-.05-15.8-.01-1.7-.08-3.54.19-5.02-.8-.91-4.63-.33-9.38-.46-14.05.16-4.34-.39-8.72.32-13 1.51-1.13 3.46-.88 5.23-.92 5.47.03 10.93.08 16.41.14-.79-5.03-1.4-12.09-7.4-13.47-12.7-.28-25.42-.01-38.12-.1-2.85.04-6.29-.41-8.28 2.13m34.57 25.15c.01 3.16.04 6.32.02 9.49 4.87-.01 9.74.01 14.62-.07.02-3.15.04-6.29-.01-9.42-4.88.03-9.76-.01-14.63 0m-27.79 95.58c-4.37 4.64-6.16 11.01-6.66 17.23-3.69 0-7.38.08-11.07.15 5.39 5.78 11.25 11.09 16.91 16.61 4.96-5.8 10.23-11.33 15.39-16.96-4.86-.07-9.71-.04-14.56-.03.58-6.05 3.16-12.25 8.35-15.73 6.72-4.7 16.39-4.25 22.94.52 5.23 4.13 8.04 10.81 7.98 17.42 2.16.93 4.31 1.95 6.4 3.09.67-6.5-.53-13.27-4.15-18.77-4.08-6.62-11.32-11-18.96-12.09-8.35-1.03-16.9 2.44-22.57 8.56m37.82 24.71c-2.59 4.8-6.35 9.35-11.7 11.13-5.13 1.91-10.77.98-15.71-1.02-1.42 1.55-2.83 3.11-4.23 4.7 7.11 4.5 16.48 5.33 24.14 1.7 5.95-2.49 10.37-7.68 12.93-13.49-1.79-1.06-3.6-2.07-5.43-3.02M65.4 1308.41c-14.57 2.79-26.18 15.79-27.78 30.48-2.49 17.47 10.29 35.31 27.51 38.86 13.1 3.14 27.5-2.35 35.64-12.98 6.17-8.09 8.39-18.92 6.45-28.86-2.09-9.39-7.83-18.17-16.24-23.03-7.57-4.65-16.88-6.4-25.58-4.47m614.92.1c-7.63 1.77-14.65 6.09-19.63 12.13-8.21 10.07-10.35 24.76-5.18 36.7 4.95 11.82 16.89 20.25 29.63 21.2 12.9 1.15 26.07-5.49 32.88-16.49 7.01-10.85 7-25.52.6-36.64-7.22-13.23-23.7-20.26-38.3-16.9z"/><path d="M153.6 182.61c2.16.29 5.08-.25 6.03 2.31.39 3.48-3.44 3.92-5.98 4.02-.05-2.12-.06-4.23-.05-6.33zm94.68 1.59c2.03-1.76 5.1.3 5.06 2.78.52 3.49.82 10.01-4.34 9.6-3.42-2.81-3.47-9.15-.72-12.38zm13.18-.5c1.88.28 3.96.11 5.65 1.13.6 1.11 1.14 2.47.22 3.58-1.29 1.84-3.88 1.49-5.79 2.03-.07-2.25-.09-4.5-.08-6.74zm-119.05.51c.76 2.37 1.5 4.74 2.27 7.1-1.38-.03-2.75-.05-4.12-.08.63-2.34 1.25-4.67 1.85-7.02zm146.37-.26c2.2.41 6.02-.19 5.96 3.06.21 3.15-3.75 2.92-5.88 3.4-.04-2.16-.07-4.31-.08-6.46zm54.45 1.03c2.2-1.68 5.11.62 5.13 3.1.33 3.13.82 7.39-2.41 9.23-2.68.95-4.42-2.1-4.43-4.38-.13-2.65-.6-6.05 1.71-7.95zm-37.6.75c.61 2.34 1.23 4.68 1.89 7.02-1.42.04-2.84.1-4.25.16.75-2.41 1.55-4.8 2.36-7.18zm133.7.58c1.9-2.25 5.4.06 5.42 2.63.22 3.26.89 7.98-2.75 9.65-2.47.24-3.89-2.34-4.05-4.45-.19-2.61-.5-5.73 1.38-7.83zm56 8.56c.69-2.3 1.38-4.6 2.03-6.91.67 2.29 1.37 4.57 2.1 6.85l-4.13.06zm41.97.32c.64-2.28 1.27-4.56 1.92-6.84.7 2.27 1.39 4.54 2.13 6.8-1.36.01-2.71.02-4.05.04zm-335.84 18.96c2.32.28 5.99-.15 6.45 2.97-.12 3.43-3.9 3.53-6.46 3.55-.05-2.17-.05-4.35.01-6.52zm27.72.4c2.33.27 6.85-.13 6.15 3.49-.73 2.81-3.96 2.37-6.18 2.68-.03-2.06-.01-4.12.03-6.17zm139.71 1.16c5.95-.39 7.97 6.83 5.19 11.11-1.12 1.78-3.41 1.64-5.22 2.04-.05-4.39-.01-8.77.03-13.15zm17.07 1.85c.54 2.41 1.08 4.83 1.66 7.23l-4.03.15c.77-2.47 1.56-4.93 2.37-7.38zm25.96 7.63c.75-2.67 1.48-5.34 2.17-8.02.58 2.55 1.22 5.08 1.9 7.61-1.36.14-2.71.27-4.07.41zm110.85-8.03c6.29-.36 7.97 8.06 4.25 11.91-1.26.9-2.88 1.03-4.29 1.52-.09-4.48-.1-8.95.04-13.43zM67.1 222.91c3.73-.1 7.45-.16 11.18-.19.54 4.88-1.01 10.66 2.1 14.85 4.36 2.75 9.98 1.24 14.88 1.56.08 3.92.06 7.85-.03 11.78-4.85.3-10.51-1.28-14.78 1.6-3.04 4.21-1.49 9.92-1.74 14.77-3.77.24-7.55.35-11.33.38-.07-4.2.21-8.43-.51-12.58-.24-2.02-1.92-3.7-3.94-3.93-3.99-.64-8.05-.26-12.07-.22-.2-3.94-.28-7.88-.23-11.83 4.1.07 8.25.44 12.32-.23 1.69-.23 3.39-1.36 3.73-3.11.79-4.23.39-8.57.42-12.85zm606.12-.06c3.71-.1 7.42-.14 11.13-.13.2 4.07.09 8.18.79 12.22.22 1.66 1.22 3.44 3 3.79 4.28.89 8.69.45 13.04.48.07 3.9.06 7.81-.02 11.72-4.84.28-10.47-1.38-14.75 1.44-3.02 4.29-1.42 10.07-1.75 15-3.72.12-7.44.1-11.15-.06-.36-4.92 1.07-10.67-1.93-14.94-4.33-2.66-9.88-1.3-14.72-1.65-.07-3.83-.07-7.67.01-11.51 4.03-.01 8.1.26 12.1-.41 1.59-.24 3.3-1.22 3.68-2.91.93-4.28.51-8.7.57-13.04zM465.53 598.13c10-18.15 20.78-35.85 30.85-53.96 10.03 18.08 20.44 35.94 30.57 53.97-20.47.02-40.95.05-61.42-.01m19-26.07c-.42 4.22 3.32 7.23 4.19 11.14.14 2.24-2.18 4.16-1.29 6.39 2.98.09 4.14-3.2 4.32-5.67.4-4.17-3.16-7.09-4.12-10.88-.1-2.35 1.55-4.35 2.17-6.54-3.68-1.58-4.86 2.85-5.27 5.56m10.72-5.66c-1.58 1.36-2.34 3.55-2.52 5.59-.08 3.79 2.68 6.67 4.13 9.96.14 2.65-1.44 4.97-1.96 7.52 3.87.8 5.03-3.51 5-6.51.1-4.08-3.97-6.86-3.88-10.95.39-2.1 2.17-4 1.26-6.2-.51.15-1.52.45-2.03.59m5.55 7.65c.66 3.24 3.24 5.73 3.83 8.99-.26 1.96-1.17 3.76-1.66 5.68 3.06 2.45 4.58-2.36 4.74-4.76.73-4.26-3.28-7.08-4.09-10.92.45-1.87 1.43-3.55 2-5.38-.64-.5-1.92-1.52-2.56-2.03-1.22 2.61-3.02 5.4-2.26 8.42m-24.4 17.68c.23.72.7 2.16.93 2.88 12.74.06 25.49.22 38.22-.05-.02-1.02-.03-2.03-.05-3.04-13.03.02-26.08-.46-39.1.21zm-68.34-41.14c3.32 1.58 6.57 3.29 9.74 5.16-1.95 4.25-5.28 8.39-5.02 13.26 2.35 4.63 7.95 6.17 12.01 8.96-1.75 3.31-3.6 6.57-5.54 9.77-4.43-2.18-8.8-6.04-14.01-5.43-4.37 2.51-5.71 7.97-8.25 12.03a190.84 190.84 0 0 1-9.78-5.22c1.93-3.76 4.32-7.37 5.35-11.51.58-1.96-.52-3.9-2.04-5.07-2.99-2.41-6.55-3.94-9.92-5.74 1.55-3.34 3.15-6.66 4.8-9.94 3.72 1.9 7.24 4.3 11.25 5.58 2.11.73 4.44-.32 5.72-2.06 2.33-2.99 3.87-6.49 5.69-9.79zm230.11 300.28c3.25 1.83 6.44 3.77 9.55 5.85-2.34 4.35-6.38 8.75-5.41 14.03 2.73 4.11 7.64 6.02 11.48 8.93-1.96 3.09-3.98 6.15-6.09 9.15-4.2-2.47-8.45-6.67-13.66-5.83-4.25 2.46-5.86 7.54-8.34 11.51-3.32-1.77-6.58-3.65-9.79-5.62 2.27-4.56 7.04-9.06 5.63-14.52-2.78-3.94-7.59-5.7-11.51-8.27 1.81-3.13 3.71-6.21 5.7-9.22 4.31 2.22 8.53 5.98 13.66 5.64 4.81-1.87 6.16-7.66 8.78-11.65zm59.29 9.9c6.27-1.7 13.3-.83 18.67 2.96 8.12 5.21 12.12 15.9 9.47 25.17-2.62 9.82-12.33 17.37-22.59 16.81-10.87-.02-20.6-9-22.02-19.67-1.9-11.03 5.59-22.6 16.47-25.27m-8.15 18.61c-2.77 1.49-2.54 6.14.72 6.83 5.65.32 11.35.24 17.02.2 3.81-.2 3.46-6.95-.14-7.12-5.86-.18-11.77-.37-17.6.09m25.86-.22c-2.28 1.09-3.68 4.4-1.7 6.43 1.45 1.81 4.48 1.64 5.66-.39 2.2-2.57-.77-6.87-3.96-6.04zm-329.6 2.5c2.03-1.47 4.96.11 5.49 2.41.83 3.53.67 7.31-.13 10.85-.53 2.58-4.09 3.99-6.09 2.14-1.75-2.28-1.5-5.37-1.6-8.07.12-2.52-.06-5.75 2.33-7.33zm-79.81 12.36c.43-3.92 5.09-4.3 8.17-4.75-.18 1.96-.09 4.02-.81 5.91-1.41 2.94-7.88 2.82-7.36-1.16zm378.92 235.5c3.06-.75 6.25-.24 9.37-.32 3.41.15 6.92-.41 10.26.45 1.5 4.93.49 10.25.69 15.35-.48 6.41.62 12.99-.61 19.31-6.55.41-13.15.36-19.69-.05-.38-11.56-.62-23.2-.02-34.74zM66.76 1320.54c3.77.04 7.53.11 11.3.21.44 4.76-.78 10.17 1.72 14.47 4.31 3 10.08 1.54 15.02 1.92.05 3.84.07 7.68.05 11.53-4.2.08-8.46-.19-12.59.7-1.9.39-3.27 2.11-3.56 3.98-.61 3.94-.28 7.95-.28 11.93-3.76 0-7.52-.02-11.29-.05-.14-4.22.12-8.51-.78-12.65-.33-1.72-1.65-3.18-3.41-3.38-4.16-.83-8.43-.55-12.64-.58-.01-3.79 0-7.57.03-11.34 4.89-.51 10.56.73 14.83-2.16 2.59-4.33 1.23-9.79 1.6-14.58zm614.21 14.44c2.01-4.5 1.08-9.73 1.45-14.54 3.66.01 7.33.03 11 .06.19 4.4-.09 8.89 1 13.21.46 1.71 2.27 2.54 3.87 2.93 3.95.81 8.02.51 12.04.53.16 3.75.55 7.6-.35 11.31-4.93 1.05-11.03-1.23-15.11 2.36-2.32 4.35-1.13 9.56-1.2 14.28-3.76.07-7.52.08-11.27.03-.06-4.3.36-8.69-.68-12.89-.43-1.76-2.12-2.85-3.82-3.04-4.05-.69-8.17-.39-12.26-.4-.15-3.89-.15-7.78-.02-11.66 5.03-.34 11.2 1.43 15.35-2.18z"/></g><path d="M621.22 195.93c.6-2.25 1.17-4.5 1.78-6.75.63 2.16 1.3 4.33 1.98 6.48-1.26.08-2.51.18-3.76.27zM68.34 210.41c10.42-1.55 21.49 1.82 29.01 9.25 9.72 9.2 13.37 24.07 9.14 36.75-3.36 10.56-12.08 19.26-22.62 22.65-15.26 5-33.29-1.59-41.38-15.53-6.21-10.44-6.63-24.17-.72-34.83 5.14-9.98 15.48-16.93 26.57-18.29m-1.24 12.5c-.03 4.28.37 8.62-.42 12.85-.34 1.75-2.04 2.88-3.73 3.11-4.07.67-8.22.3-12.32.23-.05 3.95.03 7.89.23 11.83 4.02-.04 8.08-.42 12.07.22 2.02.23 3.7 1.91 3.94 3.93.72 4.15.44 8.38.51 12.58 3.78-.03 7.56-.14 11.33-.38.25-4.85-1.3-10.56 1.74-14.77 4.27-2.88 9.93-1.3 14.78-1.6.09-3.93.11-7.86.03-11.78-4.9-.32-10.52 1.19-14.88-1.56-3.11-4.19-1.56-9.97-2.1-14.85-3.73.03-7.45.09-11.18.19zm607.2-12.55c10.43-1.39 21.58 1.72 29.2 9.12 12.76 11.82 14.81 33.27 4.1 47.08-10.01 14.1-30.99 18.37-45.83 9.62-12.46-7.04-20.01-21.97-17.59-36.18 1.98-15.15 15.19-27.53 30.12-29.64m-1.08 12.49c-.06 4.34.36 8.76-.57 13.04-.38 1.69-2.09 2.67-3.68 2.91-4 .67-8.07.4-12.1.41-.08 3.84-.08 7.68-.01 11.51 4.84.35 10.39-1.01 14.72 1.65 3 4.27 1.57 10.02 1.93 14.94 3.71.16 7.43.18 11.15.06.33-4.93-1.27-10.71 1.75-15 4.28-2.82 9.91-1.16 14.75-1.44.08-3.91.09-7.82.02-11.72-4.35-.03-8.76.41-13.04-.48-1.78-.35-2.78-2.13-3-3.79-.7-4.04-.59-8.15-.79-12.22-3.71-.01-7.42.03-11.13.13zm-513.09-.21c.77-2.38 1.45-4.78 2.1-7.19.62 2.31 1.18 4.63 1.73 6.97-1.28.06-2.56.14-3.83.22zm100.2-6.05c.63 2.27 1.28 4.54 1.98 6.79-1.32.02-2.65.05-3.96.08.76-2.26 1.44-4.55 1.98-6.87zm-140 59.79c3-.43 6.39.6 8.16 3.18 1.28 1.87 1.29 4.24 1.44 6.42-.11 63.34-.01 126.7-.05 190.05-.09 2.82-.42 6.09-2.85 7.95-5.17 3.92-14.34.07-13.62-6.89.02-60.05 0-120.1-.08-180.15.05-4.94-.44-9.91.29-14.81.57-3.18 3.67-5.31 6.71-5.75zm54.06 1.05c3.17-1.35 7.26-1.06 9.78 1.47 1.91 1.77 2.21 4.53 2.32 6.99.01 63.72-.03 127.45-.01 191.17-.12 2.22-.2 4.78-2.01 6.37-3.11 2.78-8.27 3.21-11.7.79-2.59-1.84-2.88-5.26-2.98-8.16.14-59.68-.03-119.36.05-179.04.03-4.69-.36-9.4.31-14.06.24-2.46 2-4.58 4.24-5.53zm56.9-.09c3.35-1.21 7.75-.61 9.99 2.38 1.56 2.06 1.55 4.77 1.68 7.23-.13 63.36-.03 126.72-.07 190.08-.12 1.89-.16 3.93-1.21 5.59-3.39 5.43-13.45 4.17-14.85-2.28-.81-4.74-.29-9.58-.37-14.36-.03-60.02.03-120.05-.06-180.07-.2-3.51 1.38-7.32 4.89-8.57zm56.99-.02c5.53-2.02 11.93 2.68 11.21 8.68-.09 63.64-.04 127.31-.03 190.96-.09 2.76-.42 5.96-2.89 7.7-5.06 4.15-14.45.45-13.73-6.6-.1-60.36.07-120.72-.01-181.08.02-4.64-.32-9.32.38-13.93.3-2.75 2.51-4.92 5.07-5.73zm74.08.15c3.2-.58 6.87.63 8.56 3.54 1.13 2.12 1.13 4.62 1.26 6.96-.12 59.01.02 118.01-.06 177.01-.17 5.57.67 11.26-.61 16.74-1.92 5.48-9.82 6.4-13.77 2.6-2.09-1.8-2.19-4.76-2.28-7.3.07-63.67.06-127.35-.01-191.03-.41-4.2 2.61-8.2 6.91-8.52zm75.91 1.82c3.81-1.38 9.21-.3 10.55 4 1.35 5.81.47 11.84.64 17.74.02 59.33-.04 118.65.05 177.97-.15 2.51-.31 5.4-2.36 7.17-3.66 3.21-10.2 2.56-12.98-1.51-1.28-1.96-1.24-4.41-1.38-6.64.08-63 .08-126 .01-189-.23-3.96 1.2-8.6 5.47-9.73zm56.98-.02c4.23-1.26 9.75 1.07 10.47 5.75.9 6.27.23 12.63.36 18.94-.06 58.34.03 116.69.07 175.04-.14 2.44-.19 5.27-2.11 7.09-4.57 4.63-14.82 2.27-14.57-5.06-.17-64.01.06-128.04-.14-192.05-.42-4.13 1.49-8.79 5.92-9.71zm56.14.24c3.97-1.35 9.37.11 10.57 4.54 1.16 5.21.44 10.6.53 15.89-.03 55.35.01 110.71-.05 166.06-.17 5.96.69 12.02-.5 17.91-2.16 7.05-14.19 6.03-15.69-.95-.85-4.63-.39-9.35-.41-14.01.02-55.64.06-111.29.02-166.93.09-5.64-.48-11.32.32-16.93.3-2.77 2.64-4.84 5.21-5.58zm58.96-.15c2.67-.12 5.52.98 7.05 3.26 1.69 2.42 1.62 5.52 1.77 8.35-.14 58.32-.08 116.64-.04 174.97-.14 5.89.53 11.89-.7 17.7-1.58 5.81-10.02 6.91-13.89 2.8-1.95-1.95-2.08-4.88-2.19-7.46.1-63.68.04-127.37.08-191.04-.36-4.53 3.31-8.69 7.92-8.58zM400.37 537.5c15.02-1.14 30.27 8.61 35.18 22.91 4.29 11.66 2.48 25.81-6.04 35.14-10.38 12.47-29.84 16.1-43.89 7.86-13.92-7.19-21.09-24.5-16.98-39.52 3.45-14.4 16.97-25.55 31.73-26.39m7.69 13.09c-1.82 3.3-3.36 6.8-5.69 9.79-1.28 1.74-3.61 2.79-5.72 2.06-4.01-1.28-7.53-3.68-11.25-5.58-1.65 3.28-3.25 6.6-4.8 9.94 3.37 1.8 6.93 3.33 9.92 5.74 1.52 1.17 2.62 3.11 2.04 5.07-1.03 4.14-3.42 7.75-5.35 11.51 3.21 1.84 6.47 3.57 9.78 5.22 2.54-4.06 3.88-9.52 8.25-12.03 5.21-.61 9.58 3.25 14.01 5.43 1.94-3.2 3.79-6.46 5.54-9.77-4.06-2.79-9.66-4.33-12.01-8.96-.26-4.87 3.07-9.01 5.02-13.26-3.17-1.87-6.42-3.58-9.74-5.16zm217.37 287.88c14.9-3.17 30.87 5 37.72 18.45 4.84 9.69 5.11 21.71.28 31.48-3.47 7.12-9.24 13.2-16.4 16.68-9.33 4.56-20.72 4.47-30.08.03-10.5-5.05-18.29-15.48-19.91-27.05-3.06-18.03 10.48-36.53 28.39-39.59m12.74 12.4c-2.62 3.99-3.97 9.78-8.78 11.65-5.13.34-9.35-3.42-13.66-5.64-1.99 3.01-3.89 6.09-5.7 9.22 3.92 2.57 8.73 4.33 11.51 8.27 1.41 5.46-3.36 9.96-5.63 14.52 3.21 1.97 6.47 3.85 9.79 5.62 2.48-3.97 4.09-9.05 8.34-11.51 5.21-.84 9.46 3.36 13.66 5.83 2.11-3 4.13-6.06 6.09-9.15-3.84-2.91-8.75-4.82-11.48-8.93-.97-5.28 3.07-9.68 5.41-14.03-3.11-2.08-6.3-4.02-9.55-5.85zm-418.71 149.94c1.15-.23 2.31-.36 3.49-.38 119 .13 238.01.02 357.01.06 4.92.14 10.02-.7 14.82.72 3.94 1.47 5.49 5.84 5.41 9.76.17 56.01-.1 112.03.1 168.04-.1 3.87.25 8.51-2.96 11.34-2.17 2.2-5.43 2.39-8.33 2.49-121.67-.02-243.35-.01-365.02.01-4.07.14-8.8-1.23-10.39-5.38-1.52-4.99-.68-10.3-.8-15.42.07-53.7 0-107.4.02-161.09-.29-4.37 2.03-9.25 6.65-10.15zM65.4 1308.41c8.7-1.93 18.01-.18 25.58 4.47 8.41 4.86 14.15 13.64 16.24 23.03 1.94 9.94-.28 20.77-6.45 28.86-8.14 10.63-22.54 16.12-35.64 12.98-17.22-3.55-30-21.39-27.51-38.86 1.6-14.69 13.21-27.69 27.78-30.48m1.36 12.13c-.37 4.79.99 10.25-1.6 14.58-4.27 2.89-9.94 1.65-14.83 2.16-.03 3.77-.04 7.55-.03 11.34 4.21.03 8.48-.25 12.64.58 1.76.2 3.08 1.66 3.41 3.38.9 4.14.64 8.43.78 12.65 3.77.03 7.53.05 11.29.05 0-3.98-.33-7.99.28-11.93.29-1.87 1.66-3.59 3.56-3.98 4.13-.89 8.39-.62 12.59-.7.02-3.85 0-7.69-.05-11.53-4.94-.38-10.71 1.08-15.02-1.92-2.5-4.3-1.28-9.71-1.72-14.47-3.77-.1-7.53-.17-11.3-.21zm613.56-12.03c14.6-3.36 31.08 3.67 38.3 16.9 6.4 11.12 6.41 25.79-.6 36.64-6.81 11-19.98 17.64-32.88 16.49-12.74-.95-24.68-9.38-29.63-21.2-5.17-11.94-3.03-26.63 5.18-36.7 4.98-6.04 12-10.36 19.63-12.13m.65 26.47c-4.15 3.61-10.32 1.84-15.35 2.18-.13 3.88-.13 7.77.02 11.66 4.09.01 8.21-.29 12.26.4 1.7.19 3.39 1.28 3.82 3.04 1.04 4.2.62 8.59.68 12.89 3.75.05 7.51.04 11.27-.03.07-4.72-1.12-9.93 1.2-14.28 4.08-3.59 10.18-1.31 15.11-2.36.9-3.71.51-7.56.35-11.31-4.02-.02-8.09.28-12.04-.53-1.6-.39-3.41-1.22-3.87-2.93-1.09-4.32-.81-8.81-1-13.21-3.67-.03-7.34-.05-11-.06-.37 4.81.56 10.04-1.45 14.54z" fill="#010101"/></svg>