<svg version="1.2" xmlns="http://www.w3.org/2000/svg" viewBox="0 0 1024 1040" width="1024" height="1040"><style>.a{fill:#fff}.b{fill:#c8c5b4}.c{fill:#93928e}.d{fill:#10c2e6}.e{fill:#626260}</style><path class="a" d="m502.3 50.5c14-2.5 28.6 0.5 41 7 3.8 2 8 4.8 8.4 9.5 0.7 5.4-4.4 10.3-9.7 10.2-18.3 0.2-36.7 0-55 0.1-2.5 0-5.1 0.1-7.5-0.8-4.2-1.6-6.8-6.5-5.9-10.8 0.8-3.2 3.6-5.2 6.3-6.8 6.9-4.1 14.5-7 22.4-8.4z"/><path class="b" d="m505.9 0h13.7c9.1 1.1 18.3 2.5 27 5.5 15.7 5.2 29.8 14.8 41.6 26.3 45.9 46.1 92.1 91.9 137.9 138.1 24.2 23.5 47.5 47.9 71.7 71.4 46.2 46.4 92.7 92.6 138.9 139 20.1 19.9 39.8 40.2 60.1 59.9 11.5 11.2 21.3 24.4 27.2 39.4v81.8c-4.7 9.2-9.4 18.5-16.3 26.3-9.9 11.4-21.2 21.5-31.7 32.3-54.1 54.2-108.4 108.2-162.5 162.4-31.6 31.8-63.4 63.4-95.1 95-24.3 24.1-48.2 48.5-72.5 72.4-20.1 20.3-40.4 40.4-60.4 60.7-17.8 17.7-42.3 28-67.2 29.5h-9.9c-16.4-1.1-32.8-5-47.1-13.3-8.8-4.9-16.5-11.4-23.6-18.4-37.1-37.6-74.8-74.5-112-112q-151-151-302.1-301.9c-10.3-10.9-19.1-23.7-23.6-38.2v-73.6c4.9-11.6 10.9-22.8 19.2-32.3 7.2-8.2 15.3-15.5 22.8-23.3 77.4-77.3 154.6-154.7 231.9-232.1 28.2-27.5 55.5-55.8 83.6-83.3 27-27.1 53.9-54.1 80.9-81.2 12.2-12.1 27.4-21.2 43.9-26 7.7-2.3 15.7-3.4 23.6-4.4zm-6.5 16.4c-11.2 1.9-22.2 5.2-32 11-11.4 6.5-20.5 16.2-29.6 25.3-12.1 12.4-24.3 24.5-36.5 36.6-43.5 43.2-86.6 86.8-130 130-37.3 37.4-74.6 74.7-111.9 112-21.8 21.3-42.9 43.2-64.6 64.6-20.9 21-42 41.9-62.8 63-11.8 13.1-19.5 29.8-22.1 47.2-3.1 19.4 0.5 39.9 9.9 57.2 7.1 14.3 19.7 24.8 30.8 36.1 78.4 78.5 157 157 235.5 235.4 13.2 13.5 26.9 26.5 40 40 40.6 40.5 81 81.2 121.7 121.5 10.6 10.9 23.9 19.1 38.6 23.3 27.7 8.6 59.4 3 82.2-15.1 8-6.2 14.4-14.2 21.8-21.1 129.6-129.1 258.8-258.5 388.2-387.8 7-8 15.7-14.5 21.6-23.4 8.3-11.6 13.3-25.2 15-39.3 2.1-11.5 0.9-23.3-1.6-34.6-3.5-15-10.7-29.4-21.5-40.5-21-21-41.9-42.1-62.9-63.1-10.3-10.6-21.1-20.7-31.3-31.5-51.3-51-102.3-102.5-153.7-153.5-24.7-24.9-49.6-49.7-74.5-74.5-25.6-26-51.7-51.6-77.4-77.6-10.7-10.3-20.6-21.7-33.4-29.4-17.7-10.7-39.1-14.9-59.5-11.8z"/><path class="b" d="m507.3 22.4c24.5-1.8 49.4 8.2 66.3 26.1 137.5 137.7 275.3 275.3 412.8 413.1 21.4 22.1 29.1 56.5 18.8 85.5-4.6 13.7-12.6 26.1-23.2 35.9-96.7 96.3-193.1 192.9-289.6 289.3-32.7 32.4-65 65.2-97.7 97.4-7.1 7.3-14.4 14.3-21.4 21.6-18.9 20.4-48.8 30.1-76 24.4-14.7-2.6-28.6-9.2-39.8-19.1-51.6-51.4-103.1-103-154.6-154.4-78.1-77.6-155.6-155.7-233.6-233.4-11.5-11.9-23.9-22.9-34.7-35.3-23-27.4-25.3-69.8-5.5-99.5 7.3-11.7 18.3-20.3 27.6-30.3 71.5-71.8 143.2-143.4 214.9-215.1 60.9-61.1 122-122 182.9-183.1 14.3-13.5 33.1-22 52.7-23.1zm-4.9 28.1c-7.9 1.4-15.5 4.3-22.4 8.4-2.7 1.6-5.5 3.6-6.3 6.8-0.9 4.3 1.7 9.2 5.9 10.8 2.4 0.9 5 0.8 7.5 0.8 18.3-0.2 36.7 0.1 55-0.1 5.3 0.1 10.4-4.8 9.7-10.3-0.4-4.6-4.6-7.4-8.4-9.4-12.4-6.5-27-9.5-41-7zm4.2 152.3c-4.4 2.4-7.6 7.1-7.1 12.2-0.7 8.3 8.7 15.2 16.5 12.8 8.4-1.4 13.2-12.2 8.8-19.5-3.2-6.5-12-8.7-18.2-5.5zm-194.3 186.4c-1.8 0.7-3.1 2.3-4.3 3.7-25.7 33.5-35.2 79.2-23.7 120 4.7 16.9 12.2 33.1 23 46.8 1.8 2.1 3.7 5.1 6.9 4.4 4.2-0.3 6-6.3 2.8-9.1-17.3-21.3-26.7-48.7-27.1-76-0.5-25.7 7.3-51.4 21.4-72.9 2.1-3.5 4.9-6.6 6.8-10.2 1.8-3.4-2.2-7.8-5.7-6.7zm59.1 0.2c-1.4 0.9-2.5 2.2-3.5 3.5-4.9 6.7-9.5 13.5-13.1 20.9-18.3 35.2-20.3 78.5-4.7 115.1 5 11.6 11.2 23 19.4 32.7 2.1 2.8 6.9 2.7 8.6-0.6 1.3-1.9 0.5-4.4-0.9-6.1-10-13-18-27.9-22.4-43.8-11.1-38-2.8-80.9 21.4-112.1 1.3-1.9 3.2-4.1 2.4-6.6-0.7-3.2-4.6-4.5-7.2-3zm277.9-0.1c-3 1.6-3.3 6-0.9 8.3 25 31.6 33.7 75.5 22.2 114.1-3.8 13.5-10.1 26.3-18.1 37.8-1.7 2.6-4.1 4.7-5.5 7.5-1.2 3.7 2.8 7.5 6.4 6.5 2.1-0.6 3.5-2.6 4.9-4.3 11.3-15.4 19.8-33.1 24.1-51.9 9.6-40.4-0.9-84.7-26.8-117.1-1.6-1.6-4.3-2-6.3-0.9zm62 0c-2.5 0.7-4.5 3.3-3.7 5.9 0.9 2.6 2.7 4.7 4.3 6.9 13.7 19.2 21.9 42.4 23.7 65.9 2.2 31-7.1 62.8-26.5 87.1-2.2 2.2-2.3 6.5 0.6 8.2 2.5 1.8 6 0.5 7.6-1.9 7-8.5 12.2-18.3 16.9-28.1 16.1-35.3 15.7-77.3 0.1-112.6-4.8-10.1-10.2-20.1-17.2-28.8-1.4-1.8-3.5-3.4-5.8-2.6zm-460.1 0.8c-1.7 1-2.8 2.6-4 4.1-6.2 8.8-12 17.9-16.3 27.8-8.2 18.5-12.1 38.8-11.7 59 0.5 29.9 11.5 59.3 30.5 82.4 3.6 4.2 10.7-0.6 8.6-5.5-4-6-8.8-11.5-12.4-17.8-8.2-14.9-13.9-31.2-15.7-48-3.5-30.2 4.4-61.5 21.5-86.5 2-3.3 5.2-5.9 6.6-9.6 1.2-4.1-3.4-7.8-7.1-5.9zm518.2 0.2c-2.6 1.9-2.7 5.7-0.6 8 25.4 32.2 34.1 77.1 21.8 116.4-4.4 13.4-10.3 26.6-19.2 37.7-1.8 2.7-5.1 5.5-3.9 9.1 1.3 3.7 6.8 4.4 9.1 1.2 22-27.1 32.7-63.1 29.3-97.8-2.5-26.9-13-52.8-29.9-73.8-1.6-1.9-4.6-1.9-6.6-0.8zm-261.1 52.1c-7.6 1-14.5 5.5-19.2 11.6-8.3 10.8-7 27.7 2.7 37.3 7.6 8.3 20.1 10.7 30.6 7.2 12.6-4 21.2-17.5 19.3-30.6-1.1-16-17.7-28.5-33.4-25.5zm-143.4 265.9q-0.1 2.6-0.1 5.2 4.6 0 9.3-0.1c0.1 8.5 0 16.9 0 25.3q3.1 0 6.2-0.1c-0.1-8.4 0.1-16.7-0.1-25.1q4.7 0 9.4 0.1 0-2.7 0-5.4c-8.3 0.1-16.5 0.2-24.7 0.1zm28.4-0.2c-0.1 10.2 0.1 20.4 0 30.5q3 0.1 6 0.1c0-4.5-0.2-9.1 0.1-13.6 0-1.8 1-3.6 2.7-4.3 2.3-1.3 5.6 0.6 5.7 3.3 0.1 4.9-0.1 9.8 0.1 14.7q2.9 0 5.8 0c-0.3-6.2 0.8-12.6-0.7-18.7-2.4-5.5-10.6-5.1-13.9-0.7 0.1-3.8 0.2-7.5 0.2-11.2q-3 0-6-0.1zm26.2 0q-0.1 2.7-0.1 5.4 3 0 6 0-0.1-2.7-0.1-5.3-2.9-0.1-5.8-0.1zm37.8 0c-0.1 10.2-0.1 20.4-0.2 30.6q3 0.1 6 0.1c0-3.5-0.9-7.7 2.8-9.8 1.8 3.2 3.4 6.6 5.6 9.6 2.2 0.4 4.5 0.1 6.8 0.1-3-4.6-5.6-9.4-8.7-13.9 2.7-2.9 5.5-5.7 8.2-8.6-2.5 0-5-0.1-7.4 0.3-2.8 2.3-4.6 5.4-7.3 7.8-0.2-5.4 0-10.8 0-16.1q-2.9-0.1-5.8-0.1zm23.9 0.1c-0.2 10.2 0.1 20.4 0.1 30.5q2.8 0 5.7 0 0.1-9.9 0-19.7c4.5 6.3 8.2 13.1 12.6 19.5 2 0.5 4.1 0.2 6.2 0.3-0.2-10.2 0.2-20.4 0-30.6q-3 0-5.9 0.1c-0.2 6.6 0.5 13.3 0 20-4.1-6.6-8.1-13.4-12.6-19.7-1.9-0.7-4.1-0.3-6.1-0.4zm71.7-0.1c-0.1 3.6-0.1 7.2 0.1 10.9-3.8-4.3-11.1-3.9-14.3 0.8-3 4.9-2.8 12.1 1 16.5 3.3 3.8 9.7 3.8 13.1 0.1-0.4 3.7 3.7 2.1 6 2.4-0.1-10.3-0.1-20.5-0.1-30.8q-2.9 0-5.8 0.1zm49.8 0.3c-0.1 10.1 0.4 20.2 0.1 30.3q2.9 0 5.8 0c-0.1-8-0.1-16 0-24 2.8 7.9 5 16 7.5 24q2.9 0 5.8 0c2.7-7.9 4.7-16.1 7.3-24 0.3 8-0.1 16 0.1 24.1q2.9 0 5.9 0 0-15.2-0.2-30.5-4.3 0-8.7 0.1c-2.7 7.1-5.1 14.2-7 21.6-2.7-7.2-5.1-14.4-7.4-21.7q-4.6-0.1-9.2 0.1zm37 7.7c1.8 0.5 3.6 0.9 5.5 1.3 0.8-1.7 1.5-4.2 3.8-4.3 2.8-0.9 5.2 2.3 4.2 4.8-0.7 2.2-3.5 2.2-5.3 2.9q-0.1 2.1-0.3 4.3c1.9-0.3 4.1-0.9 5.4 0.9 3.1 2.6 1.2 8.5-2.9 8.5-2.6-0.1-4.1-2.3-4.7-4.5-2.1 0-4.2 0.1-6.2 0.8 1 2.4 2.1 5.1 4.4 6.6 5.7 4.1 15.4 1.3 16.9-5.8 0.9-3.9-1.4-7.6-4.8-9.3 1.7-1.7 3.9-3.6 3.6-6.3-0.1-5.6-6.3-8.9-11.3-7.8-4.2 0.4-7.3 4-8.3 7.9zm-220.3 0.2q0.1 11.3 0.2 22.5 2.8 0 5.8 0c0.1-7.5 0-14.9 0-22.4q-3-0.1-6-0.1zm11.7 0c-0.1 7.5 0.2 15 0 22.4q3 0 6 0c-0.2-4.9-0.4-9.8 0.3-14.7 0.7-3.8 7.2-4.8 8-0.6 0.5 5.1 0.1 10.2 0.2 15.2q2.9 0.1 5.9 0.1c-0.3-6.2 0.6-12.5-0.6-18.6-2.5-5.6-10.9-5.2-14.5-0.9 0-0.8 0.1-2.2 0.1-3q-2.7 0.1-5.4 0.1zm87.3 0.2c-7.5 1.9-10 12-6 18.1 3.8 5.4 12.3 6.3 17.3 2.1 5.8-4.7 5.1-15.2-1.3-19-3-1.8-6.7-2.1-10-1.2zm45.6 5.5c-1.8 4.6-1.8 10.5 1.7 14.3 5.2 5.2 15.5 3.7 18.1-3.5-1.9-0.6-3.9-1-5.8-1.2-1 1.8-2.5 3.6-4.8 3.1-2.8-0.3-4.1-3-4.5-5.4 5.1-0.2 10.2-0.1 15.3-0.2-0.2-2.8-0.3-5.9-1.7-8.4-3.6-7-15.7-6.1-18.3 1.3zm23.1 2.6q0 2.9 0.1 5.8c4.1 0.1 8.2 0.1 12.4 0q0-2.9-0.2-5.7c-4.1 0-8.2-0.1-12.3-0.1z"/><path class="b" d="m519.4 721.5c2.6-1.6 6.6-0.5 7.6 2.5 1.7 4 0.1 10.4-5 10.5-6-0.6-7.1-10-2.6-13z"/><path class="b" d="m545.3 721.3c3-1.8 7.2 0.3 7.4 3.8 0.4 3.1 0.6 7.2-2.5 9-3 2.1-6.9-0.8-7.1-4-0.3-3-0.6-6.9 2.2-8.8z"/><path class="b" d="m568.7 725.4c0.6-2.4 2.4-5.4 5.3-4.8 2.6 0.1 3.8 2.6 4.5 4.8q-4.9 0.1-9.8 0z"/><path class="c" d="m499.4 16.4c20.4-3.1 41.8 1.2 59.5 11.8 12.8 7.7 22.7 19.1 33.4 29.4 25.7 26 51.8 51.6 77.4 77.6 24.9 24.8 49.8 49.6 74.5 74.6 51.4 50.9 102.4 102.4 153.7 153.4 10.2 10.8 21 20.9 31.3 31.5 21 21 41.9 42.1 62.9 63.1 10.8 11.1 18 25.5 21.5 40.5 2.5 11.3 3.7 23.1 1.6 34.6-1.7 14.1-6.7 27.7-15 39.3-5.9 8.9-14.6 15.4-21.6 23.4-129.4 129.3-258.6 258.7-388.2 387.8-7.4 6.9-13.8 14.9-21.8 21.1-22.8 18.1-54.5 23.7-82.2 15.1-14.7-4.2-28-12.4-38.6-23.3-40.7-40.3-81.1-81-121.7-121.5-13.1-13.5-26.8-26.5-40-40-78.5-78.4-157.1-156.9-235.5-235.4-11.1-11.3-23.7-21.8-30.8-36.1-9.4-17.3-13-37.8-9.9-57.2 2.6-17.4 10.3-34.1 22.1-47.1 20.8-21.2 41.9-42.1 62.8-63.1 21.7-21.4 42.8-43.3 64.6-64.6 37.3-37.3 74.6-74.6 111.9-112 43.4-43.2 86.5-86.8 130-130 12.2-12.1 24.4-24.2 36.5-36.5 9.1-9.2 18.2-18.9 29.6-25.4 9.8-5.8 20.8-9.1 32-10.9zm7.9 5.9c-19.7 1.1-38.5 9.6-52.8 23.1-60.9 61.1-122 122-182.9 183.1-71.7 71.7-143.4 143.3-214.9 215.1-9.3 10-20.3 18.6-27.6 30.3-19.8 29.7-17.5 72.1 5.5 99.5 10.8 12.4 23.2 23.4 34.7 35.3 78 77.7 155.5 155.8 233.6 233.4 51.5 51.5 103 103 154.6 154.4 11.2 9.9 25.1 16.5 39.8 19.1 27.2 5.7 57.1-3.9 76-24.4 7-7.3 14.3-14.3 21.4-21.5 32.7-32.3 65-65.1 97.7-97.5 96.5-96.4 192.9-193 289.6-289.3 10.6-9.8 18.6-22.2 23.2-35.9 10.3-29 2.6-63.4-18.8-85.5-137.5-137.8-275.3-275.4-412.8-413.1-16.9-17.9-41.8-27.9-66.3-26.1z"/><path class="c" d="m312.3 389.3c3.5-1.2 7.5 3.2 5.7 6.6-1.9 3.6-4.7 6.7-6.8 10.2-14.1 21.5-21.9 47.2-21.4 72.9 0.4 27.3 9.8 54.7 27.1 76 3.2 2.8 1.4 8.8-2.9 9.1-3.1 0.7-5-2.3-6.8-4.4-10.8-13.7-18.3-29.9-23-46.8-11.5-40.8-2-86.5 23.7-120 1.2-1.4 2.5-3 4.3-3.7z"/><path class="c" d="m371.4 389.4c2.6-1.5 6.5-0.2 7.2 3 0.9 2.5-1.1 4.7-2.4 6.6-24.2 31.2-32.5 74.1-21.4 112.1 4.4 15.9 12.4 30.8 22.4 43.8 1.4 1.7 2.2 4.2 0.9 6.1-1.7 3.3-6.5 3.4-8.6 0.6-8.2-9.7-14.4-21.1-19.4-32.7-15.6-36.6-13.6-79.9 4.7-115.1 3.6-7.4 8.2-14.2 13.1-20.8 1-1.4 2.1-2.7 3.5-3.6z"/><path class="c" d="m649.3 389.3c2-1.1 4.7-0.7 6.3 0.9 25.9 32.4 36.4 76.7 26.8 117.1-4.3 18.8-12.8 36.5-24.1 51.9-1.4 1.7-2.7 3.7-4.9 4.3-3.6 1-7.6-2.8-6.3-6.5 1.3-2.8 3.7-4.9 5.4-7.5 8-11.5 14.3-24.3 18.1-37.8 11.5-38.6 2.8-82.5-22.2-114.1-2.4-2.3-2.1-6.7 0.9-8.3z"/><path class="c" d="m711.3 389.3c2.3-0.8 4.4 0.8 5.8 2.6 7 8.7 12.4 18.7 17.2 28.8 15.6 35.3 16 77.3-0.1 112.6-4.7 9.8-9.9 19.6-16.9 28.1-1.6 2.4-5.1 3.7-7.6 1.9-2.9-1.7-2.8-6-0.6-8.2 19.4-24.3 28.7-56.1 26.5-87.1-1.8-23.5-10-46.7-23.7-65.9-1.6-2.2-3.4-4.3-4.3-6.9-0.8-2.6 1.2-5.2 3.7-5.9z"/><path class="c" d="m251.2 390.1c3.7-1.9 8.3 1.8 7.1 5.9-1.4 3.7-4.6 6.3-6.6 9.6-17.1 25-25 56.3-21.5 86.5 1.8 16.8 7.5 33.1 15.7 48 3.6 6.3 8.4 11.8 12.4 17.8 2.1 4.9-5 9.7-8.6 5.5-19-23.1-30-52.5-30.5-82.4-0.4-20.2 3.5-40.5 11.7-59 4.3-9.9 10.1-19 16.3-27.8 1.2-1.5 2.3-3.1 4-4.1z"/><path class="c" d="m769.4 390.4c2-1.2 5-1.2 6.6 0.7 16.9 21 27.4 47 29.9 73.8 3.4 34.7-7.3 70.7-29.3 97.8-2.3 3.2-7.8 2.5-9.1-1.2-1.2-3.6 2.1-6.4 3.9-9.1 8.9-11.1 14.8-24.3 19.2-37.7 12.3-39.3 3.6-84.2-21.8-116.4-2.1-2.3-2-6.1 0.6-7.9z"/><path class="d" d="m506.5 202.8c6.3-3.2 15-1 18.2 5.5 4.4 7.3-0.4 18.1-8.8 19.5-7.8 2.4-17.2-4.5-16.5-12.8-0.5-5.1 2.7-9.8 7.1-12.2z"/><path class="e" d="m508.3 442.4c15.7-3 32.3 9.5 33.4 25.5 1.9 13.1-6.7 26.6-19.3 30.6-10.5 3.5-23 1.1-30.6-7.2-9.7-9.6-11-26.5-2.7-37.3 4.7-6 11.5-10.6 19.2-11.6z"/><path class="e" d="m364.9 708.3c8.2 0.1 16.4 0 24.7-0.1q0 2.7 0 5.4-4.7-0.1-9.4-0.1c0.2 8.4 0 16.7 0.1 25.1q-3.1 0.1-6.2 0.2c0-8.5 0.1-16.9 0-25.4q-4.7 0.1-9.3 0.1 0-2.6 0.1-5.2z"/><path class="e" d="m393.3 708.1q2.9 0.1 6 0.1c0 3.7-0.1 7.4-0.2 11.2 3.3-4.4 11.5-4.8 13.8 0.7 1.5 6.1 0.5 12.5 0.8 18.7q-2.9 0-5.8 0c-0.3-4.9 0-9.8-0.2-14.7 0-2.7-3.3-4.6-5.6-3.3-1.7 0.7-2.7 2.5-2.7 4.3-0.3 4.5-0.1 9.1-0.1 13.6q-3 0-6-0.1c0.1-10.1-0.1-20.3-0.1-30.5z"/><path class="e" d="m419.5 708.1q2.9 0 5.8 0.1 0 2.6 0.1 5.3-3 0-6 0 0-2.7 0.1-5.4z"/><path class="e" d="m457.3 708.1q2.9 0 5.8 0.1c0 5.3-0.2 10.7 0 16.1 2.7-2.4 4.5-5.5 7.3-7.8 2.4-0.4 4.9-0.3 7.3-0.3-2.6 2.9-5.4 5.6-8.1 8.6 3.1 4.5 5.7 9.3 8.6 13.9-2.2 0-4.5 0.3-6.7-0.1-2.2-3-3.8-6.4-5.6-9.6-3.7 2.1-2.8 6.3-2.8 9.8q-3 0-6-0.1c0.1-10.2 0.1-20.4 0.2-30.6z"/><path class="e" d="m481.2 708.2c2 0.1 4.2-0.4 6.1 0.4 4.5 6.3 8.5 13.1 12.6 19.7 0.5-6.7-0.2-13.4 0-20q2.9-0.1 5.9-0.1c0.2 10.2-0.2 20.4 0 30.6-2.1-0.1-4.2 0.2-6.2-0.3-4.4-6.4-8.1-13.2-12.6-19.6q0.1 9.9 0 19.8-2.9 0-5.7 0c0-10.1-0.3-20.3-0.1-30.5z"/><path class="e" d="m552.9 708.1q2.9-0.1 5.8-0.1c0 10.3 0 20.5 0.1 30.8-2.3-0.3-6.4 1.3-6-2.4-3.4 3.7-9.8 3.7-13.1-0.1-3.8-4.5-4-11.6-1-16.5 3.2-4.7 10.5-5.1 14.3-0.8-0.2-3.7-0.2-7.3-0.1-10.9zm-7.6 13.2c-2.8 1.8-2.5 5.8-2.2 8.8 0.2 3.2 4.1 6 7.1 4 3.1-1.8 2.9-5.9 2.5-9-0.2-3.5-4.4-5.6-7.4-3.8z"/><path class="e" d="m602.7 708.4q4.6-0.2 9.2-0.1c2.3 7.3 4.7 14.5 7.4 21.7 1.9-7.3 4.3-14.5 7-21.6q4.4-0.1 8.7-0.1 0.2 15.3 0.2 30.5-3 0-5.9 0c-0.2-8.1 0.2-16.1-0.1-24.1-2.6 7.9-4.6 16.1-7.3 24q-2.9 0-5.8 0c-2.5-8-4.7-16.1-7.5-24-0.1 8-0.1 16 0 24q-2.9 0-5.8 0c0.3-10.1-0.2-20.2-0.1-30.3z"/><path class="e" d="m639.7 716.1c1-3.9 4-7.5 8.3-7.9 5-1.1 11.2 2.2 11.3 7.8 0.3 2.7-1.9 4.6-3.7 6.3 3.5 1.7 5.8 5.4 4.9 9.3-1.5 7.1-11.3 9.9-16.9 5.8-2.3-1.5-3.4-4.2-4.4-6.6 2-0.7 4.1-0.8 6.2-0.8 0.6 2.2 2.1 4.4 4.6 4.5 4.2 0 6.1-5.9 3-8.5-1.3-1.8-3.6-1.2-5.4-0.9q0.2-2.2 0.3-4.3c1.8-0.7 4.6-0.7 5.3-2.9 1-2.5-1.4-5.7-4.2-4.8-2.3 0.1-3 2.6-3.8 4.3-1.9-0.4-3.7-0.8-5.5-1.3z"/><path class="e" d="m419.4 716.4q3-0.1 6 0c0 7.5 0.1 14.9 0 22.4q-3 0-5.8 0-0.1-11.2-0.2-22.4z"/><path class="e" d="m431.1 716.4q2.7-0.1 5.4-0.2c0 0.8-0.1 2.2-0.1 3 3.6-4.3 12-4.7 14.5 0.9 1.2 6.1 0.3 12.4 0.6 18.6q-3 0-5.9-0.1c-0.1-5 0.3-10.1-0.2-15.2-0.8-4.2-7.4-3.2-8 0.6-0.7 4.9-0.5 9.8-0.3 14.7q-3 0-6 0c0.2-7.4-0.1-14.9 0-22.3z"/><path class="e" d="m518.4 716.5c3.3-0.9 7-0.6 10 1.2 6.4 3.8 7.1 14.3 1.3 19-5 4.2-13.5 3.3-17.3-2.1-4-6.1-1.5-16.2 6-18.1zm1 5c-4.5 3-3.4 12.4 2.6 13 5.1-0.1 6.7-6.5 5-10.5-1-3-5-4.1-7.6-2.5z"/><path class="e" d="m564 722c2.6-7.4 14.6-8.3 18.3-1.3 1.4 2.5 1.4 5.6 1.7 8.4-5.1 0.1-10.2 0-15.3 0.2 0.4 2.4 1.7 5.1 4.5 5.4 2.3 0.5 3.8-1.3 4.8-3.1 1.9 0.3 3.9 0.6 5.8 1.2-2.6 7.2-12.9 8.7-18.2 3.6-3.4-3.9-3.4-9.8-1.6-14.4zm4.7 3.4q4.9 0.1 9.8 0c-0.7-2.2-1.9-4.7-4.5-4.8-2.9-0.6-4.7 2.4-5.3 4.8z"/><path class="e" d="m587.1 724.6c4.1 0 8.2 0.1 12.3 0.1q0.2 2.8 0.2 5.7c-4.2 0.1-8.3 0.1-12.4 0q-0.1-2.9-0.1-5.8z"/></svg>