<svg version="1.2" xmlns="http://www.w3.org/2000/svg" viewBox="0 0 752 1424" width="752" height="1424"><style>.a{fill:#fff}.b{fill:#232321}.c{fill:#040606}.d{fill:#cacac9}.e{fill:#e72524}.f{fill:#585856}</style><path class="a" d="m750.7 830.2c0.2-1.9 0.5-3.9 1.3-5.7v79.8c-0.5-1.8-1-3.7-1.4-5.6-1-22.8-0.7-45.6 0.1-68.5z"/><path class="b" d="m196.8 0h110.3c10.1 1.4 19.3 8.5 22.7 18.2 2.5 6.3 1.7 13.2 2.2 19.8 2.6 72.7 5.6 145.3 8.3 218 1.4 39.4 2.9 78.7 4.6 118.1 0.6 3.5-2 7-5.6 7.5-5.3-0.6-10.7 0-16.1-0.6-1.5-29.4-2.2-58.8-3.5-88.2-3-83.2-6.4-166.5-9.7-249.8-0.3-5.2 0.4-10.9-2.3-15.6-2.3-3.6-6.5-5.6-10.7-5.4-30.3 0.1-60.7 0-91.1 0.1-6.3-0.3-12.2 4.8-12.3 11.3-4.8 115.7-8.8 231.5-13.3 347.3-5.4 1.2-10.9 0.2-16.4 0.9-3.3-0.8-5.9-4.1-5.4-7.6 1-21.6 1.6-43.3 2.5-65 3.4-94.6 7.1-189.2 10.8-283.8 1.1-12.8 12-24 25-25.2zm-33.3 261c-0.7 7.6-0.4 15.4-0.3 23-0.9 6.7-1.5 13.4-0.7 20 0.5-14.3 2.2-28.7 1-43z"/><path class="b" d="m202.6 31.6c0.8-1.6 2.8-1.5 4.4-1.5 30.3 0.1 60.7-0.1 91.1 0 3.5 0.1 3.1 4.5 3.5 7 0.9 32.9 2.7 65.9 3.6 98.9 2.8 66.3 5 132.6 7.7 199 0.3 15.4 1.3 30.9 1.5 46.3-24.8 0.2-49.6 0-74.4 0.1-17-0.2-34 0.3-50.9-0.2 1.4-51.8 3.7-103.5 5.5-155.2 2.3-62.1 4.8-124.2 7-186.4 0.2-2.6 0.2-5.4 1-8z"/><path class="b" d="m157.7 400.1c0.2-3 3.3-4.8 6-4.7q4.1 0.5 8.3 0.4c55.9-0.2 111.8 0.1 167.7-0.2 3.1-0.3 5.9 2.2 6 5.3 0.1 5.8 0.7 11.5 0.5 17.3-0.6 2.3-2.6 3.7-4.9 4-18.4-0.8-36.9-0.3-55.3-0.4-33.7 0-67.4 0-101 0-7.4 0.2-14.7-0.4-22.1 0.2-0.4 2.1-0.6 4.2-1 6.3q0-3 0-6c-2.5-0.6-5-2.5-5-5.2 0.6-5.7 0.4-11.4 0.8-17z"/><path class="b" d="m156.9 439.4c0.1-2.5 2.8-3.3 4.9-3.5 34.1 0.5 68.2 0.1 102.3 0.2 25.7-0.2 51.5 0.3 77.3-0.3 2.8 0.1 5.5 2.1 5.4 5.1 0.7 12.2 1.7 24.5 2 36.8-50.2 0-100.5 0-150.8 0-14.4-0.1-28.8 0.2-43.2-0.1 0-2.3 0-4.6 0.4-6.9 0.3 0.6 0.9 1.7 1.1 2.3 0.3-5.7 1.2-11.3 1.1-17-0.1-5.5 1.1-11.2-0.5-16.6z"/><path class="b" d="m127.9 510.6c0.1-0.1 0.3-0.1 0.4-0.2 4.9 0.5 9.8 0.3 14.7 0.4 58.6-0.1 117.3 0 176 0 18.6-0.4 37.4 0.6 56-0.4 0.2 0 0.6 0.1 0.8 0.1 3 1.9 6.8 1.1 10.2 1.3 3.3-0.2 6.8 0.4 9.8-1.3 0.1 0 0.2 0 0.3 0 5.9 0.6 11.9 0.2 17.9 0.4 40.6-0.4 81.2 0.3 121.8-0.3 0.2 0 0.6 0.1 0.8 0.1 4.3 1.4 8.9 0.7 13.4 1 34-0.1 68-0.1 102-0.1 1.9 0 3.7-0.4 5.5-0.8 24.1 1.8 46.9 15.2 60.9 34.8 10.3 14.6 16.2 32.4 16.2 50.4 0.2 36.7 0 73.5 0.2 110.2-0.1 66.3 0 132.6-0.1 198.8 0.2 27.9-0.2 55.7 0.2 83.6-0.2 78.4 0 156.9-0.1 235.3 0.2 3.4-2.3 6.2-5.1 7.7 0.3 27.8 0.1 55.6 0.1 83.4-0.1 12.6 0.8 25.4-1.8 37.8-4 19.1-15.1 36.7-30.6 48.5-14 10.9-31.6 17.1-49.4 17.7-4.8 0.3-9.6 0.2-14.5 0.1-0.1 1.8-0.5 3.7-2 4.9h-30.9c-1.6-1.2-2.2-3-2.2-4.9-108.1 0.1-216.2 0.1-324.3 0.1-45.6-0.1-91.2 0.1-136.7-0.1 0 1.8-1 3.4-2.1 4.9h-31.3c-1.2-1.4-1.8-3-1.7-4.9-11.4 0.2-22.9 0.2-33.9-2.8-19.9-5.5-37.8-18.2-49.2-35.5-7.5-11.8-12.6-25.3-13.4-39.4 1.3-4.7 0.7-9.6 0.9-14.4-0.3-31.5 0.2-63-0.3-94.6-0.2-0.2-0.6-0.6-0.8-0.8-3.5-2.3-6.3-6.5-4.9-10.9l-0.7-6.6v-489.6c0.4-3.3 1.7-6.3 4.5-8.2 0.4-40.8 0-81.5 0.3-122.3 0.3-24.3 11.6-48.3 30.5-63.7 13.3-11.5 30.6-18.5 48.2-19.6 4.4 1.3 9 0.8 13.5 0.9q13 0.1 26 0.1c1.7 0.1 3.4-0.4 4.9-1.1zm-51.6 27.8c-7.8 1.5-15.5 4.2-22.3 8.5-11.5 7.1-19.6 18.9-23.4 31.7-2.7 8.6-2.8 17.6-2.7 26.4 0.1 239.7 0 479.3 0.1 719-0.1 9.7 0.1 19.5 3.4 28.7 4 13 13 24.1 23.9 32.1 10.8 7.2 23.7 11.2 36.7 11.3q262.5 0 525 0c11.1-0.2 22.1 0.3 33.1-0.4 10.8-1.2 21.4-5 30.5-11.1 7.9-6.1 14.9-13.5 19.6-22.3 5.1-9.9 7.4-21.1 6.9-32.3 0.2-244.6 0.1-489.3 0.2-734 0.3-9.2-2.1-18.3-5.6-26.7-6.1-13.4-18.3-23.1-31.7-28.3-6.1-2.2-12.5-3.3-19-3.2q-284 0-568 0c-2.2 0.1-4.5 0.2-6.7 0.6z"/><path class="b" d="m573.3 549.4c12.2-0.7 24.5 0 36.7-0.3 14 0 28 0 42.1 0 10.7 0 22 3.3 29.7 11.1 7 6.5 11.2 15.6 13.1 24.8 1.5 6.9 1.3 14 1.3 21 0 12.7-0.2 25.3-0.4 38 0.2 2.5-2.3 4.5-4.5 4.6-3.5-1.1-6.2-3.9-9.2-5.8-36.6-28.3-72.9-57.1-109.4-85.5-3-1.8-3.3-7.2 0.6-7.9z"/><path class="b" d="m84.5 564.6c17.1-0.5 34.3 0 51.5-0.2 131.3 0 262.7 0 394 0 5.8-0.1 11.7 1.2 17 3.6 6.1 2.9 11.2 7.4 16.6 11.5 34.2 27.1 68.5 54.1 102.5 81.3 9.6 8 15 20.7 14.6 33.1-0.1 211.1 0 422.1 0 633.1 0.1 7.5-0.2 15.2-3.7 22-4.8 10-14.5 17.3-25.3 19.6-4.2 0.7-8.5 0.7-12.7 0.7-180.4 0-360.7-0.1-541 0-8.2 0.3-16.7-0.4-23.9-4.5-11.4-5.8-19.1-18.1-19.4-30.8-0.4-10-0.1-20-0.1-30 0-235 0.1-470 0-705-0.5-16.8 13.4-32.3 29.9-34.4zm51.9 197.1c-8.7 1.9-15.2 10.4-14.7 19.3q0 106.5 0 213c-0.5 9 6.8 17.3 15.7 18.5 4.2 0.4 8.4 0.1 12.6 0.1q222.5 0 445 0c6.9 0.3 13.7-3.6 16.8-9.8 2.5-4.2 1.7-9.2 1.9-13.8-0.1-69.7 0-139.4 0-209 0.1-9.6-7.9-18.6-17.7-18.5-140.7 0-281.4 0-422 0-12.5 0.1-25.1-0.4-37.6 0.2zm83.4 439.8c-4.2 1-7.6 4.5-9.2 8.4-0.4 3.8-1.1 8.1 1 11.5 3.5 6.9 13.4 9.6 19.5 4.9 7.7-4.5 8.3-16.3 1.5-21.8-3.3-3.5-8.4-3.7-12.8-3zm49.4 4.8c-6 2-7.7 10.4-3.3 14.7 4.4 5.1 13.8 2.6 15.3-3.9 2.3-6.7-5.5-13.8-12-10.8zm48 0c-6.1 1.8-7.8 10.5-3.4 14.9 4.5 4.9 14 2.5 15.3-4.2 2.2-6.6-5.5-13.5-11.9-10.7zm47.1 0.2c-5.9 2.3-7.1 11.4-2 15.2 4.6 4.3 13.4 1.6 14.6-4.7 2.2-7-6.2-13.8-12.6-10.5zm48.1 0c-3.1 1.2-5.3 4.2-5.4 7.5-0.8 5.5 4.5 10.7 10 9.7 5.6-0.5 9.5-6.8 7.5-12.1-1.7-4.7-7.6-7.2-12.1-5.1zm47.9-0.1c-6.5 2.4-7.2 12.2-1.6 15.8 5.2 3.8 13.6 0.3 14.1-6.2 1.3-6.6-6.4-12.5-12.5-9.6zm48.1 0c-6.3 2.2-7.5 11.5-2.3 15.5 5 4.2 13.9 0.8 14.5-5.9 1.3-6.5-6.1-12.4-12.2-9.6zm-291.2 46c-6.7 1-13.1 4.1-18.1 8.8-3 2.9 1.7 7.3 4.6 4.5 7.4-6.4 17.8-9.5 27.3-6.8 4.9 1.1 8.9 4.3 12.8 7.3 2.1 1.7 5.6-0.4 5.1-3.1-0.6-2.7-3.4-4-5.6-5.4-7.6-5-17.1-6.6-26.1-5.3zm-3.9 14.8c-2.4 1.4-5.3 2.9-5.8 5.9 0.5 1.5 1.9 2.6 3.5 2.7 2.6-1.5 5-3.8 8.1-4.6 4.7-1.2 10.1-0.3 13.9 2.8 1.4 0.8 2.9 2.7 4.7 1.6 1.3-1 2.7-3 1.1-4.4-6.2-7-17.3-8.3-25.5-4zm10.1 11.2c-3.5 0.3-6.5 4-5.3 7.5 0.8 4.4 7.3 5.9 10 2.2 3.4-3.5 0.2-10.2-4.7-9.7zm-92.3 3.6c-0.1 2.7-0.1 5.4 0 8.2 4.9 0.2 9.8-0.2 14.7 0 0.4 13.8-0.4 27.7 0.3 41.5 3.2 0 6.4-0.1 9.6-0.1 0.3-13.8 0-27.6 0.1-41.5 4.9-0.2 9.9 0.7 14.7-0.3q0.1-3.7 0.1-7.5c-3.3-1.1-7.1-0.1-10.6-0.4-9.6 0.5-19.3-0.2-28.9 0.1zm45.8 0c0.1 16.5-0.2 33 0.2 49.6q4.4 0 8.8 0c1.2-8-0.4-16.5 1.2-24.5 1.5-5.5 11-6.9 12.5-0.8 1.3 8.4-0.1 16.9 0.6 25.4 3.1 0.1 6.3 0.1 9.4 0 0-6.6 0.1-13.1 0.1-19.7-0.1-4.2 0.1-8.7-2.3-12.3-3.1-4-8.6-5.7-13.4-4.6-3 0.7-5.5 2.7-7.9 4.6 0.4-5.9 0.3-11.8 0.1-17.8-3.1-0.1-6.2-0.2-9.3 0.1zm103 0q0.3 24.8 0.4 49.7 4.6 0 9.3-0.1c0.1-3.9-0.1-7.7 0-11.6 1.4-1.7 3-3.2 4.5-4.7 3.1 5.4 5.5 11.3 9 16.4q5.1 0.1 10.3 0c-4.1-7.7-8.7-15-13.1-22.6 3.7-4.8 8.3-8.9 12.3-13.5-3.8 0-7.7-0.1-11.5 0-4.1 3.9-7.1 8.9-11.5 12.4 0-8.7 0.2-17.3 0.1-26-3.3-0.4-6.5-0.2-9.8 0zm39.4 0.1c-0.2 16.5-0.1 33.1 0 49.6 3.1 0.1 6.2 0 9.3-0.1-0.1-10.5 0.1-21-0.1-31.5 7.4 9.9 13.1 21.1 19.8 31.6 3.4 0 6.9 0.4 10.2-0.3-0.1-16.5 0.1-32.9-0.2-49.4q-4.6-0.2-9.2 0c0 11 0.1 21.9 0.2 32.9-7.4-10.5-13.2-22.2-20.5-32.9-3.2-0.3-6.4-0.3-9.5 0.1zm115.5-0.2c-0.3 5.8 0.1 11.7 0 17.6-1.9-1.3-3.5-3-5.6-3.8-6.3-2.1-14.1 0-17.5 6-3.2 5.8-3 13-1.7 19.3 1.6 7.5 9.5 12.9 17 11.3 3.3-0.5 5.9-2.6 8.1-4.9q0 2.1 0.1 4.3 4.3 0 8.6-0.1c0.2-16.6 0.4-33.1 0.3-49.7-3.1-0.2-6.2-0.2-9.3 0zm80.4 0.1q-0.1 24.8 0.1 49.6c3.1 0.1 6.2 0 9.3 0-0.1-12 0.2-24 0.1-35.9 1.8 0.8 1.3 3.1 1.9 4.7 2.7 10.4 5.4 20.8 7.8 31.2 3.2 0.4 6.4 0.1 9.5 0.2 4.3-11.7 5.6-24.6 10.2-36.1 0.3 12 0.3 24 0.3 36q4.5 0.1 9.1 0c0.2-14.3 0.2-28.5 0.1-42.8-0.2-2.3 0.4-4.8-0.4-7.1-4.9 0.3-9.9 0-14.9 0.4-3 11-5.3 22.2-8.9 33-3.3-10.9-6-22-8.9-33-5-0.6-10.2-0.3-15.3-0.2zm62.4 2.6c-4.1 2.4-5.6 7.3-6.3 11.6 3 1.2 6.3 1 9.5 1.6 0.3-2.1 0.2-4.5 1.8-6.1 3-3.5 9.4-2.7 11.2 1.6 1.5 4-0.3 8.4-3.3 11.2-4 3.7-7.9 7.4-11.8 11.3-4.4 4.1-8.1 9.6-8.4 15.9 11.1 0.1 22.3-0.1 33.4-0.1 0.1-2.9 0-5.8 0-8.7-6.4-0.4-12.8 0-19.2 0 4.3-5.8 10.6-9.6 14.9-15.4 4.8-5.4 6.2-14.4 1.4-20.3-5.6-6.6-16.1-6.9-23.2-2.6zm-323.3 10.9c-3.1 0.7-5.3 3.1-7.6 5.1q0-2.5 0.1-4.9c-2.9 0-5.8-0.5-8.6 0.1-0.1 11.9 0.1 23.9 0.1 35.8q4.7 0 9.5 0.1c0-6.9-0.1-13.8-0.1-20.7-0.7-5.7 5.2-10.9 10.6-8.3 2.2 1.2 3.1 3.9 3.1 6.3 0.1 7.6-0.2 15.2 0 22.7 3.1 0.2 6.3 0 9.4-0.1 0-7.9 0.1-15.8 0.1-23.7 0-3.4-0.6-7.2-3.2-9.6-3.4-3.5-8.9-3.8-13.4-2.8zm126-0.1c-3.8 0.9-7.4 2.9-9.7 6.1-4.6 5.9-4.7 14.2-2.1 20.9 4.7 11.3 21.6 13.5 29.8 4.9 6.2-6 6.9-16.2 3-23.6-4.1-7.1-13.2-10-21-8.3zm74.4 5.3c-3.9 4.8-4.3 11.5-3.5 17.4 0.7 5.3 3.5 10.9 8.8 13 4.8 1.9 10.3 1.9 15.2 0.2 4.2-1.5 7.2-5.2 8.5-9.4-2.8-0.7-5.8-0.9-8.8-1.3-1.3 1.8-2.3 4.3-4.8 4.7-5.2 1.2-9.7-3.6-9.6-8.6 7.9-0.9 15.9-0.2 23.9-0.4 0-5.5-0.5-11.3-3.9-15.8-6.3-7.7-19.7-7.6-25.8 0.2zm-235.8-5.1c0 12 0.5 24.1 0.2 36.1q4.7 0 9.4-0.1c-0.1-12 0.4-24.1-0.1-36.2-3.2 0-6.4-0.1-9.5 0.2zm272.1 13.3c-0.1 3.1 0 6.2 0.1 9.3q9.5 0.2 19 0.1c0-3.2 0.1-6.4 0-9.6-6.4-0.2-12.8 0.1-19.2 0.2z"/><path class="b" d="m424.4 1302.5c3.4-1.3 7.6 0.5 9.1 3.9 1.7 3.9 1.5 8.5 0.6 12.6-0.8 5.3-8.4 8-12.2 4.2-3.3-3.1-3.4-8.1-3-12.2 0.2-3.5 1.9-7.3 5.5-8.5z"/><path class="b" d="m464.1 1303.1c2.7-1.6 6.6-1.5 8.9 1 1.4 1.8 2 4.2 2 6.6-4.6 0.1-9.2-0.3-13.8-0.2l-0.6-0.5c0.3-2.6 1.1-5.4 3.5-6.9z"/><path class="b" d="m381.4 1303.5c3.6-1.8 8.3-0.8 10.5 2.5 3 4.6 2.9 11.2-0.1 15.7-3.5 4.8-11.6 3.9-14.1-1.4-2.5-5.4-1.9-13.6 3.8-16.8z"/><path class="c" d="m193.6 33.4c0.1-6.5 6-11.6 12.3-11.3 30.4-0.1 60.8 0 91.1-0.1 4.2-0.2 8.4 1.8 10.7 5.4 2.7 4.7 2 10.4 2.3 15.6 3.3 83.3 6.7 166.6 9.7 249.8 1.3 29.4 2 58.8 3.5 88.2 5.4 0.6 10.8 0 16.1 0.6q0.4 7 0.4 14c-55.9 0.3-111.8 0-167.7 0.2q-4.2 0.1-8.3-0.4c0.1-4.6 0.2-9.2 0.2-13.8 5.5-0.7 11 0.3 16.4-0.9 4.5-115.8 8.5-231.6 13.3-347.3zm9-1.8c-0.8 2.6-0.8 5.4-1 8-2.2 62.2-4.7 124.3-7 186.4-1.8 51.7-4.1 103.4-5.5 155.2 16.9 0.5 33.9 0 50.9 0.2 24.8-0.1 49.6 0.1 74.4-0.1-0.2-15.4-1.2-30.9-1.5-46.3-2.7-66.4-4.9-132.7-7.7-199-0.9-33-2.7-66-3.6-98.9-0.4-2.5 0-6.9-3.5-7-30.4-0.1-60.8 0.1-91.1 0-1.6 0-3.6-0.1-4.4 1.5z"/><path class="c" d="m163.5 261c1.2 14.3-0.5 28.7-1 43-0.8-6.6-0.2-13.3 0.7-20 0-7.6-0.4-15.4 0.3-23z"/><path class="c" d="m162.9 422c7.4-0.6 14.7 0 22.1-0.2 33.6 0 67.3 0 101 0 18.4 0.1 36.9-0.4 55.3 0.4 0 4.5 0.2 9.1 0.1 13.6-25.8 0.6-51.6 0.1-77.3 0.3-34.1-0.1-68.2 0.3-102.3-0.2 0.1-2.5 0.1-5.1 0.1-7.6 0.4-2.1 0.6-4.2 1-6.3z"/><path class="c" d="m156.9 439.4c1.6 5.4 0.4 11.1 0.5 16.6 0.1 5.6-0.8 11.3-1.1 17-0.2-0.6-0.8-1.7-1.1-2.3 0.2-10.4 1.2-20.8 1.7-31.3z"/><path class="c" d="m142.6 483.6c3.3-3.3 7.7-5 12.2-6.1 14.4 0.4 28.8 0.1 43.2 0.2 50.3 0 100.6 0 150.8 0 4.5 0.5 8.8 2.4 12.1 5.4 4.1 4.4 5.9 10.1 8.4 15.4q2.9 5.9 5.7 11.9c-18.6 1-37.4 0-56 0.4-58.7 0-117.4-0.1-176 0-4.9-0.1-9.8 0.1-14.7-0.4 2.3-4.4 4.4-9 6.7-13.4 2.4-4.6 4-9.6 7.6-13.4z"/><path class="c" d="m396.1 510.6c1.1-4.1 4.8-7.4 9.1-7.2q60.9 0 121.8 0c4.2-0.1 7.6 3.4 8.7 7.2-40.5 0.6-81.1-0.1-121.7 0.3-6-0.2-12 0.2-17.9-0.4z"/><path class="c" d="m83.5 510.8c14.8-0.4 29.6-0.1 44.4-0.2-1.5 0.7-3.2 1.2-4.9 1.1q-13 0-26-0.1c-4.5-0.1-9.1 0.4-13.5-0.9z"/><path class="c" d="m375.8 510.5c6.6 0.2 13.3 0.1 20 0.1-3 1.6-6.5 1-9.8 1.2-3.4-0.2-7.2 0.6-10.2-1.3z"/><path class="c" d="m536.6 510.7c15.1-0.2 30.3-0.1 45.4-0.1 25.2 0.1 50.4-0.3 75.5 0.2-1.8 0.5-3.6 0.8-5.5 0.8-34 0-68 0-102 0.1-4.5-0.3-9.1 0.4-13.4-1z"/><path class="c" d="m76.3 538.4c2.3-0.4 4.5-0.5 6.8-0.6q283.9 0 567.9 0c6.5-0.1 12.9 1 19 3.2 13.4 5.2 25.6 14.9 31.7 28.3 3.5 8.4 5.9 17.5 5.6 26.7-0.1 244.7 0 489.4-0.2 734 0.5 11.2-1.8 22.4-6.8 32.3-4.7 8.8-11.8 16.2-19.7 22.3-9.1 6.1-19.7 9.9-30.5 11.1-11 0.7-22 0.2-33 0.4q-262.6 0-525.1 0c-13-0.1-25.9-4.1-36.7-11.3-10.9-8-19.9-19.1-23.9-32.1-3.2-9.2-3.5-19-3.4-28.7 0-239.7 0-479.3-0.1-719 0-8.8 0-17.8 2.7-26.3 3.8-12.9 11.9-24.7 23.4-31.8 6.8-4.3 14.5-7 22.3-8.5zm497 11c-3.9 0.8-3.6 6.1-0.6 7.9 36.5 28.4 72.8 57.2 109.4 85.5 3 1.9 5.7 4.7 9.2 5.8 2.2-0.1 4.7-2.1 4.5-4.6 0.2-12.7 0.4-25.3 0.4-38 0-7 0.2-14.1-1.3-21-1.9-9.2-6.1-18.3-13.1-24.8-7.7-7.8-19-11.1-29.7-11.1-14.1 0-28.1 0-42.1 0-12.2 0.3-24.5-0.4-36.7 0.3zm-488.8 15.2c-16.5 2.1-30.4 17.7-29.9 34.4 0.1 235 0 470 0 705 0.1 10-0.3 20 0.1 30 0.3 12.7 8 25 19.4 30.8 7.2 4.1 15.7 4.8 23.9 4.5 180.3 0 360.7 0 541 0 4.2 0 8.5 0 12.7-0.7 10.8-2.3 20.5-9.6 25.3-19.6 3.5-6.7 3.8-14.5 3.7-22 0-211 0-422 0-633.1 0.4-12.4-4.9-25.1-14.6-33.1-34-27.2-68.3-54.2-102.5-81.3-5.4-4.1-10.5-8.6-16.6-11.5-5.3-2.4-11.1-3.7-17-3.6-131.3 0-262.7 0-394 0-17.2 0.2-34.4-0.3-51.5 0.2z"/><path class="c" d="m734.8 706.2c3.7 1.7 8 1.3 11.7 3.2 2 1 2.9 3.4 3.1 5.6 1.2 12.1 2.2 24.2 2.4 36.4v21.3c-0.3 19.2-1 38.4-1.3 57.5-0.7 22.9-1.1 45.7 0 68.5 0.1 10 1 19.9 1.3 29.9v13.1c0 12.5-0.8 25-2.3 37.4-0.2 2.8-1 6.4-4.2 7.2-3.6 0.5-7.1 1.6-10.6 2.3-0.3-27.9 0-55.7-0.2-83.6 0.1-66.2 0-132.5 0.1-198.8z"/><path class="c" d="m136.4 761.7c12.5-0.6 25-0.1 37.6-0.2 140.6 0 281.3 0 422 0 9.8-0.1 17.8 8.9 17.6 18.5 0.1 69.6 0 139.3 0.1 209-0.2 4.6 0.6 9.6-1.9 13.8-3.1 6.2-9.9 10.1-16.8 9.8q-222.5 0-445 0c-4.2 0-8.4 0.3-12.6-0.2-8.9-1.1-16.2-9.4-15.7-18.4q0-106.5 0-213c-0.5-8.9 6-17.4 14.7-19.3z"/><path class="c" d="m5.6 1231.6c0.2 0.2 0.6 0.6 0.8 0.8 0.6 31.6 0 63.1 0.3 94.7-0.2 4.7 0.5 9.6-0.9 14.3-0.5-7.5-0.2-14.9-0.2-22.4 0-29.1-0.1-58.3 0-87.4z"/><path class="d" d="m750.7 830.2c0.3-19.1 1-38.3 1.3-57.5v51.8c-0.8 1.8-1.1 3.8-1.3 5.7z"/><path class="d" d="m750.6 898.8c0.4 1.8 0.9 3.7 1.4 5.5v24.3c-0.4-10-1.2-19.9-1.4-29.8z"/><path class="e" d="m219.8 1201.5c4.4-0.7 9.5-0.5 12.8 3 6.7 5.5 6.2 17.3-1.5 21.8-6.2 4.7-16.1 2-19.5-4.9-2.1-3.4-1.4-7.7-1-11.5 1.6-3.9 5-7.4 9.2-8.4z"/><path class="f" d="m269.2 1206.3c6.5-3 14.3 4.1 12 10.8-1.5 6.5-10.9 9-15.3 3.9-4.4-4.3-2.7-12.7 3.3-14.7z"/><path class="f" d="m317.2 1206.3c6.4-2.8 14.1 4.1 11.9 10.7-1.3 6.7-10.8 9.1-15.3 4.2-4.4-4.4-2.7-13.1 3.4-14.9z"/><path class="f" d="m364.3 1206.5c6.4-3.3 14.8 3.5 12.6 10.5-1.2 6.3-10 9-14.6 4.7-5.1-3.8-3.9-12.9 2-15.2z"/><path class="f" d="m412.4 1206.5c4.5-2.1 10.4 0.4 12.1 5.1 2 5.3-1.9 11.7-7.5 12.1-5.5 1.1-10.8-4.2-10-9.7 0.1-3.3 2.3-6.3 5.4-7.5z"/><path class="f" d="m460.3 1206.5c6.1-3 13.8 2.9 12.5 9.5-0.6 6.5-8.9 10-14.1 6.2-5.7-3.6-4.9-13.4 1.6-15.7z"/><path class="f" d="m508.4 1206.4c6.1-2.8 13.5 3.1 12.2 9.6-0.6 6.7-9.5 10.1-14.5 5.9-5.2-4-4-13.3 2.3-15.5z"/><path class="f" d="m217.2 1252.4c9-1.3 18.5 0.3 26.1 5.3 2.2 1.4 5 2.7 5.6 5.4 0.5 2.7-3 4.8-5.1 3.1-3.9-3-7.9-6.2-12.8-7.3-9.5-2.7-19.9 0.4-27.3 6.8-2.9 2.8-7.6-1.6-4.6-4.5 5-4.7 11.4-7.8 18.1-8.8z"/><path class="f" d="m213.3 1267.3c8.1-4.3 19.3-3.1 25.5 3.9 1.6 1.4 0.2 3.4-1.1 4.4-1.8 1.1-3.3-0.8-4.7-1.6-3.8-3.1-9.2-4-13.9-2.8-3.1 0.8-5.5 3.1-8.1 4.6-1.6-0.1-3-1.2-3.5-2.7 0.5-3 3.4-4.5 5.8-5.8z"/><path class="f" d="m223.4 1278.4c4.9-0.5 8.1 6.2 4.7 9.7-2.7 3.7-9.2 2.2-10-2.2-1.2-3.5 1.8-7.2 5.3-7.5z"/><path class="f" d="m131.1 1282c9.6-0.3 19.3 0.4 28.9-0.1 3.5 0.3 7.3-0.7 10.6 0.4q0 3.8-0.1 7.5c-4.8 1-9.8 0.1-14.7 0.3-0.1 13.9 0.2 27.7-0.1 41.5-3.2 0-6.4 0.1-9.6 0.1-0.7-13.8 0.1-27.7-0.3-41.5-4.9-0.2-9.8 0.2-14.7 0-0.1-2.7-0.1-5.5 0-8.2z"/><path class="f" d="m176.9 1282c3.1-0.3 6.2-0.2 9.3 0 0.2 5.9 0.3 11.8-0.1 17.7 2.4-1.9 4.9-3.9 7.9-4.6 4.8-1.1 10.3 0.6 13.3 4.6 2.5 3.6 2.3 8.1 2.4 12.3 0 6.6-0.1 13.1-0.1 19.7-3.1 0.1-6.3 0.1-9.4 0-0.7-8.4 0.7-17-0.6-25.4-1.5-6.1-11-4.7-12.5 0.8-1.6 8 0 16.5-1.2 24.5q-4.4 0-8.8 0c-0.4-16.6-0.1-33.1-0.2-49.6z"/><path class="f" d="m279.9 1282c3.3-0.2 6.5-0.4 9.8 0 0.1 8.7-0.1 17.3-0.1 26 4.4-3.5 7.4-8.5 11.5-12.4 3.8-0.1 7.7 0 11.5 0-4 4.6-8.6 8.7-12.3 13.5 4.3 7.6 9 14.9 13.1 22.6q-5.2 0.1-10.3 0c-3.5-5.1-5.9-11-9-16.4-1.5 1.5-3.1 3-4.5 4.7-0.1 3.9 0.1 7.7 0 11.6q-4.7 0.1-9.3 0.1-0.1-24.9-0.4-49.7z"/><path class="f" d="m319.3 1282.1c3.1-0.4 6.3-0.4 9.5 0 7.3 10.6 13.1 22.3 20.5 32.8-0.1-11-0.2-21.9-0.2-32.9q4.6-0.2 9.2 0c0.3 16.5 0.1 32.9 0.2 49.4-3.3 0.7-6.8 0.4-10.2 0.3-6.7-10.4-12.4-21.7-19.8-31.6 0.2 10.5 0 21 0.1 31.5-3.1 0.1-6.2 0.2-9.3 0.1-0.1-16.5-0.2-33.1 0-49.6z"/><path class="f" d="m434.8 1281.9c3.1-0.2 6.2-0.2 9.3 0 0 16.6-0.2 33.1-0.3 49.7q-4.3 0.1-8.6 0.1-0.1-2.2-0.1-4.3c-2.2 2.3-4.9 4.4-8.1 4.9-7.5 1.6-15.4-3.8-17-11.3-1.3-6.3-1.5-13.5 1.7-19.3 3.4-6 11.2-8.1 17.4-6 2.2 0.8 3.8 2.5 5.7 3.8 0.1-5.9-0.3-11.8 0-17.6zm-10.4 20.6c-3.6 1.2-5.3 5-5.5 8.5-0.4 4.1-0.3 9.1 3 12.2 3.8 3.8 11.4 1.1 12.2-4.2 0.9-4.1 1.1-8.7-0.6-12.6-1.5-3.4-5.7-5.2-9.1-3.9z"/><path class="f" d="m515.2 1282c5.1-0.1 10.3-0.4 15.3 0.3 2.9 10.9 5.6 22 8.9 32.9 3.6-10.8 5.9-22 8.9-33 5-0.4 10-0.1 14.9-0.4 0.8 2.3 0.2 4.8 0.4 7.1 0.1 14.3 0.1 28.5-0.1 42.8q-4.6 0.1-9.1 0c0-12 0-24-0.3-36-4.6 11.5-5.9 24.4-10.2 36.1-3.1-0.1-6.3 0.2-9.5-0.2-2.5-10.4-5.1-20.8-7.8-31.2-0.6-1.6-0.1-3.9-1.9-4.7 0.1 11.9-0.2 23.9-0.1 35.9-3.1 0-6.2 0.1-9.3 0q-0.2-24.8-0.1-49.6z"/><path class="f" d="m577.6 1284.6c7.1-4.3 17.5-4 23.2 2.6 4.8 5.9 3.4 14.9-1.4 20.3-4.3 5.8-10.6 9.6-14.9 15.4 6.4 0 12.8-0.4 19.2 0 0 2.9 0.1 5.8 0 8.7-11.1 0-22.3 0.2-33.4 0.1 0.3-6.3 3.9-11.7 8.4-15.9 3.9-3.9 7.8-7.6 11.8-11.3 3-2.8 4.8-7.2 3.3-11.2-1.8-4.3-8.2-5.1-11.2-1.6-1.6 1.6-1.5 4-1.9 6.1-3.1-0.5-6.5-0.4-9.4-1.5 0.7-4.4 2.2-9.3 6.3-11.7z"/><path class="f" d="m254.3 1295.5c4.5-1 10-0.7 13.4 2.8 2.6 2.5 3.2 6.2 3.2 9.6 0 7.9-0.1 15.8-0.1 23.7-3.1 0.1-6.3 0.3-9.4 0.1-0.2-7.5 0.1-15.1 0-22.7 0-2.4-0.9-5.1-3.1-6.3-5.4-2.6-11.3 2.6-10.6 8.3 0 6.9 0.1 13.8 0.1 20.7q-4.8-0.1-9.5-0.1c0-11.9-0.2-23.9-0.1-35.8 2.8-0.6 5.7-0.1 8.6-0.1q-0.1 2.4-0.1 4.9c2.3-2 4.5-4.4 7.6-5.1z"/><path class="f" d="m380.3 1295.4c7.8-1.7 16.9 1.2 21 8.3 3.9 7.4 3.2 17.6-3 23.6-8.2 8.6-25.1 6.4-29.8-4.9-2.6-6.7-2.5-15 2.1-20.9 2.3-3.2 5.9-5.2 9.7-6.1zm1.1 8c-5.6 3.3-6.2 11.5-3.7 16.9 2.5 5.3 10.6 6.2 14 1.4 3.1-4.5 3.2-11.1 0.2-15.7-2.2-3.3-7-4.3-10.5-2.6z"/><path class="f" d="m454.7 1300.7c6.1-7.8 19.5-7.9 25.8-0.2 3.4 4.5 3.9 10.3 3.9 15.8-8 0.2-16-0.5-23.9 0.4-0.1 5 4.4 9.8 9.6 8.6 2.5-0.4 3.5-2.9 4.8-4.7 3 0.4 6 0.6 8.8 1.3-1.3 4.2-4.3 7.9-8.5 9.4-4.9 1.7-10.4 1.7-15.2-0.2-5.3-2.1-8.1-7.7-8.8-13-0.8-5.9-0.4-12.6 3.5-17.4zm9.4 2.4c-2.4 1.4-3.2 4.3-3.5 6.9l0.6 0.5c4.6-0.1 9.2 0.3 13.8 0.2 0-2.4-0.6-4.8-2-6.6-2.2-2.5-6.2-2.6-8.9-1z"/><path class="f" d="m218.9 1295.6c3.1-0.3 6.3-0.2 9.4-0.1 0.6 12 0.1 24.1 0.2 36.1q-4.7 0.1-9.4 0.1c0.3-12-0.2-24.1-0.2-36.1z"/><path class="f" d="m490.9 1308.9c6.4-0.1 12.8-0.4 19.2-0.2 0.1 3.2 0.1 6.4 0.1 9.6q-9.6 0.1-19.1-0.1c0-3.1-0.2-6.2-0.1-9.3z"/></svg>