<svg version="1.2" xmlns="http://www.w3.org/2000/svg" viewBox="0 0 1024 1024" width="1024" height="1024"><style>.a{fill:#505050}.b{fill:#030404}.c{fill:#939393}</style><path class="a" d="m43.3 0h3.4c1.8 1.3 3.4 2.7 5 4.3 8.1 7.9 16 15.9 23.9 24.1 2.7 2.9 5.9 5.5 7.8 9.1 2.6 5.4 2.3 11.6 2.3 17.5-0.1 180.3 0 360.7 0 541.1 1 5.3-4.2 8.1-6.6 12.1-0.8 2.4-0.5 5.1-0.7 7.7q2.8 0 5.7 0c0.3-2.2-0.4-4.8 1-6.7 2.8-0.5 5.7-0.3 8.5-0.3 0-48.3-0.1-96.6 0-144.9 0-8.1 3-16.1 8-22.4 6-7 14.7-11.6 23.9-12.3 3.8-0.3 7.7-0.1 11.5-0.1q379.5 0 759 0c18.1-0.2 34.3 15.8 34.5 33.8 0.1 48.7 0 97.3 0 146q4.5-0.1 9-0.1 0.2 3.5 0.7 7 2.6 0 5.4 0.1c-0.2-2.6 0.1-5.3-0.6-7.8-2-3.9-7.3-6.2-6.7-11.1 0-182.4 0-364.8 0-547.1 0.1-5.6 0.6-11.8 4.7-16 7.1-7.6 14.5-14.8 21.7-22.3 4.2-4 7.9-8.8 13-11.7h3.2c1.9 2.3 3.3 5 3 8-0.1 86 0 172 0 258-0.1 57.3 0.3 114.7 0 172 0 19 0.5 38 0.1 57-0.3 14.7 0.2 29.3 0.1 44 0 40.4-0.1 80.8 0.1 121.2-8.4-0.1-16.9 0.4-25.3-0.2-5.6-0.6-9.6-5.1-12.4-9.7q-3.1-0.2-6.3-0.3c-0.1 2.5 0 5-0.8 7.4-3 0.4-5.9 0.2-8.9 0.2-0.2 111.8 0 223.5-0.1 335.3-0.3 8.1-4.4 15.8-10 21.5-5.4 5.5-12.7 8.6-20.2 9.6h-776.8c-12-1.5-22.9-9.6-27.4-20.9-3.4-7.9-2.2-16.7-2.4-25.1-0.1-106.7 0.1-213.5-0.1-320.3-2.7 0-5.5 0.2-8.2-0.3-1.8-1.7-0.9-4.8-1.2-7.1q-3.5-0.1-6.9-0.1c-2.6 5.1-7.2 9.6-13.2 9.9-8 0.4-16.1 0-24.2 0.2 0.1-214.5 0-428.9 0-643.3 0.1-4.3-0.2-8.6 0.5-12.8 0.2-1.9 1.8-3 3-4.2zm85.1 442.8c-8.3 1-15.9 6.5-19.3 14.2-2.7 5.6-1.6 12-1.8 18q0.1 256.5 0 513c0 12.2 11.7 22.7 23.7 22.4 251 0 502 0 753 0 6.9-0.2 14.5 1 20.7-2.8 5.8-3.7 10.7-9.6 11.8-16.6 0.3-10 0-20 0.1-30 0-162.3 0-324.7 0-487-0.1-5.7 0.9-11.7-1.9-16.9-3.9-9.1-13.8-15.2-23.7-14.6-32.3 0.2-64.7 0.1-97 0.1q-322 0-644 0c-7.2 0.1-14.4-0.4-21.6 0.2z"/><path class="b" d="m128.4 442.8c7.2-0.6 14.4-0.1 21.6-0.2q322 0 644 0c32.3 0 64.7 0.1 97-0.1 9.9-0.6 19.8 5.5 23.7 14.6 2.8 5.2 1.8 11.2 1.9 16.9 0 162.3 0 324.7 0 487-0.1 10 0.2 20-0.1 30-1.1 7-6 12.9-11.8 16.6-6.2 3.8-13.8 2.6-20.7 2.8-251 0-502 0-753 0-12 0.3-23.7-10.2-23.7-22.4q0.1-256.5 0-513c0.2-6-0.9-12.4 1.8-18 3.4-7.7 11-13.2 19.3-14.2zm23.4 12.4q-0.1 62.9-0.1 125.8c-7.4-0.1-14.7 0.1-22.1 0.1q-0.1 3.3-0.1 6.6c7.4 0 14.9 0 22.3 0.1-0.2 43.3 0 86.6-0.1 130-7.4 0.8-14.7-0.4-22 0q0 3.4 0 6.8c7.3 0.1 14.7-0.1 22.1 0.1-0.2 43.6-0.1 87.1-0.1 130.7-7.4 0.2-14.8 0-22.1 0.1q0 3.1 0 6.4c7.4 0 14.7-0.1 22.1 0-0.1 44.6 0.1 89.1-0.1 133.6q1.6 0 3.1 0c-0.2-44.5 0-89.1-0.1-133.6 9.4-0.1 18.8-0.1 28.2 0 0.2 44.5 0 89.1 0.1 133.6 0.7 0 2.2 0 2.9 0-0.2-44.5-0.1-89.1 0-133.6 9.5-0.1 18.9-0.1 28.4-0.1 0 44.6-0.1 89.2 0.1 133.7 0.7 0 2.2 0 2.9-0.1-0.6-7.1 0.1-14.3-0.1-21.4-0.5-37.3 0.2-74.6-0.3-111.9 9.5-0.7 19.1 0.2 28.6-0.1 0.2 44.5 0.1 89 0.1 133.5 0.7 0 2.2-0.1 2.9-0.1-0.2-44.4 0-88.8-0.1-133.2 9.5-0.5 18.9-0.4 28.3-0.3 0.3 44.5 0.1 89.1 0.2 133.6 0.7 0 2.1 0 2.8 0-0.1-44.5 0.1-88.9 0-133.4 9.3-0.3 18.7-0.3 28.1-0.2 0.3 44.6 0.2 89.1 0.1 133.6 0.8 0 2.3 0 3 0-0.2-44.5 0.1-89.1-0.1-133.6 9.5-0.1 19 0 28.5-0.1 0.2 44.4-0.1 88.8 0.2 133.2 0.7 0.2 2.1 0.5 2.8 0.7-0.1-44.6 0.1-89.2-0.1-133.8 9.5 0 18.9-0.2 28.4 0.2q0 66.7 0 133.4c0.8 0 2.2 0.1 3 0.1-0.1-44.6 0-89.1-0.1-133.7 9.5-0.1 18.9-0.1 28.4 0 0 44.5 0.1 89 0 133.5 0.7 0 2.2 0 2.9 0-0.1-44.5 0-89 0-133.5 9.5 0 19-0.1 28.5 0-0.2 44.5 0 89-0.1 133.6 0.7 0 2 0 2.7-0.1 0-44.5 0.1-89 0-133.6 9.5-0.2 18.9 0.3 28.4 0.3-0.1 44.5 0 88.9 0 133.4 0.7 0 2 0 2.6 0 0.1-44.5 0.1-89 0.1-133.5 13.9-0.3 27.9-0.1 41.9-0.1 0 44.6 0.1 89.2 0 133.8q3.3-0.1 6.6-0.1c-0.1-44.6 0.1-89.2-0.1-133.8 13.9 0.1 27.9 0 41.9 0.1 0.1 44.4-0.2 88.7 0.1 133.1 0.7 0.1 1.9 0.4 2.6 0.5 0-44.5 0.1-89.1-0.1-133.6 9.5 0 19-0.3 28.4 0.3 0.3 44.3-0.2 88.6 0.2 132.8 0.7 0.2 2.1 0.5 2.8 0.7-0.6-44.5-0.2-89-0.1-133.6 9.4-0.5 18.9-0.2 28.3-0.3 0.2 44.6 0.1 89.2 0.1 133.8 0.7 0 2.2 0 2.9 0-0.3-44.6 0-89.1-0.1-133.7 9.5-0.1 18.9-0.1 28.4 0-0.1 44.5 0 89.1-0.1 133.7 0.8 0 2.3 0 3.1 0-0.4-44.6-0.1-89.2-0.1-133.8 9.4 0 18.8 0.1 28.2 0.1q0 66.8 0 133.7c0.8-0.1 2.3-0.1 3.1-0.1-0.2-44.6 0-89.1-0.2-133.7 9.6 0 19.1 0.1 28.6 0-0.1 44.4-0.1 88.8 0 133.2 0.8 0.2 2.2 0.5 2.9 0.7q-0.1-66.9 0-133.8c9.4 0 18.8-0.1 28.2 0 0 44.5-0.1 89.1 0 133.7 0.8 0 2.3-0.1 3.1-0.1-0.3-44.4-0.1-88.9-0.2-133.4 9.5-0.3 18.9-0.5 28.4 0-0.1 44.5 0.1 88.9-0.1 133.4q1.5 0 3.1 0c-0.3-44.5-0.2-89-0.1-133.6q14.1-0.1 28.3 0c0 44.5 0 89 0 133.6 0.7 0 2.2 0 2.9 0-0.2-44.5 0-89.1-0.1-133.6 9.5-0.1 19 0 28.5 0 0.1 44.5 0 89 0 133.5 0.8 0 2.3 0.1 3 0.1-0.2-44.5-0.1-88.9-0.1-133.4 9.4-0.6 18.8-0.2 28.2-0.3 0.2 44.6 0 89.1 0.1 133.7 0.8 0 2.2 0 3-0.1-0.3-44.4 0-88.9-0.2-133.3 7.5-0.2 14.9 0 22.4-0.1q0-3.3 0.1-6.6c-7.5 0.1-15 0.1-22.5 0 0.2-43.6-0.1-87.2 0.2-130.8 7.3 0.1 14.7-0.1 22.1 0.2q0-3.6 0.1-7.1c-7.5 0.1-14.9 0.1-22.3 0.1 0-43.4-0.1-86.8 0.1-130.1 7.4 0.1 14.8 0 22.3 0.1q-0.1-3.4-0.1-6.8c-7.4 0.1-14.9 0.2-22.3 0.1-0.1-42 0-84 0-125.9-0.8 0-2.2-0.1-3-0.1 0.1 42 0 84 0.1 126-9.4 0-18.8 0-28.2-0.1-0.2-41.4 0-82.7-0.1-124.1 0.4-1.8-1.6-2-2.8-2.5-0.1 42.2 0 84.4-0.1 126.7-9.4 0.1-18.9 0-28.4-0.1-0.2-41.9 0.1-83.8-0.1-125.7-0.7-0.1-2.1-0.1-2.8-0.1-0.1 41.9 0.1 83.8 0 125.8-9.4 0.3-18.8 0.1-28.2 0.1-0.3-42-0.1-84-0.2-125.9-0.7 0-2.1 0-2.9 0 0.1 41.9 0 83.8 0 125.8-9.4 0.1-18.9 0.2-28.3 0 0-41.8-0.1-83.7 0-125.5q-1.4-0.2-2.9-0.3c0 41.9-0.1 83.9 0 125.9-9.4 0-18.8 0-28.3-0.2 0-41.9 0-83.8 0.1-125.7-0.8 0-2.2 0-3 0 0.2 41.9 0 83.9 0.1 125.8-9.5 0.1-19 0.1-28.5 0.1-0.1-42 0-83.9-0.1-125.8-0.6-0.1-2-0.1-2.7-0.1-0.4 12.3-0.1 24.5-0.2 36.8 0.1 29.7 0 59.4 0.1 89.1-9.4 0-18.9-0.1-28.3-0.2-0.2-41.9 0-83.8-0.2-125.8-0.7 0-2.1 0.1-2.8 0.1 0.1 41.9-0.1 83.9 0.1 125.8-9.5 0.2-18.9 0.1-28.4 0-0.2-41.9 0.1-83.9-0.1-125.9-0.7 0-2.1 0.1-2.7 0.1 0 42-0.2 84 0 125.9-9.5-0.1-19.1 0.1-28.6-0.1 0.2-42 0.2-83.9-0.1-125.9-0.6 0-1.9 0.1-2.5 0.1 0 41.9-0.1 83.9 0 125.9-9.5-0.1-19 0.1-28.4-0.1 0-42 0.1-84-0.1-126-0.6 0.1-1.9 0.1-2.5 0.1-0.1 42-0.2 84 0 126q-21 0-42 0c0.2-42.1 0.1-84.1 0-126.1q-3.3-0.1-6.5-0.3c0 42.1-0.1 84.3 0.1 126.4-14-0.1-28.1 0-42.1 0 0.1-42 0.2-84 0-126-0.7 0.1-1.9 0.1-2.5 0.1-0.3 41.9-0.2 83.8-0.1 125.8-9.5 0.1-18.9 0.2-28.4 0 0-42 0-83.9 0-125.9-0.7 0-2 0.1-2.6 0.1-0.1 41.9-0.2 83.9 0 125.9-9.5 0-19 0-28.5 0-0.1-42 0.2-84-0.2-125.9-2.1-2-2.9 1.1-2.7 2.8 0 41 0 82.1 0 123.1-9.4 0-18.9 0.1-28.3-0.2-0.1-41.9 0.1-83.8-0.1-125.7-0.7 0-2.1 0-2.8-0.1-0.2 42 0.1 83.9-0.1 125.8-9.4 0-18.8 0.3-28.3 0.2 0-41.4 0-82.7 0-124.1 0.4-1.9-1.6-2.2-2.9-2.5-0.2 42.2 0 84.4 0 126.6-9.6 0.1-19.1-0.1-28.6-0.2-0.1-41.9 0.1-83.8 0-125.7-0.7 0-2.1 0-2.8 0-0.2 41.9 0.1 83.9-0.1 125.8-9.4 0.1-18.8 0.1-28.2 0.1 0.1-41.4-0.1-82.8 0.1-124.1 0.4-2.1-1.4-2.4-3-2.5 0.1 42.2 0 84.4 0 126.6-9.4 0-18.9 0.1-28.3-0.2-0.1-41.9-0.1-83.8 0-125.7-0.8 0-2.2-0.1-2.9-0.1q0 62.9 0 125.9c-9.5 0.2-19 0.1-28.4 0.1-0.5-9.7 0.2-19.4 0-29.1-0.1-32.2 0.1-64.5-0.1-96.8-0.7 0-2.1 0-2.7-0.1-0.2 42-0.1 84-0.1 126-9.4 0-18.9 0-28.4-0.1-0.2-41.9 0-83.9-0.1-125.8-0.7-0.1-2-0.4-2.6-0.6-0.5 42.1 0 84.2-0.3 126.4-9.4 0.3-18.7 0.1-28.1 0.1-0.1-41.9 0-83.9-0.1-125.8-0.7 0-2.1 0-2.8-0.1z"/><path class="b" d="m684.8 587.7q14.2 0 28.5 0.1c-0.1 43.3-0.1 86.6 0 129.9-9.4 0.6-18.9-0.2-28.4 0.1-0.3-43.4 0-86.7-0.1-130.1z"/><path class="b" d="m154.6 587.7c9.4 0 18.9-0.1 28.3 0.1-0.1 43.3 0.1 86.7-0.1 130.1-9.4 0.3-18.7-0.4-28.1-0.1-0.3-43.3 0.1-86.7-0.1-130.1z"/><path class="b" d="m185.7 587.7c9.5 0 19-0.1 28.5 0-0.1 43.3 0 86.7 0 130.1-9.5 0.1-18.9-0.1-28.4 0-0.1-43.3 0-86.7-0.1-130.1z"/><path class="b" d="m216.9 587.7c9.5-0.1 19 0 28.6 0 0.1 43.4 0 86.8 0 130.1-9.5 0.1-18.9-0.1-28.3 0-0.5-5.6-0.2-11.2-0.1-16.8q0-44.1 0-88.1c-0.1-8.4 0.1-16.8-0.2-25.2z"/><path class="b" d="m248.3 717.8c0.1-43.4-0.1-86.7 0.1-130.1 9.5 0.1 19-0.1 28.4 0-0.2 43.4 0.1 86.7-0.1 130.1-9.5 0-18.9 0.1-28.4 0z"/><path class="b" d="m279.6 587.7c9.4-0.1 18.8 0 28.3 0-0.1 43.4 0 86.8-0.1 130.2-9.4-0.1-18.8 0-28.2-0.2-0.1-43.3 0.1-86.7 0-130z"/><path class="b" d="m310.7 587.8c9.6-0.1 19.1-0.2 28.6-0.1-0.1 43.5 0 87 0 130.5-9.5-0.7-19-0.3-28.5-0.4-0.1-43.3-0.1-86.7-0.1-130z"/><path class="b" d="m342.1 587.7c9.5-0.1 19 0.1 28.5 0-0.1 43.4 0 86.8-0.1 130.1-9.5-0.2-18.9 0.4-28.3 0-0.1-43.4 0.1-86.7-0.1-130.1z"/><path class="b" d="m373.5 717.8c-0.1-43.4 0-86.7 0-130.1 9.6 0 19.1-0.1 28.7 0-0.8 24.1-0.2 48.2-0.4 72.4-0.1 19.4 0.2 38.8-0.2 58.1-9.3-0.7-18.7-0.2-28.1-0.4z"/><path class="b" d="m404.6 587.7c9.6 0 19.1-0.1 28.7 0-0.4 43.3-0.1 86.7-0.2 130.1q-14.2 0-28.4 0c-0.1-43.3 0.1-86.7-0.1-130.1z"/><path class="b" d="m435.7 587.6c9.5 0.1 19 0.1 28.5 0.1-0.2 43.4 0.1 86.8 0 130.1-9.5 0.2-18.9 0.1-28.3 0-0.3-43.4 0.2-86.8-0.2-130.2z"/><path class="b" d="m466.8 587.7c14-0.1 28.1 0 42.1-0.1-0.3 43.5 0 87-0.1 130.5-13.3-0.3-26.6-0.6-39.9 0q-2.2 0.2-2.1-2c0.1-42.8 0.3-85.6 0-128.4z"/><path class="b" d="m515.2 587.7q21.1 0 42.1-0.1c-0.2 43.4-0.1 86.8 0 130.2-14-0.1-28 0-42 0.2-0.1-43.4 0.3-86.9-0.1-130.3z"/><path class="b" d="m559.8 587.7q14.3 0 28.5-0.1c-0.1 43.4 0.1 86.8-0.1 130.2-9.4-0.3-18.9 0.9-28.3 0-0.1-43.4 0.1-86.7-0.1-130.1z"/><path class="b" d="m590.9 587.7c9.5-0.1 19 0.1 28.6 0-0.1 43.5 0 87 0 130.5-9.5 0.1-18.9-0.6-28.4-0.4-0.2-43.4 0.2-86.7-0.2-130.1z"/><path class="b" d="m622.3 587.7c9.4 0 18.9-0.1 28.4 0.1-0.2 43.3 0.1 86.6-0.1 130q-13.4-0.1-26.7 0.4c-2.1 0.4-1.4-2-1.6-3.2 0-42.4 0-84.8 0-127.3z"/><path class="b" d="m653.6 587.8c9.5-0.1 19-0.2 28.5-0.1-0.7 25.8-0.1 51.6-0.3 77.3 0 17.6 0.1 35.3 0 52.9-9.4 0.2-18.8 0.4-28.3-0.1 0-43.3-0.1-86.7 0.1-130z"/><path class="b" d="m716.2 587.8c9.4-0.1 18.9-0.2 28.3-0.1-0.4 43.4 0.1 86.7-0.2 130.1-9.4-0.2-18.7 0.4-28.1 0.4-0.2-43.5-0.1-87 0-130.4z"/><path class="b" d="m747.2 587.7c9.5 0 19-0.1 28.5 0.1-0.2 43.3 0 86.7-0.1 130-9.4 0.1-18.8 0-28.2 0-0.3-43.4 0-86.7-0.2-130.1z"/><path class="b" d="m778.5 587.7q14.2-0.1 28.4 0c-0.1 43.4 0.1 86.8-0.1 130.1-9.4 0.1-18.8-0.1-28.2 0-0.3-43.3 0.1-86.7-0.1-130.1z"/><path class="b" d="m809.8 587.8c9.5-0.1 19-0.2 28.5-0.1-0.1 43.4 0 86.7-0.1 130.1q-14.2 0-28.4 0c-0.2-43.3 0-86.7 0-130z"/><path class="b" d="m841.1 587.8c9.4-0.1 18.9-0.2 28.3-0.1-0.2 43.4 0.1 86.7-0.1 130.1-9.4 0-18.8 0-28.1 0-0.1-43.3 0-86.7-0.1-130z"/><path class="b" d="m154.6 724.6c9.5 0.1 18.9-0.1 28.3 0.1-0.1 43.5 0 87.1-0.1 130.7-9.4 0.2-18.8 0.1-28.2 0.1 0-43.6 0.1-87.3 0-130.9z"/><path class="b" d="m185.7 724.6c9.5 0.1 19-0.1 28.5 0.1 0.1 43.6-0.1 87.2 0.1 130.8-9.5 0-19.1 0-28.6-0.1 0-43.6 0.1-87.2 0-130.8z"/><path class="b" d="m217.1 724.7c9.5-0.1 18.9-0.1 28.4-0.1 0 43.7 0 87.3 0 130.9-9.5-0.4-19.1 0.6-28.5-0.4-0.1-43.5 0.1-86.9 0.1-130.4z"/><path class="b" d="m248.3 855.3c0.1-43.6 0-87.1 0-130.7q14.2 0 28.4 0.1c0.1 43.6-0.1 87.2 0.1 130.7-9.5 0-19 0.3-28.5-0.1z"/><path class="b" d="m279.6 724.7c9.4-0.1 18.8-0.1 28.2 0q0.1 46.6 0.1 93.3c0 12.5-0.2 24.9 0.3 37.4-9.6 0.2-19.1 0-28.6 0 0-43.6 0-87.2 0-130.7z"/><path class="b" d="m310.8 724.7q14.2-0.1 28.5-0.1-0.1 65.4 0 130.8c-9.5 0.2-19 0-28.6 0 0.1-43.6-0.1-87.1 0.1-130.7z"/><path class="b" d="m342.2 724.7c9.4-0.2 18.8 0 28.3 0 0.1 43.5 0 87.1 0 130.6-9.4 0.2-18.9 0.2-28.3 0.1-0.1-43.6 0.1-87.2 0-130.7z"/><path class="b" d="m373.5 855.4q-0.1-65.3 0-130.7c9.5-0.1 18.9-0.1 28.4 0-0.2 43.5-0.1 87.1-0.1 130.7-9.4 0.1-18.8 0.1-28.3 0z"/><path class="b" d="m404.6 724.6q14.3 0 28.6 0.1c-0.1 43.6-0.2 87.1 0.1 130.7-9.6 0.1-19.1 0-28.6 0-0.1-43.6 0-87.2-0.1-130.8z"/><path class="b" d="m435.8 724.7q14.2-0.1 28.4 0c-0.1 43.5-0.1 87 0 130.6-9.5 0.2-19 0.2-28.5 0.1 0.3-43.6 0-87.1 0.1-130.7z"/><path class="b" d="m466.8 724.7c14.1-0.1 28.1-0.1 42.1-0.1-0.2 43.6-0.1 87.2 0 130.8-14 0.1-27.9 0-41.9 0-0.3-43.6 0-87.2-0.2-130.7z"/><path class="b" d="m515.2 724.7c14-0.2 28 0 42-0.1 0 43.6-0.1 87.2 0.1 130.8-14 0.1-28 0-41.9 0.1-0.2-43.6 0.2-87.2-0.2-130.8z"/><path class="b" d="m559.8 724.7c9.5-0.2 18.9 0 28.4 0 0.2 43.5 0 87.1 0.1 130.6-9.5 0.2-19 0.3-28.5 0.1 0.2-43.6 0.1-87.2 0-130.7z"/><path class="b" d="m590.9 724.7c9.5-0.1 19.1-0.1 28.6-0.1 0 43.6-0.1 87.2 0.1 130.8-9.5 0.1-19 0-28.5 0-0.5-16.5 0-32.9-0.2-49.4q0-40.6 0-81.3z"/><path class="b" d="m622.2 724.7c9.5-0.1 18.9 0 28.4-0.1 0.1 43.6 0 87.3 0 130.9-9.4 0-18.8-0.2-28.2 0-0.2-43.6 0-87.2-0.2-130.8z"/><path class="b" d="m653.5 855.5c0-43.6 0-87.2 0-130.8 9.5-0.1 18.9-0.1 28.3 0 0.1 43.6 0 87.2 0.1 130.7-9.5 0.1-18.9 0-28.4 0.1z"/><path class="b" d="m684.8 724.7c9.5 0 19-0.2 28.5-0.1-0.1 43.6 0 87.3 0 130.9-9.5 0-19-0.1-28.5 0 0.1-43.6-0.2-87.2 0-130.8z"/><path class="b" d="m716.2 724.6q14.1 0 28.2 0.1c0 43.6-0.1 87.2 0.1 130.7-9.5 0.2-18.9 0-28.4 0.1q0-65.4 0.1-130.9z"/><path class="b" d="m747.4 855.5q-0.2-65.4 0-130.9c9.4 0 18.8-0.1 28.2 0.1 0.2 43.5-0.1 87.1 0.1 130.6-9.4 0.4-18.9 0.1-28.3 0.2z"/><path class="b" d="m778.5 724.6c9.5 0.1 19-0.1 28.4 0.1-0.1 31.4 0 62.8 0 94.3 0 12.1-0.2 24.3 0.3 36.4-9.6 0.2-19.1 0.1-28.6 0.1-0.2-43.6 0-87.3-0.1-130.9z"/><path class="b" d="m809.6 724.6c9.6-0.1 19.1 0 28.7 0.1-0.1 43.6 0 87.1 0 130.7-9.6 0.1-19.1 0.2-28.7 0.1q0.3-65.4 0-130.9z"/><path class="b" d="m841.1 724.6c9.4-0.1 18.8 0 28.3 0 0 43.7-0.1 87.3 0.1 130.9-9.5 0-18.9 0.1-28.4-0.1 0-43.6 0.1-87.2 0-130.8z"/><path class="c" d="m151.8 455.2c0.7 0.1 2.1 0.1 2.8 0.1 0.1 41.9 0 83.9 0.1 125.8 9.4 0 18.7 0.2 28.1-0.1 0.3-42.2-0.2-84.3 0.3-126.4 0.6 0.2 1.9 0.5 2.6 0.6 0.1 41.9-0.1 83.8 0.1 125.8 9.5 0.1 19 0.1 28.4 0.1 0-42-0.1-84 0.1-126 0.6 0.1 2 0.1 2.7 0.1 0.2 32.3 0 64.6 0.1 96.8 0.2 9.7-0.5 19.4 0 29.1 9.4 0 18.9 0.1 28.4-0.1q0-63 0-125.9c0.7 0 2.1 0.1 2.9 0.1-0.1 41.9-0.1 83.8 0 125.7 9.4 0.3 18.9 0.2 28.3 0.2 0-42.2 0.1-84.4 0-126.6 1.6 0.1 3.4 0.4 3 2.5-0.2 41.3 0 82.7-0.1 124.1 9.4 0 18.8 0 28.2-0.1 0.2-42-0.1-83.9 0.1-125.8 0.7 0 2.1 0 2.8 0 0.1 41.9-0.1 83.8 0 125.7 9.5 0.1 19 0.3 28.6 0.2 0-42.2-0.2-84.4 0-126.6 1.3 0.3 3.3 0.6 2.9 2.5 0 41.4 0 82.7 0 124.1 9.5 0.1 18.9-0.2 28.4-0.2 0.1-41.9-0.2-83.8 0-125.8 0.7 0 2.1 0.1 2.8 0.1 0.2 41.9 0 83.8 0.1 125.7 9.4 0.3 18.9 0.2 28.3 0.2 0-41 0.1-82.1 0-123.1-0.2-1.7 0.6-4.8 2.8-2.8 0.3 41.9 0 83.9 0.1 125.8 9.5 0.1 19 0.1 28.5 0.1-0.1-42-0.1-84 0-125.9 0.6-0.1 1.9-0.1 2.6-0.1 0.1 42 0 83.9 0 125.9 9.5 0.2 18.9 0.1 28.4 0-0.1-42-0.2-83.9 0.1-125.8 0.6 0 1.8-0.1 2.5-0.1 0.2 42 0.1 84 0 126 14.1 0 28.1-0.1 42.1 0-0.2-42.1-0.1-84.3-0.1-126.4q3.2 0.2 6.5 0.3c0.1 42 0.2 84 0 126q21 0.1 42 0.1c-0.2-42-0.1-84 0-126 0.6 0 1.9 0 2.5-0.1 0.2 42 0.1 84 0.1 126 9.5 0.2 18.9 0 28.4 0.1-0.1-42 0-84 0-125.9 0.6-0.1 1.9-0.1 2.5-0.1 0.3 42 0.3 83.9 0.1 125.9 9.5 0.2 19.1 0 28.6 0.1-0.2-42 0-83.9 0-125.9 0.6 0 2-0.1 2.7-0.1 0.2 42-0.1 84 0.1 125.9 9.5 0.1 18.9 0.2 28.4 0-0.2-42 0-83.9-0.1-125.9 0.7 0 2.1 0 2.8 0 0.2 42 0 83.9 0.2 125.8 9.4 0.1 18.9 0.2 28.3 0.2-0.1-29.7 0-59.4-0.1-89.1 0.1-12.3-0.2-24.5 0.2-36.8 0.7 0 2.1 0 2.7 0.1 0.1 41.9 0 83.8 0.1 125.8 9.5 0 19 0 28.5-0.1-0.1-42 0.1-83.9-0.1-125.8 0.8 0 2.2 0 3 0-0.1 41.9-0.1 83.8-0.1 125.7 9.5 0.2 18.9 0.2 28.3 0.2-0.1-42 0-84 0-125.9q1.5 0.1 3 0.3c-0.2 41.8-0.1 83.6-0.1 125.5 9.4 0.2 18.9 0.1 28.3 0 0-42 0.1-83.9 0-125.8 0.8 0 2.2 0 2.9 0 0.1 41.9-0.1 83.9 0.2 125.9 9.4 0 18.8 0.2 28.2-0.1 0.1-42-0.1-83.9 0-125.8 0.7 0 2.1 0 2.8 0.1 0.2 41.9-0.1 83.8 0.1 125.7 9.5 0.1 19 0.2 28.4 0.1 0.1-42.3 0-84.5 0.1-126.7 1.2 0.5 3.2 0.7 2.8 2.5 0.1 41.4-0.1 82.7 0.1 124.1 9.4 0.1 18.8 0.1 28.2 0.1-0.1-42 0-84-0.1-126 0.8 0 2.2 0.1 3 0.1 0 41.9-0.1 83.9 0 125.9 7.4 0.1 14.9 0 22.3-0.1q0 3.4 0.1 6.8c-7.5-0.1-14.9 0-22.3-0.1-0.2 43.3-0.1 86.7-0.1 130.1 7.4 0 14.8 0 22.3-0.1q-0.1 3.5-0.1 7.1c-7.4-0.3-14.8-0.1-22.1-0.2-0.3 43.6 0 87.2-0.2 130.8 7.5 0.1 15 0.1 22.5 0q-0.1 3.3-0.1 6.6c-7.5 0.1-14.9-0.1-22.4 0.1 0.2 44.4-0.1 88.9 0.2 133.3-0.8 0.1-2.2 0.1-3 0.1-0.1-44.6 0.1-89.1-0.1-133.7-9.4 0.1-18.8-0.3-28.2 0.3 0 44.5-0.1 88.9 0.1 133.4-0.7 0-2.2-0.1-3-0.1 0-44.5 0.1-89 0-133.5-9.5 0-19-0.1-28.5 0 0.1 44.5-0.1 89.1 0.1 133.6-0.7 0-2.2 0-2.9 0 0-44.6 0-89.1 0-133.6q-14.2-0.1-28.3 0c-0.1 44.6-0.2 89.1 0.1 133.6q-1.6 0-3.1 0c0.2-44.5 0-88.9 0.1-133.4-9.5-0.5-18.9-0.3-28.4 0 0.1 44.5-0.1 89 0.2 133.4-0.8 0-2.3 0.1-3.1 0.1-0.1-44.6 0-89.2 0-133.7-9.4-0.1-18.8 0-28.2 0q-0.1 66.9 0 133.8c-0.7-0.2-2.1-0.5-2.8-0.7-0.2-44.4-0.2-88.8 0-133.2-9.6 0.1-19.1 0-28.7 0 0.2 44.6 0 89.1 0.2 133.7-0.8 0-2.3 0-3.1 0.1q0-66.9 0-133.8c-9.4 0.1-18.8 0-28.2 0 0 44.6-0.3 89.2 0.1 133.8-0.8 0-2.3 0-3.1 0 0.1-44.6 0-89.2 0.1-133.7-9.5-0.1-18.9-0.1-28.4 0 0.1 44.6-0.2 89.1 0.1 133.7-0.7 0-2.2 0-2.9 0 0-44.6 0.1-89.2-0.1-133.8-9.4 0.1-18.9-0.2-28.3 0.3-0.1 44.6-0.5 89.1 0.1 133.6-0.7-0.2-2.1-0.5-2.8-0.7-0.4-44.2 0.1-88.5-0.2-132.8-9.4-0.6-18.9-0.3-28.4-0.3 0.2 44.5 0.1 89.1 0.1 133.6-0.7-0.1-1.9-0.4-2.6-0.5-0.3-44.4 0-88.7-0.1-133.1-14-0.1-28 0-41.9-0.1 0.2 44.6 0 89.2 0.1 133.8q-3.3 0-6.6 0.1c0.1-44.6 0-89.2 0-133.8-14 0-28-0.2-41.9 0.1 0 44.5 0 89-0.1 133.5-0.6 0-1.9 0-2.6 0 0-44.5-0.1-88.9 0-133.4-9.5 0-18.9-0.5-28.4-0.3 0.1 44.6 0 89.1 0 133.6-0.7 0.1-2 0.1-2.7 0.1 0.1-44.6-0.1-89.1 0.1-133.6-9.5-0.1-19 0-28.5 0 0 44.5-0.1 89 0 133.5-0.7 0-2.2 0-2.9 0 0.1-44.5 0-89 0-133.5-9.5-0.1-18.9-0.2-28.4 0 0.1 44.6 0 89.1 0.1 133.7-0.8 0-2.2-0.1-3-0.1q0-66.7 0-133.4c-9.5-0.4-18.9-0.2-28.4-0.2 0.2 44.6 0 89.2 0.1 133.8-0.7-0.2-2.1-0.6-2.8-0.7-0.3-44.4 0-88.8-0.2-133.2-9.5 0.1-19 0-28.5 0.1 0.2 44.5-0.1 89.1 0.1 133.6-0.7 0-2.2 0-3 0 0.1-44.5 0.2-89-0.1-133.6-9.4-0.1-18.8-0.1-28.1 0.2 0.1 44.5-0.1 88.9 0 133.4-0.7 0-2.1 0-2.8 0-0.1-44.5 0.1-89.1-0.2-133.6-9.4-0.1-18.8-0.2-28.3 0.3 0.1 44.4-0.1 88.8 0.1 133.2-0.7 0-2.2 0.1-2.9 0.1 0-44.5 0.1-89-0.1-133.5-9.5 0.3-19.1-0.6-28.6 0.1 0.5 37.3-0.2 74.6 0.3 111.9 0.2 7.1-0.5 14.3 0.1 21.4-0.7 0.1-2.2 0.1-2.9 0.1-0.2-44.5-0.1-89.1-0.1-133.7-9.5 0-18.9 0-28.4 0.1-0.1 44.5-0.2 89.1 0 133.6-0.7 0-2.2 0-2.9 0-0.1-44.5 0.1-89.1-0.1-133.6-9.4-0.1-18.8-0.1-28.2 0 0.1 44.5-0.1 89.1 0.1 133.6q-1.5 0-3.1 0c0.2-44.5 0-89 0.1-133.6-7.4-0.1-14.7 0-22.1 0q0-3.3 0-6.4c7.3-0.1 14.7 0.1 22.1-0.1 0-43.6-0.1-87.1 0.1-130.7-7.4-0.2-14.8 0-22.1-0.1q0-3.4 0-6.8c7.3-0.4 14.6 0.8 22 0 0.1-43.4-0.1-86.7 0.1-130-7.4-0.1-14.9-0.1-22.3-0.1q0-3.3 0.1-6.6c7.4 0 14.7-0.2 22.1-0.1q0-62.9 0.1-125.8zm533 132.5c0.1 43.4-0.2 86.7 0.1 130.1 9.5-0.3 19 0.5 28.4-0.1-0.1-43.3-0.1-86.6 0-129.9q-14.3-0.1-28.5-0.1zm-530.2 0c0.2 43.4-0.2 86.8 0.1 130.1 9.4-0.3 18.8 0.4 28.1 0.1 0.2-43.4 0-86.8 0.1-130.1-9.4-0.2-18.9-0.1-28.3-0.1zm31.1 0c0.1 43.4 0 86.8 0.1 130.1 9.5-0.1 18.9 0.1 28.4 0 0-43.4-0.1-86.8 0-130.1-9.5-0.1-19 0-28.5 0zm31.2 0c0.3 8.4 0.1 16.8 0.2 25.2q0 44 0 88.1c-0.1 5.6-0.4 11.2 0.1 16.8 9.4-0.1 18.8 0.1 28.3 0 0-43.3 0.1-86.7 0-130.1-9.6 0-19.1-0.1-28.6 0zm31.4 130.1c9.5 0.1 18.9-0.1 28.4 0 0.2-43.4-0.1-86.7 0.1-130.1-9.4-0.1-18.9 0.1-28.3 0-0.3 43.4-0.1 86.7-0.2 130.1zm31.3-130.1c0.1 43.3-0.1 86.7 0 130 9.4 0.2 18.8 0.1 28.2 0.2 0.1-43.4 0-86.8 0.1-130.2-9.5 0-18.9-0.1-28.3 0zm31.1 0.1c0 43.3 0 86.7 0.1 130 9.5 0.1 19-0.3 28.5 0.4 0-43.5-0.1-87 0-130.5-9.5-0.1-19 0-28.6 0.1zm31.4-0.1c0.2 43.4 0 86.7 0.1 130.1 9.4 0.4 18.8-0.2 28.3 0 0.1-43.3 0-86.7 0.1-130.1-9.5 0.1-19-0.1-28.5 0zm31.4 130.1c9.4 0.2 18.8-0.3 28.2 0.4 0.3-19.4 0-38.7 0.1-58.1 0.2-24.2-0.4-48.3 0.4-72.4-9.6-0.1-19.1 0-28.7 0 0 43.4-0.1 86.7 0 130.1zm31.1-130.1c0.2 43.4 0.1 86.8 0.1 130.1q14.2 0 28.4 0c0.2-43.4-0.2-86.8 0.2-130.1-9.6-0.1-19.1 0-28.7 0zm31.1-0.1c0.4 43.4-0.1 86.8 0.2 130.2 9.4 0.1 18.8 0.2 28.3 0 0.1-43.3-0.2-86.7 0-130.1-9.5 0-19 0-28.5-0.1zm31.1 0.1c0.3 42.8 0.1 85.6 0 128.4q-0.1 2.2 2.1 2c13.3-0.6 26.6-0.3 39.9 0 0.1-43.5-0.2-87 0.1-130.5-14 0.1-28.1 0-42.1 0.1zm48.4 0c0.4 43.4 0 86.9 0.1 130.3 14-0.2 28-0.3 42-0.2 0-43.4-0.2-86.8 0-130.2q-21 0.1-42.1 0.1zm44.6 0c0.2 43.4 0 86.7 0.1 130.1 9.4 0.9 18.9-0.3 28.3 0 0.2-43.4 0-86.8 0.1-130.2q-14.2 0.1-28.5 0.1zm31.1 0c0.4 43.4 0 86.7 0.2 130.1 9.5-0.2 18.9 0.5 28.4 0.4 0-43.5-0.1-87 0-130.5-9.6 0.1-19.1-0.1-28.6 0zm31.4 0c0 42.5 0 84.9 0 127.3 0.2 1.2-0.5 3.6 1.6 3.2q13.3-0.5 26.7-0.4c0.2-43.4-0.1-86.7 0.1-130-9.5-0.2-19-0.1-28.4-0.1zm31.3 0c-0.2 43.4-0.1 86.8 0 130.1 9.4 0.5 18.8 0.2 28.2 0.1 0.1-17.7 0-35.3 0-52.9 0.2-25.7-0.4-51.5 0.3-77.3-9.5-0.1-19 0-28.5 0zm62.6 0.1c-0.1 43.4-0.2 86.9 0 130.4 9.4-0.1 18.7-0.6 28.1-0.4 0.3-43.4-0.2-86.7 0.2-130.1-9.4-0.1-18.9 0-28.3 0.1zm31-0.1c0.2 43.4 0 86.7 0.2 130.1 9.4 0 18.8 0.1 28.2 0 0.1-43.3-0.1-86.7 0.1-130-9.5-0.2-19-0.1-28.5-0.1zm31.3 0c0.2 43.4-0.2 86.8 0.1 130.1 9.4-0.1 18.8 0.1 28.2 0 0.2-43.3 0-86.7 0.1-130.1q-14.2-0.1-28.4 0zm31.3 0.1c0 43.3-0.2 86.7 0 130q14.2 0 28.4 0c0.1-43.4 0-86.7 0.1-130.1-9.5-0.1-19 0-28.5 0.1zm31.3 0c0.1 43.3 0 86.7 0.1 130 9.3 0 18.7 0 28.1 0 0.3-43.4-0.1-86.8 0.1-130.1-9.4-0.1-18.9 0-28.3 0.1zm-686.5 136.8c0.1 43.6 0 87.3 0 130.9 9.4 0 18.8 0.1 28.3-0.1 0-43.6-0.1-87.2 0-130.7-9.4-0.2-18.8 0-28.3-0.1zm31.1 0c0.1 43.6 0 87.2 0 130.8 9.5 0.1 19.1 0 28.6 0.1-0.2-43.6 0-87.2-0.1-130.8-9.5-0.2-19 0-28.5-0.1zm31.4 0.1c0 43.5-0.2 86.9-0.1 130.4 9.4 1 19 0 28.5 0.4 0-43.6 0-87.2 0-130.9-9.5 0-18.9 0-28.4 0.1zm31.2 130.6c9.5 0.3 19 0.1 28.5 0.1-0.1-43.6 0-87.1 0-130.7q-14.3-0.1-28.4-0.1c-0.1 43.6 0 87.1-0.1 130.7zm31.3-130.6c0 43.5 0 87.1 0 130.7 9.5 0 19 0.2 28.6 0-0.5-12.5-0.3-24.9-0.3-37.4q0-46.7-0.1-93.3c-9.4-0.1-18.8-0.1-28.2 0zm31.2 0c-0.2 43.6 0 87.1-0.1 130.7 9.6 0 19.1 0.2 28.6 0q-0.1-65.4 0-130.8-14.3 0-28.5 0.1zm31.4 0c0.1 43.5-0.1 87.1 0 130.7 9.4 0.1 18.9 0.1 28.3-0.1 0-43.5 0.1-87.1 0-130.6-9.5 0-18.9-0.2-28.3 0zm31.3 130.7c9.5 0 18.9 0.1 28.3 0 0-43.6-0.1-87.2 0.1-130.7-9.5-0.1-18.9-0.1-28.4 0q-0.1 65.4 0 130.7zm31.2-130.8c0 43.6 0 87.2 0 130.8 9.5 0 19 0.1 28.6 0-0.3-43.6-0.2-87.1-0.1-130.7q-14.3-0.1-28.5-0.1zm31.1 0.1c-0.1 43.6 0.2 87.1 0 130.7 9.4 0.1 18.9 0.1 28.4-0.1-0.1-43.6-0.1-87.1 0.1-130.6q-14.3-0.1-28.5 0zm31 0c0.3 43.5-0.1 87.1 0.2 130.7 14 0 27.9 0.1 41.9 0-0.1-43.6-0.2-87.2 0-130.8-14 0-28 0-42.1 0.1zm48.4 0c0.4 43.6 0 87.2 0.2 130.8 14-0.1 27.9 0 41.9-0.1-0.2-43.6 0-87.2-0.1-130.8-14 0.1-28-0.1-42 0.1zm44.6 0c0.1 43.5 0.2 87.1 0 130.7 9.5 0.2 19 0.1 28.5-0.1-0.1-43.5 0.1-87.1-0.1-130.6-9.5 0-18.9-0.2-28.4 0zm31.1 0q0 40.7 0 81.3c0.2 16.5-0.3 32.9 0.2 49.4 9.5 0 19 0.1 28.5 0-0.2-43.6-0.1-87.2-0.1-130.8-9.5 0-19.1 0-28.6 0.1zm31.3 0c0.2 43.6 0 87.2 0.2 130.8 9.4-0.2 18.8 0 28.3 0-0.1-43.6 0-87.3-0.1-130.9-9.4 0.1-18.9 0-28.4 0.1zm31.3 130.8c9.5-0.1 18.9 0 28.4-0.1-0.1-43.5 0-87.1-0.1-130.7-9.4-0.1-18.8-0.1-28.3 0 0 43.6 0 87.2 0 130.8zm31.3-130.8c-0.2 43.6 0.1 87.2 0 130.8 9.5-0.1 19 0 28.5 0 0-43.6-0.1-87.3 0-130.9-9.5-0.1-19 0.1-28.5 0.1zm31.4-0.1q-0.1 65.5-0.1 130.9c9.5-0.1 18.9 0.1 28.4-0.1-0.2-43.6-0.1-87.1-0.1-130.7q-14.1-0.1-28.2-0.1zm31.2 130.9c9.4-0.1 18.9 0.2 28.3-0.2-0.2-43.5 0.1-87.1-0.1-130.6-9.4-0.2-18.8-0.1-28.2-0.1q-0.2 65.5 0 130.9zm31.1-130.9c0.1 43.6-0.1 87.3 0.1 130.9 9.5 0 19 0.1 28.6-0.1-0.5-12.1-0.3-24.3-0.3-36.4 0-31.5-0.1-62.9 0-94.3-9.4-0.2-18.9 0-28.4-0.1zm31.2 0q0.2 65.5-0.1 130.9c9.6 0.1 19.1 0 28.7-0.1 0-43.6-0.1-87.1 0-130.7-9.5-0.1-19.1-0.2-28.6-0.1zm31.4 0c0.1 43.6 0 87.2 0 130.8 9.5 0.2 18.9 0.1 28.4 0.1-0.2-43.6-0.1-87.2-0.1-130.9-9.5 0-18.9-0.1-28.3 0z"/></svg>