<svg version="1.2" xmlns="http://www.w3.org/2000/svg" viewBox="0 0 688 1536" width="688" height="1536"><style>.a{fill:#fff}.b{fill:#4a4a4a}.c{fill:#010101}.d{fill:#272727}.e{fill:#ec2826}</style><path class="a" d="m172.4 843.5c93.2-0.2 186.4-0.3 279.6-0.7 18.6 0 37.3 0 55.9 0.1 5.8-0.3 11.2 3.5 13.8 8.5 3 5 2.4 11 2.5 16.6-0.3 57.3-0.7 114.7-0.9 172-0.1 50.3-0.8 100.7-0.9 151 0.4 7.4-4.5 14.6-11.5 17-3.2 0.9-6.6 0.4-9.9 0.5-108 0-216-0.2-324-0.2-6.3 0.3-12.9-2.6-15.9-8.3-3.5-5.8-2.5-12.7-2.7-19 0.2-61 1-122 1.2-183 0.1-46 0.9-92 1-138-0.6-7.3 4.7-14.9 11.8-16.5z"/><path class="b" d="m149 21.1c4.4-3.7 10.3-5 16-4.8q47.4 0.4 94.8 0.9c7.6 0.5 15.6 1.7 22.2 5.9 5.9 4.3 9.8 11.5 9.7 18.9 0 15.7-0.2 31.3-0.1 47-0.1 2.8 0.3 6-1.2 8.6-1.3 2.6-3.1 5.3-2.8 8.4 0.6 4.1 3 7.7 3 12 0.1 4.7 0.2 9.3 0 14-0.1 3.6-2.5 6.5-3.1 10-0.6 4 2.6 7.2 3 11.1 0.1 30.9-0.9 61.9-0.9 92.9-0.8 82.6-2.2 165.3-2.1 248 0.2 4.6-0.7 9.5 0.8 14 5.8 19.6 11 39.4 16.7 59 1.1 3.9 1.9 7.9 1.6 12-0.3 17-1.1 33.9-1.5 50.9-0.4 5.1 0.2 10.4-2 15.2 10.2-0.1 15.8 11.2 25.9 11.8 12 1.6 24.1 0.9 36.1 0 2.1-4.9 4.6-10.9 10.3-12.3 4.9-1.1 10-1.4 15-1.9q-1.1-1.2-2.1-2.4 0.1-16.7 0.5-33.5c-2.1-1.4-4.4-2.9-5.6-5.2-1.3-2.3-1.1-5.1-1.1-7.6 0.7-26.4 1.1-52.7 1.6-79 0.2-3.6-0.2-7.2 0.6-10.8 0.9-1.5 2.2-2.7 3.4-4.1 0.5-5.6 0.2-11.3 0.8-17 0.8-3.6 4.8-4.7 7.9-5.5 10.7-2.1 21.7-2 32.6-2.7 38.3-1.3 76.8-0.8 115 2.7 6.4 0.6 13 1.1 19.1 3.4 1.9 0.7 4 2.1 4.2 4.4 0.7 5.5 0.1 11.2 0.2 16.7 1.2 2 3.7 3.3 3.7 5.8 0.2 5.4 0 10.7 0 16.1-0.7 25.9-0.4 51.9-0.8 77.8 0.1 3.8-3.4 5.8-6.1 7.6-0.2 11.2-0.5 22.4-0.7 33.6 3.8 0.5 7.9 0.9 11.1 3.3 2.8 2 4.6 5.1 6.5 7.9 8.9-1.2 16.7-6.9 25.8-6.6 13-0.1 25.6 5.5 35.2 14.2 10.2 9.7 15.7 23.4 17.2 37.2 0.8 8 1.6 16 3.3 23.8 1 5 1.8 10.1 1.7 15.2 0.1 20 0.2 40-0.1 60-0.1 21.9-1 43.8-0.8 65.7 2.9 1.9 6.4 3.8 7.5 7.4 1.4 3.6 0.3 7.4-0.5 11 0.6 2 1.9 3.8 2.3 5.8 0.4 2.9-1 5.6-2 8.2 2.1 4.2 3 9.3 0 13.3 0.7 2.5 2.1 4.9 2.1 7.6 0.1 2.5-1.4 4.7-2.3 7 1.2 2.5 3.1 5.1 2.4 8.1-0.6 1.8-1.7 3.3-2.5 4.9 0.7 3 3.1 5.9 1.5 9-0.5 2.1-2.5 4.2-1.2 6.4 0.9 2.2 1.7 4.7 0.5 6.9-1.2 3.9-5.4 5.3-8.8 6.6q-0.1 45.9-0.7 91.8c4.7 3.9 6.7 9.7 6.7 15.6 2.1 2.1 4.7 4.4 4.3 7.7-0.1 24 0 48 0.3 72 0.5 4.2-1.7 7.8-4.7 10.6-0.7 3-0.4 6.2-1.8 9.1-1 2.2-3.1 3.7-4.9 5.3-0.2 13.3 0 26.7 0 40-0.4 2.6 1.9 4.2 3.3 6 2.9 3.2 3.1 7.7 3.9 11.7 2.8 1.9 6.2 4.3 6 8.2 0.1 25-0.3 50.1-0.6 75.1 0.2 3.8-3 6.2-5.5 8.5-1.1 2.5-1.4 5.3-2.6 7.8-1.2 1.8-2.9 3.3-4.4 4.8 0.5 13 0.3 26 1.1 38.9 1.5 23 0.8 46.1-0.2 69.1-0.6 10.7 0.6 21.9-3.6 32.2-6 14.5-18.6 26.6-34.1 30.4-3.8 1-7.8 1.4-11.8 1.7-0.2 2.1 0.2 4.5-1.1 6.4-2.4 2.5-6.1 1.8-9.2 1.9-6.2-0.2-12.4 0.3-18.6-0.2-3.7-1-3.8-5.2-3.6-8.3-52.3 0.3-104.5 0-156.7 0.1q-87 0-174 0c-47.6-0.1-95.2 0.3-142.8-0.2-0.3 3 0.4 7.5-3.5 8.4-8.1 0.4-16.3 0.4-24.4 0.1-4-0.6-4.1-5.1-4-8.2-8.7-0.4-17.6-1.9-25-6.7-15.1-8.9-25.7-25.3-26.5-42.9-0.8-25.9-2-51.8-2.4-77.8-0.6-50-0.2-100-0.2-150 0-64-0.1-128 0-192 0.1-68.6-0.3-137.3 0.4-206-0.1-24.7 1.1-49.3 1.1-74 0-22.7 1.1-45.4 1.5-68 0.5-12.5 7.7-23.8 16.9-31.9 10.6-9.3 24.8-14.5 38.9-13.5 5.9 0.4 11.9 0.7 17.8 1.8 1.8 1.6 3.4 3.5 5.2 5.1 2.6-3.6 4.5-7.9 8.4-10.1 2.1-1.4 4.6-1.7 7.1-2.1v-0.1c0.9-8.7-0.4-17.5-0.1-26.2-0.4-8.7 1.4-17.4 0.5-26.1-0.7-7.1-0.6-14.2-0.9-21.3 4.6-17.3 10.1-34.4 15-51.6 1.3-5 3.5-9.8 4.1-14.9-0.8-30.4 0.4-60.8 1.9-91.1 0.5-11.4 1.1-22.7 0.7-34.1-0.4-36.6-0.4-73.2-0.8-109.9 0.2-38.3-1.2-76.7 0.3-115-0.3-3.8 2.7-6.5 3.2-10 0.9-5-3.2-9.1-2.8-14 0.5-7.2-1-15 2.9-21.5 1.9-3.5 0.6-7.4-1.4-10.5-1.9-3-1.2-6.7-1.3-10 0.1-15 0.2-30 0.1-45-0.1-8.1 2.5-16.8 9.1-21.9zm-2.5 12.5c11.1 0.4 22.3 0.2 33.4 0.3 34.9-0.2 69.8 0.2 104.6-0.2-5-9.5-16.8-10.9-26.4-11.5-26.4 0-52.7-0.3-79.1-0.5-6.7 0.1-13.4-0.6-20.1 0.4-6 0.9-10 6.3-12.4 11.5zm-1.3 3.6c-0.1 18.9 0 37.8-0.1 56.7 47.2 0.2 94.3 0.3 141.5 0-0.5-18.9 0.4-37.8-0.1-56.7-11.2-0.4-22.4-0.2-33.5-0.2-35.9 0-71.9-0.2-107.8 0.2zm1.8 60c1.6 4.4 1.8 9 0.6 13.5 45 0.1 90.1-0.1 135.1 0.1-0.5-4.6-0.1-9.3 1.4-13.7-45.7 0-91.4-0.3-137.1 0.1zm-1.6 16.7c-0.5 6.3-0.8 12.6-0.2 18.9 36.3 0.1 72.5 0 108.8 0 10.5 0 21 0.3 31.4-0.2 0.1-6.2 0.3-12.4-0.5-18.5q-6-0.3-12-0.3c-42.5 0.1-85-0.1-127.5 0.1zm0.8 21.7c1.2 4.5 1.4 9.2 0.4 13.8 45.7 0.3 91.4 0 137 0.2-1.5-4.5-1.3-9.3 0.1-13.8-45.8-0.1-91.7 0.1-137.5-0.2zm-1.9 20.4c-0.3 15.6-0.6 31.3-0.4 47 0.4 57 0.5 114 1.1 171 0.6 14-0.3 28-1 42-1.3 29.5-2.4 59.1-1.6 88.7 23.4 2.3 47 4.2 70.6 4.1 23.1 0.3 46.3-1 69.3-2.8 0.1-32 0-64 0.3-96 0.9-85.9 2-171.7 2.9-257.5-41.5 0.1-83 0-124.5 0-5.3 0.1-10.7-0.3-16.1 0.2q-0.6 1.5-0.6 3.3zm255.2 326.2c16 2.8 32.3 3.2 48.5 4 24.7 0.7 49.4 0.7 74 0.4 11.5-0.3 23-0.3 34.4-2.3-13.1-1.7-26.2-2.9-39.4-3.4-26.6-1.3-53.3-1.8-80-0.9-12.5 0.5-25.1 0.6-37.5 2.2zm-6.2 4.2c0 5-0.1 10.1-0.2 15.1 31.3 2.8 62.6 3.3 93.9 3.8 25.1-0.2 50.2 0.3 75.1-2.3q0.2-7.3 0.2-14.6c-9 1.7-18.2 2.1-27.4 2.6-23.5 0.9-47 0.9-70.5 0.4-23.8-0.8-47.6-1.2-71.1-5zm-4.1 19.6c-0.6 21.3-0.8 42.7-1.4 64-0.2 9.9-0.7 19.7-0.4 29.5 2.9 2.1 5.9 4.4 9.6 4.4 27.3 2.4 54.6 4.1 82 4.8 25.4 0.4 50.8 0.4 76-2.6 3.3-0.5 7.1-0.9 9.5-3.6 0.5-1.8 0.5-3.7 0.6-5.5q0.5-34 0.8-68c0-7 0.9-14 0-20.9-6.4-0.2-12.6 0.9-18.9 1.1-27.7 1-55.4 1.5-83 0.6-25-0.7-49.9-1.3-74.8-3.8zm-247.2 1.6c-6.9 21-12.1 42.6-19 63.7 8 0.1 16 1.1 24 1.4 13.6 1 27.3 0.8 41 1.6q41.1 1 82.1-0.7c10.2-0.2 20.4-1.5 30.7-1.4-5.9-21.1-11.6-42.2-17.6-63.2-47 4.3-94.4 4.3-141.2-1.4zm-19.7 66.6c-0.2 22.5 0.8 44.9 0.3 67.4 12.9 2.9 26.2 3.8 39.3 4.6 18.7 0.2 37.4 1.5 56.1 1.2 27.1 0.2 54.4 0 81.3-4.4 1.1-11.6 0.7-23.3 1.3-35 0.5-11.1 0.8-22.3 0.8-33.4-13 1.7-26.2 1.8-39.3 2.6-46.7 1.1-93.3 0.7-139.8-3zm271.5 34.5c-0.2 10.3-0.5 20.5-0.4 30.8 43.3 5.4 87.1 6.7 130.6 4.6 11.5-0.7 23.2-1 34.5-3.3 0-10.1 0.7-20.2 0.1-30.3-27 3.8-54.4 3.3-81.6 2.9-27.8-0.5-55.5-2.3-83.2-4.7zm-4.1 38.6c19 2.4 38.2 3 57.3 3.9 30 1 60.1 0.4 90.1-1.5 7.4-0.6 14.9-1.1 22.2-3-30.1 2.1-60.2 3.7-90.4 3-21.7-0.6-43.4-1.8-65-4.1-4.8-0.4-9.6 0.7-14.2 1.7zm-14.9 3.4c-4.5 3.9-5.7 10.2-4.4 15.8 3.5-4.2 7.2-8.2 11.5-11.6 0.6 0.4 1.8 1.1 2.4 1.4-3.6 3.9-7.5 7.5-10.5 11.9 8.7 2.1 17.5 3.8 26.2 5.6 21.7 3.6 43.6 5.4 65.6 5.8 0-7.2-0.2-14.4 0-21.5 0.7 0 2.3 0.1 3 0.2 0 7.2 0 14.3 0 21.5q4.4-0.1 8.8-0.2c0.1-6.2 0-12.4 0.2-18.6-0.4-2.1 0.8-3.2 2.6-3.8 0.5 7.4 0 14.9 0.4 22.4 16.2-0.6 32.3-1.6 48.5-3.2 14-1.4 27.8-4.4 41.5-7.5-2.2-4.5-5.1-8.7-7.9-12.9 0.6-0.4 1.7-1.3 2.3-1.7 3.2 4.5 6 9.3 9.3 13.7 2.7-3.5 2.9-8.3 1.9-12.4-1.7-2.9-4.2-5.5-7.2-7-4.2-0.1-8.1 1.5-12.2 2.1-7.9 1.1-15.9 1.9-23.8 2.4-35.7 2.1-71.6 2.3-107.3 0.2-14.6-0.8-29.3-1.3-43.8-3.7-2.4-0.3-5.3-1-7.1 1.1zm-266.3 6.9c-2.6 3.1-0.7 7.2 0.2 10.6 3.4-4.8 7.2-9.5 11.5-13.5q0.5 1.6 0.9 3.1c-2.8 3.8-6.4 7.2-9 11.2 11.2 2.8 22.5 4.6 33.8 6.4 18.8 2.7 37.7 4.7 56.6 4.7 0.1-5.7 0-11.4 0-17.1 0-2 0.8-3.7 1.5-5.5 0.7 1.8 1.6 3.5 1.5 5.5 0 5.7-0.1 11.4 0 17.1q4.5 0.1 8.9 0.3c0-7.4-0.1-14.7 0.1-22 0.8 0.1 2.2 0.1 3 0.2q0 10.8-0.2 21.5c10.3 0.4 20.5-0.9 30.7-1.3 20.6-1.1 41.2-3.8 61.1-9.3-2.6-4.1-6-7.6-8.8-11.7q0.6-1.6 1.4-3.1c3.2 3.6 6 7.7 9.1 11.5 0.7 0.6 1.3 1.8 2.5 1.6 2-3 3.6-6.2 5.6-9.1-4.9-3.7-10.2-9.1-16.9-7.7-18.9 2.8-38 3.5-57 4.2-12.7 0.2-25.4 0.8-38.1 0.4-12.9-0.4-25.9-0.2-38.9-1.1-16.7-1.1-33.5-1.5-50-4.5-4.8-1.1-7.2 4.4-9.5 7.6zm492.2-3.8c-6.7 2.2-13.4 4.9-20.4 6q-0.4 4.7-0.8 9.5c-10.8 4.3-22.3 5.6-33.5 7.9-18.8 3.3-37.9 4.3-56.9 5.2-24.7 0.9-49.6 0.1-74.1-3.4-16-2-32.1-4.5-47.5-9.4q-0.7-3.8-1.3-7.5c-11.1 0.8-22.2 1.8-33.3 0.4-3.8-0.2-7.6-1.5-11.4-1-3 2.1-3.5 6-5.1 8.9-1.2 1.2-2.9 1.6-4.5 2.1-34.9 8.5-71 10.7-106.9 11-24.8-0.3-49.5-3.1-73.9-7.3-8.6-1.5-17.2-2.8-25.5-5.6q-1-4.3-1.9-8.5c-4-2.3-7.6-6-12.5-6.4-5.3-0.6-10.7-1.1-16.1-1-11.8 0.4-23.4 5.3-31.8 13.6-5.6 5.4-10.7 11.8-12.7 19.4-1.6 5.9-1.3 12.2-1.4 18.3-1.2 40.6-1.4 81.3-2.4 122-0.8 83.6-0.3 167.3-0.4 251 0 61 0.1 122 0 183 0 46.7-0.4 93.4 0.5 140 0.7 16.7 1.6 33.4 1.8 50.1 0.4 8.7 0.4 17.9 4.1 26 2.8 6.1 6.4 12.1 11.5 16.5 6.8 5.9 14.8 10.8 23.9 11.9 13.5 1.5 27.2 0.4 40.8 0.5 52-0.3 104 0 156-0.1 10 0.5 20-0.1 30 0q140 0 280-0.1c11.7-0.4 23.3 0.8 35 0.2 6.6-0.1 13.4-0.7 19.5-3.5 10.3-4.6 18.6-13.3 23.8-23.2 3.6-6.9 3.6-14.8 3.8-22.3 0.2-16.1 1.5-32 1.5-48 0.2-18.1-1.6-36-1.8-54-0.6-31.7 0.1-63.3-0.2-95-0.4-48.3-0.2-96.7-0.1-145 0.1-26.4-0.1-52.7 0.2-79 0.5-56.4 0.6-112.7 1.1-169 0.7-38.3 1.7-76.7 1.4-115-0.1-9.4 0.7-18.9-1.4-28.1-1.5-7.2-2.7-14.5-3.3-21.8-0.6-12.9-5.4-25.9-14-35.5-10-10.5-25.3-17.2-39.8-13.8zm62.7 215.6c-0.9 30.3-1.1 60.6-1 91q2.1-1 4.3-2c-0.9-3.3-2.7-6.7-1.2-10 1-2.9 1.5-6 0.1-8.9-1.5-3.3 2.3-6.1 1.3-9.5-0.3-2-1-4-1.2-6 0.4-2.4 1.4-4.6 1.7-6.9-0.3-2.4-1.3-4.7-1.5-7.2 0.3-2.3 1.2-4.5 1.5-6.8-0.4-2.1-1.2-4.1-1.6-6.2-0.1-3.1 1.5-5.9 1.4-8.9-0.6-2.1-1.5-4-2.4-6 0.7-2.2 1.8-4.5 1.9-6.9-0.1-2.3-2-3.9-3.3-5.7zm-1.6 196.2c-0.6 6.8-0.1 13.6-0.2 20.4-0.1 27.9-0.1 55.8-0.2 83.7 0.3 0 0.8 0 1 0 0.1-1.9 0.2-3.8 0.4-5.7 0-4.1 5.5-5.7 5-10 0-24-0.2-48.1-0.1-72.2 0.2-3.3-3.9-4.5-4.3-7.7-0.5-2.8-0.9-5.7-1.6-8.5zm0.2 163c-0.6 7.1-0.3 14.2-0.5 21.4 0 27.3 0.1 54.7 0.2 82.1 1-2.9 1.2-6.6 3.8-8.6 1.6-1.6 4-2.9 3.6-5.5 0.3-24.4 0.5-48.7 0.6-73.1 0.5-3.7-4.1-4.1-6-6.3-0.7-3.3-0.9-6.7-1.7-10zm-581.2 283.5c0 0.8-0.1 2.4-0.2 3.1 7.1 0.2 14.1 0.3 21.2 0 0-0.7-0.1-2.2-0.1-3-7-0.4-13.9-0.5-20.9-0.1zm505.5-0.3c0 0.9 0 2.7 0 3.5q10.7 0.2 21.5 0c0-0.9-0.1-2.6-0.1-3.4-7.1-0.2-14.2-0.1-21.4-0.1z"/><path class="b" d="m589.6 672.6c3.9-1.7 7.3-4.7 11.5-5.6-0.6 1.6-0.9 3.6-2.6 4.5-5.4 4-12.1 5.7-18.5 7.5-12.2 3.5-24.9 4.8-37.5 6.6q-0.1-1.6-0.2-3.1c7.6-1.1 15.2-1.9 22.7-3.5 8.3-1.8 16.8-3 24.6-6.4z"/><path class="b" d="m308.7 681.6c6.7-1.8 13.2-4.4 20.2-4.7 0 0.7 0 2.1-0.1 2.8-7.9 1-15.3 4.2-22.9 6.2-3.1 0.7-6.3 2.6-9.5 1.9-0.1-0.4-0.3-1.3-0.4-1.7 3.9-2.4 8.4-3.2 12.7-4.5z"/><path class="b" d="m354.9 677.7c9-2 17.5 2.7 26.1 4.4 3 1 7 0.9 8.8 4-2.3 2.4-5.6 0.1-8.3-0.3-9.3-2.3-18.9-7.1-28.6-4-8.9 2.8-17.9 5.5-27.3 6.3 0-0.8-0.1-2.4-0.2-3.2 10.2-0.9 19.8-4.6 29.5-7.2z"/><path class="b" d="m592.5 685.7c9.2-1 18.8-0.2 27.5 3.3 3 1.2 6.5 3.3 6.3 7-1.8 3.7-6 5.2-9.8 6.3-8.4 1.7-17.1 1-25.5-0.6-4.3-1-9-2.2-11.9-5.8-1.6-2-0.5-5 1.4-6.4 3.5-2.5 7.8-3.2 12-3.8zm-2.6 3.7c-3.5 0.3-6.5 2.1-9.1 4.5 5.5 4 12.4 5.2 19.1 5.7 6.4 0.5 13 0.5 19.2-1.6 1.6-0.5 3.4-1.2 4-3-2.3-2.7-5.8-3.9-9.2-4.7-7.8-1.9-16-1.9-24-0.9z"/><path class="b" d="m309.4 690.7c6.2-0.6 12.5-0.4 18.7-0.2 3.9 0.2 8.8 2.2 9.4 6.6 1.3 10.2 0.1 20.6 0.4 30.9 0 6.9 0.7 15-4.8 20.1-4.8 5.4-12.6 5.7-19.2 4.5-5-1-9.1-4.9-11-9.6-2-4-1.7-8.6-1.7-13 0.2-8.7 0.3-17.3 0.2-26 0.1-3.2-0.2-6.5 1.3-9.4 1.4-2.4 4.1-3.5 6.7-3.9zm-0.2 4.6c-2.5 0.7-3.2 3.4-3.1 5.7 0 11-0.3 22-0.3 33 0.1 3.3 0.2 7 2.4 9.6 4.3 5.7 12.7 6.2 18.8 3.4 4.2-1.9 6.1-6.7 6.2-11.1 0.4-10.9-0.1-21.9 0.1-32.9-0.2-2.4 0.1-4.9-1.3-7-3.1-1.6-6.7-1-10-1.2-4.3 0.2-8.6-0.5-12.8 0.5z"/><path class="b" d="m353.3 690.5c4.9-0.6 9.8-0.3 14.7-0.4 3.9 0.1 8.2-0.1 11.3 2.6 2.9 2.2 2.6 6.2 2.6 9.4-0.3 11.9 1 23.9 0.2 35.9-0.5 6.8-5.7 13.3-12.5 14.5-3.6 0.6-7.2 0.6-10.8 0-7.2-1.3-12.9-8.1-13-15.5-0.5-10.6 0.3-21.3 0-32 0.1-3.1-0.2-6.4 0.7-9.5 1.2-2.7 4-4.4 6.8-5zm-0.1 4.6c-2.5 0.8-3 3.6-2.9 5.9 0 11.7-0.4 23.3-0.2 35-0.2 5.7 4.1 11.2 9.8 12.2 4.2 0.5 8.8 0.6 12.5-1.9 3.4-2.2 5.1-6.3 5.3-10.3 0.5-11.6-0.4-23.3 0-35 0.1-2.2-0.2-5.2-2.8-6-3.9-0.7-7.9-0.2-11.8-0.3-3.3 0.1-6.7-0.5-9.9 0.4z"/><path class="b" d="m396.5 690.7c6.7-1.2 13.7-0.4 20.6-0.5 4.8-0.2 9.6 3.7 9.5 8.7 0.6 12.3 0.1 24.7 0.2 37.1 0.1 5.2-2.1 10.3-6.2 13.5-4.7 4.1-11.5 3.8-17.2 3-7.3-1.3-13.1-8-13-15.4-0.2-12.7 0.2-25.5 0.1-38.2-0.4-3.8 2.4-7.1 6-8.2zm0.7 4.6c-2.1 0.9-1.9 3.7-2.1 5.7 0.2 12-0.7 24-0.2 36 0.2 5.1 4 9.9 9.1 10.8 5 1 11.1 0.9 14.7-3.2 3-3 3.6-7.5 3.6-11.6 0.1-9.7 0-19.3 0.1-29-0.1-2.5 0.2-5.2-1-7.5-2.5-2.3-6.3-1.8-9.4-2-4.9 0.2-10-0.5-14.8 0.8z"/><path class="b" d="m262.3 691.4c4.7-1.5 9.8-0.6 14.7-0.9 4.6 0.1 10.1-0.7 13.7 2.8 2.9 2.3 2.7 6.3 2.9 9.7-0.1 10.3-0.3 20.7-0.2 31 0.1 5.2-0.9 10.9-4.9 14.5-5 5-12.8 5.6-19.4 4.3-7.2-1.5-12.4-8.6-12.4-15.8-0.1-12.3 0-24.6 0.2-37-0.3-3.7 2-7.2 5.4-8.6zm2.2 4.3c-2.3 0.6-3.1 3.2-3 5.3-0.2 8 0 16-0.1 24 0 4.8-0.5 9.7 0.2 14.6 0.8 4.7 5 8.2 9.5 8.9 4.4 0.7 9.5 0.7 12.9-2.5 3.3-2.6 4.9-6.8 4.7-10.9 0.1-12 0-24.1-0.2-36.1 0.4-3-3-3.8-5.4-3.8-6.2-0.3-12.5-0.6-18.6 0.5z"/><path class="b" d="m442.4 691.6c7.1-0.9 14.4-0.1 21.6-0.2 7.3 0.2 14.7-0.5 22.1 0 2.9 0 5 2.8 5.2 5.6 0.2 3.9-1.7 7.4-3.4 10.8-4.9 9.9-9.9 19.7-14.4 29.8-2.1 4.6-4.4 9.3-8.6 12.3-4.3 3-9.8 3.4-14.9 3-5.5-0.4-10.4-4-13.2-8.6-2.3-4-1.7-8.8-1.8-13.3 0.3-10.7 0-21.4 0.4-32.1 0-3.8 3.4-6.8 7-7.3zm-2.4 6.4c-0.9 7.6-0.2 15.3-0.4 23 0.3 6.6-0.8 13.4 0.6 20 1.8 5.6 8.5 7.6 13.8 7.5 5.9 0.2 11-4 13.3-9.2 4.4-9.2 9.2-18.3 13.4-27.6 2.3-5.2 5.7-10 6.3-15.7-13-0.9-26 0-39-0.2-2.7 0.3-6.2-0.4-8 2.2z"/><path class="b" d="m196.3 692.5c3.1-1.1 6.5-0.8 9.7-0.8 10.7 0.3 21.4 0 32 0 3.5-0.1 7.3 1 9.2 4.1 1.5 2.8 1.3 6.1 1.4 9.2 0 10.7 0.2 21.4 0 32.1-0.1 7.3-5.3 14.5-12.6 16-6 1.4-13.1 1.1-18.1-3-4.5-3.5-6.6-9.1-8.9-14.1-3.7-8.5-8-16.8-11.8-25.2-1.7-3.8-4-7.6-4.5-11.8-0.3-2.7 1-5.6 3.6-6.5zm0.7 4.7c4.2 13.2 10.9 25.4 16.8 37.8 2.5 4.6 4.1 10.5 9.1 13 6.3 2.9 14.7 1.5 18.9-4.2 2.7-3.7 2.4-8.5 2.4-12.8-0.2-10 0.3-20-0.1-30 0.1-2.3-1.6-4.6-4-4.5-8.7-0.3-17.4 0-26.1-0.1-5.7 0.1-11.4-0.4-17 0.8z"/><path class="b" d="m352.3 788.4c49.9-0.2 99.8-0.2 149.7-0.2 8 0.2 16.1-0.6 24 1.1 15.7 3.1 30.4 11.8 40.1 24.6 7.6 10.2 12.4 22.4 13.8 35.1 0.8 7 0.4 14 0.5 21-0.1 107.7-0.2 215.3-0.1 323 0.7 16.3-4.9 32.5-14.6 45.6-12.4 15.4-31.9 25-51.7 24.7-107 0.1-214 0-321-0.1-11.4-0.2-22.8 0.6-34.1-0.8-14.9-1.9-28.7-9.5-38.9-20.4-9.1-10.3-15-23.4-16.9-37-1.1-7.6-0.6-15.3-0.6-23 0.5-108 0.8-216 1.4-324 0.2-17.6 6.5-35.5 19-48.1 13.1-13.8 32.2-21.6 51.1-21.1 59.5-0.3 118.9-0.2 178.3-0.4zm-185 5.1c-11.6 1.3-23.1 5.2-32.4 12.4-10.9 7.8-18.8 19.3-23.2 31.8-3.5 10.1-3 20.8-3.2 31.3-0.2 26.3-0.4 52.7-0.4 79-0.6 69.4-0.2 138.7-0.8 208-0.1 13.7-0.1 27.3 0 41 0.1 16.1 6.3 32.4 18 43.7 11.8 12.1 28.9 18.6 45.7 17.8 114.7 0 229.3 0.1 344 0.1 13.4 0.1 26.7-4.9 37.2-13.3 13.1-10.5 21.7-26.5 22.9-43.3 0.6-9.7 0.2-19.4 0.3-29 0-104.4 0.1-208.7 0.1-313 0.1-7.7-0.3-15.5-2.6-22.9-4.4-13.5-13-26-25.1-33.9-11.5-8.1-25.9-11.2-39.8-10.6-97 0.2-194 0.5-290.9 0.6-16.6 0.2-33.2-0.3-49.8 0.3z"/><path class="b" d="m504.3 815.3c9.8-2.1 20.4-0.9 29.1 4.3 14.9 7.6 22.8 25.2 21.3 41.4-0.1 1.2-0.6 2.3-1.4 3.2-3.9 1-7.9 0.4-11.8 0.2-0.4-3.6-0.5-7.2-1.1-10.8-1.7-11.1-10.1-21.3-21.3-23.8-4.7-1.6-9.8-0.6-14.5-2.1-0.7-4.1-0.4-8.3-0.3-12.4zm4.4 3.4q0.1 2.5 0.2 5.1c8.5 0 17.1 2.2 23.8 7.5 8.8 6.6 12.7 17.9 13.1 28.6q2.4-0.1 4.8 0c-0.4-8.4-1.6-17.1-6.4-24.2-4.5-6.5-10.7-12.1-18.3-14.6-5.5-2.1-11.4-2-17.2-2.4z"/><path class="b" d="m140.3 828.3c8.2-9 20.6-13.7 32.7-13.3 2.1 0.2 4.7 0 6.3 1.7 0.6 3.9 0.2 7.8 0.2 11.8-8.4 0.6-17.5 1.2-24.4 6.5-5.7 4.7-10.3 11.3-11.4 18.7-0.5 3.7-0.7 7.4-1 11-4.5 0.6-9 0.4-13.4-0.2-2.3-12.9 1.9-26.7 11-36.2zm4.9 1.9c-8.4 7.6-11.5 19.2-11.7 30.2q2.3 0 4.6 0c0.5-11.5 5.3-23.6 15.4-29.9 6.3-4.3 13.9-5.8 21.3-6.3q0-2.3 0-4.6c-10.7-0.5-22.1 2.5-29.6 10.6z"/><path class="b" d="m173.2 838.2c106.2 0.2 212.5-0.5 318.8-0.4 5.7 0 11.3-0.3 17 0 9 0.3 17.2 7.2 19.5 15.8 1.1 4.7 0.7 9.5 0.8 14.3 0 61.7-0.7 123.4-0.8 185.1-0.4 46-0.3 92-0.9 138 0.3 7.7-3.4 15.5-10.2 19.4-4.8 3.4-10.8 3.1-16.4 3.1-108.3 0.1-216.6-0.2-324.9-0.2-8.7 0.6-16.8-5-20.5-12.6-3.2-6.8-2.3-14.5-2.3-21.7 0.7-68.3 0.7-136.7 1.3-205 0.2-36.3 0.8-72.7 0.8-109 0-6.3 0-13.3 4.2-18.4 3.4-4.2 8-7.9 13.6-8.4zm-0.8 5.3c-7.1 1.6-12.4 9.2-11.8 16.5-0.1 46-0.9 92-1 138-0.2 61-1 122-1.2 183 0.2 6.3-0.8 13.2 2.7 19 3 5.7 9.6 8.6 15.9 8.3 108 0 216 0.2 324 0.2 3.3-0.1 6.7 0.4 9.9-0.5 6.9-2.4 11.9-9.6 11.5-17 0.1-50.3 0.8-100.7 0.9-151 0.2-57.3 0.6-114.7 0.9-172-0.1-5.6 0.5-11.6-2.5-16.6-2.6-5.1-8-8.8-13.8-8.6-18.6 0-37.3 0-55.9 0-93.2 0.4-186.4 0.5-279.6 0.7z"/><path class="b" d="m79.7 880.5q1.7-0.8 3.6-1.3c1 17.2 0.2 34.4 0.3 51.6q-2 0.2-4 0.6c-0.6-10.1-0.1-20.3-0.3-30.4 0.2-6.8-0.3-13.7 0.4-20.5z"/><path class="b" d="m602.2 884c0.2-1.5-0.5-4.3 1.8-4.1 2.2-0.8 2.3 2.6 2.5 4.1-0.2 15.9 0.3 31.8-0.1 47.7-1.6-0.5-4.7-0.1-4.1-2.7-0.2-15 0-30-0.1-45z"/><path class="b" d="m69.2 890q2.1 0.3 4.2 0.6c-0.1 7.8-0.2 15.6 0 23.4 0.2 2.5-0.3 5.1-1.1 7.5q-1.7-0.7-3.5-1.4c0.1-10-0.2-20.1 0.4-30.1z"/><path class="b" d="m90.4 890.2c1.4-0.4 2.8 0 4.2 0.2 0 9.9-0.4 19.8-0.4 29.8q-2 0.3-3.9 0.6c-0.9-6.9-0.2-13.9-0.4-20.8-0.1-3.3-0.3-6.6 0.5-9.8z"/><path class="b" d="m591.3 890.4q2.2-0.2 4.3-0.3c0.4 10.2 0.1 20.3 0.1 30.5-1.3-0.5-4.2 0.5-4.1-1.7-0.5-9.5-0.1-19-0.3-28.5z"/><path class="b" d="m612.6 890.4q2-0.1 4.1-0.1c0.3 8.2 0 16.5 0.2 24.7-0.2 2 0.4 4.3-1.2 5.9-1.9 1.3-3.8-0.9-3.4-2.8 0.1-9.3 0-18.5 0.3-27.7z"/><path class="b" d="m79.4 1003.6c0.9-0.4 2.5-1.1 3.4-1.5 0.8 3.2 1 6.6 0.9 9.9-0.1 14.1 0.3 28.3-0.3 42.4-0.9 0-2.8-0.1-3.7-0.1-0.6-16.9-0.6-33.8-0.3-50.7z"/><path class="b" d="m602.3 1004c1.7 0.5 4.7 0.3 4.1 2.9 0.3 15.7-0.1 31.4 0.1 47.1-0.7 0.5-2.2 1.4-3 1.8-0.7-1.8-1.3-3.8-1.3-5.8 0.1-15.3-0.2-30.7 0.1-46z"/><path class="b" d="m69.4 1013.2q2 0.2 4 0.5c0 7.8-0.1 15.5 0.1 23.3 0 2.6 0.4 5.5-1.3 7.7-2.1 0-3.4-1.6-3.1-3.7 0-9.2-0.2-18.5 0.3-27.8z"/><path class="b" d="m90.4 1013.5q1.6-0.1 3.3-0.1c1.4 8.5 0.4 17.1 1 25.6 0.3 2.5-0.4 6.4-3.9 5.4-1.2-3.3-0.9-6.9-0.8-10.4 0.3-6.8 0-13.6 0.4-20.5z"/><path class="b" d="m591.8 1014.2q1.8 0.1 3.7 0.2c0.3 10.1 0.5 20.1 0.2 30.2q-2 0.1-4 0.3c-0.5-10.2-0.5-20.5 0.1-30.7z"/><path class="b" d="m612.5 1014.5q2-0.1 4-0.1c0.4 10.3 0.5 20.6-0.1 30.8-0.9 0-2.9 0.1-3.8 0.1-0.4-10.3-0.3-20.6-0.1-30.8z"/><path class="b" d="m79.5 1133.5q2-0.1 3.9 0c0.6 17 0.5 34 0.3 51-1.9-0.2-4.7 0.3-4.3-2.4-0.4-16.2-0.2-32.4 0.1-48.6z"/><path class="b" d="m602.4 1134.5q1.8-0.1 3.7-0.2c0.7 16.7 0.3 33.4 0.4 50.1q-2.1 0.2-4.1 0.4c-0.4-16.8-0.2-33.5 0-50.3z"/><path class="b" d="m69.1 1143.5c1.2 0.2 2.6 0 3.6 0.7 0.6 1.5 0.5 3.2 0.6 4.8 0 8.2-0.1 16.4 0.2 24.5-1.7 0.6-4.8 1.3-4.4-1.5-0.6-9.5-0.4-19 0-28.5z"/><path class="b" d="m89.7 1143.8q2.2 0 4.4 0c0.2 10.1 0.2 20.3-0.3 30.4-1.4-0.4-4.1 0.1-4-2.1-0.2-9.4-0.2-18.9-0.1-28.3z"/><path class="b" d="m591.4 1144.1q2.1 0.1 4.2 0.2c0.3 10 0.4 20.1-0.2 30.2-0.9 0-2.8-0.1-3.8-0.1-0.4-10.1-0.2-20.2-0.2-30.3z"/><path class="b" d="m612.5 1144.1c1.3 0.1 2.6 0.1 4 0.3 0.7 10 0.4 20 0 30-1 0-3 0.1-3.9 0.1-0.6-10.1-0.4-20.3-0.1-30.4z"/><path class="b" d="m127.9 1187.4q6.4 0 12.7 0.3c0.7 6 0.2 12.3 2.6 17.9 2.4 6.7 7.1 12.7 13.5 15.7 6.4 3.5 13.8 3.8 20.9 5q0 6.1-0.3 12.3c-17.1 3.7-35.9-5-44.5-20.3-5.2-9.2-6.7-20.5-4.9-30.9zm3.6 4.5c0 5 0.1 10.1 1.6 15 2.8 10.7 10.6 19.8 20.5 24.4 6 2.8 12.6 3.5 19.1 4.2q0.3-2.9 0.7-5.7c-12.8 0.8-25.8-5.9-32.1-17.2-3.6-6.1-4.8-13.3-4.8-20.3q-2.5-0.3-5-0.4z"/><path class="b" d="m540.8 1187.8c4.2-1.1 8.5-0.5 12.7-0.3 1.3 9.3 0.6 19-3.3 27.6-3.3 7.2-9 13.2-15.4 17.7-8.9 5.8-20 7.6-30.4 5.8-0.7-4.3-0.8-8.7 0-13 7-0.2 14.3-1 20.5-4.7 9.2-5.1 14.7-15.5 14.9-25.9 0.3-2.4-0.4-5.2 1-7.2zm4.4 4c0 10.1-3 20.7-10.5 27.9-6.7 7.1-16.6 10-26.1 9.9q-0.2 2.6-0.3 5.3c11.1 0.4 22.6-3.2 30.3-11.3 8.4-8.2 11.5-20.3 11.3-31.8q-2.4 0-4.7 0z"/><path class="b" d="m228.4 1346.7c9.5-0.9 19.1-0.2 28.6-0.4 64.7 0 129.4 0.1 194.1-0.1 5.4 0.2 10.8 2.4 15 5.9 8.9 8.4 8.3 24.1-0.7 32.3-4 3.4-9.3 5.1-14.5 5.1q-84.4-0.1-168.9 0c-17.3-0.2-34.7 0.2-52-0.2-12.1-0.1-21.8-12.5-19.9-24.3 1.1-9.3 9.1-16.9 18.3-18.3zm-0.1 4.7c-4.5 1-8.5 3.9-11.1 7.8-4.3 6.9-2.8 17 3.8 21.9 3.8 3.4 9.2 3.8 14 3.7 72 0 144.1 0.1 216.1 0 7.5 0.2 14.6-5.3 16.2-12.7 3.2-10.2-5.6-21.8-16.3-21.3-69.3 0.1-138.7 0-208 0.1-4.9 0.1-9.9-0.4-14.7 0.5z"/><path class="b" d="m95.6 1441.6c10.7-14.9 28.2-24.7 46.5-26 8-0.4 15.9-0.2 23.9-0.3 121.7 0.1 243.3 0 365 0.1 11.4-0.1 23.1-0.2 33.9 4 13.1 5.2 24.6 14.7 31.8 26.9 8.7 14.1 13.1 30.7 13.9 47.2q-2.1 0.1-4.1 0.2c-2-17.8-6.3-36.2-17.6-50.5-6.2-7.3-13.3-14.3-22.3-17.8-8-3.7-16.8-5.5-25.6-5.3q-197 0-394 0c-17.9-0.2-35.3 8.8-46.2 22.8-12.1 14.2-16.3 33-18.1 51q-2.1-0.3-4.1-0.6c0.6-18.3 6.1-36.8 17-51.7z"/><path class="b" d="m222.9 1435.2c9.8-9.4 26.8-10.3 36.8-0.9 2 1.4 0.2 3.3-0.5 4.9-5.3-3.9-11.3-7.7-18.2-7.1-5.8-0.2-10.5 3.3-15.2 6.1-1.9 1.6-4.2-1.3-2.9-3z"/><path class="b" d="m229 1443c3.1-2.2 6.2-4.5 10-5.2 5.4-0.9 10.9 1.4 14.7 5.2-0.3 1.3-1.2 2.4-1.9 3.5-3-1.8-6.1-4.2-9.8-4.2-4-0.3-7.2 2.5-10.5 4.4q-1.2-1.9-2.5-3.7z"/><path class="b" d="m237.3 1450.6c1.5-1.7 3.2-3.9 5.7-3.1 3.2 0.8 3.6 4.9 1.7 7.1-1.8 1.1-4.1 0.2-6.1 0.1q-0.6-2.1-1.3-4.1z"/><path class="b" d="m174.3 1448.7c9.5 0 19 0 28.6-0.1q0 3.1 0 6.2-5.3 0-10.7 0.1 0.2 15.1 0 30.2-3.7 0-7.4 0c-0.1-10 0.3-20-0.3-29.9-3.4-0.6-6.8-0.4-10.2-0.3q0-3.1-0.1-6.2z"/><path class="b" d="m207.7 1448.7q3.4 0 6.7 0c0.1 4.3 0.2 8.6 0.2 12.9 2.5-1.6 5.2-3.6 8.4-3.3 4-0.4 8 2.7 8.3 6.8 0.7 6.6 0.1 13.4 0.2 20.1q-3.5-0.1-7.1 0c-0.2-6.7 0.8-13.5-0.5-20.1-2.3-3.2-8.1-1.9-8.9 2-1 5.9-0.3 12-0.4 18q-3.5 0.1-7 0.2-0.3-18.3 0.1-36.6z"/><path class="b" d="m283.3 1448.6q3.5 0 7 0c0 6.5-0.1 13 0.2 19.4q4.2-4.7 8.5-9.3 4.1-0.1 8.1-0.1c-3 3.4-6.2 6.6-9.2 10 3.5 5.4 6.5 11.1 9.8 16.5q-3.8 0-7.6 0c-2-4.1-4.1-8.2-6.3-12.2-1.1 1.2-2.2 2.4-3 3.8-0.7 2.8-0.3 5.7-0.4 8.6q-3.4-0.1-6.9-0.2c-0.1-12.2-0.2-24.3-0.2-36.5z"/><path class="b" d="m312.2 1448.8c2.3 0 4.6-0.2 6.8 0.1 1.2 0.9 1.9 2.2 2.7 3.5 4.1 6.9 8.3 13.8 12.4 20.7 0.3-8.2 0-16.4 0.4-24.5q3.1 0.1 6.2 0.2 0.2 18.1 0.1 36.1-3.7 0.1-7.4 0.1-7-11.7-14.5-23.2c-0.1 7.8 0.2 15.6 0.3 23.4q-3.7 0-7.3 0.1c0.5-12.2 0.2-24.3 0.3-36.5z"/><path class="b" d="m396.6 1448.6q3.5-0.1 6.9-0.1c0.2 12.2-0.1 24.4 0.1 36.6q-3.2 0-6.4 0.1c0-0.7 0-2.2 0-2.9-2.8 1.7-5.7 3.9-9.2 3.3-5.1-0.2-8.9-4.8-9.6-9.6-0.9-5.8-0.4-13 5-16.5 4.2-2.8 9.4-1.2 13.3 1.3-0.1-4.1-0.1-8.2-0.1-12.2zm-7.2 15c-4 1.1-4.5 6-4.3 9.5 0 3.7 2.8 7.8 6.9 7.2 5.5-1.8 5.6-8.9 4.1-13.4-0.8-2.9-4-4.1-6.7-3.3z"/><path class="b" d="m455.8 1448.7q5.6 0 11.2 0c2.2 8 4 16.1 6.4 24 2.5-8 4.3-16.1 6.5-24.1q5.5 0.1 10.9 0.2c-0.2 12.1 0.3 24.3 0.1 36.5q-3.4-0.1-6.7-0.2c-0.2-9.1 0.2-18.3-0.2-27.5-2.7 9.1-4.8 18.3-7.2 27.5q-3.5 0.1-7 0.3c-2.1-9.6-4.9-19-7.2-28.6-0.2 9.5 0 18.9 0 28.4q-3.5 0-7 0-0.1-18.2 0.2-36.5z"/><path class="b" d="m498.3 1457.7c4.4-1.9 8-5.1 10.6-9q2.6-0.2 5.2-0.3c-0.2 12.3 0.5 24.7-0.3 37.1q-3.3-0.4-6.5-0.6c0.1-8.6-0.1-17.2 0.1-25.8q-4.3 3.1-9 5.3-0.1-3.3-0.1-6.7z"/><path class="b" d="m259.2 1461.8c2.6-1.8 5.4-3.9 8.8-3.6 4.2-0.6 8.3 2.7 8.5 7 0.4 6.6-0.1 13.2 0.1 19.9q-3.5 0-7 0.2c0-6.3 0.6-12.7-0.2-19-0.8-4.5-8.6-3.6-9.2 0.6-1.2 6-0.4 12.2-0.5 18.3q-3.5 0-7 0c0-8.9-0.1-17.8 0-26.7q3 0 6 0.1c0.1 0.8 0.4 2.4 0.5 3.2z"/><path class="b" d="m356.4 1458.5c5.1-1.5 11.4-0.2 14.7 4.4 4.5 5.5 4 14.2-1.1 19.2-6.3 6.6-19.5 3.9-21.9-5.2-2.7-7 0.5-16.5 8.3-18.4zm1.8 5.8c-4.4 1.9-4.7 7.8-3.3 11.8 1.4 4.4 8.1 5.1 10.6 1.3 2.1-3.4 2-8.2-0.3-11.6-1.5-2.3-4.6-2.6-7-1.5z"/><path class="b" d="m412.3 1461.3c5-5 14.7-4.2 18.5 1.9 2 3.1 2 6.9 2.3 10.4-5.9 0-11.9 0-17.9 0.3 0.7 1.8 1 4 2.6 5.3 1.6 1.5 3.9 0.9 5.9 1.1 1-1.2 2-2.3 3.2-3.3 2.1 0 4.1 0.4 6.1 0.8-1.5 2.4-2.8 5.3-5.6 6.6-6 3-14.9 1.2-17.6-5.4-2.2-5.7-2.1-13.2 2.5-17.7zm4.3 4.3c-0.6 1.1-1.9 2.7-0.3 3.7 3.3 0.5 6.7 0.3 10 0.3-0.7-1.9-0.6-4.4-2.4-5.6-2.4-1.3-6-1-7.3 1.6z"/><path class="b" d="m238.5 1458.4q3.6 0 7.1 0.1 0.2 13.3 0 26.6-3.5 0.1-6.9 0.2-0.1-13.4-0.2-26.9z"/><path class="b" d="m437.8 1468.2q6.9-0.4 13.9-0.1 0 3.5 0.1 7.1-7 0-14 0 0-3.5 0-7z"/><path class="c" d="m146.5 33.6c2.4-5.2 6.4-10.6 12.4-11.6 6.7-1 13.4-0.3 20.1-0.3 26.4 0.2 52.7 0.5 79.1 0.5 9.6 0.5 21.4 2 26.4 11.5-34.8 0.4-69.7 0-104.6 0.1-11.1 0-22.3 0.2-33.4-0.2z"/><path class="c" d="m145.2 37.2c35.9-0.4 71.9-0.2 107.8-0.2 11.1 0 22.3-0.2 33.5 0.2 0.5 18.9-0.4 37.8 0.1 56.7-47.2 0.3-94.3 0.2-141.5 0 0.1-18.9 0-37.8 0.1-56.7z"/><path class="c" d="m147 97.2c45.7-0.4 91.4-0.1 137.1-0.1-1.5 4.4-1.9 9.1-1.4 13.7-45-0.2-90.1 0-135.1-0.1 1.2-4.5 1-9.2-0.6-13.5z"/><path class="c" d="m145.4 113.9c42.5-0.2 85 0 127.5-0.1q6 0 12 0.3c0.8 6.1 0.6 12.3 0.5 18.5-10.4 0.5-20.9 0.2-31.4 0.2-36.3 0-72.5 0-108.8 0-0.6-6.3-0.3-12.6 0.2-18.9z"/><path class="c" d="m146.2 135.6c45.8 0.3 91.7 0.1 137.5 0.2-1.4 4.5-1.6 9.3-0.1 13.8-45.6-0.3-91.3 0.1-137-0.2 1-4.6 0.8-9.3-0.4-13.8z"/><path class="c" d="m144.3 156q0-1.8 0.6-3.3c5.4-0.5 10.7-0.1 16.1-0.2 41.5 0 83 0.1 124.5 0-0.9 85.8-2 171.6-2.9 257.5-0.4 32-0.2 64-0.3 96-23.1 1.8-46.2 3.1-69.3 2.8-23.6 0.1-47.2-1.8-70.6-4.1-0.8-29.6 0.3-59.2 1.6-88.7 0.7-14 1.6-28 1-42-0.7-57-0.7-114-1.1-171-0.2-15.7 0.1-31.4 0.4-47z"/><path class="c" d="m399.5 482.2c12.4-1.6 25-1.7 37.5-2.2 26.6-0.9 53.4-0.4 80 0.9 13.2 0.5 26.3 1.7 39.4 3.4-11.4 2-22.9 2-34.4 2.3-24.6 0.4-49.3 0.3-74-0.4-16.2-0.8-32.5-1.2-48.5-4z"/><path class="c" d="m393.3 486.4c23.5 3.8 47.3 4.2 71.1 5 23.5 0.5 47 0.5 70.5-0.4 9.2-0.5 18.4-0.9 27.4-2.6q0 7.3-0.2 14.6c-24.9 2.6-50 2.2-75.1 2.3-31.3-0.5-62.6-1-93.9-3.8 0.1-5 0.2-10.1 0.2-15.1z"/><path class="c" d="m389.2 506c24.9 2.5 49.8 3.1 74.8 3.8 27.6 0.9 55.3 0.4 83-0.6 6.3-0.1 12.5-1.3 18.9-1.1 0.9 6.9 0 13.9 0 20.9q-0.3 34-0.8 68c-0.1 1.8-0.1 3.7-0.6 5.5-2.4 2.7-6.2 3.1-9.5 3.6-25.2 3-50.6 3-76 2.6-27.4-0.7-54.7-2.4-82-4.8-3.7 0-6.7-2.3-9.6-4.4-0.3-9.8 0.2-19.6 0.4-29.5 0.6-21.3 0.8-42.7 1.4-64z"/><path class="c" d="m142 507.6c46.8 5.7 94.2 5.7 141.2 1.4 6 21 11.7 42.1 17.6 63.2-10.3-0.1-20.5 1.1-30.7 1.4q-41 1.7-82.1 0.7c-13.7-0.8-27.4-0.6-41-1.6-8-0.3-16-1.3-24-1.4 6.9-21.1 12.1-42.7 19-63.7z"/><path class="c" d="m122.3 574.2c46.5 3.7 93.1 4.1 139.8 3 13.1-0.8 26.3-0.9 39.3-2.6 0 11.1-0.3 22.3-0.8 33.4-0.6 11.7-0.2 23.4-1.3 35-26.9 4.4-54.2 4.6-81.3 4.4-18.7 0.3-37.4-1-56.1-1.2-13.1-0.8-26.4-1.7-39.3-4.6 0.5-22.5-0.5-44.9-0.3-67.4z"/><path class="c" d="m393.8 608.7c27.7 2.4 55.4 4.2 83.2 4.7 27.2 0.4 54.6 0.9 81.6-2.9 0.6 10.1-0.1 20.2-0.1 30.3-11.3 2.3-23 2.6-34.5 3.3-43.5 2.1-87.3 0.8-130.6-4.6-0.1-10.3 0.2-20.5 0.4-30.8z"/><path class="c" d="m389.7 647.3c4.6-1 9.4-2.1 14.2-1.7 21.6 2.3 43.3 3.5 65 4.1 30.2 0.7 60.3-0.9 90.4-3-7.3 1.9-14.8 2.4-22.2 3-30 1.9-60.1 2.5-90.1 1.5-19.1-0.9-38.3-1.5-57.3-3.9z"/><path class="c" d="m374.8 650.7c1.8-2.1 4.7-1.4 7.1-1.1 14.5 2.4 29.2 2.9 43.8 3.7 35.7 2.1 71.6 1.9 107.3-0.2 7.9-0.5 15.9-1.3 23.8-2.4 4.1-0.6 8-2.2 12.2-2.1 3 1.5 5.5 4.1 7.2 7 1 4.1 0.8 8.9-1.9 12.4-3.3-4.4-6.1-9.2-9.3-13.7-0.6 0.4-1.7 1.3-2.3 1.7 2.8 4.2 5.7 8.4 7.9 12.9-13.7 3.1-27.5 6-41.5 7.5-16.2 1.6-32.4 2.6-48.5 3.2-0.4-7.5 0.1-15-0.4-22.4-1.8 0.6-3 1.7-2.6 3.8-0.2 6.2-0.1 12.4-0.2 18.6q-4.4 0.1-8.8 0.2c0-7.2 0-14.4 0-21.5-0.7-0.1-2.3-0.2-3-0.2-0.2 7.1 0 14.3 0 21.5-22-0.4-43.9-2.2-65.6-5.8-8.7-1.8-17.5-3.5-26.2-5.6 2.9-4.4 6.9-8 10.5-11.9-0.6-0.3-1.8-1-2.4-1.4-4.3 3.4-8 7.4-11.5 11.6-1.3-5.7-0.1-11.9 4.4-15.8z"/><path class="c" d="m108.5 657.6c2.3-3.2 4.7-8.7 9.5-7.6 16.5 3 33.3 3.3 50 4.5 12.9 0.9 25.9 0.7 38.9 1.1 12.7 0.4 25.4-0.3 38.1-0.4 19-0.7 38.1-1.4 57-4.2 6.7-1.4 12 4 16.9 7.7-2 2.9-3.6 6.1-5.6 9.1-1.2 0.2-1.8-1-2.5-1.6-3.1-3.8-5.9-7.9-9.1-11.5q-0.8 1.5-1.4 3.1c2.8 4.1 6.2 7.5 8.8 11.7-19.9 5.5-40.5 8.2-61.1 9.3-10.2 0.4-20.4 1.7-30.7 1.3q0.2-10.7 0.2-21.5c-0.8-0.1-2.2-0.1-3-0.2-0.2 7.3-0.1 14.6-0.1 21.9q-4.4-0.1-8.9-0.2c-0.1-5.7-0.1-11.4 0-17.1 0.1-2-0.8-3.7-1.5-5.5-0.7 1.8-1.5 3.5-1.5 5.5 0 5.7 0.1 11.4 0 17.1-18.9 0-37.8-2-56.6-4.7-11.3-1.8-22.6-3.6-33.8-6.4 2.6-4 6.1-7.4 9-11.2q-0.4-1.5-0.9-3.1c-4.4 4-8.1 8.7-11.5 13.5-1-3.4-2.8-7.5-0.2-10.6z"/><path class="c" d="m600.7 653.8c14.5-3.4 29.8 3.3 39.8 13.8 8.6 9.7 13.4 22.6 14 35.5 0.6 7.3 1.8 14.6 3.3 21.8 2.1 9.2 1.3 18.7 1.4 28.1 0.3 38.3-0.7 76.7-1.4 115-0.5 56.3-0.6 112.7-1.1 169-0.3 26.3-0.1 52.6-0.2 79-0.1 48.3-0.3 96.7 0.1 145 0.3 31.7-0.4 63.3 0.2 95 0.2 18 2 35.9 1.8 54 0 16-1.4 31.9-1.5 48-0.2 7.5-0.2 15.4-3.8 22.3-5.2 10-13.5 18.6-23.8 23.2-6.1 2.8-12.9 3.4-19.5 3.5-11.7 0.6-23.3-0.6-35-0.2q-140 0.1-280 0.1c-10-0.1-20 0.5-30 0-52 0.1-104-0.2-156 0.1-13.6-0.1-27.3 1-40.8-0.5-9.1-1.1-17.2-6-23.9-11.9-5.1-4.4-8.7-10.4-11.5-16.5-3.7-8.1-3.8-17.3-4.1-26-0.2-16.7-1.2-33.4-1.8-50.1-0.9-46.6-0.5-93.3-0.5-140 0.1-61 0-122 0-183 0.1-83.7-0.4-167.4 0.4-251 1-40.7 1.2-81.4 2.4-122 0.1-6.1-0.3-12.4 1.4-18.3 2-7.6 7.1-14 12.7-19.4 8.4-8.3 20-13.1 31.8-13.6 5.4 0 10.8 0.4 16.1 1 4.9 0.4 8.5 4.1 12.5 6.4q0.9 4.2 1.9 8.5c8.3 2.8 16.9 4.1 25.5 5.6 24.4 4.2 49.1 7.1 73.9 7.3 35.8-0.3 72-2.5 106.9-11 1.6-0.5 3.3-0.8 4.5-2.1 1.6-2.9 2.1-6.8 5.1-8.9 3.8-0.5 7.6 0.8 11.4 1 11.1 1.4 22.2 0.4 33.3-0.4q0.6 3.7 1.3 7.5c15.4 4.9 31.5 7.4 47.5 9.4 24.5 3.5 49.3 4.3 74.1 3.4 19-0.9 38.1-1.9 56.9-5.2 11.2-2.3 22.7-3.6 33.5-7.9q0.4-4.8 0.7-9.5c7.1-1.1 13.8-3.8 20.5-6zm-11.1 18.8c-7.8 3.4-16.3 4.6-24.6 6.4-7.5 1.7-15.1 2.4-22.7 3.5q0.1 1.5 0.2 3.1c12.6-1.8 25.3-3.1 37.5-6.6 6.4-1.8 13.1-3.5 18.5-7.5 1.7-0.9 2-2.9 2.6-4.5-4.3 0.9-7.6 3.9-11.5 5.6zm-280.9 9c-4.3 1.3-8.8 2.1-12.7 4.5 0.1 0.4 0.3 1.3 0.4 1.7 3.2 0.7 6.4-1.2 9.5-1.9 7.6-2 15-5.2 22.9-6.1 0-0.8 0.1-2.2 0.1-2.9-7 0.4-13.5 3-20.2 4.7zm46.2-3.9c-9.7 2.6-19.3 6.3-29.5 7.2 0.1 0.8 0.2 2.4 0.2 3.2 9.4-0.8 18.4-3.5 27.3-6.3 9.7-3.1 19.3 1.7 28.6 4 2.7 0.4 6 2.7 8.3 0.3-1.8-3.1-5.8-3-8.8-4-8.6-1.7-17.1-6.4-26.1-4.4zm237.6 8c-4.2 0.6-8.5 1.3-12 3.8-1.9 1.4-3 4.4-1.4 6.4 2.9 3.6 7.6 4.9 11.9 5.9 8.4 1.5 17.1 2.2 25.5 0.5 3.8-1 8-2.5 9.8-6.3 0.2-3.7-3.3-5.8-6.3-7-8.7-3.5-18.3-4.3-27.5-3.3zm-283.1 5c-2.6 0.4-5.3 1.5-6.7 3.9-1.5 2.9-1.2 6.2-1.3 9.4 0.1 8.7-0.1 17.3-0.2 26 0 4.4-0.3 9 1.7 13 1.9 4.7 5.9 8.6 11 9.6 6.6 1.3 14.4 0.9 19.2-4.5 5.5-5.1 4.8-13.2 4.8-20.1-0.3-10.3 0.8-20.7-0.4-30.9-0.6-4.4-5.5-6.4-9.4-6.6-6.2-0.2-12.5-0.4-18.7 0.2zm43.9-0.2c-2.8 0.6-5.6 2.3-6.8 5-0.9 3.1-0.6 6.4-0.7 9.5 0.3 10.7-0.5 21.4 0 32 0.1 7.4 5.7 14.2 13 15.5 3.6 0.6 7.2 0.6 10.8 0 6.8-1.2 12-7.7 12.5-14.5 0.8-12-0.5-24-0.2-35.9 0-3.2 0.3-7.2-2.6-9.4-3.1-2.7-7.4-2.5-11.3-2.5-4.9 0-9.8-0.3-14.7 0.3zm43.2 0.2c-3.6 1.1-6.4 4.4-6 8.2 0.1 12.8-0.3 25.5-0.2 38.2 0 7.4 5.8 14.1 13.1 15.4 5.7 0.8 12.5 1.1 17.1-3 4.2-3.2 6.4-8.3 6.3-13.5-0.1-12.4 0.4-24.8-0.2-37.1 0.1-5-4.7-8.9-9.5-8.6-6.9 0-13.9-0.8-20.6 0.4zm-134.2 0.7c-3.5 1.4-5.7 4.9-5.4 8.6-0.2 12.4-0.3 24.7-0.2 37 0 7.2 5.2 14.3 12.3 15.8 6.7 1.3 14.5 0.7 19.5-4.3 4-3.6 5-9.3 4.9-14.5-0.1-10.3 0.1-20.7 0.1-31-0.1-3.4 0.1-7.4-2.8-9.7-3.6-3.5-9.1-2.7-13.7-2.8-4.9 0.3-10-0.6-14.7 0.9zm180.1 0.2c-3.6 0.5-7 3.5-7 7.3-0.4 10.7-0.1 21.4-0.4 32.1 0.1 4.5-0.5 9.3 1.8 13.3 2.8 4.6 7.7 8.2 13.2 8.6 5.1 0.4 10.6 0 14.9-3 4.2-3 6.5-7.7 8.6-12.3 4.4-10.1 9.5-19.9 14.4-29.8 1.7-3.4 3.6-6.9 3.3-10.8-0.1-2.8-2.2-5.6-5.1-5.6-7.4-0.5-14.8 0.2-22.1 0-7.2 0.1-14.5-0.7-21.6 0.2zm-246.1 0.9c-2.6 0.9-3.9 3.8-3.6 6.5 0.5 4.2 2.8 8 4.5 11.8 3.8 8.5 8.1 16.7 11.8 25.2 2.3 5 4.4 10.6 8.9 14.1 5 4.1 12.1 4.4 18.1 3.1 7.3-1.6 12.5-8.8 12.6-16.1 0.2-10.7 0-21.4 0-32.1-0.1-3.1 0.1-6.4-1.4-9.2-1.9-3.1-5.7-4.2-9.2-4.1-10.6 0-21.3 0.3-32 0-3.2 0.1-6.6-0.3-9.7 0.8zm156 95.9c-59.4 0.2-118.9 0.1-178.3 0.4-18.9-0.5-38 7.3-51.1 21.1-12.5 12.6-18.8 30.5-19 48.1-0.6 108-0.9 216-1.4 324 0 7.7-0.6 15.4 0.6 23 1.9 13.6 7.8 26.7 16.9 37 10.1 10.9 24 18.5 38.9 20.4 11.3 1.4 22.7 0.6 34.1 0.8 107 0.1 214 0.2 321 0.1 19.8 0.3 39.3-9.3 51.7-24.7 9.7-13.1 15.3-29.3 14.6-45.6-0.1-107.7 0-215.3 0.1-322.9-0.1-7.1 0.3-14.1-0.5-21.1-1.4-12.7-6.2-24.9-13.8-35.1-9.8-12.8-24.4-21.5-40.1-24.6-7.9-1.7-16-0.9-24-1.1-49.9 0-99.8 0-149.7 0.2zm-272.6 92.1c-0.7 6.8-0.2 13.7-0.4 20.5 0.2 10.1-0.3 20.3 0.3 30.4q2-0.4 4-0.6c-0.1-17.2 0.7-34.4-0.3-51.6q-1.9 0.5-3.6 1.3zm522.5 3.5c0.1 15-0.1 30 0.1 45-0.6 2.6 2.5 2.2 4.1 2.7 0.4-15.9-0.1-31.8 0.1-47.7-0.2-1.5-0.3-4.9-2.5-4.1-2.3-0.2-1.6 2.6-1.8 4.1zm-533 6c-0.6 10-0.3 20.1-0.4 30.1q1.8 0.7 3.5 1.4c0.8-2.4 1.3-5 1.1-7.5-0.2-7.8-0.1-15.6 0-23.3q-2.1-0.4-4.2-0.7zm21.2 0.2c-0.8 3.2-0.6 6.5-0.5 9.8 0.2 6.9-0.5 13.9 0.4 20.8q1.9-0.3 3.9-0.6c0-9.9 0.4-19.9 0.4-29.8-1.4-0.2-2.8-0.6-4.2-0.2zm500.9 0.2c0.2 9.5-0.2 19 0.2 28.5 0 2.2 2.9 1.2 4.2 1.7 0-10.2 0.3-20.3-0.1-30.4q-2.1 0-4.3 0.2zm21.3 0c-0.3 9.2-0.2 18.4-0.3 27.7-0.4 1.9 1.5 4.1 3.4 2.8 1.6-1.6 1-3.9 1.2-5.9-0.2-8.2 0.1-16.5-0.2-24.7q-2.1 0-4.1 0.1zm-533.2 113.2c-0.3 16.9-0.3 33.8 0.3 50.7 0.9 0 2.8 0.1 3.7 0.1 0.6-14.1 0.2-28.3 0.3-42.4 0.1-3.3-0.1-6.7-0.9-9.9-0.9 0.4-2.5 1.1-3.4 1.5zm522.9 0.4c-0.3 15.3 0 30.7-0.1 46 0 2 0.6 4 1.3 5.8 0.8-0.4 2.3-1.3 3-1.8-0.2-15.7 0.2-31.4-0.1-47.1 0.6-2.6-2.4-2.4-4.1-2.9zm-532.9 9.2c-0.5 9.3-0.3 18.6-0.3 27.8-0.2 2.1 1 3.7 3.1 3.8 1.7-2.3 1.3-5.2 1.4-7.8-0.3-7.8-0.2-15.5-0.2-23.3q-2-0.3-4-0.5zm21 0.3c-0.4 6.9-0.1 13.7-0.4 20.5-0.1 3.5-0.4 7.1 0.8 10.4 3.5 1 4.2-2.9 3.9-5.4-0.6-8.5 0.4-17.1-1-25.6q-1.7 0-3.3 0.1zm501.4 0.7c-0.6 10.2-0.6 20.5-0.1 30.7q2-0.2 4-0.3c0.3-10.1 0.1-20.1-0.2-30.2q-1.9-0.1-3.7-0.2zm20.7 0.3c-0.2 10.3-0.3 20.5 0.1 30.8 0.9 0 2.9-0.1 3.8-0.1 0.6-10.2 0.5-20.5 0.1-30.8q-2 0-4 0.1zm-533 119c-0.3 16.2-0.5 32.4-0.1 48.6-0.4 2.7 2.5 2.2 4.3 2.4 0.2-17 0.3-34-0.3-51q-1.9-0.1-3.9 0zm522.9 1c-0.2 16.8-0.4 33.5 0 50.3q2-0.2 4.1-0.4c-0.1-16.7 0.3-33.4-0.4-50.1q-1.9 0.1-3.7 0.2zm-533.3 9c-0.4 9.5-0.6 19 0 28.5-0.4 2.8 2.7 2.1 4.4 1.5-0.3-8.1-0.2-16.3-0.2-24.5-0.1-1.6 0-3.3-0.6-4.8-1-0.7-2.4-0.5-3.6-0.7zm20.6 0.3c-0.1 9.4-0.1 18.9 0.1 28.3-0.1 2.2 2.6 1.7 4 2.1 0.5-10.1 0.5-20.3 0.3-30.4q-2.2 0-4.4 0zm501.7 0.3c0 10.1-0.2 20.2 0.2 30.3 1 0 2.9 0.1 3.8 0.1 0.6-10.1 0.5-20.2 0.2-30.2q-2.1-0.1-4.2-0.2zm21.1 0c-0.3 10.1-0.5 20.3 0.1 30.4 1 0 2.9-0.1 3.9-0.1 0.4-10 0.7-20 0-30-1.3-0.2-2.7-0.2-4-0.3zm-384.1 202.6c-9.2 1.4-17.2 9-18.3 18.3-1.9 11.8 7.8 24.2 19.9 24.3 17.3 0.4 34.7 0 52 0.2q84.5-0.1 169 0c5.2 0 10.4-1.7 14.4-5.1 9-8.1 9.6-23.9 0.7-32.3-4.2-3.5-9.6-5.7-15-5.8-64.7 0.1-129.4 0-194.1 0-9.5 0.2-19.1-0.5-28.6 0.4zm-132.8 94.9c-10.9 14.9-16.4 33.4-17 51.7q2 0.3 4.1 0.6c1.8-18 6-36.8 18.1-51 10.9-14 28.3-23 46.2-22.8q197 0 394 0c8.8-0.2 17.6 1.6 25.6 5.3 9 3.5 16.1 10.5 22.3 17.8 11.3 14.3 15.6 32.7 17.6 50.5q2-0.1 4.1-0.2c-0.8-16.5-5.2-33.1-13.9-47.2-7.2-12.2-18.7-21.7-31.8-26.9-10.8-4.2-22.5-4.1-33.9-4-121.7-0.1-243.3 0-365-0.1-8 0.1-15.9-0.1-23.9 0.3-18.3 1.3-35.8 11.1-46.5 26zm127.3-6.4c-1.3 1.8 1 4.6 2.9 3 4.7-2.7 9.4-6.3 15.2-6.1 6.9-0.6 12.9 3.2 18.3 7.1 0.6-1.6 2.4-3.5 0.4-4.9-10-9.4-27-8.5-36.8 0.9zm6.1 7.8q1.3 1.8 2.5 3.7c3.3-1.9 6.5-4.7 10.5-4.4 3.7 0 6.8 2.4 9.8 4.2 0.7-1.1 1.6-2.2 1.9-3.5-3.8-3.8-9.3-6.1-14.7-5.2-3.8 0.7-6.9 3-10 5.2zm8.4 7.6q0.6 2 1.2 4.1c2 0.1 4.3 1 6.1-0.2 1.9-2.1 1.5-6.2-1.7-7-2.5-0.8-4.2 1.4-5.6 3.1zm-63.1-1.9q0 3.1 0 6.2c3.4-0.1 6.8-0.3 10.2 0.3 0.6 9.9 0.3 19.9 0.3 29.9q3.7 0 7.4 0 0.2-15.1 0-30.2 5.4-0.1 10.7-0.1 0-3.1 0-6.2c-9.6 0.1-19.1 0.1-28.6 0.1zm33.4 0q-0.4 18.3-0.1 36.6 3.5-0.1 7-0.2c0.1-6-0.6-12.1 0.4-18 0.8-3.8 6.6-5.2 8.9-2 1.3 6.6 0.3 13.4 0.5 20.1q3.6-0.1 7.1 0c-0.1-6.7 0.5-13.5-0.2-20.1-0.3-4.1-4.3-7.2-8.3-6.8-3.2-0.3-5.9 1.7-8.4 3.3 0-4.3-0.1-8.6-0.2-12.9q-3.3 0-6.7 0zm75.6-0.1c0 12.2 0.1 24.3 0.2 36.5q3.5 0.1 6.9 0.2c0.1-2.9-0.3-5.8 0.4-8.6 0.8-1.4 1.9-2.6 3-3.8 2.2 4 4.3 8.1 6.3 12.2q3.8 0 7.6 0c-3.3-5.4-6.3-11.1-9.7-16.5 2.9-3.4 6.1-6.6 9.2-10q-4.1 0-8.2 0.1-4.3 4.6-8.5 9.3c-0.3-6.5-0.2-12.9-0.2-19.4q-3.5 0-7 0zm28.9 0.2c-0.1 12.2 0.2 24.3-0.3 36.5q3.6-0.1 7.3-0.1c-0.1-7.8-0.4-15.6-0.2-23.4q7.4 11.5 14.4 23.2 3.7 0 7.4-0.1 0.1-18-0.1-36.1-3.1-0.1-6.2-0.2c-0.4 8.1-0.1 16.3-0.4 24.5-4.1-6.9-8.3-13.8-12.4-20.7-0.8-1.3-1.5-2.6-2.7-3.5-2.2-0.3-4.5-0.1-6.8-0.1zm84.5-0.2c0 4 0 8.1 0 12.2-3.9-2.5-9.1-4.1-13.3-1.3-5.4 3.5-5.9 10.7-5 16.5 0.7 4.8 4.5 9.4 9.6 9.6 3.5 0.6 6.4-1.6 9.2-3.3 0 0.7 0 2.2 0.1 2.9q3.1-0.1 6.3-0.1c-0.2-12.2 0.1-24.4-0.1-36.6q-3.4 0-6.8 0.1zm59.1 0.1q-0.3 18.3-0.2 36.6 3.5-0.1 7.1-0.1c-0.1-9.5-0.3-18.9-0.1-28.4 2.3 9.6 5.1 19 7.2 28.6q3.5-0.2 7-0.3c2.4-9.2 4.5-18.4 7.2-27.5 0.4 9.2 0 18.4 0.2 27.5q3.3 0.1 6.7 0.2c0.2-12.2-0.3-24.4-0.1-36.5q-5.4-0.1-10.9-0.2c-2.2 8-4 16.2-6.5 24.1-2.4-7.9-4.2-16-6.4-24q-5.6 0-11.2 0zm42.5 9q0 3.4 0.1 6.7 4.7-2.2 9-5.3c-0.2 8.6 0 17.2-0.1 25.8q3.2 0.2 6.5 0.6c0.8-12.4 0.1-24.8 0.3-37.1q-2.6 0.1-5.2 0.3c-2.6 3.9-6.2 7.1-10.6 9zm-239.1 4.1c-0.1-0.8-0.4-2.4-0.5-3.2q-3-0.1-6-0.1c-0.1 8.9 0 17.8 0 26.7q3.5 0 7 0c0.1-6.1-0.7-12.3 0.5-18.3 0.6-4.2 8.4-5.1 9.2-0.6 0.8 6.3 0.2 12.7 0.2 19q3.5-0.2 7-0.3c-0.2-6.6 0.3-13.2-0.1-19.8-0.2-4.3-4.3-7.6-8.5-7-3.4-0.3-6.2 1.8-8.8 3.6zm97.2-3.3c-7.8 1.9-11 11.4-8.3 18.4 2.4 9.1 15.6 11.8 21.9 5.2 5.1-5 5.6-13.7 1.1-19.2-3.3-4.6-9.6-5.9-14.7-4.4zm55.9 2.8c-4.6 4.5-4.7 12-2.5 17.7 2.8 6.6 11.6 8.4 17.6 5.4 2.8-1.4 4.1-4.2 5.7-6.6-2.1-0.4-4.1-0.8-6.2-0.8-1.2 1-2.2 2.1-3.2 3.3-2-0.2-4.3 0.4-5.9-1.1-1.6-1.3-1.9-3.5-2.6-5.3 6-0.3 12-0.3 17.9-0.3-0.3-3.5-0.3-7.3-2.3-10.4-3.8-6.1-13.5-6.9-18.5-1.9zm-173.8-2.9q0.1 13.5 0.2 26.9 3.4-0.1 6.9-0.2 0.2-13.3 0-26.6-3.5-0.1-7.1-0.1zm199.3 9.8q0 3.5 0 7 7 0 14 0-0.1-3.6-0.1-7.1-7-0.3-13.9 0.1z"/><path class="c" d="m589.9 689.4c8-1 16.2-1 24 0.9 3.4 0.8 6.9 2 9.3 4.7-0.7 1.8-2.5 2.5-4.1 3-6.2 2.1-12.8 2.1-19.2 1.6-6.7-0.5-13.6-1.7-19.1-5.7 2.6-2.4 5.6-4.1 9.1-4.5z"/><path class="c" d="m264.5 695.7c6.1-1.1 12.4-0.8 18.6-0.5 2.4 0 5.8 0.8 5.4 3.8 0.2 12 0.3 24.1 0.2 36.1 0.2 4.1-1.4 8.3-4.7 10.9-3.4 3.2-8.5 3.2-12.9 2.5-4.5-0.7-8.7-4.2-9.5-8.9-0.7-4.9-0.2-9.8-0.2-14.7 0.1-7.9-0.1-15.9 0.1-23.9-0.1-2.1 0.7-4.7 3-5.3z"/><path class="c" d="m309.2 695.3c4.2-1 8.5-0.3 12.8-0.4 3.3 0.1 6.9-0.5 10 1.1 1.4 2.1 1.1 4.7 1.3 7-0.2 11 0.3 22-0.1 32.9-0.1 4.4-2 9.2-6.2 11.1-6.1 2.9-14.5 2.3-18.8-3.4-2.2-2.6-2.3-6.3-2.4-9.6 0-11 0.3-22 0.3-33-0.1-2.3 0.6-5 3.1-5.7z"/><path class="c" d="m353.2 695.1c3.2-0.9 6.6-0.3 9.9-0.4 3.9 0.1 7.9-0.4 11.8 0.3 2.6 0.8 2.9 3.8 2.8 6-0.4 11.7 0.5 23.4 0 35-0.2 4-1.9 8.1-5.3 10.3-3.7 2.5-8.3 2.4-12.5 1.9-5.7-1-10-6.5-9.8-12.2-0.2-11.7 0.2-23.3 0.2-35-0.1-2.3 0.4-5.1 2.9-5.9z"/><path class="c" d="m397.2 695.3c4.8-1.3 9.9-0.6 14.8-0.8 3.1 0.3 6.9-0.3 9.4 2 1.2 2.3 0.9 5 1 7.5-0.1 9.7 0 19.4-0.1 29 0 4.1-0.6 8.6-3.6 11.6-3.6 4.1-9.7 4.2-14.7 3.3-5.1-1-8.9-5.8-9.1-10.9-0.5-12 0.4-24 0.2-36 0.2-2 0-4.8 2.1-5.7z"/><path class="c" d="m197 697.2c5.6-1.2 11.3-0.7 17-0.8 8.7 0.1 17.4-0.2 26.1 0.1 2.4-0.1 4.1 2.2 4.1 4.5 0.3 10-0.2 20 0 30 0 4.3 0.3 9.1-2.4 12.8-4.1 5.7-12.6 7.1-18.9 4.2-5-2.5-6.6-8.4-9.1-13-5.9-12.4-12.6-24.6-16.8-37.8z"/><path class="c" d="m440 698c1.8-2.6 5.3-1.9 8-2.1 13 0.1 26-0.8 39 0.1-0.6 5.7-4 10.5-6.3 15.7-4.2 9.3-9 18.4-13.4 27.6-2.3 5.2-7.4 9.4-13.3 9.2-5.3 0.1-12-1.9-13.8-7.5-1.4-6.6-0.3-13.4-0.6-20 0.2-7.7-0.5-15.4 0.4-23z"/><path class="c" d="m167.3 793.5c16.6-0.6 33.2-0.1 49.8-0.3 96.9-0.1 193.9-0.4 290.9-0.6 13.9-0.6 28.3 2.5 39.8 10.6 12.1 7.9 20.7 20.4 25.1 33.9 2.3 7.4 2.7 15.2 2.6 22.9 0 104.3-0.1 208.6-0.1 313-0.1 9.6 0.3 19.3-0.3 29-1.2 16.8-9.8 32.8-22.9 43.3-10.5 8.4-23.8 13.4-37.2 13.3-114.7 0-229.3-0.1-344-0.1-16.8 0.8-33.9-5.7-45.7-17.8-11.7-11.3-17.9-27.6-18-43.7-0.1-13.7-0.1-27.3 0-41 0.6-69.3 0.2-138.6 0.8-208 0-26.3 0.2-52.7 0.4-79 0.2-10.5-0.3-21.2 3.2-31.3 4.4-12.5 12.3-24 23.2-31.8 9.3-7.2 20.8-11.1 32.4-12.4zm337 21.8c-0.1 4.1-0.4 8.3 0.3 12.4 4.7 1.5 9.8 0.5 14.5 2.1 11.2 2.5 19.6 12.7 21.3 23.8 0.6 3.6 0.7 7.2 1.1 10.8 3.9 0.2 7.9 0.8 11.8-0.2 0.8-0.9 1.3-2 1.4-3.2 1.5-16.2-6.4-33.8-21.3-41.4-8.7-5.2-19.3-6.5-29.1-4.3zm-364 13c-9.1 9.5-13.3 23.3-11 36.2 4.4 0.6 8.9 0.8 13.4 0.2 0.3-3.7 0.5-7.3 1-11 1.1-7.4 5.7-14 11.4-18.7 6.9-5.4 16-5.9 24.4-6.5 0-4 0.4-8-0.2-11.9-1.6-1.6-4.2-1.4-6.3-1.6-12.1-0.4-24.5 4.3-32.7 13.3zm32.9 9.9c-5.6 0.5-10.2 4.2-13.6 8.4-4.2 5.2-4.2 12.1-4.2 18.4 0 36.3-0.6 72.7-0.8 109-0.6 68.3-0.6 136.7-1.3 205 0 7.2-0.9 14.9 2.3 21.7 3.7 7.6 11.8 13.2 20.5 12.6 108.3 0 216.6 0.3 324.9 0.2 5.6 0 11.6 0.3 16.4-3.1 6.8-3.9 10.5-11.7 10.2-19.4 0.6-46 0.5-92 0.9-138 0.1-61.7 0.8-123.4 0.8-185-0.1-4.9 0.3-9.7-0.8-14.4-2.3-8.6-10.5-15.5-19.5-15.8-5.7-0.3-11.3 0-17 0-106.3-0.1-212.6 0.6-318.8 0.4zm-45.3 349.2c-1.8 10.4-0.3 21.7 4.9 30.9 8.6 15.3 27.4 24 44.5 20.3q0.3-6.2 0.3-12.3c-7.1-1.2-14.5-1.5-20.9-5-6.4-3-11.1-9-13.5-15.6-2.4-5.7-1.9-12-2.6-18q-6.3-0.3-12.7-0.3zm412.9 0.4c-1.4 2-0.7 4.8-1 7.2-0.2 10.4-5.7 20.8-14.9 25.9-6.2 3.7-13.5 4.5-20.5 4.7-0.8 4.3-0.7 8.7 0 13 10.4 1.8 21.5 0 30.4-5.8 6.4-4.5 12.1-10.5 15.4-17.7 3.9-8.6 4.6-18.3 3.3-27.6-4.2-0.2-8.5-0.8-12.7 0.3z"/><path class="c" d="m508.7 818.7c5.8 0.4 11.7 0.3 17.2 2.4 7.6 2.5 13.8 8.1 18.3 14.6 4.8 7.1 6 15.8 6.4 24.1q-2.4 0-4.8 0c-0.4-10.6-4.3-21.9-13.1-28.5-6.7-5.3-15.3-7.5-23.8-7.5q-0.1-2.6-0.2-5.1z"/><path class="c" d="m145.2 830.2c7.5-8.1 18.9-11.2 29.6-10.6q0 2.3 0 4.6c-7.4 0.5-15 2-21.3 6.3-10.1 6.3-14.9 18.4-15.4 29.9q-2.3 0-4.6 0c0.2-11 3.3-22.6 11.7-30.2z"/><path class="c" d="m663.4 869.4c1.3 1.8 3.2 3.4 3.3 5.7-0.1 2.4-1.2 4.7-1.9 6.9 0.9 2 1.8 3.9 2.4 6 0.1 3-1.5 5.8-1.4 8.9 0.4 2.1 1.2 4.1 1.6 6.2-0.3 2.3-1.2 4.5-1.5 6.8 0.2 2.5 1.2 4.8 1.5 7.2-0.3 2.3-1.3 4.5-1.7 6.9 0.2 2 0.9 4 1.2 6 1 3.4-2.8 6.2-1.3 9.5 1.4 2.9 0.9 6-0.1 8.9-1.5 3.3 0.3 6.7 1.2 10q-2.2 1-4.3 2c-0.1-30.4 0.1-60.7 1-91z"/><path class="c" d="m661.8 1065.6c0.7 2.8 1.1 5.7 1.6 8.5 0.4 3.2 4.5 4.4 4.3 7.8-0.1 24 0.1 48.1 0.1 72.1 0.5 4.3-5 5.9-5 10-0.2 1.9-0.3 3.8-0.4 5.7-0.2 0-0.7 0-1 0 0.1-27.9 0.1-55.8 0.2-83.7 0.1-6.8-0.4-13.6 0.2-20.4z"/><path class="c" d="m131.5 1191.9q2.5 0.1 5 0.4c0 7 1.2 14.2 4.8 20.3 6.3 11.3 19.3 18 32.1 17.2q-0.4 2.8-0.7 5.7c-6.5-0.7-13.1-1.4-19.1-4.2-9.9-4.6-17.7-13.7-20.5-24.4-1.5-4.9-1.6-10-1.6-15z"/><path class="c" d="m545.2 1191.8q2.3 0 4.7 0c0.2 11.5-2.9 23.6-11.3 31.8-7.8 8.1-19.2 11.7-30.3 11.3q0.1-2.7 0.2-5.3c9.6 0.1 19.5-2.8 26.2-9.9 7.5-7.2 10.5-17.8 10.5-27.9z"/><path class="c" d="m662 1228.6c0.8 3.3 1 6.7 1.6 10 2 2.2 6.6 2.6 6.1 6.3-0.1 24.4-0.3 48.7-0.6 73.1 0.4 2.6-2 3.9-3.6 5.5-2.6 2-2.8 5.7-3.8 8.6-0.1-27.4-0.2-54.7-0.2-82.1 0.2-7.2-0.1-14.3 0.5-21.4z"/><path class="c" d="m228.3 1351.4c4.8-0.9 9.8-0.4 14.7-0.5 69.3-0.1 138.7 0 208-0.1 10.7-0.5 19.5 11.1 16.3 21.3-1.6 7.4-8.7 12.9-16.2 12.7-72 0.1-144.1 0-216.1 0-4.9 0.1-10.2-0.3-14-3.7-6.6-4.9-8.1-15-3.8-21.9 2.5-3.9 6.6-6.8 11.1-7.8zm-0.3 9.6c-2.5 1.8-2.8 5-3.5 7.8q0.7 1.8 1.3 3.7c2.1 1.8 4.3 3.8 7.2 3.8 3.6 0.2 7.3-2 8.7-5.4 2.1-4.5-1.2-10.6-6.1-11.4-2.6-0.4-5.6-0.4-7.6 1.5z"/><path class="c" d="m389.4 1463.6c2.7-0.8 5.9 0.4 6.7 3.3 1.5 4.5 1.4 11.6-4 13.4-4.1 0.6-7-3.5-7-7.2-0.2-3.5 0.3-8.4 4.3-9.5z"/><path class="c" d="m416.6 1465.6c1.3-2.6 4.9-2.9 7.3-1.6 1.8 1.2 1.7 3.7 2.4 5.6-3.3 0-6.7 0.2-10-0.3-1.6-1-0.3-2.6 0.3-3.7z"/><path class="c" d="m358.2 1464.3c2.4-1.1 5.5-0.8 7 1.5 2.3 3.4 2.4 8.2 0.3 11.6-2.5 3.8-9.2 3.1-10.6-1.3-1.5-4-1.1-9.9 3.3-11.8z"/><path class="c" d="m80.8 1512.1c7-0.4 13.9-0.3 20.9 0.1 0 0.8 0.1 2.3 0.1 3-7.1 0.3-14.1 0.2-21.2 0 0.1-0.7 0.2-2.3 0.2-3.1z"/><path class="c" d="m586.3 1511.8c7.2 0 14.3-0.1 21.4 0.1 0 0.8 0.1 2.5 0.1 3.4q-10.8 0.2-21.5 0c0-0.8 0-2.6 0-3.5z"/><path class="d" d="m117.3 578c-0.1-2.5 0.1-5 0.7-7.4 0.3 7.1 0.2 14.2 0.9 21.3 0.9 8.7-0.9 17.4-0.5 26.1-0.3 8.7 1 17.5 0.1 26.2q-1.1-2.5-1-5.2c0.1-20.3-0.2-40.6-0.2-61z"/><path class="e" d="m228 1361c2-1.8 5-1.9 7.6-1.5 4.9 0.8 8.2 6.9 6.1 11.4-1.4 3.4-5.1 5.6-8.7 5.4-2.9 0-5.1-2-7.2-3.8q-0.6-1.9-1.3-3.7c0.7-2.8 1-6 3.5-7.8z"/></svg>