<svg version="1.2" xmlns="http://www.w3.org/2000/svg" viewBox="0 0 688 1536" width="688" height="1536"><style>.a{fill:#fff}.b{fill:#464746}.c{fill:#020202}.d{fill:#252525}.e{fill:#d82b30}</style><path class="a" d="m173.3 842.5c40.6-0.4 81.1-0.1 121.6-0.2 72.1 0 144.2-0.2 216.2-0.2 4.6 0 9.4 1.8 12.2 5.6 3.6 4.6 3.3 10.8 3.3 16.3-0.3 108.6-0.2 217.3-0.2 326 0.1 5.3-0.5 11.1-3.9 15.5-4 5.5-11.1 7.3-17.5 7.2q-163.5 0-327.1 0c-5.7 0-11.5-1.9-15.7-5.7-4.2-4.6-4.8-11.1-4.6-17 0-31 0.6-62 0.7-93 0.2-36 0.3-72 0.5-107.9 0.6-40.4 0.6-80.8 0.9-121.2 0.1-4.9-0.5-10 0.8-14.9 1.7-5.6 7.2-9.5 12.8-10.5z"/><path class="b" d="m140 33c-0.2-10.9 8-22 18.9-23.6 19.4-0.5 38.7-0.7 58.1-1 17.4-0.4 34.7 1.2 52 1.7 9.9 0 18.8 7.5 21.3 16.9 1.4 4.8 1 10 1 15-0.2 14.4 0 28.7-0.3 43.1 0.2 4.4-4.1 7.5-3.6 11.9-0.1 4.9 3.7 9 2.9 14-0.5 6 0.9 12.4-1.4 18.1-2 3.1-1.9 6.9-2 10.5q-1.3 0-2.6 0.1c0.6 0.1 2 0.4 2.7 0.5q0.7 2.2 1.4 4.4c-0.5 0.2-1.4 0.6-1.8 0.7q0.4 0.8 0.9 1.5c-11.2 0.5-22.3-1.2-33.4-1.2-27.7-0.8-55.4-1.4-83.1-0.2-8.8 0.5-17.6 0.5-26.3 1.8-0.2 51.9-1.1 103.9-1.4 155.8-0.1 20.3-0.8 40.7-0.6 61-0.5 45.5-1.1 91-1.4 136.5 14.6 1 29.1 2.8 43.8 2.9 23.6 0.4 47.3 0.8 70.9-0.5 8.9-0.4 17.8-1.2 26.7-1.6-0.3-29.4 0.3-58.9 0.5-88.3 0.7-88.5 1.8-177 2.2-265.5q1.8 0.7 3.5 1.4c-0.2 28.1 0 56.1 0 84.1 0 4.1 0.1 8.2 0.3 12.2-0.6 85-1.6 169.9-2.1 254.9 0 1.6 0.4 3.3 0.9 4.8 6 21.1 11.3 42.3 17.6 63.2 1.2 4.2 0.6 8.6 0.7 12.9-0.7 18-1 36-1.5 54 0.2 3.2-0.5 7.1-4.2 7.7 5.1 0.6 10.3 2 14.6 5.1 3.7 2.7 7.9 4.6 12.4 5.6 6.1-5.9 15.2-5.8 23-4.8 3.8 0.4 6.2 3.6 8.7 6.1 2.2 0.6 4.6 0 6.8-0.7 3.6-3.9 5.7-9.5 11-11.6 5-1.8 10.4-1.9 15.6-2.7-0.7-1.8-1.7-3.6-1.6-5.6-0.1-10.4 0.5-20.7 0.4-31.1-2.8-1.7-6.9-3.1-6.8-7-0.5-8.3 0.2-16.7 0.5-25 0.6-23 0.6-45.9 1.3-68.9 0.1-2.7 2.9-3.9 4.8-5.2 0.2-5.2-0.1-10.3 0.5-15.4 0.6-4.2 4.9-6.4 8.6-7 7.8-1.2 15.7-1.8 23.6-2.1 28-1.5 56-1.4 84-0.5 17.3 1 34.7 1.6 51.9 4.4 4.3 0.5 8.1 3.7 9.5 7.8 0.4 5.1-0.2 10.3 0 15.5 2.1 1.5 4.2 3.5 3.8 6.4 0.1 29.7-0.6 59.3-0.8 89-0.1 2.2 0.2 4.6-0.6 6.7-1.3 1.8-3.5 2.6-5.3 3.8-0.4 11.6 0.4 23.3-1.1 34.8 3.8 1 7.7 1.6 11.5 2.8 4 2.1 5.3 6.8 7.4 10.4 3.7 0.4 7.4 0.3 11.1 0 1-1.6 1.6-3.8 3.6-4.5 8.1-3.7 17.5-3.6 25.9-0.8 9.5 3.1 18 8.8 24.9 16.1 4.8 5.4 8.5 12 10.9 18.8 3.9 10.3 2.7 21.4 4.6 32 1.7 9.3 3.3 18.7 2.9 28.2-1.4 9-1.3 18.2-0.1 27.2 0.6 31.3-0.7 62.6-0.3 94 3.7 1.6 6.7 4.5 8.4 8.2 1.2 3.2-0.2 6.5-1.5 9.5 1.1 1.9 2.6 3.7 3 5.9 0.3 2.8-1.6 5.1-2.8 7.5 1.5 2.6 3.4 5.3 2.9 8.5-0.6 2.1-1.9 3.8-2.6 5.8 0.8 2.4 2.5 4.5 2.7 7.1 0.1 2.7-1.7 4.8-3 7 1.1 2.2 2.8 4.3 2.6 6.9 0.2 2.7-1.6 4.9-2.9 7 3.1 4.1 2.9 9.6-0.2 13.7 1.3 2.5 2.8 5.5 1.5 8.3-1.3 3.6-5 5.4-8.6 6.1-0.2 26-0.1 52-0.3 78 0 5.6-0.5 11.3 0.1 16.9 1.2 1.5 2.8 2.6 3.7 4.3 1.5 3.2 1.3 6.8 2 10.2 1.9 3 4.6 5.7 4.4 9.5 0.1 19.4 0 38.8 0 58.2-0.1 5.3 0 10.7-0.4 16.1-0.1 3.1-2.5 5.4-4.4 7.7-0.3 2.4-0.6 4.8-1.3 7.2-0.7 3.4-5.4 4.5-4.8 8.4-1.1 9.8-0.2 19.7-0.6 29.6 0.1 4.6-0.3 9.2 0 13.7 0.2 0.2 0.5 0.4 0.7 0.5 5.3 2.2 5.2 8.5 6.4 13.3 1.5 2 3.8 3.4 4.9 5.7 1.3 2.7 1 5.8 1.1 8.7-0.2 22.7 0 45.4-0.2 68.1 0.1 4.3-2.6 8-6.2 10.2 0 4.7-1.7 9.8-6.2 12 0 15-0.2 29.9 1 44.9 2.3 24.2-0.2 48.5-0.7 72.8-0.1 11.1-1.3 22.7-7.2 32.5-8.7 14.4-25.2 23.4-41.9 23.9-0.2 2.6 0.3 6.1-2.3 7.8-2.6 0.9-5.4 0.4-8.1 0.5-6.6-0.2-13.2 0.5-19.8 0-3.6-0.9-3.1-5.3-3.4-8.1-107.3 0.3-214.6 0.1-321.8 0.2-51.9-0.1-103.8 0-155.7 0-0.2 3-0.2 7.9-4.3 7.9-8.3 0-16.6 0.1-24.9 0-3.9-0.4-3.3-5.4-3.5-8.2-19.9 0.5-38.2-12.9-46.5-30.5-3.2-6.9-4-14.6-4.3-22-0.9-25.8-1.7-51.6-2.7-77.4-1.4-26.8-0.6-53.7-0.8-80.6 0.1-50.7 0.2-101.3 0.3-152 0.4-129.3 0.2-258.7 0.9-388 0.3-21 0.7-42 1.6-63 0.8-8.5-0.2-17.4 3.7-25.3 5-10.7 13.8-19 23.6-25.3 10.1-5.6 22.1-7.9 33.6-6.2 4.3 0.6 8.5 1.3 12.8 1.4 2.9 0.1 4.3 3.1 6.3 4.7 3-3.1 5-7.1 8.6-9.6 2.5-1.9 5.6-2.2 8.6-2.7q-1.3-1-2.5-2c-0.2-19.3-0.1-38.7-0.1-58 0.2-5.9-0.5-12 1.9-17.6 6.3-20 11.2-40.5 17.7-60.5 1.5-4.4 1-9.2 1-13.9-0.2-9.1 0.4-18.3-0.5-27.4-0.2-9.2 0.4-18.4 0.4-27.6 0.8-78.3 2.2-156.7 2.3-235 0.4-18.7 0-37.3 0.7-56 1.8-2.2 3.3-4.9 3-7.9 0.3-4.2-3.6-7-3.5-11.1-0.1-5.3 0-10.7-0.1-16.1-0.3-4.3 3.6-7.5 3.2-11.9 0.5-4.4-3.6-7.6-3.2-12 0.1-17.4 0.1-34.7 0.4-52zm22-19.2c-2.5 0.1-5.3 0.2-7.4 1.9-6.1 4.4-10.5 11.6-10 19.3-0.1 17.5-0.3 34.9-0.4 52.4 8 0.2 15.9-0.7 23.8-0.9 36.3-2 72.7-1.4 109 1.1 3 0 6.2 0.8 9.2-0.3 0.9-13.1 0-26.2 0.4-39.3-0.1-8.9 1.5-18.9-4.2-26.5-3.6-5.5-10.6-6.6-16.6-6.7-14.3-0.3-28.6-1.8-42.9-1.7-20.3 0.1-40.6 0.8-60.9 0.7zm-15.3 77c0.7 4.4 0.5 8.9-0.4 13.2 45.8-2.9 91.9-2.8 137.7 0.4-0.8-4.3-0.7-8.7-0.2-13-24.2-1.3-48.5-2.2-72.8-2.5-21.5 0.2-42.9 0.9-64.3 1.9zm19.2 15.5c-7.2 0.3-14.5 0.6-21.7 1.4q0.1 9.5 0.3 19c8 0.2 16-0.5 24-0.9 38.7-1.9 77.5-1.2 116.1 1.5 1.6-6.3 1-12.8 1.2-19.2-39.9-3-79.9-3.5-119.9-1.8zm-18.9 24c0.7 4.2 0.7 8.5-0.3 12.7 8.1-0.2 16.1-0.6 24.2-1 27-1.3 54.1-0.8 81.1-0.1 10.5 0.4 20.9 0.9 31.4 1.8-1.1-4.2-1.2-8.6-0.9-13q-20.2-1.4-40.5-1.7c-31.7-1.4-63.4-0.4-95 1.3zm258.5 348.4c17.7 2.6 35.6 3.3 53.5 4 25.3 0.3 50.7 0.9 76-0.5 7.2-0.7 14.5 0.1 21.6-1.5-15.7-2.7-31.6-3.1-47.4-3.9-18.8-0.5-37.5-1.3-56.2-0.7-15.9 0.5-31.8 0.5-47.5 2.6zm-9.3 20.7c31.1 3.4 62.4 4.5 93.7 4.6 25-0.3 50-0.4 74.7-3.7 0.3-5.3 0.4-10.7 0-16-24.1 2.9-48.4 3-72.6 3.2-23.4-0.1-46.8-0.5-70-2.4-8.6-1-17.2-1.3-25.6-3.6-0.4 6-0.3 12-0.2 17.9zm-4.9 3.6c-1.1 27.4-0.9 54.7-2.2 82 0 3.8-1 7.9 0.5 11.4 4.7 3.6 10.8 4.4 16.4 5.6 27.1 4.3 54.6 4.9 82 4.7 23.7-0.2 47.4-0.4 70.9-3.3 3.8-0.7 9.2-2.6 8.9-7.3 0.5-21.4 0.2-42.8 0.6-64.3 0-9.1 0.6-18.2 0.1-27.3-7.9 1.2-16 1.8-24 2.3-27.5 1.5-55 2.1-82.5 1.1-23.6-0.4-47.3-1.8-70.7-4.9zm-256.8 23.4c-4.3 13.9-7.4 28.1-11.9 42 7.1 0.3 14.2 0.8 21.4 1 30 0.5 60 1 90 1.1 22.3 0.4 44.7-0.2 67.1-1-6.3-20.7-11.3-41.8-17.2-62.6 0-2.1-2.5-1.3-3.8-1.4-18 1.8-36.1 2.4-54.1 2.8-28.5 0-57 0-85.2-3.8-2.3 7.3-4.1 14.7-6.3 21.9zm-13.2 49.6c-0.1 20.8 0.1 41.6-0.1 62.4 17.3 4.2 35.1 4.9 52.8 5.6 24.7 1.1 49.3 1 74 0.8 11.7 0.1 23.4-0.4 35-1.8 5.9-0.9 12.1-1.5 17.3-4.6-0.2-21.6 1.3-43.2 1.6-64.8-16.6 1-33.3 1.2-49.9 1.5-43.1 0-86.1-0.4-129.1-2.3-1.9-0.4-1.3 2.1-1.6 3.2zm274.9 28.7c-0.4 10.2-0.4 20.4-0.5 30.7 6.9 2.2 14 3.4 21.2 4.2 37.2 4.1 74.7 3.8 112 1.8 9.4-0.8 18.9-1 28.2-2.6 1.6-0.4 4.5-0.6 4.2-2.9 0.3-9.5 0.6-19 0.2-28.4-9.7 1.5-19.6 2-29.5 2.6-25 1.1-50 1.2-75 0.7-20.4-0.4-40.8-2-60.8-6.1zm-7.3 40.2c21.8 3.3 44 3.4 66.1 4.2 11 0 22 0.3 33 0.3 25.9-0.4 51.9-0.2 77.4-4.3-9.3-2.5-19-0.5-28.4 0.1-44 3.1-88.3 3-132.1-2.5-5.4 0.2-10.7 1.4-16 2.2zm-275.4 3.6c-2.7 1.4-4.9 3.9-6.1 6.8-0.2 2.3 0.1 4.6 0.3 6.9 3.8-3.2 7-7 10.6-10.4q1.3 1.1 2.7 2.2c-3.4 5.1-8.3 8.8-12.4 13.3 8.2 0.8 16.2 3 24.3 4.2 23.1 3.7 46.3 5.9 69.7 6.5 0.4-6.7 0.2-13.4 0-20 1-3.4 4-0.2 4 1.9 0.6 6.1 0 12.2 0 18.3q3.8 0.1 7.7 0.2c-0.3-7-0.5-14 0.2-21 1.7-0.4 3.4-0.4 5.1-0.1-1.7 6.8-1 13.9-1.2 20.8 22.3 0.1 44.5-2.4 66.6-5.2 9.4-1.8 18.9-3.1 28.3-4.9-2.3-3.7-5.2-7-8-10.2-1.4-1.7-3.4-3.5-2.7-5.9 0.7 0 1.9-0.2 2.5-0.3 4 4 7.4 8.5 11.3 12.6 0.3-3.1 0.7-6.1 0.5-9.2-3.5-3.7-8.6-6.9-14-5.7-9.6 1.2-19.2 2.6-28.9 3.4-37.6 2.9-75.4 2.7-113 0.4-13-1-26.1-1.6-39-4.2-2.8-0.4-5.7-1.3-8.5-0.4zm261.9 0.9c-3.5 3-4.2 7.9-3.7 12.3 4.3-3.4 7.5-7.9 11.3-11.7 0.5 1.4 2.7 2.8 1.3 4.3-2.8 4.7-7.2 7.9-10.9 11.8 31.3 6.6 63.2 9.3 95 10.5 0.3-7.4-1-14.8 0.1-22.1 0.8 0.2 2.5 0.7 3.3 0.9 1.2 7.1 0.6 14.3 0.6 21.4q3.4 0 6.9 0.1c0.2-7.3-0.4-14.7 1.1-21.9 1.3 0.4 3.8-0.1 3.7 2-0.2 6.5-0.6 13.1-0.5 19.6 29-0.8 57.9-3.5 86.4-8.7 3-0.5 5.9-1.4 8.8-2.3-4.1-3.8-7.6-8.1-11.4-12.1 0-0.5-0.1-1.5-0.2-2.1 0.7-0.1 2.1-0.4 2.8-0.6 3.4 3.5 6.4 7.4 10.5 10.2 0.5-4.7-1.3-9.5-5-12.5-5.1-0.2-10.1 1.4-15.2 1.9-14.4 1.6-28.8 2.5-43.2 2.8-22.4 0.3-44.8 0.9-67.2 0-23.4-0.6-46.9-1-70-5.4-1.7-0.6-3.3 0.4-4.5 1.6zm228.2 2.8c-0.7 1.5-1.3 3-2.2 4.3-5 2.1-10.6 2-16 2.4-0.7 3.4-1.6 7-3.5 10-0.5 1.3-1.8 1.6-3 1.8-28.9 6-58.4 8.8-87.9 10.1-26.1 0.7-52.1-0.9-78-3.9-15.3-1.4-30.4-4.5-45.6-6.5q-0.7-5.7-0.3-11.4c-4.4 0.7-8.7 1.7-13.1 2.2-5.5 0.8-10.9-1.1-16.3-1.8-5.6-0.6-11.2-1.2-16.7-1.9-0.2 3.8 0.1 7.8-1.1 11.5-1 2.6-4.2 2.8-6.5 3.5-42.2 8-85.4 12.1-128.4 9.2-24.1-1.4-48.1-4.9-71.9-8.9-2.9-0.8-6.7-0.7-8.3-3.6-1.2-3-0.6-6.4-1.4-9.4-4.3-1-8.7-0.7-13-1.6-2.1-0.5-2.3-2.9-3.2-4.5-7-1.3-14.2-2-21.2-0.5-9.1 1.6-17.3 6.6-24 12.8-5.9 5.6-11.6 12.3-13.5 20.4-1.2 5.8-1.1 11.8-1.5 17.7-2.3 54.9-2.2 109.9-2.2 164.9-0.1 21.7-0.3 43.3-0.1 65 0.1 42-0.5 84-0.2 126-0.2 82.3-0.2 164.7-0.4 247 0.4 23.9-0.8 47.9 0.3 71.9 1.3 26.1 1.6 52.2 3 78.3 0.4 7.5-0.3 15.2 1.8 22.5 1.7 6.6 5 12.7 9.6 17.6 7.7 8.1 17.7 14.9 29.1 15.8 10 0.8 20 0.6 30 0.7 23 0.5 46.1-0.1 69.1 0.1 28.7 0.1 57.3-0.3 86 0.2 24.3-0.6 48.7 0 73-0.2 15 0.5 30-0.2 45 0 23 0.5 46-0.4 69 0.1 26-0.4 52 0.2 78-0.1 28.7-0.1 57.4 0 86.1-0.2 10.4-0.1 21.3-0.2 31.1-4.5 14.5-6 24.5-20.7 25.8-36.2 0.9-10.6 0.7-21.3 1.4-32 0.2-12.3 1.6-24.7 0.9-37-0.5-12.7-2-25.3-1.9-38-0.4-30.3 0.2-60.7 0.1-91-0.1-51 0.3-102 0.5-153 0.1-115 1.2-230 1.4-345.1-7.3-4.3-10-12.9-10.3-20.9-0.5-9.5 2.6-19.5 9.8-26-1.4-9-3.3-17.9-3.5-27-0.3-9.2-1.8-18.7-6.8-26.6-6.3-9.9-15.3-18.3-26.3-22.7-7.2-2.6-15.3-4.6-22.6-1.5zm-269.7 2.2c7 0.8 13.9 3.3 21.1 3-1.5-1.7-2.7-4-5.1-4.3-5.3-0.8-10.9-0.6-16 1.3zm324.7 91.5c-2.2 8.8-1.4 19.1 4.8 26.1 0.2-11.8 0.7-23.6-0.2-35.4-2.1 2.8-3.9 5.9-4.6 9.3zm9.4 123.5c-0.6 18.2-0.3 36.4-0.5 54.6 0.1 12.4-0.6 24.9 0.1 37.3 1.8-0.8 2.8-2.3 3.7-4-0.9-1.7-1.9-3.4-2.3-5.3 0.2-2.6 2-4.8 2.9-7.2-0.5-2.3-2-4.3-2.4-6.7 0.8-2.4 2.1-4.6 3.3-6.8-1.2-2.3-2.8-4.6-2.9-7.3 0.5-2.5 2.3-4.4 2.8-6.9-0.7-2.4-2.4-4.6-2.7-7.1 0.4-2.8 1.9-5.2 2.9-7.8-1.3-2.3-3.3-4.5-3-7.3 0.5-2.1 1.8-3.9 2.6-5.9-0.9-2.1-2.2-3.9-3-6-0.1-2.8 1.7-5.3 2.3-8-0.3-2.3-2.4-3.9-3.8-5.6zm-1.3 219.6c-0.1 27.8-0.1 55.6-0.4 83.4 0.8-4.6 1.8-9.5 5.7-12.6 0.5-24.6 0.4-49.2 0.3-73.8 0.2-2.3-0.9-4.3-2.4-6-2.9-3.2-1.8-7.9-2.7-11.8-1.1 6.9-0.3 13.9-0.5 20.8zm-0.4 143.6c-0.4 27.4 0 54.9-0.2 82.4 0.1 7.8-0.7 15.6 0.2 23.5 0.6-2.8 1.2-5.5 2.1-8.1 0.7-3.2 5.5-3.8 5.1-7.4 0.4-20.3-0.1-40.7 0.4-61 0.3-5.2 0.2-10.4-0.6-15.5q-2-1-4.1-2c-1.3-3.9-2.1-7.9-2.9-11.9zm-587.6 285.6c-0.1 0.8-0.4 2.5-0.5 3.3 7.6 0.6 15.3 0.1 22.9 0.3 0.1-0.8 0.3-2.4 0.3-3.2-7.5-0.4-15.1-0.4-22.7-0.4zm510.5 0.2q-0.3 1.6-0.5 3.4c7.9 0 15.7 0.1 23.6-0.1q0.1-1.8 0.3-3.5c-7.8-0.1-15.6 0.1-23.4 0.2z"/><path class="b" d="m592.3 670.3c3.5-1.3 6.6-4 10.5-3.9q0.6 1.7 1 3.6c-11.3 5.4-23.4 9.5-35.8 11.2-7.6 1.1-15.3 2.3-23 2.5-2.3 0.4-2.3-2.3-2.6-3.8 16.9-1.7 34.1-3.3 49.9-9.6z"/><path class="b" d="m590.7 684.6c9.4-2.1 19.3-1.3 28.7 0.9 3.6 1 7.4 2.3 9.9 5.1 2.3 2.5 1.7 6.8-1.1 8.6-5.6 3.7-12.6 4.6-19.2 4.5-8-0.2-16.3-1.4-23.4-5.4-2.5-1.3-3.8-4-5.1-6.4 1.9-4 5.8-6.6 10.2-7.3zm-6.1 7.5c4.4 4.2 10.6 5.8 16.5 6.5 8.8 1.1 18.2 0.8 26.2-3.4-1.6-2-3.4-3.8-5.9-4.5-6.2-2.2-12.8-2.7-19.3-2.7-6 0.3-12.5 0.3-17.5 4.1z"/><path class="b" d="m354.4 688.5c4.9-0.8 9.8-0.3 14.7-0.4 4 0.2 8.7 0 11.9 3 3 3.5 2.8 8.5 3 12.9 0 10.4 0.4 20.8-0.2 31.1-0.3 6.3-4.2 12-9.8 14.9-5.5 3.1-12.5 2.8-18.1 0.1-6-2.9-9.7-9.5-9.6-16.1-0.2-10 0.3-20 0.2-30 0.1-3.5-0.3-7.3 1.1-10.6 1.4-2.5 4-4.3 6.8-4.9zm0.1 4.2c-2.7 0.7-4.1 3.6-3.9 6.3 0.1 9.6-0.1 19.3-0.3 29 0 4.2-0.3 8.8 2.1 12.6 4 7.7 15.6 9.7 22.1 4 3.6-3.1 5-8 5-12.6 0.1-11.2 0.3-22.5-0.2-33.8 0-2.9-2.3-5.8-5.3-5.7-6.5-0.1-13-0.4-19.5 0.2z"/><path class="b" d="m398.3 688.4c5.5-0.8 11.1-0.1 16.7-0.2 3.7 0.2 8.3-0.5 11 2.7 2.9 3.3 2.7 8 2.9 12.1-0.1 10.7 0.2 21.4-0.3 32.1-0.3 5.5-3.2 10.8-7.8 13.8-4.9 3.4-11.3 3.5-16.9 2.1-7.5-1.7-12.9-9.3-12.6-16.9-0.1-12.1-0.1-24.1 0.1-36.1-0.1-4.2 2.4-8.8 6.8-9.6zm2.1 4c-2.9 0.1-4.7 2.9-4.5 5.6-0.4 12-0.2 24-0.1 36-0.1 5.6 3.5 11.8 9.3 12.9 3.7 0.7 7.8 1.1 11.4-0.5 5.5-2.9 8.6-9.3 8.2-15.4 0-11 0.1-22.1-0.1-33.1 0.2-2.7-1.9-5.2-4.6-5.3-6.5-0.5-13.1-0.7-19.6-0.2z"/><path class="b" d="m262.3 689.5c5.4-1.4 11.2-0.8 16.7-1 4.1 0 8.8-0.5 12 2.6 2.9 2.4 3.3 6.3 3.4 9.8 0 10.4 0 20.7-0.2 31.1-0.1 4.7-0.9 9.6-3.8 13.4-6.7 8.7-21.1 9.7-28.9 2.1-3.8-3.8-5.3-9.3-5.1-14.5 0-11 0-22 0.2-33 0.1-4.1 1.4-9 5.7-10.5zm1.9 3.9c-2.8 0.8-3 4.1-3.1 6.5-0.4 10.1-0.1 20.1-0.3 30.1 0.1 4.3-0.2 9 2.6 12.6 3.9 5.4 11.7 6.8 17.7 4.5 5.4-2.3 8.6-8.3 8.5-14.1 0.1-10.3 0-20.6 0.1-31-0.2-2.2 0.2-4.6-0.9-6.6-1.7-2.6-5.1-2.4-7.8-2.6-5.6-0.1-11.3-0.3-16.8 0.6z"/><path class="b" d="m308.3 689.4c4.4-1 9.1-0.7 13.6-0.9 4.7-0.1 10-0.3 14 2.5 3 2.4 3.5 6.4 3.4 10 0 10.3 0 20.7 0.1 31 0.2 5.9-1.9 12-6.5 15.9-7.2 6.2-19.5 6.5-26.1-0.7-3.7-3.7-5.3-9-5.2-14.2q0-17-0.1-34c-0.3-4.2 2.4-8.7 6.8-9.6zm0.9 4c-3.5 1.2-3 5.6-3.2 8.6-0.2 11.8-0.2 23.8 0.5 35.6 1.5 10.8 16.7 13.9 23.7 6.7 2.8-3.1 4.7-7.1 4.6-11.3 0.2-10.7 0-21.4-0.1-32-0.2-2.7-0.1-6.4-3-7.6-3.1-0.9-6.5-0.4-9.7-0.5-4.2 0.2-8.6-0.6-12.8 0.5z"/><path class="b" d="m443.2 689.4c5.5-1.2 11.2-0.5 16.8-0.6 8 0.1 16-0.2 23.9 0 2.9 0.3 6.7 0 8.3 2.9 2.4 4 1 8.9-0.7 12.9-5 10.9-10.4 21.7-15.4 32.6-2.8 6.3-7.4 12.4-14.1 14.5-8.1 2.3-18.4-0.4-22.6-8.2-3.1-5.6-2.5-12.3-2.3-18.5 0.4-9.5-0.1-19.1 0.5-28.6 0.1-3.3 2.4-6.3 5.6-7zm-0.6 5c-0.9 3.8-0.7 7.7-0.9 11.6 0 8.7-0.3 17.3-0.4 26-0.1 4.4 0.7 9.4 4.2 12.6 4 3.5 10 4.2 15.1 2.7 5.1-1.7 8.5-6.3 10.8-10.9q8.3-16.5 15.6-33.4c1.3-3.1 2.6-6.5 1-9.7-13.3-0.4-26.7-0.1-40-0.1-1.8 0.2-4-0.3-5.4 1.2z"/><path class="b" d="m198.3 690.5c3.8-1 7.8-0.8 11.7-0.8 9.3 0.2 18.7 0 28 0.1 3 0.1 6.6 0 8.7 2.5 2.7 2.8 2.6 7 2.5 10.7-0.3 10-0.1 20-0.2 30 0 5-1.2 10.4-4.8 14.1-4.4 5.3-11.8 6.6-18.3 6-6.4-0.6-11.2-5.7-13.7-11.3-5.3-11.4-10.8-22.7-15.9-34.1-1.7-4-3.2-8.3-2.5-12.7 0.3-2.4 2.3-4 4.5-4.5zm0 4c-0.2 3-0.2 6.2 1.2 9 4.7 10.9 9.6 21.6 14.9 32.2 1.7 3.4 3.3 7 6 9.8 4.2 4.2 10.9 3.8 16.1 1.9 5.4-2 8.1-7.9 8-13.4q0.1-18 0.3-36c0.4-3.3-3.2-4.3-5.8-4.1-13.5-0.1-27.1 0-40.7 0.6z"/><path class="b" d="m165.4 788.5c24.8-0.8 49.7-0.1 74.6-0.3q135.5-0.5 271-0.6c15.5-0.8 31.4 3.2 44 12.4 18.9 12.6 29.2 35.7 28.8 58-0.1 114-0.4 228-0.5 342 0.3 16.7-6.2 33.4-17.5 45.8-12 12.8-29 21.6-46.8 22-25.3 0.8-50.6 0.2-75.9 0.4-85.7 0-171.4 0-257.1 0-12.7 0-25.7 0.8-37.9-3.2-12.9-4.4-24.9-12.1-32.9-23.2-8.3-10.8-13.3-24.1-13.9-37.7-0.1-85.7 0.4-171.4 0.2-257.1 0-24 0.3-48 0.3-72 0.1-9.7-0.7-19.5 1.3-29 1.4-8 4.4-15.5 8.3-22.5 4.2-7.8 10.7-14.1 17.4-19.8 10.3-8.6 23.3-13.7 36.6-15.2zm69.9 4c-16.4 0.1-32.8 0.2-49.3 0.2-10.3 0-20.9-0.9-30.9 2.5-21.6 5.9-39.6 23.3-46 44.9-3.6 10.6-2.4 21.9-2.6 32.9-0.4 33-0.1 66-0.6 99 0.2 71-0.1 142-0.2 213 0.1 9.7-0.6 19.5 1.5 29 2.4 11 7.4 21.5 15.3 29.6 7.6 7.9 17 14.4 27.8 17.2 11.8 3.9 24.4 2.7 36.7 2.9 105-0.1 210 0 315-0.1 10-0.2 20.3 0.5 30.1-2.4 10.3-2.7 19.9-8 27.5-15.6 12.6-11.6 19.2-28.7 19.2-45.6q0-43.5 0-87c-0.1-51.7 0.5-103.3 0.4-155-0.1-35 0.3-70 0-105-0.4-17.6-9.2-34.4-22.2-46-11.5-9.5-26.1-15.1-41-15.2-37 0.6-74 0.2-111 0.4-56.6 0.1-113.1 0.1-169.7 0.3z"/><path class="b" d="m352.4 810.5c51.5 0 103 0 154.6-0.1 4.7 0 9.4 0.1 14 1.2 14.6 3.1 27 13.4 34.1 26.3 4.3 8 5.9 17.1 5.8 26.1 0.3 61-0.2 122-0.1 183 0 43-0.2 86-0.1 129-0.4 12.2 1.1 24.9-3.1 36.7-4.3 13.8-15.9 24.5-29.2 29.7-10.6 4.2-22.3 2.4-33.4 2.9-106.4-0.1-212.7 0.1-319 0-13.9 0.5-27.9-4.7-37.6-14.7-7.9-7.2-12-17.6-13.9-27.9-1.2-8.9-0.5-17.8-0.7-26.7 0.6-103.3 0.3-206.6 0.8-310-0.2-10.9 1.9-22.2 8.1-31.4 6.9-9.8 16.7-18 28.4-21.4 6.4-2 13.2-2.5 19.9-2.4 57.1 0 114.3-0.2 171.4-0.3zm-173.4 4.9c0.1 3.9 0.4 7.8 0.1 11.6-2.3 1.8-5.4 1.4-8.1 1.9-8.8 0.8-17.6 4.9-22.9 12.1-5.1 6.8-5.9 15.5-6.8 23.6-4.1 0.2-8.2-0.2-12.2-1-0.4 80.1-0.4 160.3-0.7 240.4 0 29.1 0.2 58.2-0.2 87.4 3.2-0.4 6.5-0.7 9.8-1 0.4 0.5 1.2 1.4 1.6 1.9 0.2 9.6 3.3 19.3 9.4 26.9 5.2 6.6 13.9 9 22 9.7 2.1 0.4 4.7 0.1 6.5 1.4 0.5 3.5 0.2 7 0.1 10.6 83.8 0 167.6 0 251.3 0 26.2-0.2 52.3 0.3 78.5-0.2q-0.3-5.4-0.2-10.8c7.6-1.5 15.9-1.5 22.6-6 9.2-6 13-17.3 13.8-27.8 0.5-2-0.2-5.1 2.4-5.7 3.4-0.3 6.8 0.7 10.1 1.3 0.2-48.2 0.2-96.4 0.2-144.7-0.1-61.2 0.5-122.3 0.3-183.5-4 0.8-8.1 1.2-12.2 1.2-0.9-6-1-12.2-3.3-17.8-3-8-9.8-14.6-18-17.1-4.6-1.8-9.8-1-14.5-2.4-2-3.8-0.7-8.4-1-12.4-4.2-0.3-8.4-0.3-12.6-0.2-105.3 0.2-210.7 0.6-316 0.6zm332.9-0.4q0.1 4.2 0.3 8.5c9.9 0.2 20.1 3.9 26.6 11.6 6.1 6.9 8.7 16.1 9.6 25.1q4-0.5 8.1-1c-1.2-10.7-5.1-21.3-12.4-29.3-8.1-9.2-20.1-14.2-32.2-14.9zm-368.7 14.1c-8.3 7.9-13 18.9-13.8 30.3q3.9 0.2 7.9 0.5c1-7.5 2.8-15.1 7.4-21.2 6.8-9.6 18.6-14.3 30.1-14.7q-0.2-4.4-0.3-8.7c-11.5 1.2-22.9 5.7-31.3 13.8zm404.7 365.2c-0.4 10.9-3 22.7-11.7 30-6.6 6.4-15.9 8.9-24.9 9.3q0.2 3.7 0.4 7.4c7.5-0.4 15.1-1.8 21.6-5.7 14.1-7.8 22.8-23.7 23.2-39.7q-4.3-0.7-8.6-1.3zm-419.9 1.5c0.6 5.6 1.3 11.3 3.5 16.6 4.6 10.6 12.9 19.7 23.5 24.6 5.8 2.4 12.1 3.4 18.3 3.9 0.1-2.4 0.1-4.7-0.1-7.1-7.7-1-15.7-2.3-22.2-6.9-10.1-7.3-15.1-20.1-15.3-32.2q-3.8 0.5-7.7 1.1z"/><path class="b" d="m344.2 837.4c55.3 0 110.5-0.1 165.8-0.2 10-0.2 20.6 7.2 21 17.8 0.8 15.6 0.2 31.3 0.4 47-0.2 97-0.4 194-0.2 291 0.3 8.8-4.5 17.7-12.5 21.7-7.3 3.7-15.8 2.6-23.7 2.7-106.3-0.1-212.6 0-319 0-7.8-0.3-15.5-4-19.8-10.6-3.4-5-3.4-11.2-3.4-16.9q1-121.4 1.7-242.9c0.2-27.3 0.1-54.6 0.6-82 0.1-5.8-0.7-12.1 2.7-17.2 3.9-5.7 10.3-9.9 17.3-10.3q84.5 0.2 169.1-0.1zm-170.8 5.1c-5.7 1-11.2 4.9-12.9 10.5-1.3 4.9-0.6 10-0.8 14.9-0.2 40.4-0.3 80.8-0.8 121.2-0.3 35.9-0.4 71.9-0.6 107.9-0.1 31-0.7 62-0.7 93-0.2 5.9 0.4 12.4 4.6 17 4.2 3.8 10 5.7 15.7 5.7q163.6 0 327.1 0c6.4 0.1 13.5-1.7 17.5-7.2 3.4-4.4 4-10.2 3.9-15.5 0-108.7-0.1-217.4 0.2-326 0-5.5 0.3-11.7-3.3-16.3-2.8-3.8-7.6-5.6-12.2-5.6-72 0-144.1 0.2-216.2 0.2-40.5 0.1-81-0.2-121.5 0.2z"/><path class="b" d="m77.7 879.5q2 0.2 4 0.3c0.5 17.3 0.3 34.5 0 51.8q-1.9 0.1-3.9 0.2c-0.6-6.3-0.1-12.5-0.3-18.8 0-11.1-0.1-22.3 0.2-33.5z"/><path class="b" d="m606.5 879.9q2.1-0.1 4.3-0.2c-0.2 17.3 0.4 34.7-0.1 52q-2.1-0.1-4.2-0.1c-0.1-17.2-0.1-34.5 0-51.7z"/><path class="b" d="m67.6 890.6c1.1-1.3 2.7-0.8 4.1-0.8 0 9.7 0.2 19.5 0 29.2 0.3 2.2-3 3.2-4.1 1.4-0.7-4.4-0.2-8.9-0.3-13.4 0.1-5.5-0.4-11 0.3-16.4z"/><path class="b" d="m89.2 891.1c0.1-2.8 2.8-0.9 4.4-0.8-0.4 9.6-0.1 19.2-0.1 28.7 0.4 2.7-3.8 3.3-4.3 0.8-0.6-4.6 0.2-9.2-0.1-13.8 0.1-5-0.8-10 0.1-14.9z"/><path class="b" d="m594.9 892c-0.3-2 1.5-2.6 3.1-2.4 1.8 1.6 1.1 4.3 1.3 6.4-0.3 7-0.1 14-0.2 21-0.2 1.5 0.2 4-2 4.1-0.6-0.1-1.9-0.4-2.5-0.5 0.5-9.5-0.2-19.1 0.3-28.6z"/><path class="b" d="m617.2 890.1c1.9-1.8 3.9 0.9 3.5 2.8 0.1 8.7 0.1 17.4 0 26.1 0.6 3-4.4 2.6-4.3 0-0.2-8 0.1-16-0.1-24 0.2-1.6-0.5-3.8 0.9-4.9z"/><path class="b" d="m77.5 1005.5q2-0.1 4-0.1c0.5 16.2 0.7 32.4 0.2 48.7 0 1.3-0.7 2.5-1.2 3.7-0.7-0.4-2.2-1.1-3-1.5 0-17-0.4-33.9 0-50.8z"/><path class="b" d="m606.5 1005.5q2-0.1 4.1-0.1c0.7 17.1 0.3 34.2 0.1 51.4q-2.2 0-4.3 0c0-17.1-0.4-34.2 0.1-51.3z"/><path class="b" d="m67.4 1015.3q2.1-0.1 4.2-0.2c0.1 10.4-0.1 20.7 0.1 31.1q-1.9 0-3.9 0.2c-0.6-2.4-0.6-4.9-0.6-7.4 0.2-7.9 0-15.8 0.2-23.7z"/><path class="b" d="m89.4 1015.1q1.7 0.1 3.4 0.5c1 3.3 0.4 6.9 0.4 10.4-0.2 6.3 0.4 12.7-0.1 19 0.4 1.9-3.4 2.2-3.7 0.6-0.9-1.7-0.5-3.8-0.6-5.6 0.5-8.3 0.1-16.6 0.6-24.9z"/><path class="b" d="m595.3 1017c-0.3-2.1 2.2-1.5 3.5-2 0.6 7.3 0.1 14.6 0.4 21.9 0.2 3.3-0.1 6.6-0.6 9.9-1-0.2-2.9-0.5-3.8-0.6 0.2-9.7-0.3-19.5 0.5-29.2z"/><path class="b" d="m616.4 1017c-0.5-2.6 4.6-2.6 4.3 0 0.3 5.3-0.2 10.7 0 16-0.1 4.4 0.5 9-0.5 13.4q-1.9-0.1-3.9-0.3c0.4-9.7-0.3-19.4 0.1-29.1z"/><path class="b" d="m606.5 1138.9c-0.3-2.2 2-2.5 3.5-3.2 1.5 6.3 0.6 12.9 0.8 19.3-0.2 10.3 0.2 20.7-0.1 31 0.3 1.8-1.6 2.9-3.1 2.5-2-1.2-1.1-3.7-1.4-5.6 0.3-14.6 0.1-29.3 0.3-44z"/><path class="b" d="m77.4 1139c-0.5-2.4 2.6-3.8 4-1.7 0.8 4.2 0.3 8.5 0.4 12.7-0.2 12.8 0.8 25.5-0.1 38.3-1.6 0-4.7 0.3-4.2-2.2q-0.1-23.6-0.1-47.1z"/><path class="b" d="m67.5 1146.3c1.3 0.1 2.6 0.2 3.8 0.5 0.9 4.7 0.3 9.5 0.4 14.2-0.1 5 0.3 10-0.2 14.9-0.1 2-2.7 1.3-3.9 2-0.5-10.5-0.4-21.1-0.1-31.6z"/><path class="b" d="m89 1152c0.1-2.2-0.2-6.2 3.1-5.7 1.6 1.5 1.2 3.7 1.2 5.7-0.2 7 0 14 0 21-0.1 1.4 0.3 3.1-0.6 4.3q-1.7 0.4-3.4 0.7c-1-8.7-0.2-17.4-0.3-26z"/><path class="b" d="m594.8 1157c0.1-3.5-0.3-7.1 0.9-10.5 0.6 0 2 0.1 2.6 0.1 0.8 3 0.6 6.2 0.7 9.4 0 7.2 0.6 14.4-0.4 21.6q-1.7 0-3.5 0.1c-0.7-6.9-0.1-13.8-0.3-20.7z"/><path class="b" d="m616.5 1147.1q1.9-0.6 3.8-1c0.7 8.3 0.2 16.6 0.4 24.9-0.1 2.1 0.3 4.3-0.7 6.3q-1.8 0-3.7-0.1c0.3-10-0.5-20.1 0.2-30.1z"/><path class="b" d="m229.5 1351.7c10.1-0.6 20.3-0.1 30.5-0.2 63.3-0.1 126.6 0.1 189.9-0.2 7-0.3 14.6 2.1 18.6 8.1 6.1 8.5 5.3 21.4-2.5 28.6-3.6 3.8-9 5.1-14.1 5.2-72.9 0.2-146-0.1-218.9 0.1-5.7 0.2-11.5-1.7-15.3-5.9-8.6-8.3-7.8-23.8 1.4-31.3 2.9-2.4 6.6-3.9 10.4-4.4zm-1.3 4.7c-3.3 0.7-6.1 2.9-8.3 5.5-6.2 6.9-4.8 19.2 3.1 24.2 3.8 2.6 8.6 2.7 13 2.7 71.7-0.1 143.4-0.1 215-0.1 5 0.2 9.9-1.9 13.1-5.7 6.4-6.9 5.1-19.1-2.7-24.3-5.3-4-12.3-2.8-18.4-2.9-60.7 0.1-121.4 0.3-182 0.1-10.9 0.5-21.9-0.7-32.8 0.5z"/><path class="b" d="m100.3 1439.3c11.9-13.3 30.5-18.4 47.8-18.7 23.3-0.3 46.6 0.1 69.9-0.1 84 0.1 168 0 252 0.1 23.7 0 47.4-0.3 71 0 16.1 0.3 33.1 4 45.5 14.9 9.3 8.3 15 19.9 19.6 31.3 3.3 7.8 7.5 15.4 9 23.9-0.9 0.3-2.6 0.8-3.4 1-4.1-10.5-8.7-20.8-13.1-31.1-5.4-11.8-13.7-22.8-25.6-28.6-11.1-5.4-23.7-6.9-36-6.8-74.7 0-149.4 0-224 0-14.4-0.5-28.7 0.3-43 0-39.7 0-79.4-0.1-119 0.1-16.2 0.1-33.6 3.6-45.4 15.5-8.2 8.1-12.9 18.8-17.8 29.1-3.4 7.2-6.3 14.5-9.6 21.8-0.8-0.3-2.5-0.8-3.3-1 1.5-7.9 5.4-15.1 8.6-22.3 4.8-10.1 9.5-20.5 16.8-29.1z"/><path class="b" d="m278.1 1441.8c6.6-7.8 18.1-10.8 27.9-7.8 4.5 1.2 8.3 4 12 6.8-0.8 1.2-1.2 3-3 3.1-4.6-2.2-8.7-5.9-14-6.2-7.4-1.2-14.3 2.6-20 6.9q-1.4-1.4-2.9-2.8z"/><path class="b" d="m285.7 1449c5.5-7 17-8.7 23.4-2.1 1.9 1.8-0.3 3.7-1.7 4.8-2.9-1.8-5.8-4.3-9.3-4.2-3.6 0-6.4 2.5-9.8 3.3q-1.3-0.9-2.6-1.8z"/><path class="b" d="m296.4 1453.5c1.8-0.6 4.8-0.6 5.4 1.7 0.6 1.6 0.6 3.5-0.5 5-2 1.1-5.5 1.3-6.6-1.2-0.7-1.9-0.2-4.5 1.7-5.5z"/><path class="b" d="m229.4 1459.8q0.1-3.1 0.2-6.1c9.7 0.1 19.5 0 29.2 0.2q-0.1 3-0.1 6-5.5 0.2-11 0c-0.1 10.3 0.1 20.6 0 31q-3.7-0.1-7.3-0.1 0.1-15.3-0.1-30.6-5.4-0.1-10.9-0.4z"/><path class="b" d="m263.6 1453.7q3.5 0.1 7 0.2c-0.1 4.3-0.1 8.6-0.2 12.8 2.9-1.8 6-3.7 9.5-3 3.9 0.3 7.4 3.5 7.7 7.4 0.5 6.6 0.1 13.1 0.3 19.7q-3.6 0.2-7.1 0.4c-0.2-6.3 0.3-12.6-0.3-18.9-0.2-3-3.9-4.1-6.3-3-2.7 0.9-3.7 4-3.8 6.7-0.2 4.9 0 9.9 0 14.9q-3.4-0.1-6.8-0.1c-0.1-12.4-0.1-24.7-0.1-37.1z"/><path class="b" d="m340.1 1453.8q3.5-0.1 7-0.1c0.1 6.5 0 12.9-0.1 19.3 2.9-2.7 5.6-5.7 8.1-8.8q4.2 0 8.5 0-4.3 5-8.7 9.9c3.1 5.7 6.6 11.2 9.9 16.8q-3.9-0.1-7.8-0.1c-2.2-4-4.3-8.1-6.4-12.3-1.1 1.2-2.6 2.2-3.3 3.7-0.5 2.8-0.2 5.7-0.2 8.6q-3.5 0.1-7 0.1c0-12.4-0.5-24.7 0-37.1z"/><path class="b" d="m368.8 1453.8q3.7 0 7.3 0c4.8 8 9.8 16 14.9 23.9 0.2-7.9 0.1-15.9 0.1-23.9q3.4 0.2 6.7 0.3 0 18.4 0.1 36.7-3.8-0.1-7.5-0.1-7-11.9-14.6-23.4c-0.1 7.9 0 15.8 0.1 23.7q-3.6 0-7.1 0c-0.1-12.4 0-24.8 0-37.2z"/><path class="b" d="m454.3 1454q3.3-0.1 6.6-0.2c0 12.4 0.3 24.8 0.2 37.2q-3.2-0.1-6.3-0.1c-0.1-0.7-0.2-2.1-0.2-2.9-3.9 3.7-10.5 4.8-14.7 1-4.9-4.1-5.3-11.3-4-17.2 1-4.6 5.4-8.2 10.1-8.3 2.9 0.1 5.6 1.5 8.2 2.5q0-6 0.1-12zm-7.9 15.3c-4.5 1.9-4.2 7.7-3.7 11.7 0.4 4.1 5.9 6.5 9 3.7 3-2.9 3-7.8 2.1-11.6-0.7-3.1-4.5-5.6-7.4-3.8z"/><path class="b" d="m294.9 1464.2q3.4 0 6.9 0.1c0.1 8.8-0.1 17.7-0.1 26.5q-3.3 0-6.7 0c-0.1-8.9-0.3-17.7-0.1-26.6z"/><path class="b" d="m309.1 1464.1q3.1 0.1 6.3 0.1c0 0.7 0.1 2.2 0.2 2.9 2.8-1.7 5.8-3.9 9.3-3.4 3.6 0.1 7.6 2.3 8 6.2 0.9 6.9 0.1 13.9 0.2 20.9q-3.5 0-6.9 0c0-4.9 0.2-9.9 0.1-14.8-0.1-2.2 0-4.8-1.7-6.4-2-1-4.2-0.3-6.2-0.3-4.1 6.5-2 14.4-2.2 21.6q-3.5 0-7.1 0c0.2-8.9-0.1-17.8 0-26.8z"/><path class="b" d="m412.3 1464.4c6-2.4 13.6-0.4 17 5.3 4.6 7.1 1.4 18.9-7.3 21.2-5.7 1.4-13.3-0.1-16.1-5.8-3.8-7-1.6-17.7 6.4-20.7zm4.1 5.1c-5.5 1.2-6.1 8-4.3 12.4 1.2 3.1 5 4.8 8.1 3.4 4-2.1 4.7-7.3 3.5-11.3-0.6-3.2-4.2-5.2-7.3-4.5z"/><path class="b" d="m466.4 1473.8c0.8-5.6 5.9-10.5 11.7-10.4 4.5-0.2 9 2.3 11.1 6.2 1.6 3.1 1.6 6.6 1.9 9.9-6-0.1-12.1-0.2-18.1 0 0.4 2.8 1.7 6.1 5 6.7 2.8 1.2 4.5-1.9 6.2-3.5q3.4 0.3 6.8 0.8c-1.6 2.7-3.2 5.9-6.4 7-4.8 1.6-10.8 1.3-14.8-2.2-3.7-3.8-4.2-9.5-3.4-14.5zm6.7 1.5q5.7 0 11.5-0.1c-0.7-2.8-2-6.6-5.6-6.4-3.6 0-5.5 3.3-5.9 6.5z"/><path class="c" d="m162 13.8c20.3 0.1 40.6-0.6 60.9-0.7 14.3-0.1 28.6 1.4 42.9 1.7 6 0.1 13 1.2 16.6 6.7 5.7 7.6 4.1 17.6 4.2 26.5-0.4 13.1 0.5 26.2-0.4 39.3-3 1.1-6.2 0.3-9.2 0.3-36.3-2.5-72.7-3.1-109-1.1-7.9 0.2-15.8 1.1-23.8 0.9 0.1-17.5 0.3-34.9 0.4-52.4-0.5-7.7 4-14.9 10-19.3 2.1-1.7 4.9-1.8 7.4-1.9z"/><path class="c" d="m146.7 90.8c21.4-1 42.9-1.8 64.3-1.9 24.3 0.3 48.6 1.2 72.8 2.5-0.5 4.3-0.6 8.7 0.2 12.9-45.8-3.1-91.8-3.2-137.7-0.3 0.9-4.3 1.1-8.8 0.4-13.2z"/><path class="c" d="m165.9 106.3c40-1.7 80-1.2 119.9 1.8-0.2 6.4 0.4 12.9-1.2 19.2-38.6-2.7-77.4-3.5-116-1.5-8.1 0.4-16.1 1.1-24.1 0.9q-0.2-9.5-0.3-19c7.2-0.8 14.5-1.1 21.7-1.4z"/><path class="c" d="m147 130.3c31.6-1.7 63.3-2.7 95-1.3q20.3 0.3 40.5 1.7c-0.3 4.3-0.2 8.7 0.9 13-10.5-0.9-20.9-1.4-31.4-1.8-27-0.7-54.1-1.2-81.1 0.1-8.1 0.4-16.1 0.8-24.2 1 1-4.2 1-8.5 0.3-12.7z"/><path class="c" d="m284.3 139.7q1.3-0.1 2.6-0.1h0.2q1.1 2.3 2.3 4.6c0.4 3.2 0.3 6.5 0.3 9.8-0.2 30.4-0.4 60.8-0.5 91.2-0.2-4-0.3-8.1-0.3-12.2 0-28-0.2-56 0-84.1q-1.7-0.7-3.5-1.4c-0.4 88.5-1.5 177-2.2 265.5-0.2 29.4-0.8 58.8-0.5 88.3-8.9 0.4-17.8 1.2-26.7 1.6-23.6 1.3-47.3 0.9-70.9 0.5-14.7-0.1-29.2-1.9-43.8-2.9 0.3-45.5 0.9-91 1.4-136.5-0.2-20.3 0.5-40.7 0.6-61 0.3-51.9 1.2-103.9 1.4-155.8 8.7-1.3 17.5-1.3 26.3-1.8 27.7-1.2 55.4-0.6 83.1 0.1 11.1 0.1 22.2 1.8 33.4 1.3q-0.5-0.7-0.9-1.5c0.4-0.1 1.3-0.5 1.8-0.7q-0.7-2.2-1.4-4.4c-0.7-0.1-2.1-0.4-2.7-0.5z"/><path class="c" d="m136.8 462.6c0.9 9.1 0.3 18.3 0.5 27.4 0 4.6 0.5 9.4-1 13.9 0.6-13.7 0.1-27.5 0.5-41.3z"/><path class="c" d="m405.5 478.6c15.8-2 31.6-2 47.5-2.5 18.7-0.6 37.4 0.1 56.2 0.7 15.8 0.8 31.7 1.2 47.4 3.9-7.1 1.6-14.4 0.8-21.6 1.5-25.3 1.4-50.7 0.8-76 0.5-17.9-0.7-35.8-1.4-53.5-4.1z"/><path class="c" d="m396.2 499.4c-0.1-5.9-0.2-11.9 0.3-17.9 8.3 2.3 16.9 2.6 25.5 3.6 23.2 1.9 46.6 2.3 70 2.4 24.2-0.2 48.5-0.3 72.6-3.2 0.4 5.3 0.3 10.7 0 16-24.7 3.3-49.7 3.4-74.7 3.7-31.3-0.1-62.6-1.2-93.7-4.6z"/><path class="c" d="m391.3 503c23.4 3.1 47.1 4.5 70.7 4.9 27.5 1 55 0.4 82.5-1.1 8-0.5 16.1-1.1 24-2.3 0.5 9.1-0.1 18.2-0.1 27.3-0.4 21.5-0.1 42.9-0.6 64.3 0.3 4.7-5.1 6.5-8.9 7.3-23.5 2.9-47.2 3.1-70.9 3.3-27.4 0.2-54.9-0.4-82-4.7-5.6-1.2-11.7-2-16.4-5.6-1.5-3.5-0.5-7.6-0.5-11.4 1.3-27.3 1.1-54.6 2.2-82z"/><path class="c" d="m134.5 526.4c2.2-7.2 3.9-14.6 6.3-21.9 28.2 3.8 56.7 3.8 85.1 3.8 18.1-0.4 36.2-1 54.2-2.8 1.3 0.1 3.8-0.7 3.8 1.4 5.9 20.8 10.9 41.9 17.2 62.6-22.4 0.8-44.8 1.4-67.1 1-30-0.1-60-0.6-90-1.1-7.2-0.2-14.3-0.7-21.4-1 4.5-13.9 7.6-28.1 11.9-42z"/><path class="c" d="m121.3 576c0.3-1.1-0.3-3.6 1.5-3.2 43.1 1.9 86.1 2.3 129.2 2.3 16.6-0.3 33.3-0.5 49.9-1.5-0.3 21.6-1.8 43.2-1.6 64.8-5.2 3.1-11.4 3.7-17.3 4.6-11.6 1.4-23.3 1.9-35 1.8-24.7 0.2-49.3 0.3-74-0.8-17.7-0.7-35.5-1.4-52.8-5.6 0.2-20.8 0-41.6 0.1-62.4z"/><path class="c" d="m396.2 604.7c20 4.1 40.4 5.7 60.8 6.1 25 0.5 50 0.4 75-0.7 9.9-0.6 19.8-1.1 29.5-2.6 0.4 9.4 0.1 18.9-0.2 28.4 0.3 2.3-2.6 2.5-4.2 2.9-9.3 1.5-18.8 1.8-28.2 2.6-37.3 2-74.8 2.3-112-1.8-7.2-0.8-14.3-2-21.2-4.2 0.1-10.3 0.1-20.5 0.5-30.7z"/><path class="c" d="m388.9 644.9c5.3-0.8 10.6-2 16-2.2 43.8 5.5 88.1 5.6 132.1 2.5 9.4-0.6 19.1-2.7 28.4-0.1-25.5 4.1-51.5 3.9-77.4 4.3-11 0-22-0.3-33-0.3-22.1-0.8-44.3-0.9-66.1-4.2z"/><path class="c" d="m113.5 648.5c2.8-0.9 5.7 0 8.5 0.4 12.9 2.6 26 3.2 39 4.2 37.6 2.3 75.4 2.5 113-0.4 9.7-0.8 19.3-2.2 28.9-3.4 5.4-1.2 10.5 2 14 5.7 0.2 3.1-0.2 6.1-0.5 9.2-3.9-4.1-7.3-8.6-11.3-12.6-0.6 0.1-1.8 0.3-2.5 0.3-0.7 2.4 1.3 4.2 2.7 5.9 2.8 3.2 5.7 6.5 8 10.2-9.4 1.8-18.9 3.1-28.3 4.9-22.1 2.8-44.3 5.3-66.6 5.2 0.2-6.9-0.5-14 1.2-20.8-1.7-0.3-3.4-0.3-5.1 0.1-0.7 7-0.5 14-0.2 21q-3.9-0.1-7.7-0.2c0-6.1 0.6-12.2 0-18.3 0-2.1-3-5.3-4-1.9 0.2 6.6 0.4 13.3 0 20-23.4-0.6-46.6-2.8-69.7-6.5-8.1-1.2-16.1-3.4-24.4-4.2 4.2-4.5 9.1-8.2 12.5-13.3q-1.4-1.1-2.7-2.2c-3.6 3.4-6.8 7.2-10.6 10.4-0.2-2.3-0.5-4.6-0.3-6.9 1.2-2.9 3.4-5.4 6.1-6.8z"/><path class="c" d="m375.4 649.4c1.2-1.2 2.8-2.2 4.5-1.6 23.1 4.4 46.6 4.8 70 5.4 22.4 0.8 44.8 0.3 67.2 0 14.4-0.3 28.8-1.2 43.2-2.8 5.1-0.5 10.1-2.1 15.2-1.9 3.7 3 5.5 7.8 5 12.5-4.1-2.8-7.1-6.7-10.5-10.2-0.7 0.2-2.1 0.5-2.8 0.6 0.1 0.6 0.2 1.6 0.2 2.1 3.8 4 7.3 8.3 11.4 12.1-2.9 0.9-5.8 1.8-8.8 2.3-28.5 5.2-57.4 7.9-86.4 8.7-0.1-6.6 0.3-13.1 0.5-19.6 0.1-2.1-2.4-1.6-3.7-2-1.4 7.2-0.9 14.5-1.1 21.9q-3.5-0.1-6.9-0.1c0-7.1 0.6-14.3-0.6-21.4-0.8-0.2-2.5-0.7-3.3-0.9-1.1 7.3 0.2 14.7-0.1 22.1-31.8-1.2-63.7-3.9-95-10.5 3.7-3.9 8.1-7.1 10.9-11.8 1.4-1.5-0.8-2.9-1.3-4.3-3.8 3.8-7 8.3-11.3 11.7-0.5-4.4 0.2-9.3 3.7-12.3z"/><path class="c" d="m603.6 652.2c7.4-3.1 15.5-1.1 22.6 1.5 11.1 4.3 20.1 12.8 26.4 22.7 5 7.9 6.5 17.4 6.8 26.6 0.2 9.1 2.1 18 3.5 27-7.2 6.5-10.3 16.5-9.8 26 0.3 8 3 16.6 10.3 20.9-0.2 115.1-1.3 230.1-1.4 345.1-0.2 51-0.6 102-0.5 153 0.1 30.3-0.5 60.7-0.1 91-0.1 12.7 1.4 25.3 1.9 38 0.7 12.3-0.7 24.7-0.9 37-0.8 10.7-0.5 21.4-1.4 32-1.3 15.5-11.3 30.2-25.8 36.2-9.8 4.3-20.7 4.3-31.1 4.5-28.7 0.2-57.4 0.1-86.1 0.2-26 0.3-52-0.3-78 0.1-23-0.5-46 0.4-69.1-0.1-15-0.2-29.9 0.5-44.9 0-24.4 0.2-48.7-0.4-73 0.2-28.7-0.5-57.4-0.2-86.1-0.2-23-0.2-46 0.4-69-0.2-10 0-20 0.2-30-0.6-11.4-0.9-21.4-7.7-29.1-15.8-4.6-4.9-7.9-11-9.6-17.6-2.1-7.3-1.4-15-1.8-22.5-1.4-26.1-1.7-52.3-3-78.3-1.1-24 0.1-48-0.3-71.9 0.2-82.3 0.2-164.7 0.4-247-0.3-42 0.3-84 0.2-126-0.2-21.7 0-43.4 0.1-65 0-55-0.1-110 2.2-165 0.4-5.8 0.3-11.8 1.5-17.6 1.9-8.2 7.5-14.8 13.5-20.4 6.7-6.2 14.8-11.2 24-12.8 7-1.5 14.2-0.8 21.2 0.5 0.9 1.6 1.1 4 3.2 4.5 4.3 0.9 8.7 0.6 12.9 1.6 0.9 3 0.3 6.4 1.5 9.3 1.6 3 5.4 2.9 8.3 3.7 23.8 4 47.8 7.5 71.9 8.8 43 3 86.2-1.1 128.4-9.1 2.3-0.7 5.5-0.9 6.5-3.6 1.2-3.6 0.9-7.6 1.1-11.4 5.5 0.7 11.1 1.3 16.7 1.9 5.4 0.7 10.8 2.6 16.3 1.8 4.4-0.6 8.7-1.6 13.1-2.2q-0.4 5.7 0.3 11.4c15.2 2 30.3 5.1 45.6 6.5 25.9 3 51.9 4.6 78 3.9 29.5-1.3 59-4.1 87.9-10.1 1.2-0.2 2.5-0.5 2.9-1.8 1.9-3 2.9-6.6 3.6-10 5.4-0.4 10.9-0.4 16-2.4 0.9-1.3 1.5-2.8 2.2-4.3zm-11.3 18.1c-15.8 6.3-33.1 7.9-49.9 9.6 0.3 1.5 0.2 4.1 2.6 3.8 7.7-0.2 15.4-1.4 23-2.5 12.4-1.7 24.5-5.8 35.8-11.2q-0.4-1.9-1-3.6c-3.9-0.2-7 2.6-10.5 3.9zm-1.6 14.3c-4.4 0.7-8.3 3.3-10.2 7.3 1.3 2.4 2.6 5.1 5.1 6.4 7.1 4 15.4 5.2 23.4 5.4 6.6 0.1 13.6-0.8 19.2-4.5 2.8-1.8 3.4-6.1 1.1-8.6-2.5-2.8-6.3-4.1-9.9-5.1-9.4-2.2-19.3-3-28.7-0.9zm-236.3 3.9c-2.8 0.6-5.4 2.4-6.8 4.9-1.4 3.3-1 7-1.1 10.6 0.1 10-0.4 20-0.2 30-0.1 6.6 3.6 13.2 9.6 16.1 5.6 2.7 12.6 3 18.1-0.1 5.5-2.9 9.5-8.6 9.8-14.9 0.6-10.3 0.2-20.7 0.2-31.1-0.2-4.4 0-9.4-3-12.9-3.2-3-7.9-2.9-11.9-3-4.9 0.1-9.8-0.4-14.7 0.4zm43.8-0.1c-4.4 0.8-6.9 5.4-6.8 9.6-0.2 12-0.2 24-0.1 36.1-0.3 7.6 5.1 15.1 12.6 16.9 5.6 1.4 12 1.3 16.9-2.1 4.6-3 7.5-8.3 7.8-13.8 0.5-10.7 0.2-21.4 0.2-32.1-0.1-4.1 0.1-8.8-2.8-12.1-2.7-3.2-7.3-2.5-11-2.7-5.6 0.1-11.2-0.6-16.8 0.2zm-135.9 1.1c-4.3 1.5-5.6 6.4-5.7 10.5-0.2 11-0.2 22-0.2 33-0.2 5.2 1.3 10.7 5.1 14.4 7.8 7.7 22.2 6.7 28.9-2 2.9-3.8 3.7-8.7 3.8-13.4 0.2-10.4 0.2-20.7 0.1-31.1 0-3.5-0.4-7.5-3.3-9.8-3.2-3.1-7.9-2.6-12-2.6-5.5 0.2-11.3-0.4-16.7 1zm46-0.1c-4.4 0.9-7.1 5.3-6.8 9.6q0.1 17 0 34c0 5.2 1.6 10.5 5.3 14.2 6.6 7.2 18.9 6.9 26.1 0.7 4.6-3.9 6.7-10 6.5-15.9-0.1-10.3-0.1-20.7-0.1-31 0.1-3.6-0.4-7.7-3.4-10-4-2.8-9.3-2.6-14-2.5-4.5 0.2-9.2-0.1-13.6 0.9zm134.9 0c-3.2 0.7-5.5 3.7-5.6 7-0.6 9.5-0.2 19.1-0.5 28.6-0.2 6.2-0.8 12.9 2.3 18.5 4.2 7.7 14.5 10.5 22.6 8.2 6.7-2.1 11.3-8.2 14.1-14.5 5-10.9 10.4-21.7 15.4-32.6 1.7-4 3.1-8.9 0.7-12.9-1.7-2.9-5.4-2.6-8.3-2.9-7.9-0.2-15.9 0.1-23.9 0-5.6 0.1-11.3-0.6-16.8 0.6zm-244.9 1c-2.2 0.6-4.2 2.2-4.5 4.6-0.7 4.4 0.8 8.7 2.5 12.7 5.1 11.4 10.6 22.7 15.9 34.1 2.5 5.5 7.3 10.7 13.7 11.3 6.5 0.6 13.9-0.7 18.3-6 3.6-3.7 4.8-9.1 4.8-14.2 0.1-10-0.1-20 0.2-29.9 0.1-3.7 0.2-7.9-2.5-10.8-2.2-2.4-5.7-2.3-8.7-2.4-9.3-0.1-18.7 0-28-0.1-3.9 0-7.9-0.3-11.7 0.7zm-32.9 98.1c-13.3 1.5-26.3 6.6-36.6 15.2-6.7 5.7-13.2 12-17.4 19.8-3.9 7-6.9 14.5-8.3 22.5-2.1 9.5-1.2 19.3-1.3 29 0 24-0.3 48-0.3 72 0.2 85.7-0.3 171.4-0.2 257.1 0.6 13.6 5.6 26.9 13.9 37.7 8 11.1 20 18.8 32.8 23.2 12.3 4 25.3 3.2 38 3.2 85.7 0 171.4 0 257 0 25.4-0.2 50.7 0.4 76-0.4 17.8-0.4 34.8-9.2 46.8-22.1 11.3-12.3 17.8-29 17.5-45.7 0.1-114 0.4-228 0.5-342 0.4-22.3-9.9-45.4-28.8-58-12.6-9.2-28.5-13.2-44-12.4q-135.5 0.1-271 0.6c-24.9 0.2-49.8-0.5-74.6 0.3zm-87.7 91c-0.3 11.2-0.2 22.3-0.2 33.5 0.2 6.3-0.3 12.5 0.3 18.8q2-0.1 3.9-0.2c0.3-17.3 0.5-34.5 0-51.8q-2-0.1-4-0.3zm528.8 0.4c-0.1 17.2-0.1 34.5 0 51.7q2.1 0 4.2 0.1c0.5-17.3-0.1-34.7 0.1-52q-2.2 0.1-4.3 0.2zm-538.9 10.7c-0.7 5.4-0.2 10.9-0.3 16.4 0.1 4.5-0.4 9 0.3 13.4 1.1 1.8 4.4 0.8 4.1-1.4 0.2-9.7 0-19.5 0-29.2-1.4 0-3-0.5-4.1 0.8zm21.6 0.5c-0.9 4.9 0 9.9-0.1 14.9 0.3 4.6-0.5 9.2 0.1 13.8 0.5 2.5 4.7 1.9 4.3-0.8 0-9.5-0.4-19.1 0.1-28.7-1.6-0.1-4.3-2-4.4 0.8zm505.7 0.9c-0.5 9.5 0.2 19.1-0.3 28.6 0.6 0.1 1.9 0.4 2.5 0.5 2.2-0.2 1.8-2.6 2-4.1 0.1-7-0.1-14 0.2-21-0.2-2.2 0.5-4.8-1.3-6.4-1.6-0.2-3.4 0.4-3.1 2.4zm22.3-1.9c-1.4 1.1-0.7 3.3-0.9 4.9 0.2 8-0.1 16 0.1 24-0.1 2.6 4.9 3 4.3 0 0.1-8.7 0.1-17.4 0-26.1 0.4-1.9-1.6-4.6-3.5-2.8zm-539.7 115.4c-0.4 16.9 0 33.8 0 50.8 0.8 0.4 2.3 1.1 3 1.5 0.5-1.2 1.1-2.4 1.2-3.7 0.5-16.3 0.3-32.5-0.2-48.7q-2 0-4 0.1zm529 0c-0.5 17.1-0.1 34.2-0.1 51.3q2.1 0 4.3 0c0.2-17.2 0.6-34.3-0.1-51.4q-2.1 0-4.1 0.1zm-539.1 9.8c-0.2 7.9 0 15.8-0.2 23.7 0 2.5 0 5 0.6 7.4q2-0.2 3.9-0.2c-0.2-10.4 0-20.7-0.1-31.1q-2.1 0.1-4.2 0.2zm22-0.2c-0.5 8.3-0.1 16.6-0.6 24.9 0.1 1.8-0.3 3.9 0.6 5.6 0.3 1.6 4.1 1.3 3.7-0.6 0.5-6.3-0.1-12.7 0.1-19-0.1-3.5 0.6-7.1-0.4-10.4q-1.7-0.4-3.4-0.5zm505.9 1.9c-0.8 9.7-0.3 19.5-0.5 29.2 0.9 0.1 2.8 0.4 3.8 0.5 0.5-3.2 0.8-6.5 0.6-9.8-0.3-7.3 0.2-14.6-0.4-21.9-1.3 0.5-3.8-0.1-3.5 2zm21.1 0c-0.4 9.7 0.3 19.4-0.1 29.1q1.9 0.2 3.9 0.3c1-4.4 0.4-9 0.5-13.4-0.2-5.3 0.3-10.7-0.1-16 0.4-2.6-4.7-2.6-4.2 0zm-9.9 121.9c-0.2 14.7 0 29.4-0.3 44 0.3 1.9-0.6 4.4 1.4 5.6 1.5 0.4 3.4-0.7 3.1-2.5 0.3-10.3-0.1-20.7 0.1-31-0.2-6.4 0.7-13-0.8-19.3-1.5 0.7-3.8 1-3.5 3.2zm-529.1 0.1q0 23.5 0.1 47.1c-0.5 2.5 2.6 2.1 4.2 2.2 0.9-12.8-0.1-25.5 0.1-38.3-0.1-4.2 0.3-8.5-0.4-12.7-1.4-2.1-4.5-0.7-4 1.7zm-9.9 7.2c-0.3 10.6-0.4 21.2 0.1 31.7 1.2-0.7 3.8 0 3.9-2 0.5-4.9 0.1-9.9 0.2-14.9-0.1-4.8 0.5-9.6-0.4-14.3-1.2-0.2-2.5-0.3-3.8-0.5zm21.5 5.8c0.1 8.6-0.7 17.3 0.3 26q1.7-0.3 3.4-0.7c0.9-1.2 0.5-2.9 0.6-4.3 0-7-0.2-14 0-21 0-2 0.4-4.2-1.2-5.7-3.3-0.5-3 3.5-3.1 5.7zm505.8 5c0.2 6.9-0.4 13.8 0.3 20.7q1.8-0.1 3.5-0.1c1-7.2 0.4-14.4 0.4-21.6-0.1-3.2 0.1-6.4-0.7-9.4-0.6 0-2-0.1-2.6-0.1-1.2 3.4-0.9 7-0.9 10.5zm21.7-9.9c-0.7 10 0.1 20.1-0.2 30.1q1.9 0.1 3.7 0.1c1-2 0.6-4.2 0.7-6.3-0.2-8.3 0.3-16.6-0.4-24.9q-1.9 0.4-3.8 1zm-387 204.6c-3.8 0.5-7.5 2-10.5 4.4-9.1 7.5-10 23-1.3 31.3 3.8 4.2 9.6 6.1 15.3 5.9 72.9-0.2 146 0.1 218.9-0.1 5.1-0.1 10.5-1.4 14.1-5.2 7.8-7.2 8.6-20.1 2.5-28.6-4-6-11.6-8.4-18.6-8.1-63.3 0.3-126.6 0.1-189.9 0.2-10.2 0.1-20.4-0.4-30.5 0.2zm-129.2 87.6c-7.3 8.6-12 19-16.9 29.1-3.1 7.2-7 14.4-8.5 22.3 0.8 0.2 2.5 0.7 3.3 1 3.2-7.3 6.2-14.6 9.6-21.8 4.9-10.3 9.6-21 17.8-29.1 11.8-11.9 29.2-15.4 45.4-15.5 39.6-0.2 79.3-0.1 119-0.1 14.3 0.3 28.6-0.5 43 0 74.6 0 149.3 0 224 0 12.3-0.2 24.9 1.3 36 6.8 11.9 5.8 20.2 16.8 25.6 28.5 4.4 10.4 9 20.7 13.1 31.2 0.8-0.2 2.5-0.7 3.4-1-1.5-8.5-5.7-16.1-9-24-4.7-11.3-10.3-22.9-19.6-31.2-12.4-10.9-29.4-14.6-45.5-14.9-23.6-0.3-47.3 0-71 0-84-0.1-168 0-252-0.1-23.3 0.2-46.6-0.2-69.9 0.1-17.3 0.3-35.9 5.4-47.8 18.7zm177.8 2.5q1.5 1.4 2.9 2.8c5.7-4.4 12.6-8.1 20-6.9 5.3 0.3 9.4 4 14 6.2 1.8-0.1 2.2-2 3-3.1-3.7-2.8-7.5-5.6-12-6.9-9.8-2.9-21.3 0.1-27.9 7.9zm7.6 7.2q1.3 0.9 2.6 1.8c3.4-0.8 6.2-3.3 9.8-3.3 3.5-0.1 6.4 2.4 9.3 4.2 1.4-1.1 3.6-3 1.7-4.8-6.4-6.6-17.9-4.9-23.4 2.1zm10.7 4.5c-1.9 1-2.4 3.6-1.7 5.5 1.1 2.5 4.6 2.2 6.6 1.2 1.1-1.5 1.1-3.4 0.5-5-0.6-2.3-3.6-2.3-5.4-1.7zm-67 6.3q5.5 0.3 10.9 0.4 0.2 15.3 0.1 30.6 3.6 0 7.3 0.1c0.1-10.4-0.1-20.7 0-31q5.5 0.2 11 0 0-3 0.1-6c-9.7-0.2-19.5-0.1-29.2-0.2q-0.1 3-0.2 6.1zm34.1-6.1c0 12.4 0 24.7 0.1 37.1q3.4 0 6.8 0.1c0-5-0.2-10 0-14.9 0.1-2.7 1.1-5.8 3.8-6.7 2.4-1.1 6.1 0 6.3 3 0.6 6.3 0.1 12.6 0.3 18.9q3.5-0.2 7.1-0.4c-0.2-6.6 0.2-13.1-0.3-19.7-0.3-3.9-3.8-7.1-7.7-7.4-3.5-0.7-6.6 1.2-9.5 3 0.1-4.3 0.1-8.5 0.2-12.8q-3.5-0.1-7.1-0.2zm76.6 0.1c-0.5 12.4 0 24.7 0 37.1q3.5 0 7-0.1c0-2.9-0.3-5.8 0.2-8.6 0.7-1.5 2.2-2.5 3.3-3.7 2.1 4.2 4.2 8.2 6.4 12.3q3.9 0 7.8 0.1c-3.3-5.6-6.8-11.1-9.9-16.8q4.4-4.9 8.7-9.9-4.3 0-8.5 0c-2.5 3.1-5.2 6.1-8.1 8.8 0.1-6.4 0.2-12.8 0.1-19.3q-3.5 0-7 0.1zm28.7 0c0 12.4-0.1 24.8 0 37.2q3.5 0 7 0c0-7.9-0.1-15.8 0-23.7q7.6 11.5 14.6 23.4 3.7 0 7.5 0.1-0.1-18.3-0.1-36.7-3.3-0.1-6.7-0.3c0 8 0.1 16-0.1 23.9-5.1-7.9-10.1-15.9-14.9-23.9q-3.6 0-7.3 0zm85.5 0.2q-0.1 6-0.1 12c-2.6-1.1-5.3-2.4-8.2-2.5-4.7 0.1-9.1 3.7-10.1 8.3-1.3 5.9-0.9 13.1 4 17.2 4.2 3.8 10.8 2.7 14.7-1 0 0.8 0.1 2.2 0.2 2.9q3.1 0 6.3 0.1c0.1-12.4-0.2-24.8-0.2-37.2q-3.3 0.1-6.6 0.2zm-159.4 10.2c-0.2 8.9-0.1 17.7 0.1 26.6q3.4 0 6.7 0c0-8.8 0.1-17.7 0.1-26.5q-3.5-0.1-6.9-0.1zm14.2-0.1c-0.1 8.9 0.2 17.9 0 26.8q3.6 0 7.1 0c0.2-7.2-1.9-15.1 2.2-21.6 2 0 4.2-0.7 6.2 0.3 1.7 1.6 1.6 4.2 1.7 6.4 0.1 4.9-0.1 9.9-0.1 14.8q3.4 0 6.9 0c-0.1-7 0.7-14-0.2-20.9-0.4-4-4.4-6.1-8-6.2-3.5-0.5-6.5 1.7-9.3 3.4-0.1-0.7-0.2-2.2-0.2-2.9q-3.2 0-6.3-0.1zm103.2 0.3c-8 3-10.2 13.7-6.5 20.7 2.9 5.7 10.5 7.2 16.2 5.8 8.7-2.3 11.9-14.1 7.3-21.2-3.4-5.7-11-7.7-17-5.3zm54 9.4c-0.7 5-0.2 10.7 3.5 14.5 4 3.5 10 3.8 14.8 2.2 3.2-1.1 4.8-4.3 6.4-7q-3.4-0.5-6.8-0.8c-1.8 1.6-3.4 4.7-6.3 3.5-3.2-0.6-4.5-3.9-4.9-6.7 6-0.3 12.1-0.1 18.1 0-0.3-3.3-0.3-6.8-1.9-9.9-2.1-3.9-6.6-6.4-11.1-6.2-5.8-0.1-11 4.8-11.8 10.4z"/><path class="c" d="m334 654.4c5.1-1.9 10.7-2.1 16-1.3 2.4 0.3 3.6 2.6 5.1 4.3-7.2 0.3-14.1-2.2-21.1-3z"/><path class="c" d="m584.6 692.1c5-3.8 11.5-3.8 17.5-4.1 6.5 0 13.1 0.5 19.3 2.7 2.5 0.7 4.3 2.5 5.9 4.5-8 4.2-17.4 4.5-26.2 3.4-5.9-0.7-12.1-2.3-16.5-6.5z"/><path class="c" d="m354.5 692.7c6.5-0.6 13-0.3 19.5-0.2 3-0.1 5.3 2.8 5.3 5.7 0.5 11.3 0.3 22.6 0.2 33.8 0 4.6-1.4 9.5-5 12.6-6.5 5.7-18.1 3.7-22.1-4-2.4-3.8-2.1-8.4-2.1-12.6 0.2-9.7 0.4-19.4 0.3-29-0.2-2.7 1.2-5.6 3.9-6.3z"/><path class="c" d="m400.3 692.4c6.5-0.5 13.1-0.3 19.6 0.2 2.7 0.1 4.8 2.6 4.6 5.3 0.2 11 0.1 22.1 0.1 33.1 0.4 6.1-2.7 12.5-8.2 15.4-3.6 1.6-7.7 1.2-11.4 0.5-5.8-1.1-9.4-7.3-9.3-12.9-0.1-12-0.3-24 0.1-36-0.2-2.7 1.6-5.5 4.5-5.6z"/><path class="c" d="m264.2 693.4c5.6-0.9 11.2-0.7 16.8-0.6 2.7 0.2 6.1 0 7.8 2.6 1.1 2 0.7 4.4 0.9 6.6-0.1 10.4 0 20.7-0.1 31 0.1 5.8-3.1 11.8-8.5 14.1-6 2.3-13.8 0.9-17.7-4.5-2.8-3.6-2.5-8.3-2.6-12.6 0.2-10-0.1-20 0.3-30.1 0.1-2.4 0.3-5.6 3.1-6.5z"/><path class="c" d="m309.3 693.4c4.1-1.1 8.5-0.3 12.7-0.5 3.2 0.1 6.6-0.4 9.7 0.5 2.9 1.2 2.8 4.9 3 7.6 0.1 10.7 0.3 21.3 0.1 32 0.1 4.2-1.8 8.2-4.6 11.3-7 7.2-22.2 4.1-23.7-6.7-0.7-11.8-0.7-23.8-0.5-35.6 0.2-3-0.3-7.4 3.2-8.6z"/><path class="c" d="m442.6 694.4c1.4-1.5 3.6-1 5.4-1.2 13.3 0 26.7-0.3 40 0.1 1.6 3.2 0.3 6.6-1 9.7q-7.3 16.9-15.6 33.4c-2.3 4.6-5.7 9.2-10.8 10.9-5.1 1.5-11.1 0.8-15.1-2.7-3.5-3.2-4.3-8.2-4.2-12.6 0-8.7 0.4-17.3 0.4-26 0.1-3.9 0-7.8 0.9-11.6z"/><path class="c" d="m198.3 694.5c13.6-0.6 27.2-0.7 40.7-0.6 2.6-0.2 6.2 0.8 5.8 4.1q-0.2 18-0.3 36c0.1 5.5-2.6 11.4-8 13.4-5.2 1.9-11.9 2.3-16.1-1.9-2.7-2.8-4.3-6.4-6-9.8-5.4-10.6-10.2-21.3-14.9-32.2-1.4-2.8-1.4-6-1.2-9z"/><path class="c" d="m658.7 745.9c0.7-3.4 2.5-6.5 4.6-9.3 0.9 11.8 0.3 23.6 0.2 35.4-6.2-7-7-17.3-4.8-26.1z"/><path class="c" d="m235.3 792.5c56.6-0.2 113.1-0.2 169.7-0.3 37-0.2 74 0.2 111-0.4 14.9 0.1 29.5 5.7 41 15.2 13 11.6 21.8 28.4 22.2 46 0.3 35-0.1 70 0 105 0.1 51.7-0.5 103.3-0.4 155q0 43.5 0 87c0 16.9-6.7 34-19.2 45.6-7.6 7.6-17.2 12.9-27.5 15.6-9.8 2.9-20.1 2.2-30.2 2.4-104.9 0.1-209.9 0-314.9 0.1-12.3-0.2-24.9 1-36.7-2.9-10.8-2.8-20.2-9.3-27.8-17.2-7.9-8.1-12.9-18.6-15.3-29.6-2.1-9.5-1.4-19.3-1.5-29 0.1-71 0.4-142 0.2-213 0.5-33 0.2-66 0.6-99 0.2-11-1-22.3 2.6-32.9 6.4-21.6 24.4-39 46-45 10-3.3 20.6-2.4 30.9-2.5 16.4 0 32.9 0 49.3-0.1zm117.1 18c-57.1 0.1-114.3 0.3-171.4 0.3-6.7-0.1-13.5 0.4-19.9 2.4-11.7 3.4-21.5 11.6-28.4 21.4-6.2 9.2-8.3 20.5-8.1 31.4-0.5 103.4-0.2 206.7-0.8 310 0.2 8.9-0.5 17.8 0.7 26.7 1.9 10.3 6 20.7 13.9 27.9 9.7 10 23.7 15.2 37.6 14.7 106.3 0.1 212.6 0 319 0 11.1-0.5 22.8 1.3 33.4-2.9 13.2-5.2 24.9-15.9 29.2-29.7 4.2-11.8 2.7-24.5 3.1-36.7-0.1-43 0.1-86 0.1-129-0.1-61 0.4-122 0.1-183 0.1-9-1.5-18.1-5.8-26.1-7.1-12.9-19.5-23.2-34.1-26.3-4.6-1.1-9.3-1.2-14.1-1.2-51.5 0.1-103 0.1-154.5 0.1z"/><path class="c" d="m179 815.4c105.3 0 210.7-0.4 316-0.6 4.2-0.1 8.4 0 12.6 0.2 0.3 4-1 8.7 1 12.4 4.7 1.4 9.9 0.6 14.5 2.4 8.2 2.5 15 9.1 18 17.1 2.3 5.6 2.4 11.8 3.3 17.8 4.1 0 8.2-0.4 12.2-1.2 0.2 61.2-0.4 122.3-0.3 183.5 0 48.3 0 96.5-0.2 144.7-3.3-0.6-6.7-1.6-10.1-1.3-2.6 0.6-1.9 3.7-2.4 5.7-0.8 10.5-4.6 21.8-13.8 27.8-6.7 4.5-15 4.5-22.6 6q-0.1 5.4 0.2 10.8c-26.2 0.5-52.3 0-78.5 0.2-83.7 0-167.5 0-251.3 0 0.1-3.6 0.4-7.1-0.1-10.6-1.8-1.3-4.4-1-6.5-1.4-8.1-0.7-16.8-3.1-22-9.7-6.1-7.6-9.2-17.3-9.4-26.9-0.4-0.5-1.2-1.4-1.6-1.9-3.3 0.3-6.6 0.6-9.8 1 0.4-29.1 0.2-58.3 0.2-87.4 0.3-80.1 0.3-160.3 0.7-240.4 4 0.8 8.1 1.2 12.2 1 0.9-8.1 1.7-16.8 6.8-23.6 5.3-7.2 14.1-11.3 22.9-12.1 2.7-0.5 5.8-0.1 8.1-1.9 0.3-3.8 0-7.7-0.1-11.6zm165.2 22q-84.6 0.3-169.1 0.1c-7 0.4-13.4 4.6-17.3 10.3-3.3 5.1-2.6 11.4-2.7 17.2-0.5 27.4-0.4 54.7-0.6 82q-0.7 121.5-1.7 242.9c0 5.7 0 11.9 3.4 16.9 4.3 6.6 12.1 10.3 19.8 10.6 106.4 0 212.7-0.1 319 0 7.9-0.1 16.4 1 23.7-2.7 8-4 12.8-12.9 12.5-21.7-0.2-97 0-194 0.2-291-0.2-15.7 0.4-31.4-0.4-47-0.4-10.6-11-18-21-17.8-55.3 0.1-110.5 0.2-165.8 0.2z"/><path class="c" d="m511.9 815c12.1 0.7 24.1 5.7 32.1 14.9 7.4 8 11.3 18.6 12.5 29.3q-4.1 0.5-8.1 1c-0.9-9-3.5-18.2-9.6-25.1-6.5-7.7-16.7-11.4-26.6-11.6q-0.2-4.3-0.3-8.5z"/><path class="c" d="m143.2 829.1c8.4-8.1 19.8-12.6 31.3-13.8q0.1 4.3 0.3 8.7c-11.5 0.4-23.3 5.1-30.1 14.7-4.6 6.1-6.4 13.7-7.4 21.2q-4-0.3-7.9-0.5c0.8-11.4 5.5-22.4 13.8-30.3z"/><path class="c" d="m668.1 869.4c1.4 1.7 3.5 3.3 3.8 5.6-0.6 2.7-2.4 5.2-2.3 8 0.8 2.1 2.1 3.9 3 6-0.9 2-2.1 3.8-2.6 5.9-0.3 2.8 1.7 5 3 7.3-1 2.6-2.5 5-2.9 7.8 0.3 2.5 2 4.7 2.7 7.1-0.6 2.4-2.3 4.4-2.8 6.9 0.1 2.7 1.7 5 2.9 7.3-1.2 2.2-2.5 4.4-3.3 6.8 0.4 2.4 1.9 4.4 2.4 6.7-0.9 2.4-2.7 4.6-2.9 7.2 0.4 1.9 1.4 3.6 2.3 5.3-0.9 1.7-1.9 3.2-3.7 4-0.7-12.4 0-24.9-0.1-37.3 0.1-18.2-0.1-36.4 0.5-54.6z"/><path class="c" d="m666.8 1089c0.2-6.9-0.6-13.9 0.5-20.8 0.9 3.9-0.2 8.6 2.7 11.8 1.5 1.7 2.6 3.7 2.4 6 0.1 24.6 0.2 49.2-0.3 73.8-3.9 3.1-4.9 8-5.7 12.6 0.3-27.8 0.3-55.6 0.4-83.4z"/><path class="c" d="m665.7 1212.1c0.4-9.9-0.5-19.8 0.6-29.6 0.2 14.6-0.1 29.2 0.1 43.8-0.2-0.1-0.5-0.3-0.7-0.5-0.3-4.5 0.1-9.1 0-13.7z"/><path class="c" d="m547.9 1194.3q4.3 0.6 8.6 1.3c-0.4 16-9.1 31.9-23.2 39.7-6.5 3.9-14.2 5.3-21.6 5.7q-0.2-3.7-0.4-7.4c9-0.4 18.2-2.9 24.9-9.3 8.7-7.3 11.3-19.1 11.7-30z"/><path class="c" d="m128 1195.8q3.9-0.6 7.7-1.1c0.2 12.1 5.2 24.9 15.3 32.2 6.5 4.6 14.5 5.9 22.2 6.9 0.2 2.4 0.2 4.7 0.1 7.1-6.2-0.5-12.5-1.5-18.3-3.9-10.6-4.9-18.9-14-23.5-24.6-2.2-5.3-2.9-11-3.5-16.6z"/><path class="c" d="m666.4 1232.6c0.8 4 1.6 8 2.9 11.9q2.1 1 4.1 2c0.8 5.1 0.9 10.3 0.6 15.5-0.5 20.3 0 40.7-0.4 61 0.4 3.6-4.4 4.2-5.1 7.4-0.9 2.6-1.5 5.3-2.1 8.1-0.9-7.9-0.1-15.7-0.2-23.5 0.2-27.5-0.2-55 0.2-82.4z"/><path class="c" d="m228.2 1356.4c10.9-1.2 21.9 0 32.8-0.5 60.6 0.2 121.3 0 182-0.1 6.1 0.1 13.1-1.1 18.4 2.9 7.8 5.2 9.1 17.4 2.7 24.3-3.2 3.8-8.1 5.9-13.1 5.7-71.6 0-143.3-0.1-215 0.1-4.4 0-9.2-0.1-13-2.7-7.9-5-9.3-17.3-3.1-24.2 2.2-2.6 5-4.8 8.3-5.5zm3.1 8c-6.5 1.9-7.7 11.8-1.9 15.2 4.1 3.4 10.7 1.1 12.8-3.5 0.7-3 1.2-6.7-1.2-9.1-2.4-2.6-6.3-4.2-9.7-2.6z"/><path class="c" d="m416.4 1469.5c3.1-0.7 6.7 1.3 7.4 4.5 1.1 4 0.4 9.2-3.6 11.3-3.1 1.4-6.9-0.3-8.1-3.4-1.8-4.4-1.2-11.2 4.3-12.4z"/><path class="c" d="m446.4 1469.3c2.9-1.8 6.7 0.7 7.4 3.8 0.9 3.8 0.9 8.7-2.1 11.6-3.1 2.8-8.6 0.4-8.9-3.7-0.6-4-0.9-9.8 3.6-11.7z"/><path class="c" d="m473.1 1475.3c0.4-3.2 2.3-6.5 5.9-6.5 3.6-0.2 4.9 3.6 5.6 6.4q-5.8 0.1-11.6 0.1z"/><path class="c" d="m78.8 1518.2c7.6 0 15.2 0 22.7 0.4 0 0.8-0.2 2.4-0.3 3.2-7.6-0.2-15.3 0.3-22.9-0.3 0.1-0.8 0.4-2.5 0.5-3.3z"/><path class="c" d="m589.3 1518.4c7.8-0.2 15.6-0.3 23.4-0.2q-0.2 1.7-0.3 3.5c-7.9 0.2-15.7 0.1-23.6 0q0.2-1.7 0.5-3.3z"/><path class="d" d="m668.1 770.5c-1.2-9-1.3-18.2 0.1-27.2 0.4 9.1 0.3 18.2-0.1 27.2z"/><path class="e" d="m231.3 1364.4c3.3-1.6 7.3 0 9.7 2.6 2.3 2.4 1.9 6.2 1.2 9.1-2.1 4.6-8.7 6.9-12.8 3.6-5.8-3.5-4.6-13.4 1.9-15.3z"/></svg>