<svg version="1.2" xmlns="http://www.w3.org/2000/svg" viewBox="0 0 833 423" width="833" height="423"><style>.a{fill:#fff}.b{fill:#282828}.c{fill:#010101}.d{fill:#9f9f9e}.e{fill:#e1e1e1}.f{fill:#4f4f4f}.g{fill:#d5831b}</style><path class="a" d="m15.3 180.3c1.3-1.1 3.2-0.6 4.7-0.8 18.3 0.6 36.7 0 55 0.9 19.4 0.7 38.8 0 58.1 1.1 17.6 0.1 35.3 0.1 53 0.9 18.6 0.1 37.2 0.4 55.8 1 1.5-0.1 2.6 1.2 2.4 2.6 0.1 16.3-0.8 32.6-0.8 49q-0.4 29.9-0.9 59.9c0.2 3-3.3 3.4-5.6 3.2-23-1.4-46-0.3-69-1.4-16.3-0.4-32.7-0.4-49-0.6-23.3-1.1-46.7-0.5-70-1.5-11.3-0.4-22.7-0.1-33.9-0.6-2.7 0-2.8-3.1-2.8-5 0.4-29.7 0.9-59.4 1.6-89 0.3-6.2-0.3-12.5 0.7-18.7 0.2-0.2 0.5-0.7 0.7-1z"/><path class="a" d="m398.9 184.5c3.1 2.1 6.1 5.4 5.8 9.5 0.7 7.5-7.5 14-14.7 11.9-3.9-1-7.4-4.1-8.2-8.2 1.6 2.9 3.6 6 7 7.1 6.9 3 15.9-3.1 15.1-10.8 0.2-3.9-2.8-6.7-5-9.5z"/><path class="a" d="m582.8 205c-7.3-3.9-7.3-17 0.8-19.8-1.6 1.5-3.5 3-4.4 5.2-2.4 5.1-0.3 12.1 5 14.5 4.2 2 9.1 0.7 12.7-2l1.6-0.8c-3.9 4.3-10.6 6.3-15.7 2.9z"/><path class="a" d="m430.3 194.6q9.5-0.1 19.1-0.1c-0.1 7.1 0 14.1 0 21.2 13.2 0.1 26.3 0 39.5 0.2 14.9 0.1 29.8-0.3 44.6 0.3q0-2.7 0-5.4c-0.1-5.4 0-10.8-0.1-16.2 6.2-0.1 12.5-0.1 18.7-0.1 0.2 7.3 0 14.5 0.2 21.8q8.1-0.1 16.3 0 0-3.5 0.1-7c3.5 0.1 7 0.3 10.6 0.3-3.3 0.4-6.6 0.7-9.9 0.9-0.6 10.5 1.4 21 0.8 31.5 0.8 12.2-2.3 24.4 0.2 36.6 3.4 0.1 6.8 0.6 10.1 1.8-4-0.1-7.9-0.1-11.9 0q0-3.6-0.1-7.1c-5.5 0-11.1-0.1-16.7 0 0.1 5.7 0.2 11.4-0.1 17.1q-9.2-0.1-18.3 0.1c-0.3-5.8-0.4-11.5-0.1-17.2-28-0.2-56-0.6-84-0.7-0.2 6.2 0.6 12.5-0.5 18.6-0.7-6.1-0.1-12.4-0.4-18.6q-8.8 0-17.6 0c-0.1 6.2 0.4 12.5-0.4 18.7-0.5-6.3-0.1-12.5-0.2-18.7-16.5-0.3-32.9-0.2-49.3 0-6.4-0.1-12.9-0.2-19.3-0.5-0.1-19 0.2-38.1 0-57.2 6.4-0.1 12.9-0.7 19.4-0.3 16.4 0.9 32.8 0.4 49.1 0.8 0-6.9-0.1-13.9 0.2-20.8zm0.5 0.9c-0.1 6.6-0.1 13.3 0 19.9 5.9 0.2 11.8 0.1 17.7 0.2 0.1-6.8 0-13.5 0-20.3-5.9 0.1-11.8-0.1-17.7 0.2zm103.3-0.1c0.1 6.9 0 13.9 0.1 20.8 5.8 0 11.5 0 17.2 0.1 0.1-7 0-14 0.1-21-5.8 0-11.6 0-17.4 0.1zm-0.3 77.8c-0.1 5.5-0.2 10.9 0.1 16.4q8.6 0.2 17.3 0c0-5.5 0-11 0-16.4-5.8 0-11.6 0-17.4 0z"/><path class="a" d="m448.2 318.9c2.7-1.8 0.4 3.2 0 0z"/><path class="a" d="m437.4 326.4c2.1-2.2 5.2-2.4 8-2.9q0.3 1.5 0.6 2.9c-3.6 0.6-7.8 2.3-8.2 6.5-0.4 4.6 4.2 7.3 8.2 7.6-0.1 0.6-0.3 1.9-0.4 2.5-2.6-0.1-5.3-0.3-7.4-2.1-4.5-3.3-5.1-10.8-0.8-14.5z"/><path class="a" d="m449.9 331.9c0.7-4.5 4.6-8.2 9.2-8.2 2-0.6 2.3 2 2.5 3.3-3.5-0.2-6.8 1.4-8.2 4.7q3 0.1 6.1 0.2c-0.1 0.7-0.2 2-0.3 2.7-2 0.4-4 0.3-6 0.4 0.9 1.6 1.7 3.6 3.7 4.1 1.6 1 4.8 0.5 4.5 3.2-6.1 2.7-12.9-4.2-11.5-10.4z"/><path class="a" d="m473.6 323.6c3-0.2 6.3-0.5 8.9 1.2-0.2 2.8-4.2 1.3-6.2 2.2-0.1 1.7 0 3.5 0 5.2q1.5 0.1 3.1 0.1c1.2-3.1 2.8-6.3 6-7.8 3.6-2.1 8.4-1.1 11.5 1.5 1.4 1 0.8 2.6 0.5 3.9-2.6-2.1-5.8-5.3-9.5-3.8-6.5 1.9-7.5 12.4-0.7 14.7 4.2 2.4 7.4-2.2 11.4-2.6-2 5.9-10.1 7.5-14.7 3.7-2.4-1.7-3.8-4.5-4.2-7.4-0.8 0.1-2.5 0.2-3.3 0.3q-0.1 3.8-0.1 7.6c-0.7 0.3-2.1 0.8-2.8 1.1 0.1-6.6-0.1-13.3 0.1-19.9z"/><path class="a" d="m487.3 328.3c2.6-1.7 5.9-0.4 7.8 1.6-1.5 3.5-5.7-1.6-7.6 1.6-1.9 1.9-0.6 4.4 1.3 5.7 2.3-0.6 4.7-1.2 7.2-0.5-2.4 2.6-6.5 4.1-9.6 1.7-3.8-2.2-2.8-8.3 0.9-10.1z"/><path class="a" d="m481.7 352.2c0.6 0.3 1.6 0.8 2.2 1.1 0.6-0.3 2-0.9 2.6-1.3-0.4 0.8-1.3 2.4-1.8 3.2q0.7 2.6 1.3 5.2-1.9 0-3.8 0.1c0-0.3-0.2-0.9-0.2-1.2 0.8 0.1 2.5 0.2 3.3 0.3l-0.4-2.2c-0.5 0.2-1.3 0.6-1.8 0.8l0.4-1.6c-0.1-0.4-0.4-1.1-0.5-1.4l-0.5-0.6c-0.2-0.6-0.6-1.8-0.8-2.4z"/><path class="b" d="m798.1 13c6.3-8.6 20.6-8.6 27.4-0.6 3.4 4.4 4.8 10.2 4.1 15.7-0.6 6.2-0.8 12.5-1.2 18.8-0.6 0-1.8-0.2-2.4-0.3-4.4-2-9.3-2.1-14-2.6-5.8-0.2-11.7-0.7-17.4 0.7-0.3 0.1-1.1 0.2-1.5 0.2-0.6-3.6 0.3-7.2 0.3-10.8 0.6-7.1-0.4-15.3 4.7-21.1z"/><path class="b" d="m794.4 48.4c10.4-0.5 20.9-0.7 31.3 0.3 0.6 0.1 1.9 0.3 2.6 0.4q-1.2 2.2-2.4 4.5c-8.5-1.7-17.2-3-25.9-2.8-2.3 0.3-4.1-1.1-5.6-2.4z"/><path class="b" d="m794.3 55.9c11.1-1.9 22.7-1.5 33.7 1.4-2.3 34.5-3.5 69.2-5.6 103.8-1.6 31.6-4.7 63.2-3.2 94.8-0.1 16.4 0.3 32.8 0.1 49.2l-0.5 1q-1.2 2.5-2.3 5c-5-1.4-10.1-1-15.1-1.6-8.2-0.9-16.4-1.4-24.6-2.4 1.3-30.8 5.5-61.4 7.6-92.1 2.2-48.4 5-96.7 7.4-145 0-1.1 0-2.2 0.5-3.2 2.1-3.3 2-7.2 2-10.9z"/><path class="b" d="m605.4 156.9c0-2.3 0.1-5.1 2.6-6.1 11.7-0.4 23.3 0.8 35 0.5 8 0.4 16 0.3 24 0.4 2.5-0.1 5.3 1.5 4.8 4.3-0.2 19-0.7 38-0.6 57.1-0.2 2.1 0.1 5.8-2.7 6.3-20.7 0-41.3-1.1-62-1-0.8-0.9-2.5-1.5-2-3 1.1-10.6 0.5-21.2 0.7-31.9 0.1-8.8 0.1-17.7 0.2-26.6z"/><path class="b" d="m513.1 193.1q3.5-0.1 6.9-0.1c0.2 5 0.2 10-0.1 15-2.3-0.4-6.1 1.1-6.9-2.1-0.4-4.2 0-8.5 0.1-12.8z"/><path class="b" d="m480 194.2q7.5-0.3 15-0.1c0.2 4.3 0.3 8.6-0.1 12.8-4.9 0.3-9.9 0.4-14.8 0-0.3-4.2-0.4-8.5-0.1-12.7z"/><path class="b" d="m508.1 207c0-2.8-0.1-5.8 2-7.8 1.1 2.4 1 5.1 0.8 7.7-0.7 0-2.1 0-2.8 0.1z"/><path class="b" d="m524.3 207.9c-1-3-0.9-6.5 1.7-8.7 2.3 2.3 2.9 5.6 1.8 8.6q-1.8 0.8-3.5 0.1z"/><path class="b" d="m500.9 214.6c1.5-1.9 3.4-3.9 6.1-3.7 8.8-0.3 17.6 0.1 26.5-0.1q0 2.7 0 5.4c-14.8-0.6-29.7-0.2-44.6-0.3l0.1-0.9c4-0.2 7.9-0.1 11.9-0.4z"/><path class="b" d="m402.3 277.3c2.5-0.8 5.1-0.3 7.6-0.2q0 4 0 7.9-3.9 0.2-7.8 0.1c-0.1-2.6-0.2-5.3 0.2-7.8z"/><path class="b" d="m402.1 295.1q3.9 0 7.8 0 0 5.9 0 11.9-3.9 0-7.7-0.1-0.1-5.9-0.1-11.8z"/><path class="b" d="m385 296.1c4.3-0.2 8.6-0.5 12.7 0.6q-0.5 3.1-1 6.2-5.8 0.2-11.6 0.1-0.1-3.5-0.1-6.9z"/><path class="b" d="m385.9 306c3.6-0.1 7.3-0.8 10.8 0.3 0.9 2 0.6 4.4 0.1 6.5-3.5 1-7.3 0.3-10.9 0.2q0-3.5 0-7z"/><path class="b" d="m402.1 310.1q3.9 0 7.8 0c0 0.7 0 2.1 0 2.8q-3.9 0-7.9 0.1c0-0.8 0.1-2.2 0.1-2.9z"/><path class="b" d="m421.2 314.1c-0.6-1.6 3.2-1.8 2.7-0.1 0.3 3.2 0.2 6.4 0.1 9.6q-1.5 0-2.9 0c0-3.1-0.2-6.3 0.1-9.5z"/><path class="b" d="m488.3 318.2q0.7 0.9-0.1 0z"/><path class="b" d="m569.5 331.5c2.4-0.5 5.2-0.6 7.5 0.5 4.4 2.8 6.3 9.5 2.6 13.6-3.5 4.5-11.4 4.1-14.4-0.6-2.3-4.6-1.3-11.9 4.3-13.5z"/><path class="b" d="m522.5 333.5c4.1-0.1 6.7 5.2 4.4 8.5-2.3 3.7-8.7 3.9-10.2-0.7-2-4 2.3-7.3 5.8-7.8z"/><path class="b" d="m582.6 354q2-1.7 4.2-3.2 1.9 0.3 3.8 0.9-2.4 2.8-4.9 5.4-1.6-1.5-3.1-3.1z"/><path class="b" d="m590.5 353.8c2.2-2.5 5.7-2 8.7-1.7-0.8 4.2-5.9 3.5-8.7 1.7z"/><path class="b" d="m683.1 355.6c0.5-0.5 1.3-1.3 1.8-1.7 8.2-0.3 16.5 0.3 24.7 0.6 1.6 0.1 2 2 2.8 3 2.3-0.3 5.3 0.6 6.6-1.9-0.1 9.8-0.3 19.6 0 29.4 0.2 3.9-0.2 7.8-1 11.6q-3-0.1-6-0.1c-1.5 3.8-5.7 2.8-8.9 2.8-6-0.3-12.1 0.2-18-0.4-2.2-1.3-4.7-1.7-7.2-1.8q-0.7-1.8-1.1-3.7c-3 0.2-6.1 0.1-9.1 0.1-0.1 0.7-0.2 2.2-0.2 2.9-4.1-0.3-8.3 0-12.5-0.4-0.7-1.1-1.2-2.4-1.7-3.6q-2.2 0.2-4.3 0.4c-0.1 0.7-0.4 2.1-0.5 2.7-2.5 1-6.1 1.4-7.3-1.6-1.1-3.6-0.6-7.5-0.6-11.3-9.2-0.5-18.8 1.1-27.5-2.6-4.3-0.8-8.7 0.3-13-0.7l-0.5-0.2c-2.4-1.1-4.9-0.6-7.4 0-2.1-5-1.3-10.6-1.2-15.9q3.3-0.1 6.6-0.1c0.1 2.9 0.3 5.9 0.7 8.8h1.3c4.1-0.1 8.3-0.1 12.4-0.3 2.9 0.1 5.1-2.3 8.1-2.2 6.8 0.1 13.6 0 20.4 0.1 0.3-4.9-0.7-10.2 1.5-14.7 1.8-0.2 3.5-0.2 5.2-0.2q0.8 1.8 1.5 3.6 2.3 0 4.7 0.1 0.6-1.4 1.3-2.8c4.3 0 8.6 0 12.9 0 0 0.7-0.1 2.1-0.2 2.9q5.1 0 10.2 0c0.2-0.8 0.6-2.2 0.8-2.9q2.3 0 4.7 0.1z"/><path class="b" d="m775 358.8c1.8 2.6 4.9 4.7 4.9 8.2 0.5 6.7-0.6 13.5 0.8 20.2 0.9 4.6 3.4 8.5 5.9 12.4-2.1-0.5-4.7-0.2-6.2-1.9-2-2.2-3.7-4.7-6.5-6-2.5-2.1-1.9-5.7-2.1-8.7 0.2-7.8-0.3-15.7 0.5-23.5q1.1 2.3 3.8 2.5c-0.3-0.8-0.8-2.4-1.1-3.2z"/><path class="b" d="m385 365q2 0 3.9 0 0 6.5 0 12.9-2 0-3.9 0-0.4-6.4 0-12.9z"/><path class="b" d="m495.5 373.3q1.9-1.2 2.2 0.8-1.9 1.2-2.2-0.8z"/><path class="b" d="m501.4 373.1c3.1-1.3-0.3 3.3 0 0z"/><path class="c" d="m794.6 44.7c5.7-1.4 11.6-0.9 17.4-0.7 4.7 0.5 9.6 0.6 14 2.6l1.3 1.9-1.6 0.2c-10.4-1-20.9-0.8-31.3-0.3 1.5 1.3 3.3 2.7 5.6 2.4 8.7-0.2 17.4 1.1 25.9 2.8q1.2-2.3 2.4-4.5l0.1-0.2c-0.2 2 0.8 5.2-2.4 5.3q0.9 1.5 2 3.1c-11-2.9-22.6-3.3-33.8-1.4 0.1 3.7 0.2 7.6-1.9 10.9-0.1-3.8 0.2-7.6 0.2-11.4 0.5-0.3 1.6-1 2.2-1.4-0.5-0.4-1.5-1.3-2-1.8q0-2.3 0.1-4.5c0.5-0.1 1.5-0.2 2-0.3 0-0.7-0.1-2-0.2-2.7z"/><path class="c" d="m386.6 184.5c2-0.8 4.2-1.3 6.4-1.1 63-0.2 126 0.4 189.1 0.4 0.5 0.1 1.5 0.4 2 0.5 3.7 1.1 8.1-0.2 11.3 2.5 3.9 2.7 3.8 7.8 4.1 12q-1.3 2.1-2.6 4.1c-3.6 2.7-8.5 4-12.7 2-5.3-2.4-7.4-9.4-5-14.5 0.9-2.2 2.8-3.7 4.4-5.2-8.1 2.8-8.1 15.9-0.8 19.8 5.1 3.4 11.8 1.4 15.7-2.9l0.9-0.4q0 5.4 0.2 10.9c0.3 53.1 0.2 106.2 0 159.3h-1.3c-0.4-2.9-0.6-5.9-0.7-8.8q-3.3 0-6.6 0.1c-0.1 5.3-0.9 10.9 1.2 15.9 2.5-0.6 5-1.1 7.4 0-0.2 8.1 0.1 16.3-0.1 24.4-2.9-3.3-6.6-6.9-11.4-6.7-6 0.3-11.4 5.4-11.6 11.4-0.3 3.8 1.7 7.6 4.8 9.9q-0.6 0.9-1.2 1.8-2.6-0.1-5.3-0.1c0.5-14.2 0.5-28.4 0.3-42.6q-3.1 0-6.2 0-0.2 3.3-0.4 6.6-3.2 0-6.4 0 0.2-6.3 0.2-12.5-2.3 0.3-4.5 0.6 0 5.9 0.3 11.9-2.4 0-4.8 0 0.3-6.1 0.2-12.2-2.2 0.2-4.5 0.4 0 5.9 0.3 11.9-2.4 0-4.7 0 0-5.9 0.1-11.8-2.1-0.2-4.2-0.4-0.1 6.1 0.1 12.2-2.7 0-5.5-0.1 0.4-6 0.5-12c-1.1-0.1-3.2-0.3-4.3-0.3q0 6.1 0.3 12.3-3.4 0-6.9 0.1 0-3.5-0.1-7-3 0-6-0.1 0 3.3 0 6.6c0 12.1-0.1 24.2 0 36.4-26.2-0.4-52.4-0.5-78.6-0.5-1.3 0.1-2.6-0.6-3.6-1.5-0.4-3.4-0.1-6.8 0-10.2-1-1-1.7-2.7-3.3-2.5-7 0.1-14-0.3-20.9 0.3-5 2.9 0.1 10.7-5.1 13.5-3 0.1-6.1 0-9.1 0.1 1.9-1.7 4-3.3 5.1-5.7 1.4-3 0.9-6.4 0.8-9.5 12.6-0.4 25.1-0.3 37.7-0.1-0.7-12 1-24 0.6-36q-2.9-0.1-5.7-0.2-0.1 3.5-0.2 7-3.3 0-6.5 0 0-5.9 0.1-11.8-2.3 0-4.7 0 0.1 5.8 0 11.5-2.4 0-4.9 0-0.1-5.9 0-11.9-2.1 0-4.1 0 0.1 6-0.1 12.1-3.5-0.2-7-0.3-0.2-3.5-0.4-6.9-2.7 0-5.4 0c0 4.4 0.2 8.7 0.3 13 0 7.7-0.3 15.3 0.1 23l-0.5-0.1c-2-1.7-3.3-4.3-5.7-5.6-3.4-1.6-7.7-1.7-11 0.2-2.2 1.3-4 3.2-5.7 5.1-0.1-15.6-0.2-31.2 0-46.7 11.2-0.3 22.3-0.1 33.5-0.1 0.2-13.3 0.6-26.6-0.2-39.8-11.1-0.1-22.3 0-33.4 0 0-14.5 0.1-29.1 0-43.6h0.2c16.4-0.2 32.8-0.3 49.3 0 0.1 6.2-0.3 12.4 0.2 18.6 0.8-6.1 0.3-12.4 0.4-18.6q8.8 0 17.6 0c0.3 6.2-0.3 12.5 0.4 18.6 1.1-6.1 0.3-12.4 0.5-18.6 28 0.1 56 0.5 84 0.7-0.3 5.7-0.2 11.4 0.1 17.2q9.1-0.2 18.3-0.1c0.3-5.7 0.2-11.4 0.1-17.1 5.6-0.1 11.2 0 16.7 0q0.1 3.5 0.1 7.1c4-0.1 7.9-0.1 11.9 0 3.5 0.3 7 0.3 10.5 0.3l-0.1-1.6c0.7-1.7 2.4-2.3 3.9-3.1 0.2-20.9 0.1-41.9 0.1-62.8-0.8-0.1-2.3-0.4-3-0.5q-0.3-1.5-0.6-3.1-6 0-12 0c-3.6 0-7.1-0.2-10.6-0.3q-0.1 3.5-0.1 7-8.2-0.1-16.3 0c-0.2-7.3 0-14.5-0.2-21.8-6.2 0-12.5 0-18.7 0.1 0.1 5.4 0 10.8 0.1 16.2-8.9 0.2-17.7-0.2-26.5 0.1-2.7-0.2-4.6 1.8-6.1 3.7-4 0.3-7.9 0.2-11.9 0.4q0.1-2.1 0.2-4.2c-12-0.2-24-0.6-36-0.1q-0.1 2.2-0.2 4.4c-0.9 0.1-2.7 0.4-3.6 0.6 0-7.1-0.1-14.1 0-21.2q-9.6 0-19.1 0.1c-0.3 6.9-0.2 13.9-0.2 20.8-16.3-0.4-32.7 0.1-49.1-0.8l0.1-0.4c0.3-7.4-0.1-14.9 0.7-22.3 0.5-3 2.6-5.4 4.8-7.4zm12.3 0c2.2 2.8 5.2 5.6 5 9.5 0.8 7.7-8.2 13.8-15.1 10.8-3.4-1.1-5.4-4.2-7-7.1 0.8 4.1 4.3 7.2 8.2 8.2 7.2 2.1 15.4-4.4 14.7-11.9 0.3-4.1-2.7-7.4-5.8-9.5zm-9.2 6.2c-2.5 2.1-2.2 6.6 0.5 8.3 3 2.2 8.1-0.3 8.2-4 0.3-4.3-5.5-7.3-8.7-4.3zm196.6-0.2c-2.6 1.5-3.6 5.3-1.4 7.6 2.3 3.2 8.2 2.1 8.8-1.9 1.3-4.1-3.8-8.7-7.4-5.7zm-73.2 2.6c-0.1 4.3-0.5 8.6-0.1 12.8 0.8 3.2 4.6 1.7 6.9 2.1 0.3-5 0.3-10 0.1-15q-3.4 0-6.9 0.1zm-33.1 1.1c-0.3 4.2-0.3 8.5 0.1 12.7 4.9 0.3 9.9 0.3 14.8 0 0.3-4.2 0.3-8.5 0.1-12.8q-7.5-0.2-15 0.1zm28.1 12.8c0.7-0.1 2.1-0.1 2.8-0.1 0.2-2.6 0.3-5.3-0.8-7.7-2.1 2-2 5-2 7.8zm16.2 0.9q1.7 0.7 3.5-0.1c1.1-3 0.5-6.3-1.8-8.6-2.6 2.2-2.7 5.7-1.7 8.7zm-140.1 66.4c0 5.9 0.1 11.7 0 17.6q6.8-0.1 13.7 0c-0.1-6.2-0.1-12.4 0.1-18.6-4.6 0.1-9.2 0.8-13.8 1zm18.1 3c-0.4 2.5-0.3 5.2-0.2 7.8q3.9 0.1 7.8-0.1 0-3.9 0-7.9c-2.5 0-5.1-0.6-7.6 0.2zm178.9 7.1q-1.3 0.9-2.5 1.8c-0.4-0.6-1.3-1.8-1.7-2.5 0 0.7 0.1 2.1 0.2 2.8q2.3 0 4.7 0l0.1-0.9c2.2 0.8 4.5 1.3 6.8 1.3q0.2-1.8-0.2-3.5c-2.5 0.5-4.9 1-7.4 1zm-7.1-0.3c-1.3 1-0.1 3.9 1.5 2.6 1.1-1 0-4-1.5-2.6zm-171.9 3.4q-0.2 1.7-0.2 3.6 1.8-0.4 3.6-0.8c0.2 0.1 0.6 0.2 0.8 0.3q1.6-2 4.1-0.9l-0.8-2c-2.5-0.4-5-0.4-7.5-0.2zm-0.1 7.6q0 5.9 0.1 11.8 3.8 0.1 7.7 0.1 0-6 0-11.9-3.9 0-7.8 0zm-17.1 1q0 3.4 0.1 6.9 5.8 0.1 11.6-0.1 0.5-3.1 1-6.2c-4.1-1.1-8.5-0.8-12.7-0.6zm65.6 5.2q-1.6-0.5-3.3-0.9 0.1 1.8 0.2 3.7c0.7-0.3 2.1-1 2.8-1.3 1.1 0.9 2.6 0.8 4 0.7 0.1-1.4 0.2-2.8 0.4-4.3q-2.1 1.1-4.1 2.1zm16.7-2c0.3 0.2 1 0.8 1.4 1q-1.1 1.3-2.4 2.4c-0.2-0.3-0.6-0.8-0.8-1.1-1-0.3-3.1-0.9-4.1-1.3-0.1 0.8-0.1 2.4-0.2 3.2 4.4-1.4 2.4 2.9 1.8 5-1-1.6-2.1-3.5-3.9-1.2q-0.7-1.1-1.4-2.2c-1.6 0.7-5.5 1.6-3.9 4.2q2.7 0 2.7-3.2 0.8 1.5 1.6 3.1 2.9-0.4 5.7-0.6c0.4-1.7 0.7-3.4 1-5q3.6 0.1 7.2 0l-0.1 1.3q-1.9 1.7-3.7 3.4c0.2-0.9 0.4-2.8 0.5-3.7q-1.2 0.9-2.2 2.1c0.2 3.2 4.3 2.1 6.5 2.7q-0.3-2.5-0.6-5c1.7-0.6 2.6-2 3.1-3.5-1.7-0.2-3.5-0.3-5.2-0.4l0.5-0.9q-1.8-0.2-3.5-0.3zm-6.6 3.5c0-0.6 0-1.7 0-2.3-1.5-0.5-1.7 2.9 0 2.3zm-26.1 0.6c0.5 0.1 1.5 0.3 2 0.4q0.8-1.7-0.6-3.1c-1.5-0.7-2.4 1.7-1.4 2.7zm2.7-2.7c0.2 0.9 0.4 2.7 0.6 3.6q0.9-1.2 1.8-2.3 1.7 1.2 3.5 2.4c0.2-1 0.4-3 0.5-4-1.9 1.5-4.3 0.6-6.4 0.3zm7.2 0.6q0.9 1 0 0m13.6 2.3c0-0.6-0.1-1.7-0.1-2.3-1.6-0.7-1.5 2.8 0.1 2.3zm-12.2-1.2c-1.7 2.9 3.3 0.3 0 0m-11.8 3c0.1 2.2 1.1 3.8 3.3 4.3-0.3-0.7-1-2.1-1.4-2.9 0.3-0.6 0.9-1.7 1.2-2.3-0.8 0.2-2.3 0.7-3.1 0.9zm3.3 3.1c1.6 0.1 3.2 0.1 4.9 0.1q0.2-1.6 0.4-3.2c-2.3 0.2-6.3-0.7-5.3 3.1zm7.9-3.5c0 0.7 0.1 2.2 0.1 2.9 0.6-0.4 1.8-1.2 2.4-1.7 0.1 0.7 0.2 2.1 0.2 2.8q2.2 0.1 4.4 0.2c0-0.7-0.1-2.1-0.2-2.8l-1.2 0.6c-1.4-1.8-3.6-2-5.7-2zm119.4 0.7c-0.7 1.4-1.3 3.5 0.4 4.6 0-0.9 0.1-2.6 0.1-3.5 0.6 1.2 1.2 2.3 1.8 3.4 0.2-1 0.5-3 0.7-4q0.8 2 1.5 4c0.5-1.3 1-2.5 1.6-3.7q0.9 1.8 1.9 3.7c0.6-1.5 1.2-2.9 1.8-4.3 0.2 1.1 0.5 3.4 0.6 4.5q0.8-2 1.6-4.1c-0.1 3.5 3.2 3.6 5.8 3.9-1.6-0.7-3-1.7-2.9-3.6 0.7 0.2 2.3 0.7 3 0.9 0.2 0.5 0.4 1.6 0.6 2.1q1.8 0.3 3.7 0.5-1.1-1.2-2.1-2.5c0.4-0.6 1.1-1.8 1.5-2.4-0.4 0.3-1.3 0.9-1.8 1.2-2-0.8-4-0.7-6.1-0.4-4.5-1-9.1 0.3-13.7-0.3zm-178.8 0.3q0 3.5 0 7c3.6 0.1 7.3 0.8 10.9-0.2 0.5-2.1 0.8-4.5-0.1-6.6-3.5-1-7.2-0.3-10.8-0.2zm175.7 3.9c1.7 0.5 2.4-2.5 1.5-3.6-1.6-0.2-2.2 2.5-1.5 3.6zm-159.5 0.2c0 0.7-0.1 2.1-0.1 2.9q4-0.1 7.9-0.1c0-0.7 0-2.1 0-2.8q-3.9 0-7.8 0zm32.3 1.1c0 0.4 0.1 1.2 0.2 1.6-0.9 2.3 4.7 0.7 0.8-1l2.8-0.6c-1.2-0.8-2.6-0.4-3.8 0zm42.1 0.2c-0.9-0.2-2.7-0.7-3.5-0.9-0.2 1.3-0.4 2.7-0.6 4 0.6 0.2 1.9 0.5 2.5 0.7-0.4 1.2-0.9 2.5-1 3.8 0.3 1.8 2.5 1 3.8 1.2 0.1-0.7 0.2-2.2 0.3-3q-1.6-0.6-1.8-1.9 2.3-1.3 1.9-4.1 0.8 1.6 1.6 3.2 1.5 0.3 3 0.6v-1.6c0.6 0.6 1.9 1.6 2.5 2.1q1.4-0.9 2.8-1.7c-0.4-1.3 0.3-3.6-1.6-3.6-0.6 1.1 0.7 4.5-1.5 3.6 0.2-0.8 0.4-2.3 0.5-3.1-1.4 0.4-2.9 0.8-4.4 0.2q-1.7-0.1-3.4-0.2c-0.3 0.2-0.9 0.5-1.1 0.7zm19.6 1.2c-1.2-2.8-3.4-1.1-5.2 0q0.8 1.1 1.7 2.2c0.2-0.8 0.8-2.4 1.1-3.2 0 1 0 2.9 0.1 3.8 0.7-0.4 2.1-1.4 2.8-1.8q1.4 1.1 3 2.1c0.7-1.5 1.1-3.2 1.4-4.8-2-0.9-3.7-0.1-4.9 1.7zm16.7-1.7q0.2 1.9 0.4 3.9 2.5 0.1 5.1 0.3-0.1-2.4-0.3-4.8c-0.4 0.2-1.2 0.6-1.6 0.7-0.2 0.8-0.4 2.2-0.5 3-2.4 0.2-1.4-2.2-1.4-3.6-0.4 0.1-1.2 0.3-1.7 0.5zm5.9 0c-0.1 2.6 0.8 5.7 4.2 4.1-0.7-0.5-2.3-1.4-3-1.8q0.9-0.7 1.9-1.5c1.3-2.2-2-0.7-3.1-0.8zm4.5 2.7c0.2 0.8 0.1 2 1.2 2.2 1-1.7 1-3.7 1.1-5.6-1.9 0.5-3.4 1.3-2.3 3.4zm-83.6-2.3c-0.9 0.5-3.2 1.7-1.7 2.8 1.8 2.1 4.1-3.5 1.7-2.8zm1.5 4.3c1-0.2 2.8-0.7 3.8-0.9q-0.2-2-0.3-4c-2.3 0.5-3.8 2.4-3.5 4.9zm4-1.4c0.6 0.2 1.9 0.7 2.5 0.9 0.3-0.8 1-2.4 1.4-3.2 0.2 0.9 0.7 2.8 1 3.8q1.8-1.5 3.5-3c0.2 0.6 0.5 1.7 0.7 2.3 2.5 0.3 1.3-2.6 1.5-4.1-1.6 0.3-3.1 0.7-4.6 1.5-2.3-2.1-5.1-1-6 1.8zm14.4-2.8q-1.1 1.5-0.2 3.2c1.7 0.5 2.2-4.9 0.2-3.2zm2-0.7q-0.4 1.8-0.7 3.8c0.2 0.4 0.6 1.4 0.7 1.8-2.5 0.5-5.3-1.1-8-0.1q-1.2 0.1-2.5 0.3-2.1-0.5-4.3-0.9 0.1 2.3 0.2 4.7c3.3 0.3 7.9 1.2 9.2-2.9q1 1.7 2 3.5c1.8-0.6 3.9-0.9 4.5-2.9q1.1 1 2.2 2c0.1-0.7 0.3-2.2 0.4-2.9-0.5-0.1-1.5-0.2-2-0.3q0-1.6 0.1-3.3c0.5 0.6 1.5 1.7 2 2.3q0-2.4-0.1-4.8c-0.9-0.1-2.8-0.3-3.7-0.3zm46.4 3c-0.8-0.4-2.2-1.3-3-1.7 0.1 3.1 3.1 3.6 5 1.7 0.6 0.4 1.7 1.2 2.2 1.6-0.3-1.6-0.6-3.2-1-4.7-1.4 0.6-2.2 2-3.2 3.1zm-0.4-2.2q0.8 1 0 0m-41.3 3.1l1.9 0.3c3.3-0.1 0.1 2.2-1.1 2.6q0.4 1.6 0.8 3.2c0.3-0.9 1-2.9 1.3-3.9 0.1 0.8 0.4 2.5 0.5 3.4 0.9-0.2 2.5-0.5 3.3-0.6q-0.8-0.7-1.6-1.4 2.2-0.5 2.1-2.5c-1 0.3-3 0.8-3.9 1 0.2-0.6 0.7-1.9 1-2.6-0.7 0-2 0.1-2.6 0.1 0.5-0.8 1.6-2.3 2.1-3.1-2.4-0.3-2.8 2.1-3.8 3.5zm37.3-2.1q1 0.6 0 0m66.4-0.3q-0.3 2.1-0.7 4.1 1-1 1.9-2.1 1.8 1.4 3.9 2.5 0-2.3 0-4.6-2.6 0.1-5.1 0.1zm-148.7 1.9c-0.3 3.2-0.1 6.4-0.1 9.5q1.4 0 2.9 0c0.1-3.2 0.2-6.4-0.1-9.6 0.5-1.7-3.3-1.5-2.7 0.1zm13 6.4c1-1.3 2.5-2.6 1.7-4.4-2.2-0.2-1.1 3.2-1.7 4.4zm3.6-4.2q-0.2 1.6-0.4 3.1 1 0.7 2.1 1.3c-0.1-0.7-0.2-2.1-0.2-2.8q2.2-0.2 3.7-1.7-2.6 0-5.2 0.1zm41.5 0.3q0.2 2.2 0.7 4.3 1.2-2.6 2.7-5.1c-0.9 0.2-2.6 0.7-3.4 0.8zm5-0.4c-1.9 0.2-2.1 3.3-0.3 3.8 1.5-0.4 2-3.5 0.3-3.8zm7.8 1.4q1.4 1.8 2.8 3.6-0.4-2.6-0.9-5.1c-0.5 0.4-1.4 1.1-1.9 1.5zm-48.6-0.5c-1.1 0.7-2 2.4-1.3 3.6 1.7 0.7 3.1-3.2 1.3-3.6zm42.7-0.1c0 0.8 0 2.5 0.1 3.3 2-0.3 4.2-0.6 4.8-2.9q-2.5-0.2-4.9-0.4zm9.9 0.1q0.2 1.7 0.4 3.3c0.5 0 1.5 0 2.1 0q0.1-2 0.4-3.9c-0.7 0.2-2.2 0.5-2.9 0.6zm71.6 2.3c-1.9 2.3-3.5 4.7-6 6.3 0-0.9-0.1-2.8-0.1-3.7-3.2-0.2-5.4 2-6.1 5q2.1 0.6 4.3 1.2c-2.1 2.6-5.3 3.8-7.6 6.1-0.4 3.2-0.1 6.4-0.1 9.6 5.3 3.7 9.4 8.8 14.3 13.1 0 0.7 0 2.2 0 2.9 3.9 0.1 8.1 0.8 11.9-0.4 1.8-1.5 2.7-3.8 4.3-5.5q1.5 1.6 3.1 3.1 2.5-2.6 4.9-5.4-1.9-0.6-3.8-0.9c1-4 7.3-4.2 6.6-8.8 0-2.9-0.4-5.8-0.7-8.6-5.7-3.3-10.8-8-14-13.8-3.6-0.9-7.5-1.3-11-0.2zm-53.5 2.5q-0.2 2.9-0.3 5.9c-0.6 0.1-1.9 0.5-2.5 0.6 0 7.1-0.3 14.2-0.2 21.3 0.7 0.2 2.2 0.6 3 0.8q-0.1 2.7-0.1 5.4l1.3 0.1 0.9-0.2c-0.1-0.4-0.2-1.2-0.2-1.7q0.4-1.8 0.7-3.6 5.3-0.1 10.6-0.2 0.1 2.8 0.3 5.7c0.8 0 2.4-0.1 3.2-0.1q-0.1-2.5-0.2-4.9c0.5-0.4 1.5-1.2 1.9-1.6 0.3-6.9 0.2-13.7 0-20.6-2-1.7-1.7-4.3-1.9-6.6-0.7 0-2 0-2.7-0.1q-0.3 3-0.5 6-5.5 0.1-11-0.1 0.1-2.7 0.2-5.3c-0.6-0.2-1.9-0.6-2.5-0.8zm-76.8 4.5c-4.3 3.7-3.7 11.2 0.8 14.5 2.1 1.8 4.8 2 7.4 2.1 0.1-0.6 0.3-1.9 0.4-2.5-4-0.3-8.6-3-8.2-7.6 0.4-4.2 4.6-5.9 8.2-6.5q-0.3-1.4-0.6-2.9c-2.8 0.5-5.9 0.7-8 2.9zm12.5 5.5c-1.4 6.2 5.4 13.1 11.5 10.4 0.3-2.7-2.9-2.2-4.5-3.2-2-0.5-2.8-2.5-3.7-4.1 2-0.1 4 0 6-0.4 0.1-0.7 0.2-2 0.3-2.7q-3.1-0.1-6.1-0.2c1.4-3.3 4.7-4.9 8.2-4.7-0.2-1.3-0.5-3.9-2.5-3.3-4.6 0-8.5 3.7-9.2 8.2zm23.7-8.3c-0.2 6.6 0 13.3-0.1 19.9 0.7-0.3 2.1-0.8 2.8-1.1q0-3.8 0.1-7.6c0.8-0.1 2.5-0.2 3.3-0.3 0.4 2.9 1.8 5.7 4.2 7.4 4.6 3.8 12.7 2.2 14.7-3.7-4 0.4-7.2 5-11.4 2.6-6.8-2.3-5.8-12.8 0.7-14.7 3.7-1.5 6.9 1.7 9.5 3.8 0.3-1.3 0.9-2.9-0.5-3.9-3.1-2.6-7.9-3.6-11.5-1.5-3.2 1.5-4.8 4.7-6 7.8q-1.6 0-3.1-0.1c0-1.7-0.1-3.5 0-5.2 2-0.9 6 0.6 6.2-2.2-2.6-1.7-5.9-1.4-8.9-1.2zm13.7 4.7c-3.7 1.8-4.7 7.9-0.9 10.1 3.1 2.4 7.2 0.9 9.6-1.7-2.5-0.7-4.9-0.1-7.2 0.5-1.9-1.3-3.2-3.8-1.3-5.7 1.9-3.2 6.1 1.9 7.6-1.6-1.9-2-5.2-3.3-7.8-1.6zm52.9 0.4c-1.1 0.7-1.2 3.2 0.5 3.3 1.3-0.5 1.5-4.4-0.5-3.3zm3.4 0.1q-0.2 1.6-0.4 3.2c0.4 0.1 1.3 0.2 1.7 0.2 0.1-0.6 0.2-1.9 0.3-2.5q0.6 1.3 1.3 2.6c0.4-1.3 0.8-2.5 1.2-3.8q-2 0.1-4.1 0.3zm-8.3 0.6q-1.2 1.9 0.8 2.2 1.2-1.9-0.8-2.2zm2.5 0c-1.6 3.1 3.4 0.2 0 0m-64.9 24.8q0.7 0.9 1.6 1.8c-1.1 1.4-2 4.3 0.6 4.5 2.9-1.4 0.5-5.5 2.1-7.9-1.6 0.3-4.3-0.8-4.3 1.6zm8.8-2c0.2 0.6 0.6 1.8 0.8 2.4l0.5 0.6c0.1 0.3 0.4 1 0.5 1.4l-0.4 1.6c0.5-0.2 1.3-0.6 1.8-0.8l0.4 2.2c-0.8-0.1-2.5-0.2-3.3-0.3 0 0.3 0.2 0.9 0.2 1.2q1.9-0.1 3.8-0.1-0.6-2.6-1.3-5.2c0.5-0.8 1.4-2.4 1.8-3.2-0.6 0.4-2 1-2.6 1.3-0.6-0.3-1.7-0.8-2.2-1.1zm11.5 4.1c1.5 0.3 2.4-2 2.2-3.3-1.4-1.8-2.5 2.2-2.2 3.3zm15.1-3.1c0.1 0.7 0.3 2.1 0.4 2.8l0.5-2.2q1.5 0.6 3.1 1.2c-0.3-2.1-2.3-2.8-4-1.8zm82.2 0.6c2.8 1.8 7.9 2.5 8.7-1.7-3-0.3-6.5-0.8-8.7 1.7zm-99-0.6c-0.1 3.3 3.1-1.4 0 0m8.3 0q0.9 1.4 1.8 2.7c-0.4 0.6-1.1 1.8-1.4 2.3 0.8 0 2.6-0.1 3.4-0.2-0.1 0.3-0.4 1-0.6 1.4-1.3-0.3-2.6-0.2-3.2 1.2q2.5 0.1 5.1 0.1-0.5-2.1-1.1-4.3 0.7-1 1.3-1.9-2.6-0.7-5.3-1.3zm-83.7 6.4q2.4 0.1 4.8 0.1-1.1-2-2.2-4-0.1 1.7-0.2 3.3c-0.5 0.1-1.5 0.1-2 0.2 0-0.9 0-2.7 0-3.6-1.4 1.1-0.8 2.6-0.4 4zm8.9-0.1q-1.9-1.6-3.7-3.1c0.1 0.8 0.2 2.6 0.2 3.4q1.7-0.1 3.3-0.1c1.1 0 3.3 0 4.3 0-0.7-0.3-2.2-1-3-1.3v-0.6c1.6 0.4 3.2 0.8 4.6 1.8q-0.2-1.8-0.3-3.5c-1.9 0.9-5.2 0.5-5.4 3.4zm82.9 1.2c1.5-0.2 3.1-0.4 4.6-0.5-0.5-1.8-0.4-4.9-2.8-5.1-0.9 1.7-1.4 3.6-1.8 5.6zm-13.4-4.8c-0.2 0.8-0.4 2.5-0.5 3.2q-3.2-0.5-2.7 2.4c1-0.2 3-0.7 3.9-0.9-0.1-1.6 0.3-3.3-0.7-4.7zm-2 1.5q0.9 0.8 0 0m39.6 3.6c0.4 2.1 1.9 4.5 0 6.4q1.8 0.4 3.5 1c-1 0-2.9 0.2-3.9 0.3 0.6 0.5 1.8 1.5 2.4 2 3.8-1.3 1-5.7 0.5-8.2l1.9 0.5c0.3-2.5-3-3.2-4.4-2zm25.6 1.1c0.5 0.2 1.6 0.5 2.1 0.7-0.1 0.7-0.3 2-0.4 2.6l2 0.3q-0.6-2-1.1-4c-0.9 0-1.8 0.2-2.6 0.4zm-87.7 1.8c0 3.1-0.9 7.5 2.6 9.2-0.7-3.1-1.7-6.2-1.2-9.5 0.6-0.1 1.8-0.3 2.4-0.4l-0.3-2.6c-1.2 1.1-2.5 2.1-3.5 3.3zm3.6 0c7.1-1 14.3-1.5 21.4-0.7 5.3 0.6 10.8-0.7 16 0.7-0.8 0.2-2.2 0.7-3 0.9 0.2 1.4 0 3 0.6 4.4 0.9 1.9 3.4 0.9 5 1.3l0.4-1.8q0.6 2.4 1.5 4.7-1.9 0.2-3.8 0.4c0-0.4 0-1.3 0-1.7-2.5 0.1-5 0.3-7.5 0.5 2.4 0.2 3.8 2.1 5 3.9q-2.9 0.1-5.8 0.2 0.4-2.2 0.8-4.5c-3.7 0.6-8.3-1.2-11.2 1.7 0.9 0.7 2.6 2 3.5 2.7q-3.4 0.1-6.8 0.1 0.9-2.5 1.8-4.9c-2.2-0.3-4.5-0.8-6.7-0.9 1.9-1.6 3.4-6.1-0.2-6.3-3.7-1.1-4.6 5.4-0.6 5.6q-1.3 0.7-2.7 1.4c1.5 0.6 3.2 1.1 3.5 2.9l0.7-0.1 0.3 2.1c-3.7 0.6-7.5 0-11.2 0.3q0.3-2 0.4-4.1c0.8 0.1 2.5 0.3 3.4 0.3l0.3-1.2c-1.8 0.2-3.6 0.3-5.5 0.4q0.1 2.2 0.3 4.5c-1.4 0.4-4.4-0.2-4 2.3-0.1 6.3 0 12.6 0 18.9-0.3 1.7 0.5 3.4 2.5 3.2 9.8 0.8 19.7-0.7 29.5 0.1 0.1 1.9 1.3 3.2 3.2 3.5l-2.2-3.3c1.3 0 3.9-0.1 5.2-0.2l-0.2 1.2c1.2 0.1 2.4 0.1 3.6 0.2l-2.3 0.5 1.4 1.4q-1.8 0.5-3.6 1.2c1.7 0.2 3.4 0.3 5.2 0.4q-0.3-2.4-0.4-4.7c0.8 0 2.5 0 3.4 0.1-0.5 1.6-1.1 3.3-1.6 4.9 1.6-1.1 3.1-3.2 1.6-5 0.5-0.3 1.4-0.8 1.9-1.1 0.6-7.7-0.2-15.4 0.5-23.1q-1.9-0.8-3.6-1.9c4.7-2.4 2.2-8.5 2.7-12.7-6-1.7-12.2-0.4-18.3-0.4-6.4 0.2-12.6-0.8-19-0.1-1.9 0.3-4.5-0.6-5.4 1.8zm91.8 1.6c1.7-0.4 3.3-0.9 5-0.8 1.3-2.9-1.6-2.5-3.4-2.8 0 0.5 0.2 1.4 0.2 1.8l-1.5 0.3c0.2-0.7 0.6-2.1 0.8-2.8-2.8 0.6-1.8 2.6-1.1 4.3zm7.3 0c0.3-0.7 0.8-2.1 1-2.8 0 0.8 0 2.2 0 3 0.4-0.7 1.1-2 1.4-2.6-0.5-0.5-1.7-1.4-2.2-1.9-1.7 1.2-2.5 3.2-0.2 4.3zm3.3-1.7c0 1.7 2.9 1.3 4 1.2 2 0.4 3.8-4.7 3.6 0.7 0.6-1 0.8-2.1 1.1-3.2q-1.9-0.3-3.8-0.5c-0.3 0.4-0.9 1.3-1.1 1.8-0.2 0-0.7 0-0.9 0l-0.3-2.1c-1.6-0.2-3 0.2-2.6 2.1zm-191 1.2q-0.4 6.5 0 12.9 1.9 0 3.9 0 0-6.4 0-12.9-1.9 0-3.9 0zm87.6 0.5c0.1 0.9 0.2 2.9 0.2 3.8q2.4 0.2 4.8 0.3 0.1-1.8 0.2-3.7c-1.3-1.8-3.4-0.7-5.2-0.4zm18.6 0.3q0.2 1.6 0.3 3.4 1.3 0.7 2.6 1.4c1.6-1.2 1.7-3.2 1.7-5.1-0.7-0.1-2.1-0.5-2.8-0.7-0.5 0.2-1.3 0.7-1.8 1zm10.2 3.6c0.8 0.3 2.4 0.9 3.1 1.2 1.1-2 2.2-6.2-1.3-6.4 0 0.9 0.1 2.7 0.1 3.6-0.2-0.1-0.5-0.1-0.7-0.2 0-0.9 0.1-2.7 0.1-3.6-3.3 0.5-2.1 3.4-1.3 5.4zm40.2-2.6q2 0 1.9-1.7c-1.1-1.2-4 1.1-1.9 1.7zm8.1-1.6c0.2 3.3 3-1.5 0 0m2.7 0.1q0.9 1 0 0m5.6 0.2l0.2 2c0.5-0.1 1.5-0.2 2-0.3 0 0.4 0.1 1.3 0.1 1.7-0.7-0.2-2-0.5-2.7-0.6q1.2 1.5 2.6 2.9 0.7-2.2 1.4-4.4-1.8-0.7-3.6-1.3zm-6.2 1.6c-0.1 1-0.8 1.5-1.5 2.1 0.1 1.7 3.1 1.1 3.3-0.4 0.2-0.8-0.9-2.6-1.8-1.7zm-7.8 1.9c-0.4-1.4-2.4-1.3-3.6-1.1-1.7 1.9 3.1 3.3 3.6 1.1zm-64.9 2.9q0.9 0.9 0 0m-2.4 2.1c0 0.3-0.1 1-0.1 1.3 2.6 2.1 2.6-3.7 0.1-1.3zm100.2 7.2c0.1 1.8 3.1 1.5 3.2-0.1-0.2-1.7-3.1-1.4-3.2 0.1zm-0.2 2.2c0.8 0.2 2.3 0.6 3 0.8q-1.7 1.1-3.3 2.2c0.9 0.2 2.7 0.6 3.6 0.8-0.7 0.4-1.9 1.2-2.5 1.6-0.1 0.5-0.1 1.4-0.2 1.8 0.9 0 2.5 0.1 3.4 0.1-0.7-0.2-1.9-0.7-2.5-0.9 2.5-1.8 2.1-4.8 2.1-7.4q-1.8 0.5-3.6 1zm0.5 8.9c-1.3 1.5 1.6 2.7 2.5 1.3 1.2-1.5-1.6-2.7-2.5-1.3zm-104.5 9.7c0.1 2-0.7 5.5 3 4.5q-1-1.2-2-2.3c0.4-0.3 1.2-0.9 1.6-1.2 0.3 0.8 0.9 2.4 1.2 3.2l0.9-2.9 0.8 0.3c-0.3 0.7-0.9 2.2-1.2 2.9 2.7 0.4 2.4-2.5 3-4.1q-3.7-0.1-7.3-0.4zm11.2 4c2.1-0.3 4.1-0.4 6.2-0.2q0.4-1.7 0.9-3.3-2 0.4-3.8 0.8c-2-3.1-2.4 1.2-3.3 2.7zm10.2-3.3c0.1 0.9 0.3 2.5 0.3 3.4 2.4-0.3 4.9-1.7 6.9 0.4-0.1-1.3-0.2-2.6-0.3-3.9-1 0-3 0.1-4 0.2-0.1 0.5-0.3 1.5-0.3 2-1.5 0.6-1.9-1.3-2.6-2.1zm8.1 2.4v0.7c0.4 0 1.3 0.1 1.7 0.1l-0.3-0.8c-0.3 0-1 0-1.4 0z"/><path class="c" d="m430.8 195.5c5.9-0.3 11.8-0.1 17.7-0.2 0 6.8 0.1 13.5 0 20.3-5.9-0.1-11.8 0-17.7-0.2-0.1-6.6-0.1-13.3 0-19.9z"/><path class="c" d="m534.1 195.4c5.8-0.1 11.6-0.1 17.4-0.1-0.1 7 0 14-0.1 21-5.7-0.1-11.4-0.1-17.2-0.1-0.1-6.9 0-13.9-0.1-20.8z"/><path class="c" d="m533.8 273.2c5.8 0 11.6 0 17.5 0-0.1 5.4-0.1 10.9-0.1 16.4q-8.7 0.2-17.3 0c-0.3-5.5-0.1-10.9-0.1-16.4z"/><path class="c" d="m816.5 311.1q1.1-2.5 2.3-5c-0.7 31.3-3.1 62.5-4.4 93.8-0.1 2.3-2.9 1.7-4.4 1.9-7.8-0.3-15.9 0.7-23.4-2.2-2.5-3.9-5-7.8-5.9-12.4-1.4-6.7-0.3-13.5-0.8-20.2 0-3.5-3.1-5.6-4.9-8.2-1-3.5-0.1-7.2-0.1-10.8 0.6-13.6 1.5-27.2 1.9-40.9 8.2 1 16.4 1.5 24.6 2.4 5 0.6 10.1 0.2 15.1 1.6z"/><path class="c" d="m439.3 306.7c3.1-1.4 0.1 3.4 0 0z"/><path class="c" d="m475.5 312.5q1 0.8 0 0z"/><path class="c" d="m481.5 312.4q0.9 0.8 0 0z"/><path class="c" d="m498.3 312.3c3.1-1.4 0 3.3 0 0z"/><path class="c" d="m458.4 318c3-1.6 0.2 3.4 0 0z"/><path class="c" d="m475.2 354.5q0.5 0.4 0 0z"/><path class="c" d="m502.2 355.6q0.8 0.8 0 0z"/><path class="c" d="m719 355.6q24.5 0.8 49.1 0.8c2.1-0.3 3 1.8 4.2 3.1-0.8 7.8-0.3 15.7-0.5 23.5 0.2 3-0.4 6.6 2.1 8.7-0.5 0-1.4-0.1-1.9-0.1-0.4 2.2-0.7 4.6-2 6.5-1.6 0.7-3.3 0.3-5 0.4-15.7-0.4-31.5 0.2-47.2-0.9l0.2-1c0.8-3.8 1.2-7.7 1-11.6-0.3-9.8-0.1-19.6 0-29.4z"/><path class="c" d="m474.1 357.2q2.5-0.8 1.7 1.6-2.6 0.8-1.7-1.6z"/><path class="c" d="m509.4 357.9c2.9-1.6 0.2 3.4 0 0z"/><path class="c" d="m475.3 367.2q0.6 0.9 0 0z"/><path class="c" d="m487.4 372.3q0.5 0.8 0-0.1z"/><path class="c" d="m471 378.2c15.1-0.4 30.3-0.2 45.4-0.2-0.6 7.4-0.1 14.8-0.6 22.2-14.9-0.2-29.8 0.2-44.8-0.3-0.1-7.3 0-14.5 0-21.7zm12.8 4.8c-0.4 3.2 2.7 5.1 5.6 4.5 0.5-0.4 1.3-1.2 1.8-1.6q0.3-2.3 0.4-4.6l-0.6-0.1c-1.9-2.9-7.5-2.4-7.2 1.8zm23.8-2.6c-0.8 2.1-1 5.4 1.5 6.5 1.6 1.3 3.5-0.4 5.1-0.8q0-2.2 0.1-4.4-1.1-1-2.1-2.1c-1.5 0.2-3.4-0.5-4.6 0.8zm-35 2.6c-0.6 2.9 2.5 3.7 4.5 4.7 1.3-1.6 3.3-3.4 2.4-5.7-0.4-1.6-2.4-1.8-3.5-2.7-1.3 1.1-3.8 1.6-3.4 3.7zm22.9-2c-0.5 2-0.9 4.7 1.3 5.9 1.5 1.5 3.7 0.1 5.4-0.2l-1.4-0.9 1.8-0.1q-0.4-2.7-1.1-5.3c-2-0.8-4.3-1.1-6 0.6zm-22.1 16.1c-0.4 0.1-1.1 0.2-1.4 0.2 2.2 0.6 4.5 1.1 6.7 0.3 1.8-2.7 0-7.8-3.8-6.1-2.7 0.7-2.2 3.6-1.5 5.6zm11.1-5.3c-0.4 1.9-1.1 4 0 5.7 2.2 1.5 5.3 1 6.4-1.5l0.8-0.3q-0.8-1.9-1.6-3.9-1.6-0.5-3.1-0.9c-0.6 0.2-1.9 0.7-2.5 0.9zm11.7 5.3c1.1 1.9 3.3 1.1 5 0.9 1.2-2.2 1.7-4.6 0-6.6-0.6-0.2-1.8-0.5-2.4-0.6-2.9 0.6-4.9 4-2.6 6.3zm11.3-4.4c-0.7 2 0.3 4 1.2 5.7q2.3 0 4.5-0.1c0.3-1.9 2-4.3 0.3-5.9-1.6-1.8-4.5-1.4-6 0.3z"/><path class="c" d="m385.6 399.6c3.5-2.5 8.6-2.8 12.2-0.5 5.4 3.5 6.9 12.2 1.9 16.6-3 3.3-7.8 3.5-12 2.9-4.4-2-7.2-6.4-7.2-11.2 1.1-2.9 2.4-6 5.1-7.8zm3.9 4c-3.5 1.8-2.9 7.8 0.9 9 3 1.3 7-1.3 6.6-4.6 0.3-3.8-4.4-6-7.5-4.4z"/><path class="c" d="m577.4 409c-0.5-6.6 6.3-12.3 12.7-11.2 3.8 0.8 6.4 3.8 9.3 6.1 0.1 2.7 0.2 5.4 0 8.1-1.4 3.1-3.4 6.2-6.8 7.3-3.2 0.8-6.4 0.6-9.6 0.4-2.4-3.2-5.9-6.3-5.6-10.7zm8.7-4.8c-3 1.2-4 5.3-1.8 7.7 2.2 2.6 7.1 2.1 8.5-1.1 2.5-3.9-3-8.8-6.7-6.6z"/><path class="c" d="m486.2 404.2q0.9 0.9 0 0z"/><path class="c" d="m532.5 415.3c8.9 0.1 17.7 0.1 26.6 0.1 0.4 0 1.2 0 1.6 0q0 2.2 0.1 4.5c-9.4-0.2-18.9-0.2-28.3-0.2q-0.1-2.2 0-4.4z"/><path class="d" d="m6.5 170.5c3-1.3 6.4-0.8 9.5-0.8 25 0.8 50 0.6 75 1.4 53.7 0.7 107.4 1.7 161.1 2.7-0.4 19.7 0.2 39.5-1 59.2 0.2 12-0.7 24 0.1 36 1.9 5.7 9.3 5.7 14 7.9 2.9 0.5 2.3 3.9 2.5 6.1 0 8.2 0.1 16.5-0.5 24.7-12.4-0.1-24.8-0.3-37.3-0.5-13.6-0.8-27.3-0.3-41-0.8-15.3-0.8-30.6-0.4-45.9-0.7-11 0.1-22-0.9-33-0.8-32.3 0.1-64.6-1.1-97-1.4-3.4-0.4-8.8 0.9-10-3.6-0.7-6.9 0-13.9 0.1-20.9 0.2-33.7 1.3-67.3 1.5-101 0.2-2.5-0.4-5.7 1.9-7.5zm8.8 9.8c-0.2 0.3-0.5 0.8-0.7 1-1 6.2-0.4 12.5-0.7 18.7-0.7 29.6-1.2 59.3-1.6 89 0 1.9 0.1 5 2.8 5 11.2 0.5 22.6 0.2 33.9 0.6 23.3 1 46.7 0.4 70 1.5 16.3 0.2 32.7 0.2 49 0.6 23 1.1 46 0 69 1.4 2.3 0.2 5.8-0.2 5.6-3.2q0.5-30 0.9-59.9c0-16.4 0.9-32.7 0.8-49 0.2-1.4-0.9-2.7-2.4-2.6-18.6-0.6-37.2-0.9-55.8-1-17.7-0.8-35.4-0.8-53-0.9-19.4-1.1-38.7-0.4-58.1-1.1-18.3-0.9-36.7-0.3-55-0.9-1.5 0.2-3.4-0.3-4.7 0.8z"/><path class="d" d="m581.2 284.4c2.5 0.1 4.9-0.5 7.4-1q0.4 1.7 0.2 3.5c-2.3 0-4.6-0.5-6.8-1.3l-0.1 0.9q-2.4 0-4.7 0c-0.1-0.7-0.2-2.1-0.2-2.8 0.4 0.7 1.3 1.9 1.7 2.5q1.2-0.9 2.5-1.8z"/><path class="d" d="m574.1 284.1c1.5-1.4 2.6 1.6 1.5 2.6-1.6 1.3-2.8-1.6-1.5-2.6z"/><path class="d" d="m402.2 287.5c2.5-0.2 5-0.2 7.5 0.2l0.8 2q-2.5-1.1-4.1 0.9c-0.2-0.1-0.6-0.2-0.8-0.3q-1.8 0.4-3.6 0.8 0-1.9 0.2-3.6z"/><path class="d" d="m450.6 301.3q2-1 4.1-2.1c-0.2 1.5-0.3 2.9-0.4 4.3-1.4 0.1-2.9 0.2-4-0.7-0.7 0.3-2.1 1-2.8 1.3q-0.1-1.9-0.2-3.7 1.7 0.4 3.3 0.9z"/><path class="d" d="m467.3 299.3q1.7 0.1 3.5 0.3l-0.5 0.9c1.7 0.1 3.5 0.2 5.2 0.4-0.5 1.5-1.4 2.9-3.1 3.5q0.3 2.5 0.6 5c-2.2-0.6-6.3 0.5-6.5-2.7q1-1.2 2.2-2.1c-0.1 0.9-0.3 2.8-0.5 3.7q1.8-1.7 3.7-3.4l0.1-1.3q-3.6 0.1-7.2 0c-0.3 1.6-0.6 3.3-1 5q-2.8 0.2-5.7 0.6-0.8-1.6-1.6-3.1 0 3.2-2.7 3.2c-1.6-2.6 2.3-3.5 3.9-4.2q0.7 1.1 1.4 2.2c1.8-2.3 2.9-0.4 3.9 1.2 0.6-2.1 2.6-6.4-1.8-5 0.1-0.8 0.1-2.4 0.2-3.2 1 0.4 3.1 1 4.1 1.3 0.2 0.3 0.6 0.8 0.8 1.1q1.3-1.1 2.4-2.4c-0.4-0.2-1.1-0.8-1.4-1z"/><path class="d" d="m460.7 302.8c-1.7 0.6-1.5-2.8 0-2.3 0 0.6 0 1.7 0 2.3z"/><path class="d" d="m434.6 303.4c-1-1-0.1-3.4 1.4-2.7q1.4 1.4 0.6 3.1c-0.5-0.1-1.5-0.3-2-0.4z"/><path class="d" d="m444.5 301.3q0.9 1 0 0z"/><path class="d" d="m458.1 303.6c-1.6 0.5-1.7-3-0.1-2.3 0 0.5 0.1 1.7 0.1 2.3z"/><path class="d" d="m445.9 302.4c3.3 0.3-1.7 2.9 0 0z"/><path class="d" d="m434.1 305.4c0.8-0.2 2.3-0.7 3.1-0.9-0.3 0.6-0.9 1.8-1.2 2.3 0.4 0.8 1.1 2.2 1.4 2.9-2.2-0.5-3.2-2.1-3.3-4.3z"/><path class="d" d="m445.3 305c2.1 0 4.3 0.2 5.7 2l1.2-0.6c0.1 0.7 0.2 2.1 0.2 2.8q-2.2-0.1-4.4-0.2c0-0.7-0.1-2.1-0.2-2.8-0.6 0.5-1.8 1.3-2.4 1.7 0-0.7-0.1-2.2-0.1-2.9z"/><path class="d" d="m564.7 305.7c4.6 0.6 9.2-0.7 13.7 0.3 2.1-0.3 4.1-0.4 6.1 0.4 0.5-0.3 1.4-0.9 1.8-1.2-0.4 0.6-1.1 1.8-1.5 2.4q1 1.3 2 2.5-1.8-0.2-3.6-0.5c-0.2-0.5-0.4-1.6-0.6-2.1-0.7-0.2-2.3-0.7-3-0.9-0.1 1.9 1.3 2.9 2.9 3.6-2.6-0.3-5.9-0.4-5.8-3.9q-0.8 2.1-1.6 4.1c-0.1-1.1-0.4-3.4-0.6-4.5-0.6 1.4-1.2 2.8-1.8 4.3q-1-1.9-1.9-3.7c-0.6 1.2-1.1 2.4-1.6 3.7q-0.7-2-1.5-4c-0.2 1-0.5 3-0.7 4.1-0.6-1.2-1.2-2.3-1.8-3.5 0 0.9-0.1 2.6-0.1 3.5-1.7-1.1-1.1-3.2-0.4-4.6z"/><path class="d" d="m561.6 309.9c-0.7-1.1-0.1-3.8 1.5-3.6 0.9 1.1 0.2 4.1-1.5 3.6z"/><path class="d" d="m476.5 311.4c0.2-0.2 0.8-0.5 1.1-0.7q1.7 0.1 3.4 0.2c1.5 0.6 3 0.2 4.4-0.2-0.1 0.8-0.3 2.3-0.5 3.1 2.2 0.9 0.9-2.5 1.5-3.6 1.9 0 1.2 2.3 1.6 3.6q-1.4 0.8-2.8 1.7c-0.6-0.5-1.9-1.5-2.5-2.1v1.6q-1.5-0.3-3-0.6-0.8-1.6-1.6-3.2 0.4 2.8-1.9 4.1 0.2 1.3 1.8 1.9c-0.1 0.8-0.3 2.3-0.3 3-1.3-0.2-3.5 0.6-3.8-1.2 0.1-1.3 0.6-2.6 1-3.8-0.6-0.2-1.9-0.5-2.5-0.7 0.2-1.3 0.4-2.7 0.6-4 0.8 0.2 2.6 0.7 3.5 0.9zm-1 1.1q1 0.8 0 0m6-0.1q0.9 0.8 0 0m-5.4 5.7q0.8 0.8 0 0z"/><path class="d" d="m496.1 312.6c1.2-1.8 2.9-2.6 4.9-1.8-0.3 1.7-0.7 3.4-1.4 4.9q-1.6-1-3-2.1c-0.7 0.4-2.1 1.4-2.8 1.8-0.1-0.9-0.1-2.8-0.1-3.8-0.3 0.8-0.9 2.4-1.1 3.2q-0.9-1.1-1.8-2.2c1.9-1.1 4.1-2.8 5.3 0zm2.2-0.3c0 3.3 3.1-1.5 0 0z"/><path class="d" d="m512.8 310.9c0.5-0.1 1.3-0.4 1.7-0.5 0 1.4-0.9 3.8 1.4 3.6 0.1-0.8 0.3-2.2 0.5-3 0.4-0.1 1.2-0.5 1.6-0.7q0.2 2.4 0.3 4.8-2.6-0.2-5.1-0.3-0.2-2-0.4-3.9z"/><path class="d" d="m518.7 310.9c1.1 0.1 4.4-1.4 3 0.8q-0.9 0.8-1.8 1.5c0.7 0.4 2.3 1.3 3 1.8-3.4 1.6-4.3-1.5-4.2-4.1z"/><path class="d" d="m523.2 313.6c-1.1-2.1 0.4-2.9 2.3-3.4-0.1 1.9-0.1 3.9-1.1 5.6-1.1-0.2-1-1.4-1.2-2.2z"/><path class="d" d="m439.6 311.3c2.4-0.7 0.1 4.9-1.7 2.8-1.5-1.1 0.8-2.3 1.7-2.8z"/><path class="d" d="m441.1 315.6c-0.3-2.5 1.2-4.4 3.5-4.9q0.1 2 0.3 4c-1 0.2-2.8 0.7-3.8 0.9z"/><path class="d" d="m445.1 314.2c0.9-2.8 3.7-3.9 6-1.8 1.5-0.8 3-1.2 4.6-1.5-0.2 1.5 1 4.4-1.5 4.1-0.2-0.6-0.5-1.7-0.7-2.3q-1.7 1.5-3.5 3c-0.3-1-0.8-2.9-1-3.8-0.4 0.8-1.1 2.4-1.4 3.2-0.6-0.2-1.9-0.7-2.5-0.9z"/><path class="d" d="m459.5 311.4c2-1.7 1.5 3.7-0.2 3.2q-0.9-1.7 0.2-3.2z"/><path class="d" d="m507.9 313.8c1-1.2 1.8-2.6 3.2-3.2 0.4 1.5 0.7 3.1 1 4.7-0.5-0.4-1.6-1.2-2.2-1.6-1.9 1.9-4.9 1.4-5-1.7 0.8 0.4 2.2 1.3 3 1.7z"/><path class="d" d="m466.2 314.6c1-1.4 1.4-3.8 3.8-3.5-0.5 0.8-1.6 2.3-2.1 3.1 0.6 0 1.9-0.1 2.6-0.1-0.3 0.7-0.8 2-1 2.6 0.9-0.2 2.9-0.7 3.9-1q0.1 2-2.1 2.5 0.8 0.7 1.6 1.4c-0.8 0.1-2.4 0.4-3.3 0.6-0.1-0.9-0.3-2.6-0.5-3.4-0.3 1-1 3-1.3 3.9q-0.4-1.6-0.8-3.2c1.2-0.4 4.4-2.7 1.1-2.6z"/><path class="d" d="m503.5 312.5q1 0.6 0 0z"/><path class="d" d="m434.2 320.5c0.6-1.2-0.5-4.6 1.7-4.4 0.8 1.8-0.7 3.1-1.7 4.4z"/><path class="d" d="m437.8 316.3q2.6-0.1 5.2-0.1-1.5 1.5-3.7 1.7c0 0.7 0.1 2.1 0.2 2.8q-1.1-0.6-2.1-1.3 0.2-1.5 0.4-3.1z"/><path class="d" d="m479.3 316.6c0.8-0.1 2.5-0.6 3.4-0.8q-1.5 2.5-2.7 5.1-0.5-2.1-0.7-4.3z"/><path class="d" d="m484.3 316.3c1.7 0.2 1.2 3.3-0.3 3.7-1.8-0.5-1.6-3.6 0.3-3.8z"/><path class="d" d="m492.1 317.6c0.5-0.4 1.4-1.1 1.9-1.5q0.5 2.5 0.9 5.1-1.4-1.8-2.8-3.6z"/><path class="d" d="m486.2 317q2.4 0.2 4.9 0.4c-0.6 2.3-2.8 2.6-4.8 2.9 0-0.8-0.1-2.5-0.1-3.3zm2.1 1.2q0.7 0.9 0 0z"/><path class="d" d="m496.1 317.1c0.7-0.1 2.2-0.4 2.9-0.6q-0.3 1.9-0.4 3.9c-0.6 0-1.6 0-2.1 0q-0.2-1.6-0.4-3.3z"/><path class="d" d="m543.6 328.8q2.1-0.2 4.1-0.3c-0.4 1.3-0.8 2.5-1.2 3.8q-0.7-1.3-1.3-2.6c-0.1 0.6-0.2 1.9-0.3 2.5-0.4 0-1.3-0.1-1.7-0.2q0.2-1.6 0.4-3.2z"/><path class="d" d="m535.3 329.4q2 0.3 0.8 2.2-2-0.3-0.8-2.2z"/><path class="d" d="m537.8 329.4c3.4 0.2-1.6 3.1 0 0z"/><path class="d" d="m491.5 353.2c3.1-1.4-0.1 3.3 0 0z"/><path class="d" d="m499.8 353.2q2.7 0.6 5.3 1.3-0.6 0.9-1.3 1.9 0.6 2.2 1.1 4.3-2.6 0-5.1-0.1c0.6-1.4 1.9-1.5 3.2-1.2 0.2-0.4 0.5-1.1 0.6-1.4-0.8 0.1-2.6 0.2-3.4 0.3 0.3-0.6 1-1.8 1.4-2.4q-0.9-1.3-1.8-2.7zm2.4 2.4q0.8 0.8 0 0z"/><path class="d" d="m515.4 356c0.2-0.4 0.5-1.4 0.7-1.9 0 0.5 0.1 1.3 0.2 1.7z"/><path class="d" d="m380.1 356.1h0.7c-0.2 15.5-0.1 31.1 0 46.7 1.7-1.9 3.5-3.8 5.7-5.1 3.3-1.9 7.6-1.8 11-0.2 2.4 1.3 3.7 3.9 5.7 5.6l0.5 0.1 0.2 0.6c0.1 3.1 0.6 6.5-0.8 9.5-1.1 2.4-3.2 4-5.1 5.7 3-0.1 6.1 0 9.1-0.1-4.2 1.2-8.6 0.2-13 0.4-2.5 0.2-4.9-0.1-7.3-0.8l0.9 0.1c4.2 0.6 9 0.4 12-2.9 5-4.4 3.5-13.1-1.9-16.6-3.6-2.3-8.7-2-12.2 0.5-2.7 1.8-4 4.9-5.1 7.8l-0.3 0.6c0-17.3 0.4-34.6-0.1-51.9z"/><path class="d" d="m507.9 360.7c0.4-1.9 0.9-3.9 1.8-5.6 2.5 0.2 2.3 3.3 2.8 5.1-1.5 0.1-3.1 0.3-4.6 0.5zm1.5-2.8c0.2 3.4 2.9-1.6 0 0z"/><path class="d" d="m492.5 357.4q0.9 0.8 0 0z"/><path class="d" d="m494.5 355.9c1 1.4 0.6 3.1 0.8 4.7-1 0.2-3 0.7-4 0.9q-0.5-2.9 2.7-2.4c0.1-0.7 0.3-2.4 0.5-3.2z"/><path class="d" d="m532.1 361c1.4-1.2 4.7-0.5 4.4 2l-1.9-0.5c0.5 2.5 3.3 6.9-0.5 8.2-0.6-0.5-1.8-1.5-2.4-2 1-0.1 2.9-0.3 3.9-0.3q-1.8-0.6-3.5-1c1.9-1.9 0.4-4.3 0-6.4z"/><path class="d" d="m470 363.9c1-1.2 2.3-2.2 3.5-3.3l0.3 2.6c-0.6 0.1-1.8 0.3-2.4 0.4-0.5 3.3 0.5 6.4 1.2 9.5-3.5-1.7-2.6-6.1-2.6-9.2z"/><path class="d" d="m473.6 363.9c0.9-2.4 3.5-1.5 5.4-1.8 6.3-0.7 12.6 0.3 19 0.1 6.1 0 12.3-1.3 18.3 0.4-0.5 4.2 2 10.3-2.7 12.7q1.7 1.1 3.6 1.9c-0.7 7.7 0.1 15.4-0.5 23.1-0.5 0.3-1.4 0.8-1.9 1.1 1.5 1.8 0 3.9-1.6 5 0.5-1.6 1.1-3.3 1.6-4.9-0.9-0.1-2.6-0.1-3.4-0.1q0.1 2.3 0.4 4.7c-1.8-0.1-3.5-0.2-5.2-0.4q1.7-0.7 3.6-1.2l-1.4-1.4 2.3-0.5c-1.2-0.1-2.4-0.1-3.6-0.2l0.2-1.2c-1.3 0.1-3.9 0.2-5.2 0.2l2.2 3.3c-1.9-0.3-3.1-1.6-3.2-3.5-9.8-0.8-19.7 0.7-29.5-0.1-2 0.2-2.8-1.5-2.5-3.2 0-6.3-0.1-12.6 0-18.9-0.4-2.5 2.6-1.9 4-2.3q-0.2-2.3-0.3-4.5c1.9-0.1 3.7-0.2 5.5-0.4l-0.3 1.2c-0.9 0-2.6-0.2-3.4-0.3q-0.1 2.1-0.4 4.1c3.7-0.3 7.5 0.3 11.2-0.3q2-0.9 3.8-2.1c-1.6-0.2-3.3-0.3-4.9-0.4 0-1-0.6-2.2 0.1-3.1 2.2 0.1 4.5 0.6 6.7 0.9q-0.9 2.4-1.8 4.9 3.4 0 6.8-0.1c-0.9-0.7-2.6-2-3.5-2.7 2.9-2.9 7.5-1.1 11.2-1.7q-0.4 2.3-0.8 4.5 2.9-0.1 5.8-0.2c-1.2-1.8-2.6-3.7-5-3.9 2.5-0.2 5-0.4 7.5-0.5 0 0.4 0 1.3 0 1.7q1.9-0.2 3.8-0.4-0.9-2.3-1.5-4.7 0-1.8 0-3.7-1.5-0.5-3-1.1c-5.2-1.4-10.7-0.1-16-0.7-7.1-0.8-14.3-0.3-21.4 0.7zm13.8 8.4q0.5 0.8 0 0m8.1 1q0.3 2 2.2 0.8-0.3-2-2.2-0.8zm5.9-0.2c-0.3 3.3 3.1-1.2 0 0m-30.4 5.1c0 7.2-0.2 14.4 0 21.7 15 0.5 29.9 0.1 44.8 0.3 0.5-7.4 0-14.8 0.6-22.2-15.1 0-30.3-0.2-45.4 0.2z"/><path class="d" d="m565.4 365.5c-0.7-1.7-1.7-3.7 1.1-4.3-0.2 0.7-0.6 2.1-0.8 2.8l1.5-0.3c0-0.4-0.2-1.3-0.2-1.8 1.8 0.3 4.7-0.1 3.4 2.8-1.7-0.1-3.3 0.4-5 0.8z"/><path class="d" d="m572.7 365.5c-2.4-1.1-1.5-3.1 0.2-4.3 0.5 0.5 1.7 1.4 2.2 1.9-0.3 0.6-1 1.9-1.4 2.6 0-0.8 0-2.2 0-3-0.3 0.7-0.7 2.1-1 2.8z"/><path class="d" d="m576 363.8c-0.4-1.9 1-2.3 2.6-2.1l0.3 2.1c0.2 0 0.7 0 0.9 0 0.2-0.5 0.8-1.4 1.1-1.8q1.9 0.2 3.8 0.5c-0.3 1.1-0.5 2.2-1.1 3.2 0.2-5.4-1.6-0.3-3.6-0.7-1.1 0.1-4 0.5-4-1.2z"/><path class="d" d="m541.6 366.8c-2.1-0.6 0.8-2.9 1.9-1.7q0.1 1.7-1.9 1.7z"/><path class="d" d="m552.4 365.3q0.9 1 0 0z"/><path class="d" d="m551.8 367.1c0.9-0.9 2 0.9 1.8 1.7-0.2 1.5-3.2 2.1-3.3 0.4 0.7-0.6 1.4-1.1 1.5-2.1z"/><path class="d" d="m544 369c-0.5 2.2-5.3 0.8-3.6-1.1 1.2-0.2 3.2-0.3 3.6 1.1z"/><path class="d" d="m479.1 371.9q0.9 0.9 0 0z"/><path class="d" d="m476.7 374c2.5-2.4 2.5 3.4-0.1 1.3 0-0.3 0.1-1 0.1-1.3z"/><path class="d" d="m483.8 383c-0.3-4.2 5.3-4.8 7.2-1.8-1.8-0.3-3.5-0.7-5.3-0.8-0.6 1.6-1.3 3.4-1 5.2 2.2 0.3 4.3 0.1 6.5 0.3-0.5 0.4-1.3 1.2-1.8 1.6-2.9 0.6-6-1.3-5.6-4.5z"/><path class="d" d="m576.9 381.3c0.1-1.6 3-1.9 3.2-0.2-0.1 1.6-3.1 1.9-3.2 0.1z"/><path class="d" d="m496.8 386.9c-2.2-1.2-1.8-3.9-1.3-5.9q0.2 2.3 0.5 4.7 2.4 0 4.8 0.1l1.4 0.9c-1.7 0.3-3.9 1.7-5.4 0.2z"/><path class="d" d="m576.7 383.4q1.8-0.5 3.6-1c0 2.6 0.4 5.6-2.1 7.4 0.6 0.2 1.8 0.7 2.5 0.9-0.9 0-2.5-0.1-3.4-0.1 0.1-0.4 0.1-1.3 0.2-1.8 0.6-0.4 1.8-1.2 2.5-1.6-0.9-0.2-2.7-0.6-3.6-0.8q1.6-1.1 3.3-2.2c-0.7-0.2-2.2-0.6-3-0.8z"/><path class="d" d="m484.5 391.8c0.6-0.2 1.9-0.7 2.5-0.9q1.5 0.4 3.1 0.9-2.7 0-5.4 0.1c0.1 1.6-0.2 3.3 0.6 4.8 1.8 0.8 3.8-0.2 5.6-0.7-1.1 2.5-4.2 3-6.4 1.5-1.1-1.7-0.4-3.8 0-5.7z"/><path class="d" d="m496.2 397.1c-2.3-2.3-0.3-5.8 2.6-6.3 0.6 0.1 1.8 0.4 2.4 0.5-2.4 0.3-5.6 1-5 4.2 1.6 1 3.3 1.7 5 2.5-1.7 0.2-3.9 1-5-0.9z"/><path class="d" d="m535.7 397.4c7.3 0 14.5 0.1 21.8 0q0 3.6 0 7.3c4.7 1.6 2.7 7 3.2 10.7-0.4 0-1.2 0-1.6 0-3-2.1-6.7-1.7-10.1-1.7-5.3 0.1-10.5 0.1-15.8 0.1 0-2.5 0.1-5.1 0.3-7.6 2.3-2.4 1.9-5.8 2.2-8.8z"/><path class="d" d="m472.7 402q3.6 0.3 7.3 0.4c-0.6 1.6-0.2 4.5-3 4.1 0.3-0.7 0.9-2.2 1.2-2.9l-0.8-0.3-0.9 2.9c-0.3-0.8-0.9-2.4-1.2-3.2-0.4 0.3-1.2 0.9-1.6 1.2q1 1.1 2 2.3c-3.7 1-2.9-2.5-3-4.5z"/><path class="d" d="m483.9 406c0.9-1.5 1.3-5.8 3.3-2.7q1.8-0.4 3.8-0.8-0.5 1.6-0.9 3.3c-2.1-0.2-4.1-0.1-6.2 0.2zm2.3-1.8q0.9 0.9 0 0z"/><path class="d" d="m502.2 405.1c0.4 0 1.1 0 1.4 0l0.3 0.8c-0.4 0-1.3-0.1-1.7-0.1z"/><path class="e" d="m252.1 173.8c7.3 0.9 14.6 0.1 21.9 0.6 1.4 0 2.6 1 3.8 1.7-0.1 11.5 0.1 23-0.2 34.6-0.4 6.7-0.4 13.5-0.2 20.2-0.1 15.5-0.4 31.1-0.3 46.6 0.8 0 2.4 0 3.2 0.1q-1.7 0.8-3.5 1.6c-0.3 7.9 0 15.9-0.2 23.8 0.3 1.9-0.8 3.4-1.7 4.8q-3.9-0.1-7.7-0.1c0.6-8.2 0.5-16.5 0.5-24.7-0.2-2.2 0.4-5.6-2.5-6.1-4.7-2.2-12.1-2.2-14-7.9-0.8-12 0.1-24-0.1-36 1.2-19.7 0.6-39.5 1-59.2z"/><path class="e" d="m344.5 205.2q2.4 0 4.9 0.1c4.1 0.3 8.1 0.3 12.2 0.3 0 3.1-0.1 6.2 0 9.3 0.2 19.1-0.1 38.2 0 57.2q-0.1 4.5-0.1 9c-3.1 0.1-6.2 0.2-9.4 0.3-3.1-0.3-6.3-0.6-9.5-0.1-3.5 0-6.9-0.2-10.4-0.3 0-3.2-0.1-6.3-0.2-9.5-0.4-10.8 0-21.6-0.1-32.5-0.2-8.1 0.8-16.2 0.7-24.3q0.1-4.6 0.2-9.2 5.8-0.1 11.7-0.3z"/><path class="e" d="m569.4 210.5c3.3-0.2 6.6-0.5 9.9-0.9q6 0 12 0c-0.1 0.9-0.3 2.5-0.4 3.3q-5.1 0-10.1 0c0 0.9-0.1 2.8-0.1 3.7q2.3 0.1 4.7 0.2c-0.3 18.7-0.1 37.4-0.2 56.1q-2.2 0.1-4.5 0.2 0 2.2 0 4.4c3.3 0 6.7-0.1 10.1-0.3 0 0.5 0.1 1.4 0.1 1.9l0.1 1.6c-3.5 0-7 0-10.5-0.3-3.3-1.2-6.7-1.7-10.1-1.8-2.5-12.2 0.6-24.4-0.2-36.6 0.6-10.5-1.4-21-0.8-31.5z"/><path class="e" d="m437.3 300.7c2.1 0.3 4.5 1.2 6.4-0.3-0.1 1-0.3 3-0.5 4q-1.8-1.2-3.5-2.4-0.9 1.1-1.8 2.3c-0.2-0.9-0.4-2.7-0.6-3.6z"/><path class="e" d="m437.4 308.5c-1-3.8 3-2.9 5.3-3.1q-0.2 1.6-0.4 3.2c-1.6 0-3.3 0-4.9-0.1zm1.9-1.8c0.1 3.4 3.1-1.4 0 0z"/><path class="e" d="m434.4 311.2c1.2-0.4 2.6-0.8 3.8 0l-2.8 0.6c3.9 1.7-1.7 3.3-0.8 1-0.1-0.4-0.2-1.2-0.2-1.6z"/><path class="e" d="m507.5 311.5q0.8 1 0 0z"/><path class="e" d="m540.2 328.7c2-1.1 1.8 2.8 0.5 3.3-1.7-0.1-1.6-2.6-0.5-3.3z"/><path class="e" d="m472.9 354.2c0-2.4 2.7-1.3 4.3-1.6-1.6 2.4 0.8 6.5-2.1 7.9-2.6-0.2-1.7-3.1-0.6-4.5q-0.9-0.9-1.6-1.8zm2.3 0.3q0.5 0.4 0 0m-1.1 2.7q-0.9 2.4 1.7 1.6 0.9-2.4-1.7-1.6z"/><path class="e" d="m493.2 356.3c-0.3-1.1 0.8-5.1 2.2-3.3 0.2 1.3-0.7 3.6-2.2 3.3z"/><path class="e" d="m508.3 353.2c1.7-1 3.7-0.3 4 1.8q-1.6-0.6-3.1-1.2l-0.5 2.2c-0.1-0.7-0.3-2.1-0.4-2.8z"/><path class="e" d="m416.1 359.6c-0.4-1.4-1-2.9 0.4-4 0 0.9 0 2.7 0 3.6 0.5-0.1 1.5-0.1 2-0.2q0.1-1.6 0.2-3.3 1.1 2 2.2 4-2.4 0-4.8-0.1z"/><path class="e" d="m425 359.5c0.2-2.9 3.5-2.5 5.4-3.4q0.1 1.7 0.3 3.5c-1.4-1-3-1.4-4.6-1.8v0.6c0.8 0.3 2.3 1 3 1.3-1 0-3.2 0-4.3 0q-1.6 0-3.3 0.1c0-0.8-0.1-2.6-0.2-3.4q1.8 1.5 3.7 3.1z"/><path class="e" d="m557.7 362.1c0.8-0.2 1.7-0.4 2.6-0.4q0.5 2 1 4l-2-0.3c0.2-0.6 0.4-1.9 0.5-2.6-0.5-0.2-1.6-0.5-2.1-0.7z"/><path class="e" d="m484 370.2c-4-0.2-3.1-6.7 0.6-5.6 3.6 0.2 2.1 4.7 0.2 6.3-0.7 0.9-0.1 2.1-0.1 3.1 1.7 0.1 3.3 0.2 4.9 0.4q-1.8 1.2-3.8 2.1l-0.3-2.1-0.7 0.1c-0.3-1.8-2-2.3-3.5-2.9q1.4-0.7 2.7-1.4z"/><path class="e" d="m511 363.9q1.5 0.6 3 1.1 0 1.9 0 3.7l-0.4 1.8c-1.6-0.4-4.1 0.6-5-1.3-0.6-1.4-0.4-3-0.6-4.4 0.8-0.2 2.2-0.7 3-0.9z"/><path class="e" d="m472.6 365.5c1.8-0.3 3.9-1.4 5.2 0.4q-0.1 1.9-0.2 3.7-2.4-0.1-4.8-0.3c0-0.9-0.1-2.9-0.2-3.8zm2.7 1.7q0.6 0.9 0 0z"/><path class="e" d="m491.2 365.8c0.5-0.3 1.3-0.8 1.8-1 0.7 0.2 2.1 0.6 2.8 0.7 0 1.9-0.1 3.9-1.7 5.1q-1.3-0.7-2.6-1.4-0.1-1.8-0.3-3.4zm2.9 1.2q0.9 0.8 0 0z"/><path class="e" d="m501.4 369.4c-0.8-2-2-4.9 1.3-5.4 0 0.9-0.1 2.7-0.1 3.6 0.2 0.1 0.5 0.1 0.7 0.2 0-0.9 0-2.7-0.1-3.6 3.5 0.2 2.4 4.4 1.3 6.4-0.7-0.3-2.3-0.9-3.1-1.2z"/><path class="e" d="m549.7 365.2c3-1.5 0.2 3.3 0 0z"/><path class="e" d="m558 365.5q1.8 0.6 3.6 1.3-0.7 2.2-1.4 4.5-1.4-1.5-2.6-3c0.7 0.1 2 0.4 2.7 0.6 0-0.4-0.1-1.3-0.1-1.7-0.5 0.1-1.5 0.2-2 0.3z"/><path class="e" d="m404 367.7q2.1 0 4.2-0.1 0.3 3.5 0.5 6.9c7 0.2 14.1 0.1 21.1 0q3.2 0 6.5 0 0.1-3.5 0.2-7 2.8 0.1 5.7 0.2c0.4 12-1.3 24-0.6 36-12.6-0.2-25.1-0.3-37.7 0.1l-0.2-0.6c-0.4-7.7-0.1-15.3-0.1-23 0.1-4.2 0.3-8.3 0.4-12.5z"/><path class="e" d="m518.6 376.8q3 0.1 6 0.1 0.1 3.5 0.1 7 3.5-0.1 6.9-0.1c0.9 0 2.7 0 3.5 0q2.8 0.1 5.5 0.1 2 0 4 0 2.3 0 4.7 0 2-0.1 4-0.1 2.4 0 4.8 0 2 0 4 0 3.2 0 6.4 0 0.2-3.3 0.4-6.6 3.1 0 6.2 0c0.2 14.2 0.2 28.4-0.3 42.6q2.7 0 5.3 0.1 0.6-0.9 1.2-1.8c-3.1-2.3-5.1-6.1-4.8-9.9 0.2-6 5.6-11.1 11.6-11.4 4.7-0.2 8.5 3.4 11.4 6.7 0.2-8.1-0.1-16.3 0.1-24.4l0.5 0.2c-0.8 10.9 0.8 21.9-0.7 32.7 0.2-2.7 0.1-5.4 0-8.1-2.9-2.3-5.5-5.3-9.3-6.1-6.4-1.1-13.2 4.6-12.7 11.2-0.3 4.4 3.2 7.5 5.6 10.7-3 1.5-6.4 0.9-9.4-0.2-4.3 0.3-8.5 0.4-12.8 0.4q-0.1-2.3-0.1-4.5c-0.5-3.7 1.5-9.1-3.2-10.7q0-3.7 0-7.3c-7.3 0.1-14.5 0-21.8 0-0.2 3 0.1 6.4-2.2 8.8-0.2 2.5-0.3 5-0.3 7.6 5.3 0 10.5 0 15.8-0.1 3.5 0 7.1-0.4 10.1 1.7-8.9 0-17.8 0-26.6-0.1q-0.1 2.2 0 4.4-6.2 0.1-12.3 0.1c0-9.6 0-19.2 0.1-28.8-0.1-2.6 0.3-5.5-1.7-7.6q0-3.3 0-6.6z"/><path class="e" d="m507.6 380.4c1.2-1.3 3.1-0.6 4.6-0.8q1 1.1 2.1 2.1-0.1 2.2-0.1 4.4c-1.6 0.4-3.5 2.1-5.1 0.8-2.5-1.1-2.3-4.4-1.5-6.5z"/><path class="e" d="m472.6 383c-0.4-2.1 2.1-2.6 3.4-3.7 1.1 0.9 3.1 1.1 3.5 2.7 0.9 2.3-1.1 4.1-2.4 5.7-2-1-5.1-1.8-4.5-4.7z"/><path class="e" d="m495.5 381c1.8-1.7 4-1.4 6-0.6q0.7 2.6 1.1 5.3l-1.8 0.1q-2.4-0.1-4.8-0.1-0.3-2.4-0.5-4.7z"/><path class="e" d="m485.7 380.4c1.8 0.1 3.5 0.5 5.3 0.8l0.6 0.1q-0.1 2.3-0.4 4.6c-2.2-0.1-4.3 0-6.5-0.3-0.3-1.8 0.4-3.6 1-5.2z"/><path class="e" d="m473.4 397.1c-0.7-2-1.2-4.9 1.5-5.6 3.8-1.7 5.6 3.4 3.8 6.1-2.2 0.8-4.5 0.3-6.7-0.3 0.3 0 1-0.1 1.4-0.2z"/><path class="e" d="m507.5 392.7c1.5-1.7 4.4-2.1 6-0.3 1.7 1.6 0 4-0.3 5.9q-2.2 0.1-4.5 0.1c-0.9-1.7-1.9-3.7-1.2-5.7z"/><path class="e" d="m484.7 391.9q2.7-0.1 5.4-0.1 0.8 2 1.6 3.9l-0.8 0.3c-1.8 0.5-3.8 1.5-5.6 0.7-0.8-1.5-0.5-3.2-0.6-4.8z"/><path class="e" d="m496.2 395.5c-0.6-3.2 2.6-3.9 5-4.1 1.7 2 1.2 4.4 0 6.6-1.7-0.8-3.4-1.5-5-2.5z"/><path class="e" d="m494.1 402.7c0.7 0.8 1.1 2.7 2.6 2.1 0-0.5 0.2-1.5 0.3-2 1 0 3-0.2 4-0.2 0.1 1.3 0.2 2.6 0.3 3.9-2-2.1-4.5-0.7-6.9-0.4 0-0.9-0.2-2.5-0.3-3.4z"/><path class="f" d="m583.3 184.1c7.3-0.7 14.6-0.5 21.9-0.6-0.1 10.7 0.4 21.3-0.7 31.9-0.2-0.8-0.6-2.4-0.8-3.2q-2.1 0.2-4 0.4-0.3-5.5-0.3-10.9l-0.9 0.4-1.6 0.8q1.3-2 2.6-4.1c-0.3-4.2-0.2-9.3-4.1-12-3.2-2.7-7.6-1.4-11.2-2.5z"/><path class="f" d="m324.5 201.4c2.9 0.1 6.8-1.3 8.5 1.9 3.8 0.6 8.1-0.4 11.5 1.9q-5.9 0.2-11.7 0.3-0.1 4.6-0.2 9.2-4.1-0.2-8.2-0.3c0-4.3 0-8.7 0.1-13z"/><path class="f" d="m360.8 204.2c0.9-3.8 4.9-2.9 7.9-2.8 0.6 4.2 0.5 8.5 0.4 12.8 4 0 8-0.1 12 0l-0.1 0.4c-6.5-0.4-13 0.2-19.4 0.3-0.1-3.1 0-6.2 0-9.3-4.1 0-8.1 0-12.2-0.3 3.7-1.1 7.6-0.8 11.4-1.1z"/><path class="f" d="m591.3 209.6q0.3 1.6 0.6 3.1c0.7 0.1 2.3 0.4 3 0.5 0 20.9 0.1 41.9-0.1 62.8-1.5 0.8-3.2 1.4-3.9 3.1 0-0.5-0.1-1.4-0.1-1.9-3.4 0.2-6.8 0.3-10.1 0.3q0-2.2 0-4.4 2.3-0.1 4.5-0.2c0.1-18.7-0.1-37.4 0.2-56.1q-2.4-0.1-4.7-0.2c0-0.9 0.1-2.8 0.1-3.7q5 0 10.1 0c0.1-0.8 0.3-2.4 0.4-3.3z"/><path class="f" d="m453.2 210.8c12-0.6 24-0.2 36 0q-0.1 2.1-0.2 4.2l-0.1 0.9c-13.1-0.2-26.3-0.1-39.5-0.2 0.9-0.2 2.7-0.5 3.6-0.6q0.1-2.2 0.2-4.4z"/><path class="f" d="m324.5 271.6q3.7 0 7.5-0.1c0.1 3.2 0.2 6.3 0.2 9.5 3.5 0.1 6.9 0.3 10.4 0.3-3.1 1.5-6.5 0.9-9.8 1.1-0.1 0.7-0.4 2.2-0.5 2.9q-3.8 0.2-7.7 0c-0.1-4.5 0-9.1-0.1-13.7z"/><path class="f" d="m361.5 281.1q0-4.5 0.1-9c6.4 0.3 12.9 0.4 19.3 0.5h-0.2c-3.8 0.4-7.7 0.3-11.6 0-0.1 4.1 0.4 8.2-0.4 12.2-1.7 1.5-4.5 0.4-6.6 0.5-1.9-3.9-6.6-2.7-10-3.9 3.2-0.1 6.3-0.2 9.4-0.3z"/><path class="f" d="m384.2 274.3c4.6-0.2 9.2-0.9 13.8-1-0.2 6.2-0.2 12.4-0.1 18.6q-6.9-0.1-13.7 0c0.1-5.9 0-11.7 0-17.6z"/><path class="f" d="m461.5 310.7c0.9 0 2.8 0.2 3.8 0.3q0 2.4 0 4.8c-0.5-0.6-1.5-1.7-2-2.3q-0.1 1.7-0.1 3.3c0.5 0.1 1.5 0.2 2 0.3-0.1 0.7-0.3 2.2-0.4 2.9q-1.1-1-2.2-2c-0.6 2-2.7 2.3-4.5 2.9q-1-1.8-2-3.5c-1.3 4.1-5.8 3.2-9.2 2.9q-0.1-2.4-0.2-4.7 2.2 0.4 4.3 0.9 1.3-0.2 2.5-0.3c2.7-0.9 5.5 0.6 8 0.1-0.1-0.4-0.5-1.4-0.7-1.8q0.3-2 0.7-3.8zm-13.3 8.2c0.4 3.2 2.7-1.8 0 0m10.2-0.9c0.2 3.4 3-1.6 0 0z"/><path class="f" d="m569.9 312.2q2.5 0 5.1-0.1 0 2.3 0 4.6-2.1-1.1-3.9-2.5-0.9 1.1-1.9 2.1 0.4-2 0.7-4.1z"/><path class="f" d="m376.5 316.6c1.4-0.3 2.8-0.3 4.2-0.4 11.1 0 22.3-0.1 33.4 0 0.8 13.2 0.4 26.5 0.2 39.8-11.2 0-22.3-0.2-33.5 0.1h-0.7c-2.1 0.2-5.3-0.4-5.3-3.1-0.1-10.3 0-20.7-0.1-31 0.1-1.9-0.1-4.3 1.8-5.4z"/><path class="f" d="m443.5 317.1c1.8 0.4 0.4 4.3-1.3 3.6-0.7-1.2 0.2-2.9 1.3-3.6z"/><path class="f" d="m476.1 318.1q0.8 0.8 0 0z"/><path class="f" d="m567.7 319.4c3.5-1.1 7.4-0.7 11 0.2 3.2 5.8 8.3 10.5 14 13.8 0.3 2.8 0.7 5.7 0.7 8.6 0.7 4.6-5.6 4.8-6.6 8.8q-2.2 1.5-4.2 3.2c-1.7 1.7-2.5 4-4.3 5.5-3.9 1.2-8 0.5-12 0.4 0-0.7 0.1-2.2 0.1-2.9-4.9-4.3-9-9.4-14.3-13.1 0-3.2-0.3-6.4 0.1-9.6 2.3-2.3 5.5-3.5 7.6-6.1q-2.2-0.6-4.3-1.2c0.7-3 2.9-5.2 6.1-5 0 0.9 0.1 2.8 0.1 3.7 2.5-1.6 4.1-4 6-6.3zm1.8 12.1c-5.6 1.6-6.6 8.9-4.3 13.5 3 4.7 10.9 5.1 14.4 0.6 3.7-4.1 1.8-10.8-2.6-13.6-2.3-1.1-5.1-1-7.5-0.5z"/><path class="f" d="m514.2 321.9c0.6 0.2 1.9 0.6 2.5 0.8q-0.1 2.6-0.2 5.3 5.5 0.2 11 0.1 0.2-3 0.5-6c0.7 0.1 2 0.1 2.7 0.1 0.2 2.3-0.1 4.9 1.9 6.6 0.2 6.9 0.3 13.7 0 20.6-0.4 0.4-1.4 1.2-1.9 1.6q0.1 2.4 0.1 4.9c-0.7 0-2.3 0.1-3.1 0.1q-0.2-2.9-0.3-5.7-5.3 0.1-10.6 0.2-0.3 1.8-0.7 3.6c-0.2 0.5-0.5 1.5-0.7 1.9l-1.3-0.1q0-2.7 0.1-5.4c-0.8-0.2-2.3-0.6-3-0.8-0.1-7.1 0.2-14.2 0.2-21.3 0.6-0.1 1.9-0.5 2.5-0.6q0.1-3 0.3-5.9zm8.3 11.6c-3.5 0.5-7.8 3.8-5.8 7.8 1.5 4.6 7.9 4.4 10.2 0.7 2.3-3.3-0.3-8.6-4.4-8.5z"/><path class="f" d="m416.2 362.3q2 0 4.1 0-0.1 6 0.1 11.9 2.4 0 4.8 0 0.1-5.7 0-11.5 2.4 0 4.7 0-0.1 5.9-0.1 11.8c-7 0.1-14.1 0.2-21.1 0q-0.2-3.4-0.5-6.9-2.1 0.1-4.2 0.1c-0.1 4.2-0.3 8.3-0.4 12.5-0.1-4.3-0.3-8.6-0.3-13q2.7 0 5.4 0 0.2 3.4 0.4 6.9 3.5 0.1 7 0.3 0.2-6.1 0.1-12.1z"/><path class="f" d="m494.1 367q0.9 0.8 0 0z"/><path class="f" d="m531.3 371.5c1.1 0 3.2 0.2 4.3 0.3q-0.1 6-0.4 12c-0.9 0-2.7 0-3.6 0q-0.3-6.2-0.3-12.3z"/><path class="f" d="m540.5 371.7q2.1 0.2 4.2 0.4-0.1 5.9-0.1 11.8-2 0-4 0-0.2-6.1-0.1-12.2z"/><path class="f" d="m549 372q2.3-0.2 4.5-0.4 0.1 6.1-0.2 12.2-2 0-4 0.1-0.3-6-0.3-11.9z"/><path class="f" d="m557.8 371.9q2.2-0.3 4.5-0.6 0 6.2-0.2 12.5-2 0-4 0-0.3-6-0.3-11.9z"/><path class="f" d="m577.2 392.3c0.9-1.4 3.7-0.2 2.5 1.3-0.9 1.4-3.8 0.2-2.5-1.3z"/><path class="g" d="m277.6 210.7c6-0.2 11.9-0.2 17.8 0.1 1.6 1.3 3.1 3.3 5.5 3.1 7.8-0.2 15.6 0.2 23.5 0.5q4.1 0.1 8.2 0.3c0.1 8.1-0.9 16.2-0.7 24.3 0.1 10.9-0.3 21.7 0.1 32.5q-3.8 0.1-7.5 0.1c-8.2 0.8-16.4 0.3-24.5 0.7-2.3 1.1-3.9 3.3-5.7 5.1q-7 0.2-14 0.2c-0.8-0.1-2.4-0.1-3.2-0.1-0.1-15.5 0.2-31.1 0.3-46.6-0.2-6.7-0.2-13.5 0.2-20.2z"/></svg>