<svg version="1.2" xmlns="http://www.w3.org/2000/svg" viewBox="0 0 926 1152" width="926" height="1152"><style>.a{fill:#fff}.b{fill:#807b72}.c{fill:#c5c5c5}.d{fill:#1e1e1c}.e{fill:#9a9994}.f{fill:#51514f}.g{fill:#c3a775}.h{fill:#3f3c38}</style><path class="a" d="m82.4 159.2c6.9 0.1 13.8-0.1 20.7 0.2 3.2 0 6.7 1.1 8.8 3.7 3.2 4.3 3.1 11.1-0.9 15-1.9 1.9-4.7 2.7-7.3 3.4 6.5 4.3 9.2 11.9 13.4 18-2.2 0-4.5 0.1-6.8 0-2.9-5-5.9-9.9-9.3-14.6-3-4.2-8.7-2.9-13.2-3.3 0 6 0 12 0.1 18q-2.8 0.1-5.5 0.1c0.2-13.5 0-27 0-40.5zm5.4 4.5c0 4.5 0 9 0 13.5 5.6-0.3 11.3 0.6 16.8-0.8 4.9-1.6 5.6-9.6 0.7-11.7-5.6-2-11.7-0.6-17.5-1z"/><path class="a" d="m798.7 162.6c6.1 0.1 12.2-0.2 18.3 0.1 4.7 0.2 9.2 3.6 10 8.3 1.1 4-1.2 8.2-4.7 10.3 3.6 1.9 6.9 5.3 6.6 9.6 0.6 5.5-3.4 10.9-8.9 11.5-7.1 0.8-14.2 0.2-21.2 0.4-0.1-13.4 0-26.8-0.1-40.2zm5.5 4.6c0 4.1 0 8.2 0.1 12.4 4.8-0.4 9.9 0.6 14.5-0.9 4.8-1.8 4.1-9.6-0.8-10.8-4.5-1.1-9.2-0.5-13.8-0.7zm0.1 17q-0.1 6.9-0.1 13.9c5.1-0.2 10.4 0.7 15.4-0.7 5.5-1.9 5.2-11.1-0.5-12.5-4.9-1.1-9.9-0.4-14.8-0.7z"/><path class="a" d="m218.1 284.2c1.4-1.6 4-0.9 4.9 0.8 3.2 5.4 4.1 11.9 3.8 18.1-0.2 6.4 0.9 13.4-2.4 19.3-1.7 3.3-4.5 5.7-7.7 7.4q0.3-1.5 0.7-3c-0.2-0.4-0.6-1-0.8-1.4-12.5 2.5-25.4-0.3-37.9 1.8-2-0.3-3.9-0.6-5.9-0.8 7.6 3.6 16.1 1.6 24.2 2.1 6.3 0.4 13-1.1 19.1 1.4-4 0.9-8.1 0.5-12.1 0.6-16.4-0.1-32.8 0.1-49.2 0-6.6 0.1-12.4-5.8-12.4-12.4 0-8.1-0.1-16.1-0.1-24.2 0.1-3.1 0.2-6.6 2.2-9.3 1.5-1.7 4.6-0.8 4.9 1.4-0.1 2.3-1.3 4.5-1.2 6.9q0 12.6 0.1 25.2c0 3.6 3.2 6.8 6.8 6.6 19 0 38 0 56.9 0 6.3-0.2 9.2-7.3 9.2-12.7-0.1-7.6 1.2-15.7-2.6-22.6-0.8-1.5-2.1-3.8-0.5-5.2z"/><path class="a" d="m694.7 286.1c-0.3-3.3 5.3-3.8 5.7-0.7 0.2 12.5-0.1 25.1 0.2 37.6-0.2 2.3 2.2 3.3 3.9 4.2q1.2 0.6 2.5 1.2c-1.8 0.7-3.5 1.3-5.2 2 8.7 0.6 17.5 0.4 26.2 0.1q-2.1-1.2-4.3-2.4c9.1-0.8 18.2-0.5 27.2-0.4q-0.9 1.4-1.8 2.8c5.3 0 10.7 0.8 16 0.2 0.7 0.3 2 1 2.6 1.3-1.9 0.4-3.7 0.7-5.7 0.7-18.6 0-37.3 0.1-55.9 0-3.9 0.1-7.9-1.4-10-4.8-2.1-3.2-1.5-7.2-1.5-10.9 0.1-10.3-0.2-20.6 0.1-30.9zm1.8-0.6c0 12.5-0.2 25.1 0 37.6q0.3-2.5 0.5-5c0.3-0.5 1.1-1.3 1.5-1.7 0.2-10.3 0-20.6 0.1-30.9q-1.1 0-2.1 0z"/><path class="a" d="m166.8 286.6q17 0.2 34 0c-0.1 8.5-0.2 16.9-0.1 25.3-6.3-0.2-12.5-0.1-18.8 0.2-4.9-0.2-9.7-0.4-14.6-0.2 0-8.5 0.4-16.9-0.5-25.3z"/><path class="a" d="m772 298c0.3-2.9 5.4-2.5 5.5 0.3 0.3 4.6 0 9.2 0.1 13.8-0.1 3.5 0.3 7.2-1.1 10.5-1.1 3.1-3.4 5.5-5.7 7.8-2-1.2-4.1-2.3-6.2-3.3 3.6-1.5 6.6-5 7-9 0.4-6.7-0.1-13.4 0.4-20.1z"/><path class="a" d="m187.4 449.5c1.8-0.7 3.7-0.8 5.6-0.9 178 1.8 356 3.6 534 5.3 4.7-0.2 9.6 1.7 12.2 5.8 3.5 4.7 2.2 10.8 2.4 16.3-0.7 147-1.4 294-2 441 0.2 7.3-6.2 14-13.6 13.6-59.4-0.5-118.7-1.2-178-1.8-116.3-0.9-232.6-2.3-349-3.1-4.7-0.2-9.8 0.6-14.3-1.4-5-2.3-8-7.9-7.6-13.3q0.8-157.5 1.6-315c0.1-44.4 0.6-88.7 0.6-133-0.4-5.7 2.8-11.3 8.1-13.5zm270.2 40c-1.7 3.1-0.6 6.8-0.9 10.2-6.3-5.1-14.9-7.2-22.7-4.8-8.4 2.3-15 9.5-16.8 18-2.7 11.1 3.2 23.6 13.8 28.2 8 3.5 17.9 2.5 24.9-2.9 0 1.5 0 3 0 4.6 3.7 0.1 7.5 0.2 11.2 0.1 0.3-18.8 0.9-37.6 1.1-56.4-3.6-0.1-8 0.1-10.6 3zm-236 4.2c-6.9 4.5-7.5 15.6-1 20.7 5 3.6 11.4 4.2 17.1 6 2.2 0.6 4.9 1.9 4.5 4.7-0.2 3.5-4.2 4.7-7.1 4.7-6 0.2-11.3-2.8-16.1-5.9-2.1 2.3-4 4.8-5.8 7.4 5.1 5.3 12.6 7.6 19.8 7.9 6 0.2 12.4-1.1 17-5.1 6.1-5.2 6.1-16.8-1.4-20.8-5.6-3.7-12.8-3.2-18.8-6.1-3.1-1.3-2.3-5.7 0.6-6.7 6.1-2.4 12.5 0.1 18.2 2.4 1.7-2.5 3.3-5 5-7.5-9.2-6.4-22.4-7.8-32-1.7zm311-0.2c-0.3 10.9-0.3 21.7-0.6 32.5-0.1 5.2 0.4 11 4 15 3.3 3.4 8.3 4 12.8 4.1 0-3.1 0.2-6.1 0.1-9.2-1.8-1.5-5-1.6-5.6-4.3-0.9-6.2 0-12.6-0.3-18.8q2.9 0 5.8 0c0.1-3.4 0.2-6.8 0.3-10.2-1.9-0.3-3.8-0.4-5.7-0.6 0.1-4 0.2-8 0.2-12.1-3.9 0.5-7.6 1.8-11 3.6zm108.6-1.3c-3 2.7-1.5 7.3-2 10.8-3.7-2.4-7.7-4.7-12.2-5.2-10.3-1.6-21.4 3.9-25.7 13.6-3.7 8.8-2.6 19.9 3.9 27.2 8 9.4 23.9 11.7 33.4 3.3q-0.1 2.2-0.3 4.4c3.8 0.2 7.6 0.3 11.3 0.3 0.4-18.9 0.8-37.7 1.2-56.5-3.3 0.1-6.9-0.1-9.6 2.1zm18.1-1.7c-1.9 1.3-0.8 5.1-0.9 7.3 2.3 2.1 5.9 1.1 8.7 1.2 2.1 0.1 1.7-2.6 1.8-4-0.2-1.5 0.5-3.8-1.3-4.5-2.7-0.6-5.6-0.4-8.3 0zm-391.3 5.5c-10.3 8.4-11.7 25.2-3.2 35.2 5.7 7 15.4 10 24.1 8.3 5.5-0.8 10.4-3.8 14.4-7.5-3.2-2-6.4-4-9.5-6.2-4.4 4.2-11.4 5.1-16.7 2-2.8-1.7-4.4-4.8-5.7-7.8 11.7 0.3 23.4 0.2 35 1.1 2.5-8.7-0.7-19.1-7.8-24.9-8.4-7.3-22.1-7.2-30.6-0.2zm47.1 7.1c-5 8.6-4.7 20.3 1.5 28.3 3.6 4.5 8.7 7.9 14.5 9.1 8.8 1.9 18.6-1 24.8-7.6-3.1-1.9-6.3-3.7-9.2-6-2.3 1.7-4.7 3.4-7.6 3.8-6.6 1.2-13.7-3-15.4-9.6 11.8 0.1 23.6 0.6 35.4 0.8 2.6-10.2-2.2-22.4-11.9-27.2-10.7-5.9-25.7-2.2-32.1 8.4zm57.5-4.4c-10 8.5-11.1 25.2-2.4 35 9.3 11.3 28.5 11.1 38 0.3-3.1-2-6.2-4.1-9.4-5.9-4.1 3.7-10.3 5-15.3 2.5-3.6-1.5-5.8-4.9-7.2-8.4 11.9-0.1 23.8 0.7 35.6 0.6 2.1-9.7-1.9-20.9-10.5-26.2-8.7-5.5-21-4.8-28.8 2.1zm117.3 6.2c-1.8 4.8-1.3 11 2.8 14.5 5 4.5 12 5 18.2 7 2.3 0.6 4.4 3 3.5 5.5-0.7 2.3-3.3 3.1-5.5 3.4-6.2 0.7-12.1-2.3-17.1-5.7-2 2.5-3.8 5.1-5.6 7.7 5.9 5.3 14 7.4 21.8 7.5 6.5-0.2 13.9-2.4 17.1-8.6 2.2-4.9 2.2-11.7-2.1-15.4-4.8-4.2-11.3-4.7-17.1-6.5-2.2-0.8-5-1.8-5.4-4.5-0.2-2.1 1.7-3.6 3.5-4.1 5.7-1.6 11.5 0.4 16.5 2.9 2-2.5 3.7-5.1 5.4-7.7-7.2-4.8-16.5-6.7-24.9-4.5-4.5 1.3-9.2 3.9-11.1 8.5zm64-7.4c-0.1 8.2-0.2 16.4-0.5 24.5-0.3 4.7 0.2 9.7 2.8 13.7 6.2 12.6 26 13.9 34 2.5 3.7-4.5 4.4-10.5 4.4-16.2 0.2-7.9 0.4-15.8 0.4-23.8-3.8-0.1-7.5-0.1-11.3-0.1-0.4 8.7-0.2 17.3-0.6 25.9-0.1 3.2-0.8 6.6-3.2 8.9-3.4 3.5-9.8 3-12.7-0.9-2.6-3-2.5-7.2-2.5-11 0.3-7.7 0.4-15.4 0.5-23.2-3.8-0.2-7.5-0.6-11.3-0.3zm138.5 2.1c-5.8 1.1-11.3 4.3-14.8 9-6.8 8.7-6.9 22 0.4 30.4 6.2 8.4 17.8 11.1 27.6 8.4 10.1-2.9 17.7-12.9 17.5-23.4 0.3-7.3-3.1-14.6-8.8-19.3-6-4.9-14.3-6.7-21.9-5.1zm-34.5 8.4c-0.4 12.9-0.5 25.8-0.7 38.7q5.3 0.3 10.6 0.3c0.4-13 0.4-26 0.8-39 0-1.4 0.3-3.5-1.5-3.8-3.3-0.5-8.7-0.5-9.2 3.8zm-438.7 63.1c0 9.7-0.3 19.4-0.4 29.2q2.1 0 4.1 0c0.2-7.8 0.1-15.6 0.4-23.4 2.5 7.9 5.3 15.8 8 23.7q1.9 0 3.8-0.1c2.5-7.4 4.9-14.8 8-22 0.2 7.4-0.4 14.8-0.2 22.2q2.1 0 4.2 0 0-14.6 0.3-29.2c-1.8-0.1-3.6-0.1-5.3-0.2-3 8-6.3 15.8-8.8 23.9-2.8-8.1-5.2-16.3-8.1-24.3q-3 0-6 0.2zm101.1 1.6c0 9.9-0.4 19.7-0.4 29.5q2 0.1 3.9 0.1 0.2-14.7 0.4-29.4-1.9-0.1-3.9-0.2zm-31.4-0.6c0 3.3 0 6.6 0.1 9.9-3.3-2.6-8.1-3.3-11.5-0.5-6 5.4-5 18.2 3.6 20.3 2.9 0.9 5.7-0.5 7.7-2.5 0 0.6-0.2 1.8-0.2 2.5 0.9-0.1 2.8-0.1 3.7-0.1q0.3-14.8 0.4-29.5c-1-0.1-2.9-0.1-3.8-0.1zm50.5 1.1c2.9 5 6.5 9.6 9.6 14.5-3.8 4.9-7.6 9.8-11.3 14.9q2.5 0.1 5 0.1c3-3.8 5.8-7.9 8.8-11.8 2.9 4 5 8.5 8.4 12 1.6 0.2 3.3 0.1 4.9 0.1-3.6-5.3-7.3-10.4-10.7-15.8 3.5-4.5 7.2-8.8 10.5-13.5q-2.3-0.1-4.6-0.1c-3.1 3.3-5.3 7.3-8.3 10.6-2.5-3.4-4.7-7.2-7.3-10.6-1.4-0.8-3.4-0.2-5-0.4zm29.1 0.5c-0.2 9.9-0.2 19.7-0.3 29.5 1.1 0 3.1 0 4.1 0 0.2-9.8 0.3-19.6 0.4-29.3-1.1-0.1-3.1-0.1-4.2-0.2zm18.6 0.2c-3.8 9.8-7.8 19.5-11.6 29.3q2.3 0 4.6 0.1 1.7-4.3 3.2-8.6 5.9 0 11.8 0.2c1.1 2.9 2 5.9 3.4 8.8 1.6 0.2 3.2 0.1 4.8 0.1-4-9.9-7.9-19.8-11.6-29.7q-2.3-0.1-4.6-0.2zm28.4 0.6c-12.3 2.7-14.2 21.7-4.1 28.1 5.9 3.6 14.8 2.5 18.7-3.6 3.4-5.4 3.7-12.8 0.4-18.4-2.9-5.1-9.4-7.5-15-6.1zm35.6 0.8c-0.3 9.8-0.3 19.7-0.4 29.6 7.1 0.2 14.3 0.2 21.4 0.3 0.1-0.9 0.2-2.8 0.2-3.8-5.8-0.2-11.6-0.3-17.4-0.4q0-4.7 0-9.5c5.3 0.1 10.6 0.3 15.9 0.3q0-2 0-3.9c-5.3 0-10.5-0.1-15.7-0.2q0-4.2 0-8.5c5.7 0.1 11.3 0.2 17 0.3 0-0.9 0-2.8 0-3.7q-10.5-0.4-21-0.5zm29.4 2.1c-3.6 2.2-4.8 7.7-1.8 10.9 3.9 4 10.2 3.2 14.7 6.3 2.1 1.3 2 4.5 0.1 5.9-4.8 3.6-13.5 1.3-13.8-5.4q-2.1 0.1-4.2 0.3c0.4 3.8 2.3 7.6 5.9 9.2 4.9 2.3 11.5 2.3 15.5-1.8 3-3.3 2.6-8.9-0.9-11.8-3.7-3-9-2.5-13.1-4.8-2.2-1.3-2-4.7 0.1-6 4.2-2.2 11-0.8 11.5 4.7q1.9 0 3.8 0c-0.3-2.9-1.2-5.9-3.8-7.5-4.2-2.5-9.9-2.6-14 0zm23.4 28.5q2.1 0 4.2-0.1 0-5.8 0.1-11.6c4.4-0.1 9 0.7 13.4-0.7 6.6-2.7 6.5-14.3-0.7-16.2-5.4-1.1-11-0.6-16.5-1-0.4 9.9-0.3 19.7-0.5 29.6zm30.8-28.2c-2.9 1.4-4.4 4.3-5.1 7.2q2 0.1 4.1 0.3c0.6-1.7 1.1-3.7 3-4.4 3.2-1.9 8.1 1.4 6.7 5.1-0.8 2.8-3.9 3.4-6.5 3.6-0.1 0.8-0.4 2.4-0.5 3.2 3-0.6 7.2 0.2 8 3.8 1.5 4.3-3.4 8.3-7.4 6.9-2.4-0.7-3.2-3.4-4.1-5.5q-2 0.3-3.9 0.6c0.7 3 2 6.2 5 7.6 5.4 2.9 13.1-0.1 14.4-6.1 1.1-3.6-1.2-6.9-3.6-9.3 1.8-2.1 3.4-4.8 2.5-7.7-1.2-5.4-8-7.6-12.6-5.3zm17.4 8.4c1 0.1 3 0.3 4 0.4 0.5-1.5 0.7-3.3 2-4.4 2.5-2.4 7.6-1.6 8.8 1.9 1.1 4.1-2.5 7.3-5.4 9.6-4.4 3.5-9.6 7.2-10.2 13.2 6.5 0.3 13 0.2 19.5 0.4q0-2-0.1-4.1c-4.5-0.1-9.1-0.2-13.7-0.2 4.5-5.8 13.3-8.8 14.1-16.9 0.4-6.6-7.5-10.2-13-8.1-3.7 1-5.5 4.7-6 8.2zm40.3-6.6c-3.8 2.3-4.5 8.3-1.2 11.3 4 3.5 9.9 3.1 14.3 5.8 2.4 1.4 1.7 5.2-0.5 6.4-4.8 2.9-12.7 0.8-13.3-5.5q-2.1 0.2-4.2 0.3c0.6 9.7 13.3 13.4 20.4 8.1 3.5-2.8 4.4-8.6 1.1-11.9-3.5-3.3-8.7-3.3-13-5-2.2-0.8-3.9-3.9-1.9-5.8 3.8-3.5 11.7-2 12.5 3.8q2.1 0 4.1 0c-0.7-3.3-2.2-6.9-5.5-8.3-4.1-1.6-9-1.4-12.8 0.8zm-333.9 0.1c-10.2 1.9-10.1 19.2-0.4 21.6 5.2 1.7 11.8-1.4 12.8-7.1 0.5-3.9 0.7-8.5-2.2-11.7-2.5-2.8-6.6-3.7-10.2-2.8zm359.3 1.2c-1.6 1.5-2.2 3.7-2.8 5.7q2 0.2 3.9 0.4c0.7-2.5 2.1-5.2 5.1-5 3.5-0.6 6.3 3.7 4.3 6.6-1.2 2.2-4 2.2-6.1 2.6-0.1 0.8-0.3 2.4-0.4 3.2 2.4-0.4 5.4-0.4 7 1.8 3 3.5-0.2 9.6-4.8 9-3.3 0.4-4.7-2.9-5.6-5.5-1 0.1-3 0.2-4 0.3 0.6 2.3 1.2 4.9 3.2 6.6 4.7 3.8 13.3 2.5 15.8-3.4 1.9-3.8 0.3-9.1-3.8-10.7 2.5-1.9 4-5.2 2.9-8.4-1.8-5.8-10.5-7.4-14.7-3.2zm-318.7 2.3c-3.5 4.3-3.6 10.9-0.8 15.5 4.5 6.1 16.1 4.7 17.9-3.1q-2-0.3-3.9-0.6c-1.1 2.5-3.4 4.9-6.4 4.2-3.5-0.3-5-3.9-5.6-7q8 0.2 15.9 0.2c-0.3-3.1-0.3-6.5-2.4-9-3.5-4.4-11.1-4.6-14.7-0.2zm31.1-2.3c0 1.5 0 3 0.1 4.5 1.5 0 3.1-0.1 4.6-0.1q-0.1-2.2-0.3-4.3c-1.5 0-3-0.1-4.4-0.1zm105.1 14.7c3.8 0.2 7.6 0.2 11.4 0.2q-0.1-2-0.2-3.9-5.5-0.1-11-0.1-0.1 1.9-0.2 3.8zm138.5-1.1c0 1.1 0 3.1 0 4.1q5.8 0.1 11.5 0c0-0.9 0-2.9-0.1-3.8q-5.7-0.2-11.4-0.3zm-243.9 3.4q0 2.2 0 4.4 2.3 0.1 4.7 0.2-0.1-2.4-0.1-4.7-2.3 0-4.6 0.1zm-111 21.7c0 9.7-0.3 19.5-0.5 29.2 1.1 0.1 3.1 0.2 4.2 0.2 0.3-4.4 0.2-8.8 0.3-13.2q6.8 0.3 13.5 0.4 0.2-1.9 0.3-3.8-6.8-0.2-13.6-0.2c0-3 0-5.9 0-8.8 5.3 0.1 10.5 0.3 15.8 0.3-0.1-1-0.1-2.9-0.2-3.8-6.6-0.2-13.2-0.3-19.8-0.3zm25.9 5.5c-3.6 5.5-3.7 13-0.6 18.8 3.6 7 14.1 8.4 19.8 3.2 2-1.8 2.9-4.4 3.8-6.9-1.4-0.3-2.8-0.6-4.2-0.9-0.8 2.1-1.6 4.4-3.6 5.8-3.8 2.9-9.8 1-12-3.1-2.1-4.1-2.1-9.1-0.5-13.4 1.7-4.6 7.8-6.6 12-4.2 1.9 1.1 2.8 3.2 3.7 5.1q2.2-0.2 4.4-0.4c-1.1-2.8-2.3-5.9-5.1-7.6-5.6-3.4-14-2-17.7 3.6zm31.1-2.1c-6.2 5.3-6.6 15.1-2.7 21.9 3.1 5.9 11.4 7.2 17.1 4.4 3.4-1.6 5.1-5.1 6.2-8.5-1.4-0.4-2.9-0.6-4.3-1-0.8 1.9-1.3 4.2-3 5.5-4.1 3.3-11 1.6-12.9-3.3-1.6-4-1.6-8.7-0.1-12.6 1.7-4.6 7.6-6.8 11.9-4.5 2.2 1 3 3.4 4.1 5.4q2-0.3 4-0.6c-0.7-2-1.4-4.2-2.9-5.8-4.3-4.9-12.4-4.7-17.4-0.9zm36.8-1.7q-0.2 14.8-0.4 29.5c1.1 0 3.2 0 4.3 0 0.1-9.8 0.4-19.6 0.2-29.4q-2-0.1-4.1-0.1zm10.6 0.3c-0.1 9.8-0.3 19.6-0.3 29.4 5.1-0.1 10.3 0.7 15.4-0.3 6.4-1.6 9-8.7 8.7-14.7 0.4-5.8-2.9-12.6-9.1-13.9-4.8-0.6-9.8-0.3-14.7-0.5zm39.6 0.7q-0.1 1.9-0.2 3.9 8.1 0 16.3 0.1c-5.8 6.5-11.2 13.3-16.9 19.8-1.5 1.4-2 3.9-0.9 5.6 7.6 0.3 15.3 0.3 22.9 0.4q0-1.9 0-3.8c-6.1-0.2-12.2-0.4-18.2-0.2 5.5-6.6 11-13.1 16.6-19.6 1.6-1.5 1.6-3.8 1.8-5.8-7.2-0.4-14.3-0.4-21.4-0.4zm36.2 0.6c-3.9 5.8-8.4 11.1-12.4 16.8-1.3 1.6-1.3 3.6-1.3 5.5 4.3 0.1 8.6 0.1 12.8 0.3q0 3.5 0 7c1 0 2.9 0.1 3.9 0.1q0-3.6 0.1-7.2 2 0.1 4 0.1c0.1-0.9 0.1-2.8 0.1-3.7q-2-0.1-4.1-0.1c0.1-6.2 0.4-12.5 0.2-18.7-0.8 0-2.5-0.1-3.3-0.1zm9.6 0.2c0 1 0.1 3 0.1 4 3.1 0.1 6.2 0.1 9.4 0.1q-0.4 12.9-0.4 25.8 2.2 0 4.3-0.1c0-8.5 0.3-17 0.1-25.6q4.9 0.1 9.9 0c0-0.9 0-2.7 0-3.6-7.8-0.3-15.6-0.4-23.4-0.6zm38.7 0.8c2.9 5 6.4 9.6 9.5 14.5-3.6 5.1-7.4 9.9-11 15q2.5 0.1 5.1 0.1c2.7-4 5.5-7.9 8.5-11.7 2.9 3.9 5.2 8.3 8.4 12.1 1.6 0.1 3.3 0 4.9-0.1-3.6-5.2-7.3-10.4-10.7-15.7 3.5-4.4 7.1-8.9 10.4-13.6-1.5 0.2-3.2-0.3-4.6 0.3-2.9 3.2-5.5 6.8-8.4 10.2-2.4-3.7-4.8-7.4-7.3-11q-2.4-0.1-4.8-0.1zm28.7 30q2.1 0.1 4.2 0.2c0.2-9.8 0.5-19.6 0.5-29.3q-2.1-0.2-4.1-0.3c-0.5 9.8-0.4 19.6-0.6 29.4zm19.1-28.9c-3.7 9.7-7.7 19.3-11.2 29.1q2.1 0.1 4.2 0.2c1.1-2.9 2.2-5.8 3.4-8.6 3.8 0.1 7.6-0.1 11.4 0.2 1.7 2.5 2.1 5.8 3.2 8.6q2.4 0.1 4.8 0.2c-3.3-10-7.5-19.7-11.2-29.6-1.6 0-3.1-0.1-4.6-0.1zm27.3 0.7c-10 2.9-12.6 16.6-6.8 24.4 4.5 6.7 15.2 7.1 20.7 1.5 4.3-4.4 4.8-11.4 3.2-17-2-7-10.2-11.2-17.1-8.9zm22.6 0.2c-0.4 9.9-0.1 19.7-0.5 29.5 7.3 0.1 14.6 0.3 21.9 0.3-0.1-0.9-0.3-2.8-0.4-3.7-5.7-0.2-11.5-0.3-17.3-0.5 0.1-3.2 0.1-6.3 0.1-9.4q8 0.1 16 0.2c0-0.9 0-2.7 0-3.6-5.3-0.2-10.6-0.3-15.9-0.4 0.1-2.8 0.1-5.7 0.2-8.5 5.7 0.1 11.4 0.2 17.1 0.1-0.1-0.8-0.3-2.6-0.3-3.5-7-0.5-14-0.4-20.9-0.5zm28.4 2.8c-3.1 2.7-3.2 8.1-0.1 10.8 4.1 3.1 9.6 2.8 13.9 5.3 2.1 1.2 2.5 4.4 0.6 6-4.7 4.1-13.4 1.4-14.1-5.2q-2.1 0.1-4.1 0.2c0.4 3.4 1.7 6.9 4.8 8.7 4.3 2.5 10 2.8 14.5 0.5 4.5-2.4 5.6-9.3 1.9-12.9-3.7-3.5-9.3-2.9-13.6-5.2-1.9-1.1-2.7-3.8-1-5.4 4.1-3.3 11.6-1.8 12.5 3.9 1-0.1 3.1-0.2 4.1-0.2-0.7-9.3-13.1-11.6-19.4-6.5zm24.6 27.6q2.1 0.1 4.2 0.1 0-5.8 0-11.7c4.2-0.1 8.5 0.6 12.7-0.4 7-1.8 7.5-13.5 0.9-16.1-5.6-1.8-11.6-1-17.4-1.3-0.2 9.8-0.3 19.6-0.4 29.4zm29.6-27.5c-2.4 1.4-3.2 4.2-4.1 6.6q2 0.3 4 0.6c0.8-2.1 1.7-4.8 4.3-5 3.5-1.1 7.1 2.9 5.3 6.2-1.2 2.4-4.1 2.4-6.3 2.6-0.1 0.8-0.3 2.5-0.3 3.3 2.3 0.1 5.2-0.5 6.7 1.7 3.2 3.4 0.3 9.6-4.3 9.3-3.4 0.4-5.2-2.9-5.8-5.6-1.1 0.1-3.1 0.3-4.1 0.5 0.8 2.6 1.8 5.4 4.2 7 4.4 2.7 11.2 2.1 14-2.5 2.7-4.1 1.6-10.1-2.8-12.4 2.2-1.5 3.6-4.2 2.9-7-0.8-6.1-9-8.5-13.7-5.3zm18.6 7.7q1.9 0.3 3.8 0.6c0.7-1.8 1-4.1 2.9-5.1 2.6-1.2 6.6-0.8 7.8 2.1 1.3 3.2-0.8 6.5-3.3 8.5-4.9 4-11.1 7.8-12.4 14.6 6.7 0.3 13.3 0.3 19.9 0.4 0-1 0-2.8 0-3.7-4.6-0.2-9.2-0.3-13.8-0.5 4.2-5.5 11.9-8.2 13.8-15.3 1.6-5.5-3.7-10.6-9.1-10.2-5-0.4-9.3 3.7-9.6 8.6zm25.6-5.5c-3.4 3.1-2.3 9.4 1.8 11.4 4.3 2.8 11.3 1.6 14.1 6.8 0.2 4.4-5.2 6-8.8 5.1-3.8-0.1-6-3.6-6.9-6.9-1 0.1-2.8 0.4-3.8 0.6 0.7 3.3 2 7 5.2 8.7 4.3 2.2 9.9 2.5 14.2 0.1 4.2-2.3 5.6-8.8 2.1-12.3-3.8-4-9.9-3.3-14.4-5.9-2-1.4-1.5-4.5 0.3-5.7 4.2-2.6 11.2-1 11.9 4.5 1-0.1 2.9-0.2 3.9-0.3-0.7-2.8-1.6-6-4.4-7.4-4.6-2.6-11.2-2.4-15.2 1.3zm23.6 5.3q1.9 0.5 3.8 1c1-2.4 2.6-5.4 5.7-5.1 3.8-0.6 5.9 4.7 3.3 7.3-1.3 1.5-3.5 1.4-5.3 2-0.2 0.7-0.5 2.3-0.7 3 2.6-0.3 5.7-0.4 7.5 2.1 2.8 3.7-0.9 10.1-5.8 8.8-2.8-0.4-4.1-3.1-4.8-5.6-1 0.1-3 0.3-4 0.3 0.2 7.1 8.5 10.9 14.4 7.8 6.3-2.3 7.4-12.8 0.7-15.3 1.9-1.6 3.7-3.7 3.3-6.4-0.3-5.1-5.9-8.4-10.6-7.3-4 0.4-6.3 4-7.5 7.4zm-343-6.2q0 2.3 0 4.5 2.2 0.1 4.4 0.1 0-2.2 0-4.5-2.2 0-4.4-0.1zm81 10.4c0.1 1 0.1 2.9 0.1 3.9q5.7 0.2 11.5 0.2c0-1 0-2.9 0-3.9q-5.8-0.3-11.6-0.2zm-81.2 11.2q2.2 0 4.4 0c-0.2-1.5 0.4-3.3-0.5-4.6-0.9 0-2.6 0-3.5 0-0.8 1.3-0.2 3.1-0.4 4.6zm-95.6 88.1c-2.7 1.9-2.1 5.5-2.3 8.3-0.5 32.1-1.3 64.2-1.7 96.3 4.1-2.4 8.1-5.1 11.8-8 1.2-0.7 0.9-2.2 1-3.3 0.2-11.6 0.6-23.1 0.6-34.7 6.2 0.1 12.5 0.2 18.7 0.4 1.1 8 3.9 15.7 7.9 22.6 8.2 13.2 21.9 23.2 37.4 25.7 12.2 2.3 25 0.2 35.9-5.8 7.4-3.6 13.2-9.6 18.3-15.8-3.7-2.6-7.2-5.4-10.9-8.1-6.9 8.2-16.4 15-27.3 16.5-10.9 1.8-22.4-1.1-31.1-7.8-11.9-9-18.5-24.6-16.1-39.4 1.1-8.4 5.5-16.2 11.3-22.4 9.6-9.9 24.4-14.3 37.8-11.3 10.5 2.1 20 8.7 25.8 17.6 3.8-2.6 7.5-5.3 11.5-7.6-7.7-11.5-19.6-20.2-33.1-23.2-16.6-4-35.1 0.3-48 11.5-10.4 8.6-17 21.1-19.1 34.3-6.2-0.2-12.4-0.1-18.7-0.6 0.3-9.3 0.4-18.6 0.6-27.9-0.2-2.4 1.2-5.6 4.1-5.4 6.6 0 13.3 0.2 19.9 0.3 3.6-4.8 7.7-9.1 12-13.2q-19.5-0.3-39-0.6c-2.5 0-5.3-0.2-7.3 1.6zm245.2 23.3c-10.1 11.2-14.8 27.2-12.4 42.1 1.8 11.1 7.4 21.3 15.3 29.1 11.1 10.3 26.3 16.3 41.4 15.3 0.1-5 0.2-10.1 0.1-15.2-8.1 0.3-16.3-1.3-23.3-5.5-11.1-6.4-18.3-19-18.3-31.8-0.2-11 5.5-21.4 13.8-28.4 7.9-6.5 18.6-9.1 28.8-8 0-5.1 0.3-10.2 0.2-15.3-16.8-1.7-34.5 4.8-45.6 17.7zm96-14c-18.7 5.6-33.6 22.4-36.3 41.9-2.7 17 3.9 35.2 16.9 46.5 10.8 9.6 25.4 14.5 39.7 13.9 0.2-5.2 0.2-10.3 0.2-15.4-9.4 0.3-19.1-1.9-26.5-7.8-7.4-5.3-12.6-13.4-14.5-22.4 10 0.2 19.9 0.4 29.9 0.4q0.2-7.4 0.3-14.8c-10-0.2-20-0.2-30-0.4 2.8-13.8 14.4-25 28-28 4.5-1.1 9.2-0.8 13.9-0.8q0.1-7.7 0.2-15.4c-7.3-0.1-14.8 0-21.8 2.3zm-267.2 13.7c-6.8 2-12.8 6.4-17 12.1-5.1 7.2-7 16.7-5 25.4 3.1 14 17 24.8 31.3 24.2 10.1 0 19.8-5.3 25.6-13.4-3.5-2.6-7.1-4.9-10.7-7.3-4.1 4.9-10.3 8.5-16.9 7.8-7.8-0.6-15-6.6-16.7-14.3-1.5-5.9 0.3-12.2 4.2-16.8 5-5.8 13.9-7.6 20.9-4.6 3.7 1.5 6.5 4.4 8.8 7.6 3.5-2.4 7.2-4.6 10.7-7-7.1-11.7-22.1-17.4-35.2-13.7z"/><path class="a" d="m272.1 510.3c0.8-6.6 8.7-10.7 14.9-8.6 4.4 1 7 5.1 8.7 8.9-7.8 0.5-15.8-0.3-23.7-0.3z"/><path class="a" d="m323.9 511.4c1.8-6.7 9.6-11.1 16.2-8.5 4.2 1.3 6.6 5.1 7.9 9-8-0.1-16.1-0.4-24.1-0.5z"/><path class="a" d="m376.5 512.4c1.8-5.9 8.2-10.5 14.5-8.9 4.9 0.8 8.3 5 9.8 9.4-8.1-0.2-16.2-0.3-24.3-0.5z"/><path class="a" d="m436.5 505.7c6.9-2.9 16.3 0.7 18.3 8.2 3 8-3.2 18-11.8 18.6-7.6 0.9-14.8-5.9-14.9-13.4-0.5-5.7 3.2-11.2 8.4-13.4z"/><path class="a" d="m620.6 508.7c7.6-2.5 16.4 3.4 17.5 11.3 1.2 7.3-4.3 15.4-12 16-6.9 0.9-13.9-4.1-15-11-1.6-6.8 2.7-14.4 9.5-16.3z"/><path class="a" d="m694.2 510.2c8.5-2.7 17.7 4.9 17 13.7 0.3 7.2-6 13.8-13.2 13.6-7.7 0.3-14.4-7-13.9-14.5 0-6 4.5-11.2 10.1-12.8z"/><path class="a" d="m415.4 578.5c3.5-1.1 8-0.5 10.4 2.7 2.9 3.7 2.9 8.9 1.7 13.2-1.2 4.5-6.1 7.5-10.7 6.3-9.6-2.4-10.4-18.5-1.4-22.2z"/><path class="a" d="m384.7 591.2c1.5-4.2 3-8.3 4.6-12.5q2.4 6.3 4.5 12.6c-3 0-6-0.1-9.1-0.1z"/><path class="a" d="m508.4 580.4c3.4 0.1 6.8-0.3 10.1 0.3 4.8 0.6 4.5 8.7 0 9.5-3.4 0.6-6.8 0.2-10.2 0.2q0-5 0.1-10z"/><path class="a" d="m258.4 583.3c2.8-1.5 6.8-0.4 8 2.7 1.4 3.5 1.1 8-1.4 11-2.7 2.6-7.7 1.4-9-2.1-1.5-3.8-1.4-9.2 2.4-11.6z"/><path class="a" d="m280.6 583.7c3.7-2.3 8.3 1.1 8.2 5.2 0.7 4-0.8 9.9-5.9 9.8-6.3-1.3-6.7-11.5-2.3-15z"/><path class="a" d="m300.5 588.8c0.8-3 3.1-5.9 6.5-5.4 3.1 0.1 4.6 3 5.2 5.7-3.9-0.1-7.8-0.2-11.7-0.3z"/><path class="a" d="m327.4 625.5c3.7 0.2 7.7-0.6 11.1 1 4.3 2.5 4.6 8.2 4.1 12.6-0.2 3.5-2.3 7.5-6.2 8-3 0.3-6.1 0-9.2 0 0.1-7.2 0.2-14.4 0.3-21.6z"/><path class="a" d="m389.7 641.3q4.4-6 8.8-12c-0.1 4.1-0.1 8.2-0.2 12.3q-4.3-0.1-8.6-0.3z"/><path class="a" d="m522.5 629.7c2.9-1.3 6.5-1.4 9.2 0.5 3.2 2.1 4.4 6.1 4.3 9.7 0.2 4.1-1.2 8.8-5.1 10.7-4.8 2.6-11.6 0-13.1-5.4-1.7-5.3-1-12.9 4.7-15.5z"/><path class="a" d="m492.9 642.1c1.5-4.3 3.2-8.6 4.6-13 1.4 4.4 3 8.8 4.6 13.1q-4.6-0.1-9.2-0.1z"/><path class="a" d="m602.6 630.9c3.4 0 7-0.2 10.4 0.4 4.4 1 4.3 8.4 0 9.4-3.5 0.5-7 0.1-10.5 0.1q0-5 0.1-9.9z"/><path class="b" d="m292 37.8c110.6-0.1 221.3-0.5 332-0.5 15.2-0.2 30.3 2.8 44.6 7.9 0 25.7-0.2 51.5 0 77.2q0.1 2.7-0.2 5.5c-0.2 2.7-0.5 5.4-0.6 8.1-0.1 16.3 0 32.6-0.1 48.9-0.4 10.1 1.5 20.1 0.6 30.2 0.4 0.1 1.3 0.3 1.7 0.4-0.3 0.2-1.1 0.5-1.5 0.7q0 5.2 0 10.3c0 4.8 0.1 9.7-0.5 14.5-1.3 12.6 0.8 25.3 0.5 38 0.6 13.5-2.2 27.1-0.3 40.6v0.1c-0.8 4.1-0.8 8.2-0.2 12.3 1 6.3 0.4 12.7-0.3 19-0.5 11.8 0.4 23.7 0.1 35.5-0.3 0-0.8 0-1.1-0.1-3.7-1.7-7.6-3.2-11.7-3.1-8.3 0-16.7-0.5-25.1-0.4-4.8 0.2-9.5-3-11.3-7.5-2.3-6.1-1.7-12.9-4.1-19-1.4-3.2-5.2-4.4-8.5-4.3-8.6 0-17.3 0-26-0.1-3.8-0.1-8.4 1.1-10.1 4.8-2.3 6.7-1.5 14.1-4.4 20.7-1.8 3.9-6.2 6.2-10.5 5.9-13-0.4-26 0.2-39-0.4-2.3-2.7-4.1-5.9-6.9-8.2 0.6-0.2 1.8-0.7 2.3-0.9 2.7 1.6 4.3 4.3 6 6.8 12.2 0.2 24.4-0.1 36.6 0.1 3.3 0.2 7.1-0.7 8.9-3.8 3.2-6.4 2.3-13.9 4.5-20.7 1.7-4.6 6.8-6.9 11.5-6.8 9.1 0 18.1-0.1 27.1 0 5.1-0.2 10.2 2.9 11.7 7.9 1.5 5.5 1.1 11.3 3 16.7 1.4 3.7 5.3 6.2 9.2 6.1 12.1 0.3 24.5-0.6 36.4 2.4-0.1-111.9-0.1-223.8 0-335.7-10-3.9-20.7-5.9-31.3-7-7.3-0.7-14.7-0.4-22-0.4-106.3 0-212.7 0.3-319.1 0.2-14.4 0.4-29 2.6-42.7 7.4 0 90.3 0.4 180.6 0.1 270.9 0.5 21.9-0.1 43.7 0.2 65.6 17-3.4 34.3-1.7 51.5-2.2 2.6 0.1 5.1-0.9 7.1-2.5 0.5 0.3 1.6 1 2.1 1.4-2.3 2-5.1 3.4-8.2 3.6-17.7 1.5-35.9-1.5-53.3 2.8 9.6 0.6 19.2-0.3 28.7 0.4l-0.1 0.6c-9.9-0.3-19.8 0.4-29.6-0.4-0.8-7-0.1-14.2-0.2-21.3-0.1-14.2 0.3-28.4-0.5-42.5q-0.1-2.3-0.2-4.5c-1.8-0.1-3.6-0.2-5.4-0.3 2.2-0.2 4.3-0.4 6.4-0.6-1.2-30.7 0.4-61.4-0.7-92.1-1.5-0.3-2.9-0.6-4.4-0.9q2.1 0 4.3 0-0.1-5.4-0.1-10.9c-0.5-0.1-1.5-0.5-2-0.7 0.5-0.2 1.5-0.4 2-0.5 0.9-15.3 0.4-30.7 0.5-46 0-13.6 0.3-27.2-0.6-40.7 0-2 0.2-4 0.3-6-0.6-24.9-0.1-49.8-0.4-74.7 13.8-5.1 28.5-7.7 43.3-7.8z"/><path class="b" d="m748.9 285.5c3.3-0.2 8.4-0.7 9.2 3.6 0.7 6.9 0.6 13.9-0.2 20.9-0.6 4.1-5.6 3.3-8.7 3.4-0.9-9.3 0.6-18.6-0.3-27.9z"/><path class="b" d="m714.8 285.6c2.6 0 5.2 0.1 7.8 0.1 0.7 8.9 1 17.8 0.3 26.8 0.4 0.2 1.2 0.6 1.6 0.8l1.1 0.5c-3.5-0.2-7-0.3-10.3-1.3-2.3-1.2-1.8-4.4-2-6.5 0.4-6.8-1.9-14.1 1.5-20.4z"/><path class="b" d="m227.6 980.8c12.7-1.4 26.1 2.3 35.7 10.9 10.2 9 16.3 22.6 15.8 36.3-0.3 12.8-6 25.7-16 33.8-8.5 7.4-19.8 11.4-31.1 11-13.9-0.5-27.8-7.3-35.8-18.8-6.1-8.3-9.7-18.7-9.2-29.1 0.5-14.9 8.8-29.4 21.4-37.4 5.9-3.5 12.4-6 19.2-6.7zm-3.2 9.6c-8.2 1.9-15.4 7-20.6 13.5-8.6 10.7-9.8 26.2-4.2 38.5 3.4 7.4 9.6 13.4 16.7 17.3 15.6 8.4 37.2 3.5 46.9-11.5 7.7-10.2 8.8-24.4 3.9-36.1-6.7-16.2-25.7-26.2-42.7-21.7z"/><path class="c" d="m251.2 47.1c13.7-4.8 28.3-7 42.8-7.4 106.3 0 212.7-0.2 319-0.2 7.3 0 14.7-0.3 22 0.4 10.6 1.1 21.3 3.1 31.3 7-0.1 111.9 0 223.8 0 335.7-11.9-3-24.3-2.1-36.4-2.4-3.9 0.1-7.8-2.4-9.2-6.1-1.9-5.4-1.5-11.2-3-16.7-1.5-5-6.6-8.1-11.7-7.9-9-0.1-18 0-27.1 0-4.7-0.1-9.8 2.2-11.5 6.8-2.2 6.8-1.3 14.3-4.5 20.7-1.8 3.1-5.6 4-8.9 3.8-12.2-0.2-24.4 0.1-36.6-0.1-1.7-2.5-3.3-5.2-6-6.8-3.6-2.5-8.5-3.3-12.5-1.1-3.1 1.6-4.1 5.3-6.2 7.9-13.2 0.7-26.5-0.1-39.7 0.2-3.7 0.1-7.4 0.4-11 0-2.8-3.3-4.4-8.2-9.1-9.2-7.2-2.1-13.9 3-17.3 9-12.5 0.5-25.1-0.1-37.6 0.4-2.9 0.1-6.1-0.6-7.8-3.2-4-6.4-2.5-14.5-5.6-21.3-1.8-4-6.4-6-10.6-5.7q-13 0-26 0c-5.1-0.1-11.1 2.2-12.5 7.6-1.9 6.8-1.5 14.2-5.4 20.4-2 1.5-4.5 2.6-7.1 2.5-17.2 0.5-34.5-1.2-51.5 2.2-0.3-21.9 0.3-43.7-0.2-65.6 0.3-90.3-0.1-180.6-0.1-270.9zm117.1 214.3c-7 2.3-8.8 12.7-3.3 17.5 3.4 3.4 8.6 2.4 13 2.6 6-0.3 12 0.5 18-0.5 7.4-1.7 9.8-12.3 4.4-17.4-3.8-3.8-9.6-2.7-14.4-2.8-5.9 0.3-11.9-0.7-17.7 0.5zm166.9 0c-8.2 2.1-9.4 14.6-2.2 18.6 4.6 2.4 10 1.2 15 1.5 5-0.1 10.1 0.6 15-0.4 7.1-2.3 9.2-12.8 3.8-17.7-3.8-3.4-9.2-2.3-13.8-2.5-5.9 0.3-12-0.6-17.8 0.5zm-143.8 47.9c-3.5 1.9-2.6 8.3 1.6 8.5 10.6 0.8 21.3 1.7 31.9 2.8 2.4 0.3 5 0.9 6.5 3 1.6 2.3 1.5 5.4 1 8.1-0.7 3.3-4.2 4.9-7.3 5.1-9.7 1.1-19.4 2-29.2 2.6-1.5 0.2-3.2 0.2-4.6 0.9-3.7 2.3-1.9 9.3 2.7 8.9 16.3 0.1 32.6-0.1 49 0 3.1 0.2 6.6-1.1 7.7-4.3 0.7-3.2 0.3-6.5 0.4-9.8-0.1-6.7 0.2-13.4-0.1-20.1-0.1-3.5-3.4-6.6-7-6.3-16 0-32 0-48.1 0-1.5 0.1-3.1-0.1-4.5 0.6zm95.9 0.2c-2.7 1-4.6 3.8-4.5 6.7-0.2 7.6 0 15.3-0.1 23 0 2.8-0.3 6.1 1.9 8.2 1.8 2.2 4.8 2.2 7.4 2.2 15.7 0 31.4-0.1 47-0.1 1.5-0.1 3.3 0.1 4.5-1 2.2-1.8 2-5.9-0.5-7.4-1.5-0.9-3.3-0.8-5-1-9.7-0.6-19.4-1.5-29.1-2.4-2.9-0.1-6-1.5-7.2-4.3-1.3-4.2-0.7-10.9 4.7-11.6 11.8-1.7 23.7-2.3 35.5-3.8 4.6-1 3.6-8.6-0.8-8.9-15.4-0.4-30.8 0.3-46.2 0-2.5 0-5.2-0.4-7.6 0.4z"/><path class="c" d="m167.3 148.4c6.4-1.7 13.1-0.7 19.7-0.9 6.5 0 13.8-0.9 19.4 3.2 5.4 3.5 8 10 7.7 16.3-0.2 20.3 0.3 40.6-0.1 61 0.1 9.1-7.9 17.2-16.9 17.6-8.1 0.2-16.1 0-24.2 0-7.6 0.2-15-5.1-17.2-12.4-1.2-3.9-0.8-8.1-0.9-12.2 0.1-18.6-0.3-37.3 0-56 0.1-7.5 5.4-14.3 12.4-16.6zm14.2 33.1c-6.9 1.1-12.1 7.6-12.2 14.5-0.5 8.8 8 16.6 16.7 15.5 8.4-0.6 14.8-9.2 13.3-17.4-1-8.2-9.7-14.4-17.8-12.6z"/><path class="c" d="m716.4 156.5c5.7-1.7 11.7-0.9 17.6-1.1 5.7 0.2 11.5-0.4 17.1 0.7 7.9 1.9 13.3 10 13 17.9 0 18 0 36 0 54 0 4.2 0.4 8.5-0.7 12.6-2.2 7-9 12.6-16.4 12.6-8.7 0-17.4 0-26-0.1-8.8-0.2-16.1-8.5-16.1-17.1-0.4-20.7 0.2-41.3-0.1-62-0.5-7.6 4.5-14.9 11.6-17.5zm14 32.9c-6 1.7-10.5 7.4-11 13.5-0.8 7.9 5.6 15.7 13.6 16.2 8.9 1.1 17.4-7.2 16.6-16.1-0.4-9.2-10.4-16.5-19.2-13.6z"/><path class="c" d="m696.5 285.5q1 0 2.1 0c-0.1 10.3 0.1 20.6-0.1 30.9-0.4 0.4-1.1 1.2-1.5 1.7q-0.2 2.5-0.5 5c-0.2-12.5 0-25.1 0-37.6z"/><path class="c" d="m178.7 327.2c12.5-2.1 25.4 0.7 37.9-1.8 0.2 0.4 0.6 1.1 0.8 1.4q-0.4 1.5-0.7 3l-0.1 0.3c-0.1-0.1-0.4-0.2-0.5-0.2-6.1-2.5-12.8-1-19.1-1.4-8-0.5-16.6 1.5-24.2-2.1 2 0.2 3.9 0.5 5.9 0.8z"/><path class="c" d="m704.5 327.2c18.5-0.4 37-0.1 55.5-0.3 1.5 0.1 3.1-0.1 4.6 0.2 2.1 1 4.2 2.1 6.2 3.3q-1.5 0.8-3 1.6c-0.7-0.3-2-1-2.7-1.3-5.3 0.6-10.7-0.2-16-0.2q0.9-1.4 1.8-2.8c-9-0.1-18.1-0.4-27.2 0.4q2.2 1.2 4.3 2.4c-8.7 0.3-17.5 0.5-26.2-0.1 1.7-0.7 3.4-1.3 5.2-2q-1.3-0.6-2.5-1.2z"/><path class="c" d="m743 340.6c0.5 0 1.7 0.1 2.3 0.1-0.2 4.7 1.1 9.8-1 14.2l-1.6 0.8c0.2-5 0-10.1 0.3-15.1z"/><path class="c" d="m172.8 438.8c3.2-2.3 7.4-2.2 11.2-2.1 49.6 0.7 99.3 0.8 149 1.5 28 0.4 56 0.2 84 1 97 0.6 194 1.9 291 2.6 11 0 22 0.3 33 0.5 6.7-0.1 13.1 5.3 13.6 12 0.3 7 0 13.9-0.1 20.9-0.1 89.6-0.9 179.2-1 268.8-0.1 14.7 0 29.3-0.3 44-0.2 19.3 0.4 38.6-0.4 58 0.1 24.7-0.2 49.4-0.2 74-0.2 5.5 0.8 11.5-2.4 16.2-2.7 4.5-8.1 6.5-13.2 6.3-24-0.3-48-0.2-72-0.7-33.7-0.2-67.3-0.4-101-1-30.3-0.1-60.6-0.2-91-0.6-43-0.9-86-0.6-129-1.4-23.3-0.1-46.6-0.5-70-0.5-31-0.6-62-0.8-93-0.9-4.4-0.1-9.1-0.9-12.2-4.2-3.1-2.8-4.5-7.1-4.5-11.2 0.3-102.3 1.2-204.7 1.4-307 0.1-47.5 0.8-94.9 0.6-142.4 0-7.6 0-15.1 0.1-22.7-0.1-4.5 2.5-8.8 6.3-11.2zm14.7 10.8c-5.3 2.2-8.5 7.8-8.1 13.5 0 44.3-0.5 88.6-0.6 133q-0.8 157.5-1.6 315c-0.4 5.4 2.6 11 7.6 13.3 4.5 2 9.6 1.2 14.3 1.4 116.4 0.8 232.7 2.2 349 3.1 59.3 0.6 118.6 1.3 178 1.8 7.4 0.4 13.8-6.3 13.6-13.6 0.6-147 1.3-294 2-441-0.2-5.5 1.1-11.6-2.4-16.3-2.6-4.1-7.5-6-12.2-5.8-178-1.7-356-3.5-534-5.3-1.9 0.1-3.8 0.2-5.6 0.9z"/><path class="c" d="m174.4 971.8c4-4.9 10.1-7.7 16.4-7.1 28.3 0.2 56.6 0.3 84.9 0.7 6.1-0.3 12.5 2 16.2 7.1 1.9 3.1 2.7 6.8 2.7 10.5-0.1 7.8-0.2 15.6-0.2 23.4 0 2.1 0.1 4.3 0.1 6.4 0.1 13.2-0.5 26.3-0.2 39.5q0 6.3 0 12.7c0.1 6.2 0.4 12.9-3.7 18-2.8 3-6.7 5.2-10.8 5.7-30 0.1-59.9-0.4-89.8-0.5-5.9 0.3-11.8-2-15.5-6.6-4.7-5.8-2.9-13.8-3.1-20.6-0.2-25.7 0.4-51.3 0.3-77 0-4.2 0.5-8.5 2.7-12.2zm53.2 9c-6.8 0.7-13.3 3.2-19.2 6.7-12.6 8-20.9 22.5-21.4 37.4-0.5 10.4 3.1 20.8 9.2 29.1 8 11.5 21.9 18.3 35.8 18.8 11.2 0.4 22.6-3.6 31-11 10.1-8.1 15.8-21 16.1-33.8 0.5-13.7-5.6-27.3-15.8-36.3-9.6-8.6-23-12.3-35.7-10.9z"/><path class="c" d="m224.4 990.4c17-4.5 36 5.5 42.7 21.7 4.9 11.7 3.8 25.9-3.9 36.1-9.7 15-31.3 19.9-46.9 11.5-7.1-3.9-13.3-9.9-16.7-17.3-5.6-12.4-4.4-27.8 4.2-38.5 5.2-6.5 12.4-11.6 20.6-13.5zm5 25.2c-7 2-10.3 11.3-6.2 17.4 3.1 5.2 10.4 6.1 15.5 3.7 6.1-3.1 7.9-11.8 3.7-17.1-2.8-4.2-8.4-5.1-13-4z"/><path class="d" d="m82 139.1c16.4-12.8 37.3-19.4 58.1-19.2 36.3 0.1 72.6 0.3 109 0.4-0.1 2-0.3 4-0.3 6-6.3 1.6-12.3 5.4-15.4 11.3-3.3 5.9-3.3 12.9-3.2 19.5 0.2 11.1-0.1 22.3 0.3 33.5 0.5 9.9 6.7 19.7 16.4 22.8 0.5 0.3 1.5 0.7 2 0.8q0 5.5 0.1 10.9-2.2 0-4.3 0l-1.2-0.1c0 31.2 0 62.4-0.1 93.7 1.8 0.1 3.6 0.2 5.4 0.3q0.1 2.2 0.2 4.5c-5.9 2.3-11.5 6.4-14.2 12.4-2.7 5.6-2.1 12-2.2 18.1 0.1 10.7-0.2 21.4 0 32.1 0 6.4 2.2 12.9 6.9 17.4 6.8 7.1 18.3 8.7 26.9 4.1 7.5-3.8 11.8-11.8 12.9-19.9l0.1-0.6c4.6 0.4 9.2 0.4 13.9 0.1 0.1 10.3 0.1 20.5 0 30.8 0.1 2 0 4.1 0.6 6 2.6 0.8 5.4 0.6 8.1 0.6 6.1-0.1 12.3 0.3 18.4-0.3 0.4-12.3 0-24.7 0.1-37q5.7 0.1 11.3 0c0.2 11.6-0.1 23.2 0.2 34.8-0.1 3.3 3.9 2.3 6 2.5 6.8-0.4 13.6 0.3 20.3-0.3 0.9-1.6 0.8-3.5 0.8-5.3 0-10.5-0.1-21.1-0.1-31.6q5.9 0.1 11.8-0.1c0.3 12.4 0 24.9 0.3 37.4q5.9-0.1 11.9-0.1c0.2-12.4-0.3-24.9-0.1-37.3 3.7 0.1 7.4 0 11.2-0.1 0 12.4 0.2 24.8 0 37.3q6 0 12-0.1c0-12.4 0.1-24.8 0-37.1 3.8 0.1 7.6 0 11.4 0-0.1 12.4-0.1 24.8-0.1 37.2q6 0.1 12 0c-0.1-12.4-0.1-24.8-0.1-37.3 3.7 0.1 7.5 0.2 11.3 0.1 0.1 12.4-0.1 24.8 0 37.2 4 0 8 0 12 0 0.3-12.4 0.1-24.8 0.1-37.2 3.8 0.1 7.5 0.1 11.3-0.1-0.2 12.4 0.3 24.9 0.1 37.3q5.9 0 11.8 0c0-12.4 0-24.9 0.2-37.3 3.7 0.3 7.5 0.3 11.2 0.2 0.3 12.3 0 24.7 0.2 37.2q5.9-0.1 11.9 0c0-12.5-0.1-24.9-0.1-37.4q5.8 0.1 11.6 0.1c-0.1 12.4-0.3 24.8 0.1 37.3q5.8-0.1 11.6 0c0.1-12.4 0.1-24.8 0.1-37.2 3.8 0 7.5 0.1 11.2-0.2 0.3 12.4 0.3 24.8 0.2 37.2q6 0.2 12 0.1c0.2-12.4 0-24.8 0-37.2 3.9 0.1 7.7 0.1 11.6 0 0 10.9-0.1 21.8-0.1 32.7 0.3 1.4-0.3 3.4 1.1 4.3 3.8 0.6 7.6 0.1 11.3 0.3 4.5-0.2 9.1 0.4 13.6-0.2 1.2-1.1 0.9-2.9 1-4.3 0-11-0.1-21.9 0-32.8q5.9 0.1 11.8 0c0.1 11.2-0.2 22.5-0.1 33.8 0.1 1.3 0.1 3.4 1.9 3.5 6.2 0.6 12.5 0 18.8 0.3 2.3-0.2 6.5 0.7 6.3-2.9 0.3-11.5 0-23.1 0.1-34.7 4.6 0.1 9.2 0 13.8-0.1 0 5.6 1.3 11.3 5 15.6 4.7 6.4 13 9.8 20.8 8.9 9.9-0.8 18.5-9 20.1-18.6 0.7-4.4 0.5-8.8 0.5-13.1-0.1-11 0-22-0.2-33-0.1-9.2-6-18.1-14.6-21.4-0.2-2-0.4-3.9-0.6-5.9v-0.1c1.8-0.1 3.7-0.2 5.6-0.3-0.4-31 0.1-62-0.3-93q-2.5 0.1-5 0.2 0-5.1 0-10.3c0.4-0.2 1.2-0.5 1.5-0.7 9.1-3.6 15.6-12.7 15.9-22.5 0.4-11 0.1-22 0.2-33 0-7.7 0.3-16.1-4.3-22.7-3.1-4.8-8.1-7.6-13.4-9.4q0.3-2.8 0.2-5.5c30.1-0.1 60.3 0.4 90.4 0.4 9.7 0.2 19.4-0.1 29 0.3 18.9 0.6 37.6 7.6 52.2 19.6 14.8 12 25.6 28.9 30.2 47.4 2.4 9.4 3.3 19.1 3.2 28.8-17.2-0.2-34.4 0-51.6-0.1-7.2-0.2-14.6 0-21.4 3-13.1 5.3-22.3 18.4-24 32.4-1.8 16.2 7.7 33.6 23 39.6 3.6 1.5 7.4 2.7 11.4 2.8 15.6 0.9 31.3 0.4 47 0.6 5.1 0.1 10.2-0.6 15.3-0.6 0 14-0.2 28 0 42.1-15.8-0.1-31.6 0-47.3-0.1-8.3 0.1-16.9-0.6-24.7 2.8-16.5 6.1-27.3 24.5-24.7 41.9 1.9 11.4 8.5 22.5 18.8 28.3 5.3 3 11.3 5 17.4 5.1 20.1 0 40.2 0.2 60.3-0.1 0 13.9-0.5 27.8-0.1 41.6q-28.5 0-57-0.1c-8.8-0.1-17.7 2.7-24.6 8.3-8.5 6.6-13.8 16.8-15 27.5-1.2 12.3 4.1 25.1 13.5 33.2 6.8 6.1 15.9 9.4 25.1 9.5 19.2 0.1 38.5 0.1 57.8 0.1q-0.2 20.6 0 41.1c-14.9-0.2-29.9-0.1-44.8-0.1-9.4 0.1-19.3-1-28.1 3.1-11.7 4.9-20.4 15.9-22.9 28.2-3.9 17.9 6.6 37.8 23.9 44.2 9.5 4 20.1 2.4 30.2 2.8 13.8-0.2 27.6 0.2 41.4-0.1 0 13.7-0.1 27.5 0 41.2-14.9-0.1-29.7 0.1-44.5-0.2-8.9 0.2-18.2-0.8-26.7 2.5-16.8 6.2-27.8 25.1-24.7 42.8 2.7 16.3 16.3 31.4 33.3 32.8 20.8 0.7 41.6 0.1 62.5 0.4-0.2 13.8-0.1 27.6-0.1 41.4-16.1-0.1-32.2-0.1-48.3-0.1-6.7 0-13.5-0.5-20 1.5-14.6 4.1-26 17.6-27.7 32.7-2.2 16.4 7 33.8 22.3 40.6 9.1 4.5 19.5 3.6 29.4 3.7q22.1 0 44.2 0.1c0 13.6-0.1 27.2 0 40.9-15.7 0-31.5-0.1-47.2-0.1-7.4 0.1-15-0.7-22.1 1.7-9.2 2.7-16.7 9.5-21.7 17.5-6.3 10.4-6.9 23.7-2.6 34.9 2.3 5.9 6.4 10.9 10.9 15.2 6.9 6.3 16.3 9.4 25.5 9.4 19 0.1 38 0.2 57 0.1 0.5 23-7.4 46.2-22.2 63.8-17 20.5-43.1 33.1-69.8 33.1-57 0-114-0.5-171-0.7-50.6-0.5-101.3-0.3-152-0.7-102-0.6-204-0.9-306-1.5-12-0.3-24.1 0.8-35.9-1.9-29.8-6.1-55.2-28.7-65.9-57-4.8-12.1-7-25.2-6.6-38.1 19.8 0 39.6 0.4 59.4 0.2 18.7-0.3 35-16.6 36.6-35.1 1.7-14-4.9-28.9-16.7-36.8-6.6-4.7-14.8-6.8-22.8-6.7-18.8 0-37.6-0.1-56.4-0.1 0.2-13.7 0-27.4 0.4-41.2 18.3 0.3 36.6 0.1 54.9 0.3 6 0.1 12.1-0.5 17.6-3 11.9-5.2 20.9-16.6 22.9-29.5 3.2-17.2-6.5-36-22.8-42.8-9.3-4.2-19.8-2.9-29.8-3.1-14.2 0.1-28.5-0.2-42.7 0-0.1-13.7 0-27.5 0-41.3 19.9 0.1 39.9 0.1 59.8 0 18.8-0.7 34.8-17.3 36.2-35.8 1.2-14.9-6.6-30.3-19.7-37.6-6.7-3.9-14.7-5.1-22.5-5-17.8 0.1-35.7-0.1-53.6 0.1-0.2-13.8 0.1-27.5 0-41.3 17.2 0.2 34.4 0.1 51.6 0.3 6.9 0.1 14.1-0.1 20.5-3 14.8-6.3 25-22.3 24-38.5-0.8-12.5-7.7-24.6-18.3-31.2-6.8-4.6-15.2-6-23.3-5.9-18.1 0.1-36.1-0.1-54.2 0.1 0.1-13.8 0.2-27.5 0-41.3 17.1 0.2 34.2 0.1 51.3 0.2 8.3 0.3 17-0.4 24.3-4.7 9.4-5.1 16.3-14.2 19.1-24.6 3.2-12.1 0.1-25.6-7.7-35.3-7-8.4-17.6-13.8-28.6-14-19.4 0-38.8 0.1-58.2-0.1 0.1-13.8 0.3-27.6 0.2-41.3 15.3 0.1 30.6 0.2 45.9 0.3 7.8 0 15.8 0.7 23.3-2 17.4-5.7 29.1-25 26.1-43-2-12.9-10.5-24.8-22.5-30.2-6.4-3.1-13.8-3.4-20.9-3.4-17.2 0.1-34.5-0.1-51.8 0.1 0.2-13.9 0.1-27.8 0.1-41.6 17.2 0.2 34.4 0 51.6 0.2 10 0.5 20.5-1.5 28.3-8 9.7-6.9 15.3-18.6 15.7-30.3 0.8-16-9.4-31.8-24.3-37.7-4.6-1.8-9.7-2.6-14.7-2.7-18.7-0.2-37.5 0-56.3-0.1 0.5-4.2 0.6-8.5 1.1-12.7 3-24.9 16.1-48.6 36.3-63.7zm72.7-11.1c-0.3 3.6-0.4 7.3-0.6 11-2.4 0.1-4.9 0.1-7.4 0.7-0.3 1.4-0.4 2.9-0.4 4.3-0.2 35 0.2 70-0.1 105 0.2 1.5-0.4 3.6 1.1 4.6 2.4 0.7 4.9 0.8 7.4 1-0.1 4.8-0.4 9.6 0.1 14.4 0.3 0.3 0.9 0.9 1.3 1.1 7.2 0.6 14.6 0.3 21.9 0.1 0.2-0.3 0.6-0.9 0.8-1.2 0.6-4.8-0.1-9.7 0.1-14.6 3.7-0.1 7.4 0 11.1 0.1-0.1 3.9-0.2 7.6-0.1 11.4 0.1 1.5-0.2 3.2 1.1 4.2 4 0.6 8 0.1 12 0.3 3.8-0.1 7.7 0.6 11.3-0.9 0.4-5 0.2-9.9 0.3-14.9 2.6-0.2 6.2 0.7 7.8-2 0.7-33.8-0.2-67.7 0.4-101.6-0.1-3.5 0.3-7-0.4-10.4-1.3-3-5.2-1.5-7.7-1.8-0.1-3.4-0.2-6.7-0.5-10-0.2-2.7-3.3-2.5-5.2-2.5-5.8 0.3-11.6-0.2-17.3 0.3-3.5 2.8-1.2 8.2-1.6 12-3.8 0.7-7.6 0.7-11.3 0.1 0-3.6 0.3-7.2-0.1-10.7q-0.2-1.6-1.8-1.5c-5.3-0.3-10.6 0.1-15.9-0.2-2.1 0.1-5.1-0.7-6.3 1.7zm548.6 2.3c-0.5 5.3-0.1 10.7-0.4 16-2.1 0.2-4.6-0.3-6.2 1.5-0.7 1.6-0.5 3.5-0.6 5.2 0.1 16.4 0.6 32.7 0.2 49-0.1 19.8 0.1 39.6 0.2 59.4 2.2 0.5 4.4 0.9 6.6 0.9 0 3.2-0.2 6.3 0.2 9.5 0.7 1.9 3.1 1.4 4.7 1.5 5.4-0.1 10.7 0 16.1-0.1 1.2 0 3-0.4 3.2-2 0.2-3.1 0.4-6.3 0.4-9.4 3.6-0.1 7.2 0 10.7 0.2 0.1 3.4-0.3 6.8 0.4 10.1 1.2 1.6 3.4 1 5.2 1.2 5.6-0.2 11.3 0.2 17-0.3 3.5-2.2 1.3-7.4 1.8-11 3.2-0.2 6.4-0.4 9.6-0.6 0.2-3.1 0.6-6.2 0.7-9.4-1-34-0.1-68-0.5-102 0-5.1-6.5-3.1-9.7-3.7-0.2-5.1 0.3-10.2 0-15.3-0.1-1.9-2.4-2.3-3.9-2.3-5.7 0-11.3 0-17 0.1-1.5-0.1-3.6 0.4-3.5 2.3-0.3 5.1 0 10.2-0.1 15.3-3.6 0.2-7.3 0.2-10.9 0-0.1-4.5 0-9 0-13.5-0.1-1.4 0-3.1-1.5-3.9-5.6-0.6-11.4-0.1-17-0.3-2 0.1-4.6-0.5-5.7 1.6zm-620.9 28.9c0 13.5 0.2 27 0 40.5q2.7 0 5.5-0.1c-0.1-6-0.1-12-0.1-18 4.5 0.4 10.2-0.9 13.2 3.3 3.4 4.7 6.4 9.6 9.3 14.6 2.3 0.1 4.6 0 6.8 0-4.2-6.1-6.9-13.7-13.4-18 2.6-0.7 5.4-1.5 7.3-3.5 4-3.8 4.1-10.6 0.9-14.9-2.1-2.7-5.6-3.7-8.8-3.7-6.9-0.3-13.8-0.1-20.7-0.2zm716.3 3.4c0.1 13.4 0 26.8 0.1 40.2 7-0.2 14.1 0.4 21.2-0.4 5.5-0.6 9.5-6 8.9-11.5 0.3-4.3-3-7.7-6.5-9.6 3.4-2.1 5.7-6.3 4.6-10.3-0.8-4.7-5.3-8.1-10-8.3-6.1-0.3-12.2 0-18.3-0.1zm-580.6 121.6c-1.6 1.4-0.3 3.7 0.5 5.2 3.8 6.9 2.5 15 2.6 22.6 0 5.4-2.9 12.5-9.2 12.7-18.9 0-37.9 0-56.9 0-3.6 0.2-6.8-3-6.8-6.6q-0.1-12.6-0.1-25.2c-0.1-2.4 1.1-4.6 1.2-6.9-0.3-2.2-3.4-3.1-4.9-1.4-2 2.6-2.1 6.2-2.2 9.3 0 8.1 0.1 16.1 0.1 24.2 0 6.6 5.8 12.5 12.5 12.4 16.3 0.1 32.7-0.1 49.1 0 4-0.1 8.1 0.3 12.1-0.6 0.1 0 0.4 0.1 0.5 0.2l0.1-0.3c3.2-1.7 6-4.1 7.7-7.4 3.3-5.9 2.2-12.9 2.5-19.4 0.2-6.1-0.7-12.6-3.9-18-0.9-1.7-3.5-2.4-4.9-0.8zm476.6 1.9c-0.3 10.3 0.1 20.6-0.1 30.9 0 3.7-0.6 7.7 1.5 10.9 2.1 3.4 6.1 4.9 10 4.8 18.6 0.1 37.3 0 55.9 0 2 0 3.9-0.3 5.8-0.7q1.5-0.8 3-1.6c2.3-2.3 4.6-4.7 5.7-7.8 1.4-3.3 1-7 1.1-10.5-0.1-4.6 0.2-9.2-0.1-13.8-0.1-2.8-5.2-3.2-5.5-0.3-0.5 6.7 0 13.4-0.4 20.1-0.4 4-3.4 7.5-7 9-1.5-0.3-3.1-0.1-4.6-0.2-18.5 0.2-37-0.1-55.5 0.3-1.7-0.9-4.1-1.9-3.9-4.2-0.3-12.5 0-25.1-0.2-37.6-0.4-3.1-6-2.5-5.7 0.7zm14.1 2.9c0 7.4 0 14.6 0 22-0.1 2.1 0.8 4.9 3.2 5.3 4.1 0.3 8.3 0.3 12.4-0.3 0.3-0.5 0.9-1.6 1.2-2.1l-1.1-0.6c7.5 0.1 15-0.2 22.6 0 0 0.8 0 2.2 0 3 4.3 0 8.6 0.4 12.9-0.1 1.9-0.2 3-2.4 2.9-4.2 0.1-7.6-0.2-15.3 0-23 0.2-2.3-0.4-5.2-2.9-5.9-4.1-0.5-8.4-0.5-12.5 0-0.2 0.6-0.6 1.8-0.9 2.3-7.1-0.6-14.3-0.4-21.5-0.2-0.2-0.6-0.7-1.6-0.9-2.2-4.1-0.3-8.2-0.5-12.2 0.1-2.7 0.5-3.3 3.6-3.2 6zm-550.8-0.1c-0.2 6.9-0.5 14 0 20.9 1.5 3.6 6.3 1.7 9.3 2 4.9-0.2 9.7 0 14.6 0.2 6.3-0.3 12.5-0.4 18.8-0.2 3-0.1 7 1.4 9.3-1.1 1.1-3.5 0.3-7.2 0.5-10.8-0.2-3.9 0.5-7.9-0.6-11.7-2.1-2.9-6.1-1.4-9.1-1.7q-17 0.2-34 0c-2.9 0.2-7.6-1.3-8.8 2.4zm35.2 47.5c-0.1 4.9-0.1 9.8-0.1 14.7 3.5-0.2 7.3 0.7 10.5-0.6 1.5-4.1 1.2-9.1 0.2-13.4-3.3-1.5-7.1-0.5-10.6-0.7zm-29 0.7c-1.3 4-0.9 8.6-0.3 12.7 2.8 2.7 7.5 0.9 11.1 1.3-0.1-4.8-0.1-9.7 0-14.6-3.6 0.1-7.5-0.8-10.8 0.6zm549.5 3.2h0.7l-1.1 0.7c-1.2 4.1-0.7 8.6-0.3 12.8 3.3 2.3 7.6 0.9 11.4 1 6.1-0.2 12.1 0.2 18.2-0.3l0.1 1.1 1.6-0.8c3-0.1 7 1.3 9.3-1.2 0.5-3.6 0.3-7.2 0.2-10.8 0-1-0.6-2.5-1.8-2.6-3.4-0.4-6.8-0.1-10.1-0.2-9.4-0.1-18.8-0.4-28.2 0.3zm-520.6 24c0.1 5 0.1 9.9 0.1 14.8 3.5-0.6 8 1.2 10.9-1.2 0.3-4.1 1-8.8-0.5-12.7-3.1-1.8-7.1-0.5-10.5-0.9zm-28.9 0.8c-1 4.1-0.7 8.6-0.3 12.8 3.2 2.3 7.6 0.7 11.3 1.1 0-4.9 0-9.8 0-14.7-3.6 0.3-7.6-0.7-11 0.8zm548.7 3.8c-0.7 3.9-0.4 8-0.1 11.9 2.7 3.1 7.7 1.1 11.4 1.8q0-7.5-0.1-15c-3.6 0.5-8.2-1.2-11.2 1.3zm29.4-1.1c0.2 4.9 0.1 9.8 0.1 14.7 3.5-0.3 7.2 0.5 10.6-0.6 1.5-3.9 0.6-8.6 0.5-12.7-2.7-3-7.6-1-11.2-1.4zm-578.4 25.1c-0.6 4.2-0.5 8.6 0.1 12.9 2.9 2.5 7.4 0.6 11 0.9q-0.2-7.2 0-14.5c-3.7 0.3-7.7-0.9-11.1 0.7zm29.2-0.8q0.2 7.4 0.1 14.8c3.7 0.2 7.4 0.4 11.1-0.6 0.2-4.6 0.2-9.1-0.1-13.7-3.7-0.7-7.4-0.5-11.1-0.5zm520 4c-0.8 3.8-0.6 7.9-0.3 11.8 1.3 2.8 5 1.6 7.5 1.9q2 0.1 4 0.1c0-5 0-10-0.2-15.1q-1.9 0-3.8-0.1c-2.4 0.3-5.5-0.7-7.2 1.4zm29.8-1.4c0.3 5 0.3 10.1 0.2 15.1 3.4-0.4 7.8 1.3 10.3-1.4 0.6-4.1 1-8.7-0.1-12.8-2.9-1.8-7-0.5-10.4-0.9zm-570.2 43.9c-3.8 2.4-6.4 6.7-6.3 11.2-0.1 7.6-0.1 15.1-0.1 22.7-3.1 0-6.2-0.2-9.3 0.4-2.5 0.7-3.9 3.4-3.7 5.9-0.2 59.4 0 118.7-0.4 178.1-0.2 57.3-0.2 114.5-0.2 171.8-6.1 3-10.2 9.3-10.2 16.2-0.1 13.3-0.2 26.6 0 40 0.2 6.6 4 12.9 10 15.8-0.1 11.7-0.1 23.5-0.2 35.2 0 2.4 0.1 5 1.9 6.8 1.9 2.3 5.1 2.3 7.8 2.4 139.7 0.8 279.3 1.4 419 2.3 57 0.1 114 0.7 171 0.8 4 0.5 8.5-2 8.8-6.3 0.5-12.6-0.3-25.3 0.4-37.9 4.8-3 9.9-6.9 10.6-13 0.8-10.3 0.3-20.7 0.5-31.1-0.1-7.2 1.3-15.1-2.5-21.8-1.8-3.4-5.3-5.2-8.7-6.6 0.2-116.5 0.6-233.1 0.7-349.6 0.7-4.3-3.4-7-7.3-6.8 0.1-7 0.4-13.9 0.1-20.9-0.5-6.7-6.9-12-13.6-12-11-0.2-22-0.5-33-0.5-97-0.7-194-2-291-2.6-28-0.8-56-0.6-84-1-49.7-0.7-99.4-0.8-149-1.5-3.8-0.1-8-0.2-11.3 2.1zm18.3 517.2c-0.6 2.9-0.2 5.8-0.2 8.7-6.3-0.6-12.4 2.2-16.4 7.1-2.1-0.1-4.6-0.5-6.3 1.2-2.6 2.6-2.4 6.6-2.5 10 0 9.3 0 18.6 0 27.9-3.4 0-6.9-0.5-10.2 0.5-2.1 1-1.6 3.7-1.7 5.6 0 12 0 24 0 36 0 1.9-0.1 4.5 2.2 5.2 3.3 0.9 6.7 0.5 10 0.6-0.2 9.4 0 18.8-0.1 28.2 0 3.7 0.5 8 3.6 10.6 2.6 2.4 6.3 2.6 9.6 2.7q-0.1-3.5-0.3-6.9c-1.5-0.8-3.6-1.1-4.5-2.8-0.7-3-0.2-6.1 0.3-9 3.7 4.6 9.6 6.9 15.5 6.6-0.1 3.2-0.5 6.4 0.3 9.6 0.7 1.9 2.8 2.7 4.6 2.6 24.4 0.3 48.7 0.3 73.1 0.7 2.3 0.1 5-0.6 5.7-3.1 0.7-3 0.3-6 0.3-8.9q3.3-0.2 6.6-0.4h-0.8c4.1-0.5 8-2.7 10.8-5.7 0.6 0.2 1.7 0.6 2.2 0.9 0.1 2.5-0.1 5.3-1.4 7.6-1 1.2-2.7 1.3-4 1.9q-0.1 3.7-0.2 7.4c3.8 0.4 7.8-0.3 10.3-3.3 3.6-3.8 2.8-9.3 3-14 2.8 0 5.6 0.3 8.4 0.1 1.4 0.1 3.1-1 3.1-2.6 0.2-4.3 0.2-8.7 0.1-13.1 0.2-1.7-1.4-3.2-3.1-3.1-4.9-0.2-9.8 0-14.7 0.2q0-6.4 0-12.7c4.2 0 8.4 0.2 12.6 0 2.8 0 5.5-2.4 5.2-5.3 0.2-9 0.1-18 0.1-27 0.1-2.6-0.3-6.2-3.3-7-4.8-0.8-9.6-0.1-14.4-0.2 0-2.1-0.1-4.3-0.1-6.5 4.9 0.2 9.7 0.4 14.6 0.2 1.3 0 3.2-0.8 3.2-2.4 0.2-5 0.3-10-0.3-14.9-3.2-2.4-7.6-0.8-11.3-1-0.3-4.4 0.7-9.3-1.6-13.3-1.5-2.5-4.6-2.3-7.1-2.4-3.7-5.1-10.1-7.4-16.2-7.1 0.1-3 0.5-6.1-0.1-9.1-1.1-3.1-4.8-3.7-7.6-3.6-23-0.1-46-0.1-69-0.2-3 0-6.8 0.4-8 3.5zm206.5 11c-0.3 6.2 0 12.3 0 18.5-4.2 0.1-9-0.4-12.2 2.8-3 2.8-3.3 7.1-3.1 10.9-2 2.2-3.5 4.8-3.3 7.8-0.1 18 0.1 36.1 0.3 54.1-0.1 4.5 2.5 8.7 6.8 10.3 3.6 1.3 7.5 1.3 11.2 1.4 0.3 5.2-0.2 10.3 0.7 15.4 0.1 3.7-0.4 7.5 0.8 11 2.9 5.1 9.7 2.8 14.5 3.2 1-9.8 0-19.6 0.6-29.4 3.3 0.2 6.7 0.4 10 0.2 0.3 9.8-0.2 19.6 0.3 29.3q3.7 0 7.4 0c0.1-9.9 0.2-19.7 0.2-29.5 3.6 0 7.3 0.1 11 0.1-0.2 9.8 0 19.6-0.3 29.4q4 0.2 7.9 0.3c0.2-9.9 0.1-19.7 0-29.6 3.7 0.1 7.4 0 11.1 0 0.1 9.9 0 19.8 0 29.6q3.9 0 7.7 0c0.3-9.8 0.2-19.6 0.2-29.4 3.6 0.2 7.1 0.3 10.7 0.1 0.3 9.8 0 19.6 0.2 29.3q3.8 0 7.6 0.1c0.1-9.8 0.1-19.6 0.3-29.4 3.6 0 7.3-0.2 10.9-0.1-0.3 9.8-0.1 19.7-0.1 29.5 2.5 0 5 0.2 7.5-0.2 0.2-9.7-0.2-19.5 0.2-29.1 3.6 0 7.2 0 10.9 0 0.2 8.5 0.1 17 0 25.4 0.1 1.3-0.3 2.8 0.4 4 2.4 0.2 4.9 0.2 7.4 0.2 0.9-9.7 0-19.5 0.4-29.2 3.5 0 7-0.2 10.6-0.2 0.1 9.7 0 19.5 0 29.2q3.8 0.2 7.6 0.2c0.4-9.8 0.1-19.6 0.2-29.4 3.6 0 7.2 0 10.8 0-0.1 9.8 0.4 19.6 0.2 29.3q3.9 0.1 7.8 0.1c-0.2-9.8 0-19.5-0.1-29.3 3.7 0.1 7.4 0.1 11.1 0.3 0 9.6-0.1 19.3 0 29q3.7 0.1 7.5 0.1c0.3-9.7 0.1-19.4 0.2-29.1 3.6-0.1 7.3 0 11 0 0 9.7-0.1 19.5 0.1 29.2q3.8 0 7.5 0c1.1-9.7-0.1-19.4 0.6-29.1 3.5-0.1 7-0.2 10.5-0.1q0.1 14.6-0.1 29.2 3.8 0.1 7.7 0c0.4-9.7-0.2-19.4 0.1-29.1 3.7 0 7.4 0.1 11.1 0.1 0 9.7-0.2 19.5 0 29.3q3.8-0.1 7.5-0.1c0.3-9.7 0.1-19.4 0.3-29.1 3.4 0.1 6.8 0.3 10.2 0.3 0.8 9.4-0.5 18.9 0.7 28.2v0.7q3.9 0 7.8 0c0.1-9.7 0-19.4 0.1-29.1 3.6 0.1 7.3 0.1 10.9 0.1-0.1 9.7-0.2 19.4 0 29q3.8 0 7.7 0.2c0.8-9.7-0.1-19.5 0.4-29.2q5.4-0.1 10.8 0.1c-0.1 9.7-0.1 19.5-0.2 29.2q3.8 0.1 7.6 0.2c0.4-9.7 0.1-19.5 0.2-29.2q5.5 0.3 11 0c0.1 9.6 0.1 19.2 0 28.8 3.8 0 7.7 0.4 11.5-0.3 2.8-0.7 4.3-3.7 4.1-6.4 0.1-7.4 0-14.8 0-22.2 4.4-0.2 9.6 0.6 13.2-2.6 3.3-1.9 5.5-5.5 5.4-9.4 0.2-16.3-0.1-32.6 0.1-48.9 0-4.1 0.3-8.5-2-12.1-0.7-3.9-0.4-8.7-3.8-11.5-3.6-3.8-9.2-2.6-13.9-2.7-0.2-6.3 0-12.5-0.1-18.7 0.1-2.8-2-5.4-4.6-5.8-3.5-0.5-7-0.3-10.4-0.3 0 8.2-0.1 16.5 0 24.8-3.7 0-7.5-0.1-11.2-0.2-0.3-8.2 0.5-16.4-0.2-24.5-2.4-0.2-4.8-0.1-7.1-0.1-0.1 8.2-0.5 16.4-0.1 24.6-3.8 0.1-7.6 0-11.4-0.2 0-8.1 0-16.2 0.1-24.3q-3.7-0.2-7.5-0.2c-0.1 8.2 0 16.3 0.1 24.5q-5.7 0.1-11.4 0c0.1-8.1 0-16.3 0-24.5q-3.8 0-7.6 0.1c0.2 8.1 0.1 16.3 0.1 24.4q-5.3-0.2-10.6-0.1c-0.6-8.2 0.4-16.4-0.5-24.5q-3.9 0-7.8 0c0 8.2 0 16.3 0.1 24.5q-5.6 0-11.2-0.2c0.1-8.1-0.1-16.3 0-24.4q-3.8-0.1-7.7-0.1c-0.9 8.3 0 16.5-0.4 24.8-3.6-0.1-7.1-0.2-10.7-0.4 0.1-8.1 0.2-16.3-0.1-24.5q-3.7 0.1-7.4 0.2c0.2 8.1-0.1 16.1 0 24.2q-5.7 0-11.4-0.1 0-12.2 0.1-24.3-3.7-0.1-7.4-0.1c0 8.1 0.1 16.2 0.1 24.3q-5.4 0.2-10.7 0.2c-0.5-8.2 0.3-16.5-0.5-24.7q-3.9 0.3-7.8 0.4c0.1 8 0 16 0 24.1q-5.4 0-10.9-0.1c-0.1-8.1 0-16.1-0.1-24.2q-3.8 0-7.5-0.1c-0.2 8.1-0.1 16.2 0 24.2-3.8 0.1-7.5 0.2-11.2 0q0-12.2-0.1-24.3-3.8-0.2-7.6-0.1c0.1 8.1 0.1 16.2 0 24.3q-5.6 0.1-11.2-0.1c0-8 0-16.1 0-24.1q-3.6 0-7.3-0.1c-0.2 8.1-0.1 16.1 0 24.2q-5.7 0.2-11.3 0c0-8.1 0.1-16.2 0-24.3q-3.8-0.1-7.6-0.1c-0.8 8.2 0 16.3-0.5 24.4q-5.3 0.1-10.7-0.2c0.2-8 0-16.1 0.2-24.2q-3.9-0.2-7.8-0.2c-0.1 8.1-0.2 16.2 0 24.4q-5.6 0.1-11.1-0.1c0.1-8 0-16.1 0-24.1q-3.8 0-7.6 0c0.1 8-0.1 16 0 24-3.7 0.1-7.4 0.1-11.1 0 0-8 0.1-16-0.1-23.9q-3.7-0.1-7.5-0.2c0.1 8-0.1 16 0.1 24-3.7 0-7.3 0-10.9 0-0.2-8 0-16.1-0.2-24.1-3.5 0-7-0.2-10.5 0.2-2.5 0.4-4.6 2.6-4.5 5.2z"/><path class="d" d="m87.8 163.7c5.8 0.4 11.9-1 17.5 1 4.9 2.1 4.3 10.1-0.7 11.7-5.5 1.4-11.2 0.5-16.8 0.8 0-4.5 0-9 0-13.5z"/><path class="d" d="m804.2 167.2c4.6 0.3 9.3-0.4 13.8 0.7 4.9 1.2 5.6 9 0.8 10.8-4.6 1.5-9.7 0.5-14.5 0.9-0.1-4.2-0.1-8.3-0.1-12.4z"/><path class="d" d="m804.3 184.2c4.9 0.3 9.9-0.4 14.8 0.7 5.7 1.4 6 10.6 0.5 12.5-5 1.4-10.3 0.5-15.4 0.7q0-7 0.1-13.9z"/><path class="d" d="m457.6 489.5c2.6-2.9 7-3.1 10.6-3-0.2 18.8-0.8 37.6-1.1 56.4-3.7 0.1-7.5 0-11.2-0.1 0-1.6 0-3.1 0-4.6-7 5.4-16.9 6.4-24.9 2.9-10.6-4.6-16.5-17.1-13.8-28.2 1.8-8.5 8.4-15.7 16.8-18 7.8-2.4 16.4-0.3 22.7 4.8 0.3-3.4-0.8-7.1 0.9-10.2zm-21.1 16.2c-5.2 2.2-8.9 7.7-8.4 13.4 0.1 7.5 7.3 14.3 14.9 13.4 8.6-0.6 14.8-10.6 11.8-18.6-2.1-7.5-11.4-11.1-18.3-8.2z"/><path class="d" d="m221.6 493.7c9.6-6.1 22.8-4.7 32 1.7-1.7 2.5-3.3 5-5 7.5-5.7-2.3-12.1-4.8-18.2-2.4-2.9 1-3.7 5.4-0.6 6.7 6 2.9 13.2 2.4 18.8 6.1 7.5 4 7.5 15.6 1.4 20.8-4.6 4-11 5.3-17 5.1-7.2-0.3-14.7-2.6-19.8-7.9 1.9-2.6 3.7-5.1 5.8-7.4 4.8 3.1 10.1 6.1 16.1 5.9 2.9 0 6.9-1.2 7.1-4.7 0.4-2.8-2.3-4.1-4.4-4.7-5.8-1.8-12.2-2.4-17.2-6-6.5-5.1-5.9-16.2 1-20.7z"/><path class="d" d="m532.6 493.5c3.4-1.8 7.1-3.1 11-3.6 0 4.1-0.1 8.1-0.2 12.1 1.9 0.2 3.8 0.3 5.7 0.6-0.1 3.4-0.2 6.8-0.3 10.2q-2.9 0-5.8 0c0.3 6.2-0.6 12.6 0.3 18.8 0.6 2.7 3.8 2.8 5.6 4.3 0.1 3.1-0.1 6.1-0.1 9.2-4.5-0.1-9.5-0.7-12.8-4.1-3.6-4-4.1-9.8-4-15 0.3-10.8 0.3-21.6 0.6-32.5z"/><path class="d" d="m641.2 492.2c2.7-2.2 6.3-2 9.6-2.1-0.4 18.8-0.8 37.7-1.2 56.5-3.7 0-7.5-0.1-11.3-0.3q0.2-2.2 0.3-4.4c-9.5 8.4-25.4 6.1-33.4-3.3-6.5-7.3-7.6-18.4-3.9-27.2 4.3-9.6 15.4-15.2 25.7-13.6 4.5 0.5 8.5 2.8 12.2 5.2 0.5-3.5-1-8.1 2-10.8zm-20.6 16.5c-6.8 1.9-11.1 9.5-9.5 16.3 1.1 6.9 8.1 11.9 15 11 7.7-0.6 13.2-8.7 12-16-1.1-7.9-9.9-13.8-17.5-11.3z"/><path class="d" d="m659.3 490.5c2.8-0.4 5.6-0.6 8.3 0 1.8 0.7 1.1 3 1.3 4.5-0.1 1.4 0.3 4.1-1.7 4-2.9-0.1-6.5 0.9-8.8-1.2 0.1-2.2-1-6 0.9-7.3z"/><path class="d" d="m268 496c8.5-7 22.2-7.1 30.6 0.2 7.1 5.8 10.3 16.2 7.8 24.9-11.6-0.9-23.3-0.8-35-1.1 1.3 3 2.9 6.1 5.7 7.8 5.3 3.1 12.3 2.2 16.7-2 3.1 2.2 6.3 4.2 9.5 6.2-4 3.7-8.9 6.7-14.4 7.5-8.7 1.7-18.4-1.2-24.1-8.3-8.4-10-7.1-26.8 3.2-35.2zm4.1 14.3c7.8 0 15.8 0.8 23.6 0.3-1.7-3.8-4.3-7.9-8.7-8.9-6.2-2.1-14.1 2-14.9 8.6z"/><path class="d" d="m315.1 503.1c6.4-10.6 21.4-14.3 32.1-8.4 9.7 4.8 14.5 17 11.9 27.2-11.8-0.2-23.6-0.7-35.4-0.8 1.7 6.6 8.8 10.8 15.4 9.6 2.9-0.4 5.3-2.1 7.6-3.8 2.9 2.3 6.1 4.1 9.2 6-6.2 6.6-16 9.5-24.8 7.6-5.8-1.2-10.9-4.6-14.5-9.1-6.2-8-6.5-19.7-1.5-28.3zm8.8 8.3c8 0.1 16.1 0.4 24.1 0.5-1.3-3.9-3.7-7.7-7.9-9-6.6-2.6-14.4 1.8-16.2 8.5z"/><path class="d" d="m372.6 498.7c7.8-6.9 20.1-7.6 28.8-2.1 8.6 5.3 12.6 16.5 10.5 26.2-11.8 0.1-23.7-0.7-35.6-0.6 1.4 3.5 3.6 6.9 7.2 8.4 5 2.5 11.2 1.2 15.3-2.5 3.2 1.8 6.3 3.9 9.4 5.9-9.5 10.8-28.7 11-38-0.3-8.7-9.8-7.6-26.5 2.4-35zm3.9 13.7c8.1 0.2 16.2 0.3 24.3 0.5-1.5-4.4-4.9-8.6-9.8-9.4-6.3-1.6-12.7 3-14.5 8.9z"/><path class="d" d="m489.9 504.9c1.9-4.6 6.6-7.2 11.1-8.5 8.4-2.2 17.7-0.3 24.9 4.5-1.7 2.6-3.4 5.2-5.4 7.7-5-2.5-10.8-4.5-16.4-2.9-1.9 0.5-3.8 2-3.6 4.1 0.4 2.7 3.2 3.7 5.4 4.5 5.8 1.8 12.4 2.3 17.1 6.5 4.4 3.7 4.3 10.5 2.1 15.4-3.2 6.2-10.6 8.4-17.1 8.6-7.8-0.1-15.9-2.2-21.8-7.5 1.8-2.6 3.7-5.2 5.6-7.7 5 3.4 10.9 6.4 17.2 5.7 2.1-0.3 4.7-1.1 5.4-3.4 0.9-2.5-1.2-4.9-3.5-5.5-6.1-2-13.2-2.5-18.2-7-4.1-3.5-4.6-9.7-2.8-14.5z"/><path class="d" d="m553.9 497.5c3.8-0.3 7.5 0.1 11.3 0.3-0.1 7.8-0.2 15.5-0.4 23.2-0.1 3.8-0.2 8 2.4 11 2.9 3.9 9.3 4.4 12.7 0.9 2.4-2.3 3.1-5.7 3.2-8.9 0.4-8.6 0.2-17.2 0.6-25.9 3.8 0 7.5 0 11.3 0.1 0 8-0.2 15.9-0.4 23.8 0 5.7-0.7 11.7-4.4 16.2-8 11.4-27.8 10.1-34-2.5-2.6-4-3.1-9-2.8-13.7 0.3-8.1 0.4-16.3 0.5-24.5z"/><path class="d" d="m692.4 499.6c7.6-1.6 15.9 0.2 21.9 5.1 5.7 4.7 9.1 12 8.9 19.3 0.1 10.5-7.5 20.5-17.6 23.4-9.7 2.7-21.4 0-27.6-8.4-7.2-8.4-7.2-21.7-0.4-30.4 3.5-4.8 9-7.9 14.8-9zm1.8 10.6c-5.6 1.6-10.1 6.8-10.1 12.8-0.5 7.5 6.2 14.8 13.9 14.5 7.2 0.2 13.5-6.4 13.2-13.6 0.7-8.8-8.5-16.4-17-13.7z"/><path class="d" d="m657.9 508c0.5-4.3 5.9-4.3 9.2-3.8 1.8 0.3 1.5 2.4 1.5 3.8-0.4 13-0.4 26-0.8 39q-5.3 0-10.6-0.3c0.2-12.9 0.3-25.8 0.7-38.7z"/><path class="d" d="m219.2 571.1q3-0.2 6-0.2c2.9 8 5.3 16.2 8.1 24.3 2.5-8.1 5.8-15.9 8.8-23.9 1.7 0.1 3.5 0.1 5.3 0.2q-0.3 14.6-0.3 29.2-2.1 0-4.2 0c-0.2-7.4 0.4-14.8 0.2-22.2-3.1 7.2-5.5 14.6-8 22q-1.9 0.1-3.8 0.1c-2.7-7.9-5.5-15.8-8-23.7-0.2 7.8-0.2 15.6-0.4 23.4q-2 0-4 0c0-9.8 0.3-19.5 0.3-29.2z"/><path class="d" d="m320.3 572.8q2 0 3.9 0.1-0.2 14.7-0.4 29.4-1.9 0-3.9-0.1c0-9.8 0.4-19.6 0.4-29.4z"/><path class="d" d="m288.9 572.1c0.9 0 2.8 0 3.8 0.1q-0.1 14.7-0.4 29.5c-0.9 0-2.8 0-3.7 0.1 0-0.7 0.2-1.9 0.2-2.5-2 2-4.8 3.4-7.7 2.5-8.6-2.1-9.6-14.9-3.6-20.3 3.4-2.8 8.2-2.1 11.5 0.5-0.1-3.3-0.1-6.6-0.1-9.9zm-8.3 11.6c-4.4 3.5-4 13.7 2.3 15 5.1 0.1 6.6-5.8 5.9-9.8 0.1-4.1-4.5-7.5-8.2-5.2z"/><path class="d" d="m339.4 573.2c1.6 0.2 3.6-0.4 5 0.4 2.6 3.4 4.8 7.2 7.3 10.6 3-3.3 5.2-7.3 8.3-10.6q2.3 0 4.6 0.1c-3.3 4.7-7 9-10.5 13.5 3.4 5.4 7.1 10.5 10.7 15.8-1.6 0-3.3 0.1-4.9-0.1-3.4-3.5-5.5-8-8.4-12-3 3.9-5.8 8-8.8 11.8q-2.5 0-5-0.1c3.7-5.1 7.5-10 11.3-14.9-3.1-4.9-6.7-9.5-9.6-14.5z"/><path class="d" d="m368.5 573.8c1.1 0 3.1 0 4.2 0.1-0.1 9.7-0.2 19.5-0.4 29.3-1 0-3 0-4 0 0-9.8 0-19.6 0.2-29.4z"/><path class="d" d="m387.1 573.9q2.3 0.1 4.6 0.2c3.7 9.9 7.6 19.8 11.6 29.7-1.6 0-3.2 0.1-4.8-0.1-1.4-2.9-2.3-5.9-3.4-8.8q-5.9-0.2-11.8-0.2-1.5 4.3-3.2 8.6-2.3-0.1-4.6 0c3.8-9.9 7.8-19.6 11.6-29.4zm-2.4 17.3c3.1 0.1 6.1 0.1 9.1 0.2q-2.1-6.4-4.5-12.7c-1.6 4.2-3.1 8.3-4.6 12.5z"/><path class="d" d="m415.5 574.5c5.6-1.4 12.1 1 15.1 6.1 3.2 5.6 2.9 13-0.5 18.4-3.9 6.1-12.8 7.2-18.7 3.6-10.1-6.4-8.2-25.4 4.1-28.1zm-0.1 4c-9 3.7-8.2 19.8 1.4 22.2 4.6 1.2 9.5-1.8 10.7-6.3 1.2-4.3 1.2-9.5-1.7-13.2-2.4-3.2-6.9-3.8-10.4-2.7z"/><path class="d" d="m451.1 575.3q10.5 0.1 21 0.5c0 0.9 0 2.8 0 3.7-5.7-0.1-11.3-0.2-17-0.3q0 4.3 0 8.5c5.2 0.1 10.4 0.2 15.7 0.2q0 1.9 0 3.9c-5.3 0-10.6-0.2-15.9-0.3q0 4.8 0 9.5c5.8 0.1 11.6 0.3 17.4 0.4 0 1-0.1 2.9-0.2 3.8-7.1-0.1-14.3-0.1-21.4-0.3 0.1-9.9 0.1-19.8 0.4-29.6z"/><path class="d" d="m480.5 577.4c4.1-2.6 9.8-2.5 14 0 2.6 1.6 3.5 4.6 3.8 7.5q-1.9 0-3.8 0c-0.4-5.5-7.3-6.9-11.5-4.7-2.1 1.3-2.3 4.7-0.1 6 4.1 2.3 9.4 1.8 13.2 4.8 3.4 2.9 3.8 8.5 0.8 11.8-4 4.1-10.6 4.1-15.5 1.8-3.6-1.6-5.5-5.4-5.9-9.2q2.1-0.2 4.2-0.3c0.3 6.7 9 9 13.8 5.4 1.9-1.4 2-4.6-0.1-5.9-4.5-3.1-10.8-2.3-14.7-6.3-3-3.2-1.8-8.7 1.8-10.9z"/><path class="d" d="m503.9 605.9c0.2-9.9 0.1-19.7 0.5-29.6 5.5 0.4 11.1-0.1 16.5 1 7.2 1.9 7.3 13.5 0.7 16.2-4.3 1.4-9 0.6-13.4 0.7q-0.1 5.8-0.1 11.6-2.1 0.1-4.2 0.1zm4.5-25.5q-0.1 5-0.1 10c3.4 0 6.8 0.4 10.2-0.2 4.5-0.8 4.8-8.9 0-9.5-3.3-0.5-6.7-0.2-10.1-0.3z"/><path class="d" d="m534.7 577.7c4.6-2.3 11.4-0.1 12.6 5.3 0.9 2.9-0.7 5.6-2.5 7.7 2.4 2.4 4.7 5.7 3.6 9.3-1.3 6-9.1 9-14.4 6.1-3-1.4-4.3-4.6-5-7.6q1.9-0.3 3.9-0.6c0.9 2.1 1.7 4.8 4.1 5.5 4 1.4 8.9-2.6 7.4-6.9-0.8-3.6-5-4.4-8.1-3.8 0.2-0.8 0.5-2.4 0.6-3.2 2.6-0.2 5.7-0.8 6.5-3.6 1.4-3.7-3.5-7.1-6.7-5.1-1.9 0.7-2.4 2.7-3 4.4q-2.1-0.2-4.1-0.3c0.7-2.9 2.2-5.8 5.1-7.2z"/><path class="d" d="m552.1 586.1c0.5-3.5 2.3-7.2 6-8.2 5.5-2.1 13.4 1.5 13 8.1-0.8 8.1-9.6 11.1-14.1 16.9 4.6 0 9.2 0.1 13.7 0.2q0.1 2.1 0.1 4.1c-6.5-0.2-13-0.1-19.5-0.4 0.6-6 5.8-9.7 10.2-13.2 2.9-2.3 6.5-5.5 5.4-9.6-1.2-3.5-6.3-4.3-8.8-1.9-1.3 1.1-1.5 2.9-2 4.4-1-0.1-3-0.3-4-0.4z"/><path class="d" d="m592.4 579.5c3.8-2.2 8.8-2.4 12.8-0.8 3.3 1.4 4.8 5 5.5 8.3q-2 0-4.1 0c-0.8-5.8-8.7-7.3-12.5-3.8-2 1.9-0.3 5 1.9 5.8 4.3 1.7 9.5 1.7 13 5 3.3 3.3 2.4 9.1-1.1 11.9-7.1 5.3-19.8 1.6-20.4-8.1q2.1-0.1 4.2-0.3c0.6 6.3 8.5 8.4 13.3 5.5 2.2-1.2 2.9-5 0.5-6.4-4.4-2.7-10.2-2.3-14.3-5.8-3.3-3-2.6-9 1.2-11.3z"/><path class="d" d="m258.5 579.6c3.6-0.9 7.7 0 10.2 2.8 2.9 3.2 2.7 7.8 2.2 11.7-1 5.7-7.6 8.8-12.8 7.1-9.7-2.4-9.8-19.7 0.4-21.6zm-0.1 3.7c-3.8 2.4-3.9 7.8-2.4 11.6 1.3 3.5 6.3 4.7 8.9 2.1 2.6-3 2.9-7.5 1.5-11-1.2-3.1-5.2-4.2-8-2.7z"/><path class="d" d="m617.8 580.8c4.2-4.2 12.9-2.6 14.7 3.3 1.1 3.1-0.4 6.4-2.9 8.3 4.1 1.6 5.7 6.9 3.9 10.7-2.6 6-11.2 7.2-15.9 3.4-2-1.7-2.6-4.2-3.2-6.6 1-0.1 3-0.2 4-0.3 0.9 2.6 2.3 5.9 5.6 5.6 4.7 0.5 7.8-5.6 4.8-9.1-1.6-2.2-4.5-2.2-7-1.8 0.1-0.8 0.3-2.4 0.4-3.2 2.2-0.4 4.9-0.4 6.1-2.6 2-2.9-0.8-7.2-4.3-6.6-3-0.2-4.4 2.5-5.1 5q-1.9-0.2-3.8-0.4c0.6-2 1.1-4.2 2.7-5.7z"/><path class="d" d="m299.1 583.1c3.6-4.4 11.2-4.2 14.7 0.2 2.1 2.5 2.1 5.9 2.4 9q-7.9 0-15.8-0.2c0.5 3.1 2 6.7 5.5 7 3 0.7 5.3-1.7 6.4-4.2q1.9 0.3 3.9 0.6c-1.8 7.8-13.4 9.2-17.9 3.1-2.8-4.6-2.7-11.2 0.8-15.5zm1.4 5.6c3.9 0.2 7.8 0.3 11.7 0.3-0.6-2.6-2.1-5.5-5.2-5.6-3.4-0.5-5.7 2.4-6.5 5.3z"/><path class="d" d="m330.2 580.8c1.4 0 2.9 0.1 4.4 0.1q0.2 2.1 0.3 4.3c-1.5 0.1-3.1 0.1-4.6 0.1-0.1-1.5-0.1-3-0.1-4.5z"/><path class="d" d="m435.3 595.5q0.1-1.9 0.2-3.8 5.5 0 11 0.1 0.1 1.9 0.2 3.9c-3.8 0-7.6 0-11.4-0.2z"/><path class="d" d="m573.8 594.4q5.7 0.1 11.4 0.3c0.1 0.9 0.1 2.9 0.1 3.8q-5.7 0.1-11.5 0c0-1 0-3 0-4.1z"/><path class="d" d="m329.9 597.8q2.3-0.1 4.6-0.1 0 2.3 0.1 4.7-2.4-0.1-4.7-0.2 0-2.2 0-4.4z"/><path class="d" d="m218.9 619.5c6.6 0 13.2 0.1 19.8 0.3 0.1 0.9 0.1 2.8 0.2 3.8-5.3 0-10.5-0.2-15.8-0.3 0 2.9 0 5.8 0 8.8q6.8 0 13.6 0.2-0.1 1.9-0.3 3.8-6.7-0.1-13.5-0.4c-0.1 4.4 0 8.8-0.3 13.2-1 0-3.1-0.1-4.2-0.2 0.2-9.7 0.5-19.5 0.5-29.2z"/><path class="d" d="m244.8 625c3.7-5.6 12.1-7 17.7-3.6 2.8 1.7 4 4.8 5.1 7.6q-2.2 0.2-4.4 0.4c-0.9-1.9-1.8-4-3.6-5.1-4.3-2.4-10.4-0.4-12.1 4.2-1.6 4.3-1.6 9.3 0.5 13.4 2.2 4.1 8.2 6 12 3.1 2-1.4 2.8-3.7 3.6-5.8 1.4 0.3 2.8 0.6 4.2 0.9-0.9 2.5-1.8 5.1-3.8 6.9-5.7 5.2-16.2 3.8-19.8-3.2-3.1-5.8-3-13.3 0.6-18.8z"/><path class="d" d="m275.9 622.9c5-3.8 13.1-4 17.4 0.9 1.5 1.6 2.2 3.8 2.9 5.8q-2 0.3-4 0.6c-1.1-2-1.9-4.4-4.1-5.4-4.3-2.3-10.2-0.1-11.9 4.5-1.5 4-1.5 8.6 0.1 12.6 1.9 4.9 8.8 6.6 12.9 3.3 1.7-1.3 2.3-3.6 3-5.5 1.5 0.4 2.9 0.6 4.3 1-1.1 3.4-2.8 6.9-6.2 8.5-5.7 2.8-14 1.5-17.1-4.4-3.9-6.8-3.4-16.6 2.8-21.9z"/><path class="d" d="m312.7 621.3q2.1 0 4.1 0c0.2 9.8-0.1 19.6-0.2 29.5-1.1-0.1-3.2-0.1-4.3-0.1q0.2-14.7 0.4-29.4z"/><path class="d" d="m323.3 621.5c4.9 0.2 9.9-0.1 14.7 0.5 6.2 1.3 9.5 8.1 9.1 13.9 0.3 6-2.3 13.1-8.7 14.7-5.1 1-10.3 0.2-15.4 0.3 0.1-9.8 0.2-19.6 0.3-29.4zm4.1 4c0 7.2-0.1 14.4-0.2 21.6 3.1 0 6.2 0.3 9.2 0 3.8-0.5 6-4.5 6.2-8 0.5-4.4 0.2-10.1-4.1-12.6-3.4-1.6-7.4-0.8-11.1-1z"/><path class="d" d="m362.9 622.2c7.1 0 14.2 0 21.4 0.4-0.2 2-0.2 4.3-1.8 5.8-5.6 6.5-11.1 13-16.6 19.6 6.1-0.2 12.1 0 18.2 0.2q0 1.9 0 3.8c-7.6-0.1-15.3-0.1-22.9-0.4-1.1-1.7-0.6-4.3 0.9-5.6 5.7-6.5 11.2-13.3 16.9-19.8q-8.2-0.1-16.3-0.1 0.1-2 0.2-3.9z"/><path class="d" d="m399.1 622.8c0.8 0 2.5 0.1 3.3 0.1 0.2 6.2-0.1 12.5-0.2 18.8q2.1-0.1 4.1 0c0 0.9 0 2.8-0.1 3.7q-2 0-4-0.1-0.1 3.6-0.1 7.2c-1 0-2.9-0.1-3.9-0.1q0-3.5 0-7c-4.2-0.1-8.5-0.2-12.8-0.3 0-1.9 0-3.9 1.3-5.4 4-5.8 8.5-11.1 12.4-16.9zm-9.4 18.5q4.3 0.2 8.6 0.3c0.1-4.1 0.1-8.2 0.2-12.3q-4.4 6-8.8 12z"/><path class="d" d="m408.7 623c7.8 0.2 15.6 0.3 23.4 0.6 0 0.9 0 2.7 0 3.6q-4.9 0.1-9.9 0c0.2 8.6-0.1 17.1-0.1 25.6q-2.1 0.1-4.3 0.1 0-12.9 0.4-25.8c-3.1 0-6.3 0-9.4-0.1 0-1-0.1-3-0.1-4z"/><path class="d" d="m447.4 623.8q2.4 0 4.8 0.1c2.6 3.6 4.9 7.3 7.4 11 2.8-3.4 5.4-7 8.3-10.2 1.4-0.6 3.1-0.1 4.6-0.3-3.3 4.7-6.9 9.2-10.4 13.6 3.4 5.3 7.1 10.5 10.7 15.7-1.6 0.1-3.2 0.2-4.9 0.1-3.2-3.8-5.5-8.2-8.4-12.1-3 3.8-5.8 7.7-8.5 11.7q-2.6 0-5.1-0.1c3.6-5.1 7.4-9.9 11-15-3.1-4.9-6.6-9.5-9.5-14.5z"/><path class="d" d="m476.1 653.8c0.2-9.8 0.1-19.6 0.6-29.4q2 0.1 4.1 0.3c0 9.7-0.3 19.5-0.5 29.3q-2.1-0.1-4.2-0.2z"/><path class="d" d="m495.2 624.9c1.5 0 3 0.1 4.6 0.1 3.7 9.9 7.9 19.6 11.2 29.6q-2.4-0.1-4.7-0.2c-1.2-2.8-1.6-6.1-3.3-8.6-3.8-0.3-7.6-0.1-11.4-0.2-1.2 2.8-2.2 5.7-3.4 8.6q-2.1-0.1-4.2-0.2c3.5-9.8 7.5-19.4 11.2-29.1zm-2.3 17.2q4.6 0.1 9.2 0.1c-1.6-4.3-3.2-8.7-4.6-13.1-1.4 4.4-3.1 8.7-4.6 13z"/><path class="d" d="m522.5 625.6c6.9-2.3 15.1 1.9 17.1 8.9 1.6 5.6 1.1 12.6-3.2 17-5.5 5.6-16.2 5.2-20.7-1.5-5.8-7.8-3.2-21.5 6.8-24.4zm0 4.1c-5.7 2.6-6.4 10.2-4.7 15.5 1.5 5.4 8.3 8 13.1 5.4 3.9-1.9 5.3-6.6 5.1-10.7 0.1-3.6-1.1-7.6-4.3-9.7-2.7-1.9-6.3-1.7-9.2-0.5z"/><path class="d" d="m545.1 625.8c6.9 0.1 13.9 0 20.9 0.5 0 0.9 0.2 2.7 0.3 3.5-5.7 0.1-11.4 0-17.1-0.1-0.1 2.9-0.1 5.7-0.2 8.5 5.3 0.1 10.6 0.2 15.9 0.4 0 0.9 0 2.7 0 3.7q-8-0.1-16-0.3c0 3.1 0 6.2-0.1 9.4 5.8 0.2 11.6 0.3 17.3 0.5 0.1 0.9 0.3 2.8 0.4 3.8-7.3-0.1-14.6-0.3-21.9-0.4 0.4-9.8 0.1-19.6 0.5-29.5z"/><path class="d" d="m573.5 628.6c6.3-5.1 18.7-2.8 19.4 6.5-1 0-3 0.1-4.1 0.2-0.9-5.7-8.4-7.2-12.5-4-1.7 1.7-0.9 4.4 1.1 5.5 4.2 2.3 9.8 1.7 13.5 5.2 3.7 3.6 2.6 10.5-1.9 12.9-4.5 2.3-10.2 2-14.5-0.5-3.1-1.8-4.4-5.3-4.8-8.7q2-0.1 4.1-0.2c0.7 6.6 9.4 9.3 14.1 5.2 1.9-1.6 1.6-4.8-0.6-6-4.3-2.5-9.8-2.2-13.8-5.3-3.2-2.7-3.1-8.1 0-10.8z"/><path class="d" d="m598.1 656.2c0.1-9.8 0.2-19.6 0.4-29.4 5.8 0.3 11.8-0.5 17.4 1.3 6.6 2.6 6.1 14.3-0.9 16.1-4.2 1-8.5 0.3-12.6 0.4q-0.1 5.9-0.1 11.7-2.1 0-4.2-0.1zm4.5-25.3q-0.1 4.9-0.1 9.9c3.5 0 7 0.4 10.5-0.1 4.3-1 4.4-8.4 0-9.4-3.4-0.6-7-0.4-10.4-0.4z"/><path class="d" d="m627.7 628.7c4.8-3.2 12.9-0.8 13.7 5.3 0.7 2.8-0.7 5.5-2.9 7 4.4 2.3 5.5 8.3 2.8 12.3-2.8 4.7-9.6 5.3-14 2.6-2.4-1.6-3.4-4.4-4.2-7 1-0.2 3-0.4 4.1-0.5 0.6 2.7 2.4 6 5.8 5.6 4.6 0.3 7.5-5.9 4.3-9.3-1.5-2.2-4.4-1.6-6.7-1.7 0-0.8 0.2-2.5 0.3-3.3 2.2-0.2 5.1-0.2 6.3-2.6 1.8-3.3-1.8-7.3-5.3-6.2-2.6 0.2-3.5 2.9-4.3 5q-2-0.3-4-0.6c0.9-2.4 1.7-5.2 4.1-6.6z"/><path class="d" d="m646.3 636.4c0.3-4.9 4.6-9 9.7-8.6 5.3-0.4 10.6 4.7 9 10.2-1.9 7.1-9.6 9.8-13.8 15.3 4.6 0.2 9.2 0.3 13.8 0.5 0 0.9 0 2.7 0 3.7-6.6-0.1-13.2-0.1-19.9-0.4 1.3-6.8 7.5-10.6 12.4-14.6 2.5-2 4.6-5.3 3.3-8.5-1.2-2.9-5.2-3.3-7.8-2.1-1.9 1-2.2 3.3-2.9 5.1q-1.9-0.3-3.8-0.6z"/><path class="d" d="m671.9 630.9c4-3.7 10.6-3.9 15.3-1.3 2.7 1.4 3.6 4.6 4.3 7.4-1 0.1-2.9 0.3-3.9 0.3-0.7-5.5-7.7-7.1-11.8-4.5-1.9 1.2-2.3 4.3-0.4 5.7 4.5 2.6 10.6 1.9 14.4 5.9 3.5 3.5 2.1 10-2.1 12.3-4.3 2.4-9.8 2.1-14.2-0.1-3.2-1.7-4.5-5.4-5.1-8.7 0.9-0.2 2.7-0.5 3.7-0.6 0.9 3.3 3.1 6.8 6.9 6.9 3.6 0.9 9-0.7 8.8-5.1-2.8-5.2-9.8-4-14.1-6.8-4.1-2-5.2-8.3-1.8-11.4z"/><path class="d" d="m695.5 636.2c1.2-3.4 3.5-7 7.5-7.4 4.8-1.1 10.3 2.2 10.6 7.3 0.4 2.7-1.4 4.8-3.3 6.4 6.7 2.5 5.7 12.9-0.7 15.3-5.9 3.1-14.2-0.7-14.4-7.8 1-0.1 3.1-0.2 4.1-0.3 0.6 2.5 1.9 5.2 4.7 5.6 4.9 1.3 8.6-5.1 5.8-8.8-1.8-2.5-4.9-2.4-7.5-2.1 0.2-0.7 0.5-2.3 0.7-3 1.8-0.6 4-0.5 5.3-2 2.6-2.6 0.5-7.9-3.3-7.3-3.1-0.3-4.7 2.7-5.7 5.1q-1.9-0.5-3.8-1z"/><path class="d" d="m352.5 630q2.2 0.1 4.4 0.1 0 2.3 0 4.5-2.2 0-4.4-0.1 0-2.2 0-4.5z"/><path class="d" d="m433.6 640.4q5.7-0.1 11.5 0.2c0 1 0 2.9 0 3.9q-5.8 0-11.5-0.2c0-1 0-2.9-0.1-3.9z"/><path class="d" d="m352.3 651.6c0.2-1.5-0.4-3.3 0.4-4.6 0.9 0 2.6 0 3.5 0 0.9 1.3 0.3 3.1 0.5 4.6q-2.2 0-4.4 0z"/><path class="d" d="m256.7 739.7c2-1.8 4.8-1.6 7.3-1.6q19.5 0.3 39 0.6c-4.3 4.1-8.4 8.4-12 13.1-6.6 0-13.3-0.2-19.9-0.2-2.8-0.2-4.3 3-4.1 5.4-0.2 9.3-0.3 18.6-0.6 27.9 6.3 0.5 12.5 0.4 18.7 0.6 2.1-13.2 8.7-25.7 19.1-34.3 12.9-11.2 31.4-15.5 48-11.5 13.5 3 25.4 11.7 33.1 23.2-4 2.3-7.7 5-11.5 7.6-5.8-8.9-15.3-15.5-25.8-17.6-13.4-3-28.2 1.4-37.8 11.3-5.8 6.2-10.2 14-11.3 22.4-2.4 14.8 4.2 30.4 16.1 39.4 8.8 6.7 20.2 9.6 31.1 7.8 10.9-1.5 20.4-8.3 27.3-16.5 3.7 2.7 7.2 5.5 10.9 8.1-5.1 6.2-10.9 12.2-18.3 15.8-10.9 6-23.7 8.1-35.9 5.8-15.5-2.5-29.2-12.5-37.4-25.7-4-6.9-6.8-14.6-7.9-22.6-6.2-0.2-12.5-0.3-18.7-0.4 0 11.5-0.4 23.1-0.6 34.7-0.1 1.1 0.2 2.6-1 3.3-3.7 2.9-7.6 5.6-11.8 8 0.4-32.1 1.2-64.2 1.7-96.3 0.2-2.8-0.4-6.4 2.3-8.3z"/><path class="d" d="m501.9 763c11.1-12.9 28.8-19.4 45.6-17.7 0.1 5.1-0.2 10.2-0.2 15.3-10.2-1.1-20.8 1.5-28.8 8-8.3 7-14 17.4-13.8 28.4 0 12.8 7.2 25.4 18.3 31.8 7 4.2 15.2 5.8 23.3 5.5 0.1 5.1 0 10.2 0 15.2-15.2 1-30.4-5-41.5-15.3-7.9-7.8-13.5-18-15.3-29.1-2.4-14.9 2.3-30.8 12.4-42.1z"/><path class="d" d="m597.9 749c7-2.3 14.5-2.4 21.8-2.3q-0.1 7.7-0.2 15.4c-4.7 0-9.4-0.3-13.9 0.8-13.6 3-25.2 14.2-28 28 10 0.2 20 0.2 30 0.4q-0.1 7.4-0.3 14.8c-10 0-19.9-0.2-29.9-0.4 1.9 9 7.1 17.1 14.6 22.4 7.4 5.9 17 8.1 26.4 7.8 0 5.1 0 10.2-0.1 15.4-14.4 0.6-29-4.3-39.8-13.9-13-11.3-19.6-29.5-16.9-46.5 2.7-19.5 17.7-36.3 36.3-41.9z"/><path class="d" d="m330.7 762.7c13.1-3.7 28.1 2 35.2 13.7-3.5 2.4-7.2 4.6-10.7 7-2.3-3.2-5.1-6.1-8.8-7.6-7-3-15.9-1.2-20.9 4.6-3.9 4.6-5.7 10.9-4.2 16.8 1.7 7.7 8.9 13.7 16.7 14.3 6.6 0.7 12.8-2.9 16.9-7.8 3.6 2.4 7.2 4.7 10.7 7.3-5.8 8.1-15.5 13.3-25.6 13.3-14.3 0.7-28.2-10.1-31.3-24.1-2-8.7-0.1-18.2 5-25.4 4.3-5.7 10.2-10.1 17-12.1z"/><path class="e" d="m154.7 128c1.3-2.3 4.2-1.6 6.3-1.7 5.3 0.3 10.6-0.1 15.9 0.2q1.6-0.1 1.8 1.5c0.4 3.5 0.1 7.1 0.1 10.7-7.9-0.6-15.9-0.2-23.8-0.1-0.2-3.5-0.5-7.1-0.3-10.6z"/><path class="e" d="m191.7 126.6c5.7-0.4 11.5 0 17.3-0.3 1.9 0 5-0.2 5.2 2.5 0 3.2-0.2 6.4-0.2 9.6-8 0.2-16-0.4-23.9 0.2 0.4-3.8-1.9-9.2 1.6-12z"/><path class="e" d="m233.4 137.6c3.1-5.9 9.1-9.7 15.4-11.3 0.9 13.5 0.6 27.1 0.6 40.7-0.1 15.3 0.4 30.7-0.5 46-0.5 0.1-1.5 0.3-2 0.4-9.7-3.1-15.9-12.9-16.4-22.8-0.4-11.2-0.1-22.4-0.3-33.5-0.1-6.6-0.1-13.6 3.2-19.5z"/><path class="e" d="m667.8 136c0.1-2.7 0.4-5.4 0.6-8.1 5.3 1.8 10.3 4.6 13.4 9.4 4.6 6.6 4.3 15 4.3 22.7-0.1 11 0.2 22-0.2 33-0.3 9.8-6.8 18.9-15.9 22.5-0.4-0.1-1.3-0.3-1.7-0.4 0.9-10.1-1-20.1-0.6-30.2 0.1-16.3 0-32.6 0.1-48.9z"/><path class="e" d="m703.3 130.3c1.1-2.1 3.8-1.5 5.7-1.6 5.7 0.2 11.4-0.3 17 0.3 1.5 0.8 1.4 2.5 1.5 3.9 0 4.5-0.1 9 0 13.5-8.2-0.3-16.4-0.1-24.6-0.1 0.3-5.3-0.1-10.7 0.4-16z"/><path class="e" d="m738.5 131.1c-0.1-1.9 2-2.4 3.5-2.3 5.7-0.1 11.3 0 17 0 1.5-0.1 3.8 0.3 3.9 2.2 0.4 5.1-0.2 10.2 0 15.3-8.1-0.1-16.3 0-24.5 0.1 0.1-5.1-0.2-10.2 0.1-15.3z"/><path class="e" d="m243.5 225l1.2 0.1c1.5 0.3 2.9 0.6 4.4 0.9 1.1 30.7-0.5 61.4 0.7 92.1-2.1 0.2-4.2 0.4-6.4 0.6 0.1-31.3 0.1-62.5 0.1-93.7z"/><path class="e" d="m668 241c0.6-4.8 0.5-9.7 0.5-14.5q2.5-0.1 5-0.2c0.4 31-0.1 62 0.3 93-1.9 0.1-3.8 0.2-5.6 0.3-1.9-13.5 0.9-27.1 0.3-40.6 0.3-12.7-1.8-25.4-0.5-38z"/><path class="e" d="m154.7 254.6c8.1 0.3 16.2-0.2 24.3-0.2-0.3 4.9 0.4 9.8-0.2 14.6-0.2 0.3-0.6 0.9-0.8 1.2-7.3 0.2-14.6 0.5-21.9-0.1-0.4-0.2-1-0.8-1.3-1.1-0.5-4.8-0.2-9.6-0.1-14.4z"/><path class="e" d="m190 254.6c8 0.1 16.1-0.2 24.1 0 0 4.9 0 9.9 0.2 14.9-3.6 1.5-7.5 0.8-11.3 0.9-4-0.2-8 0.3-12-0.3-1.3-1-1-2.7-1.1-4.2-0.1-3.8 0-7.5 0.1-11.3z"/><path class="e" d="m368.3 261.4c5.8-1.3 11.8-0.3 17.7-0.6 4.8 0.1 10.6-1 14.4 2.8 5.4 5.1 3 15.8-4.5 17.4-5.9 1-11.9 0.2-17.9 0.5-4.4-0.2-9.6 0.8-13-2.6-5.5-4.7-3.8-15.2 3.3-17.5z"/><path class="e" d="m535.2 261.3c5.8-1.1 11.9-0.2 17.8-0.5 4.6 0.2 10-0.9 13.8 2.5 5.4 4.9 3.3 15.4-3.8 17.7-4.9 1-10 0.3-15 0.4-5-0.3-10.4 0.9-15-1.5-7.2-4-6-16.5 2.2-18.6z"/><path class="e" d="m703.1 262.3c8-0.1 16 0.1 23.9 0 0.1 3 0.3 5.9 0.3 8.9-0.2 1.6-2 2-3.2 2-5.4 0.1-10.7 0-16.1 0.1-1.6-0.1-4 0.4-4.7-1.5-0.4-3.2-0.2-6.3-0.2-9.5z"/><path class="e" d="m738.4 262c8.1 0.3 16.3 0.6 24.4 0-0.5 3.6 1.7 8.8-1.8 11.1-5.7 0.4-11.3 0-17 0.2-1.8-0.2-4 0.4-5.2-1.2-0.7-3.3-0.3-6.7-0.4-10.1z"/><path class="e" d="m708.8 289.1c0-2.4 0.5-5.5 3.2-6 4-0.6 8.2-0.4 12.2-0.1 0.1 0.6 0.3 1.7 0.3 2.2-0.4 0.1-1.4 0.3-1.9 0.5-2.6 0-5.2-0.1-7.8-0.1-3.4 6.3-1.1 13.6-1.5 20.4 0.2 2.1-0.3 5.3 2 6.5 3.3 1 6.8 1.1 10.3 1.4-0.3 0.5-0.9 1.6-1.2 2.1-4.1 0.6-8.3 0.6-12.4 0.3-2.4-0.4-3.3-3.2-3.2-5.3 0-7.4 0-14.6 0-22z"/><path class="e" d="m747.5 283.1c4.1-0.5 8.4-0.5 12.5 0 2.5 0.7 3.1 3.6 2.9 5.9-0.1 7.7 0.1 15.3 0 23 0.1 1.8-1 4-2.9 4.2-4.3 0.5-8.6 0.1-12.9 0.1 0-0.8 0-2.2 0-3 0.5 0 1.6 0.1 2.1 0.1 3.1-0.1 8.1 0.7 8.7-3.4 0.8-7 0.9-14 0.2-21-0.8-4.2-5.9-3.7-9.2-3.5-0.6-0.1-1.7-0.1-2.3-0.1 0.3-0.6 0.7-1.7 0.9-2.3z"/><path class="e" d="m158 289c1.2-3.7 5.9-2.2 8.8-2.4 0.9 8.4 0.5 16.8 0.5 25.3-3-0.3-7.8 1.6-9.3-2-0.5-6.9-0.2-14 0-20.9z"/><path class="e" d="m200.8 286.6c3 0.3 7-1.2 9.1 1.7 1.1 3.8 0.4 7.8 0.6 11.7-0.2 3.6 0.6 7.3-0.5 10.8-2.3 2.5-6.3 1-9.3 1.1-0.1-8.4 0-16.8 0.1-25.3z"/><path class="e" d="m668 332c-0.6-4.1-0.6-8.2 0.2-12.3 0.2 2 0.4 3.9 0.6 5.9 8.6 3.3 14.5 12.2 14.6 21.4 0.2 11 0.1 22 0.2 33 0 4.3 0.2 8.7-0.5 13.1-1.6 9.6-10.2 17.8-20.1 18.6-7.8 0.9-16.1-2.5-20.8-8.9-3.7-4.3-5-10-5-15.6 9.8-0.5 19.7 1.1 29.5-0.8 0.3 0.1 0.8 0.1 1.1 0.1 0.3-11.8-0.6-23.7-0.1-35.5 0.7-6.3 1.3-12.7 0.3-19z"/><path class="e" d="m234.8 335.9c2.7-6 8.3-10.1 14.2-12.4 0.8 14.1 0.4 28.3 0.5 42.5 0.1 7.1-0.6 14.3 0.2 21.3 9.8 0.8 19.7 0.1 29.6 0.4-1.1 8.1-5.4 16.1-12.9 19.9-8.6 4.6-20.1 3-26.9-4.1-4.7-4.5-6.9-11-6.9-17.4-0.2-10.7 0.1-21.4 0-32.1 0.1-6.1-0.5-12.5 2.2-18.1z"/><path class="e" d="m193.2 336.5c3.5 0.2 7.3-0.8 10.6 0.7 1 4.3 1.3 9.3-0.2 13.4-3.2 1.3-7 0.4-10.5 0.6 0.1-4.9 0-9.8 0.1-14.7z"/><path class="e" d="m164.2 337.2c3.4-1.4 7.2-0.5 10.8-0.6-0.1 4.9-0.1 9.8 0 14.6-3.6-0.4-8.3 1.4-11.1-1.3-0.6-4.1-1-8.6 0.3-12.7z"/><path class="e" d="m741.9 340.1c3.3 0.1 6.7-0.2 10.1 0.2 1.2 0.1 1.8 1.6 1.8 2.6 0.1 3.6 0.3 7.2-0.2 10.8-2.3 2.5-6.3 1.1-9.3 1.2 2.1-4.4 0.8-9.5 1-14.2-0.6 0-1.8-0.1-2.3-0.1-0.3 5-0.1 10.1-0.3 15.1l-0.1-1.1c-0.5-4.8-0.2-9.7-0.7-14.5z"/><path class="e" d="m713.3 341.1l1.1-0.7c3.3-0.1 6.6 0 9.9 0.1q0.1 7.2 0.1 14.4c-3.8-0.1-8.1 1.3-11.4-1-0.4-4.2-0.9-8.7 0.3-12.8z"/><path class="e" d="m315.5 358.5c1.4-5.4 7.4-7.7 12.5-7.6q13 0 26 0c4.2-0.3 8.8 1.7 10.6 5.7 3.1 6.8 1.6 14.9 5.6 21.3 1.7 2.6 4.9 3.3 7.8 3.2 12.5-0.5 25.1 0.1 37.6-0.4 3.4-6 10.1-11.1 17.3-9 4.7 1 6.3 5.9 9.1 9.2 3.6 0.4 7.3 0.1 11 0 13.2-0.3 26.5 0.5 39.7-0.2 2.1-2.6 3.1-6.3 6.2-7.9 4-2.2 8.9-1.4 12.5 1.1-0.5 0.2-1.7 0.7-2.3 0.9-3.2-0.4-6.9-1.8-9.8 0.4-2.4 2.2-3.1 5.6-5.4 7.8-7.6 0.9-15.3 0-22.9 0.4-10.4-0.5-20.7 0.3-31.1 0.2-1.7-3.8-3.3-8.7-7.9-9.6-6.6-1.4-12.1 3.8-14.8 9.2-10.1 0.1-20.2 0.3-30.3 0-5.8-0.2-13 2.4-17.6-2.5-5.5-6.1-3.9-15.1-6.6-22.4-1.1-3.1-4.4-5.1-7.7-4.9-9 0-18 0.2-27 0-4.5-0.3-9.8 2.3-10.6 7.1-1.4 6.7-1.2 13.9-5.2 19.8-0.5-0.4-1.6-1.1-2.1-1.4 3.9-6.2 3.5-13.6 5.4-20.4z"/><path class="e" d="m193.1 364.4c3.4 0.4 7.4-0.9 10.5 0.9 1.5 3.9 0.8 8.6 0.5 12.7-2.9 2.4-7.4 0.6-10.9 1.2 0-4.9 0-9.8-0.1-14.8z"/><path class="e" d="m164.2 365.2c3.4-1.5 7.4-0.5 11-0.8 0 4.9 0 9.8 0 14.7-3.7-0.4-8.1 1.2-11.3-1.1-0.4-4.2-0.7-8.7 0.3-12.8z"/><path class="e" d="m712.9 369c3-2.5 7.6-0.8 11.2-1.3q0.1 7.5 0.1 15c-3.7-0.7-8.7 1.3-11.4-1.8-0.3-3.9-0.6-8 0.1-11.9z"/><path class="e" d="m742.3 367.9c3.6 0.4 8.5-1.6 11.2 1.4 0.2 4.2 1 8.8-0.5 12.7-3.4 1.2-7.1 0.3-10.6 0.6 0-4.9 0.1-9.8-0.1-14.7z"/><path class="e" d="m293.3 387.2c9.1-0.2 18.1 0.2 27.2 0.1-0.1 12.3 0.3 24.7-0.1 37-6.1 0.6-12.3 0.2-18.4 0.3-2.7 0-5.5 0.2-8.1-0.6-0.6-1.9-0.5-4-0.6-6 0.1-10.3 0.1-20.5 0-30.8z"/><path class="e" d="m331.8 387.3c9.1-0.1 18.1-0.1 27.2 0.1 0 10.5 0.1 21.1 0.1 31.6 0 1.8 0.1 3.7-0.8 5.3-6.7 0.6-13.5-0.1-20.3 0.3-2.1-0.2-6.1 0.8-6-2.6-0.3-11.5 0-23.1-0.2-34.7z"/><path class="e" d="m370.8 387.3c4.1-0.2 8.1-0.1 12.1 0-0.2 12.4 0.3 24.9 0.1 37.3q-6 0-11.9 0.1c-0.3-12.5 0-25-0.3-37.5z"/><path class="e" d="m394.1 387.2c4-0.1 8-0.1 12 0.1 0.1 12.3 0 24.7 0 37.1q-6 0.1-12 0.1c0.2-12.5-0.1-24.9 0-37.3z"/><path class="e" d="m417.5 387.3c3.9 0 7.8-0.1 11.8-0.1 0 12.5 0 24.9 0.1 37.3q-6 0.1-12 0c0-12.4 0-24.8 0.1-37.2z"/><path class="e" d="m440.6 387.3q6.1-0.2 12.1 0c0 12.4 0.2 24.8-0.1 37.2-4 0-8 0-12 0-0.1-12.4 0.1-24.8 0-37.2z"/><path class="e" d="m464 387.2c4-0.3 8.1-0.3 12.1 0-0.2 12.4-0.2 24.9-0.2 37.3q-5.9 0-11.8 0c0.2-12.4-0.3-24.9-0.1-37.3z"/><path class="e" d="m487.3 387.4q6-0.3 12-0.2c0 12.5 0.1 24.9 0.1 37.4q-6-0.1-11.9 0c-0.2-12.4 0.1-24.8-0.2-37.2z"/><path class="e" d="m510.9 387.3c4 0 7.9 0 11.8 0.1 0 12.4 0 24.8-0.1 37.2q-5.8-0.1-11.6 0c-0.4-12.5-0.2-24.9-0.1-37.3z"/><path class="e" d="m533.9 387.3c4.1-0.3 8.2-0.2 12.3 0-0.1 12.4 0.1 24.8-0.1 37.2q-6 0.1-12-0.1c0.1-12.4 0.1-24.8-0.2-37.2z"/><path class="e" d="m557.7 387.3c8.9-0.2 17.9-0.1 26.9 0-0.1 10.9 0 21.8 0 32.8-0.1 1.4 0.2 3.2-1 4.3-4.5 0.6-9.1 0-13.6 0.2-3.7-0.2-7.5 0.3-11.3-0.3-1.4-0.9-0.8-2.9-1.1-4.3 0-10.9 0.1-21.8 0.1-32.7z"/><path class="e" d="m596.4 387.3c9-0.1 18-0.1 27 0-0.1 11.6 0.2 23.2-0.1 34.7 0.2 3.6-4 2.7-6.3 2.9-6.3-0.3-12.6 0.3-18.8-0.3-1.8-0.1-1.8-2.2-1.9-3.5-0.1-11.3 0.2-22.6 0.1-33.8z"/><path class="e" d="m163.9 393c3.4-1.6 7.4-0.4 11.1-0.7q-0.2 7.3 0 14.5c-3.6-0.3-8.1 1.6-11-0.9-0.6-4.3-0.7-8.7-0.1-12.9z"/><path class="e" d="m193.1 392.2c3.7 0 7.5-0.2 11.1 0.5 0.3 4.6 0.3 9.1 0.1 13.7-3.7 1-7.4 0.8-11.1 0.6q0.1-7.4-0.1-14.8z"/><path class="e" d="m713.1 396.2c1.7-2.1 4.8-1.1 7.2-1.4q0 7.6 0 15.1c-2.5-0.3-6.2 0.9-7.5-1.9-0.3-3.9-0.5-8 0.3-11.8z"/><path class="e" d="m742.9 394.8c3.4 0.4 7.5-0.9 10.4 0.9 1.1 4.1 0.7 8.7 0.2 12.8-2.6 2.7-7 1-10.4 1.4 0.1-5 0.1-10.1-0.2-15.1z"/><path class="e" d="m153.3 478.9c-0.2-2.5 1.2-5.2 3.7-5.9 3.1-0.5 6.2-0.4 9.3-0.4 0.2 47.5-0.5 94.9-0.6 142.4-0.2 102.3-1.1 204.7-1.4 307 0 4.1 1.4 8.4 4.5 11.2 3.1 3.3 7.8 4.1 12.2 4.2 31 0.1 62 0.3 93 0.9 23.4 0 46.7 0.4 70 0.5 43 0.8 86 0.5 129 1.4 30.4 0.4 60.7 0.5 91 0.6 33.7 0.6 67.3 0.8 101 1 24 0.5 48 0.5 72 0.7 5.1 0.2 10.5-1.8 13.2-6.3 3.2-4.7 2.2-10.7 2.4-16.2 0-24.6 0.3-49.3 0.2-74 0.8-19.4 0.2-38.7 0.4-58 0.3-14.7 0.2-29.3 0.3-44 0.1-89.6 0.9-179.2 1-268.8 3.9-0.2 8 2.5 7.3 6.8-0.1 116.5-0.5 233.1-0.7 349.6 3.4 1.4 6.9 3.2 8.7 6.6 3.8 6.7 2.4 14.6 2.6 21.8-0.3 10.4 0.2 20.8-0.6 31.1-0.7 6.2-5.8 10-10.6 13-0.7 12.6 0.1 25.3-0.4 37.9-0.3 4.3-4.8 6.8-8.8 6.3-57-0.1-114-0.7-171-0.8-139.7-0.9-279.3-1.5-418.9-2.3-2.8-0.1-6-0.1-7.9-2.4-1.8-1.8-1.9-4.4-1.9-6.8 0.1-11.7 0.1-23.5 0.2-35.2-6-2.9-9.8-9.2-10-15.8-0.2-13.4-0.1-26.7 0-40 0-6.9 4.1-13.2 10.2-16.2 0-57.3 0-114.5 0.2-171.8 0.4-59.4 0.2-118.7 0.4-178.1z"/><path class="e" d="m191 956c1.3-3.1 5-3.5 8-3.5 23 0.1 46 0.1 69 0.2 2.8-0.1 6.5 0.5 7.6 3.6 0.7 3 0.2 6.1 0.1 9.1-28.3-0.4-56.6-0.5-84.9-0.7 0-2.9-0.4-5.8 0.2-8.7z"/><path class="e" d="m397.5 967c-0.1-2.6 2-4.8 4.5-5.2 3.5-0.4 7-0.2 10.5-0.2 0.2 8 0 16.1 0.2 24.1-5.1 0-10.1-0.2-15.2-0.2 0-6.1-0.3-12.3 0-18.5z"/><path class="e" d="m423.5 961.7q3.8 0.1 7.6 0.2c0.1 7.9 0 15.9 0 23.9q-3.8-0.1-7.5-0.1c-0.2-8 0-16-0.1-24z"/><path class="e" d="m442.2 961.8q3.8 0 7.6 0c0 8 0.1 16.1 0 24.1q-3.8-0.1-7.6-0.1c-0.1-8 0.1-16 0-24z"/><path class="e" d="m460.9 961.6q3.9 0 7.9 0.2c-0.3 8.1-0.1 16.2-0.3 24.2q-3.8-0.1-7.6 0c-0.1-8.1 0-16.3 0-24.4z"/><path class="e" d="m479.7 961.9q3.8-0.1 7.6 0c0.1 8.1 0 16.2 0 24.3q-3.7-0.1-7.4-0.1c-0.2-8.1 0.1-16.2-0.2-24.2z"/><path class="e" d="m498.6 962q3.7 0.1 7.3 0.1c0 8 0 16.1 0 24.1q-3.7-0.1-7.3 0c-0.1-8.1-0.2-16.1 0-24.2z"/><path class="e" d="m517.1 962q3.8-0.1 7.6 0.1 0.1 12.1 0.1 24.3-3.9-0.1-7.7-0.1c0.1-8.1 0.1-16.2 0-24.3z"/><path class="e" d="m536 962.2q3.7 0.1 7.5 0.1c0.1 8.1 0 16.1 0.1 24.2q-3.8-0.1-7.6-0.1c-0.1-8-0.2-16.1 0-24.2z"/><path class="e" d="m554.5 962.5q3.9-0.1 7.9-0.4c-0.5 8.2 0 16.3-0.4 24.5q-3.8 0-7.5 0c0-8.1 0.1-16.1 0-24.1z"/><path class="e" d="m573.4 962.3q3.7 0 7.4 0.1-0.1 12.1 0 24.3-3.7-0.1-7.3 0c0-8.2-0.1-16.3-0.1-24.4z"/><path class="e" d="m592.1 962.6q3.7-0.1 7.4-0.2c0.3 8.2 0.2 16.4 0.1 24.5q-3.8-0.1-7.5-0.1c-0.1-8.1 0.2-16.1 0-24.2z"/><path class="e" d="m610.7 962.5q3.9 0 7.7 0.1c-0.1 8.1 0.1 16.3 0 24.4q-3.7-0.1-7.4-0.2c-0.2-8.1 0-16.2-0.3-24.3z"/><path class="e" d="m629.5 962.7q3.9 0 7.8 0c-0.4 8.1 0.1 16.3-0.1 24.5q-3.8 0-7.6 0c-0.1-8.2-0.1-16.3-0.1-24.5z"/><path class="e" d="m648.3 962.9q3.8-0.1 7.6-0.1c0 8.2 0.1 16.4 0 24.5q-3.8 0-7.5 0c0-8.1 0.1-16.3-0.1-24.4z"/><path class="e" d="m667.2 962.8q3.8 0 7.5 0.2c-0.1 8.1-0.1 16.2-0.1 24.3-2.4-0.1-4.9-0.1-7.3 0-0.1-8.2-0.2-16.3-0.1-24.5z"/><path class="e" d="m686.1 962.9c2.3 0 4.7-0.1 7.1 0.1 0.7 8.1-0.1 16.3 0.2 24.5q-3.7-0.1-7.4 0c-0.4-8.2 0-16.4 0.1-24.6z"/><path class="e" d="m704.6 962.9c3.4 0 6.9-0.2 10.4 0.3 2.6 0.4 4.7 3 4.6 5.8 0.1 6.2-0.1 12.4 0.1 18.7q-7.6-0.1-15.1 0c-0.1-8.3 0-16.6 0-24.8z"/><path class="e" d="m168.1 973c1.7-1.7 4.2-1.3 6.3-1.2-2.2 3.7-2.7 8-2.6 12.2 0 25.7-0.6 51.3-0.4 77 0.2 6.8-1.6 14.8 3.1 20.6-0.5 2.9-1 6-0.2 9 0.8 1.7 2.9 2 4.5 2.8q0.1 3.4 0.2 6.9c-3.3-0.1-7-0.3-9.6-2.7-3.1-2.6-3.6-6.9-3.6-10.6 0.1-9.4 0-18.8 0.1-28.2-3.3-0.1-6.7 0.3-10-0.6-2.3-0.7-2.2-3.3-2.2-5.2 0-12 0.1-24 0-36 0.1-1.9-0.4-4.6 1.7-5.6 3.3-1 6.9-0.5 10.2-0.5 0-9.3 0-18.6 0-27.9 0.2-3.4-0.1-7.4 2.5-10z"/><path class="e" d="m291.9 972.5c2.5 0.1 5.6-0.1 7.1 2.4 2.3 4 1.3 8.9 1.6 13.3 3.7 0.2 8.1-1.4 11.3 1 0.6 4.9 0.5 9.9 0.3 14.9 0.1 1.6-1.9 2.4-3.2 2.4-4.9 0.2-9.7 0-14.6-0.1 0-7.8 0.1-15.6 0.2-23.4 0-3.7-0.8-7.4-2.7-10.5z"/><path class="e" d="m378.9 1007c-0.2-3 1.3-5.6 3.3-7.8 0 21-0.2 41.9-0.1 62.9-0.4 3.6 1.7 6.7 3.9 9.3-4.2-1.6-6.9-5.8-6.8-10.3-0.1-18-0.4-36.1-0.3-54.1z"/><path class="e" d="m736.7 1018c0.1-5.4-0.3-10.8 0.7-16.1 2.3 3.6 2 8 2 12.1-0.2 16.3 0.1 32.6-0.1 48.9 0.1 3.9-2.1 7.5-5.4 9.4 1.7-3.1 2.9-6.6 2.8-10.2q0-22.1 0-44.1z"/><path class="e" d="m294.5 1012.8c4.8 0.1 9.6-0.6 14.4 0.2 3 0.8 3.4 4.4 3.3 7 0 9 0.1 18-0.1 27 0.3 2.9-2.4 5.3-5.2 5.3-4.2 0.2-8.4 0-12.6 0-0.3-13.2 0.3-26.3 0.2-39.5z"/><path class="e" d="m294.3 1065c4.9-0.2 9.8-0.4 14.7-0.2 1.7-0.1 3.3 1.4 3.1 3.1 0.1 4.4 0.1 8.8-0.1 13.1 0 1.6-1.6 2.7-3.1 2.6-2.8 0.2-5.6-0.1-8.4-0.1-0.2 4.7 0.6 10.3-3 14-2.5 3-6.5 3.7-10.3 3.3q0.1-3.7 0.2-7.4c1.3-0.6 3-0.7 4-1.9 1.3-2.3 1.5-5.1 1.4-7.6-0.5-0.3-1.6-0.7-2.2-0.9 4.1-5.1 3.8-11.8 3.7-18z"/><path class="e" d="m398 1072.8c5 0.1 10 0 15.1 0.1 0 9.8-0.3 19.6 0.1 29.5-4.8-0.4-11.6 1.9-14.5-3.2-1.2-3.5-0.7-7.3-0.8-11 0-5.1 0-10.2 0.1-15.4z"/><path class="e" d="m423.8 1073.2c2.6-0.2 5.2-0.3 7.9-0.2 0 9.8-0.1 19.6-0.2 29.5q-3.7 0-7.4 0c-0.5-9.7 0-19.5-0.3-29.3z"/><path class="e" d="m442.7 1073.1q3.8 0.1 7.6 0.1c0.1 9.9 0.2 19.7 0.1 29.6q-4-0.1-8-0.3c0.3-9.8 0.1-19.6 0.3-29.4z"/><path class="e" d="m461.4 1073.2q4 0 7.9 0.2c0 9.8 0.1 19.6-0.2 29.4q-3.8 0-7.7 0c0-9.8 0.1-19.7 0-29.6z"/><path class="e" d="m480 1073.5q4-0.1 8.1 0c-0.2 9.8-0.2 19.6-0.3 29.4q-3.8-0.1-7.6-0.1c-0.2-9.7 0.1-19.5-0.2-29.3z"/><path class="e" d="m499 1073.4q3.8 0.1 7.6 0.2c-0.4 9.6 0 19.4-0.2 29.1-2.5 0.4-5 0.2-7.5 0.2 0-9.8-0.2-19.7 0.1-29.5z"/><path class="e" d="m517.5 1073.6q3.8 0 7.8 0.1c0.1 9.8-0.4 19.7 0 29.5-2.5 0-5 0-7.4-0.2-0.7-1.2-0.3-2.7-0.4-4 0.1-8.4 0.2-16.9 0-25.4z"/><path class="e" d="m536.3 1073.8q3.9 0 7.8 0c-0.1 9.8 0.2 19.6-0.2 29.4q-3.8 0-7.6-0.1c0-9.8 0.1-19.5 0-29.3z"/><path class="e" d="m554.9 1073.8q3.9 0 7.9 0.1c0.1 9.8-0.1 19.5 0.1 29.3q-3.9 0-7.8-0.1c0.2-9.7-0.3-19.5-0.2-29.3z"/><path class="e" d="m573.9 1074.2c2.6 0 5.1 0 7.7 0-0.1 9.7 0.1 19.4-0.2 29.1q-3.8 0-7.5-0.1c-0.1-9.7 0-19.4 0-29z"/><path class="e" d="m592.6 1074.2q3.8-0.1 7.6-0.1c0 9.8-0.5 19.6 0 29.3q-3.7 0-7.5 0c-0.2-9.7-0.1-19.5-0.1-29.2z"/><path class="e" d="m611.3 1074.2q3.8 0.1 7.7 0.1c-0.3 9.7 0.3 19.4-0.1 29.1q-3.9 0.1-7.7 0 0.2-14.6 0.1-29.2z"/><path class="e" d="m630.1 1074.4c2.6 0 5.2 0 7.8 0.1-0.2 9.7 0 19.4-0.3 29.1q-3.7 0-7.5 0c-0.2-9.7 0-19.5 0-29.2z"/><path class="e" d="m648.9 1074.3q3.9 0.1 7.8 0.3c-0.1 9.7 0 19.4-0.1 29.1q-3.9 0-7.8 0v-0.7c0.2-9.5-0.1-19.1 0.1-28.7z"/><path class="e" d="m667.6 1074.7q3.7 0 7.3 0.1c0.3 9.7 0.1 19.4 0.4 29.1q-3.9-0.2-7.7-0.2c-0.2-9.6-0.1-19.3 0-29z"/><path class="e" d="m686.5 1074.8q3.8 0.1 7.6 0.2c-0.1 9.7 0.3 19.5-0.2 29.2q-3.8-0.1-7.6-0.2c0.1-9.7 0.1-19.5 0.2-29.2z"/><path class="e" d="m705.1 1075c5.2-0.3 10.4 0 15.6-0.1 0 7.4 0.1 14.8 0 22.2 0.2 2.7-1.3 5.7-4.1 6.4-3.8 0.7-7.7 0.3-11.5 0.3 0.1-9.6 0.1-19.2 0-28.8z"/><path class="e" d="m190 1088.2c29.9 0.1 59.8 0.5 89.8 0.5h0.8q-3.3 0.2-6.6 0.4c0.1 2.9 0.4 5.9-0.3 8.9-0.7 2.4-3.4 3.2-5.7 3.1-24.3-0.4-48.7-0.4-73.1-0.7-1.8 0-3.9-0.7-4.6-2.6-0.8-3.2-0.4-6.4-0.3-9.6z"/><path class="f" d="m154.1 139c0.2-3.7 0.3-7.3 0.6-11-0.2 3.5 0.1 7.1 0.3 10.6 7.9-0.1 15.9-0.5 23.8 0.1 3.7 0.6 7.5 0.6 11.3-0.1 7.9-0.6 15.9 0 23.9-0.2 0-3.2 0.2-6.4 0.2-9.6 0.3 3.3 0.4 6.6 0.5 10 2.5 0.3 6.4-1.2 7.7 1.8 0.7 3.4 0.3 7 0.4 10.4-0.5 33.9 0.4 67.8-0.4 101.6-1.6 2.7-5.1 1.8-7.8 2-0.1 5 0.1 9.9-0.3 14.9-0.2-5-0.2-10-0.2-14.9-8-0.2-16.1 0.1-24.1 0-3.7-0.2-7.4-0.3-11.1-0.2-8 0-16.1 0.4-24.2 0.2-2.5-0.2-5-0.3-7.4-1-1.5-1-0.9-3-1.1-4.5 0.3-35.1-0.1-70.1 0.1-105.1 0-1.4 0.1-2.9 0.5-4.3 2.4-0.6 4.9-0.6 7.3-0.7zm13.2 9.4c-7.1 2.3-12.4 9.1-12.5 16.6-0.3 18.7 0.1 37.4 0 56 0.1 4.1-0.3 8.3 0.9 12.2 2.2 7.3 9.6 12.6 17.2 12.4 8.1 0 16.1 0.2 24.2 0 9-0.4 17-8.5 16.9-17.6 0.4-20.3-0.1-40.7 0.1-61 0.3-6.3-2.3-12.8-7.7-16.3-5.6-4.1-12.9-3.2-19.4-3.2-6.6 0.3-13.3-0.7-19.7 0.9z"/><path class="f" d="m696.7 147.8c1.6-1.8 4.1-1.3 6.2-1.5 8.2 0 16.4-0.2 24.6 0.1 3.6 0.2 7.3 0.2 10.9 0 8.2-0.1 16.4-0.2 24.5-0.1 3.2 0.6 9.7-1.4 9.7 3.7 0.4 34-0.5 68 0.5 102-0.1 3.2-0.5 6.3-0.7 9.4-3.2 0.2-6.4 0.4-9.6 0.6-8.1 0.6-16.3 0.3-24.4 0-3.6-0.2-7.1-0.3-10.7-0.2 0 3.1-0.2 6.3-0.4 9.4 0-3-0.2-5.9-0.3-8.9-7.9 0.1-15.9-0.1-23.9 0-2.2 0-4.4-0.4-6.6-0.9-0.1-19.8-0.3-39.6-0.2-59.4 0.4-16.3-0.1-32.6-0.2-49 0.1-1.7-0.1-3.6 0.6-5.2zm19.7 8.7c-7.1 2.6-12.1 9.9-11.6 17.5 0.3 20.6-0.3 41.3 0.1 62 0 8.6 7.3 16.9 16.1 17.1 8.6 0.1 17.3 0.1 26 0 7.4 0 14.2-5.5 16.4-12.5 1.1-4.1 0.7-8.4 0.7-12.6 0-18 0-36 0-54 0.3-7.9-5.1-16-13-17.9-5.6-1.1-11.4-0.5-17.1-0.7-5.9 0.2-11.9-0.6-17.6 1.1z"/><path class="f" d="m181.4 181.5c8.1-1.8 16.8 4.4 17.8 12.6 1.5 8.2-4.9 16.8-13.3 17.4-8.7 1.1-17.2-6.7-16.7-15.5 0.1-6.9 5.4-13.4 12.2-14.5z"/><path class="f" d="m730.4 189.4c8.8-2.9 18.8 4.4 19.2 13.6 0.8 8.9-7.7 17.2-16.6 16.1-8-0.5-14.4-8.3-13.6-16.2 0.5-6.1 5-11.8 11-13.5z"/><path class="f" d="m391.4 309.2c1.4-0.7 3-0.5 4.5-0.6 16.1 0 32.1 0 48.1 0 3.6-0.3 6.9 2.8 7 6.3 0.3 6.7 0 13.4 0.1 20.1-0.1 3.3 0.3 6.6-0.5 9.8-1 3.2-4.5 4.5-7.6 4.3-16.4-0.1-32.7 0.1-49 0-4.6 0.4-6.4-6.6-2.7-8.9 1.4-0.7 3.1-0.7 4.6-0.9 9.8-0.6 19.5-1.5 29.2-2.6 3.1-0.2 6.6-1.8 7.3-5.1 0.5-2.7 0.6-5.8-1-8.1-1.5-2.1-4.1-2.7-6.5-3-10.6-1.1-21.3-2-31.9-2.8-4.2-0.2-5.1-6.6-1.6-8.5z"/><path class="f" d="m487.3 309.4c2.4-0.8 5.1-0.4 7.6-0.4 15.4 0.3 30.8-0.4 46.2 0 4.4 0.3 5.4 7.9 0.8 8.9-11.8 1.5-23.7 2.1-35.5 3.8-5.4 0.7-6 7.4-4.7 11.6 1.2 2.8 4.3 4.2 7.2 4.3 9.7 1 19.4 1.8 29.1 2.4 1.7 0.2 3.5 0.1 5 1 2.5 1.5 2.7 5.6 0.5 7.4-1.2 1.1-3 0.9-4.5 1-15.6 0-31.3 0.1-47 0.1-2.6 0-5.6 0-7.4-2.2-2.2-2.1-1.9-5.4-1.9-8.2 0.1-7.7-0.1-15.4 0-23 0-2.9 1.9-5.7 4.6-6.7z"/><path class="f" d="m713.7 340.4c9.4-0.7 18.8-0.4 28.2-0.3 0.5 4.8 0.2 9.7 0.7 14.5-6.1 0.5-12.1 0.1-18.2 0.3q0-7.2-0.1-14.4c-3.3-0.1-6.6-0.2-9.9-0.1z"/><path class="f" d="m569.9 356.8c1.7-3.8 6.3-4.9 10.1-4.8 8.7 0.1 17.4 0.1 26 0.1 3.3-0.1 7.1 1.1 8.5 4.3 2.4 6.1 1.8 12.9 4.1 19 1.8 4.5 6.5 7.7 11.3 7.5 8.4-0.1 16.8 0.4 25.1 0.4 4.1-0.1 8 1.4 11.7 3.1-9.8 1.9-19.7 0.3-29.5 0.8-4.6 0.1-9.2 0.2-13.8 0.1-9-0.1-18-0.1-27 0q-5.9 0.1-11.8 0c-9-0.1-18-0.2-26.9 0-3.9 0.1-7.7 0.1-11.6 0-4-0.2-8.1-0.3-12.2-0.1-3.7 0.3-7.4 0.2-11.2 0.2-3.9-0.1-7.8-0.1-11.8-0.1q-5.8 0-11.6-0.1-6-0.1-12 0.2c-3.7 0.1-7.5 0.1-11.2-0.2-4-0.3-8.1-0.3-12.1 0-3.7 0.2-7.5 0.2-11.3 0.1q-6-0.2-12.1 0c-3.8 0.1-7.6 0-11.3-0.1-4 0-7.9 0.1-11.8 0.1-3.8 0-7.6 0.1-11.4-0.1-4-0.1-8-0.2-12 0-3.8 0.1-7.5 0.2-11.2 0.1-4-0.1-8-0.2-12.1-0.1q-5.9 0.3-11.8 0.2c-9.1-0.2-18.1-0.2-27.2-0.1q-5.6 0.1-11.3 0c-9.1 0.1-18.1-0.3-27.2-0.1-4.7 0.3-9.3 0.3-13.9-0.1-9.5-0.7-19.1 0.2-28.7-0.4 17.4-4.3 35.6-1.3 53.3-2.8 3.1-0.2 5.9-1.7 8.2-3.7 4-5.8 3.8-13 5.2-19.7 0.8-4.8 6.1-7.4 10.6-7.1 9 0.2 18 0 27 0 3.3-0.2 6.6 1.8 7.7 4.9 2.7 7.3 1.1 16.3 6.6 22.4 4.6 4.9 11.8 2.3 17.7 2.5 10 0.3 20.1 0.1 30.2 0 2.7-5.4 8.2-10.6 14.8-9.2 4.7 0.9 6.3 5.8 7.9 9.5 10.4 0.2 20.7-0.6 31.1-0.1 7.6-0.4 15.3 0.5 22.9-0.4 2.3-2.2 3-5.6 5.4-7.8 2.9-2.2 6.6-0.8 9.8-0.4 2.8 2.3 4.6 5.5 6.9 8.2 13 0.6 26 0 39 0.4 4.3 0.3 8.7-2 10.5-5.9 2.9-6.6 2.1-14 4.4-20.7z"/><path class="f" d="m720.3 394.8q1.9 0.1 3.8 0.1c0.2 5.1 0.2 10.1 0.2 15.2q-2-0.1-4-0.2 0-7.5 0-15.1z"/><path class="g" d="m44.2 236.9c0.1-7.1-0.3-14.3 0.4-21.4 18.8 0.1 37.6-0.1 56.4 0.1 5 0.1 10 0.9 14.6 2.7 14.9 5.9 25.1 21.7 24.3 37.7-0.4 11.7-6 23.4-15.7 30.3-7.8 6.5-18.3 8.5-28.3 8-17.2-0.2-34.4 0-51.6-0.2-0.2-7.1 0-14.2-0.1-21.2 4.5-1.1 8.9-3.2 11.6-7.1 5.5-6.9 4.9-18-1.7-24-2.6-2.7-6.2-4.1-9.9-4.9zm50.2-1.5c-8.1 2.8-14.2 10.9-14 19.6-0.2 9.2 6.7 17.9 15.8 19.9 9.9 2.6 20.9-4.1 23.6-13.9 2.2-8-0.3-17.6-7.2-22.6-5.2-3.8-12.2-5-18.2-3z"/><path class="g" d="m800.6 221.8c6.8-3 14.2-3.2 21.4-3 17.2 0.1 34.4-0.1 51.6 0.1-0.1 7 0 14-0.2 20.9-8.5 1.1-16.4 8.3-16.2 17.2-0.8 9.5 7 17.9 16.2 19.3-0.2 6.2 0.7 12.7-0.5 18.8-2.6-1.7-5 1.8-7.8 1.5-13.4 0.5-26.7 0.1-40.1 0.3-8.5-0.3-17.2-0.2-25.4-3.1-15.3-6-24.8-23.4-23-39.6 1.7-14 10.9-27.1 24-32.4zm10.5 16.4c-10.4 2.3-17.5 13.5-15.1 23.9 1.5 10.5 12.7 17.9 23 16 10.1-1.7 17.9-11.9 16.6-22.1-0.8-11.6-13.1-20.9-24.5-17.8z"/><path class="g" d="m44.2 335.7c17.3-0.2 34.6 0 51.8-0.1 7.1 0 14.5 0.3 21 3.4 11.9 5.4 20.4 17.3 22.4 30.2 3 18-8.7 37.3-26.1 43-7.5 2.7-15.5 2-23.3 2-15.3-0.1-30.6-0.1-45.9-0.3-0.5-7.1 0-14.1 0.1-21.1 4.4-1.2 8.8-3.2 11.6-7 5.5-6.9 4.7-17.8-1.7-23.8-2.7-2.7-6.4-4.3-10.1-5-0.1-7.1 0-14.2 0.2-21.3zm52 19.5c-10 2.1-17.4 12.5-15.6 22.7 1.2 11 12.6 19.2 23.4 17.3 8.6-1.2 15.2-8.9 16.3-17.2 0.9-7-1.9-14.4-7.3-18.9-4.6-3.8-11-5.3-16.8-3.9z"/><path class="g" d="m801.3 341.4c7.8-3.4 16.4-2.7 24.7-2.8 15.7 0.1 31.5 0 47.3 0.1 0.1 7 0 14-0.1 21-6.9 1.1-13.6 5.7-15.6 12.7-1 5-0.8 10.5 2.1 14.9 3 4.7 8.1 7.6 13.5 8.7 0 6.8 0.1 13.5-0.1 20.2-20.1 0.7-40.2-0.2-60.3 0.5-6.1-0.1-12.1-2.1-17.4-5.1-10.3-5.8-16.9-16.8-18.8-28.3-2.6-17.4 8.2-35.8 24.7-41.9zm8.9 16.8c-10.3 2.7-17.1 14.5-14.1 24.8 2 7.8 8.8 14.2 16.9 14.9 11.5 1.9 23.1-8.3 22.6-20 0.7-12.8-13.1-23.5-25.4-19.7z"/><path class="g" d="m43.9 455.3c19.4 0.1 38.8 0 58.2 0 11 0.2 21.6 5.6 28.6 14 7.8 9.7 10.9 23.3 7.7 35.3-2.7 10.4-9.7 19.5-19.1 24.6-7.3 4.3-16 5-24.3 4.7-17.1-0.1-34.2 0-51.3-0.2-0.2-6.9 0-13.9 0-20.8 8.8-1.6 16-9.8 15.7-18.8-0.1-8.7-7-16.3-15.5-17.6-0.2-7.1-0.2-14.2 0-21.3zm52.5 19.4c-9.3 1.7-16.7 10.9-16.2 20.4-0.1 8.9 6.6 17.3 15.2 19.4 5.7 1.1 12.1 0.5 16.7-3.3 7.1-4.8 9.8-14.5 7.5-22.5-2.8-9.7-13.4-16.2-23.2-14z"/><path class="g" d="m791.4 466.4c6.9-5.6 15.8-8.4 24.6-8.3q28.5 0.1 57 0.1c0.4 7-0.4 13.9 0 20.9-6.6 1.1-12.9 5.5-15.2 12-1.8 5-0.9 10.8 1.6 15.4 2.8 4.9 7.9 8.1 13.4 9.1 0.1 7 0 14.1 0 21.1-19.3 0-38.5 0-57.8-0.1-9.2-0.1-18.3-3.4-25.1-9.5-9.4-8.1-14.7-20.8-13.5-33.2 1.2-10.7 6.5-20.9 15-27.5zm20 11.1c-5.3 1.1-9.8 4.6-12.9 8.9-4 5.9-3.8 13.9-1 20.2 3.5 6.7 10.8 11.5 18.5 11.2 11.8 0.1 21.5-12.3 19.4-23.7-1.6-10.9-13.2-19.2-24-16.6z"/><path class="g" d="m43.5 596.1c0-7-0.1-14.1 0.2-21.1 18.1-0.2 36.1 0 54.2-0.1 8.1-0.1 16.5 1.3 23.3 5.9 10.6 6.6 17.5 18.7 18.3 31.2 1 16.2-9.2 32.2-24 38.5-6.4 2.9-13.6 3.1-20.5 3-17.2-0.2-34.4-0.1-51.6-0.3-0.1-7 0-14 0.2-21 7.6-1.2 14.4-7.3 15.4-15.2 1.7-9.6-5.8-19.5-15.5-20.9zm51.8-1.6c-9 2.2-15.8 11.2-15.1 20.5 0 10.7 10.1 20.2 20.8 19.5 9.1-0.1 17.6-7.4 18.8-16.5 0.7-4.4 0.2-9-1.8-13-4-8.1-13.9-12.9-22.7-10.5z"/><path class="g" d="m799.9 580.8c8.8-4.1 18.7-3 28.1-3.1 14.9 0 29.9-0.1 44.8 0.1-0.1 6.9-0.1 13.9-0.1 20.8-7.5 1.1-14.2 6.8-15.7 14.4-2.2 10 5.6 20.3 15.5 21.8 0.2 7.1 0.1 14.1 0 21.1-13.8 0.3-27.6-0.1-41.4 0.1-10.1-0.4-20.7 1.2-30.2-2.8-17.3-6.4-27.8-26.3-23.9-44.2 2.5-12.3 11.2-23.3 22.9-28.2zm10.4 16.4c-8.2 2.4-15 10-14.9 18.7-0.9 9.4 6.2 18.1 15 20.6 5 0.8 10.6 0.7 15-2.1 6.6-4 10.9-11.6 10.1-19.4-0.8-11.9-13.7-21.5-25.2-17.8z"/><path class="g" d="m43.2 694.5h0.2c17.9-0.2 35.8 0 53.6-0.1 7.8-0.1 15.8 1.1 22.5 5 13.1 7.3 20.9 22.7 19.7 37.6-1.4 18.5-17.4 35.1-36.2 35.8-19.9 0.1-39.9 0.1-59.8 0 0.1-7-0.1-14 0.2-21 5.5-0.9 10.6-4.2 13.3-9.2 3.8-7 2.7-16.6-3.3-22.1-2.7-2.7-6.5-4-10.1-5 0-7 0.1-14-0.1-21zm50.2 19.9c-9 3.1-15.2 13.2-13.2 22.7 1.3 7.8 7.4 14.6 15.1 16.4 4.6 0.7 9.5 0.7 13.7-1.5 6.5-3.4 10.9-10.6 10.8-18 0.3-7.4-3.8-14.9-10.4-18.4-4.8-2.6-10.8-2.8-16-1.2z"/><path class="g" d="m801.3 699.4c8.5-3.3 17.8-2.3 26.7-2.5 14.8 0.3 29.6 0.1 44.5 0.2q0 10.4-0.1 20.8c-5.7 1.1-11.2 4.4-13.9 9.6-3.4 7-2.1 16.1 3.5 21.5 2.8 3 6.7 4.5 10.5 5.5 0 6.8 0 13.6 0 20.3-20.9 0.2-41.8-0.1-62.6 0.2-17-1.4-30.6-16.5-33.3-32.8-3.1-17.7 7.9-36.6 24.7-42.8zm8.1 17.2c-8.1 2.6-14.3 10.7-14.2 19.4-0.2 10.5 8.9 20.9 19.8 20.6 11.2 0.3 21.4-10.2 20.4-21.5-0.2-12.5-14.1-22.4-26-18.5z"/><path class="g" d="m43.2 814.1c14.2-0.2 28.5 0.1 42.7 0 10 0.2 20.5-1.1 29.8 3.1 16.3 6.8 26 25.6 22.8 42.8-2 12.9-11 24.3-22.9 29.5-5.5 2.5-11.6 3.1-17.6 3-18.3-0.2-36.6 0-54.9-0.3 0.2-6.9 0.1-13.9 0-20.9 5.4-1.1 10.7-3.9 13.4-8.9 3.9-6.9 2.9-16.5-2.9-22-2.8-3.1-6.8-4.4-10.7-5.3 0.4-7 0.3-14 0.3-21zm51.2 19.5c-6.3 1.9-11.6 7.2-13.7 13.5-2.8 8.8 1.3 19.2 9.4 23.9 6.8 4 16.1 3.4 22.3-1.7 7.2-5.3 9.1-15.7 6-23.8-3.5-9.2-14.6-14.6-24-11.9z"/><path class="g" d="m804 818.2c6.5-2 13.3-1.5 20-1.5 16.1 0 32.2 0 48.3 0.1 0 6.9-0.1 13.7 0.1 20.5-4.3 1.3-8.6 2.9-11.6 6.4-6.5 7.1-5.6 19.5 1.8 25.5 2.7 2.5 6.2 3.8 9.7 4.7 0 7.1 0.1 14.3-0.1 21.4q-22.1-0.1-44.2-0.1c-9.9-0.1-20.3 0.8-29.4-3.7-15.3-6.8-24.5-24.2-22.3-40.6 1.7-15.1 13.1-28.6 27.7-32.7zm5.3 18.2c-8.3 2.6-14.6 10.8-14.1 19.6-0.5 12 12 22.5 23.8 19.8 10.5-1.9 18.4-13.2 16-23.8-2-11.2-14.6-19.6-25.7-15.6z"/><path class="g" d="m42.8 933.4c18.7 0 37.5 0.1 56.3 0.1 8-0.1 16.2 2 22.8 6.7 11.8 7.9 18.4 22.8 16.7 36.8-1.6 18.5-17.9 34.8-36.6 35.1-19.8 0.2-39.6-0.2-59.4-0.2 0-7-0.1-13.9 0.1-20.8 4.7-1 9.3-3.2 12.2-7.2 5.1-6.8 4.9-17.4-1.2-23.6-2.9-3.2-7-4.9-11.1-6 0.1-6.9 0.1-13.9 0.2-20.9zm50.5 20.1c-4 1.4-7.7 4.1-10.1 7.7-5.9 8.2-4.2 20.7 3.4 27.2 5.3 4.4 13 6.2 19.5 3.7 7.5-2.7 13.3-10 13.6-18.1 0.8-9.2-5.8-18.4-14.7-20.9-3.8-1.2-7.9-0.8-11.7 0.4z"/><path class="g" d="m802.9 937.8c7.1-2.4 14.7-1.6 22.1-1.7 15.7 0 31.5 0.1 47.2 0.1 0.1 6.9 0.1 13.9 0 20.8-5.4 1.1-10.6 4-13.4 8.8-4.1 6.9-2.9 16.2 2.4 22.1 2.7 3.4 7 4.6 10.9 6.1 0.3 6.9 0.1 13.9-0.1 20.9-19 0.1-38 0-57-0.1-9.2 0-18.6-3.1-25.5-9.4-4.5-4.3-8.6-9.3-10.9-15.2-4.3-11.2-3.7-24.5 2.6-34.9 5-8 12.5-14.8 21.7-17.5zm6.5 17.7c-9.1 2.9-16.3 12.8-14.4 22.5 1.3 8.9 8.8 17 17.9 17.7 11.5 1.3 23.1-8.9 22-20.7 0.8-12.8-13.5-23.2-25.5-19.5z"/><path class="g" d="m403.9 994.7c3.4-0.2 7.1-1 10.4 0.3 0.3 2.1 0.2 4.3 0.1 6.4-3.5 0.2-7 0.2-10.4-0.2q-0.1-3.3-0.1-6.5z"/><path class="g" d="m422.9 994.6q5.2-0.2 10.4 0c-0.2 2.3 0.5 4.8-0.5 6.9-3.2 0.2-6.7 0.7-9.8-0.4-0.2-2.1-0.1-4.3-0.1-6.5z"/><path class="g" d="m441.7 994.7q5.1-0.3 10.2 0.1 0 3.4-0.1 6.8-5 0.3-9.9 0.1-0.3-3.5-0.2-7z"/><path class="g" d="m460.9 994.8q5-0.2 10 0.1 0 3.4-0.1 6.8-4.9 0.2-9.8 0.1-0.1-3.5-0.1-7z"/><path class="g" d="m479.7 995q5-0.2 10 0.1 0 3.4 0 6.8c-3.3 0.1-6.6 0.1-10 0q-0.1-3.5 0-6.9z"/><path class="g" d="m499.1 995.1c3-0.4 6.2-0.1 9.3 0q0.1 3.5 0 7.1-5.2 0.2-10.3-0.2c0.3-2.2-1.3-5.5 1-6.9z"/><path class="g" d="m517.1 995.2q4.9-0.1 9.9 0.1 0.2 3.4 0.3 6.9-5.3 0.3-10.6 0 0.1-3.6 0.4-7z"/><path class="g" d="m536.2 995.4c3.3-0.4 6.5-0.1 9.7-0.1q0.2 3.5 0.2 7c-3.5 0.3-7 0.3-10.4 0 0.2-2.2-0.8-5 0.5-6.9z"/><path class="g" d="m554.8 996c2.9-1.1 6.3-0.6 9.4-0.3 1.1 1.8 0.4 4.4 0.7 6.5-3.3 0.3-6.7 0.9-10-0.1-0.4-2-0.5-4.1-0.1-6.1z"/><path class="g" d="m592.9 995.9c3.1-0.3 6.6-0.7 9.5 0.4 0.4 2.2 0.1 4.4-0.1 6.6-3.3-0.2-6.6 0.4-9.8-0.5-0.2-2.1-0.7-4.6 0.4-6.5z"/><path class="g" d="m573.5 995.6c3.5-0.2 7-0.2 10.4 0.2-0.2 2.1 0.6 4.7-0.5 6.7-3.2 0.7-6.5 0.2-9.7 0.3q-0.2-3.6-0.2-7.2z"/><path class="g" d="m611 996q5.1-0.2 10.3-0.1 0 3.5-0.1 7.1-5.1 0.2-10.2-0.1-0.1-3.5 0-6.9z"/><path class="g" d="m629.9 996q5.1-0.2 10.3 0.1 0 3.4-0.1 6.9-5.1 0.4-10.2 0-0.1-3.5 0-7z"/><path class="g" d="m648.8 996.2q5-0.1 9.9 0 0.2 3.4 0.2 6.8c-3.4 0.2-6.7 0.3-10.1 0.1q-0.1-3.5 0-6.9z"/><path class="g" d="m667.8 996.2c3.2 0.1 6.4-0.2 9.6 0.3 0.8 2.1 0.4 4.5 0.5 6.7-3.4 0.3-6.8 0.2-10.2 0q-0.1-3.5 0.1-7z"/><path class="g" d="m686.5 996.6c3.3-0.3 6.6-0.7 9.9 0 0.6 2 0.9 4.8-0.2 6.7-3.2 0.6-6.5 0.3-9.7 0.1q0-3.4 0-6.8z"/><path class="g" d="m705.2 996.7c3.3-0.1 6.8-0.9 10 0.3 0.7 2.2 0.2 4.5-0.1 6.7-3.3 0.1-6.7 0-10.1-0.4q0.1-3.3 0.2-6.6z"/><path class="g" d="m229.4 1015.6c4.6-1.1 10.2-0.3 13 4 4.2 5.3 2.4 14-3.7 17.1-5.1 2.4-12.4 1.5-15.5-3.7-4-6.1-0.8-15.4 6.2-17.4z"/><path class="g" d="m403.7 1056.9q5.2-0.2 10.4 0 0.1 3.6-0.1 7.2-5.1 0.2-10.2-0.1-0.2-3.6-0.1-7.1z"/><path class="g" d="m422.7 1057.1c3.3 0.1 6.8-0.8 9.9 0.2 1.1 2 0.3 4.5 0.5 6.6q-5.2 0.4-10.3 0.2-0.2-3.5-0.1-7z"/><path class="g" d="m441.7 1057c3.3 0.1 6.6-0.2 9.9 0.5 0.3 2.1 0.2 4.3 0.2 6.5-3.3 0.3-6.6 0.7-9.8 0.1-1.3-2.2-0.6-4.8-0.3-7.1z"/><path class="g" d="m460.6 1057.6c3.3-0.8 6.7-0.2 10-0.2 0.1 2.1 0.3 4.3-0.1 6.4-3 1.2-6.5 0.6-9.7 0.3-0.7-2.1-0.4-4.3-0.2-6.5z"/><path class="g" d="m479.4 1058.2c3-1.5 6.8-0.5 10.1-0.6 0 2.1 0.1 4.3-0.2 6.5-3 1.1-6.4 0.4-9.5 0.2-1-1.9-0.6-4.1-0.4-6.1z"/><path class="g" d="m497.9 1057.8c3.5-0.2 6.9-0.2 10.4 0q0 3.5-0.2 7c-3.2-0.1-6.5 0.2-9.6-0.3-1.3-1.9-0.4-4.5-0.6-6.7z"/><path class="g" d="m516.7 1057.8c3.4-0.1 6.9-0.1 10.3 0.2q0 3.4-0.1 6.9-5 0.2-10-0.1-0.3-3.5-0.2-7z"/><path class="g" d="m535.3 1058.1c3.5-0.3 7-0.3 10.4 0q0 3.3 0 6.7c-3.4 0.4-6.9 0.4-10.3-0.1q-0.1-3.3-0.1-6.6z"/><path class="g" d="m554.3 1058.2c3.4-0.1 6.7-0.1 10-0.1 0.3 2.3 0.3 4.7 0 7-3.3 0-6.6 0.5-9.8-0.4-0.3-2.2-0.2-4.3-0.2-6.5z"/><path class="g" d="m574 1058.3c3.1-0.3 6.2-0.1 9.3-0.2 0.3 2.3 0.7 4.8-0.2 7-3.2 0.3-6.7 0.9-9.7-0.4-0.1-2.1-1.1-4.9 0.6-6.4z"/><path class="g" d="m592.1 1058.8c3.3-0.4 7.1-1.3 10.2 0.2 0.2 2.1 0.1 4.2 0 6.4-3.4 0.1-6.8 0.1-10.2-0.2q0-3.2 0-6.4z"/><path class="g" d="m611.4 1058.6c3.2-0.5 6.5-0.1 9.7 0.2q-0.1 3.4-0.3 6.8c-3.3-0.2-6.7 0.5-9.9-0.5-0.3-2.1-1.1-4.8 0.5-6.5z"/><path class="g" d="m629.8 1058.8c3.4-0.1 6.8-0.1 10.3 0.1-0.1 2.2 0.4 4.6-0.5 6.7-3.2 0.2-6.8 0.8-9.8-0.5-0.2-2.1-0.1-4.2 0-6.3z"/><path class="g" d="m648.8 1065.9c-0.3-2.3-1.4-5.2 0.1-7 3.3-0.5 6.6-0.2 9.9 0.1-0.1 2.1 0 4.3-0.3 6.4-3 1-6.5 0.3-9.7 0.5z"/><path class="g" d="m667.2 1059c3.5-0.2 7-0.2 10.5 0.2q-0.1 3.4-0.4 6.9-4.8 0-9.6 0c-0.5-2.3-0.6-4.7-0.5-7.1z"/><path class="g" d="m686.4 1059.2q5-0.4 10-0.3 0.1 3.6 0 7.2c-3.4 0.1-6.7 0.1-10.1-0.3q0-3.3 0.1-6.6z"/><path class="g" d="m705 1059.1q5-0.2 10 0.1 0.2 3.4 0.1 6.9-5.2 0.3-10.3 0.1-0.1-3.6 0.2-7.1z"/><path class="h" d="m724.2 283c0.2 0.6 0.7 1.6 0.9 2.2 7.2-0.2 14.4-0.4 21.5 0.2 0.6 0 1.7 0 2.3 0.1 0.9 9.3-0.7 18.6 0.3 27.9-0.5 0-1.6 0-2.1-0.1-7.6-0.2-15.1 0.1-22.6 0-0.4-0.2-1.2-0.6-1.6-0.8 0.7-8.9 0.4-17.9-0.3-26.8 0.5-0.1 1.5-0.4 1.9-0.5 0-0.5-0.2-1.6-0.3-2.2z"/><path class="h" d="m479.2 986.3c0.5-8.2-0.3-16.3 0.5-24.4 0.3 8 0 16.1 0.2 24.2q3.7 0 7.4 0.1 5.6 0.2 11.3 0 3.6-0.1 7.3 0 5.6 0.2 11.2 0.1 3.8 0 7.7 0.1c3.7 0.2 7.4 0.1 11.2 0q3.8 0 7.6 0.1 5.5 0.1 10.9 0.1 3.7 0 7.5 0c0.4-8.2-0.1-16.3 0.4-24.4 0.7 8.2-0.1 16.4 0.4 24.6q5.3 0 10.7-0.1 3.6-0.1 7.3 0 5.6 0.1 11.3 0.1 3.7 0 7.5 0.1c3.6 0.2 7.1 0.3 10.7 0.4 0.4-8.3-0.5-16.5 0.4-24.8 0.3 8.1 0.1 16.2 0.3 24.3q3.7 0.1 7.4 0.2 5.6 0.2 11.2 0.2 3.8 0 7.6 0c0.2-8.2-0.3-16.4 0.1-24.5 0.9 8.1-0.1 16.3 0.5 24.5q5.3-0.1 10.6 0.1 3.7 0 7.5 0 5.7 0.1 11.4 0c2.4-0.1 4.9-0.1 7.3 0 3.8 0.2 7.6 0.3 11.4 0.2q3.7-0.1 7.4 0c3.7 0.1 7.5 0.2 11.2 0.2q7.5-0.1 15.1 0c4.7 0.1 10.3-1.1 13.9 2.7 3.4 2.8 3.1 7.6 3.8 11.5-1 5.3-0.6 10.7-0.7 16.1q0 22 0 44.1c0.1 3.6-1.1 7.1-2.8 10.2-3.6 3.2-8.8 2.4-13.2 2.6-5.2 0.1-10.4-0.2-15.6 0.1q-5.5 0.3-11 0-3.8-0.1-7.6-0.2-5.4-0.2-10.8-0.1c-0.5 9.7 0.4 19.5-0.4 29.2-0.3-9.7-0.1-19.4-0.4-29.1q-3.6-0.1-7.3-0.1c-3.6 0-7.2 0.1-10.9-0.1q-3.9-0.2-7.8-0.3c-0.2 9.6 0.1 19.2-0.1 28.7-1.2-9.3 0.1-18.8-0.7-28.2-3.4 0-6.8-0.2-10.2-0.3-2.6-0.1-5.2-0.1-7.8-0.1-3.7 0-7.4-0.1-11.1-0.1q-3.9 0-7.7-0.1c-3.5-0.1-7 0-10.5 0.1-0.7 9.7 0.5 19.5-0.5 29.1-0.6-9.7-0.1-19.5-0.1-29.3q-3.8 0-7.6 0.1c-3.7 0-7.4-0.1-11 0-2.6 0-5.1 0-7.7 0-3.7-0.2-7.4-0.2-11.1-0.3q-4-0.1-7.9-0.1c-3.6 0-7.2 0-10.8 0q-3.9 0-7.8 0c-3.5 0-7.1 0.2-10.6 0.2-0.4 9.8 0.5 19.5-0.4 29.2-0.4-9.8 0.1-19.7 0-29.5q-4-0.1-7.8-0.1c-3.7 0-7.3 0-10.9 0q-3.8-0.1-7.6-0.2c-3.6-0.1-7.3 0.1-10.9 0.1q-4.1-0.1-8.1 0c-3.6 0.2-7.1 0.1-10.7-0.1q-3.9-0.2-7.9-0.2c-3.7 0-7.4 0.1-11.1 0q-3.8 0-7.6-0.1c-3.7 0-7.4-0.1-11-0.1-2.7-0.1-5.3 0-7.9 0.2-3.3 0.2-6.7 0.1-10-0.2-0.5 9.8 0.4 19.6-0.6 29.4-0.4-9.9-0.1-19.7-0.1-29.5-5.1-0.1-10.1 0-15.1-0.1-0.1 5.2-0.1 10.3-0.1 15.4-0.9-5.1-0.4-10.2-0.6-15.4-3.8-0.1-7.7 0-11.3-1.4-2.2-2.6-4.3-5.7-3.9-9.3-0.1-21 0.1-41.9 0.1-62.8-0.1-3.9 0.1-8.2 3.1-11 3.2-3.2 8-2.7 12.2-2.8 5.1 0 10.1 0.2 15.2 0.2 3.6 0 7.3 0 10.9 0q3.7 0 7.5 0.1c3.7 0.1 7.4 0.1 11.1 0q3.8 0 7.6 0.1 5.5 0.2 11.1 0.1 3.8-0.1 7.6 0 5.4 0.3 10.7 0.3zm-75.3 8.4q0 3.3 0.1 6.5c3.4 0.4 6.9 0.5 10.4 0.2 0.1-2.1 0.2-4.3-0.1-6.4-3.3-1.3-7-0.5-10.4-0.3zm19 0c0 2.1-0.1 4.3 0.1 6.5 3.1 1 6.6 0.5 9.8 0.3 1-2.1 0.3-4.6 0.5-6.8q-5.2-0.3-10.4 0zm18.8 0q-0.1 3.5 0.2 7.1 4.9 0.1 9.9-0.1 0.1-3.5 0.1-6.9-5.1-0.4-10.2-0.1zm19.2 0.1q0 3.5 0.1 7 4.9 0.1 9.8-0.1 0.1-3.4 0.1-6.8-5-0.3-10-0.1zm18.8 0.2q-0.1 3.4 0 6.9c3.4 0.1 6.7 0.1 10 0q0-3.4 0-6.8-5-0.3-10-0.1zm19.4 0.1c-2.3 1.4-0.7 4.7-1 6.9q5.1 0.4 10.3 0.2 0.1-3.6 0-7.1c-3.1-0.1-6.3-0.4-9.3 0zm18 0.1q-0.3 3.4-0.4 7 5.3 0.3 10.6 0-0.1-3.5-0.3-6.9-5-0.2-9.9-0.1zm19.1 0.2c-1.3 1.9-0.3 4.7-0.5 6.9 3.4 0.3 6.9 0.3 10.4 0q0-3.5-0.2-7c-3.2 0-6.4-0.3-9.7 0.1zm18.6 0.6c-0.4 2-0.3 4.1 0.1 6.1 3.3 1 6.7 0.4 10 0.1-0.3-2.1 0.4-4.7-0.7-6.4-3.1-0.4-6.5-0.9-9.4 0.2zm38.1-0.1c-1.1 1.9-0.6 4.4-0.4 6.5 3.2 0.9 6.5 0.3 9.8 0.5 0.2-2.2 0.5-4.4 0.1-6.6-2.9-1.1-6.4-0.7-9.5-0.4zm-19.4-0.3q0 3.6 0.2 7.2c3.2-0.1 6.5 0.4 9.7-0.3 1.1-2 0.3-4.6 0.5-6.7-3.4-0.4-6.9-0.4-10.4-0.2zm37.5 0.4q-0.1 3.4 0 6.9 5.1 0.3 10.2 0.1 0.1-3.6 0.1-7.1-5.2-0.1-10.3 0.1zm18.9 0q-0.1 3.5 0 7 5.1 0.4 10.2 0 0.1-3.5 0.1-6.9-5.2-0.3-10.3-0.1zm18.9 0.2q-0.1 3.4 0 6.9c3.3 0.2 6.7 0.2 10.1-0.1q0-3.4-0.2-6.8-4.9-0.1-9.9 0zm19 0q-0.2 3.5-0.1 7c3.4 0.2 6.8 0.3 10.2 0-0.1-2.2 0.3-4.6-0.5-6.7-3.2-0.5-6.4-0.2-9.6-0.3zm18.7 0.4q0 3.4 0 6.8c3.2 0.2 6.5 0.5 9.8-0.1 1-1.9 0.7-4.7 0.1-6.7-3.3-0.7-6.6-0.3-9.9 0zm18.7 0.1q-0.1 3.3-0.2 6.7c3.4 0.3 6.8 0.4 10.1 0.3 0.3-2.2 0.8-4.5 0.1-6.7-3.2-1.2-6.7-0.4-10-0.3zm-301.5 60.2q-0.1 3.5 0.1 7.1 5.1 0.3 10.2 0.1 0.2-3.6 0.1-7.2-5.2-0.2-10.4 0zm19 0.2q-0.1 3.5 0.1 7 5.1 0.2 10.3-0.2c-0.2-2.1 0.6-4.6-0.5-6.6-3.1-1-6.6-0.1-9.9-0.2zm19-0.1c-0.3 2.3-1 4.9 0.3 7.1 3.2 0.6 6.5 0.2 9.8-0.1 0-2.2 0.1-4.4-0.2-6.5-3.3-0.7-6.6-0.4-9.9-0.5zm18.9 0.6c-0.2 2.2-0.5 4.4 0.3 6.5 3.1 0.3 6.6 0.9 9.7-0.3 0.3-2.1 0.1-4.3 0-6.4-3.3 0-6.7-0.6-10 0.2zm18.8 0.6c-0.2 2-0.6 4.2 0.4 6.1 3.1 0.2 6.5 0.9 9.5-0.2 0.3-2.2 0.2-4.4 0.2-6.5-3.3 0.2-7.1-0.9-10.1 0.6zm18.5-0.4c0.2 2.2-0.7 4.8 0.6 6.7 3.1 0.5 6.4 0.2 9.6 0.3q0.2-3.5 0.2-7c-3.5-0.2-6.9-0.2-10.4 0zm18.8 0q-0.1 3.5 0.2 7 5 0.3 10 0.1 0.1-3.5 0.1-6.9c-3.4-0.3-6.9-0.3-10.3-0.2zm18.6 0.3q0 3.3 0.1 6.6c3.4 0.5 6.9 0.5 10.3 0.1q0-3.4 0-6.7c-3.4-0.3-6.9-0.3-10.4 0zm19 0.1c0 2.2-0.1 4.3 0.2 6.5 3.2 0.9 6.5 0.4 9.8 0.4 0.3-2.3 0.3-4.7 0-7-3.3 0-6.7 0-10 0.1zm19.7 0.1c-1.7 1.5-0.7 4.3-0.6 6.4 3 1.3 6.5 0.7 9.7 0.4 0.9-2.2 0.5-4.7 0.2-7-3.1 0.1-6.2-0.1-9.3 0.2zm18.1 0.5q0 3.2 0 6.4c3.4 0.3 6.8 0.3 10.2 0.2 0.1-2.2 0.2-4.3 0-6.4-3.1-1.5-6.9-0.6-10.2-0.2zm19.3-0.2c-1.6 1.7-0.8 4.4-0.5 6.5 3.2 1 6.6 0.3 9.9 0.4q0.2-3.3 0.3-6.7c-3.2-0.3-6.5-0.7-9.7-0.2zm18.4 0.2c-0.1 2.1-0.2 4.2 0 6.3 3 1.3 6.6 0.7 9.8 0.5 0.9-2.1 0.4-4.5 0.5-6.7-3.5-0.2-6.9-0.2-10.3-0.1zm19 7.1c3.2-0.2 6.7 0.6 9.7-0.5 0.3-2.1 0.2-4.3 0.3-6.4-3.3-0.3-6.6-0.6-9.9-0.1-1.5 1.8-0.4 4.7-0.1 7zm18.4-6.9c-0.1 2.4 0 4.8 0.5 7.1q4.8 0 9.6 0 0.3-3.5 0.4-6.9c-3.5-0.4-7-0.4-10.5-0.2zm19.2 0.2q-0.1 3.3-0.1 6.6c3.4 0.4 6.7 0.4 10.1 0.3q0.1-3.6 0-7.2-5-0.1-10 0.3zm18.6-0.1q-0.3 3.5-0.2 7.1 5.1 0.2 10.3-0.1 0.1-3.5-0.1-6.9-5-0.3-10-0.1z"/></svg>