<svg version="1.2" xmlns="http://www.w3.org/2000/svg" viewBox="0 0 918 1152" width="918" height="1152"><style>.a{fill:#fff}.b{fill:#a9a9a8}.c{fill:#1a1a18}.d{fill:#9a9382}.e{fill:#caac75}.f{fill:#4f4f4e}.g{fill:#6b6862}</style><path class="a" d="m718.2 141.4c11.9 0 23.8 0 35.6 0q-0.1 1.9-0.2 3.8c-0.2 6.5 0 13.1 0.1 19.6q0 1.9 0.1 3.8c-11.8-0.1-23.6-0.1-35.4 0q0-2 0-3.9c-0.1-6.5 0.1-13 0-19.5q-0.1-1.9-0.2-3.8z"/><path class="a" d="m705.4 194.7q4.7 0 9.3 0.1c0 6 0 12 0.1 18 6.1-0.1 12.2 0 18.3 0 0-6.1 0-12.1 0-18.1q4.6 0 9.3 0c-0.1 15.3 0 30.6 0 45.9q-4.6 0-9.3 0c0-6.7 0-13.4 0.1-20.1-6.2-0.1-12.3 0-18.5-0.1 0.2 6.8 0 13.5 0.1 20.2q-4.7 0-9.3 0c-0.1-15.3 0-30.6-0.1-45.9z"/><path class="a" d="m759.3 196.2c7.9-3.8 18.5-2.8 24.8 3.8 5.5 5.8 6.4 14.4 5.6 22.1-0.7 7.1-4.7 14.1-11.2 17.3-7.9 3.6-18.6 2.5-24.4-4.4-1.8-2.2-3-4.8-4.1-7.3 3-1.1 6.1-2.1 9.2-2.9 1 2.7 1.9 5.9 4.7 7.3 4.5 2.3 11.2 1.3 13.9-3.4 2.4-4.1 2.7-9 2.5-13.7-0.4-3.7-1.3-7.6-4-10.3-3.8-3.6-10.8-3.8-14.3 0.3-1.4 1.4-1.9 3.3-2.5 5.1-3.1-0.8-6.3-1.5-9.4-2.2 1.4-4.9 4.4-9.5 9.2-11.7z"/><path class="a" d="m176.2 452.2q1.8-0.5 3.8-0.6c186.7 0 373.3 0 560 0 8.5 0 15.4 8.1 15.2 16.4 0 147-0.1 294 0 441 0.2 8.3-6.6 16.4-15.1 16.7-185.7 0-371.4 0-557.1 0-9.3 0.7-18.2-7.3-17.8-16.7 0.1-147.3 0-294.7 0-442-0.1-6.6 4.6-13 11-14.8zm491.1 30.2c-3.2 1.5-4.3 6.4-1.7 8.9 3 3.2 9.4 2.2 10.3-2.4 1.5-4.7-4.4-9-8.6-6.5zm-208.8 3c-1.1 0.5-2.9 0.9-2.7 2.5-0.3 3.4-0.2 6.8-0.2 10.2-2.9-2.1-5.9-4.2-9.5-4.9-11.2-3-23.8 3.1-28.4 13.7-5.4 11.5-0.4 26.7 11 32.4 8.6 4.2 19.5 3.2 26.9-3q0.2 1.8 0.7 3.5c3.4 1.1 7.1 1.3 10.6 1.6-0.1-19.4 0-38.7 0-58-2.8 0.4-5.7 0.9-8.4 2zm187.4 1.6c-0.4 3.7-0.2 7.5-0.2 11.2-4.9-4-11.2-6.3-17.6-5.7-11.4 0.7-21.4 10.3-22.6 21.6-1.8 12.2 6.9 24.9 19.1 27.2 7.3 1.7 15.1-0.5 20.9-5.2q0.2 1.9 0.8 3.7c3.3 1.6 7.1 1.1 10.7 1.4-0.1-19.2-0.1-38.4-0.1-57.7-3.7 0.8-8.1 0.8-11 3.5zm-111 3c-0.1 10 0 20-0.1 30 0 5.2-0.2 10.9 3.2 15.2 3.3 4.2 8.8 5.3 13.7 6.8q0.6-4.6 0.8-9.1c-1.7-1-3.7-1.6-4.9-3.3-1.4-1.9-1.4-4.3-1.5-6.6-0.1-5 0-9.9 0-14.9q2.8 0 5.7 0 0.1-5.1 0.1-10.3-2.9 0-5.7 0 0-5.4 0-10.8c-3.9 0.7-7.6 1.6-11.3 3zm-327 12.9c-1.7 4.6-0.6 10.6 3.6 13.5 4 2.9 8.8 4.2 13.5 5.1 3.1 0.8 6.8 1 8.9 3.8 1.7 2.6-0.3 5.9-3 6.6-7 2.3-14.2-0.6-19.9-4.5-1.8 2.5-3.7 4.8-5.7 7.2 5.7 5.4 14 7.4 21.7 7.2 5.5-0.2 11.2-1.6 15.4-5.3 5.3-4.8 5.6-14.3 0-18.9-5.4-4.4-12.7-4.7-19.1-6.8-1.9-0.6-4.2-1.5-4.5-3.7-0.4-2.9 2.3-4.9 4.8-5.4 5.6-1.4 11.2 1.1 16.1 3.6 1.7-2.5 3.4-4.9 5-7.5-7.4-5.2-17.1-6.6-25.7-4.2-4.8 1.3-9.3 4.5-11.1 9.3zm43.5 11c-1.6 9.8 4 20.2 12.7 24.8 10.5 5.4 25.4 3.5 32.4-6.4-2.7-1.8-5.4-3.4-8.1-5.3-3.5 2.9-7.7 5.1-12.3 4.7-6.1-0.1-11.6-4.5-13.2-10.4 12.4-0.3 24.8 0.1 37.2-0.2l0.5-0.4c0.6-4.7-0.3-9.5-2.1-13.8-4.1-9.7-15.1-15.6-25.4-14.1-11 0.9-20.6 10.1-21.7 21.1zm62.6-14.8c-10.1 8.8-10.3 26.4-0.5 35.6 10.2 10.1 29.4 9.2 38.1-2.5-2.9-1.7-5.8-3.4-8.6-5.2-5.1 5.5-14.1 6.3-20.1 1.9-2.5-1.8-3.7-4.8-5-7.5 12.5-0.5 25-0.1 37.5 0 1.4-10.5-3.7-21.7-13.4-26.4-9-4.5-20.6-2.7-28 4.1zm54.9-0.3c-10.2 8.2-10.8 24.8-2.2 34.4 9.8 11.5 30.4 11.5 39.3-1-2.8-1.7-5.5-3.5-8.4-5.1-2.8 2.7-6.5 4.8-10.5 4.7-6.6 0.4-13-4.2-14.5-10.6 12.5 0 25 0.1 37.6 0 0.5-8.3-2-17.4-8.6-22.8-9-8-23.9-7.7-32.7 0.4zm126.3-1.8c-6 3.9-7 13.6-1.8 18.5 5.8 4.9 13.7 5.3 20.6 7.7 3.6 1 4.7 6.7 0.9 8.3-7.1 3.1-15 0-21-4.2q-2.9 3.7-5.5 7.6c8.3 6.6 20 8.7 30.1 5.4 4.2-1.5 8.4-4.3 9.9-8.7 1.6-4.9 1-11.3-3.5-14.5-5.8-4.2-13.4-4.2-20-6.8-2.1-0.7-3.8-3.1-2.7-5.3 1.7-3.1 5.6-3.6 8.8-3.4 4.2 0 8 2 11.7 3.7 1.7-2.5 3.4-5.1 5-7.6-9.5-6.3-23-7.5-32.5-0.7zm204.2-3.4c-9.1 2.7-16.7 10.9-17.7 20.5-1.8 10.8 5.2 22 15.4 25.9 10.5 4.1 23.8 0.9 30.5-8.4 5.5-7.2 6.2-17.4 2.1-25.4-5.3-10.9-18.9-16.1-30.3-12.6zm-141.3 0.3c0 8.7-0.2 17.5-0.1 26.2-0.1 7 2.8 14.3 8.9 18.1 7.5 5 18.4 4.9 25.6-0.8 4.7-4 7.1-10.3 7.2-16.4 0-9-0.1-18 0-27-3.8-0.2-7.5-0.1-11.2-0.1-0.1 8.7 0.1 17.4 0.1 26.1 0 2.9-0.4 6-2.4 8.2-3 3.7-9 4.3-12.9 1.6-2.8-2-4.3-5.4-4.2-8.8-0.1-9 0-18-0.1-27-3.6-0.1-7.2-0.1-10.9-0.1zm106.7 4.9c-0.4 14-0.2 28-0.2 42 3.7 0 7.4 0.1 11.1 0 0.2-14.3 0-28.5 0-42.8-3.7 0-7.3 0.1-10.9 0.8zm-367.4 73.7q0 5.7 0 11.4c-3.8-3.4-9.9-3.8-13.7-0.2-4 3.9-4.2 10.3-2.8 15.3 1.2 4.4 5.6 7.6 10.1 7.3 2.6 0 4.9-1.5 6.9-3.1 0.1 0.7 0.2 2 0.3 2.6q2.9 0 5.8 0c0.2-11.1 0-22.1 0.1-33.2q-3.3-0.2-6.7-0.1zm38.3 0c0.2 11.1 0 22.2 0.1 33.3q3.2 0 6.5 0c0.1-11.1 0-22.2 0-33.3q-3.3-0.2-6.6 0zm26.1 0.1c3.3 5.4 6.9 10.6 10.2 16-3.8 5.8-8.2 11.1-11.4 17.2q4.1 0.1 8.2 0c2.6-3.7 4.6-7.8 7.5-11.2 2 3.1 3.8 6.2 5.8 9.2 1.8 3.7 6.6 1.4 9.8 1.9q-5.6-8.6-11.4-17.1c3.4-5.3 7-10.6 10.4-16.1-2.7-0.1-5.4-0.1-8-0.1-2.4 3.4-4.4 7.2-6.8 10.6-2.3-3.4-4.2-7.1-6.5-10.6q-3.9 0.1-7.8 0.2zm33 0c0.1 11-0.1 22.1 0.1 33.2q3.4 0 6.8 0c0-11.2 0.2-22.3 0-33.4q-3.5 0-6.9 0.2zm56.7-0.1c-10.7 2.4-13.4 15.8-10 24.7 4 10.1 19 12.1 26.5 4.9 3.8-3.9 4.7-9.8 4.3-15.1-0.3-5.1-3-10.2-7.5-12.9-4-2.3-8.9-2.7-13.3-1.6zm41.8 0c-0.1 11.1 0 22.2 0 33.3 8.5 0 17-0.1 25.5 0q0-2.8-0.1-5.6c-6.2-0.4-12.4-0.2-18.6-0.3q0-4.3-0.1-8.7 8.4 0.1 16.7-0.1 0-2.8 0-5.6c-5.5-0.1-11.1-0.1-16.6-0.1q0-3.7 0-7.3c6 0 11.9 0.1 17.9 0.1q-0.1-2.9-0.2-5.8c-8.1 0.1-16.3 0-24.5 0.1zm34.5 1.3c-4.7 2.5-5.9 9.7-2.1 13.4 3.5 3.6 8.8 4 13.4 5.4 2.1 0.5 4.6 3 2.9 5.3-1.9 2.8-6.1 3-9.1 2-2.4-0.9-3.3-3.4-4.2-5.5q-3.3 0.1-6.5 0.4c0.5 3.8 2.2 8 5.9 9.8 5.1 2.3 11.4 2.6 16.5 0 6-3.2 6.3-13.3 0.4-16.8-4.1-2.5-9.1-2.5-13.4-4.5-1.6-0.8-2.3-3.3-0.7-4.3 3.7-2.7 10.2-1.6 11 3.4q3.3 0 6.7-0.2c-0.6-3.5-2.1-7.1-5.5-8.7-4.7-2.2-10.6-2.2-15.3 0.3zm56.5 7.6q3 0.4 6 0.8c0.3-3.2 4.1-6.2 7-3.5 2.8 3.1-0.8 7.4-4.4 7.4q-0.2 2.4-0.4 4.9c1.9-0.3 4.3-1 5.7 0.7 2.9 2.6 1.8 8.2-2.1 9.1-3.3 0.7-5.3-2.4-6.2-5.1q-3.2 0.4-6.3 1c0.6 1.8 1.1 3.8 2.3 5.3 4.8 6.5 16.6 5.5 19.8-2 2.1-4.5 0-10.2-4.6-12 3.7-2.3 5.3-7.2 2.8-11-4.4-8.2-19.2-5.4-19.6 4.4zm74.2-6.8c-7.6 5.5-8.3 17.1-3.9 24.9 4.3 7.4 15.2 9.1 21.9 3.9 2.5-2 3.9-5 4.6-8.1q-3.3-1.1-6.7-1.8c-0.6 1.6-0.8 3.5-2.1 4.8-3.1 3.3-9.2 2.6-11.4-1.3-2.5-4-2.1-9-1.1-13.4 1-4.5 6.5-7 10.7-5.1 2.2 0.9 3.1 3.1 4.2 5.1 2.2-0.5 4.4-0.9 6.5-1.5-1.2-3.3-2.9-6.6-6-8.3-5.1-2.8-11.9-2.5-16.7 0.8zm30.7-0.4c-2.5 1.6-3.3 4.6-4 7.3q2.9 0.4 5.9 0.8c0.8-1.6 1.1-3.8 3-4.4 2.6-1.1 5.9 1.4 5.2 4.2-0.5 2.6-3.5 3.4-5.7 4q-0.2 2.5-0.3 5c1.7-0.3 3.8-1 5.3 0.3 3.6 2.5 2.1 9.4-2.6 9.4-2.8 0.3-4.2-2.4-5.2-4.6q-3.1 0.2-6.2 0.5c0.6 5.2 5.2 9.5 10.4 9.7 5.8 0.6 11.8-3.5 12.3-9.4 0.7-4-1.9-7.6-5.5-9.1 3-1.8 5.1-5.4 3.8-8.9-1.9-6.7-11-8.7-16.4-4.8zm-474.6-1.7c0.2 11.1 0 22.3 0.1 33.4q3.2-0.1 6.5-0.1c0.1-8.3-0.3-16.6 0.1-24.9 2 8.3 4.3 16.6 6.6 24.9q3.1 0 6.2 0c2.5-8.3 4.3-16.8 6.5-25.2 0.4 8.4-0.1 16.8 0.2 25.2q3.2 0.1 6.4 0.1c0.1-11.2 0-22.3-0.1-33.4q-5.1-0.1-10.2 0-3 11.1-6 22.2-2.8-11.2-6-22.2-5.1 0-10.3 0zm202.7 0.1c-4 11.1-8.5 22.1-12.7 33.2q3.7 0.1 7.3 0 1.5-3.8 3-7.6c4.3 0 8.7 0 13 0.1 1.1 2.5 2.1 5 3.1 7.5q3.7 0 7.4 0c-4.3-11.2-9.1-22.2-13.5-33.3q-3.8-0.2-7.6 0.1zm137.4-0.1c-0.1 11.1 0 22.2 0 33.3q3.4 0 6.8 0 0-6.3 0-12.6c4.8-0.2 9.9 0.8 14.3-1.5 7.1-4.1 5.5-17.2-2.8-18.8-6.1-0.8-12.2-0.3-18.3-0.4zm59.6 1.7c-2.9 1.8-3.8 5.2-4.2 8.3q3.2 0.3 6.4 0.5c0.4-2.4 1.5-5.4 4.5-5.3 4.4-0.4 5.7 5.5 3.1 8.3-5.4 6.1-13.7 10.8-14.8 19.6 7.5 0.4 15.1 0.2 22.7 0.2q0.1-3 0.1-6.1-6.5-0.1-13-0.2c3.8-4.4 9.1-7.4 11.7-12.7 2.3-4.4 1-10.8-3.7-13.2-4-2-9-1.7-12.8 0.6zm-353.8 7.5c-7.2 1.6-10.4 10.3-7.8 16.7 2.3 7.9 13.2 10.2 19.4 5.6 5.4-3.7 6.2-11.8 3.1-17.2-2.9-4.9-9.4-6.7-14.7-5.1zm51.4 2.2c-4.4 4.2-4.6 11.6-2 16.9 3.8 8.3 19 7.3 20.7-2.1q-3.2-0.4-6.3-0.6c-0.9 1.3-1.5 3-3.2 3-3.5 0.7-5.9-2.5-6.2-5.6 5.4-0.1 10.8-0.1 16.2-0.3-0.3-3.3-0.6-6.8-2.5-9.7-3.6-5.3-12.1-5.9-16.7-1.6zm37.8-2.3q0 3.3 0 6.7 3.4 0 6.8 0-0.1-3.3 0-6.6-3.4 0-6.8-0.1zm126.8 8.6q0 3.3 0 6.5 6.5 0.1 13 0.1 0-3.3 0-6.5-6.5 0-13-0.1zm160 0q-0.1 3.3-0.2 6.5c4.4 0.1 8.8 0 13.2 0q-0.1-3.2-0.1-6.4c-4.3 0-8.6-0.1-12.9-0.1zm-286.7 8.7q0 3.4 0 6.9 3.3 0 6.5 0 0.1-3.4 0-6.8-3.3-0.1-6.5-0.1zm-13.8 50.1c-16.4 3.8-31.7 12.3-43.4 24.6-13.5 13.7-22.2 31.9-24.8 51-10.7-0.1-21.5 0-32.2-0.1q0.1-27.5 0-55c13.1-0.2 26.2 0.2 39.3-0.1 5.4-6.6 11-13 16.7-19.3-25.5 0-50.9 0-76.4 0.1-0.2 56.2-0.1 112.4-0.1 168.6 7-4.4 13.8-9.1 20.6-13.8q-0.1-30.2-0.1-60.5c10.7-0.1 21.3 0 32 0 2.7 18.2 10.2 36.2 23.2 49.5 10.3 11.5 24 19.6 38.6 24.4 20 6.4 42.2 5.5 61.7-2.4 14.8-6.3 28.5-15.9 38-29-5.4-4.1-10.4-8.6-15.9-12.6-13.9 18.3-37.1 29.5-60.1 27.9-29.4-1.2-57-23.2-63.5-52.1-7.3-28.1 6.6-59.7 31.8-73.7 16.8-10.2 38-12.3 56.6-6.5 14.2 4.3 26.5 13.3 35.7 24.8 5.4-4.1 10.7-8.4 16-12.6-9.6-12.8-23-22.5-37.7-28.7-17.5-7.4-37.5-8.8-56-4.5zm195.6 6.5c-15.7 7.1-29.2 19.1-38.1 33.9-10.3 16.8-13.5 37.6-9.7 56.9 6.2 32.1 33.5 57.8 65.1 64.5 9 2.3 18.4 2.1 27.6 2.3 0.1-7.7 0.1-15.3 0.1-23-5.6-0.3-11.2 0.1-16.8-0.7-12.4-1.8-24.3-7.3-33.8-15.4-9.9-8.2-16.5-20.1-19.2-32.6-2.8-14.5 0-30.1 8.2-42.4 8.4-13.2 22.1-22.5 37-26.7 7.9-2.3 16.3-2.5 24.6-2.4-0.1-7.7 0-15.3-0.1-23-15.3-0.5-30.9 2-44.9 8.6zm91.5 19.5c-11.9 12.5-19.9 28.8-21.7 45.9-1.8 15 0.6 30.6 7.4 44.1 8.6 18.4 24.6 33 43.3 40.9 13.7 5.8 28.8 7.7 43.6 7q0.1-11.4 0-22.8-3.9-0.2-7.7-0.1c-15 0.3-29.8-5.2-41.6-14.4-10.7-8.6-18.5-20.9-20.9-34.5 17.1 0.1 34.2 0.1 51.2 0q0.1-11.5 0.1-22.9c-17-0.2-34 0-51-0.1 3.6-16.9 15.3-31.5 30.2-39.8 12-6.8 26.1-9 39.7-8.4 0-7.6 0.2-15.2 0.1-22.8-26.8-1.9-54.4 8.3-72.7 27.9zm-309.2 32c-13 18.7-10.8 46.5 5.7 62.4 9.4 9.8 22.9 15.2 36.4 15.5 16.6 0.4 33.2-7.8 42.8-21.4-5.1-3.9-10.2-7.7-15.5-11.2-5.8 8.1-15.3 13.4-25.3 13.6-13.1 0.8-26-7.7-30.9-19.8-2.7-7-2.8-15-0.2-22 4.6-13.8 19.9-22.8 34.2-20.5 9 0.9 16.8 6.3 22.4 13 5.1-3.8 10.5-7.4 15.5-11.4-9.2-11.5-23-20-38-20.8-18.2-1.7-37.1 7.2-47.1 22.6zm37.4 156.2c-4.5 6.7-9.3 13-13.5 19.8-0.3 2-0.1 4-0.1 6.1 4.6-0.1 9.3 0 13.9 0q0 3.3 0 6.7 3.1 0 6.3 0.1 0.1-3.4 0.1-6.8 2.1 0 4.3-0.1c0-1.9 0-3.9-0.1-5.9-1.4 0-2.8 0-4.3 0.1 0-7.1 0.1-14.2 0-21.3-2.2 0.3-5.4-1.1-6.6 1.3zm-152.8-1.2c-0.1 11.3 0 22.5 0 33.9 2.4-0.1 4.8 0 7.1-0.1q-0.1-7.1 0-14.3 7 0.2 14 0.1 0.1-3 0-6c-4.7 0.1-9.4 0.1-14.1 0.1q0-3.8-0.1-7.6c5.5-0.3 10.9-0.1 16.3-0.3q0-2.8 0-5.7c-7.7-0.3-15.5-0.1-23.2-0.1zm30.5 5.9c-4.9 7.7-4.2 19.2 3 25.3 7.6 6.3 21.5 2.9 23.5-7.4-1.5-1.9-4.5-1.7-6.7-2.5-0.8 2.3-1.8 5-4.2 6.2-3.9 2-9-0.3-10.4-4.3-1.4-4-1.5-8.4-0.2-12.4 1.3-4.4 7-6.6 11-4.4 1.8 1 2.8 3 3.8 4.8q3.4-0.9 6.8-1.5c-1-3-2.6-6.1-5.4-7.9-6.7-4.3-16.8-2.8-21.2 4.1zm33.1 1.2c-4.1 8.1-3.1 20.3 5.4 25.3 8 4.8 20.5 0.7 21.8-9.2-2.2-0.7-4.4-1.4-6.6-2.1-0.9 2.9-2.3 6.4-5.7 7-4.2 1.1-8.5-2.1-9.4-6.2-0.8-4.1-1-8.7 0.9-12.5 2-3.8 7.3-4.9 10.9-2.8 1.7 1 2.5 2.9 3.5 4.5q3.2-0.8 6.4-1.4c-0.8-3.6-3-7-6.4-8.7-7.1-3.3-17.1-1.3-20.8 6.1zm48-7q0 2.8 0 5.7c5.4 0.1 10.8 0 16.2 0-6 7.2-12.2 14.1-17.8 21.5-0.4 2.2-0.2 4.3-0.2 6.5 9.1 0.1 18.3-0.1 27.4 0q0.1-3 0.1-5.9c-6.3-0.1-12.7 0-19 0 5.6-7.1 11.7-13.8 17.2-20.9 1.8-1.9 1-4.7 1.2-7-8.3 0-16.7-0.2-25.1 0.1zm54 0q-0.1 2.8 0 5.8c3.3 0 6.7 0 10 0 0 9.3 0 18.6 0.1 27.9q3.4 0 6.9 0c0.1-9.3 0-18.6 0.1-27.9q4.9 0 9.9-0.1 0-2.9-0.1-5.8c-9-0.1-17.9-0.2-26.9 0.1zm42.6 0c3.3 5.5 6.9 10.8 10.5 16.1-4 5.7-8.2 11.4-11.4 17.6q4 0.1 8.1 0.1c2.6-3.9 5.2-7.7 7.5-11.6 2.7 3.7 4.7 7.9 7.7 11.5 2.8 0.2 5.6 0.1 8.5 0.1-3.6-6.2-8.5-11.6-11.6-17.9 3.2-5.4 7.1-10.5 10.1-16-2.7 0-5.4-0.3-8 0.2-2.3 3.4-4.2 7-6.5 10.4-2.4-3.4-4.6-7-6.7-10.5-2.7-0.1-5.5-0.1-8.2 0zm33.9-0.2c0.1 11.3 0.1 22.6 0.1 33.9q3.5 0 7 0c0-11.2 0-22.5 0-33.7q-3.5-0.2-7.1-0.2zm23.4 0.2q-6.8 16.7-13 33.7 3.5 0 7.1 0.1c0.9-2.6 1.9-5.1 3-7.5 4.5-0.1 9-0.1 13.5-0.1 1.1 2.6 2.1 5.2 3.2 7.7q3.8-0.1 7.6-0.1c-4.1-10.2-8.6-20.3-12.5-30.5-0.6-1.1-0.7-2.7-1.8-3.4-2.4-0.2-4.8 0-7.1 0.1zm35-0.1c-11.1 2.5-14.1 16.8-9.8 26 3.9 8.5 15.5 10.3 23.3 6.4 5.2-2.7 7.9-8.7 7.8-14.4 0.4-5.4-1.2-11.2-5.5-14.8-4.2-3.8-10.4-4.4-15.8-3.2zm26.7 0c-0.1 11.3-0.1 22.6 0 33.8 8.6 0 17.2 0 25.8 0.1q0.1-3 0-6c-6.3 0-12.6-0.1-18.9 0.1q-0.1-4.6-0.1-9.1c5.7 0.2 11.4 0.1 17.1 0.2q0-3-0.1-6c-5.6 0.1-11.2 0-16.9 0.1q-0.2-3.7 0-7.4c6 0 12.1 0 18.2 0q0-2.9 0-5.7c-8.4-0.3-16.8-0.1-25.1-0.1zm36.2 0.9c-5.2 2.1-7.2 9.4-3.4 13.6 4.1 4.7 10.9 4.3 16 6.8 2.5 1.2 2 4.8-0.2 5.9-4.6 3.1-11.5 0.6-12.4-5q-3.4 0.2-6.7 0.5c0.1 5.4 4.4 10.1 9.7 11.1 5.1 0.8 11.2 1.1 15.2-2.7 4-3.6 3.9-10.6 0.1-14.3-3.3-3-8.1-3.5-12.2-4.7-2.1-0.5-5.9-1.9-4.4-4.6 2.9-4 11.1-2.7 11.9 2.6q3.4-0.1 6.9-0.2c-0.5-2.8-1.5-5.8-3.8-7.6-4.7-3.6-11.5-3.6-16.7-1.4zm26.8-0.9q-0.1 16.9 0 33.9c2.3 0 4.6-0.1 6.9-0.1q-0.1-6.4-0.1-12.8c5-0.1 10.4 0.9 14.9-1.6 6.9-4.2 5.6-16.9-2.5-18.9-6.3-1.1-12.8-0.3-19.2-0.5zm36.1 0.8c-3.5 1.3-5.3 4.9-5.7 8.4q2.9 0.3 5.9 0.8c0.8-1.7 1.4-4 3.4-4.5 2.7-1.1 5.8 1.6 4.9 4.4-0.4 2.7-3.3 3.3-5.6 3.8q-0.2 2.3-0.3 4.8c2.2-0.3 5-0.5 6.4 1.7 2.5 3.1 0.3 8.5-3.8 8.6-2.9 0.1-4.6-2.8-5.3-5.3-2.1 0.3-4.2 0.6-6.2 0.9 0.5 9.7 14.2 13.3 20.3 6.4 4.4-4.3 3.2-12.7-2.6-15.2 2.6-2 4.8-5.2 3.7-8.7-1.4-6.5-9.6-8.6-15.1-6.1zm23.9 1.6c-2.3 1.9-2.7 5-3.3 7.7q3.3 0.3 6.6 0.5c0.6-1.6 0.6-3.7 2.3-4.6 2.5-1.8 6.6-0.1 7 3 0.4 3.5-2.4 6.2-4.9 8.3-5 4.5-10.9 9.3-11.5 16.5 7.6 0.1 15.3-0.1 22.9 0 0.1-2.1 0.1-4.1 0.1-6.2-4.2-0.1-8.5 0.1-12.8-0.1 3.2-5.2 9.5-7.6 11.9-13.3 2.7-5-0.1-11.9-5.4-13.7-4.2-1.4-9.3-1-12.9 1.9zm25.3 5.4c-3.1 6.7-2.7 15.3 1.9 21.2 4.3 5.6 12.7 6.7 18.9 3.8 3.6-1.8 5.5-5.6 7-9.2-2.2-1-4.6-1.7-7-2.2-0.6 1.9-1.2 4.1-2.9 5.4-3.7 3-9.8 1.1-11.4-3.2-1.6-4-1.7-8.6-0.4-12.7 1.2-4.4 6.7-6.6 10.7-4.7 2 0.9 2.9 3.1 4.2 4.7 2.3-0.2 4.5-0.8 6.8-1.5-1.6-3-3.1-6.3-6.2-8-7.3-4.3-18-1.4-21.6 6.4zm37-6.8c-3.1 1.4-4.6 4.8-5.2 8q3 0.3 6 0.5c0.4-3.8 5.8-6 8-2.3 1.7 3.5-2.1 6.4-5.4 6.4q-0.3 2.5-0.6 5c2.1-0.2 4.8-0.7 6.4 1.2 2.6 3 1.1 8.6-3.1 9-3.3 0.7-4.9-2.6-5.8-5.1-2 0.2-4 0.4-6 0.7 0.4 2.4 1 4.9 2.8 6.6 5.1 5.2 15.1 4.3 18.8-2.2 3-4.6 0.8-11.2-4.3-13.2 3.6-2 5.4-6.7 3.3-10.4-2.7-5.4-9.8-6.8-14.9-4.2zm-414.7 8.2q-0.1 3.4 0.2 6.9 3.3 0 6.6 0 0.1-3.4 0.1-6.8-3.5-0.1-6.9-0.1zm96.2 9q-0.1 3.3-0.1 6.6 6.7 0.1 13.3-0.1c-0.1-2.2-0.2-4.3-0.4-6.5-4.3 0-8.6-0.1-12.8 0zm-96.2 8.7q0 3.4 0.1 6.9 3.4 0 6.8 0 0-3.4 0-6.8-3.5-0.1-6.9-0.1z"/><path class="a" d="m372.6 512.2c1.8-6.7 9.2-11.3 15.9-9.6 4.8 1.1 8.3 5.1 9.7 9.6-8.5 0-17.1 0-25.7 0z"/><path class="a" d="m262.9 512.1c1.7-5.7 7.2-9.8 13.1-9.8 5.9 0.1 11.3 4.2 12.9 9.9-8.7-0.1-17.3 0.1-26-0.1z"/><path class="a" d="m318 512.1c2-6.2 8.4-10.6 14.9-9.5 5.3 0.5 9.1 4.8 10.6 9.6-8.5 0-17 0.1-25.5-0.1z"/><path class="a" d="m436.5 503.7c7-2.6 15.7 1.4 17.9 8.7 3 8.1-3 17.9-11.6 19-7.2 1.2-14.5-4.4-15.5-11.6-1.5-6.7 2.8-13.8 9.2-16.1z"/><path class="a" d="m626.5 503.7c6.9-2.4 15.1 1.3 17.6 8.2 3.6 8.2-2.6 18.2-11.2 19.5-7.2 1.2-14.4-4.3-15.7-11.3-1.6-6.8 2.7-14.3 9.3-16.4z"/><path class="a" d="m702.6 503.7c7.2-2.5 15.9 2 17.9 9.4 2.7 7.9-3.3 17.3-11.6 18.2-8 1.3-15.9-5.4-16.2-13.4-0.4-6.2 3.9-12.3 9.9-14.2z"/><path class="a" d="m452.6 578.7c4-1.9 9.9-0.4 11.6 4.1 1.3 3.7 1.3 7.9 0.4 11.7-1.6 5.4-8.9 7.6-13.3 4.3-3.9-2.9-4.3-8.3-3.7-12.7 0.3-3.1 2-6.1 4.9-7.4z"/><path class="a" d="m561.7 578.2c4 0 11.5-1.1 11.6 4.8-0.6 5.7-7.6 4.2-11.7 4.4q0.1-4.6 0.1-9.2z"/><path class="a" d="m417 592.5c1.4-3.9 2.6-7.9 4.2-11.7 1.4 4 2.9 7.9 4.5 11.8q-4.4-0.1-8.7-0.1z"/><path class="a" d="m290.4 586.6c3.1-1.5 6.8 1.2 6.9 4.5 0.4 3.2 0.5 7.5-2.8 9.3-2.8 1.6-6.5-0.4-7.1-3.4-0.9-3.6-0.9-8.7 3-10.4z"/><path class="a" d="m315 591.2c0.3-2.6 2-5.6 5.1-5.1 2.9-0.1 4.4 2.9 4.3 5.5q-4.7-0.1-9.4-0.4z"/><path class="a" d="m261.4 587.3c3.5-2.5 8.7 0.5 8.8 4.7 0.8 4-1.5 9.4-6.2 8.9-6.2-0.8-7.1-10.2-2.6-13.6z"/><path class="a" d="m499.4 868.6c4.6-2.6 11.6-0.5 13 4.9 1.1 4.8 1.3 10.7-2.5 14.4-3.1 3.2-8.7 3.1-11.9 0.1-3-2.8-3.5-7.2-3.3-11.1 0.2-3.3 1.7-6.7 4.7-8.3z"/><path class="a" d="m595.6 867.9c3.3 0.1 6.7-0.4 9.8 0.6 3.4 1.4 3.3 6.5 0.1 8-3.2 1.3-6.6 0.5-9.9 0.7q0-4.7 0-9.3z"/><path class="a" d="m467.6 870.2c1.7 4.1 3.1 8.3 4.8 12.4-3.1-0.1-6.2-0.1-9.2-0.1 1.7-4 3-8.1 4.4-12.3z"/><path class="a" d="m344.1 883.1c2.4-3.8 4.9-7.5 7.6-11.1 0 3.7-0.1 7.4-0.1 11.1q-3.8 0-7.5 0z"/><path class="a" d="m795.7 1045.2c7.1 0.1 14.3 0 21.4 0.1 3.9 0 8 1 10.6 4 3.1 3.7 3.4 9.3 1.3 13.6-1.8 3.3-5.3 5.3-8.8 6.1 6 4.9 9.2 12.1 13.3 18.4-3.4 0.2-6.8 0.2-10.2 0.1-3.8-4.9-6.4-10.6-10.4-15.4-2.2-2.4-5.6-2.1-8.5-2 0 5.8 0 11.6 0 17.5q-4.4-0.1-8.7-0.1 0-21.2 0-42.3zm8.6 7.1q0.1 5.4 0.2 10.8c4.5-0.1 9 0.6 13.5-0.4 4.6-1.1 4.8-9.1 0-10-4.5-0.7-9.1-0.3-13.7-0.4z"/><path class="a" d="m90.7 1049.7c7.4 0 14.8 0 22.3 0.1 4.7 0.1 9.8 3.1 10.8 8.1 1.3 4.4-0.9 9.1-4.6 11.6 6.8 2.5 8.7 11.6 4.7 17.4-2.3 3.6-6.8 4.8-10.8 4.8-7.5 0.1-14.9 0-22.3 0.1-0.2-14 0-28.1-0.1-42.1zm8.7 7.1q0 4.8 0 9.7c4.5-0.3 9.1 0.4 13.6-0.4 3.8-1.5 3.9-7.8-0.1-8.9-4.4-0.8-9-0.2-13.5-0.4zm-0.1 16.7q0.1 5.6 0.1 11.3c4.7-0.3 9.5 0.3 14.2-0.3 4.9-1 5.2-9 0.4-10.3-4.8-1.4-9.8-0.4-14.7-0.7z"/><path class="b" d="m255 35.1c3.4-1.7 7.3-2.4 11.1-2.4q194.4 0 388.9 0c7.5 0 14.8 4.3 18.4 10.9 2 3.8 2.7 8.2 2.7 12.4 0 26.2 0 52.3 0 78.5l0.1 0.9c-0.7 19.5-0.2 39.1-0.3 58.6 0.6 9.4-0.5 18.8 0.1 28.2 0.2 37.2 0.2 74.4 0 111.5-0.5 9.8 0.3 19.5 0.1 29.3 0 7-0.9 14-0.4 21-5.4-4.8-12.8-5.9-19.6-7.3-10.6-2-21.3-0.6-32-1.2-4.2-0.3-7.6-3.7-8.9-7.6-1.4-5.4 0.8-11.6-2.4-16.6-2.2-3.8-6.4-6-10.8-6q-11-0.1-22.1 0.1c-5.2-0.1-10.5 3-12.5 8-1.9 4.6-0.5 9.7-1.5 14.5-1.2 4.8-6 7.9-10.8 7.7-63.4 0-126.8 0-190.2 0.1-4.8 0.4-9.7-2.7-11-7.5-1-4.6 0.2-9.5-1.2-14.1-1.6-5-6.5-8.6-11.7-8.7-6.7-0.2-13.4 0-20.1-0.1-4.7-0.2-9.8 0.8-12.9 4.6-4 4.4-3 10.7-3.4 16.2-0.2 4.9-4.6 9.2-9.6 9.4-10.3 0.5-20.8-0.7-31.1 1.3-6.7 1.3-13.8 2.5-19.4 6.7-0.6-7.8-0.9-15.6-0.8-23.4-0.1-8.6 1.1-17.1 0.2-25.6-0.4-37-0.1-74-0.1-111-0.1-29.3 0.2-58.7-0.1-88.1 0-0.2 0-0.7 0-0.9 0-26.9 0.1-53.7 0-80.5 0.1-7.6 4.4-15.4 11.3-18.9zm96.2 218.1c-5.1 1-8.9 5.7-9.3 10.8-0.6 5.5-0.5 12.2 4.2 16 2.6 2.5 6.5 2.5 10 2.5 13.9-0.1 27.9 0 41.9 0 5.6 0.2 10.7-4.9 10.5-10.6 0.1-5.4 1.1-12-3.5-15.9-4.4-4.7-11.3-3-17-3.3-12.3 0.4-24.6-0.6-36.8 0.5zm168 0c-5.1 1.4-8.9 6.6-8.6 11.8 0 4.4-0.7 9.4 2.3 13.1 2.2 3.3 6.2 4.6 10.1 4.4 14.3-0.1 28.6 0.1 42.9-0.1 5.8 0.3 11.5-4.5 11.5-10.4 0.1-3.9 0.4-8-0.7-11.8-1.7-4.7-6.8-7.4-11.7-7.4-12.3-0.2-24.7 0-37-0.1-3 0-6-0.2-8.8 0.5zm-137.4 53.8c0.1 3.3 3 5.9 6.2 6 10.8 1.1 21.6 2.4 32.4 3.7 0.1 4.4 0.1 8.8 0.2 13.2-11 1.6-22.1 2.4-33.2 3.8-3.1 0.2-5.7 3.2-5.4 6.3 0 3.5 3.6 6.1 6.9 5.8 14.7 0.1 29.4-0.1 44.1 0.1 1.9-0.1 3.8 0 5.7-0.3 2.8-0.9 4.6-3.8 4.5-6.6 0.1-9.3 0-18.6 0.1-27.9-0.1-2.9 0.2-6.2-2-8.4-1.9-2-4.8-1.9-7.4-1.9-14.9 0.1-29.9 0.1-44.9 0-3.6-0.2-7 2.6-7.2 6.2zm97.5 1c-0.1 10 0 20-0.1 30-0.4 3.8 2.6 8.1 6.7 7.8 15.3 0.1 30.7 0 46.1 0 1.9-0.1 4 0.1 5.7-1.1 3.2-1.9 3.6-6.9 1-9.4-1.7-1.8-4.3-1.8-6.6-2.2-10-0.9-19.9-2.1-29.9-3.1 0.1-4.4 0.1-8.8 0-13.2 10.3-1.3 20.7-2.6 31-3.5 1.8-0.3 3.9-0.4 5.4-1.7 2.7-2.3 2.5-6.9-0.1-9.1-2-2-5-1.7-7.5-1.7-15 0.2-30 0-45 0.1-3.9-0.3-6.9 3.4-6.7 7.1z"/><path class="b" d="m489.2 969.6c6.2 0 12.3 0.1 18.4 0 0 5.8 0 11.5 0 17.2 8.5 1.7 14.7 9.6 14.6 18.1 0.5 24.4-0.2 48.8 0.2 73.1 0 4.3 0 8.7-0.2 13.1-0.3 6.8-4.3 13.8-10.9 16.3-3.9 1.5-8.2 1.2-12.3 1.3-28-0.1-56 0-84-0.2-9.3 0.2-16.4-8.5-16.9-17.4-1-11.7 0.1-23.4-0.2-35.1 0.1-17-0.5-34 0.2-51 0.2-7.5 4.8-15.3 12.4-17.3 6.5-2 13.4-0.9 20.1-0.9 2.8 0.1 5.5 0.1 8.4 0.1 14 0.2 28 0.1 42 0q4.1 0 8.2 0 0.1-8.7 0-17.3zm-35.6 29.3c-21.7 2.7-40.5 21.9-41.5 44-1.2 14.9 4.8 30.2 16.1 40 17.5 16.3 47.9 16.2 64.9-0.8 10.1-9.1 15.6-22.7 15.4-36.1-0.6-12.3-5.2-24.8-14-33.5-10.6-10.3-26.1-15.9-40.9-13.6z"/><path class="b" d="m602.8 988.1c0.8-4.8 5.5-8.2 10.2-8 42 0 84 0 126 0 4.5-0.3 8.8 2.6 10.4 6.8-0.2 10.7 0.7 21.4 0.5 32.1 0.1 22.3-0.2 44.6 0 66.9-0.1 4.8 1.1 10.4-2.7 14.2-3 3.6-7.9 3.5-12.2 3.4-40.3-0.1-80.6 0-120.9-0.1-3.8 0.2-7.7-1.4-9.7-4.7-2.5-3.8-1.6-8.6-1.8-12.9 0.1-28.3 0.1-56.7 0-85 0.1-4.3-0.3-8.5 0.2-12.7zm68.7 15.6c-8.8 1.1-16.8 5.6-22.9 11.9-9.5 10.2-12.7 25.7-8.1 38.8 4.7 14.8 19.2 25.4 34.6 26.1 14.1 0.8 28.5-6.6 35.4-19.1 5.5-9.1 7-20.5 3.8-30.6-2.5-7.6-7-14.7-13.4-19.6-8.3-6.3-19.1-9.1-29.4-7.5z"/><path class="b" d="m169.8 989.8c1.2-4.4 5.8-7.3 10.2-7.1q63 0 125.9 0c5.3-0.4 10.4 3.9 10.8 9.2 0.3 3.8 0.1 7.6 0.1 11.5-0.1 31.9 0.5 63.8-0.5 95.7-1.6 4.2-5.8 7.2-10.3 6.8-42 0-84 0-126-0.1-5.2 0.6-10-3.8-10.5-8.8-0.3-2.8-0.2-5.6-0.2-8.4 0.1-28.4 0-56.8 0.1-85.2 0.1-4.5-0.5-9.1 0.4-13.6zm64.4 16.6c-12.7 2.4-23.7 11.5-28.2 23.6-7.8 18.5 1.9 41.9 20.4 49.5 17.7 8.4 41.1 0.3 49.9-17.2 8.4-15.6 4.6-37.1-9.6-48-9-7.3-21.2-10.2-32.5-7.9z"/><path class="c" d="m72.2 148.2c14-9.4 31-13.9 47.8-13.7 41.3 0 82.5-0.1 123.7 0 0 0.2 0 0.7 0 0.9-6.2 2.4-11.7 6.6-14.8 12.6-2.3 4.3-3.1 9.2-3.1 14 0 11.7 0 23.3 0 34.9-0.1 6.8 1.9 13.8 6.4 19 3 3.7 7.3 5.8 11.5 7.6 0.1 37-0.2 74 0.2 111-9.7 3.5-16.3 13.3-16.3 23.5q-0.1 20 0 40c0.1 9.7 6.2 19.4 15.5 22.8 6.6 2.3 14.2 1.9 20.5-1.2 6.8-3.6 11.7-10.7 12.6-18.4q0.4-2 0.9-3.9c4.7 0.1 9.5 0.3 14.3 0.3 0 10.1-0.2 20.3 0 30.4-0.1 3.2 2.4 6.4 5.7 6.5 5 0.3 9.9 0.1 14.9 0.2 2.3-0.2 5.2 0.2 6.8-1.9 1.9-2.1 1.6-5.2 1.7-7.8-0.3-9.1-0.1-18.3-0.1-27.4q4.8 0.1 9.7 0c0 10.2 0 20.3 0 30.5-0.2 2.9 1.8 6.3 5 6.3q9.4 0.4 18.8 0.1c3.3 0 5.2-3.5 5.1-6.5 0.2-10.1-0.3-20.2-0.1-30.4q4.9 0 9.8 0c0.1 12.3 0 24.6 0 36.9q7.3 0.1 14.6 0c0-12.3 0.2-24.6 0.1-36.9q4.6 0 9.3 0c-0.1 12.3 0 24.5 0.1 36.8 4.8 0 9.7 0 14.6 0.1-0.2-12.3-0.1-24.6-0.1-36.9 3.1 0 6.3 0 9.4 0 0.2 12.3 0.1 24.6 0 36.9q7.3 0.1 14.6 0c-0.1-12.3 0.2-24.6 0-36.9 3.1 0 6.3-0.1 9.5 0-0.4 12.2-0.1 24.5-0.1 36.8 4.9 0.2 9.7 0.2 14.7 0.1-0.3-12.3-0.1-24.6-0.2-36.9q4.8 0.1 9.5 0 0.2 18.5 0 36.9 7.3 0.1 14.6 0c0-12.3 0.1-24.6-0.1-36.9q4.6-0.2 9.2 0c0.2 12.3-0.3 24.6 0.3 36.9 4.7-0.1 9.4 0.3 14.1-0.1 0.9-1.2 0.3-3 0.5-4.4-0.2-10.8-0.1-21.6 0-32.4q4.6 0.1 9.3 0c0 12.3 0.2 24.6-0.1 36.8 4.9 0.2 9.9 0.1 14.8 0-0.1-12.3 0-24.5 0-36.8q4.4 0 8.9 0c0.5 12.3-0.2 24.6 0.4 36.9 4.9 0 9.7 0.1 14.6 0.1-0.1-12.4 0-24.7-0.1-37q4.9-0.2 9.8-0.1c-0.1 9.2 0 18.3-0.1 27.5 0.1 2.8-0.3 6.1 2 8.2 1.9 1.8 4.7 1.3 7.2 1.4 4.9-0.1 9.9 0.2 14.9-0.2 2.1 0 3.6-1.6 4.5-3.3 1.3-11.1 0.2-22.2 0.6-33.3q4.5-0.1 9-0.1c0.5 10.9-0.3 21.7 0.5 32.5 0.8 2.4 3 4.4 5.6 4.3 6 0.1 12 0.2 18 0 2.5 0.1 4.6-2 5.2-4.4 0.9-10.7 0-21.6 0.5-32.5 4.6 0 9.3-0.1 14 0q0.4 2.3 0.8 4.5c1.5 7.5 6.9 14.3 14 17.2 6.9 2.8 15.2 2.6 21.8-0.9 7.3-4 12.1-12 12.5-20.3 0.6-11.4-0.2-22.7 0.1-34.1 0.3-7.3-0.4-15.1-4.8-21.2-2.7-4.1-6.9-6.8-11.2-9 0.2-37.2 0.2-74.4 0-111.6 9-3.1 15.8-11.2 16.6-20.8 0.9-14.1 0.3-28.3 0.2-42.4 0-10.4-7.1-19.9-16.7-23.6v-0.9c41.6 0 83.3 0 124.9-0.1 17.9 0 35.8 5.6 50.2 16.4 21.4 15.3 34.4 41 35.3 67.2 0.1 2.4 0.1 4.9 0.2 7.4-19.9-0.1-39.8-0.1-59.7-0.1-9.7 0-19.4 3.6-26.6 10.1-8.9 7.7-14.2 19.7-13.3 31.6 0.7 15.7 12.4 30.2 27.4 34.6 5 1.6 10.3 1.9 15.5 1.8 18.9-0.1 37.8 0.1 56.7-0.1-0.1 14.1-0.1 28.1 0 42.2-19.6-0.1-39.2 0-58.7 0-8.8-0.1-17.7 2.4-24.8 7.7-10.7 7.5-17.1 20.7-16.1 33.8 0.8 19.1 17.7 36 36.9 36.4 20.9 0.1 41.8 0.1 62.7 0-0.2 14-0.1 28-0.1 42.1-20.2-0.2-40.4-0.1-60.6 0-16.6-0.2-32.4 11.5-37.3 27.3-3.2 10.4-2 22.3 3.8 31.6 5.4 8.9 14.4 15.6 24.6 17.8 5.9 1.4 12 1.1 18 1.1 17.2-0.1 34.4 0.2 51.6-0.1q-0.1 21.1 0 42.2c-20.2 0-40.5 0-60.7 0-12 0.1-23.8 6-31.2 15.6-9.1 11.8-10.4 29.1-2.9 42.2 5 8.7 13.4 15.7 23.2 18.5 4.8 1.4 9.9 1.7 14.9 1.6 18.9-0.1 37.8 0.1 56.7-0.1-0.1 14-0.1 28 0 42-18.6-0.6-37.1 0-55.7-0.1-6.7-0.1-13.6 0.3-19.9 3-10.3 4.3-18.7 13-22.2 23.6-3.5 10-2.5 21.5 2.7 30.7 5.3 10 15.3 17.4 26.4 19.5 5.9 1.3 12 0.8 18 0.9 16.9-0.1 33.8 0.1 50.7-0.1q-0.1 21.1 0 42.2c-16.2-0.2-32.4 0-48.7 0-9.3-0.1-19-0.5-27.7 3.5-9.1 4.2-17.1 11.7-20.7 21.2-3.1 8.1-3.6 17.3-1 25.5 3.5 11.9 13 21.8 24.7 25.7 7.3 2.6 15.1 2.2 22.7 2.2 16.9-0.4 33.8 0.2 50.7-0.2 0 14-0.1 28 0 42-16.6-0.2-33.2 0-49.7-0.1-7.4 0-15-0.4-22.2 1.8-8.7 2.6-16.3 8.5-21.5 15.9-5.7 8.2-7.6 18.8-5.9 28.6 3.1 16.9 18.3 30.7 35.5 31.5 21.3 0.2 42.6 0.2 63.9 0-0.3 19.5-6.3 38.9-17.6 54.8-11 15.8-26.9 28.3-45.1 34.8-11.2 4-23.2 5.8-35.1 5.6-219.4 0-438.7 0-658 0-16.5 0.2-33.2-3-47.7-11-23.4-12.5-41.3-35-47.6-60.7-1.6-6.4-2.4-12.9-2.9-19.4 21.1-0.2 42.3 0.1 63.4-0.2 11.9-0.7 23.3-7.4 29.7-17.5 5.9-9 7.8-20.5 5.1-30.9-3.8-16.3-19.2-29.1-36-29.4-20.7-0.2-41.4 0.1-62.1-0.1h-0.2c0-13.9 0.3-27.9-0.2-41.8 14.5-0.2 29 0.1 43.5 0 6.8-0.4 13.7 0.4 20.5-0.2 9.9-0.9 19.4-5.5 26-13 7.9-9 11.2-21.7 9-33.4-3.1-17.2-19-31.1-36.5-31.4-20.8-0.1-41.5-0.2-62.3 0 0-14.1 0-28.2-0.1-42.3 16.2-0.2 32.3-0.1 48.4-0.1 6.1-0.1 12.2 0.3 18.2-0.4 11.8-1.5 22.5-9.1 28.1-19.6 5-8.7 6.1-19.4 3.6-29.1-1.9-7.1-6.2-13.5-11.5-18.6-7.3-6.8-17.4-10.1-27.4-10-19.8 0.1-39.5 0-59.3 0.1 0.1-14.2-0.1-28.4 0-42.5 16.8 0.2 33.5 0 50.2 0.1 5.5-0.1 10.9 0.2 16.3-0.4 10.9-1.2 20.9-7.8 26.7-17 6.3-9.3 7.8-21.3 4.9-32-4.4-16.1-20-28.5-36.8-28.3-20.4 0-40.9-0.2-61.3 0.1q0-21.1-0.1-42.2h0.3c20.7 0 41.4 0 62.1-0.1 17-0.3 32.5-13.4 36.3-29.8 2.6-11.7-0.1-24.7-7.9-34-7-8.8-18.2-14-29.4-14.1-20.4-0.1-40.8 0-61.1 0h-0.3c0.2-14.1 0.1-28.2 0.1-42.3 19.4 0.1 38.9 0 58.3 0.1 3.1 0 6.2-0.1 9.3-0.5 10.4-1.6 19.9-8.1 25.6-16.8 6.3-9.2 7.8-21.3 5-32-4.2-15.8-19.3-28.2-35.8-28.5-20.8-0.1-41.6-0.2-62.4 0 0-14 0-28.1 0-42.1 20.1 0 40.2 0 60.3 0 13.2 0.1 26.2-7 33.3-18.2 8.3-12.9 8-30.9-1.1-43.4-7-10.1-18.9-16.5-31.2-16.5-20.4-0.1-40.9 0-61.3 0-0.2-11.5 0.4-23.3 4.2-34.3 5.9-18.8 18.7-35.2 35.2-45.8zm646.1-6.8q0.1 1.9 0.2 3.8-5-0.1-10 0c0.1 6.5 0 13 0 19.5q5 0.1 10 0 0 1.9 0 3.8c11.8 0 23.6 0 35.4 0.1q-0.1-1.9-0.1-3.8 5 0 10-0.1 0-9.8 0-19.6-5 0-10.1 0.1 0.1-1.9 0.2-3.8c-11.8 0-23.7 0-35.6 0zm-12.8 53.3c0.1 15.3 0 30.6 0.1 45.9q4.6 0 9.3 0c-0.1-6.7 0.1-13.4-0.1-20.2 6.2 0.1 12.3 0 18.5 0.1-0.1 6.7-0.1 13.4-0.1 20.1q4.7 0 9.3 0c0-15.3-0.1-30.6 0-45.9q-4.7 0-9.3 0c0 6 0 12 0 18-6.1 0-12.2 0-18.3 0.1-0.1-6-0.1-12-0.1-18.1q-4.6 0-9.3 0zm53.8 1.5c-4.7 2.2-7.7 6.8-9.1 11.7 3.1 0.7 6.3 1.4 9.4 2.2 0.6-1.8 1.1-3.7 2.5-5.1 3.5-4.1 10.5-3.9 14.3-0.3 2.7 2.7 3.6 6.6 4 10.3 0.2 4.6-0.2 9.6-2.6 13.7-2.6 4.6-9.3 5.7-13.8 3.4-2.8-1.4-3.7-4.6-4.7-7.3-3.1 0.8-6.2 1.8-9.2 2.9 1.1 2.5 2.3 5.1 4.1 7.3 5.8 6.9 16.5 8 24.4 4.4 6.5-3.2 10.5-10.2 11.2-17.3 0.8-7.7-0.1-16.3-5.7-22.1-6.2-6.6-16.8-7.6-24.8-3.8zm-611.6 262.7c-1.7 5.2-1.2 10.7-1.2 16.1 0 44-0.1 88 0 132-0.1 5.5 4.7 10 10.1 9.8 0.1 2.6 0.1 5.2 0.1 7.9q-5 0-10.1-0.1c-0.2 13.9-0.2 27.9 0 41.9q5 0 10 0 0 4 0 8c-2.6 0.3-5.4 0.5-7.3 2.6-2.9 2.8-2.7 7.2-2.8 10.9-0.1 31.6 0 63.3 0 95 0.1 3.5-0.4 7.6 2.4 10.3 1.9 2.2 4.9 2.6 7.6 2.8q0 4.1 0 8.2-5 0-10 0 0 15.1-0.1 30.3 5.1 0.1 10.1 0c0.4 28.6-0.2 57.3 0.4 85.9q-5.2-0.2-10.3-0.2c0.1 7.2-0.4 14.4 0.2 21.6 0.5 6.8 6.5 12.4 13.1 13.4 27 0.5 54 0 81 0.2 0.1-7-0.1-14-0.2-21 4-0.2 7.9-0.1 11.9-0.1 0 7 0 13.9 0.1 20.9q17.2 0 34.5 0.1c0-7-0.2-14.1 0-21.1q3.8 0 7.7 0c0 6.5-0.1 13.1 0 19.6q3.4 0 6.9 0c0-6.6-0.2-13.1 0.1-19.7q3.4 0.2 6.8 0.2c-0.1 7 0.1 14-0.1 21 12 0.1 24 0.2 36 0.1-0.2-7 0-14.1-0.1-21.1q5-0.1 9.9-0.2c0.2 5.9 0 11.8 0 17.7 28.9 0 57.8-0.1 86.7-0.1 0.2-5.8 0-11.6 0.1-17.3q4.4 0 8.8-0.1c0 7.1-0.3 14.2 0.1 21.2 13.9-0.1 27.9-0.1 41.8 0 0.1-7.1-0.2-14.2 0.1-21.3q4.4 0.1 8.8 0.1c0 6 0 12 0.1 18.1q5.7 0 11.5 0c0-6.1-0.1-12.2-0.1-18.3q4.6 0 9.1 0c0.1 6.2 0 12.5 0 18.7q38.4 0 76.8 0c0-6.2-0.1-12.4 0-18.5q4.7-0.1 9.4 0.1c-0.2 6-0.1 12-0.1 18.1 21.4-0.1 42.9-0.1 64.3-0.1 0-6 0.1-12 0-18q4.6-0.2 9.1-0.1c0.1 5.9 0 11.8 0 17.7 6.7-0.1 13.3 0 20 0 0-5.9 0-11.8 0-17.7q5.6 0 11.1 0.1c0.2 6.5 0.3 13.1 0.1 19.8 10.2 0 20.3-0.2 30.4 0 0.3-6.6-0.1-13.2 0-19.8q5.2-0.1 10.4 0c-0.1 5.5-0.6 12.6 4.8 15.9 6.5 2.9 13.5-3.6 14-10.1 0.3-7.6 0.1-15.2 0-22.8q-3.7 0.2-7.3 0.1c0.6-28.1 0.1-56.2 0.2-84.4 3.2-0.8 6.9-2.6 7.1-6.3 0.2-10.9 0.1-21.9 0-32.8-0.1-3.7-4.1-5.1-7.1-5.7q-0.1-3.8-0.1-7.6c3.8-1.3 7.4-4.5 7.3-8.8 0.1-23.6 0.1-47.4 0-71 0.2-4.4-3.3-7.6-7.2-8.7q-0.1-4.4-0.2-8.8 3.8 0 7.5 0c-0.3-10.5 0-21 0-31.5q-3.6-0.1-7.2-0.1c-0.3-16.1 0-32.2-0.1-48.3q3.6 0 7.3 0.1c0-12-0.2-24.1 0-36.2q-3.7 0-7.3 0-0.1-4.2-0.2-8.4c2-0.8 4.2-1.4 5.6-3.2 1.7-1.9 1.9-4.5 1.9-6.9 0-27.4 0-54.7 0-82 0.1-6.6-1.9-13.5-6.5-18.4-3.7-3.8-9.1-5.5-14.3-5.8-194.3 0-388.6 0.1-582.9 0-9.3 0.5-17.7 7.3-20.5 16.1zm291.5 514c-0.5 4.7-0.2 9.3-0.1 14-2.9 0-5.6 0-8.4-0.1 0.2-5.7-0.1-11.4 0.1-17.1-6.5 0-13-0.1-19.5 0.1 0 5.5 0.2 11 0.1 16.5-0.2 0.4-0.6 1.1-0.8 1.4-7.6 2-12.2 9.8-12.4 17.3-4.3-0.6-10.7 0.6-10.6 6.1 0 24.9-0.3 49.8 0.1 74.8 0.3 5.2 6.4 5.9 10.5 5.2 0.5 8.8 7.6 17.6 16.9 17.4 28 0.2 56 0.1 84 0.2 4.1-0.1 8.4 0.2 12.3-1.3 6.5-2.5 10.6-9.5 10.9-16.3 4 0.5 10 0 10.6-5.1 0.2-24.3 0-48.7 0.1-73 0.1-2.4-0.3-5.1-2.3-6.7-2.3-1.9-5.6-1.3-8.4-1.4 0-8.5-6.1-16.4-14.6-18.1 0-5.7 0-11.5 0-17.2-6.1 0.1-12.2 0-18.4 0q0.1 8.6 0 17.3-4.1 0-8.2 0c0.1-5 0.3-10-0.4-14.9-0.5-2.9-3.8-4.2-6.5-4.1q-14.6-0.2-29.1 0c-2.8 0-5.8 2.1-5.9 5zm163.7 15.2c-0.5 4.2-0.1 8.4-0.2 12.7-6.2-0.2-12.5-0.3-18.7-0.1-4.3 0-7.7 4.1-7.5 8.3 0 22.7 0 45.3 0 68-0.3 4.4 3 9 7.6 9 6.2 0.3 12.4 0.3 18.6-0.2 0.1 4.3-0.7 9.1 1.7 12.9 2.1 3.3 6 4.9 9.8 4.7 40.3 0.1 80.6 0 120.9 0.1 4.3 0.1 9.2 0.2 12.2-3.4 3.8-3.8 2.6-9.4 2.7-14.2 5.1-0.1 10.1 0 15.2 0 4.2 0.3 7.9-3.7 7.7-7.8 0.1-23 0-46.1 0-69.1 0.3-3.8-2.3-7.8-6.3-8.2-5.5-0.5-11 0-16.5-0.2 0-4.5 0.5-9.2-0.6-13.7-1.6-4.2-5.9-7.1-10.4-6.8-42 0-84 0-126 0-4.8-0.2-9.4 3.2-10.2 8zm-433 1.7c-0.9 4.5-0.3 9.1-0.4 13.6-5.2 0-10.3-0.3-15.5-0.1-3.9 0.1-7.5 3.7-7.4 7.6 0 23.1-0.3 46.1 0 69.1-0.2 4.2 3.1 8.4 7.4 8.5 5.2 0.2 10.3 0 15.4 0.1 0 2.8-0.1 5.6 0.2 8.4 0.5 5 5.3 9.4 10.5 8.8 42 0.1 84 0.1 126 0.1 4.5 0.4 8.7-2.7 10.3-6.9 0.9-3.4 0.7-6.9 0.6-10.4 6.6-0.1 13.1 0.3 19.7-0.2 4-0.4 6.7-4.5 6.5-8.3 0.1-22.7 0-45.4 0-68.1 0.3-4.1-2.7-8.5-7-8.6-6.4-0.2-12.9-0.1-19.3 0 0-3.9 0.2-7.7-0.1-11.6-0.4-5.2-5.5-9.5-10.8-9.1q-62.9 0-125.9 0c-4.4-0.2-9 2.7-10.2 7.1zm625.9 55.4q0 21.1 0 42.3 4.3 0 8.7 0.1c0-5.9 0-11.7 0-17.5 2.9-0.1 6.3-0.4 8.5 2 4 4.8 6.6 10.5 10.4 15.4 3.4 0.1 6.8 0.1 10.2-0.1-4.1-6.3-7.3-13.5-13.3-18.4 3.5-0.8 7-2.8 8.7-6.1 2.2-4.3 1.9-9.9-1.2-13.6-2.6-3-6.8-4-10.6-4-7.1-0.1-14.3 0-21.4-0.1zm-705.1 4.5c0.2 14 0 28.1 0.2 42.1 7.4-0.1 14.8 0 22.3-0.1 4 0 8.5-1.2 10.8-4.8 4-5.8 2.1-14.9-4.7-17.4 3.7-2.5 5.9-7.2 4.6-11.6-1-5-6.1-8-10.9-8.1-7.4-0.1-14.8-0.1-22.3-0.1z"/><path class="c" d="m667.3 482.4c4.2-2.5 10.1 1.8 8.6 6.5-0.9 4.6-7.3 5.6-10.3 2.4-2.6-2.5-1.5-7.4 1.7-8.9z"/><path class="c" d="m458.5 485.4c2.7-1.1 5.6-1.6 8.4-2 0 19.3-0.1 38.6 0 58-3.5-0.3-7.2-0.5-10.6-1.6q-0.5-1.7-0.7-3.5c-7.4 6.2-18.4 7.2-26.9 3-11.5-5.7-16.4-20.9-11-32.4 4.6-10.6 17.2-16.7 28.4-13.7 3.5 0.7 6.6 2.8 9.5 4.9 0-3.4-0.2-6.8 0.2-10.2-0.2-1.6 1.6-2 2.7-2.5zm-22 18.3c-6.4 2.3-10.7 9.4-9.2 16.1 1 7.2 8.3 12.8 15.5 11.6 8.6-1.1 14.6-10.9 11.6-19-2.2-7.3-10.9-11.3-17.9-8.7z"/><path class="c" d="m645.9 487c2.9-2.7 7.3-2.7 11-3.5 0 19.3 0 38.5 0.1 57.7-3.6-0.3-7.4 0.2-10.7-1.4q-0.6-1.8-0.8-3.7c-5.8 4.7-13.6 6.9-20.9 5.2-12.2-2.3-20.9-15-19.1-27.2 1.2-11.3 11.2-20.9 22.6-21.6 6.4-0.6 12.7 1.7 17.6 5.7-0.1-3.7-0.2-7.5 0.2-11.2zm-19.4 16.7c-6.6 2.1-10.9 9.6-9.3 16.4 1.3 7 8.5 12.5 15.7 11.3 8.6-1.3 14.8-11.3 11.2-19.5-2.5-6.9-10.7-10.6-17.6-8.2z"/><path class="c" d="m534.9 489.9c3.7-1.3 7.4-2.2 11.3-2.9q0 5.4-0.1 10.8 2.9 0 5.8 0 0 5.2-0.1 10.3-2.9 0-5.7 0c0 5-0.1 9.9 0 14.9 0.1 2.3 0.1 4.7 1.4 6.6 1.3 1.7 3.3 2.3 5 3.3q-0.2 4.5-0.8 9.1c-4.9-1.5-10.4-2.6-13.7-6.8-3.4-4.3-3.2-10-3.2-15.2 0.1-10 0-20 0.1-30z"/><path class="c" d="m207.9 502.9c1.8-4.8 6.3-8 11.1-9.3 8.6-2.4 18.3-1 25.6 4.2-1.5 2.6-3.2 5-4.9 7.5-5-2.5-10.5-5-16.1-3.6-2.5 0.5-5.2 2.5-4.8 5.4 0.3 2.2 2.6 3.1 4.5 3.7 6.4 2.1 13.7 2.4 19.1 6.8 5.6 4.6 5.3 14.1 0 18.9-4.2 3.7-10 5.1-15.4 5.3-7.7 0.2-16-1.8-21.7-7.2 2-2.4 3.9-4.7 5.7-7.2 5.7 3.9 12.9 6.8 19.9 4.5 2.7-0.7 4.7-4 2.9-6.6-2-2.8-5.7-3-8.8-3.8-4.7-0.9-9.6-2.2-13.5-5.1-4.2-2.9-5.3-8.9-3.6-13.5z"/><path class="c" d="m251.4 513.9c1.1-11 10.7-20.2 21.7-21.1 10.3-1.5 21.3 4.4 25.4 14.1 1.8 4.3 2.7 9.1 2.1 13.8l-0.5 0.4c-12.4 0.3-24.8-0.1-37.2 0.2 1.6 5.9 7.1 10.3 13.2 10.4 4.6 0.4 8.8-1.8 12.3-4.7 2.7 1.9 5.4 3.5 8.1 5.3-7 9.9-21.9 11.8-32.4 6.4-8.8-4.6-14.3-15-12.7-24.8zm11.5-1.8c8.7 0.2 17.3 0 26 0.1-1.7-5.6-7-9.8-12.9-9.9-5.9 0-11.4 4.2-13.1 9.8z"/><path class="c" d="m314 499.1c7.4-6.9 19-8.6 28-4.1 9.6 4.7 14.8 15.9 13.4 26.4-12.5-0.1-25-0.5-37.5 0 1.3 2.7 2.5 5.7 5 7.5 6 4.3 15 3.6 20.1-1.9 2.8 1.8 5.7 3.5 8.6 5.2-8.7 11.7-27.9 12.6-38.1 2.5-9.8-9.2-9.6-26.8 0.5-35.6zm4 13c8.5 0.2 17 0.1 25.5 0.1-1.5-4.8-5.3-9.1-10.6-9.6-6.5-1.1-12.9 3.3-14.9 9.5z"/><path class="c" d="m368.9 498.8c8.8-8.1 23.7-8.4 32.7-0.4 6.6 5.4 9.1 14.5 8.6 22.8-12.6 0-25.1 0-37.6 0 1.5 6.4 7.9 11 14.5 10.6 4 0.1 7.7-2 10.5-4.7 2.9 1.6 5.6 3.4 8.4 5.1-8.9 12.5-29.5 12.5-39.3 1-8.6-9.6-8-26.2 2.2-34.4zm3.7 13.4c8.5 0 17.1 0 25.7 0-1.5-4.5-5-8.5-9.7-9.6-6.8-1.7-14.1 2.9-16 9.6z"/><path class="c" d="m495.2 497c9.5-6.8 23-5.6 32.5 0.7-1.6 2.5-3.3 5.1-5 7.6-3.7-1.7-7.5-3.7-11.7-3.7-3.2-0.2-7.1 0.3-8.8 3.4-1.1 2.2 0.6 4.6 2.7 5.3 6.6 2.6 14.2 2.6 20 6.8 4.5 3.2 5.1 9.6 3.5 14.5-1.5 4.4-5.7 7.2-9.9 8.7-10.1 3.3-21.8 1.2-30.1-5.4q2.6-3.9 5.5-7.6c6 4.2 13.9 7.3 21 4.2 3.8-1.6 2.7-7.3-0.9-8.3-6.9-2.4-14.8-2.8-20.6-7.7-5.2-4.9-4.2-14.6 1.8-18.5z"/><path class="c" d="m699.4 493.6c11.4-3.5 25 1.7 30.3 12.6 4.1 8 3.4 18.2-2.1 25.4-6.7 9.3-20 12.5-30.5 8.4-10.2-3.9-17.2-15.1-15.4-25.9 1-9.7 8.6-17.8 17.7-20.5zm3.2 10.1c-6 1.8-10.3 8-9.9 14.2 0.3 8 8.2 14.7 16.2 13.4 8.3-0.9 14.3-10.3 11.6-18.2-2-7.4-10.7-11.9-17.9-9.4z"/><path class="c" d="m558.1 493.9c3.6 0 7.3 0 10.9 0.1 0.1 9 0 18 0.1 27-0.1 3.4 1.4 6.8 4.2 8.8 3.9 2.7 9.9 2.1 12.9-1.6 2-2.2 2.4-5.3 2.4-8.2 0-8.7-0.2-17.4-0.1-26.1 3.7 0 7.4-0.1 11.2 0.1-0.1 9 0 18 0 27-0.1 6.1-2.5 12.4-7.2 16.4-7.2 5.7-18.1 5.8-25.6 0.8-6.1-3.8-9-11.1-8.9-18.1-0.1-8.7 0.1-17.4 0.1-26.2z"/><path class="c" d="m664.8 498.8c3.6-0.7 7.2-0.8 10.9-0.8 0 14.3 0.2 28.5 0 42.8-3.7 0.1-7.4 0-11.1 0-0.1-14-0.2-28 0.2-42z"/><path class="c" d="m297.4 572.5q3.4-0.1 6.7 0.1c-0.1 11.1 0.1 22.1-0.1 33.2q-2.9 0-5.8 0c-0.1-0.6-0.2-1.9-0.3-2.6-2 1.6-4.3 3.1-6.9 3.1-4.5 0.3-8.9-2.9-10.1-7.3-1.4-5-1.2-11.4 2.8-15.3 3.8-3.6 9.9-3.2 13.7 0.2q0-5.7 0-11.4zm-7 14.1c-3.9 1.7-3.9 6.8-3 10.4 0.6 3 4.3 5 7.1 3.4 3.3-1.8 3.2-6.1 2.8-9.3-0.1-3.3-3.8-6-6.9-4.5z"/><path class="c" d="m335.7 572.5q3.3-0.2 6.6 0c0 11.1 0.1 22.2 0 33.3q-3.3 0-6.5 0c-0.1-11.1 0.1-22.2-0.1-33.3z"/><path class="c" d="m361.8 572.6q3.9-0.1 7.8-0.2c2.3 3.5 4.2 7.2 6.5 10.6 2.4-3.4 4.4-7.2 6.8-10.6 2.6 0 5.3 0 8 0.1-3.4 5.5-7 10.7-10.5 16.1q5.9 8.5 11.5 17.1c-3.2-0.5-8 1.8-9.8-1.9-2-3-3.8-6.1-5.8-9.2-2.9 3.4-4.9 7.5-7.5 11.2q-4.1 0.1-8.2 0c3.2-6.1 7.6-11.4 11.3-17.2-3.3-5.4-6.8-10.6-10.1-16z"/><path class="c" d="m394.8 572.6q3.4-0.2 6.9-0.2c0.2 11.1 0 22.2 0 33.4q-3.4 0-6.8 0c-0.2-11.1 0-22.2-0.1-33.2z"/><path class="c" d="m451.4 572.5c4.5-1.1 9.4-0.7 13.4 1.6 4.5 2.7 7.2 7.8 7.5 12.9 0.4 5.3-0.5 11.2-4.3 15.1-7.5 7.2-22.5 5.2-26.5-4.9-3.4-8.9-0.7-22.3 10-24.7zm1.1 6.2c-3 1.3-4.7 4.3-5 7.4-0.6 4.4-0.2 9.8 3.7 12.7 4.4 3.3 11.7 1.1 13.3-4.3 0.9-3.8 1-8-0.4-11.7-1.7-4.5-7.6-6-11.6-4.1z"/><path class="c" d="m493.3 572.5c8.2-0.1 16.4 0 24.5-0.1q0.1 2.9 0.2 5.8c-6 0-11.9-0.1-17.9-0.1q0 3.6 0 7.3c5.5 0 11.1 0 16.6 0.1q0 2.8 0 5.6-8.3 0.2-16.7 0.1 0.1 4.4 0.1 8.7c6.2 0.1 12.4-0.1 18.6 0.3q0.1 2.8 0.1 5.6c-8.5-0.1-17 0-25.5 0 0-11.1-0.1-22.2 0-33.3z"/><path class="c" d="m527.8 573.8c4.7-2.5 10.6-2.5 15.3-0.3 3.4 1.6 4.9 5.2 5.5 8.7q-3.4 0.2-6.7 0.2c-0.8-5-7.4-6.1-11-3.4-1.6 1.1-0.9 3.5 0.7 4.3 4.3 2 9.3 2 13.4 4.5 5.9 3.5 5.6 13.6-0.4 16.8-5.1 2.6-11.4 2.3-16.5 0-3.7-1.8-5.4-6-5.9-9.8q3.2-0.3 6.5-0.4c0.8 2.1 1.8 4.6 4.2 5.5 3 1 7.1 0.8 9.1-2 1.7-2.3-0.8-4.8-3-5.3-4.5-1.4-9.8-1.8-13.3-5.4-3.8-3.7-2.6-10.9 2.1-13.4z"/><path class="c" d="m584.3 581.4c0.4-9.8 15.2-12.6 19.6-4.4 2.5 3.8 0.9 8.7-2.8 11 4.6 1.8 6.7 7.5 4.6 12-3.2 7.5-15 8.5-19.8 2-1.2-1.5-1.7-3.5-2.3-5.3q3.1-0.6 6.3-1c0.9 2.7 2.9 5.8 6.2 5.1 3.9-0.9 5-6.5 2.1-9.1-1.4-1.7-3.8-1-5.7-0.7q0.2-2.5 0.4-4.9c3.6 0 7.2-4.3 4.4-7.4-2.9-2.7-6.7 0.3-7 3.5q-3-0.4-6-0.8z"/><path class="c" d="m658.5 574.6c4.8-3.3 11.6-3.6 16.7-0.9 3.1 1.8 4.8 5.1 6 8.4-2.2 0.6-4.3 1-6.5 1.5-1.1-2-2-4.3-4.2-5.1-4.2-1.9-9.7 0.6-10.7 5.1-1 4.4-1.4 9.4 1.1 13.4 2.2 3.9 8.3 4.6 11.4 1.3 1.3-1.3 1.5-3.2 2.1-4.8q3.4 0.7 6.7 1.8c-0.7 3.1-2.1 6.1-4.6 8.1-6.7 5.2-17.6 3.5-22-3.9-4.4-7.8-3.6-19.4 4-24.9z"/><path class="c" d="m689.2 574.2c5.4-3.9 14.5-1.9 16.4 4.8 1.3 3.5-0.8 7.1-3.8 8.9 3.6 1.5 6.2 5.1 5.5 9.1-0.5 5.9-6.6 10-12.3 9.4-5.2-0.2-9.8-4.5-10.4-9.7q3.1-0.3 6.2-0.5c0.9 2.2 2.4 4.9 5.2 4.6 4.7 0 6.2-6.9 2.6-9.4-1.6-1.3-3.6-0.6-5.3-0.3q0.1-2.5 0.3-5c2.2-0.6 5.2-1.4 5.7-4 0.7-2.8-2.7-5.3-5.2-4.2-1.9 0.6-2.2 2.8-3 4.4q-3-0.4-5.9-0.9c0.7-2.7 1.5-5.7 4-7.2z"/><path class="c" d="m214.6 572.5q5.2 0 10.3 0 3.2 11 6 22.2 3-11.1 6-22.2 5.1-0.1 10.2 0c0.1 11.1 0.2 22.2 0.1 33.4q-3.2 0-6.4-0.1c-0.3-8.4 0.2-16.8-0.2-25.2-2.2 8.4-4 16.9-6.5 25.2q-3.1 0-6.2 0c-2.3-8.3-4.6-16.6-6.6-24.9-0.4 8.3 0 16.6-0.1 24.9q-3.3 0-6.5 0.1c-0.1-11.1 0.1-22.3-0.1-33.4z"/><path class="c" d="m417.3 572.6q3.8-0.3 7.6-0.1c4.3 11.1 9.2 22.1 13.5 33.2q-3.7 0.1-7.4 0.1c-1-2.5-2-5-3.1-7.5-4.3-0.1-8.7-0.1-13-0.1q-1.5 3.8-3 7.6-3.6 0.1-7.3 0c4.2-11.1 8.7-22.1 12.7-33.2zm-0.3 19.9q4.3 0 8.7 0.1c-1.6-3.9-3.1-7.8-4.5-11.8-1.6 3.8-2.8 7.8-4.2 11.7z"/><path class="c" d="m554.7 572.5c6.1 0.1 12.2-0.4 18.3 0.4 8.3 1.6 9.9 14.7 2.8 18.8-4.4 2.3-9.6 1.3-14.3 1.5q0 6.3 0 12.6-3.4 0-6.8 0c0-11.1-0.2-22.2 0-33.3zm7 5.7q0 4.6-0.1 9.2c4.1-0.2 11.1 1.3 11.7-4.4-0.1-5.9-7.6-4.8-11.6-4.8z"/><path class="c" d="m614.3 574.2c3.8-2.3 8.8-2.6 12.8-0.6 4.7 2.4 6 8.7 3.7 13.2-2.6 5.3-7.9 8.3-11.7 12.7q6.5 0.1 13 0.2 0 3.1-0.1 6.1c-7.6 0-15.2 0.2-22.7-0.2 1.1-8.9 9.4-13.5 14.8-19.6 2.6-2.8 1.3-8.7-3.1-8.3-3-0.1-4.1 2.9-4.5 5.3q-3.2-0.2-6.4-0.5c0.4-3.1 1.3-6.5 4.2-8.3z"/><path class="c" d="m260.5 581.7c5.3-1.6 11.8 0.2 14.7 5.1 3.1 5.4 2.3 13.5-3.1 17.2-6.2 4.6-17.1 2.3-19.4-5.6-2.6-6.4 0.6-15.1 7.8-16.7zm0.9 5.6c-4.5 3.4-3.6 12.8 2.6 13.6 4.7 0.5 7-4.9 6.2-8.9-0.1-4.2-5.3-7.2-8.8-4.7z"/><path class="c" d="m311.9 583.9c4.6-4.3 13.1-3.7 16.7 1.6 1.9 2.9 2.2 6.4 2.5 9.7-5.4 0.2-10.8 0.2-16.2 0.3 0.3 3.1 2.7 6.3 6.2 5.6 1.7 0 2.3-1.7 3.2-3q3.1 0.2 6.3 0.6c-1.7 9.4-16.9 10.4-20.7 2.1-2.6-5.3-2.4-12.7 2-16.9zm3.1 7.3q4.7 0.3 9.4 0.4c0.1-2.6-1.4-5.6-4.3-5.5-3.1-0.5-4.8 2.5-5.1 5.1z"/><path class="c" d="m349.7 581.6q3.4 0.1 6.8 0.1-0.1 3.3 0 6.6-3.4 0-6.8 0 0-3.4 0-6.7z"/><path class="c" d="m476.5 590.2q6.5 0.1 13 0.1 0 3.2 0 6.5-6.5 0-13-0.1 0-3.2 0-6.5z"/><path class="c" d="m636.5 590.2c4.3 0 8.6 0.1 12.9 0.1q0 3.2 0.1 6.4c-4.4 0-8.8 0.1-13.2 0q0.1-3.2 0.2-6.5z"/><path class="c" d="m349.8 598.9q3.2 0 6.5 0.1 0.1 3.4 0 6.8-3.2 0-6.5 0 0-3.5-0.1-6.9z"/><path class="c" d="m336 649c18.5-4.3 38.5-2.9 56 4.5 14.7 6.2 28.1 15.9 37.7 28.7-5.3 4.2-10.6 8.5-16 12.6-9.2-11.5-21.6-20.5-35.7-24.8-18.6-5.8-39.8-3.7-56.6 6.5-25.2 14-39.1 45.6-31.8 73.7 6.5 28.9 34.1 50.9 63.5 52.1 23 1.6 46.2-9.6 60.1-27.9 5.5 4 10.5 8.5 15.9 12.6-9.5 13.1-23.2 22.7-38 29-19.5 7.9-41.7 8.8-61.7 2.4-14.6-4.8-28.3-12.9-38.6-24.4-13-13.3-20.5-31.3-23.2-49.5-10.7 0-21.3-0.1-32 0q0 30.3 0.1 60.5c-6.8 4.7-13.6 9.4-20.6 13.8 0-56.2-0.1-112.4 0.1-168.6 25.5-0.1 50.9-0.1 76.4-0.1-5.7 6.3-11.3 12.7-16.7 19.3-13.1 0.3-26.2-0.1-39.3 0.1q0.1 27.5 0 55c10.7 0.1 21.5 0 32.2 0.1 2.6-19.1 11.3-37.4 24.8-51 11.6-12.3 27-20.9 43.4-24.6z"/><path class="c" d="m531.6 655.5c14-6.6 29.6-9.1 44.9-8.6 0.1 7.7 0 15.3 0 23-8.2-0.1-16.6 0.1-24.5 2.4-15 4.2-28.6 13.5-37 26.7-8.2 12.3-11 27.9-8.2 42.4 2.7 12.5 9.3 24.4 19.2 32.6 9.5 8.1 21.4 13.6 33.8 15.4 5.6 0.8 11.2 0.4 16.8 0.7 0 7.7 0 15.3-0.1 23-9.2-0.2-18.6 0-27.6-2.3-31.6-6.7-58.9-32.4-65.1-64.5-3.8-19.3-0.6-40.1 9.7-56.9 8.9-14.8 22.4-26.8 38.1-33.9z"/><path class="c" d="m623.1 675c18.3-19.6 45.9-29.8 72.6-27.9 0.2 7.6 0 15.2 0 22.8-13.7-0.6-27.7 1.6-39.7 8.4-15 8.3-26.6 22.9-30.2 39.8 17 0.1 34-0.1 51 0.1q0 11.4-0.1 22.9c-17 0.1-34.1 0.1-51.2 0 2.4 13.6 10.2 25.9 20.9 34.5 11.7 9.2 26.6 14.7 41.6 14.4q3.8-0.1 7.7 0.1 0.1 11.4 0 22.8c-14.8 0.7-29.9-1.2-43.6-7-18.7-7.9-34.7-22.5-43.3-40.9-6.8-13.5-9.2-29.1-7.4-44.1 1.7-17.1 9.8-33.4 21.7-45.9z"/><path class="c" d="m313.9 707c10-15.4 28.9-24.3 47.1-22.6 15 0.8 28.8 9.3 38 20.8-5 4-10.4 7.6-15.5 11.4-5.6-6.7-13.4-12.1-22.4-13-14.3-2.3-29.6 6.7-34.2 20.5-2.6 7-2.5 15 0.2 22 4.9 12.1 17.8 20.6 30.9 19.8 10-0.2 19.5-5.5 25.3-13.6 5.3 3.5 10.4 7.3 15.5 11.2-9.6 13.6-26.2 21.8-42.8 21.4-13.5-0.3-27-5.7-36.4-15.5-16.5-15.9-18.7-43.7-5.7-62.4z"/><path class="c" d="m351.3 863.2c1.2-2.4 4.4-1 6.6-1.3 0.1 7.1 0 14.2 0 21.3 1.5-0.1 2.9-0.1 4.3-0.1 0 2 0.1 4 0.1 5.9q-2.2 0.1-4.3 0.1 0 3.4-0.1 6.7-3.2 0-6.3 0 0-3.4 0-6.7c-4.6 0-9.3-0.1-13.9 0 0-2.1-0.2-4.1 0.1-6.1 4.2-6.8 9-13.1 13.5-19.8zm-7.2 19.9q3.7 0 7.5 0c0-3.7 0.1-7.4 0.1-11.1-2.7 3.6-5.2 7.3-7.6 11.1z"/><path class="c" d="m198.5 862c7.7 0 15.5-0.2 23.2 0.1q0 2.9 0 5.7c-5.4 0.2-10.8-0.1-16.3 0.3q0.1 3.8 0.1 7.6c4.7 0 9.4 0 14.1-0.1q0.1 3 0 6-7 0.1-14-0.1-0.1 7.2 0 14.3c-2.3 0.1-4.7 0-7.1 0.1 0-11.4-0.1-22.7 0-33.9z"/><path class="c" d="m229 867.9c4.4-6.9 14.5-8.4 21.2-4.1 2.8 1.8 4.4 4.8 5.4 7.9q-3.4 0.6-6.8 1.4c-1-1.7-2-3.7-3.8-4.7-4.1-2.2-9.7 0-11.1 4.4-1.2 4-1.1 8.4 0.3 12.4 1.4 4 6.5 6.3 10.4 4.3 2.4-1.2 3.4-3.9 4.2-6.2 2.1 0.8 5.2 0.6 6.7 2.5-2 10.3-15.9 13.7-23.5 7.4-7.2-6.1-7.9-17.6-3-25.3z"/><path class="c" d="m262.1 869.1c3.7-7.4 13.7-9.4 20.8-6.1 3.4 1.7 5.6 5.1 6.4 8.7q-3.2 0.6-6.4 1.4c-1.1-1.6-1.8-3.5-3.5-4.5-3.6-2.1-8.9-1-10.9 2.8-1.9 3.8-1.7 8.4-0.9 12.5 0.9 4.1 5.2 7.3 9.4 6.2 3.4-0.6 4.8-4.1 5.7-7 2.2 0.7 4.4 1.4 6.6 2.1-1.3 9.9-13.8 14-21.8 9.2-8.5-5-9.5-17.2-5.4-25.3z"/><path class="c" d="m310.1 862.1c8.4-0.3 16.8-0.1 25.1-0.1-0.2 2.3 0.6 5.1-1.2 7-5.5 7.1-11.6 13.8-17.2 20.9 6.3 0 12.7-0.1 19 0q0 2.9-0.1 5.9c-9.1-0.1-18.3 0.1-27.4 0 0-2.2-0.2-4.3 0.2-6.5 5.5-7.4 11.8-14.3 17.7-21.5-5.3 0-10.7 0.1-16.1 0q0-2.9 0-5.7z"/><path class="c" d="m364.1 862.1c8.9-0.3 17.9-0.2 26.9-0.1q0.1 2.9 0.1 5.8-5 0.1-9.9 0.1c-0.1 9.3 0 18.6-0.1 27.9q-3.5 0-7 0c0-9.3 0-18.6 0-27.9-3.3 0-6.7 0-10 0q-0.1-3 0-5.8z"/><path class="c" d="m406.7 862.1c2.7-0.1 5.4-0.1 8.2 0 2.1 3.5 4.3 7 6.7 10.5 2.3-3.4 4.2-7 6.5-10.4 2.6-0.5 5.3-0.2 8-0.2-3 5.5-6.9 10.6-10.1 16 3.1 6.3 8 11.7 11.6 17.9-2.9 0-5.7 0.1-8.5-0.1-3-3.6-5-7.8-7.7-11.5-2.3 3.9-4.9 7.7-7.5 11.6q-4.1 0-8.1-0.1c3.2-6.2 7.4-11.9 11.4-17.6-3.6-5.3-7.2-10.6-10.5-16.1z"/><path class="c" d="m440.6 861.9q3.6 0 7.1 0.2c0 11.2 0 22.5 0 33.7q-3.5 0-7 0c0-11.3 0-22.6-0.1-33.9z"/><path class="c" d="m464 862.1c2.3-0.1 4.7-0.3 7.1-0.1 1.1 0.7 1.2 2.3 1.8 3.4 3.9 10.2 8.4 20.3 12.5 30.5q-3.8 0-7.6 0.1c-1.1-2.5-2.1-5.1-3.2-7.7-4.5-0.1-9 0-13.5 0.1-1.1 2.4-2.1 4.9-3 7.5q-3.6-0.1-7.1-0.1 6.2-17 13-33.7zm3.6 8.1c-1.4 4.2-2.7 8.3-4.4 12.3 3 0 6.1 0 9.2 0.1-1.6-4.1-3.1-8.3-4.8-12.4z"/><path class="c" d="m499 862c5.4-1.3 11.6-0.6 15.8 3.2 4.3 3.6 5.9 9.4 5.5 14.8 0.1 5.7-2.6 11.7-7.8 14.4-7.8 3.9-19.4 2.1-23.3-6.4-4.3-9.2-1.3-23.5 9.8-26zm0.4 6.6c-3 1.6-4.5 5-4.7 8.3-0.2 3.9 0.2 8.3 3.3 11.1 3.2 3 8.8 3.1 11.9-0.1 3.8-3.7 3.6-9.6 2.5-14.4-1.4-5.4-8.4-7.5-13-4.9z"/><path class="c" d="m525.6 862c8.4 0 16.8-0.2 25.2 0.1q0 2.8 0 5.7c-6.1 0-12.2 0-18.3-0.1q-0.1 3.8 0.1 7.5c5.6-0.1 11.3 0 16.9-0.1q0.1 3 0 6c-5.6-0.1-11.3 0-17-0.2q0 4.5 0 9.1c6.4-0.2 12.7-0.1 19-0.1q0.1 3 0 6c-8.6-0.1-17.2-0.1-25.8-0.1-0.1-11.2-0.1-22.5-0.1-33.8z"/><path class="c" d="m561.9 862.9c5.2-2.2 12-2.2 16.6 1.4 2.4 1.8 3.4 4.8 3.9 7.6q-3.5 0.1-6.9 0.2c-0.8-5.3-9-6.6-12-2.6-1.4 2.7 2.4 4.1 4.5 4.6 4.1 1.2 8.9 1.7 12.2 4.7 3.8 3.7 3.9 10.7-0.1 14.3-4 3.8-10.1 3.5-15.2 2.7-5.3-1-9.6-5.7-9.7-11.1q3.3-0.3 6.7-0.5c0.9 5.6 7.8 8.1 12.4 5 2.2-1.1 2.7-4.7 0.2-5.9-5.1-2.5-11.9-2.1-16-6.8-3.8-4.2-1.8-11.5 3.4-13.6z"/><path class="c" d="m588.7 862c6.4 0.1 12.9-0.6 19.2 0.5 8.1 2 9.4 14.7 2.5 18.9-4.5 2.5-9.9 1.5-14.9 1.6q0 6.4 0.1 12.8c-2.3 0-4.6 0.1-6.9 0.1q-0.1-17 0-33.9zm6.9 5.9q0 4.6 0 9.3c3.3-0.2 6.7 0.5 9.9-0.7 3.2-1.5 3.3-6.6-0.1-8-3.1-1-6.5-0.5-9.8-0.6z"/><path class="c" d="m624.8 862.8c5.5-2.5 13.7-0.4 15.1 6.1 1.1 3.5-1.1 6.7-3.7 8.7 5.8 2.5 7 10.9 2.6 15.2-6.1 6.9-19.8 3.3-20.3-6.4 2-0.3 4.1-0.6 6.2-0.9 0.7 2.5 2.4 5.4 5.3 5.3 4.1-0.1 6.3-5.5 3.8-8.6-1.4-2.2-4.2-2-6.4-1.7q0.1-2.5 0.3-4.8c2.3-0.5 5.2-1.1 5.6-3.8 0.9-2.8-2.2-5.5-4.9-4.4-2 0.6-2.6 2.8-3.4 4.5q-3-0.5-5.9-0.8c0.4-3.5 2.2-7.1 5.7-8.4z"/><path class="c" d="m648.7 864.4c3.5-2.9 8.7-3.3 12.9-1.9 5.3 1.8 8.1 8.7 5.4 13.7-2.4 5.7-8.8 8.1-11.9 13.3 4.3 0.2 8.5 0 12.8 0.1 0 2.1 0 4.1-0.1 6.2-7.6-0.1-15.3 0.1-22.9 0 0.5-7.2 6.5-12 11.5-16.5 2.5-2.1 5.3-4.8 4.8-8.3-0.3-3.1-4.4-4.8-6.9-3-1.8 0.9-1.7 3-2.3 4.6q-3.3-0.2-6.6-0.5c0.6-2.7 1-5.8 3.3-7.7z"/><path class="c" d="m674 869.8c3.6-7.8 14.3-10.7 21.6-6.4 3.1 1.7 4.6 5 6.1 8-2.2 0.7-4.4 1.3-6.7 1.5-1.4-1.6-2.2-3.8-4.2-4.7-4-1.9-9.5 0.3-10.7 4.7-1.3 4.1-1.2 8.7 0.4 12.7 1.5 4.3 7.7 6.2 11.4 3.2 1.6-1.3 2.3-3.5 2.9-5.4 2.4 0.5 4.7 1.2 7 2.2-1.5 3.6-3.4 7.4-7 9.2-6.2 2.9-14.6 1.8-18.9-3.8-4.6-5.9-5-14.5-1.9-21.2z"/><path class="c" d="m711 863c5.1-2.6 12.2-1.2 14.9 4.2 2.1 3.7 0.3 8.4-3.3 10.4 5.1 2 7.3 8.6 4.3 13.2-3.7 6.5-13.7 7.4-18.8 2.2-1.8-1.8-2.4-4.2-2.8-6.6 2-0.3 4-0.5 6-0.7 0.9 2.5 2.5 5.8 5.8 5.1 4.2-0.4 5.7-6 3.1-9-1.6-1.9-4.3-1.4-6.4-1.2q0.3-2.5 0.6-5c3.3 0 7.1-2.9 5.4-6.5-2.3-3.6-7.6-1.4-8 2.4q-3-0.2-6-0.5c0.6-3.2 2.1-6.6 5.2-8z"/><path class="c" d="m296.3 871.2q3.4 0 6.9 0.1 0 3.4-0.1 6.8-3.3 0-6.6 0-0.3-3.5-0.2-6.9z"/><path class="c" d="m392.5 880.2c4.2-0.1 8.5 0 12.8 0 0.2 2.2 0.3 4.3 0.4 6.5q-6.6 0.2-13.3 0.1 0-3.3 0.1-6.6z"/><path class="c" d="m296.3 888.9q3.4 0 6.8 0.1 0.1 3.4 0.1 6.8-3.4 0-6.8 0-0.1-3.5-0.1-6.9z"/><path class="c" d="m804.3 1052.3c4.6 0.1 9.2-0.3 13.7 0.4 4.8 0.9 4.6 8.9 0 10-4.4 1-9 0.3-13.5 0.4q-0.1-5.4-0.2-10.8z"/><path class="c" d="m99.4 1056.8c4.5 0.2 9-0.4 13.5 0.4 4 1.1 3.9 7.4 0.1 8.9-4.5 0.8-9.1 0.1-13.6 0.4q0-4.9 0-9.7z"/><path class="c" d="m99.3 1073.5c4.9 0.3 9.9-0.7 14.7 0.7 4.8 1.3 4.5 9.3-0.4 10.3-4.7 0.6-9.5 0-14.2 0.3q0-5.7-0.1-11.3z"/><path class="d" d="m228.9 148c3.1-6 8.6-10.2 14.8-12.6 0.3 29.4 0 58.8 0 88.1-4.2-1.8-8.5-3.9-11.5-7.6-4.5-5.2-6.5-12.2-6.4-19 0-11.6 0-23.2 0-34.9 0-4.8 0.8-9.7 3.1-14z"/><path class="d" d="m676.1 135.4c9.6 3.7 16.7 13.2 16.7 23.6 0.1 14.1 0.7 28.3-0.2 42.4-0.8 9.6-7.6 17.7-16.6 20.8-0.6-9.4 0.5-18.8-0.1-28.2 0.1-19.5-0.4-39.1 0.2-58.6z"/><path class="d" d="m708.4 145.2q5-0.1 10 0c0.1 6.5-0.1 13 0 19.5q-5 0.1-10 0c0-6.5 0.1-13 0-19.5z"/><path class="d" d="m753.6 145.3q5.1-0.2 10.1-0.2 0 9.8 0 19.6-5 0.1-10 0.1c-0.1-6.5-0.3-13.1-0.1-19.6z"/><path class="d" d="m351.2 253.2c12.2-1.1 24.5-0.1 36.8-0.5 5.7 0.3 12.6-1.4 17 3.3 4.6 3.9 3.6 10.5 3.5 15.9 0.2 5.7-4.9 10.8-10.5 10.6-14 0-28-0.1-41.9 0-3.5 0-7.4 0-10-2.5-4.7-3.8-4.8-10.5-4.2-16 0.4-5.1 4.2-9.8 9.3-10.8z"/><path class="d" d="m519.2 253.2c2.8-0.7 5.8-0.5 8.8-0.5 12.3 0.1 24.7-0.1 37 0.1 4.9 0 10 2.7 11.7 7.4 1.1 3.8 0.8 7.9 0.7 11.8 0 5.9-5.7 10.7-11.5 10.4-14.3 0.2-28.6 0-42.9 0.1-3.9 0.2-7.9-1.1-10.2-4.4-2.9-3.7-2.2-8.7-2.2-13.1-0.3-5.2 3.5-10.4 8.6-11.8z"/><path class="d" d="m676 333.8c4.3 2.2 8.5 4.9 11.2 9 4.4 6.1 5.1 13.9 4.8 21.2-0.3 11.4 0.5 22.7-0.1 34.1-0.4 8.3-5.2 16.3-12.5 20.3-6.6 3.5-14.9 3.7-21.8 0.8-7.1-2.8-12.5-9.6-14-17.1q-0.2-2.2-0.3-4.4c10.8-0.1 21.7-0.1 32.5-0.1 0.5-4.5 0.4-9.1-0.1-13.6-0.5-7 0.4-14 0.4-21 0.2-9.8-0.6-19.5-0.1-29.3z"/><path class="d" d="m227.6 358c0-10.2 6.6-20 16.3-23.5 0.9 8.5-0.3 17-0.2 25.6-0.1 7.8 0.2 15.6 0.8 23.4-1.5 4.6-0.8 9.4-0.5 14.1 10.7 0.1 21.4-0.1 32.1 0 0 0.9 0.1 2.7 0.1 3.6-0.9 7.7-5.8 14.7-12.6 18.4-6.3 3.1-13.9 3.5-20.5 1.2-9.3-3.4-15.4-13.1-15.5-22.8q-0.1-20 0-40z"/><path class="d" d="m488.9 397.8q7.2-0.3 14.4-0.2c-0.1 10.8-0.2 21.6 0 32.4-0.2 1.4 0.4 3.2-0.5 4.4-4.7 0.4-9.4 0-14.1 0.1 0.2-12.3-0.2-24.5 0.2-36.7z"/><path class="d" d="m291.4 397.6c9.7-0.1 19.3-0.1 29 0 0 9.1-0.2 18.3 0.1 27.4-0.1 2.6 0.2 5.7-1.7 7.8-1.6 2.1-4.5 1.7-6.8 1.9-5-0.2-9.9 0.1-14.9-0.2-3.3-0.1-5.8-3.3-5.7-6.5-0.2-10.1 0-20.3 0-30.5z"/><path class="d" d="m330.1 397.6c9.6-0.2 19.2 0 28.8 0-0.2 10.2 0.3 20.3 0.1 30.4 0.1 3-1.8 6.5-5.1 6.5q-9.4 0.3-18.8-0.1c-3.2 0-5.2-3.4-5-6.3 0-10.2 0-20.3 0-30.5z"/><path class="d" d="m368.7 397.6c4.9 0.1 9.8 0 14.7 0 0.1 12.3-0.1 24.6-0.1 36.9q-7.3 0.1-14.6 0c0-12.3 0.1-24.6 0-36.9z"/><path class="d" d="m392.7 397.6q7.3-0.1 14.6 0c0 12.3-0.1 24.6 0.1 36.9-4.9-0.1-9.8-0.1-14.6-0.1-0.1-12.3-0.2-24.5-0.1-36.8z"/><path class="d" d="m416.7 397.6c4.9-0.1 9.7 0 14.6 0 0.2 12.3-0.1 24.6 0 36.9q-7.3 0.1-14.6 0c0.1-12.3 0.2-24.6 0-36.9z"/><path class="d" d="m440.8 397.6c4.8 0.1 9.6 0 14.4 0 0.1 12.3-0.1 24.6 0.2 36.9-5 0.1-9.8 0.1-14.7-0.1 0-12.3-0.3-24.6 0.1-36.8z"/><path class="d" d="m464.7 397.6c4.8-0.1 9.7 0.1 14.5 0 0.2 12.3 0.1 24.6 0.1 36.9q-7.3 0.1-14.6 0 0.2-18.4 0-36.9z"/><path class="d" d="m512.6 397.6c4.9-0.1 9.8-0.1 14.7 0 0 12.3-0.1 24.5 0 36.8-4.9 0.1-9.9 0.2-14.8 0 0.3-12.2 0.1-24.5 0.1-36.8z"/><path class="d" d="m536.8 397.7c4.8 0 9.5 0 14.3-0.1 0.1 12.3 0.1 24.6 0.1 37-4.9 0-9.7-0.1-14.6-0.1 0.4-12.3-0.3-24.6 0.2-36.8z"/><path class="d" d="m560.9 397.5c9.6 0.2 19.2 0 28.8 0-0.2 11.2 0.1 22.4-0.3 33.6-0.9 1.6-2.4 3.3-4.5 3.3-5 0.4-10 0.1-14.9 0.2-2.5-0.1-5.3 0.4-7.2-1.4-2.3-2.1-1.9-5.4-2-8.2 0.1-9.2 0-18.3 0.1-27.5z"/><path class="d" d="m599.6 397.5c9.5 0.2 19 0 28.6 0.1 0.3 10.8 0.1 21.7 0.1 32.5-0.6 2.4-2.7 4.5-5.2 4.4-6 0.2-12 0.1-18 0-2.6 0.1-4.8-1.9-5.6-4.3 0.1-10.9 0-21.8 0.1-32.7z"/><path class="d" d="m147.6 458.9c2.8-8.8 11.2-15.6 20.5-16.1 194.3 0.1 388.6 0 582.9 0 5.2 0.3 10.6 2 14.3 5.8 4.6 4.9 6.6 11.8 6.5 18.4 0 27.3 0 54.7 0 82 0 2.4-0.2 5-1.9 6.9-1.3 1.8-3.6 2.4-5.6 3.2q0.1 4.2 0.2 8.4 3.6 0 7.3 0c-0.2 12.1 0 24.2 0 36.2q-3.7-0.1-7.3-0.1c0.1 16.1-0.1 32.2 0.1 48.3q3.6 0 7.2 0.1c0 10.5-0.2 21 0 31.5q-3.7 0-7.4 0 0 4.4 0.1 8.8c3.9 1.1 7.4 4.3 7.3 8.7 0 23.7 0 47.4-0.1 71 0.1 4.3-3.5 7.5-7.3 8.8q0 3.8 0.1 7.6c3 0.6 7 2 7.2 5.7 0 10.9 0.1 21.9-0.1 32.8-0.2 3.7-3.9 5.5-7 6.3-0.2 28.2 0.3 56.3-0.3 84.4q3.6 0.1 7.3-0.1c0.1 7.6 0.3 15.3 0 22.8-0.5 6.5-7.4 13-14 10.1-5.4-3.3-4.9-10.4-4.7-15.9q-5.3-0.1-10.5 0c-0.1 6.6 0.3 13.2 0 19.8-10.1-0.2-20.2 0-30.3 0 0.1-6.7 0-13.3-0.2-19.8q-5.5-0.1-11-0.1c-0.1 5.9-0.1 11.8-0.1 17.7-6.7 0-13.3-0.1-20 0 0-5.9 0.1-11.8 0-17.7q-4.5-0.1-9.1 0.1c0.1 6 0 12 0 18-21.4 0-42.9 0-64.3 0.1 0-6.1-0.1-12.1 0.1-18.1q-4.7-0.2-9.4-0.1c0 6.1 0 12.3 0 18.5q-38.4 0-76.8 0c0-6.2 0.1-12.5 0-18.7q-4.5 0-9.1 0c0 6.1 0.1 12.2 0.1 18.3q-5.8 0-11.5 0c-0.1-6.1-0.1-12.1-0.1-18.1q-4.4 0-8.8-0.1c-0.3 7.1 0 14.2-0.1 21.3-13.9-0.1-27.9-0.1-41.8 0-0.4-7-0.1-14.1-0.1-21.2q-4.4 0.1-8.8 0.1c-0.1 5.7 0.1 11.5-0.1 17.3-28.9 0-57.8 0.1-86.6 0.1-0.1-5.9 0.1-11.8-0.1-17.7q-4.9 0.1-9.9 0.2c0.1 7-0.1 14.1 0.1 21.1-12 0.1-24 0-36-0.1 0.2-7 0-14 0.1-21q-3.4 0-6.8-0.2c-0.3 6.6-0.1 13.1-0.1 19.7q-3.5 0-6.9 0c-0.1-6.5 0-13.1 0-19.6q-3.9 0-7.7 0c-0.1 7 0 14.1 0 21.1q-17.3-0.1-34.5-0.1c-0.1-7-0.1-13.9-0.1-20.9-4 0-7.9-0.1-11.9 0.1 0.1 7 0.3 14 0.2 21-27-0.2-54 0.3-81-0.2-6.6-1-12.6-6.5-13.1-13.4-0.6-7.2-0.1-14.4-0.2-21.6q5.1 0 10.3 0.2c-0.6-28.6 0-57.3-0.4-85.9q-5 0.1-10.1 0 0.1-15.2 0.1-30.3 5 0 10 0 0-4.1 0-8.1c-2.7-0.3-5.7-0.7-7.6-2.9-2.7-2.7-2.3-6.8-2.4-10.3 0-31.7-0.1-63.4 0-95 0.1-3.7-0.1-8.1 2.8-10.9 1.9-2.1 4.8-2.3 7.3-2.6q0-4 0-8-5 0-10 0c-0.2-14-0.2-28 0-41.9q5.1 0.1 10.1 0.1c0-2.7 0-5.3-0.1-7.9-5.4 0.2-10.2-4.3-10.1-9.8-0.1-44 0.1-88 0-132 0-5.4-0.5-10.9 1.2-16.1zm28.6-6.7c-6.4 1.8-11.1 8.2-11 14.8 0 147.3 0.1 294.7 0 442-0.4 9.4 8.5 17.4 17.8 16.7 185.7 0 371.4 0 557.1 0 8.5-0.3 15.3-8.4 15.1-16.7-0.1-147 0-294 0-441 0.2-8.3-6.7-16.4-15.2-16.4-186.7 0-373.3 0-560 0q-2 0.1-3.8 0.6z"/><path class="d" d="m439.1 972.9c0.1-2.9 3.1-5 5.9-4.9q14.5-0.3 29.1-0.1c2.7-0.1 6 1.2 6.5 4.1 0.7 5 0.5 9.9 0.4 14.9-14 0.1-28 0.2-42 0-0.1-4.6-0.4-9.3 0.1-14z"/><path class="d" d="m411.2 969.8c6.5-0.2 13-0.1 19.5-0.1-0.2 5.7 0.1 11.4-0.1 17.1-6.7 0-13.6-1.1-20.1 0.9 0.2-0.3 0.6-1 0.8-1.3 0.1-5.6-0.1-11.1-0.1-16.6z"/><path class="d" d="m749.4 986.9c1.1 4.5 0.6 9.2 0.6 13.7 5.5 0.2 11-0.3 16.5 0.2 4 0.4 6.6 4.4 6.4 8.2-0.1 23 0 46.1-0.1 69.1 0.2 4.1-3.5 8.1-7.7 7.8-5.1 0-10.1-0.1-15.2 0-0.2-22.3 0.1-44.6 0-66.9 0.2-10.7-0.7-21.4-0.5-32.1z"/><path class="d" d="m576.4 1009c-0.2-4.2 3.2-8.3 7.5-8.3 6.3-0.2 12.5-0.1 18.7 0.1 0.1 28.3 0.1 56.7 0 85-6.2 0.5-12.4 0.5-18.6 0.2-4.6 0-7.9-4.6-7.5-9-0.1-22.7 0-45.3-0.1-68z"/><path class="d" d="m146.5 1011c-0.1-4 3.5-7.6 7.4-7.6 5.2-0.3 10.3 0 15.5 0-0.1 28.4 0 56.8-0.1 85.2-5.1-0.1-10.2 0.1-15.4-0.1-4.3-0.1-7.6-4.3-7.4-8.5-0.3-23 0-46 0-69z"/><path class="d" d="m316.8 1003.4c6.4 0 12.9-0.2 19.3 0 4.3 0.1 7.3 4.6 7 8.6 0 22.7 0.1 45.4 0 68.1 0.2 3.8-2.5 7.9-6.5 8.3-6.6 0.5-13.1 0.1-19.7 0.2 0.1 3.5 0.3 7-0.6 10.4 1-31.8 0.4-63.7 0.5-95.6z"/><path class="d" d="m387.5 1011.1c-0.1-5.5 6.3-6.7 10.6-6.1-0.7 17-0.1 34-0.2 51 0.3 11.7-0.8 23.4 0.2 35.1-4.1 0.7-10.2 0-10.5-5.2-0.4-24.9-0.1-49.9-0.1-74.8z"/><path class="d" d="m522.2 1004.9c2.8 0.1 6.1-0.5 8.4 1.4 2 1.6 2.4 4.3 2.3 6.7-0.1 24.3 0.1 48.7-0.1 73-0.6 5.1-6.6 5.6-10.6 5.1 0.2-4.4 0.2-8.8 0.1-13.1-0.3-24.3 0.4-48.7-0.1-73.1z"/><path class="e" d="m886.5 217.9c0.5 8.9 0 17.7 0.2 26.5-5.2 0.7-10.2 2.7-13.7 6.5-7 7-7 19.3-0.3 26.4 3.5 4.1 8.8 6 14 7.1-0.1 6.3 0 12.6 0 18.9-18.9 0.2-37.8 0-56.7 0.1-5.2 0.1-10.5-0.2-15.5-1.8-15-4.4-26.7-18.9-27.4-34.6-0.9-11.9 4.4-23.9 13.3-31.7 7.2-6.4 16.9-10 26.6-10 19.9 0 39.8 0 59.7 0.1-0.1-2.5-0.1-5-0.2-7.5zm-61.5 26.8c-5.7 1-11.1 4.1-14.3 9-6 9.6-2.2 23.9 8.4 28.4 11.4 6.3 26.7-2.5 28-15.2 2.2-12.2-9.9-24.2-22.1-22.2z"/><path class="e" d="m32.7 228.3c20.4 0 40.9-0.1 61.3 0 12.3 0 24.2 6.4 31.2 16.5 9.1 12.5 9.4 30.5 1.1 43.4-7.1 11.2-20.1 18.3-33.3 18.2-20.1 0-40.2 0-60.3 0-0.1-6.2 0-12.5-0.1-18.7 5.5-0.9 10.9-3.1 14.6-7.5 6.3-6.6 6.1-17.9 0.6-25-3.6-4.7-9.5-6.9-15.1-7.9 0-6.3-0.1-12.7 0-19zm52.8 20.3c-7.5 2.9-13.2 10.3-13 18.4-0.4 10.6 9.1 20 19.5 20.3 10.4 0.2 20.1-8.9 20.2-19.3 0.2-7-3.5-14-9.5-17.6-5.1-3.2-11.7-3.9-17.2-1.8z"/><path class="e" d="m803.2 353.2c7.1-5.3 16-7.8 24.8-7.7 19.5 0 39.1-0.1 58.7 0 0 6.4-0.1 12.7-0.1 19.1-6.6 0.8-13.2 4.4-16.5 10.4-4.5 7.4-2.9 17.6 3.4 23.5 3.5 3.6 8.3 5.4 13.2 6.1-0.1 6.3 0 12.5 0 18.8-20.9 0.1-41.8 0.1-62.7 0-19.2-0.4-36.1-17.3-36.9-36.4-1-13.1 5.4-26.3 16.1-33.8zm19.9 12c-9.5 2.1-16.7 11.9-15 21.7 1 10.4 11.4 18.9 21.9 17.2 10.8-1.2 19.1-12.5 17-23.1-1.8-10.6-13.3-18.8-23.9-15.8z"/><path class="e" d="m32.7 348.5c20.8-0.2 41.6-0.1 62.4 0 16.5 0.3 31.6 12.7 35.8 28.5 2.9 10.7 1.3 22.8-5 32-5.7 8.8-15.2 15.2-25.6 16.8-22.4 0.3-44.9-0.2-67.3 0.2-0.8-6-0.1-12.1-0.3-18.2 5-0.9 10.1-2.7 13.6-6.6 7.1-6.7 7.5-19.2 0.9-26.4-3.7-4.3-9.1-6.6-14.6-7.6 0.1-6.2 0-12.5 0.1-18.7zm54.4 19.7c-8.5 2.4-15.1 10.8-14.6 19.7 0.1 7.4 4.8 14.2 11.4 17.4 7.1 3.8 16.3 2 22-3.4 5.3-4.9 7.1-12.7 5.5-19.5-2.5-10.3-14-17.5-24.3-14.2z"/><path class="e" d="m788.7 492.8c4.9-15.8 20.7-27.5 37.3-27.3 20.2-0.1 40.4-0.2 60.6 0 0.1 6.3 0 12.6 0.1 18.9-5.8 0.8-11.6 3.4-15.1 8.2-6 7.4-5.1 19.3 2 25.7 3.5 3.5 8.3 5.2 13.1 6.1-0.1 6.2 0 12.5 0 18.8-17.2 0.3-34.4 0-51.6 0.1-6 0-12.1 0.3-18-1.1-10.2-2.2-19.2-8.9-24.6-17.8-5.8-9.3-7-21.2-3.8-31.6zm33.6-7.5c-8.1 2.5-14.6 10.1-14.6 18.7-0.3 10.1 8.3 19.3 18.3 20.1 12.1 1.2 23.6-10.9 21-23-1.6-11.1-13.9-19.4-24.7-15.8z"/><path class="e" d="m32.9 468.5c20.3 0 40.7-0.1 61.1 0 11.3 0.1 22.4 5.3 29.4 14.1 7.9 9.3 10.5 22.3 7.9 34-3.8 16.4-19.3 29.5-36.3 29.8-20.7 0.1-41.4 0.1-62.1 0.1-0.5-6.2-0.2-12.4-0.2-18.7 5.3-0.6 10.6-2.8 14.2-6.9 6.4-6.5 6.7-17.8 1.3-25-3.6-5.2-9.7-7.4-15.6-8.5 0.3-6.3-0.3-12.6 0.3-18.9zm53.4 20c-7.7 2.7-13.8 10.2-13.8 18.5-0.4 11 9.7 20.9 20.6 20.5 10.8-0.3 20.2-10.7 18.9-21.6-0.3-12.2-14.1-21.6-25.7-17.4z"/><path class="e" d="m794.8 601c7.4-9.6 19.2-15.5 31.2-15.6 20.2 0 40.5 0 60.7 0 0 6.3-0.1 12.6-0.1 19-7 0.6-13.7 4.8-17 11.2-4 7.4-2.2 17.2 3.9 22.9 3.5 3.6 8.4 5.1 13.2 5.9-0.1 6.3 0 12.5 0 18.8-18.9 0.2-37.8 0-56.7 0.1-5 0.1-10.1-0.2-14.9-1.6-9.8-2.8-18.2-9.8-23.2-18.5-7.5-13.1-6.2-30.4 2.9-42.2zm26.6 4.5c-8.4 2.9-14.6 11.5-13.5 20.5 0.6 10.7 11.5 19.5 22.1 17.9 11-1.3 19.7-13.1 16.8-24-2.3-10.8-14.8-18.5-25.4-14.4z"/><path class="e" d="m32.7 588.7c20.4-0.3 40.9-0.1 61.3-0.1 16.8-0.2 32.4 12.2 36.8 28.3 2.9 10.7 1.4 22.7-4.9 32-5.8 9.2-15.8 15.8-26.7 17-22.2-0.2-44.4 0.1-66.6-0.1 0.1-6 0.1-12 0.1-18 5.5-0.8 10.9-3.1 14.6-7.5 5.8-6.4 6.2-16.9 1.3-23.9-3.7-5.2-9.8-8.1-16-9.2 0.2-6.1 0-12.3 0.1-18.5zm53.7 19.8c-8.8 2.8-15.2 12.1-13.7 21.4 0.8 7.7 6.7 14.2 13.9 16.6 7.1 2.3 15.3-0.1 20.3-5.6 4.6-4.9 5.8-12.1 4.6-18.6-2.6-10.5-14.7-17.5-25.1-13.8z"/><path class="e" d="m811.1 708.1c6.3-2.7 13.2-3.1 19.9-3 18.6 0.1 37.1-0.5 55.7 0.1-0.1 6.2 0.1 12.4-0.1 18.6-4.2 1.1-8.6 2-11.8 5-6.6 5.1-9.2 14.6-5.9 22.2 2.7 7.4 10.2 12.1 17.8 13-0.1 6.2 0 12.5 0 18.7-16.9 0.2-33.8 0-50.7 0.1-6-0.1-12.1 0.4-18-0.9-11.1-2.1-21.1-9.5-26.4-19.5-5.2-9.2-6.2-20.7-2.7-30.7 3.5-10.6 11.9-19.4 22.2-23.6zm13.2 16.4c-10.3 1.6-18.1 12.2-16.1 22.5 1.1 9.2 9.6 16.7 18.8 16.7 10.3 0.5 20-8.5 20.3-18.8 0.8-11.9-11-23-23-20.4z"/><path class="e" d="m32.7 708.7c19.8-0.1 39.5 0 59.3-0.1 10-0.1 20.1 3.2 27.4 10 5.3 5.1 9.6 11.5 11.5 18.6 2.5 9.7 1.4 20.4-3.6 29.1-5.6 10.5-16.3 18.1-28.1 19.6-22-0.1-44.1-0.1-66.2 0.1-0.8-6-0.2-12.1-0.3-18.1 5.3-0.7 10.6-2.8 14.3-6.9 6.5-6.6 6.9-18 1.2-25.3-3.5-4.9-9.6-7.3-15.5-8-0.1-6.4 0-12.7 0-19zm53.7 19.9c-7.1 2.5-13 8.8-13.7 16.5-1.4 10.8 7.5 21.6 18.3 22.3 11.2 1 21.9-9.2 20.9-20.4 0.4-12.6-13.6-22.7-25.5-18.4z"/><path class="e" d="m810.3 828.4c8.7-4 18.4-3.6 27.8-3.5 16.2 0 32.4-0.1 48.6 0 0 6.3-0.1 12.6 0 18.9-5 0.9-10 2.6-13.5 6.4-7.2 6.6-7.7 18.7-1.5 26.1 3.7 4.6 9.3 7 15 7.8-0.1 6.2 0 12.5 0 18.7-16.9 0.4-33.8-0.2-50.7 0.2-7.6 0-15.4 0.4-22.7-2.2-11.7-3.9-21.2-13.8-24.7-25.7-2.6-8.2-2.1-17.4 1-25.5 3.6-9.5 11.6-16.9 20.7-21.2zm13.1 16.1c-9.5 2.2-17.1 11.7-15.5 21.6 0.7 10.4 10.9 18.6 21.2 17.7 11-0.6 20-12 18.1-22.8-1.6-10.7-13-19.3-23.8-16.5z"/><path class="e" d="m32.7 828.8c20.8-0.3 41.5-0.2 62.3-0.1 17.5 0.3 33.4 14.2 36.5 31.4 2.2 11.7-1.1 24.4-9 33.4-6.6 7.5-16.1 12.1-26 13q-2.3-0.3-4.5-0.4-29.9 0.1-59.7 0c1-6-0.3-12.2 0.7-18.2 5.1-1.1 10.3-2.9 13.9-6.9 6-6.3 6.9-16.7 2.2-24-3.1-4.4-7.8-7.8-13.1-8.8-1.1-0.6-3.8-0.1-3.3-2.1q0-8.7 0-17.3zm54.5 19.5c-9.2 2.5-16 12-14.5 21.6 1 9.5 9.8 17.5 19.4 17.5 10.4 0.2 20.3-8.7 19.8-19.4 1.2-12.7-12.6-23.5-24.7-19.7z"/><path class="e" d="m814.8 946.5c7.2-2.2 14.8-1.8 22.2-1.8 16.5 0.1 33.1-0.1 49.7 0.1q-0.1 9.5 0 19.1c-4.8 0.7-9.6 2.3-13.2 5.7-6.7 6.1-7.8 17.2-2.9 24.8 3.3 5.6 9.6 8.8 16 9.3 0.1 6 0.2 12 0 18.1-1.2 1.1-3.2 0.4-4.6 0.7-19.7 0-39.4-0.1-59.1 0-17.2-0.8-32.4-14.6-35.5-31.5-1.7-9.8 0.2-20.4 5.9-28.6 5.2-7.4 12.8-13.3 21.5-15.9zm7.6 18.2c-8.9 2.5-15.9 11.8-14.3 21.3 0.8 7.4 5.9 14.3 13.1 16.6 10.3 3.8 23-3 25.4-13.7 2.1-7.7-0.9-16.5-7.5-21.1-4.7-3.7-11-4.4-16.7-3.1z"/><path class="e" d="m32.9 948.5c20.7 0.2 41.4-0.1 62.1 0.1 16.8 0.3 32.2 13.1 36 29.4 2.7 10.4 0.8 21.9-5.1 30.9-6.4 10.1-17.8 16.8-29.7 17.5-21.1 0.1-42.3 0-63.4-0.2-0.3-6.2-0.1-12.3-0.1-18.4 4.8-0.6 9.7-2.3 13.3-5.7 8.7-7.8 8-23.7-1.8-30.3-3.4-2.6-7.7-3.3-11.6-4.4 0.3-6.3-0.2-12.6 0.3-18.9zm55.3 19.7c-9 1.9-16.2 10.4-15.6 19.8-0.1 11.4 11.3 20.9 22.4 19.3 9.6-1.3 17.7-10.5 16.9-20.3 0.4-11.9-12.2-22-23.7-18.8z"/><path class="e" d="m454 1007.9c7.5-1.1 15.4-0.6 22.3 2.7 11.5 5.2 19.7 16.3 22.8 28.4 0.8 5.3 0.9 10.9-0.2 16.2-2.6 9-7.4 18-15.4 23.3-9.4 6.9-22.1 10.2-33.3 6.5-10.4-3-19.8-10-24.6-19.8-4.5-7.9-6.5-17.3-4.2-26.2 3.4-15.5 16.4-29.5 32.6-31.1zm2.6 27.9c-3.1 1.2-5.8 3.6-6.9 6.7-0.6 3.8-1 8.2 1.6 11.4 3 4.2 9 5.2 13.6 3.5 6.1-2.7 8.7-10.9 5.3-16.6-2.5-4.8-8.7-6.3-13.6-5z"/><path class="f" d="m381.8 307c0.2-3.6 3.6-6.4 7.2-6.2 15 0.1 30 0.1 44.9 0 2.5 0 5.5-0.1 7.3 1.9 2.3 2.2 2 5.5 2.1 8.4-0.1 9.3 0 18.6-0.1 27.9 0.1 2.8-1.7 5.7-4.5 6.6-1.9 0.3-3.8 0.2-5.7 0.3-14.7-0.2-29.4 0-44.1-0.1-3.3 0.3-6.9-2.3-6.9-5.8-0.3-3.1 2.3-6.1 5.4-6.3 11.1-1.4 22.2-2.2 33.2-3.8-0.1-4.4-0.1-8.8-0.2-13.2-10.8-1.3-21.6-2.6-32.4-3.7-3.2-0.1-6.1-2.7-6.2-6z"/><path class="f" d="m479.3 308c-0.2-3.7 2.8-7.4 6.7-7.1 15-0.1 30 0.1 45-0.1 2.5 0 5.5-0.3 7.5 1.7 2.6 2.2 2.8 6.8 0.1 9.1-1.5 1.3-3.6 1.4-5.4 1.7-10.3 0.9-20.7 2.2-31 3.5 0.1 4.4 0.1 8.8 0 13.2 10 1 19.9 2.2 29.9 3.1 2.3 0.4 4.9 0.4 6.6 2.2 2.6 2.5 2.2 7.5-1 9.4-1.7 1.2-3.8 1-5.7 1.1-15.4 0-30.8 0.1-46.1 0-4.1 0.3-7.1-4-6.7-7.8 0.1-10 0-20 0-30z"/><path class="f" d="m308 349.9c3.1-3.8 8.2-4.8 12.9-4.6 6.7 0.1 13.4-0.1 20.1 0.1 5.2 0.1 10.1 3.7 11.7 8.7 1.4 4.6 0.2 9.5 1.2 14.1 1.3 4.8 6.2 7.9 11 7.5 63.4-0.1 126.8-0.1 190.2-0.1 4.8 0.2 9.6-2.9 10.8-7.6 1-4.9-0.4-10 1.5-14.6 2-5 7.2-8.1 12.5-8q11.1-0.2 22.1-0.1c4.4 0 8.6 2.2 10.8 6 3.2 5 1 11.2 2.4 16.6 1.3 3.9 4.7 7.3 8.9 7.6 10.7 0.6 21.4-0.8 32 1.2 6.8 1.4 14.2 2.5 19.6 7.3 0.5 4.5 0.6 9.1 0.1 13.6-10.8 0-21.7 0-32.5 0.1q0.1 2.2 0.3 4.4-0.4-2.2-0.8-4.5c-4.7-0.1-9.4 0-14 0-0.5 10.9 0.5 21.8-0.5 32.5 0-10.8 0.2-21.7-0.1-32.5-9.6-0.1-19.1 0.1-28.6-0.1-0.1 10.9 0 21.8-0.1 32.7-0.7-10.8 0-21.6-0.5-32.5q-4.5 0-9 0.1c-0.4 11.1 0.8 22.2-0.6 33.3 0.4-11.2 0.1-22.4 0.3-33.6-9.6 0-19.2 0.2-28.8 0q-4.9-0.1-9.8 0.1c-4.8 0.1-9.5 0.1-14.3 0.1-0.5 12.2 0.2 24.5-0.2 36.8-0.6-12.3 0.1-24.6-0.4-36.9q-4.5 0-8.9 0c-4.9-0.1-9.8-0.1-14.7 0q-4.7 0.1-9.3 0-7.2-0.1-14.4 0.2c-0.4 12.2 0 24.4-0.2 36.7-0.6-12.3-0.1-24.6-0.3-36.9q-4.6-0.2-9.2 0c-4.8 0.1-9.7-0.1-14.5 0q-4.7 0.1-9.5 0c-4.8 0-9.6 0.1-14.4 0-3.2-0.1-6.4 0-9.5 0-4.9 0-9.7-0.1-14.6 0-3.1 0-6.3 0-9.4 0q-7.3-0.1-14.6 0-4.7 0-9.3 0c-4.9 0-9.8 0.1-14.7 0q-4.9 0-9.8 0c-9.6 0-19.2-0.2-28.8 0q-4.9 0.1-9.7 0c-9.7 0-19.3-0.1-29 0-4.8 0-9.6-0.1-14.3-0.3q-0.5 1.9-0.9 3.9c0-0.9-0.1-2.7-0.1-3.6-10.7-0.1-21.4 0.1-32.1 0-0.3-4.7-1-9.5 0.5-14.1 5.6-4.2 12.7-5.4 19.4-6.7 10.3-2 20.8-0.8 31.1-1.3 5-0.2 9.4-4.5 9.6-9.4 0.4-5.5-0.6-11.8 3.4-16.1z"/><path class="g" d="m453.6 998.9c14.8-2.3 30.3 3.3 40.9 13.6 8.8 8.8 13.4 21.2 14 33.5 0.2 13.4-5.3 27-15.4 36.1-17 17-47.4 17.1-64.9 0.8-11.3-9.8-17.3-25.1-16.1-40 1-22.1 19.8-41.3 41.5-44zm0.4 9c-16.2 1.6-29.2 15.6-32.6 31.1-2.4 8.9-0.3 18.3 4.2 26.2 4.8 9.8 14.2 16.8 24.6 19.8 11.2 3.7 23.9 0.4 33.3-6.5 8-5.3 12.8-14.3 15.4-23.3 1.1-5.3 1-10.9 0.2-16.2-3.1-12.1-11.3-23.2-22.9-28.4-6.8-3.3-14.7-3.8-22.2-2.7z"/><path class="g" d="m671.5 1003.7c10.3-1.6 21.1 1.2 29.4 7.5 6.4 4.9 10.9 12 13.4 19.6 3.2 10.1 1.7 21.5-3.8 30.6-6.9 12.5-21.3 19.9-35.4 19.1-15.4-0.7-29.9-11.3-34.6-26.1-4.6-13.1-1.4-28.6 8.1-38.8 6.1-6.3 14.1-10.8 22.9-11.9z"/><path class="g" d="m234.2 1006.4c11.3-2.3 23.5 0.6 32.5 7.9 14.2 10.9 18 32.4 9.6 48-8.8 17.5-32.1 25.6-49.9 17.2-18.5-7.6-28.2-31-20.4-49.5 4.5-12.1 15.6-21.2 28.2-23.6z"/><path class="g" d="m456.6 1035.8c4.9-1.3 11.1 0.2 13.6 5 3.4 5.8 0.8 13.9-5.3 16.6-4.6 1.7-10.6 0.7-13.6-3.5-2.6-3.2-2.2-7.6-1.6-11.4 1.1-3.1 3.8-5.5 6.9-6.7z"/></svg>